<svg width="79" height="77" viewBox="0 0 79 77" fill="none" xmlns="http://www.w3.org/2000/svg">
<g clip-path="url(#clip0_598_8)">
<path d="M43.34 31.0547L35.4036 31.6436L34.9067 70.7632L43.0779 70.8329L43.34 31.0547Z" fill="#69C9A0"/>
<path d="M41.9381 43.9754C41.9381 43.9754 41.8841 39.5012 40.4545 35.7374C39.0249 31.9735 37.7604 29.8365 37.17 28.8961C36.8419 28.3983 34.0262 25.0011 33.3474 24.4333C31.6612 23.023 30.0484 21.525 28.3108 20.2206C25.814 18.3555 22.7387 17.0486 19.7649 16.1988C18.0807 15.7206 16.4622 15.2973 14.7262 15.1479C14.1341 15.0993 9.97059 15.2269 9.18063 15.4594C8.54795 15.6374 6.83664 15.9925 5.78309 16.4511C4.72954 16.9098 3.26269 17.5065 3.26269 17.5065C3.26269 17.5065 4.04573 21.0645 4.67516 22.6703C5.32649 24.2945 6.3281 28.2586 9.6689 32.3183C12.9878 36.3598 14.7281 38.1504 15.9982 39.2127C17.531 40.4949 19.2296 41.134 20.9934 42.051C22.0999 42.6415 23.1478 43.2575 24.3056 43.7421C25.3173 44.179 26.3438 44.5537 27.3921 44.9467C29.2184 45.6555 31.4334 45.7217 33.8021 45.6931C36.1707 45.6645 37.1872 45.4727 38.5183 45.1717C39.8493 44.8707 41.9381 43.9754 41.9381 43.9754Z" fill="#FFA8B5"/>
<path d="M74.4949 10.4636C74.4949 10.4636 70.2232 9.03238 66.1709 9.14444C62.1186 9.25649 59.6678 9.7506 58.578 10.0003C57.9961 10.1473 53.8331 11.6986 53.0683 12.1559C51.1687 13.2917 49.21 14.3288 47.3941 15.5486C44.7935 17.3044 42.5319 19.7953 40.7385 22.3411C39.7257 23.7839 38.7869 25.1825 38.0696 26.7835C37.8273 27.3303 36.569 31.3312 36.5283 32.1593C36.4878 32.8198 36.2583 34.5645 36.3453 35.7182C36.4322 36.8719 36.5136 38.4642 36.5136 38.4642C36.5136 38.4642 40.1559 38.8987 41.8912 38.8324C43.6512 38.7513 47.7521 39.1126 52.719 37.2815C57.6612 35.4652 59.9403 34.4039 61.3712 33.5484C63.0982 32.5158 64.2687 31.1127 65.725 29.7396C66.6531 28.8833 67.586 28.091 68.4304 27.1508C69.181 26.3336 69.8774 25.4819 70.5984 24.6154C71.8775 23.1139 72.6744 21.0299 73.4321 18.7684C74.1898 16.5068 74.3443 15.4768 74.4992 14.1115C74.6541 12.7463 74.4949 10.4636 74.4949 10.4636Z" fill="#C075E3"/>
</g>
<defs>
<clipPath id="clip0_598_8">
<rect width="78" height="77" fill="white" transform="translate(0.514648)"/>
</clipPath>
</defs>
</svg>
