<svg width="31" height="40" viewBox="0 0 31 40" fill="none" xmlns="http://www.w3.org/2000/svg">
<g clip-path="url(#clip0_694_454)">
<path d="M17.7608 3.00967C16.6963 2.81613 15.4504 2.84032 14.9665 2.84032C13.9262 2.82823 13.0069 3.04596 12.0029 3.34838C10.9021 3.67498 8.90617 4.6427 7.99893 5.92493C7.09169 7.20716 6.58364 8.64664 6.3659 9.54178C6.23284 10.0861 6.20865 10.6305 6.13607 11.1869C6.03929 12.0458 5.90624 13.8723 6.32961 15.1667C6.75299 16.461 7.59975 17.465 8.04732 17.7795C8.88198 18.348 9.65615 18.8803 10.5634 19.3037C10.9868 19.4972 11.4101 19.7149 11.8456 19.8722C12.3658 20.0536 12.9101 20.1504 13.4424 20.2714C14.9665 20.6222 19.0672 19.7875 19.793 19.4367C20.5188 19.0859 21.7285 17.7916 21.9946 17.2835C22.3696 16.5578 23.2405 13.074 23.2526 12.6748C23.2647 12.0579 23.0954 9.51759 22.8776 8.88857C22.3091 7.25555 21.0752 5.46526 20.6398 4.93302C20.2164 4.38868 18.8374 3.20322 17.7608 3.00967Z" fill="#C5A3CC"/>
<path d="M5.53211 37.1864C4.8839 37.5503 7.30084 37.7158 8.59035 37.7531C13.6658 28.5712 19.1312 34.4745 21.2295 38.5739L24.1435 38.6126L18.9008 22.2225L10.7718 23.7412C9.29533 28.0714 6.18033 36.8225 5.53211 37.1864Z" fill="#9D47B9"/>
<path d="M2.27671 29.9461C2.9473 27.0584 4.75227 21.136 6.60745 20.5478C8.46263 19.9597 9.25967 21.6685 9.42629 22.5963L9.8136 25.1838C9.89471 25.754 10.3673 26.4594 11.609 24.7196C12.8506 22.9798 14.1214 21.0227 14.6016 20.2617C15.0588 19.9551 16.0477 19.6397 16.3454 20.8309C16.6431 22.0221 17.0943 23.0911 17.2828 23.4767C17.3412 25.5853 17.8636 29.5815 19.4862 28.6978C21.5145 27.5931 28.4678 20.3559 28.5488 11.8953" stroke="#FFA8B5" stroke-width="2.4"/>
</g>
<defs>
<clipPath id="clip0_694_454">
<rect width="30" height="40" fill="white" transform="translate(0.311035)"/>
</clipPath>
</defs>
</svg>
