<svg width="130" height="99" viewBox="0 0 130 99" fill="none" xmlns="http://www.w3.org/2000/svg">
<path d="M13.1494 25.3036L8.29819 38.218L22.3587 45.4388L14.6988 65.8301L40.4111 70.4472C68.8909 45.7772 44.9223 22.2435 29.378 13.5604L13.1494 25.3036Z" fill="#FFA8B5"/>
<path d="M36.3317 92.8877L56.7081 44.7548C65.9671 50.0257 82.1523 64.8867 72.8207 82.1635C63.4891 99.4403 44.6065 96.5117 36.3317 92.8877Z" fill="#F6AB1A"/>
<path d="M59.2711 50.2772C59.2711 50.2772 65.5553 44.6069 69.047 41.299C72.5386 37.9911 74.8001 33.4128 75.9547 31.654C76.8346 30.3273 78.5115 25.2626 78.2304 21.4473C77.9492 17.632 76.6956 14.7212 75.6389 12.3649C75.1367 11.2199 73.4612 7.87622 71.4563 5.84459C69.4514 3.81296 66.2772 2.13114 62.9021 3.95892C59.527 5.78669 58.0658 7.42818 56.7532 8.13898C55.5344 8.79901 54.5038 9.78225 53.285 10.4423C52.7975 10.7063 49.0668 13.1517 48.2042 13.6188C47.3417 14.0859 44.4179 16.5195 44.4179 16.5195C44.4179 16.5195 45.8951 19.7816 46.2802 20.6594C48.0045 24.5906 49.7121 28.4837 51.4364 32.4149C55.0022 40.5446 59.2711 50.2772 59.2711 50.2772Z" fill="#FF8457"/>
<path d="M55.0639 47.3278C55.0639 47.3278 65.9748 41.0691 72.254 37.6664C78.5332 34.2636 85.9569 33.2167 88.9496 32.4075C91.2116 31.7842 99.0174 31.8011 104.137 34.0141C109.256 36.227 112.65 39.3955 115.376 42.02C116.706 43.2794 120.489 47.2545 122.3 51.0757C124.112 54.8969 124.866 60.2175 120.684 64.1574C116.502 68.0972 113.519 69.3991 111.893 70.9312C110.383 72.3539 108.52 73.355 107.01 74.7778C106.406 75.3468 101.197 79.4998 100.129 80.5067C99.0598 81.5135 94.2653 84.5226 94.2653 84.5226C94.2653 84.5226 90.4979 80.8687 89.4779 79.9032C84.9101 75.5794 80.3866 71.2976 75.8187 66.9738C66.3726 58.0323 55.0639 47.3278 55.0639 47.3278Z" fill="#C075E3"/>
<path d="M62.4797 36.3874C60.9426 36.0654 59.158 36.0259 58.4644 35.9979C56.9725 35.9215 55.6672 36.1614 54.2454 36.5103C52.6862 36.8862 49.8807 38.0731 48.6539 39.7461C47.4271 41.4192 46.7816 43.3269 46.5209 44.5189C46.3614 45.2438 46.358 45.9749 46.2859 46.7195C46.1966 47.8697 46.1108 50.32 46.7921 52.0862C47.4733 53.8525 48.7448 55.2525 49.4045 55.7016C50.6336 56.515 51.7739 57.276 53.0987 57.8981C53.7167 58.1831 54.3361 58.5005 54.9694 58.7373C55.7255 59.0116 56.5113 59.1733 57.2812 59.3668C59.4862 59.927 65.3164 59.0408 66.3367 58.6107C67.3569 58.1806 69.0165 56.5088 69.3688 55.8405C69.8646 54.8854 70.9129 50.2476 70.9073 49.7112C70.8892 48.8817 70.5005 45.4534 70.1522 44.5944C69.2434 42.364 67.3719 39.8835 66.7171 39.142C66.0789 38.385 64.034 36.7101 62.4797 36.3874Z" fill="#FFD700"/>
</svg>
