<svg width="320" height="447" viewBox="0 0 320 447" fill="none" xmlns="http://www.w3.org/2000/svg">
<path d="M320 401.805L200.755 447L178.113 371.675L51.3208 352.091L0 246.636C53.3333 236.091 168.151 215 200.755 215C233.358 215 283.774 236.091 304.906 246.636L320 297.857V401.805Z" fill="#FFD700"/>
<path d="M167.742 102.866C155.107 70.2411 129.026 4.26876 125.781 1.375L17 84.3349C21.1308 118.105 30.7003 189.04 35.9307 202.618C41.1609 216.196 114.752 248.76 150.893 263.345L248.827 185.198C228.275 182.472 186.207 129.174 167.742 102.866Z" fill="#FF8457"/>
<mask id="mask0_2274_495" style="mask-type:alpha" maskUnits="userSpaceOnUse" x="17" y="0" width="233" height="262">
<path d="M168.053 101.491C155.418 68.8661 129.336 2.89376 126.092 0L17.3105 82.9599C21.4415 116.73 31.0108 187.665 36.2412 201.243C41.4717 214.821 115.063 247.385 151.203 261.969L249.138 183.825C228.586 181.097 186.517 127.799 168.053 101.491Z" fill="#C075E3"/>
</mask>
<g mask="url(#mask0_2274_495)">
<path d="M178.807 179.087C180.523 178.32 177.268 182.393 180.376 180.295C180.093 180.954 179.857 181.599 179.666 182.208C179.065 182.079 178.461 181.965 177.856 181.857C178.084 180.981 178.406 180.047 178.805 179.085C178.805 179.087 178.807 179.087 178.807 179.087ZM173.472 173.692C174.16 175.638 172.841 178.689 176.08 176.446C175.752 175.887 175.442 175.312 175.137 174.73C176.261 173.899 177.424 173.117 178.607 172.381C178.737 171.876 178.878 171.365 179.027 170.858C180.193 171.051 181.342 171.284 182.488 171.532C182.022 171.82 181.561 172.11 181.103 172.41C180.38 174.503 179.429 176.026 178.166 178.239C178.488 178.179 178.807 178.126 179.127 178.077C178.079 178.908 177.09 179.772 176.191 180.656C176.298 179.551 176.553 178.241 176.84 177.128C174.51 177.732 173.841 180.933 173.757 182.303C173.621 184.165 173.026 183.59 173.106 184.858C173.129 185.053 173.706 185.151 173.684 185.479C173.633 186.183 173.638 186.985 173.629 187.576C173.603 187.928 173.519 188.121 173.334 188.284C173.145 188.428 172.865 188.608 172.348 188.376C172.31 188.235 172.27 188.085 172.231 187.918C171.639 185.664 171.478 182.204 173.624 178.898C171.716 179.193 172.123 176.885 173.472 173.692ZM183.647 148.705C185.031 149.209 186.327 151.693 186.841 153.628C186.841 153.63 186.842 153.631 186.844 153.635C186.961 154.061 186.557 155.399 185.897 154.2C184.829 152.283 185.587 150.531 184.054 150.252C183.94 149.737 183.79 149.224 183.647 148.705ZM180.876 145.762C180.384 144.815 181.496 144.108 182.319 145.364C182.319 145.363 182.32 145.363 182.32 145.362C182.648 145.907 181.124 145.65 183.336 146.634C183.068 147.485 182.82 148.27 182.518 149.078C182.173 148.658 181.853 148.304 181.493 147.913C182.671 147.361 181.357 146.717 180.876 145.762ZM173.266 188.668C174.153 187.977 174.128 187.972 174.782 187.511C174.838 187.709 174.651 187.439 174.472 187.387C174.212 187.929 173.809 188.397 173.266 188.668ZM186.566 165.493C186.568 165.491 186.571 165.49 186.573 165.488C186.817 165.033 187.066 164.578 187.318 164.132C187.801 164.246 188.278 164.365 188.757 164.485C189.231 163.865 189.717 163.249 190.213 162.637C190.576 162.081 190.995 161.553 191.481 161.055C191.763 161.8 191.107 162.379 190.608 163.131C190.112 163.718 189.627 164.338 189.368 164.951C187.235 166.266 185.888 166.576 185.057 165.923C185.558 165.774 186.061 165.634 186.566 165.493ZM67.7776 79.7023C67.0943 79.8582 66.4198 80.0193 65.74 80.1809C66.48 80.5496 67.2211 80.8848 67.9557 81.2861C68.3654 81.1501 68.7032 81.0739 68.9932 81.0441C70.377 80.8894 70.5997 81.8746 72.66 82.6281C80.0749 85.8342 79.6367 83.0907 83.7673 90.1463C79.0499 86.481 79.9674 89.1218 76.4464 88.3463C76.275 87.1576 80.3681 87.2031 78.5394 85.5829C75.0927 84.4885 71.7686 83.7906 68.3005 83.3865C67.5754 83.2891 66.8401 83.1858 66.0923 83.0753C66.1822 83.2673 66.2713 83.4597 66.3607 83.6519C66.956 83.7402 67.5479 83.8296 68.1421 83.9222C68.2803 83.9409 68.419 83.9607 68.5583 83.9816C68.4003 84.0201 68.244 84.06 68.0892 84.1013C67.366 84.2458 66.6507 84.3945 65.9167 84.5463C67.1889 83.8997 64.4797 83.6906 65.1241 82.7148C65.4115 82.2788 66.7401 81.9386 67.5476 81.6796C65.8795 80.926 64.1499 80.1988 62.4394 79.4861C63.4599 79.3469 64.4852 79.2149 65.5059 79.088C66.2619 79.2858 67.011 79.4891 67.7651 79.6942C67.7692 79.6969 67.7735 79.6996 67.7776 79.7023ZM124.412 257.168C121.931 257.924 117.776 257.365 115.875 255.682C118.701 256.208 121.54 256.699 124.412 257.168ZM184.355 165.406C184.671 165.38 184.98 165.361 185.295 165.339C184.731 166.346 184.192 167.355 183.687 168.37C183.141 168.111 182.59 167.858 182.035 167.614C182.786 166.866 183.568 166.127 184.355 165.406ZM190.437 170.663C190.126 171.352 190.085 171.394 189.555 172.192C189.555 172.191 189.557 172.191 189.557 172.191C189.378 172.506 187.421 175.085 187.23 174.54C188.078 173.186 188.923 171.749 189.613 170.379C189.891 170.467 190.15 170.585 190.437 170.663ZM179.209 186.509C179.208 186.511 179.206 186.512 179.203 186.514C178.759 186.964 178.28 187.346 177.854 187.84C178.78 185.58 179.976 186.062 181.002 184.187C182.018 182.309 182.236 180.895 184.637 180.488C184.455 181.165 184.324 181.948 184.148 182.67C181.805 184.634 181.804 185.649 180.816 187.967C180.281 187.479 179.746 186.997 179.209 186.509ZM95.632 103.493C96.631 103.363 96.4239 104.381 96.458 104.436C96.4564 104.435 96.455 104.435 96.4535 104.435C100.263 107.752 95.7 104.214 98.5979 107.932C97.9911 107.515 97.3836 107.124 96.7818 106.733C96.4185 105.668 96.0362 104.517 95.632 103.493ZM104.085 183.471C104.305 183.36 104.524 183.246 104.746 183.14C104.775 183.239 104.806 183.331 104.84 183.42C105.641 185.473 106.663 185.723 106.822 187.875C105.846 186.525 104.958 185.113 104.183 183.653C104.149 183.593 104.115 183.533 104.082 183.471C104.083 183.471 104.084 183.471 104.085 183.471ZM194.223 159.924C195.285 161.982 195.321 164.204 193.917 166.525C193.916 166.526 193.914 166.528 193.914 166.53C193.832 166.658 193.527 165.835 193.351 165.991C193.296 166.509 193.247 167.068 193.15 167.625C192.74 167.563 192.332 167.492 191.927 167.422C192.534 166.067 192.982 164.721 193.202 163.463C192.949 163.629 192.694 163.794 192.432 163.945C192.45 162.881 192.305 161.96 192.033 161.192C192.743 161.344 193.451 161.589 194.147 161.922C194.244 161.256 194.269 160.592 194.223 159.924ZM132.982 204.027C132.479 204.118 132.779 203.26 132.135 203.52C131.515 203.774 130.79 204.883 130.596 204.1C131.263 203.515 131.878 202.856 132.368 202.206C129.707 203.042 127.686 205.248 126.924 203.774C129.458 203.049 131.168 201.447 131.766 199.775C132.966 200.49 132.129 203.152 134.139 202.775C133.791 203.205 133.392 203.644 132.985 204.021C132.985 204.024 132.983 204.026 132.982 204.027ZM232.079 152.644C233.357 153.79 235.677 155.876 237.411 158.335C238.848 160.38 239.463 161.692 239.508 162.333C239.523 162.719 238.083 164.842 237.901 165.111C237.11 165.884 236.024 164.843 236.512 166.492C236.144 166.113 235.796 165.74 235.406 165.205C234.865 165.718 234.334 166.238 233.81 166.766C234.407 167.409 234.992 167.907 235.65 168.36C235.514 168.566 235.379 168.772 235.246 168.981C233.144 166.832 233.697 168.785 231.898 167.904C232.504 169.555 233.401 171.097 234.644 172.525C233.813 171.874 232.913 171.029 232.345 170.318C231.312 171.089 233.214 172.494 233.41 172.882C233.899 173.953 232.206 173.142 230.375 171.359C228.532 169.557 226.987 167.011 225.833 166.595C225.605 166.495 225.397 166.46 225.22 166.501C225.291 166.626 225.361 166.755 225.429 166.881C226.107 168.129 226.752 169.736 227.79 171.454C227.239 171.085 226.705 170.692 226.202 170.322C225.819 169.103 225.518 168.043 225.132 167.092C224.091 164.453 221.959 162.081 219.229 159.995C218.834 159.844 218.439 159.703 218.046 159.57C217.911 160.13 217.769 160.684 217.621 161.239C217.409 161.161 217.197 161.088 216.979 161.014L217.295 161.142C216.897 161.047 216.498 160.951 216.101 160.859C218.52 159.744 216.025 158.852 213.253 156.816C215.106 156.697 217.021 157.771 217.271 156.573C211.359 155.522 204.679 152.325 198.664 153.411C197.214 153.725 197.261 155.14 194.153 155.514C194.225 155.324 194.185 155.015 194.214 154.78C191.091 155.828 189.08 157.212 187.15 158.8C185.607 160.088 183.942 161.35 181.851 162.846C182.488 163.024 183.121 163.211 183.751 163.399C184.488 162.352 185.257 161.307 186.046 160.288C187.08 160.429 186.774 161.203 188.243 160.169C188.514 159.987 188.849 159.746 189.308 159.443C191.475 158.156 189.995 158.564 190.492 157.98C191.239 157.207 192.309 157.594 193.22 156.912C193.966 156.408 192.854 155.806 195.185 155.595C194.402 156.714 193.757 157.914 193.318 159.099C192.811 159.02 192.299 158.962 191.776 158.935C192.114 158.505 192.486 158.091 192.901 157.689C191.307 158.675 190.098 159.817 189.12 161.22C188.982 160.792 188.804 160.611 188.589 160.602C187.998 160.637 187.118 161.748 186.543 162.398C185.275 163.837 185.859 162.025 185.026 162.97C184.195 163.93 183.948 165.631 182.211 167.016C182.612 165.721 181.049 166.458 180.856 165.821C180.658 165.178 182.325 163.382 180.192 164.556C177.386 168.099 182.371 166.214 180.583 168.592C178.561 171.405 175.247 169.79 175.339 168.428C175.413 167.354 177.545 165.208 177.735 164.154C173.147 167.36 174.895 168.964 174.643 169.902C173.882 173.456 171.814 169.148 170.787 173.329C170.172 172.841 169.617 172.402 169.032 171.925C168.753 172.616 168.661 173.113 168.311 173.926C170.941 172.549 169.776 174.285 169.275 175.177C168.479 176.611 170.362 174.773 170.316 175.256C170.172 176.496 169.189 177.965 170.275 177.304C169.776 177.591 169.262 177.927 168.769 178.264C168.222 180.284 170.384 184.82 170.806 181.198C171.83 181.921 170.934 182.77 170.579 183.572C170.23 184.371 170.999 184.48 170.78 185.14C170.113 187.776 168.833 186.186 167.82 185.49C168.031 187.202 168.405 187.535 168.627 187.715C168.874 187.883 169.047 187.894 169.402 188.612C169.635 189.036 169.934 189.758 170.619 190.53C171.074 190.437 171.207 189.885 171.462 189.54C171.706 189.165 172.017 189.058 172.453 189.256C171.433 190.088 170.972 191.976 173.665 193.039C173.785 193.079 173.911 193.117 174.039 193.15C174.396 192.852 174.722 192.535 175.011 192.205C175.778 192.895 176.071 193.545 176.516 193.803C176.914 194.044 177.787 193.908 178.631 192.472C178.713 194.147 178.469 194.546 178.962 194.405C179.421 194.242 180.296 193.673 181.74 192.709C181.831 192.649 181.926 192.589 182.022 192.529C182.671 192.126 182.13 193.824 183.011 193.243C183.411 192.98 183.726 191.814 184.714 191.175C185.195 190.868 187.719 189.603 188.356 187.842C186.382 187.955 187.406 184.537 184.687 186.038C188.134 182.078 189.663 178.621 187.831 184.599C188.999 183.796 190.158 182.972 191.308 182.117C191.559 181.138 191.803 180.152 192.028 179.165C193.118 179.71 193.394 180.065 195.152 176.71C194.575 178.274 193.943 179.813 193.261 181.345C193.435 181.531 193.519 181.865 193.751 181.956C194.548 180.054 197.325 174.958 197.574 173.495C197.891 172.08 196.627 174.487 196.518 173.976C195.594 169.88 197.193 170.956 197.567 168.553C197.738 167.186 196.434 170.157 196.558 169.427C197.033 166.829 198.688 165.956 198.902 163.433C198.067 164.271 197.157 164.965 196.228 165.552C196.745 163.325 196.667 160.767 195.76 158.995C195.409 158.309 195.055 159.058 194.976 158.954C194.821 158.765 194.545 158.34 194.21 157.906C193.592 157.036 192.938 156.071 192.846 155.904C191.711 153.841 192.393 153.384 191.28 151.392C191.795 152.126 192.267 152.826 192.755 153.563C194.103 153.268 195.456 152.993 196.813 152.718C195.784 150.647 194.707 148.579 193.502 146.538C194.071 148.23 194.562 149.921 195.011 151.604C192.787 149.839 190.508 148.152 188.188 146.759C187.961 145.329 187.669 143.897 187.257 142.464C184.563 139.906 183.414 142.617 183.564 139.747C182.691 139.333 181.804 139.005 180.919 138.788C180.832 138.764 180.745 138.741 180.658 138.718C180.819 138.583 180.981 138.447 181.143 138.312C181.257 138.21 181.374 138.109 181.493 138.011C181.431 137.992 181.371 137.974 181.309 137.956C180.1 137.602 178.891 137.257 177.681 136.951C178.401 138.428 179.017 139.951 179.678 141.428C179.71 141.554 179.737 141.68 179.764 141.806C179.683 141.779 179.608 141.753 179.537 141.728C177.508 140.923 177.844 140.086 177.616 139.722C176.978 138.707 174.858 138.79 174.369 137.958C174.191 137.656 176.692 137.951 176.202 136.937C176.147 136.743 173.953 132.885 171.595 132.906C171.497 133.402 171.484 134.043 171.411 134.593C168.647 134.108 167.687 131.318 168.205 130.652C166.514 130.826 164.181 130.601 163.785 131.384C162.979 131.327 162.184 131.293 161.379 131.283C162.198 129.607 159.667 129.564 158.874 130.738C158.754 130.918 158.673 131.124 158.649 131.353C158.729 131.354 158.808 131.355 158.887 131.355C160.185 131.366 161.483 131.439 162.772 131.571C161.697 133.476 165.037 134.7 158.928 133.241C158.44 133.147 157.89 133.039 157.271 132.918C156.02 132.149 158.26 132.561 158.913 132.511C159.123 132.495 159.177 132.43 158.908 132.262C158.886 132.249 158.863 132.235 158.836 132.22C156.494 131.802 154.324 132.26 152.074 131.607C149.263 130.812 152.617 129.691 146.228 131.294C160.596 133.536 144.349 133.156 137.995 135.091C135.872 132.447 129.835 132.116 122.569 135.517C123.605 136.012 125.822 134.872 127.268 134.784C128.701 134.696 127.352 135.536 129.129 135.494C130.905 135.443 134.6 135.277 136.4 135.61C134.975 136.226 128.23 138.764 132.587 136.515C128.956 136.437 127.068 135.972 122.778 137.286C121.981 138.98 122.29 139.547 118.615 141.378C120.059 138.641 115.139 139.794 115.179 137.709C118.295 136.533 117.479 138.987 119.458 138.986C119.649 138.968 122.117 137.463 122.778 137.286C119.501 136.779 118.183 136.777 119.232 134.239C117.228 135.244 115.866 135.705 116.101 136.606C115.505 136.468 114.903 136.342 114.294 136.231C113.637 136.613 113.081 136.989 112.395 137.422C114.068 137.994 111.797 138.396 110.977 139.826C110.227 141.251 112.306 140.787 109.46 143.418C110.61 142.74 111.678 142.203 112.827 141.726C111.1 143.451 109.633 145.388 108.555 147.45C110.168 146.558 113.426 145.237 114.072 146.189C113.015 146.458 111.47 149.308 111.375 149.599C110.73 150.707 110.556 149.751 110.485 149.818C109.326 151.05 108.82 152.392 108.027 153.099C107.808 153.318 107.569 153.484 107.296 153.587C107.059 155.517 106.304 156.741 105.658 158.616C105.306 159.649 106.112 159.705 105.764 160.255C103.546 163.91 103.605 159.873 103.315 168.103C104.071 167.305 104.852 166.541 105.64 165.78C105.59 166.69 105.56 167.582 105.547 168.474C105.311 169.01 105.083 169.542 104.863 170.083C103.719 169.818 102.574 169.549 101.431 169.283C101.224 169.921 101.029 170.566 100.846 171.211C100.939 170.066 101.073 168.909 101.238 167.752C101.063 167.601 100.886 167.454 100.712 167.3C99.9792 168.912 99.3007 170.551 98.7111 172.246C99.1092 172.343 99.5105 172.438 99.909 172.533C98.8542 176.264 98.4634 176.523 99.7546 180.065C99.8998 182.008 101.123 183.479 102.232 184.346C102.72 184.774 103.185 185.141 103.553 185.481C103.545 186.072 103.552 186.674 103.579 187.283C104.037 187.468 104.495 187.646 104.954 187.81C104.835 188.641 104.75 189.498 104.69 190.356C105.839 190.181 106.149 190.188 105.272 187.622C106.814 187.883 108.606 192.134 109.475 193.944C110.088 195.329 108.212 194.684 108.212 194.906C108.207 195.705 110.104 197.426 110.402 197.857C111.64 199.75 112.8 200.831 114.145 202.377C114.401 202.679 114.793 203.942 114.858 204.021C115.342 204.598 116.6 206.001 116.771 206.131C117.117 206.413 117.437 206.661 117.737 206.885C121.291 209.375 121.244 208.212 121.282 207.636C121.304 207.3 121.377 206.994 121.825 206.95C122.294 206.879 122.992 207.158 124.38 207.113C124.157 206.731 123.993 206.337 123.873 205.932C124.188 205.91 124.537 205.842 124.957 205.704C125.504 205.841 125.226 206.429 125.762 206.094C125.886 206.02 126.054 205.904 126.273 205.733C126.353 206.235 126.431 206.738 126.493 207.243C127.109 206.723 127.672 206.188 128.228 205.612C130.124 206.774 134.086 204.27 135.194 205.829C135.674 206.444 132.959 209.397 135.074 208.725C136.536 207.741 135.088 207.85 135.597 207.367C138.979 203.68 139.478 204.134 140.24 202.011C139.988 201.601 139.716 201.2 139.427 200.819C139.348 200.726 139.267 200.632 139.188 200.539C139.549 199.924 139.911 199.303 140.271 198.672C140.006 198.412 139.743 198.147 139.478 197.889C139.253 198.509 138.998 199.208 138.784 199.773C137.903 198.556 139.499 191.093 139.74 194.183C139.849 195.453 138.996 197.51 140.867 196.626C141.279 194.561 141.697 192.197 141.922 189.991C142.257 189.99 142.591 189.991 142.925 189.986C143.272 186.974 141.486 189.456 140.798 189.288C140.908 188.633 141.006 187.97 141.087 187.311C141.442 187.08 141.808 186.864 142.154 186.606C141.649 186.504 140.572 186 141.169 184.102C141.537 182.851 142.694 184.962 142.645 182.477C141.84 182.648 140.898 183.431 140.673 180.805C141.494 180.543 142.241 180.158 143.098 179.919C142.171 176.534 143.257 174.776 141.469 170.997C140.317 168.59 137.281 166.165 139.603 163.477C138.968 161.708 138.459 162.574 138.08 162.135C136.868 160.779 136.684 159.304 136.627 158.288C136.605 157.805 136.622 157.442 136.576 157.288C135.671 154.294 134.566 153.31 134.026 150.763C133.57 151.157 133.111 151.482 132.657 151.847C134.503 153.462 135.01 154.516 136.316 157.462C135.717 156.556 135.113 155.654 134.511 154.752C134.17 155.129 133.826 155.503 133.484 155.872C134.394 157.031 135.091 158.011 135.605 158.813C137.822 162.417 136.457 162.35 134.139 159.565C133.379 158.667 132.512 157.488 131.612 156.047C132.064 155.002 132.5 153.936 132.951 152.894C129.522 149.263 129.487 146.732 127.084 141.83C126.8 141.254 125.196 139.439 124.675 138.579C124.681 138.595 124.686 138.611 124.692 138.627C123.656 138.495 123.743 139.423 123.145 139.879C122.795 139.452 122.445 139.026 122.09 138.597C121.974 137.257 122.594 137.389 121.27 135.388C120.946 135.953 120.617 136.512 120.289 137.074C118.954 134.82 118.609 133.038 117.114 131.084C117.509 131.323 117.903 131.559 118.298 131.801C116.004 126.979 121.049 128.847 117.512 126.278C117.622 125.906 117.737 125.539 117.846 125.167C118.792 126.538 119.734 127.933 120.654 129.314C121.023 129.13 121.393 128.95 121.757 128.76C120.727 127.295 119.666 125.818 118.611 124.374C119.537 125.328 120.473 126.313 121.389 127.284C120.468 125.4 119.536 123.537 118.568 121.663C118.489 124.344 116.788 122.023 115.82 123.287C114.889 119.551 114.659 116.176 110.483 112.118C109.649 111.322 109.172 112.418 108.295 109.091C107.426 110.698 104.391 107.974 103.45 109.358C104.172 110.173 104.907 111.069 105.609 111.861C105.332 110.569 106.415 109.491 107.881 110.719C109.768 112.307 110.895 115.754 112.192 114.688C112.671 115.517 113.131 116.27 113.598 117.078C113.039 116.994 112.484 116.921 111.931 116.848C113.955 118.657 114.679 120.152 114.495 121.785C112.584 119.295 110.657 116.874 108.656 114.467C108.862 114.881 109.07 115.301 109.277 115.716C107.045 114.415 107.635 116.963 104.903 113.578C105.314 113.31 105.722 113.038 106.135 112.77C104.159 112.259 101.544 108.844 101.186 110.851C100.768 109.554 100.823 109.153 99.7362 109.088C98.5288 105.726 98.1721 103.122 100.288 102.938C99.2398 102.126 98.1846 101.333 97.1297 100.57C97.2745 101.441 97.4 102.297 97.5248 103.164C96.1075 101.477 94.6408 99.8166 93.1257 98.2079C93.9971 97.0707 96.3467 101.027 96.384 99.2324C96.3911 98.8666 95.1899 98.3623 95.0688 98.0307C93.8611 94.5472 96.694 99.13 96.8629 97.6137C93.6395 93.7365 97.9036 95.1633 91.7087 91.5068C91.8466 91.0852 91.9778 90.6472 92.1205 90.2346C90.3181 88.5817 89.8483 89.3879 88.1458 88.1927C87.0711 87.4466 86.7355 85.1581 84.8964 85.1755C84.5702 85.2142 85.3893 88.1053 81.3252 85.2305C78.0866 83.1113 80.1792 82.8 78.5275 81.298C76.8229 79.737 71.6106 79.6314 70.853 77.1951C71.8767 77.8158 73.1974 78.4632 74.2761 79.1755C74.9205 78.9873 75.5471 78.806 76.1959 78.6413C74.0699 78.0975 72.058 77.1014 70.2428 76.8187C69.6052 76.7215 68.9993 76.7031 68.4323 76.821C65.2089 74.2764 60.7012 74.6182 61.3903 76.5912C62.6524 76.6583 61.539 75.5826 63.0843 76.4882C63.1512 76.9258 63.2269 77.3639 63.2919 77.8015C60.4844 77.002 58.5045 76.5434 60.1002 75.6601C59.6653 75.5213 59.234 75.3848 58.7985 75.2488C58.5081 76.0999 58.2268 76.9567 57.9384 77.8083C57.3938 77.7807 56.8449 77.7533 56.3002 77.7298C55.764 77.403 55.227 77.0762 54.6794 76.7497C55.7792 75.5511 57.1754 75.7894 52.8143 74.0363C52.7002 74.5128 52.5804 74.9859 52.4664 75.4623C48.8214 74.0861 48.9325 72.8754 44.1061 72.1268C48.1003 71.0413 49.5691 74.4242 50.1955 71.0663C51.0873 71.4661 51.9794 71.8767 52.8604 72.2893C53.1024 71.8346 53.3446 71.3794 53.582 70.924C48.4691 70.059 39.6874 72.0114 36.5529 69.5697C36.1139 69.7884 35.6792 69.9746 35.2368 70.2165C32.0075 68.616 30.3926 71.4344 27.099 69.6334C26.7475 69.4608 27.5987 66.6737 23.056 66.7574C23.1708 67.1137 23.2322 67.7141 23.3235 68.1639C22.3512 67.9477 21.386 67.734 20.4081 67.5392C20.2421 67.8738 20.0694 68.209 19.9072 68.5469C21.5628 68.6171 23.2023 68.7295 24.84 68.8752C23.4773 68.9734 22.1052 69.0967 20.7506 69.2467C22.5355 69.7409 23.3205 69.7534 22.2723 70.6241C20.7563 70.6951 19.2385 70.8021 17.7237 70.9419C17.5806 71.1717 17.4398 71.4044 17.2989 71.6348C18.067 72.2471 18.8338 72.8535 19.572 73.4935C15.6965 73.1115 12.3731 73.4396 9.21372 72.6261C8.67453 72.499 10.3248 71.3282 6.99815 72.7002C6.86153 72.263 6.69987 71.9174 6.56071 71.5158C2.8019 73.4822 1.37309 73.5878 -2.58051 74.0165C-2.85407 74.0485 -3.14015 74.0826 -3.44018 74.1199C-3.06027 74.1051 -2.77007 74.0985 -2.55341 74.0983C-1.70214 74.098 -1.97396 74.1869 -2.46497 74.3665C-2.85471 74.5098 -3.38692 74.715 -3.60295 74.9776C-3.98095 75.4392 -2.12152 74.7643 -2.23024 75.1526C-2.34388 75.5333 -4.32108 77.611 -2.21519 77.0667C-2.05099 76.8981 -1.88917 76.7405 -1.72956 76.5935C2.23307 73.0832 4.516 75.4777 10.6915 73.2459C9.70204 73.7406 8.72478 74.2547 7.76954 74.786C8.29177 74.9336 8.7552 75.0732 9.31009 75.2396C5.55936 75.3512 7.39565 75.3892 5.98966 76.0936C4.58652 76.8068 2.0294 77.8131 0.337341 78.4648C-0.197735 78.6697 0.197227 77.8985 -1.0574 78.2432C-1.09369 78.2534 -1.13205 78.266 -1.17231 78.2809C-2.11153 78.6214 -4.01995 80.1225 -4.88231 79.3511C-5.49218 78.8363 -2.29602 75.6211 -7.59713 77.5759C-8.83685 77.3154 -6.21824 76.553 -6.18987 76.4624C-5.99397 75.5208 -9.52361 76.1739 -10.7895 77.3767C-10.889 77.4748 -9.47067 77.581 -10.6603 78.3335C-13.4612 80.1329 -15.44 80.2654 -17.8052 80.3306C-17.5183 81.4773 -19.3429 83.884 -22.471 85.2207C-22.4544 85.5925 -22.4274 85.9623 -22.4057 86.3354C-22.0479 85.9208 -21.6806 85.5088 -21.3109 85.0985C-20.7124 84.9963 -20.1114 84.8352 -19.5066 84.7847C-22.3326 86.6635 -21.8975 88.3024 -22.9201 89.613C-26.2825 94.1746 -25.9523 88.9437 -25.4826 87.7669C-24.7165 87.6185 -23.9546 87.525 -23.191 87.4179C-23.4678 87.1171 -23.7478 86.8148 -24.0216 86.5097C-31.0193 91.0841 -26.5339 84.9749 -30.5553 86.8338C-30.341 89.1139 -32.7155 91.0451 -36.5812 92.8504C-36.9094 93.1602 -37.2415 93.4696 -37.5635 93.7888C-37.4214 94.0502 -37.1193 94.3697 -37.0778 94.5911C-40.313 98.1724 -43.0571 96.8956 -43.6212 97.0547C-46.0093 97.8294 -45.6863 100.285 -46.0469 100.773C-47.591 102.894 -48.6792 103.079 -49.7889 105.374C-50.9348 107.855 -49.4321 106.612 -49.4067 107.586C-49.3848 108.351 -50.3711 110.191 -50.3815 111.152C-50.5372 110.681 -50.6639 110.177 -50.8126 109.701C-51.8079 110.9 -52.6918 112 -53.5315 113.245C-54.217 114.274 -54.8205 115.51 -55.2954 116.843C-53.82 121.022 -58.6044 122.996 -54.8456 122.52C-54.0353 119.692 -53.145 118.176 -51.7968 117.071C-52.2796 118.848 -52.6194 120.675 -52.8759 122.55C-53.3698 122.991 -53.8234 123.298 -54.3374 123.885C-53.7632 125.409 -54.5241 128.615 -54.3683 129.912C-53.5977 136.001 -52.0741 134.055 -54.4489 139.551C-54.7535 135.606 -55.9346 135.585 -55.5692 131.617C-56.4684 132.395 -56.3747 134.483 -57.3276 133.101C-57.213 137.022 -56.2496 135.784 -55.4648 137.276C-54.7833 138.548 -54.6468 141.119 -53.7532 140.927C-54.2336 141.209 -54.6997 141.436 -55.177 141.726C-55.0403 144.2 -54.8072 146.664 -54.4661 149.125C-55.1172 148.159 -55.7571 147.14 -56.3725 146.135C-56.485 146.956 -56.5847 147.789 -56.6727 148.631C-54.514 154.53 -54.2851 165.582 -50.8912 162.757C-49.8868 165.51 -50.2235 165.98 -50.3773 167.767C-50.0298 167.824 -49.7321 167.894 -49.3527 167.935C-48.9704 169.815 -47.3459 170.706 -46.9351 172.319C-46.5075 173.947 -47.2793 174.795 -45.5468 174.202C-45.5435 175.381 -45.4237 176.545 -45.3324 177.714C-44.6582 178.082 -43.9849 178.44 -43.3097 178.781C-42.9858 179.761 -42.6506 180.719 -42.2859 181.688C-41.2825 181.688 -39.373 185.146 -37.8291 186.138C-37.5585 187.977 -39.9055 189.877 -36.8311 192.554C-36.3592 191.987 -35.8856 191.424 -35.4092 190.861C-34.9221 191.633 -34.4185 192.397 -33.9024 193.15C-34.0364 193.354 -34.1749 193.554 -34.3081 193.76C-34.5781 193.375 -34.8389 192.995 -35.0966 192.608C-35.1194 193.174 -35.1388 193.738 -35.1509 194.305C-33.749 194.898 -32.3177 195.461 -30.9112 195.947C-31.9495 194.37 -32.965 192.716 -33.8586 191.086C-31.9272 192.372 -31.1418 193.889 -29.2908 194.778C-28.6891 196.681 -29.5278 196.705 -30.8061 197.028C-30.2527 197.402 -29.6814 197.786 -29.1211 198.143C-30.1527 198.68 -29.7716 199.957 -32.6267 197.231C-32.6427 197.643 -32.641 198.051 -32.6627 198.471C-32.1463 198.875 -32.0039 199.357 -31.3776 199.743C-29.677 200.789 -27.3143 200.197 -27.0002 199.588C-26.8376 199.273 -28.7002 198.616 -28.3187 198.277C-27.3816 197.467 -24.5685 200.555 -28.354 195.749C-26.341 196.472 -26.4197 197.173 -24.8076 198.721C-24.6966 198.295 -24.5804 197.873 -24.4586 197.453C-24.3109 197.621 -24.1619 197.789 -24.0115 197.955C-23.4505 198.572 -22.8922 199.182 -22.3377 199.783C-24.7616 200.575 -19.0601 205.815 -25.7113 203.111C-24.1388 204.422 -22.5061 205.745 -20.914 207.009C-21.3789 206.939 -21.8447 206.864 -22.3136 206.788C-22.9977 206.151 -23.694 205.5 -24.3761 204.855C-23.7272 205.825 -23.0549 206.801 -22.3995 207.757C-20.009 208.884 -18.7214 208.863 -17.2457 208.766C-19.3029 206.517 -19.047 207.814 -21.0595 206.6C-20.6534 206.175 -20.4265 205.677 -19.9057 205.298C-19.6237 206.999 -15.8998 208.522 -15.0978 208.982C-12.7025 210.375 -15.1751 210.148 -13.6311 211.204C-12.0704 212.264 -9.85517 212.836 -9.17476 214.64C-8.8508 214.065 -8.59452 213.421 -8.36962 212.855C-5.81995 214.174 -6.68579 214.543 -6.48784 214.784C-3.22051 218.666 -0.237831 218.75 4.68607 221.121C4.15464 220.617 3.62797 220.133 3.09892 219.637C7.38519 220.29 4.72252 219.422 1.81433 217.322C4.68448 219.035 6.92335 218.832 9.16618 219.553C11.4001 220.276 14.7673 222.527 15.9126 223.562C12.5248 222.869 9.46398 220.85 6.0518 219.336C6.12407 220.129 6.23517 220.823 6.29572 221.68C8.97313 221.452 9.73707 222.861 10.3425 223.359C12.1151 224.812 12.5521 223.676 13.2274 225.424C13.3653 224.994 13.4868 224.636 13.613 224.234C17.6684 226.319 21.909 228.977 25.2841 228.587C25.1216 229.684 24.9142 230.721 24.7844 231.854C26.8871 231.848 28.11 233.241 29.6915 233.677C31.2659 234.109 31.0245 233.074 32.9138 233.475C33.2633 233.55 33.741 234.33 34.6992 234.282C35.6579 234.233 39.7876 232.664 39.1593 235.236C40.6728 235.861 42.0623 236.528 43.5326 237.178C42.027 236.721 40.5365 236.27 39.0384 235.824C40.0333 236.91 41.017 237.992 42.0025 239.081C42.3736 238.622 42.7492 238.152 43.112 237.698C46.6744 238.414 48.7412 240.279 52.1207 241.498C52.6872 241.704 51.8373 240.111 54.1684 241.438C56.5178 242.784 57.4676 245.48 61.9172 246.667C62.1539 246.732 64.0296 245.844 65.036 247.557C65.2625 247.944 63.6902 247.602 64.317 248.267C64.9697 248.939 68.2079 250.832 68.1412 251.681C68.2288 251.414 68.1436 251.051 68.1659 250.745C68.3055 250.783 68.4458 250.821 68.5862 250.859C69.0948 250.995 69.6102 251.131 70.129 251.266C69.9749 251.734 69.8261 252.206 69.6752 252.674C73.7491 253.3 76.15 252.322 81.2228 254.802C79.9796 253.61 78.734 252.385 77.588 251.168C77.0145 251.479 76.4164 251.781 75.8346 252.082C73.7355 251.032 71.6272 249.894 69.6599 248.708C69.4647 248.591 69.2701 248.475 69.0758 248.359C68.4428 248.68 67.8207 249.004 67.1945 249.329C66.6208 248.965 66.0608 248.613 65.4877 248.253C65.8231 247.958 66.1481 247.662 66.4854 247.369C65.2349 246.874 63.9628 246.38 62.7321 245.912C66.2202 244.861 69.4638 249.401 70.052 247.432C70.1004 247.499 70.149 247.565 70.1975 247.63C70.532 248.107 70.8782 248.588 71.2349 249.066C71.8825 248.283 72.8972 249.09 74.7746 250.062C74.5137 249.423 74.2305 248.778 74.017 248.147C75.5834 249.61 79.0467 250.921 80.9954 251.892C81.8584 252.326 80.7147 252.674 80.9552 252.849C82.1694 253.759 85.2051 253.463 85.7321 253.731C88.8113 255.335 90.3739 258.256 94.4776 257.76C90.7801 256.349 92.8017 257.069 91.6942 255.861C91.3453 255.484 86.6912 253.539 92.6595 255.526C93.3352 255.824 104.099 260.178 100.137 260.484C102.054 260.536 103.589 260.417 105.349 260.378C108.741 264.492 107.975 261.153 107.153 259.235C107.82 259.373 108.46 259.492 109.148 259.638C107.302 261.088 114.79 262.747 117.499 262.305C118.41 262.169 116.12 261.162 118.148 261.262C119.067 261.559 120.102 261.911 121.063 262.223C119.831 260.855 122.713 260.92 122.876 259.779C124.507 261.101 125.524 263.472 124.339 264.469C125.894 264.247 127.517 264.026 129.076 263.787C128.426 263.408 127.766 263.028 127.109 262.644C131.872 264.16 138.438 263.421 139.12 265.95C139.786 266.025 140.45 266.099 141.098 266.169C141.353 265.792 141.599 265.412 141.851 265.033C144.777 265.779 147.653 266.5 150.577 267.207C147.899 267.139 147.17 267.635 144.513 266.821C145.495 267.421 146.537 268.028 147.533 268.624C151.848 267.878 152.475 267.115 158.732 268.209C159.004 268.255 163.604 269.86 163.75 270.017C164.309 270.585 163.236 271.109 163.488 271.39C163.588 271.491 163.694 271.607 163.865 271.751C163.959 271.823 164.046 271.913 163.861 271.918C163.831 271.916 163.816 271.919 163.751 271.902C163.634 271.851 163.466 271.819 163.056 271.495C162.856 271.322 162.555 271.054 162.304 270.479C162.043 269.922 162.022 268.981 162.315 268.364C162.951 267.125 163.517 267.092 163.732 266.946C163.796 266.919 163.846 266.9 163.891 266.884C163.908 266.878 163.91 266.876 163.918 266.871C163.934 266.865 163.948 266.859 163.96 266.852C164.013 266.829 164.052 266.811 164.086 266.795C164.209 266.735 164.22 266.706 164.193 266.676C163.957 266.57 163.758 266.445 163.331 266.323C162.926 266.199 162.681 266.066 162.282 265.938C161.401 265.681 160.902 265.427 160.328 265.226C159.791 265.023 159.407 264.871 159.439 264.808C159.865 264.028 161.292 263.453 163.089 262.969C163.365 262.907 163.586 262.844 163.708 262.787C163.748 262.76 163.869 262.724 163.739 262.711C163.666 262.709 163.542 262.706 163.197 262.77C163.109 262.785 163.006 262.808 162.876 262.841C162.813 262.858 162.742 262.877 162.662 262.901C162.723 262.896 162.209 262.976 161.219 263.552C160.723 263.865 160.016 264.32 159.218 265.389C158.428 266.409 157.691 268.394 157.949 270.25C158.648 274.094 160.548 274.782 161.116 275.276C161.48 275.503 161.738 275.626 161.943 275.72C162.046 275.766 162.135 275.802 162.212 275.834C162.263 275.853 162.25 275.85 162.269 275.856C162.322 275.878 162.369 275.897 162.412 275.915C163.065 276.156 163.06 276.14 163.03 276.165C162.978 276.178 162.914 276.189 162.808 276.195C162.61 276.208 162.25 276.199 162.021 276.208C161.754 276.213 161.444 276.211 161.09 276.203C160.772 276.2 160.497 276.202 160.163 276.195C159.841 276.191 159.459 276.176 159.125 276.167C158.811 276.161 158.483 276.149 158.137 276.137C152.566 275.931 146.577 275.262 143.982 275.005C117.607 272.165 91.4439 268.478 65.8792 256.281C43.2323 244.243 17.7015 236.783 -6.64728 222.926C-7.13829 222.65 -7.15493 223.17 -7.37349 223.065C-8.74588 222.406 -9.61046 221.054 -10.0734 220.739C-11.0534 220.076 -10.8412 220.978 -11.5813 220.526C-18.4586 216.303 -24.5314 211.664 -30.8504 206.83C-31.5481 206.295 -32.2381 205.755 -32.9213 205.207C-33.3992 204.821 -32.5831 204.813 -33.4634 204.199C-33.9069 203.896 -35.7862 203.344 -36.7257 202.488C-40.0094 199.499 -42.3795 196.591 -45.2988 192.938C-46.8916 190.956 -49.0632 187.766 -50.5576 185.343C-51.2169 184.289 -52.215 183.322 -52.8295 182.243C-53.6948 180.708 -52.8534 180.658 -52.9411 180.399C-53.3133 179.255 -54.1219 179.486 -54.6078 178.466C-55.4865 176.562 -55.0522 176.215 -56.1392 173.82C-56.937 172.094 -58.8586 168.203 -59.675 165.945C-60.7751 160.434 -62.4126 153.711 -63.2022 148.58C-63.67 145.566 -62.894 145.193 -62.9945 143.971C-63.3067 139.633 -64.322 136.307 -64.153 132.128C-63.8798 126.604 -62.6238 121.78 -61.038 116.258C-60.7545 115.316 -61.497 115.324 -61.2211 114.407C-60.8413 113.181 -60.3557 111.767 -59.6507 110.258C-58.6746 108.143 -57.5591 106.052 -56.5417 104.477C-54.7793 101.786 -53.2758 101.384 -51.6258 98.7558C-51.1339 97.9916 -51.6961 97.2289 -50.8253 95.9394C-49.4252 93.8766 -47.0251 92.3868 -45.7829 91.222C-44.0705 89.635 -46.1638 90.4212 -43.8115 88.2902C-43.7125 88.2029 -42.9182 88.349 -42.4457 87.868C-41.0549 86.4817 -41.5528 86.2035 -39.3038 84.3829C-39.0945 84.1906 -35.7091 82.3379 -35.3986 82.1396C-33.6249 80.8032 -29.803 78.5649 -28.7575 77.8028C-25.0215 75.0499 -28.6259 75.9894 -24.1769 75.9614C-22.9234 74.6884 -21.6405 73.4391 -20.2136 72.1932C-21.1045 73.1294 -16.3638 71.6783 -16.0703 71.5322C-13.605 70.0975 -15.4833 69.9605 -12.0868 68.7565C-15.7822 72.2756 -7.70664 67.2966 -5.72612 66.6697C-5.51088 66.5919 -5.29645 66.5151 -5.08248 66.4395C4.73028 63.0342 14.1096 62.4247 24.0169 62.4139C27.4195 62.4079 31.9774 62.2299 35.5262 62.5794C36.3509 62.6577 35.685 63.0515 36.4079 63.1319C37.1297 63.2111 36.3786 62.6209 37.2028 62.7328C42.3363 63.458 46.1102 65.0284 50.9143 64.7038C51.1049 64.9175 51.0721 65.0512 51.4047 65.3104C55.3833 64.9433 62.1929 68.0458 64.751 68.9538C68.3535 70.1962 69.7198 70.0269 72.0547 70.6921C72.3853 70.7879 72.7318 70.9001 73.0995 71.0351C77.7349 72.6265 82.9977 77.2791 81.3918 73.729C84.2924 75.1562 86.8657 76.7551 89.2789 78.7547C89.5445 78.9764 89.0014 79.3227 89.1057 79.4132C89.7567 79.992 90.3035 79.7341 90.793 80.0733C92.0921 80.9861 89.6623 79.9237 91.5447 81.1536C92.5275 81.8171 93.3808 81.8515 95.8609 84.009C110.581 97.1382 121.451 114.194 130.861 130.326C131.5 131.436 131.577 130.414 132.351 131.828C135.066 136.743 138.954 145.952 141.266 150.129C143.054 153.338 143.608 153.289 144.54 154.229C144.843 154.557 145.184 154.987 145.594 155.646C145.937 156.197 145.269 155.922 145.52 156.46C147.205 160.054 148.146 164.838 148.84 168.059C149.298 170.188 149.988 169.869 150.348 171.373C150.874 173.644 150.368 176.118 150.427 177.347C150.698 183.105 150.866 187.264 149.484 192.323C149.691 192.159 149.87 192.06 150.067 191.922C149.189 196.039 147.921 199.849 146.736 203.292C145.704 206.332 143.957 208.922 142.062 210.922C142.448 210.733 142.827 210.54 143.217 210.32C139.724 214.166 137.713 214.526 137.117 215.027C136.494 215.442 137.094 215.605 138.4 216.837C137.888 217.32 137.346 217.818 136.839 218.238C136.348 217.067 133.711 217.545 130.108 218.149C128.187 218.533 125.478 218.989 122.451 218.564C121.749 218.653 116.757 218.984 118.039 217.154C116.879 217.241 116.187 217.29 115.25 217.303C114.216 216.097 113.486 214.925 112.884 213.8C112.839 213.711 112.795 213.624 112.751 213.535C112.184 213.248 111.616 212.943 111.058 212.635C110.737 212.901 110.54 213.282 110.133 213.472C107.648 211.751 103.578 207.15 102.061 205.375C98.1348 201.141 93.959 196.443 93.1353 191.646C92.1276 189.595 92.2403 192.037 91.0805 188.761C91.1703 188.573 91.2602 188.39 91.3513 188.21C91.4892 187.848 91.6347 187.493 91.7935 187.126C89.1568 184.434 90.0095 183.27 90.1622 179.177C90.3495 176.435 90.0488 174.7 90.4313 172.294C90.534 171.688 91.0477 171.845 91.0893 171.438C91.2039 170.058 91.2822 166.151 91.5112 165.247C92.9467 158.936 94.8857 153.834 96.9664 148.762C97.8242 146.659 98.9295 144.631 100.292 142.72C100.919 141.853 99.6893 142.695 100.356 141.793C101.46 140.368 101.461 141.703 102.12 140.932C104.019 138.888 103.391 138.207 106.321 135.64C116.393 127.44 129.114 125.854 139.537 124.655C139.868 124.618 139.794 124.128 140.153 124.084C142.499 123.807 144.903 124.285 146.992 124.141C150.457 123.909 153.02 123.112 156.394 123.017C157.174 122.996 157.95 122.983 158.703 122.975C165.423 122.896 171.735 124.358 178.022 126.718C180.647 127.701 182.984 128.754 185.157 129.762C189.335 131.734 192.366 134.577 194.966 137.676C199.105 142.718 201.807 147.743 204.452 152.459C210.293 163.753 205.107 174.077 201.641 180.566C197.751 187.452 193.296 193.109 189.013 198.553C184.56 204.424 176.507 205.535 171.926 204.634C165.523 204.16 158.615 197.293 157.801 191.454C157.423 189.811 157.256 188.164 157.259 186.58C157.274 185.482 157.719 185.937 157.703 185.607C157.659 182.548 157.259 182.197 158.635 181.434C159.171 177.958 158.673 176.589 160.391 173.066C161.361 171.268 161.886 173.24 162.897 170.031C163.926 167.284 161.337 169.156 167.137 162.976C167.295 162.818 168.646 162.547 169.593 161.141C170.57 159.743 168.744 160.727 171.437 157.649C173.852 154.95 176.776 152.313 179.989 149.824C187.833 143.552 198.166 143.445 205.245 144.403C206.061 144.403 212.955 145.416 214.223 145.635C216.781 145.938 216.487 145.156 219.618 146.007C220.582 146.275 221.424 146.66 222.253 147.075L223.288 147.498C224.779 148.388 226.269 149.417 228.253 150.614C228.627 150.867 229.732 150.557 232.079 152.644ZM57.9878 78.6206C57.2735 79.2195 55.6965 81.6429 52.6973 80.1302C52.4074 79.9866 54.458 78.499 52.7409 77.8196C54.5279 77.999 56.2433 78.3259 57.9884 78.6177C57.9883 78.6187 57.988 78.6196 57.9878 78.6206ZM230.226 177.25C227.66 175.221 225.457 171.914 224.378 169.787C225.527 171.021 227.069 172.836 228.87 174.169C229.236 175.217 229.7 176.253 230.226 177.25ZM110.515 195.9C110.514 195.898 110.512 195.897 110.511 195.895C112.31 197.537 114.225 199.017 116.22 200.317C115.862 200.347 115.5 200.374 115.139 200.395C113.469 199.418 111.838 198.314 110.275 197.1C110.349 196.697 110.429 196.296 110.515 195.9ZM100.01 179.905C100.225 178.31 100.782 178.684 101.282 177.84C101.281 177.84 101.28 177.84 101.279 177.84C101.408 177.621 101.554 176.599 101.604 176.196C101.268 176.324 100.935 176.5 100.603 176.651C99.9901 172.72 104.095 166.43 103.855 175.378C103.455 175.213 103.058 175.05 102.661 174.874C102.216 179.223 102.372 184.018 100.01 179.905ZM19.3861 75.3209C15.4081 76.8922 14.2498 77.2403 9.34036 77.0564C9.94771 76.5668 10.5745 76.0836 11.2052 75.6091C12.0599 75.8858 12.9036 76.1736 13.7395 76.4765C13.7417 76.4763 13.7441 76.476 13.7463 76.4759C13.8612 76.0501 13.9791 75.6238 14.0928 75.1992C15.8565 75.1867 17.6249 75.2292 19.3861 75.3209ZM189.947 177.16C187.05 176.629 188.614 177.214 189.739 174.199C190.104 173.166 189.164 173.83 189.433 173.215C190.784 169.945 192.415 170.454 192.941 171.589C192.087 173.473 191.042 175.359 189.95 177.153C189.95 177.155 189.949 177.156 189.947 177.16ZM211.206 157.689C211.207 157.69 211.209 157.69 211.212 157.69C211.122 158.35 209.616 158.109 211.091 159.177C209.843 158.813 208.595 158.478 207.342 158.188C207.724 158.213 208.113 158.247 208.497 158.278C208.226 157.977 207.952 157.676 207.673 157.38C207.055 158.017 206.747 157.484 205.465 156.979C205.681 157.843 205.879 158.71 206.061 159.575C204.636 159.028 203.203 158.543 201.766 158.153C201.769 157.949 201.771 157.743 201.774 157.538C201.187 157.741 200.62 157.961 200.07 158.196C199.935 157.946 199.804 157.698 199.663 157.449C198.995 157.611 198.342 157.797 197.719 158.009C197.499 157.44 198.903 157.074 196.399 157.404C197.1 156.727 197.886 156.085 198.735 155.479C202.88 155.54 207.082 156.465 211.206 157.689ZM190.434 152.156C192.882 156.189 191.824 155.261 190.134 154.955C190.245 154.026 190.345 153.089 190.434 152.156ZM127.094 146.084C125.62 145.291 124.146 144.492 122.683 143.68C120.85 141.443 120.877 138.16 122.507 139.694C124.467 141.553 125.019 144.342 127.094 146.084ZM89.3957 93.8326C91.6113 96.49 88.5065 95.0485 87.5385 95.0344C87.5483 93.6742 86.5042 92.8501 84.9794 91.4555C86.5244 92.6142 89.0297 93.3926 89.3977 93.8305C89.3969 93.8311 89.3963 93.8319 89.3957 93.8326ZM135.76 197.426C135.559 198.079 135.405 198.751 135.218 199.396C135.091 199.865 134.876 200.309 134.516 200.631C133.926 199.975 135.197 198.87 133.601 199.39C133.663 199.228 133.717 199.067 133.764 198.905C133.94 198.339 134.115 197.775 134.281 197.22C134.614 197.917 135.231 197.334 135.755 197.428C135.757 197.428 135.758 197.426 135.76 197.426ZM153.364 136.451C150.607 135.532 150.091 135.998 147.427 136.887C146.98 136.071 150.151 134.452 152.213 134.06C152.598 134.856 152.975 135.653 153.364 136.451ZM88.5035 251.631C87.5714 252.479 82.9358 251.122 80.8133 249.973C81.1354 249.924 81.4593 249.87 81.7827 249.816C83.9874 250.467 86.2696 251.082 88.5035 251.631ZM84.2542 90.782C84.506 91.0207 84.7484 91.245 84.9794 91.4555C84.7027 91.2458 84.4542 91.0237 84.2542 90.782ZM-47.3989 104.988C-47.5546 103.441 -49.8655 106.15 -47.0645 102.854C-47.0652 102.854 -47.066 102.853 -47.0668 102.853C-45.1701 100.722 -44.7168 100.278 -42.9566 98.3393C-42.6078 99.916 -45.5564 104.141 -40.7361 98.8942C-40.6715 98.8262 -41.3769 98.4444 -40.5231 97.6719C-40.2531 97.4308 -39.0316 97.037 -37.6871 95.9722C-37.2544 95.6287 -34.1489 92.9068 -38.172 96.8328C-37.4116 97.3516 -36.9701 98.2084 -36.3339 98.8145C-37.6087 100.48 -40.0204 100.501 -41.4464 102.303C-43.5406 104.997 -42.9681 107.424 -45.2864 106.632C-44.2009 103.905 -40.9995 100.035 -39.506 100.536C-37.6755 98.5287 -37.9061 97.1433 -39.8851 98.3989C-45.586 106.23 -43.1633 99.2032 -47.3931 106.752C-47.1749 107.016 -47.0686 107.5 -46.7809 107.622C-49.1501 109.207 -47.3723 105.543 -47.3989 104.988ZM-31.6989 91.7815C-32.5646 93.3566 -33.3509 94.9488 -34.0593 96.5439C-34.8183 95.7219 -34.8769 94.3459 -33.2567 92.1593C-32.7375 92.0283 -32.2169 91.9023 -31.6989 91.7815ZM-11.623 208.368C-11.0816 207.991 -10.2335 207.876 -9.52599 207.639C-9.44943 208.406 0.619141 215.043 -4.89086 212.329C-5.73515 211.93 -9.71427 208.158 -11.623 208.368ZM171.17 137.087C170.016 136.305 168.826 135.574 167.58 134.901C169.671 135.059 171.785 135.384 173.888 135.853C172.953 136.237 172.052 136.65 171.17 137.087ZM116.26 125.427C116.561 125.948 114.784 124.708 116.158 126.642C114.765 125.433 113.483 124.274 112.121 123.114C112.171 122.463 112.216 121.807 112.263 121.156C111.827 120.961 111.388 120.761 110.953 120.57C111.569 120.447 112.16 120.311 112.794 120.198C113.367 123.323 114.9 123.101 116.26 125.427ZM136.286 205.573C135.101 205.046 137.096 201.579 134.379 204.359C134.294 203.241 134.79 202.203 135.552 200.463C135.966 200.32 136.376 200.143 136.784 199.926C136.785 199.924 136.787 199.924 136.788 199.922C136.001 199.601 135.909 198.899 135.76 197.426C135.76 197.425 135.761 197.425 135.763 197.423C136.828 193.946 136.983 194.259 138.576 193.798C136.804 197.144 137.784 197.715 137.746 200.25C137.746 200.342 137.741 200.436 137.735 200.533C137.64 202.45 135.923 204.227 136.286 205.573ZM-22.1754 200.957C-19.331 201.739 -20.7246 199.506 -17.4524 203.262C-17.8709 203.297 -18.2825 203.332 -18.6934 203.37C-19.8424 202.595 -21.0414 201.761 -22.1754 200.957ZM123.6 207.4C123.429 209.478 126.509 210.595 125.837 207.368C124.838 207.334 124.735 207.592 124.564 207.814C124.426 208.017 124.198 208.151 123.6 207.4ZM92.3525 92.4075C95.843 95.9098 93.5495 96.8113 91.3871 96.1968C91.4521 95.6983 91.5152 95.1986 91.5775 94.7049C90.8527 94.2583 90.0989 93.8001 89.3619 93.3707C90.3473 93.0342 91.3458 92.7123 92.3525 92.4075ZM115.913 141.006C113.606 144.031 119.616 139.77 117.904 141.763C116.563 143.25 113.768 143.581 114.025 142.307C114.573 141.887 115.224 141.437 115.907 141.01C115.909 141.008 115.911 141.007 115.913 141.006ZM104.321 157.716C105.935 157.649 105.209 158.328 105.986 155.486C106.079 155.15 106.634 153.912 107.109 152.739C107.713 151.249 108.362 149.912 107.012 150.94C106.778 151.42 106.557 151.921 106.35 152.443C105.665 154.17 104.971 155.95 104.321 157.716ZM39.99 74.0013C40.019 73.3306 45.3526 72.6809 45.9571 73.1683C45.9573 73.1673 45.9574 73.1664 45.9576 73.1653C47.5561 74.4159 42.1747 73.6697 44.2831 75.3642C39.3285 73.3936 37.427 76.1036 38.2328 72.4176C41.3198 72.6346 39.7659 73.2236 39.99 74.0013ZM150.606 266.626C150.609 266.626 150.611 266.627 150.614 266.627C150.23 266.551 147.555 265.264 147.929 264.977C151.251 265.67 150.63 266.225 153.939 265.576C154.078 265.927 154.191 266.264 154.34 266.618C153.034 266.664 152.299 266.979 150.606 266.626ZM-1.11556 216.322C-2.28841 215.857 -3.95021 214.079 -5.18803 213.382C0.0793152 213.404 3.62479 218.173 -1.11556 216.322ZM173.475 173.681C173.475 173.684 173.473 173.687 173.472 173.692C173.472 173.69 173.47 173.687 173.47 173.685C173.472 173.684 173.473 173.682 173.475 173.681ZM-53.2639 140.623C-53.4325 140.79 -53.5806 140.887 -53.7127 140.926C-53.7253 140.926 -53.7379 140.927 -53.7504 140.927C-53.5903 140.833 -53.4284 140.734 -53.2639 140.623ZM29.3892 73.21C27.2811 72.1799 34.5385 71.1489 36.8363 71.8033C36.6298 72.1965 36.5639 72.566 36.1399 72.9987C34.3825 71.7157 29.7154 73.3615 29.3892 73.21ZM140.05 174.725C139.058 169.259 143.954 175.849 141.054 176.568C141.006 176.554 140.088 174.86 140.05 174.725ZM72.76 81.488C74.4687 81.0522 71.9865 79.5847 76.0928 81.6888C76.2127 82.0603 76.3235 82.4306 76.4281 82.7994C75.2147 82.3038 74.0043 81.8709 72.76 81.488ZM129.271 139.077C125.214 133.059 120.735 127.77 120.566 133.286C120.923 133.701 121.282 134.126 121.638 134.545C122.936 133.883 123.263 135.997 124.672 138.565C125.379 138.638 126.295 139.986 126.873 140.012C127.991 140.064 127.651 138.098 129.271 139.077ZM183.053 191.926C182.931 191.681 182.807 191.437 182.686 191.193C183.175 190.132 183.663 189.07 184.141 188.01C184.404 188.448 184.664 188.887 184.926 189.327C184.305 190.196 183.683 191.058 183.059 191.922C183.056 191.923 183.054 191.925 183.053 191.926ZM-27.8537 85.2018C-26.8617 87.8506 -25.3768 86.1311 -22.0149 82.6491C-23.9803 83.4232 -25.9314 84.2731 -27.8537 85.2018ZM99.1065 189.598C99.7456 189.129 100.388 188.671 101.033 188.211C99.3259 186.313 98.6689 186.981 98.1979 188.539C98.4966 188.901 98.7986 189.249 99.1065 189.598ZM101.73 153.896C101.216 154.801 101.989 154.53 101.939 154.627C100.731 156.945 100.317 157.201 99.751 160.394C99.785 160.819 99.8323 161.239 99.8759 161.664C101.876 160.759 101.351 159.466 103.302 156.884C102.587 157.213 101.873 157.549 101.158 157.893C101.844 156.297 102.553 154.725 103.282 153.159C103.194 152.906 103.109 152.653 103.022 152.4C102.594 152.893 102.135 153.397 101.73 153.896ZM170.952 194.51C169.474 193.74 168.327 192.442 167.699 190.945C167.311 191.064 166.92 191.177 166.525 191.28C167.611 192.914 169.254 194.087 170.952 194.51ZM-50.3815 111.152C-50.3205 111.337 -50.2565 111.519 -50.1829 111.69C-50.3337 111.596 -50.3868 111.402 -50.3815 111.152ZM154.716 269.323C156.614 269.826 159.26 269.937 161.352 270.246C161.323 269.222 156.034 268.9 154.272 268.082C153.955 268.226 153.955 269.117 154.716 269.323ZM97.0902 97.3191C97.7793 97.3232 98.47 97.3365 99.1612 97.3511C99.9102 98.2562 100.629 99.1568 101.352 100.08C101.686 99.8375 102.022 99.593 102.357 99.3516C98.5414 95.8007 100.207 95.9429 99.265 93.2203C98.557 94.5986 97.8367 95.9689 97.0902 97.3191ZM192.012 151.81C188.043 153.249 187.254 154.635 189.704 154.746C190.814 153.952 192.045 153.27 193.339 152.711C192.912 152.398 192.467 152.099 192.012 151.81ZM-47.4612 176.407C-45.6014 178.943 -47.008 179.813 -44.6184 181.96C-45.2202 180.42 -45.7806 178.835 -46.2685 177.282C-46.666 176.996 -47.068 176.7 -47.4612 176.407ZM19.2235 65.4016C17.7958 64.8904 15.4869 67.7139 11.4472 66.1627C10.5996 66.8736 10.1095 67.5216 9.42262 68.2187C8.87851 67.6497 8.26151 67.0877 7.72073 66.5309C7.71819 66.5314 7.71564 66.5317 7.71311 66.5322C4.25829 67.3554 6.67467 67.7513 6.70843 68.4339C6.72174 68.7088 4.10265 68.7463 5.01494 69.192C6.56944 69.9043 11.5291 68.5553 11.7049 69.8618C9.88209 69.6405 6.50143 70.5891 7.66652 71.2597C8.90228 71.9859 11.8878 69.9528 14.0357 70.5444C10.8525 68.7924 17.103 68.8197 17.8644 70.4092C21.3812 69.044 18.0724 68.6179 14.3568 69.0142C16.5183 67.609 13.238 68.5493 12.5684 67.625C14.8765 66.6634 23.1074 66.8774 19.2235 65.4016ZM143.266 166.138C142.412 163.678 141.439 159.673 139.727 158.54C138.762 157.893 140.036 161.657 138.029 159.602C139.153 161.754 139.675 162.141 140.266 161.426C140.584 161.911 140.886 162.382 141.19 162.883C141.141 163.189 141.093 163.498 141.038 163.797C141.459 163.952 141.873 164.103 142.295 164.269C142.447 164.873 142.585 165.464 142.713 166.068C142.897 166.084 143.076 166.156 143.266 166.138ZM21.9486 229.372C21.3185 229.117 20.6943 228.86 20.0651 228.603C20.0551 228.817 20.0553 229.042 20.0535 229.266C20.0464 229.438 20.0393 229.611 20.0323 229.784C19.8928 229.099 17.3064 226.928 15.8092 226.93C15.054 226.93 16.0326 228.584 13.2867 227.549C15.241 228.38 17.1025 229.038 19.0298 229.768C18.7307 229.995 18.4364 230.228 18.1362 230.454C18.1372 230.456 18.1381 230.456 18.1391 230.458C18.7393 230.798 19.3451 231.142 19.9465 231.478C20.6179 230.778 21.2815 230.076 21.9486 229.372ZM98.6609 192.171C100.396 194.072 101.123 194.537 101.438 193.045C101.437 193.042 101.436 193.041 101.435 193.037C100.592 192.499 99.7589 191.925 98.9349 191.311C98.8398 191.594 98.7471 191.879 98.6609 192.171ZM-58.9296 130.07C-55.4152 135.422 -56.8118 123.946 -58.3015 125.876C-58.3967 125.969 -58.4804 129.632 -58.9296 130.07ZM92.5099 90.8939C93.5539 91.8175 94.5389 92.731 95.5474 93.7005C95.6657 93.1317 95.7737 92.5573 95.8849 91.9856C94.7589 91.5961 93.6428 91.2423 92.5099 90.8939ZM176.607 160.099C174.774 160.337 171.733 162.962 171.41 165.209C172.162 164.533 172.93 163.876 173.706 163.238C172.532 164.71 171.433 166.222 170.364 167.807C171.497 168.82 172.11 166.526 174.603 164.42C174.995 164.07 178.499 163.133 178.301 161.388C178.255 161.014 175.717 163.258 176.792 161.001C176.009 161.68 175.393 162.329 174.69 163.021C174.38 162.826 174.069 162.631 173.752 162.444C174.694 161.631 175.64 160.859 176.607 160.099ZM137.071 152.722C135.578 149.691 134.844 149.609 133.576 149.488C134.419 150.818 135.251 152.143 136.083 153.478C136.41 153.224 136.741 152.977 137.071 152.722ZM162.223 190.094C162.238 190.188 162.254 190.277 162.269 190.359C162.816 192.629 163.317 191.38 163.823 192.269C165.948 195.622 168.392 198.163 172.285 198.599C172.004 198.713 171.735 198.813 171.446 198.906C171.449 198.908 171.452 198.908 171.456 198.91C171.898 199.041 172.326 199.141 172.738 199.219C176.031 199.861 178.656 199.261 180.028 198.656C181.422 198.032 181.688 197.626 181.279 197.705C180.482 197.913 176.654 199.006 172.885 198.236C171.822 198.063 170.703 197.757 169.603 197.263C169.512 196.862 169.455 196.466 169.413 196.071C165.742 194.6 164.133 190.853 162.959 190.191C162.712 190.045 162.466 190.002 162.223 190.094ZM-37.894 89.9462C-38.1454 89.904 -37.9866 88.033 -39.4806 90.1815C-39.6798 92.9098 -37.9087 90.0081 -36.814 90.0384C-37.2039 90.612 -37.6036 91.2 -37.9694 91.7766C-34.6555 89.5212 -34.4283 88.8713 -36.4452 88.7407C-36.5899 88.7362 -37.646 89.9897 -37.894 89.9462ZM-55.0972 110.467C-52.9318 112.209 -51.5888 107.211 -52.3686 106.924C-52.7623 107.519 -52.6377 108.236 -53.1815 108.783C-53.7273 109.342 -54.4 109.213 -55.0972 110.467ZM73.9436 75.8192C73.82 75.7509 72.6888 74.1205 72.5433 75.0353C73.6979 77.6443 77.6092 77.9322 77.3529 76.9982C76.1688 76.4887 75.245 76.4391 73.9445 75.8165C73.9442 75.8173 73.9439 75.8183 73.9436 75.8192ZM198.756 148.563C198.718 148.422 194.382 148.216 193.865 148.821C193.481 149.376 193.355 149.931 193.125 150.49C195.326 149.474 199.9 149.843 198.748 148.563C198.751 148.563 198.754 148.563 198.756 148.563Z" fill="white"/>
</g>
</svg>
