<svg width="63" height="64" viewBox="0 0 63 64" fill="none" xmlns="http://www.w3.org/2000/svg">
<path d="M42.9996 0.737454C39.1717 0.0414808 34.6914 0.12848 32.9514 0.12848C29.2106 0.0849818 25.9047 0.867951 22.2943 1.95541C18.336 3.12986 11.1588 6.60973 7.8964 11.2206C4.63402 15.8314 2.80709 21.0077 2.02412 24.2266C1.54564 26.184 1.45863 28.1414 1.19764 30.1423C0.849653 33.2307 0.371187 39.799 1.89363 44.4533C3.41607 49.1076 6.46096 52.718 8.0704 53.8489C11.0718 55.8934 13.8557 57.8073 17.1181 59.3297C18.6405 60.0257 20.1629 60.8087 21.7289 61.3741C23.5993 62.0266 25.5567 62.3746 27.4707 62.8096C32.9515 64.0711 47.6974 61.0697 50.3073 59.8082C52.9172 58.5468 57.267 53.8924 58.224 52.0655C59.5724 49.4556 62.7043 36.9281 62.7478 35.4926C62.7913 33.2742 62.1823 24.1396 61.3994 21.8777C59.3549 16.0054 54.9181 9.56762 53.3522 7.6537C51.8297 5.69627 46.8709 1.43343 42.9996 0.737454Z" fill="#69C9A0"/>
<path d="M21.5566 35.6191H42.1281L34.1087 27.6191" stroke="white" stroke-width="2" stroke-linecap="round" stroke-linejoin="round"/>
</svg>
