<svg width="62" height="63" viewBox="0 0 62 63" fill="none" xmlns="http://www.w3.org/2000/svg">
<path d="M42.1578 0.612454C38.3299 -0.0835192 33.8496 0.00348015 32.1096 0.00348015C28.3688 -0.0400182 25.0629 0.742951 21.4525 1.83041C17.4942 3.00486 10.317 6.48473 7.0546 11.0956C3.79222 15.7064 1.96529 20.8827 1.18232 24.1016C0.70384 26.059 0.616833 28.0164 0.355843 30.0173C0.00785613 33.1057 -0.47061 39.674 1.05183 44.3283C2.57427 48.9826 5.61916 52.593 7.2286 53.7239C10.23 55.7684 13.0139 57.6823 16.2763 59.2047C17.7987 59.9007 19.3211 60.6837 20.8871 61.2491C22.7575 61.9016 24.7149 62.2496 26.6289 62.6846C32.1097 63.9461 46.8556 60.9447 49.4655 59.6832C52.0754 58.4218 56.4252 53.7674 57.3822 51.9405C58.7306 49.3306 61.8625 36.8031 61.906 35.3676C61.9495 33.1492 61.3405 24.0146 60.5576 21.7527C58.5132 15.8804 54.0763 9.44262 52.5104 7.5287C50.9879 5.57127 46.0291 1.30843 42.1578 0.612454Z" fill="#D6F6DC"/>
<path d="M20.7143 35.4922H41.2857L33.2664 27.4922" stroke="#64503C" stroke-width="2" stroke-linecap="round" stroke-linejoin="round"/>
</svg>
