<svg width="63" height="64" viewBox="0 0 63 64" fill="none" xmlns="http://www.w3.org/2000/svg">
<path d="M42.9996 1.2062C39.1717 0.510231 34.6914 0.59723 32.9514 0.59723C29.2106 0.553732 25.9047 1.3367 22.2943 2.42416C18.336 3.59861 11.1588 7.07848 7.8964 11.6893C4.63402 16.3001 2.80709 21.4764 2.02412 24.6953C1.54564 26.6527 1.45863 28.6102 1.19764 30.6111C0.849653 33.6995 0.371187 40.2677 1.89363 44.922C3.41607 49.5764 6.46096 53.1867 8.0704 54.3177C11.0718 56.3621 13.8557 58.276 17.1181 59.7985C18.6405 60.4945 20.1629 61.2774 21.7289 61.8429C23.5993 62.4954 25.5567 62.8434 27.4707 63.2784C32.9514 64.5398 47.6974 61.5384 50.3073 60.277C52.9172 59.0155 57.267 54.3612 58.224 52.5343C59.5724 49.9244 62.7043 37.3968 62.7478 35.9614C62.7913 33.743 62.1823 24.6083 61.3994 22.3464C59.3549 16.4741 54.9181 10.0364 53.3522 8.12245C51.8297 6.16502 46.8709 1.90218 42.9996 1.2062Z" fill="#D6F6DC" fill-opacity="0.3"/>
</svg>
