<svg width="111" height="101" viewBox="0 0 111 101" fill="none" xmlns="http://www.w3.org/2000/svg">
<path d="M38.893 28.8145C35.1384 22.7034 28.3027 11.0461 22.2193 0.816406C20.9439 1.85243 19.8887 2.66004 19.2011 3.23719C18.2032 4.15085 16.8846 5.17055 12.4416 7.14675C10.7637 7.69331 8.59103 8.23171 6.76922 8.77828C4.94742 9.32484 0.125 11.412 0.125 11.412C0.125 11.412 2.34403 16.0039 2.72589 18.9091C3.10774 21.8142 3.72849 24.7754 4.1348 26.3947C4.54111 28.014 4.72733 28.2832 6.00363 29.7353C7.27993 31.1873 9.5767 33.7448 11.1728 35.7169C12.7689 37.689 13.6379 39.035 14.5521 41.6149C15.4663 44.1947 16.3974 47.8963 17.3746 51.4112C18.3518 54.9261 19.345 58.1566 20.2893 60.3265C21.2336 62.4964 22.1027 63.5732 23.2407 64.6664C24.3788 65.7595 25.7444 66.8363 28.0901 69.0389C30.4358 71.2414 33.6637 74.4719 38.7632 77.8899C43.8628 81.308 50.6289 84.8076 54.6836 86.7308C58.7382 88.6539 60.0418 88.9904 64.0832 90.4415C68.1247 91.8925 74.7696 94.2114 78.7301 96.0784C84.1833 98.6491 86.1479 101.386 86.9955 100.713C88.5078 99.5118 90.0029 97.178 91.7376 94.4041C93.6488 91.348 94.8645 89.3101 95.0492 88.8813C95.2684 88.3725 96.2939 87.0488 98.3298 83.9225C99.6287 81.928 101.41 79.13 102.684 76.8213C104.869 72.8587 105.735 70.7365 106.18 70.1514C107.059 68.9981 110.125 66.6548 110.125 66.6548C110.125 66.6548 109.685 66.5528 106.94 65.7564C104.196 64.96 99.2299 63.4794 96.0434 62.3924C92.8568 61.3054 91.4912 60.6324 87.3228 59.1518C83.1543 57.6712 76.3882 55.4502 71.3102 53.6117C66.2323 51.7732 62.9424 50.3599 60.2741 48.9945C57.6058 47.6291 55.6194 46.3504 53.1872 44.5669C50.755 42.7835 47.9616 40.5625 45.9254 38.5853C43.8891 36.6081 42.6476 34.9256 38.893 28.8145Z" fill="#FFE873"/>
</svg>
