<svg width="20" height="121" viewBox="0 0 20 121" fill="none" xmlns="http://www.w3.org/2000/svg">
<path d="M2.50168 118.362C3.72363 119.006 9.37656 118.362 9.37656 118.362C9.37656 118.362 14.9127 120.132 16.384 120.132C16.9327 120.132 17.4564 120.132 18.005 120.132C18.1796 120.132 18.9277 120.293 18.9277 120.293L19.1022 77.6488L19.3017 42.9702L20 1.45249L0 0.292971C0 0.292971 0 4.83182 0 10.3836C0 26.3148 0 42.3265 0 58.2577C0 71.5337 0 84.7293 0 98.0053C0 101.224 0.456797 117.477 0.456797 117.477C0.456797 117.477 1.27974 117.718 2.50168 118.362Z" fill="#FFD700"/>
</svg>
