<svg width="130" height="143" viewBox="0 0 130 143" fill="none" xmlns="http://www.w3.org/2000/svg">
<path d="M41.3038 0.307181C37.4329 0.250951 38.8965 7.45415 38.0331 10.3845C37.8513 11.0992 36.9889 13.1003 36.9889 13.1003C36.9889 13.1003 39.5685 14.0671 40.7451 14.5325C45.0894 16.4298 49.2751 18.4879 53.3925 20.814C60.813 24.9652 67.7571 30.0632 71.87 36.5712C76.9772 44.7241 76.8757 54.8393 71.5018 63.0029C68.3953 67.8083 63.6145 71.7904 58.6529 75.5579C53.963 79.1827 48.9792 82.5749 43.3623 85.2161C37.3831 87.8927 30.8392 89.5504 24.1144 90.9934C22.62 91.3141 20.4698 90.9731 20.4698 90.9731C20.4698 90.9731 18.9724 94.0817 18.5187 94.9392C13.5263 106.231 8.53382 117.522 3.51865 128.903C2.76994 130.457 0.659196 135.513 0.659196 135.513C0.659196 135.513 7.62955 137.269 10.8887 137.879C18.1086 139.117 25.3285 140.355 32.5939 141.415C37.1206 142.133 41.7832 142.779 46.3558 142.854C51.8565 142.982 57.4714 142.2 62.815 141.096C78.529 137.639 92.8435 130.429 103.358 120.571C115.141 109.427 121.857 95.5274 126.49 81.4835C128.739 74.4973 130.58 67.2605 129.569 60.1291C128.783 54.8923 126.547 49.7974 124.017 44.9346C120.742 38.3736 116.991 31.83 111.043 26.5182C105.684 21.6714 98.6925 18.146 91.7691 14.8172C76.2708 7.24709 59.4135 0.390908 41.3038 0.307181Z" fill="#FFA8B5"/>
</svg>
