<svg width="31" height="33" viewBox="0 0 31 33" fill="none" xmlns="http://www.w3.org/2000/svg">
<g clip-path="url(#clip0_676_100)">
<path d="M7.41345 2.58266C3.52919 2.2718 1.56055 11.1804 1.56055 11.1804L4.20204 20.9693L12.8139 31.2927L21.1387 25.9414L28.3897 17.8617C28.3897 17.8617 32.028 8.62814 25.9555 4.39538C21.3714 1.20019 14.8885 10.7959 14.8885 10.7959C14.8885 10.7959 11.2977 2.89351 7.41345 2.58266Z" fill="white"/>
<path d="M26.3745 20.2389C26.5242 20.1951 26.7604 20.1919 26.9399 20.1556C27.7155 20.0016 28.0081 19.9792 28.7171 19.8794C29.3475 19.8137 30.5315 19.5335 31.7809 19.7579L31.8389 19.7745C32.0612 19.8641 32.1604 19.9233 32.2733 19.9682C32.3828 20.014 32.4918 20.0505 32.5883 20.0844C32.7809 20.1514 32.9116 20.2102 32.907 20.2825C32.907 20.2825 32.907 20.2825 32.907 20.2825C32.9068 20.2858 32.9063 20.2892 32.9055 20.2925C32.8908 20.3574 32.6359 20.4056 32.5887 20.4712C32.5382 20.5336 32.5234 21.0261 32.0891 20.9578C31.9207 20.9308 31.6611 20.8227 31.5028 20.7558L31.5465 20.7683C31.1304 20.6679 30.334 20.6846 30.1486 20.7058C29.9584 20.7279 29.7249 20.7981 29.4839 20.8389C28.6991 20.975 28.282 21.0229 27.5944 21.2807C27.3033 21.2784 27.0044 21.281 26.708 21.2859C26.34 21.3982 25.7725 21.4541 25.5436 21.5172C25.3648 21.5662 25.2669 21.6413 25.0761 21.6935C24.8657 21.7514 24.5244 21.7881 24.1346 21.9044C23.5039 22.0937 23.4257 22.2493 23.0508 22.3756C22.932 22.4159 22.7889 22.4552 22.6313 22.497L22.7337 22.4522C22.4195 22.6239 22.0536 22.8184 21.768 23.0367C21.7212 23.0829 21.6735 23.13 21.6271 23.1766C21.6828 23.178 21.7392 23.179 21.7949 23.1807C21.5852 23.3326 21.4571 23.34 21.2613 23.4717C21.0314 23.6278 20.9547 23.7594 20.8085 23.8685C20.6888 23.9582 20.4999 24.0441 20.3586 24.1701C20.1558 24.3541 20.2504 24.3669 20.1573 24.4743C20.1411 24.494 19.9476 24.6977 19.8291 24.8918C19.7024 25.0914 19.6893 25.2294 19.6884 25.2377C19.6876 25.2424 19.6868 25.2469 19.6861 25.2512C19.7057 25.1772 19.6489 25.0035 19.5597 24.9387C19.474 24.8689 19.4146 24.8718 19.391 24.8778C19.3441 24.8941 19.3811 24.9356 19.4846 24.9022C19.5115 24.8936 19.5399 24.8826 19.5704 24.8688C20.5385 24.4238 21.4643 23.8618 22.2618 23.3308C22.635 23.0831 23.0218 22.8279 23.3802 22.5741C22.9707 23.1984 24.3226 22.3948 23.6227 22.452C24.0386 22.1872 24.2237 21.8777 24.5418 21.5651C24.7446 21.36 24.9204 21.244 25.1519 20.9089C25.5789 20.302 25.6229 19.558 25.9183 19.4106C25.9429 19.206 25.9566 19.0099 25.9568 18.8217C25.9413 18.5184 25.8635 18.5268 25.7591 18.5517C25.6279 18.5594 25.5198 18.5849 25.4368 18.6345C25.2108 18.6179 24.6499 18.4423 24.3934 18.4374C24.2023 18.4035 22.9809 18.5156 22.3846 18.7595C22.2292 18.8133 22.107 18.8566 22.0464 18.8789C21.7457 18.9894 21.219 19.1896 20.9746 19.3097C20.6693 19.4596 20.5437 19.7802 19.8744 19.7387C19.2368 20.0328 19.0052 20.1244 18.3996 20.3643C18.2901 20.4082 18.2593 20.3744 18.1969 20.4036C18.069 20.4636 17.8641 20.5971 17.6413 20.7124C17.2731 20.9031 17.0225 20.935 17.1292 21.0373C16.901 21.1851 16.6742 21.3383 16.4573 21.4942C16.3625 21.5187 16.2664 21.5451 16.173 21.5711C16.0683 21.6708 15.9615 21.775 15.863 21.8771C15.8787 21.6094 15.1455 22.2934 15.4759 22.1954C15.0587 22.4629 14.6584 22.7744 14.4244 23.1267C14.3565 23.06 14.254 23.1868 14.2275 23.3571C14.197 23.5281 14.2741 23.7011 14.3545 23.7617C14.3841 23.7629 14.4122 23.7534 14.4335 23.7397C14.4359 23.7451 14.4439 23.7586 14.4592 23.776C14.512 23.8879 14.7231 24.0064 14.9387 24.0647C15.1855 24.1354 15.3894 24.1854 15.5801 24.1823C15.7762 24.1758 15.8694 24.1253 15.9387 24.1119C16.032 24.0814 16.0772 24.0911 16.1923 24.0819C16.3187 23.9926 16.4403 23.9048 16.5646 23.8136C17.0563 23.1182 17.2433 23.6251 18.2036 22.6099C18.6655 22.4875 19.448 21.7203 19.9371 21.1937C19.9945 21.1327 19.9716 21.1054 20.0456 21.0224C20.2291 20.8211 20.7549 20.3716 20.6555 20.3057C20.848 20.1608 21.0382 20.0128 21.2245 19.8626C21.3437 19.7047 21.4569 19.549 21.5701 19.3882C21.5424 19.3653 21.5148 19.3424 21.4872 19.3194C21.8376 19.1101 22.1818 18.6018 22.3741 18.3766C22.4132 18.3314 22.4625 18.3497 22.5765 18.206C22.7134 18.035 22.9097 17.6865 23.0336 17.4703C23.0301 17.3557 23.0203 17.2479 23.007 17.1406C23.1415 16.7396 23.3041 16.6448 23.3504 16.4064C23.3521 16.3956 23.3624 16.3103 23.3606 16.2105C23.3713 15.9412 23.2363 15.7325 23.2094 15.7198C23.1885 15.6994 23.167 15.6836 23.1459 15.6707C22.9812 15.59 22.8954 15.5338 22.4475 15.444C22.3549 15.4347 22.2546 15.4233 22.1434 15.4111C21.9453 15.3893 21.7887 15.3376 21.6103 15.3318C21.29 15.3006 20.3734 15.5031 20.3301 15.6201C20.005 15.5745 19.2802 15.8242 18.9167 16.0009C18.8454 16.0329 18.785 16.0586 18.7394 16.0752C18.6489 16.108 18.5978 16.0533 18.3262 16.1684C18.1053 16.2617 17.5789 16.5842 17.3047 16.7117C17.0135 16.8463 16.8842 16.8454 16.7543 16.907C16.632 16.9652 16.5422 17.0659 16.3786 17.1508C15.8668 17.4159 15.3718 17.5973 14.9754 17.8215C14.4032 18.1451 13.9823 18.5711 13.5695 18.9232C13.4534 18.9896 13.3268 19.0389 13.2119 19.1192C12.1455 19.8726 10.8983 20.8811 10.7041 22.0365C10.6563 22.2422 10.7648 22.4441 10.7437 22.4096C10.7438 22.4105 10.7375 22.4157 10.7689 22.4147C10.8066 22.4143 10.9149 22.3843 11.0432 22.3023C11.8292 21.803 12.9141 21.0213 12.3925 21.1004C12.5879 20.8919 14.2261 19.6244 14.4904 19.333C14.7703 19.0578 14.9401 18.7946 15.1446 18.568C15.7438 17.8838 16.2226 17.3994 16.6457 16.4446C16.7488 16.1982 16.7666 15.9206 16.7961 15.7893C16.834 15.6322 16.9253 15.4652 16.914 15.2738C16.9123 15.2476 16.9096 15.2207 16.9058 15.1934C16.8777 14.9423 16.7685 14.6806 16.6977 14.6577C16.4255 14.4749 15.959 14.3544 15.6803 14.3077C15.5824 14.2908 15.5549 14.2271 15.4103 14.1957C14.8409 14.0651 14.181 14.2091 14.3335 14.3704C13.9617 14.383 13.6123 14.4946 13.2943 14.6517C12.9592 14.8156 12.6394 14.9927 12.3138 15.1561C10.8845 15.8226 8.43717 17.3592 7.69924 18.4412C7.2372 19.1016 7.25655 19.1046 6.74538 20.0901C6.68006 20.236 6.62104 20.3833 6.56938 20.5485C6.54478 20.6241 6.5245 20.7043 6.51187 20.7854C6.49707 20.8772 6.49169 20.9655 6.49087 21.015C6.4767 21.0747 6.53755 21.0266 6.28911 20.911C6.06014 20.868 6.10288 20.941 6.15692 20.9031C6.2146 20.8788 6.2946 20.8246 6.36591 20.7626C6.51251 20.6355 6.64125 20.4721 6.72908 20.2907C6.8138 20.211 6.89503 20.1296 6.97347 20.048C7.48374 19.5155 7.87271 19.043 8.34435 18.681C8.3642 18.5959 8.38443 18.5099 8.40383 18.4246C8.47227 18.3378 8.53977 18.2513 8.60738 18.164C8.65741 18.1595 8.70744 18.1548 8.75748 18.1501C9.25706 17.5324 9.7247 16.6329 10.0919 16.0814C10.7395 15.1903 12.2063 12.6549 12.186 11.7504C12.2108 11.2885 12.1097 11.3365 12.1698 11.0785C12.1192 11.014 12.0615 10.9642 11.9948 10.924C11.9867 10.9235 11.9787 10.9231 11.9706 10.9229C11.9143 10.918 11.8976 10.9487 11.8958 10.9797C11.9494 10.952 11.511 11.0442 11.2085 11.2087C10.8802 11.3682 10.5528 11.5637 10.2703 11.7551C10.0163 11.9276 9.73617 12.1349 9.44508 12.3609C8.55693 13.0508 7.55555 13.9143 6.78207 14.486C6.52454 14.6762 6.16902 14.8758 5.92827 15.0771C5.57787 15.3704 5.56954 15.5339 5.12757 15.9088C4.36551 16.5533 2.86125 17.6633 2.16098 18.2962C1.95134 18.4847 1.88432 18.6039 1.74199 18.7364C1.41024 19.0461 1.1087 19.3217 0.818332 19.6042C0.588137 19.8281 0.364755 20.0562 0.138726 20.3124C-0.532696 20.7961 -0.580672 20.6471 -0.866955 20.7271C-0.973543 20.7587 -1.17705 20.8371 -1.36538 20.9367C-1.45914 20.9904 -1.55431 21.0377 -1.62854 21.1553C-1.72523 21.2859 -1.62357 21.526 -1.63393 21.5361C-1.6417 21.5755 -1.68481 21.6148 -1.8032 21.4833C-1.91372 21.3464 -1.9446 21.1452 -1.96488 21.373C-2.00756 21.0081 -1.89893 20.9226 -1.86396 20.8259C-1.81705 20.7379 -1.7733 20.6741 -1.73449 20.6192C-1.65387 20.5069 -1.58139 20.4214 -1.51079 20.342C-1.36944 20.1844 -1.23847 20.0598 -1.10967 19.9467C-0.851814 19.7214 -0.592252 19.5348 -0.255081 19.2948C-0.111397 19.1606 0.028012 19.0318 0.17464 18.8975C1.14703 18.0086 2.13922 17.1378 3.1348 16.2769C3.26698 16.2186 3.39741 16.162 3.52961 16.104C3.52967 16.1041 3.52973 16.1042 3.52979 16.1043C4.00174 15.7645 4.11964 15.5236 4.34263 15.303C5.39249 14.2705 7.03565 12.8629 8.83465 11.5379C9.33376 11.1751 9.83996 10.8241 10.3837 10.5081C10.6579 10.3511 10.9341 10.2023 11.26 10.0831C11.4248 10.0255 11.6 9.97085 11.8279 9.95999C12.0461 9.93592 12.3893 10.0552 12.5339 10.1911C13.146 10.6718 13.1907 11.4328 13.1368 11.9318C13.0796 12.4594 12.9318 12.9064 12.7866 13.2985C12.5707 14.0274 11.4367 16.1 11.0855 16.4606C11.0001 16.5581 10.9276 16.5506 10.8496 16.6618C10.2052 17.6878 9.50057 18.6734 8.75723 19.6288C8.42421 19.9981 8.08794 20.3691 7.74816 20.7389C7.54487 20.9595 7.33773 21.1781 7.10182 21.3904C6.98288 21.4961 6.85805 21.6013 6.7027 21.7002C6.54415 21.7814 6.35794 21.9573 5.9448 21.8427C5.67069 21.7324 5.58345 21.5279 5.52888 21.3925C5.47633 21.2483 5.45819 21.1202 5.44887 20.9967C5.43265 20.7508 5.45915 20.524 5.50732 20.3028C5.75108 19.1929 6.38069 18.2305 7.11014 17.4531C8.75303 15.7401 10.8103 14.6393 12.8606 13.6875C14.2305 13.0788 15.849 12.9213 17.312 13.7707C17.8156 14.1342 17.9078 14.6548 17.9747 15.0291C17.7974 18.4407 15.1779 20.014 13.2311 21.8229C12.7436 22.221 12.1843 22.6694 11.6097 23.0914C11.3406 23.2812 10.8406 23.5937 10.2447 23.2803C9.6148 22.8425 9.66193 22.2892 9.69853 21.9003C9.71917 21.7595 9.75124 21.6225 9.7903 21.4959C10.0003 20.8983 10.2082 20.735 10.6027 20.0949C10.6293 20.1064 10.6558 20.1181 10.6823 20.1298C11.0674 19.6179 11.3235 19.2936 11.861 18.8448C12.3076 18.4535 13.5861 17.6086 14.0327 17.3694C14.2623 17.2398 14.2031 17.3351 14.4152 17.2117C14.7759 16.9998 15.5244 16.5083 16.0356 16.2452C16.4975 16.0039 17.3076 15.6674 17.6615 15.4853C17.926 15.3486 18.1949 15.2083 18.4664 15.0665C19.5725 14.4734 20.968 14.2007 22.239 14.3527C22.3415 14.3632 22.4501 14.379 22.5535 14.3962C23.0564 14.4681 23.4052 14.761 23.5073 14.831C23.6174 14.9079 23.697 14.9618 23.7674 15.0079C23.8771 15.0845 23.9714 15.151 24.0657 15.2925C24.2497 15.5672 24.3112 15.9214 24.3097 16.2053C24.2894 17.3062 23.6419 18.1835 23.2535 18.767C21.5266 21.1552 19.1896 23.087 16.8254 24.67C16.7066 24.7478 16.5784 24.8304 16.4478 24.9129C15.9547 25.2778 15.1152 25.2178 14.6606 25.0504C14.2452 24.9025 13.7339 24.7879 13.4266 24.0597C13.1302 23.0959 13.7527 22.3322 14.1759 21.9081C14.6417 21.4511 15.1054 21.1479 15.4956 20.9088C15.8113 20.7211 15.7649 20.8356 16.026 20.6797C16.3158 20.5099 16.4499 20.3827 16.5876 20.3036C17.5181 19.7464 19.6736 18.7665 20.6274 18.4543C20.8104 18.3921 20.9584 18.3949 21.0654 18.353C21.1198 18.3318 21.2279 18.2483 21.3953 18.1796C21.6273 18.0844 21.8501 17.9951 22.063 17.9113C23.3125 17.4279 24.4949 17.3504 25.8517 17.5553C25.8667 17.5575 25.8816 17.5596 25.8961 17.5618C26.176 17.5965 26.4928 17.7632 26.6718 18.0282C26.8543 18.2905 26.9003 18.5814 26.8985 18.8291C26.7976 22.1126 23.6013 24.0029 21.2323 25.2337C20.6091 25.5463 20.1314 25.6468 20.0448 25.6903C20.0216 25.7017 19.9998 25.7136 19.9789 25.726C19.8859 25.7783 19.8006 25.8353 19.6613 25.89C19.5198 25.9285 19.3301 26.0446 18.9238 25.8622C18.6515 25.7393 18.4823 25.335 18.5403 25.0761C19.1055 23.2026 20.8727 22.6237 21.8704 21.8746C21.9885 21.7988 22.1144 21.7151 22.2461 21.6268L22.3558 21.5788C22.9222 21.3721 23.5697 21.1202 24.0732 20.965C24.5808 20.8044 25.8046 20.5328 26.0281 20.44C26.1599 20.3827 26.208 20.2878 26.3745 20.2389ZM25.4324 20.5749C25.5219 20.7175 25.7904 19.8619 25.5918 20.139C25.5538 20.2011 25.4174 20.54 25.4324 20.5749ZM11.327 20.4493C11.3607 20.467 11.3944 20.4849 11.4279 20.5029C11.4942 20.4037 11.5691 20.3008 11.6427 20.2041C11.5792 20.2368 11.5142 20.2725 11.4506 20.3085C11.408 20.3555 11.3684 20.4006 11.327 20.4493Z" fill="#FFE2D2"/>
</g>
<defs>
<clipPath id="clip0_676_100">
<rect width="30.1431" height="32.9341" fill="white"/>
</clipPath>
</defs>
</svg>
