<svg width="302" height="280" viewBox="0 0 302 280" fill="none" xmlns="http://www.w3.org/2000/svg">
<path d="M156.105 120.262L142.136 164.52L128.872 184.296C118.523 185.941 94.3799 188.132 80.5996 183.742C66.8187 179.352 21.1246 154.913 0 143.242L35.8643 105.252L92.0859 113.985L111.779 84.9629L156.105 120.262Z" fill="#FFE2D2"/>
<path d="M132.089 153.368L165.885 185.039L144.511 237.65L113.174 222.075L68.4561 257.407L18.6494 241.993C31.3522 221.408 59.2226 177.583 69.084 166.963C78.9454 156.343 101.051 146.348 110.871 142.678L132.089 153.368Z" fill="#FFA8B5"/>
<path d="M187.874 48.4707L167.983 102.017L192.29 127.264L148.911 163.73L108.594 141.031L92 123.98C92.4909 113.466 95.2397 89.2698 102.308 76.6006C109.376 63.9312 142.446 23.9214 158.098 5.5L187.874 48.4707Z" fill="#FFE2D2"/>
<path d="M158.261 146.712L210.665 168.1L221.462 134.693L277.866 127.23L301.681 80.6585C278.145 75.4098 227.46 64.8299 213.008 64.5C198.555 64.1702 175.993 73.0782 166.519 77.5735L159.311 100.293L158.261 146.712Z" fill="#FFA8B5"/>
<path d="M130.652 151.936L132.635 142.542L138.059 113.573C138.059 113.573 140.55 97.8939 141.642 90.062C141.796 88.9507 141.951 87.8395 142.105 86.7282C142.132 86.5386 142.151 86.0399 142.235 85.8631C142.458 85.8848 142.718 86.0823 142.891 86.2606C143.228 86.5872 143.545 86.9372 143.856 87.3139C144.144 87.6575 144.444 87.9478 144.738 88.2647C145.101 88.6809 145.391 89.2206 145.687 89.7336C145.897 90.0878 146.092 90.4387 146.27 90.8695C146.408 91.2075 146.531 91.5423 146.668 91.8803C147.085 92.8113 147.178 94.1733 147.252 95.4192C147.301 96.1567 147.287 96.908 147.302 97.6657C147.333 98.6227 147.379 99.583 147.39 100.563C147.398 101.487 147.351 102.455 147.296 103.393C147.21 104.882 147.117 106.399 147.031 107.888C146.942 109.461 146.682 111.052 146.485 112.628C146.384 113.5 146.218 114.385 146.088 115.25C145.917 116.302 145.731 117.35 145.516 118.392C145.18 120.05 144.781 121.721 144.411 123.399C144.105 124.784 143.851 126.208 143.436 127.541C143.02 128.873 142.648 130.215 142.129 131.469C141.443 133.132 140.628 134.627 139.882 136.221C139.544 136.929 139.229 137.669 138.9 138.406C138.64 138.963 138.349 139.457 138.067 139.98C137.811 140.454 137.598 140.938 137.37 141.418C137.143 141.898 136.893 142.345 136.674 142.856C136.208 143.869 135.733 144.853 135.214 145.828C135.031 146.178 134.848 146.528 134.67 146.852C134.452 147.222 134.231 147.536 134.004 147.877C133.664 148.388 133.321 148.843 132.978 149.297C132.85 149.464 132.691 149.568 132.548 149.732C132.386 149.92 132.24 150.167 132.069 150.324C131.851 150.555 131.648 150.789 131.439 151.05C131.244 151.314 130.652 151.936 130.652 151.936Z" fill="#FF61B0"/>
<path d="M117.389 155.84L125.462 150.699L149.877 134.35C149.877 134.35 162.781 125.181 169.12 120.491C170.019 119.826 170.918 119.16 171.817 118.494C171.97 118.381 172.339 118.046 172.524 117.983C172.664 118.158 172.705 118.483 172.698 118.732C172.702 119.202 172.674 119.675 172.623 120.161C172.58 120.608 172.583 121.027 172.563 121.459C172.52 122.011 172.339 122.597 172.18 123.168C172.075 123.566 171.962 123.952 171.779 124.381C171.635 124.716 171.483 125.039 171.338 125.374C170.966 126.323 170.062 127.342 169.226 128.266C168.736 128.817 168.191 129.332 167.662 129.872C167.003 130.564 166.351 131.268 165.661 131.961C165.009 132.612 164.287 133.255 163.581 133.871C162.46 134.85 161.316 135.843 160.195 136.823C159.013 137.858 157.699 138.782 156.439 139.743C155.748 140.28 155.002 140.78 154.295 141.291C153.427 141.902 152.55 142.502 151.658 143.075C150.244 143.993 148.775 144.874 147.321 145.781C146.122 146.529 144.93 147.342 143.691 147.975C142.453 148.608 141.237 149.279 139.982 149.782C138.318 150.452 136.684 150.911 135.028 151.489C134.288 151.74 133.541 152.031 132.786 152.31C132.208 152.512 131.653 152.649 131.083 152.812C130.567 152.959 130.074 153.144 129.573 153.316C129.072 153.489 128.579 153.621 128.063 153.821C127.015 154.194 125.983 154.541 124.927 154.849C124.549 154.962 124.172 155.075 123.817 155.174C123.401 155.276 123.023 155.337 122.622 155.412C122.02 155.525 121.457 155.596 120.894 155.667C120.685 155.692 120.5 155.65 120.284 155.663C120.037 155.677 119.759 155.745 119.527 155.732C119.211 155.737 118.902 155.754 118.57 155.786C118.246 155.831 117.389 155.84 117.389 155.84Z" fill="#9D47B9"/>
<path d="M131.236 152.263L124.117 152.519L102.286 153.809C102.286 153.809 90.5498 154.832 84.7152 155.452C83.8875 155.541 83.0597 155.63 82.232 155.718C82.0907 155.733 81.7283 155.809 81.5858 155.78C81.5611 155.614 81.6564 155.39 81.7535 155.232C81.9277 154.928 82.1224 154.635 82.3374 154.341C82.5327 154.069 82.6875 153.799 82.8626 153.528C83.0966 153.19 83.4326 152.881 83.7484 152.574C83.9654 152.357 84.1827 152.152 84.4607 151.945C84.6791 151.784 84.8979 151.634 85.1163 151.473C85.7113 151.002 86.6748 150.689 87.5583 150.41C88.0802 150.241 88.6235 150.116 89.1662 149.968C89.8494 149.773 90.5323 149.566 91.2361 149.381C91.8996 149.208 92.6045 149.067 93.2894 148.938C94.3772 148.732 95.4853 148.525 96.5731 148.319C97.7213 148.1 98.9132 148.001 100.084 147.859C100.729 147.776 101.396 147.736 102.043 147.674C102.831 147.609 103.619 147.554 104.407 147.522C105.661 147.467 106.936 147.455 108.211 147.421C109.263 147.393 110.334 147.32 111.368 147.381C112.402 147.443 113.436 147.47 114.432 147.621C115.753 147.819 116.976 148.141 118.258 148.395C118.828 148.513 119.418 148.608 120.008 148.715C120.455 148.802 120.864 148.925 121.292 149.035C121.679 149.136 122.065 149.203 122.452 149.281C122.839 149.36 123.206 149.461 123.613 149.528C124.427 149.683 125.221 149.851 126.015 150.051C126.301 150.121 126.586 150.191 126.851 150.262C127.157 150.353 127.423 150.457 127.709 150.56C128.138 150.715 128.528 150.882 128.917 151.049C129.06 151.112 129.164 151.209 129.307 151.283C129.472 151.367 129.676 151.428 129.82 151.524C130.025 151.641 130.231 151.746 130.456 151.851C130.681 151.945 131.236 152.263 131.236 152.263Z" fill="#9D47B9"/>
<path d="M131.549 154.025L128.748 144.844L119.505 116.867C119.505 116.867 114.114 101.942 111.287 94.5604C110.886 93.5134 110.484 92.4664 110.083 91.4194C110.015 91.2406 109.791 90.7952 109.779 90.5994C109.984 90.5099 110.307 90.5561 110.544 90.6277C110.997 90.749 111.443 90.9007 111.897 91.0785C112.314 91.2387 112.717 91.3465 113.127 91.4805C113.645 91.6675 114.159 91.9981 114.666 92.3025C115.02 92.5099 115.361 92.7215 115.724 93.0116C116.008 93.2401 116.277 93.4729 116.561 93.7015C117.374 94.3128 118.114 95.4584 118.779 96.512C119.179 97.1329 119.529 97.7968 119.908 98.4522C120.397 99.2739 120.901 100.091 121.384 100.943C121.837 101.747 122.263 102.616 122.667 103.463C123.311 104.808 123.963 106.179 124.607 107.524C125.288 108.943 125.828 110.46 126.418 111.935C126.75 112.747 127.033 113.601 127.336 114.421C127.694 115.424 128.038 116.432 128.353 117.448C128.86 119.061 129.317 120.717 129.804 122.365C130.205 123.725 130.671 125.094 130.951 126.462C131.231 127.829 131.553 129.184 131.704 130.534C131.908 132.322 131.917 134.027 132.034 135.785C132.08 136.568 132.162 137.368 132.229 138.173C132.271 138.787 132.255 139.361 132.261 139.956C132.266 140.495 132.313 141.022 132.346 141.553C132.379 142.083 132.376 142.597 132.431 143.149C132.513 144.263 132.573 145.355 132.59 146.459C132.599 146.855 132.607 147.251 132.608 147.62C132.596 148.051 132.555 148.433 132.521 148.842C132.47 149.454 132.39 150.019 132.309 150.583C132.278 150.792 132.189 150.961 132.144 151.173C132.092 151.416 132.084 151.703 132.01 151.924C131.931 152.232 131.866 152.536 131.809 152.866C131.767 153.192 131.549 154.025 131.549 154.025Z" fill="#9D47B9"/>
<path d="M135.092 156.687L130.264 150.98L115.047 133.809C115.047 133.809 106.599 124.791 102.307 120.381C101.697 119.755 101.088 119.13 100.479 118.505C100.375 118.398 100.078 118.148 100.009 118.011C100.129 117.884 100.374 117.817 100.566 117.794C100.927 117.741 101.293 117.711 101.673 117.698C102.021 117.683 102.343 117.635 102.678 117.604C103.106 117.578 103.576 117.655 104.033 117.716C104.35 117.754 104.659 117.8 105.009 117.895C105.282 117.971 105.546 118.054 105.82 118.13C106.59 118.316 107.472 118.907 108.272 119.455C108.749 119.776 109.204 120.143 109.677 120.495C110.28 120.931 110.892 121.361 111.499 121.821C112.071 122.256 112.643 122.747 113.193 123.228C114.068 123.991 114.955 124.771 115.83 125.535C116.754 126.34 117.607 127.259 118.482 128.133C118.97 128.611 119.435 129.135 119.905 129.628C120.469 130.236 121.025 130.851 121.562 131.481C122.421 132.479 123.258 133.523 124.113 134.553C124.818 135.402 125.572 136.239 126.193 137.131C126.814 138.024 127.461 138.895 127.984 139.814C128.68 141.032 129.21 142.25 129.834 143.473C130.107 144.019 130.412 144.567 130.708 145.123C130.926 145.549 131.091 145.965 131.279 146.39C131.448 146.775 131.643 147.137 131.83 147.507C132.017 147.877 132.172 148.245 132.382 148.624C132.782 149.397 133.161 150.16 133.512 150.946C133.64 151.227 133.768 151.507 133.882 151.772C134.006 152.084 134.094 152.371 134.195 152.674C134.347 153.128 134.463 153.557 134.578 153.987C134.62 154.146 134.608 154.294 134.641 154.461C134.679 154.651 134.761 154.859 134.776 155.04C134.814 155.285 134.861 155.523 134.922 155.777C134.991 156.023 135.092 156.687 135.092 156.687Z" fill="#9D47B9"/>
<path d="M136.559 153.751L129.149 150.977L106.215 142.992C106.215 142.992 93.7476 139.036 87.5016 137.185C86.6153 136.922 85.729 136.66 84.8427 136.398C84.6915 136.353 84.2877 136.277 84.154 136.186C84.1987 136.005 84.3912 135.816 84.5575 135.696C84.8645 135.458 85.1882 135.24 85.5328 135.03C85.8477 134.835 86.1207 134.624 86.4146 134.421C86.7978 134.174 87.2727 134.001 87.7266 133.82C88.0405 133.69 88.3501 133.573 88.7226 133.479C89.0147 133.407 89.3024 133.346 89.5945 133.274C90.4034 133.046 91.5241 133.135 92.5478 133.226C93.1545 133.275 93.7647 133.378 94.3836 133.458C95.1669 133.549 95.9545 133.628 96.7544 133.738C97.5079 133.844 98.2903 134 99.0473 134.16C100.25 134.412 101.474 134.673 102.677 134.925C103.947 135.19 105.211 135.597 106.471 135.951C107.168 136.14 107.869 136.384 108.558 136.596C109.394 136.865 110.225 137.146 111.047 137.449C112.357 137.927 113.669 138.458 114.991 138.967C116.082 139.387 117.211 139.769 118.246 140.273C119.28 140.776 120.328 141.246 121.286 141.825C122.557 142.591 123.676 143.443 124.883 144.25C125.418 144.614 125.982 144.963 126.542 145.324C126.964 145.605 127.331 145.904 127.724 146.2C128.078 146.468 128.446 146.702 128.81 146.948C129.173 147.193 129.507 147.453 129.896 147.695C130.665 148.202 131.408 148.712 132.139 149.257C132.402 149.45 132.665 149.643 132.907 149.829C133.182 150.053 133.411 150.273 133.661 150.501C134.036 150.843 134.364 151.18 134.692 151.517C134.813 151.643 134.878 151.786 134.995 151.923C135.127 152.08 135.311 152.23 135.418 152.389C135.58 152.597 135.746 152.792 135.933 152.996C136.124 153.188 136.559 153.751 136.559 153.751Z" fill="#FF61B0"/>
<path d="M210.751 168.672L184.933 189.653L202.767 261.999H159.824C147.186 242.815 125.298 218.758 120.092 205.993C114.885 193.229 115.076 170.099 115.822 160.129L133.428 145.979L174.048 129.258L210.751 168.672Z" fill="#FFA8B5"/>
</svg>
