<svg width="241" height="280" viewBox="0 0 241 280" fill="none" xmlns="http://www.w3.org/2000/svg">
<path d="M128.028 124.512L117.075 115.744L107.56 199.042L118.685 209.519L128.028 124.512Z" fill="#69C9A0"/>
<path d="M109.05 204.598L114.151 191.528L164.04 258.908L159.645 273.544L109.05 204.598Z" fill="#69C9A0"/>
<path d="M192.558 98.8049C192.458 98.7942 192.393 98.7116 192.338 98.606C192.299 98.5289 192.256 98.4654 192.183 98.5276C191.788 98.8562 191.387 99.1765 190.998 99.5159C190.126 100.278 189.263 101.055 188.39 101.815C188.201 101.978 188.031 102.159 187.913 102.411C186.946 102.479 186.079 102.967 185.108 103.01C184.899 102.805 184.716 102.932 184.533 102.981C183.514 103.246 182.5 103.521 181.482 103.791C181.038 103.91 180.593 104.029 180.149 104.146C179.832 104.228 179.518 104.315 179.177 104.298C178.936 104.288 178.704 104.387 178.472 104.45C171.25 106.372 164.029 108.295 156.807 110.217C156.407 110.324 156.013 110.455 155.58 110.431C155.361 110.417 155.152 110.518 154.941 110.575C147.614 112.525 140.287 114.479 132.958 116.427C132.642 116.512 132.336 116.642 131.988 116.582C131.772 116.545 131.614 116.687 131.469 116.844C131.048 117.089 130.51 117.066 130.204 117.576C129.962 117.105 129.961 117.102 129.685 117.161C129.535 117.194 129.388 117.239 129.24 117.276C127.545 117.727 125.852 118.179 124.156 118.63C123.987 118.676 123.819 118.726 123.647 118.762C123.388 118.816 123.345 118.798 123.202 118.486C122.973 117.988 122.757 117.483 122.538 116.978C121.962 115.653 121.364 114.339 120.817 112.995C120.117 111.275 119.34 109.601 118.628 107.891C117.925 106.207 117.188 104.544 116.466 102.87C115.664 101.011 114.886 99.1395 114.107 97.2676C114.017 97.0489 113.863 96.9873 113.737 96.8584C113.315 95.975 112.946 95.0599 112.553 94.1587C112.451 93.9233 112.332 93.6822 112.391 93.4135C112.085 92.6618 111.791 91.9069 111.473 91.1608C110.803 89.5902 110.122 88.0276 109.448 86.4607C108.92 85.2401 108.391 84.0198 107.868 82.7954C107.164 81.1463 106.468 79.4926 105.764 77.8435C105.479 77.1787 105.189 76.5153 104.89 75.8595C104.718 75.4825 104.595 75.0947 104.554 74.6877C104.358 72.7623 104.174 70.8387 103.98 68.9127C103.77 66.8158 103.552 64.7184 103.343 62.6214C103.228 61.4729 103.12 60.3226 103.005 59.1741C102.736 56.502 102.459 53.8299 102.194 51.1592C102.006 49.2618 101.835 47.3671 101.655 45.4701C101.517 44.0348 101.379 42.5971 101.232 41.1617C101.208 40.9328 101.138 40.7039 101.088 40.4768C100.88 39.7966 100.828 39.1093 100.809 38.4234C100.803 38.2047 100.838 38.0052 100.904 37.8173C100.787 36.6992 100.665 35.5802 100.553 34.4611C100.366 32.5959 100.186 30.7289 99.9968 28.8641C99.717 26.0799 99.4278 23.2956 99.1492 20.5086C99.0138 19.1578 98.8942 17.8103 98.763 16.4609C98.7386 16.2021 98.6713 15.9372 98.6781 15.69C98.6855 15.4101 98.5034 15.3663 98.3991 15.2215C98.3936 13.9711 98.2136 12.7124 98.0775 11.4569C98.2065 11.1069 98.214 10.7293 98.1652 10.3168C98.0316 9.16831 97.9185 8.01938 97.7995 6.86952C97.7916 6.78401 97.7906 6.69664 97.7927 6.61347C97.7945 6.41769 97.8517 6.30972 98.0282 6.33253C98.4534 6.38886 98.8787 6.42511 99.3038 6.47396C100.109 6.56609 100.915 6.66056 101.72 6.75783C101.852 6.77272 101.929 6.71942 101.957 6.56427C102.894 6.74886 103.827 6.75167 104.767 6.9956C104.904 7.12917 105.048 7.1805 105.213 7.19911C106.546 7.36247 107.88 7.54593 109.213 7.71444C109.991 7.81405 110.768 7.90386 111.546 7.99087C111.833 8.0239 112.127 8.10039 112.399 7.98999C113.325 7.9246 114.258 8.01526 115.199 8.32647C115.596 8.53795 115.998 8.5228 116.398 8.58101C116.912 8.65599 117.426 8.72116 117.939 8.77886C118.071 8.79375 118.201 8.76378 118.332 8.75624C118.982 8.47698 119.702 8.74483 120.378 8.81647C121.265 8.91183 122.159 9.00765 123.053 9.17637C123.128 9.36137 123.241 9.41645 123.392 9.436C124.265 9.54258 125.138 9.67159 126.01 9.78098C126.816 9.88292 127.62 9.98299 128.424 10.063C128.798 10.1006 129.042 10.3281 129.274 10.7466C130.519 12.9968 131.783 15.232 133.045 17.4677C133.619 18.4856 134.206 19.4951 134.781 20.5153C134.885 20.7002 134.98 20.8623 135.166 20.8352C135.783 22.0067 136.404 23.1723 137.133 24.2489C137.147 24.5681 137.217 24.8474 137.386 25.1427C138.845 27.6909 140.291 30.2503 141.734 32.8106C142.477 34.1288 143.201 35.4621 143.943 36.7803C145.345 39.2664 146.754 41.7482 148.16 44.2305C148.217 44.3305 148.277 44.4272 148.333 44.5248C148.412 44.6612 148.517 44.7285 148.632 44.6976C148.801 44.6522 148.977 44.6152 149.129 44.5268C149.88 44.1003 150.654 43.7401 151.433 43.3837C152.07 43.0928 152.681 42.7313 153.309 42.4104C153.661 42.2308 154.022 42.069 154.378 41.8959C155.384 41.4011 156.387 40.9021 157.393 40.4096C157.769 40.2262 158.148 40.0522 158.524 39.8712C159.474 39.4114 160.423 38.9545 161.369 38.4905C161.743 38.3076 162.105 38.0855 162.483 37.9166C163.562 37.4297 164.625 36.9021 165.678 36.347C166.359 35.9869 167.07 35.701 167.768 35.3764C168.046 35.2468 168.319 35.1009 168.591 34.9555C168.708 34.8942 168.694 34.7377 168.693 34.5952C170.019 33.9446 171.374 33.3711 172.665 32.6322C172.807 32.6868 172.92 32.8316 173.096 32.7268C173.592 32.4388 174.109 32.2025 174.625 31.9593C175.317 31.6286 176.008 31.2956 176.71 30.9925C177.012 30.8615 177.286 30.6703 177.588 30.5393C178.429 30.1763 179.251 29.7558 180.074 29.3424C180.721 29.0187 181.353 28.6568 182.003 28.3373C182.691 27.9978 183.394 27.6918 184.087 27.3658C184.325 27.2545 184.553 27.1208 184.79 27.0048C185.125 26.8425 185.442 26.6372 185.798 26.5193C186.02 26.4449 186.209 26.2565 186.364 26.0396C187.09 25.5346 187.939 25.3071 188.627 24.7148C188.716 24.9437 188.852 25.0502 189.013 24.9417C189.294 24.7514 189.606 24.6526 189.903 24.5104C190.555 24.198 191.198 23.8557 191.842 23.5227C191.986 23.4492 192.096 23.5398 192.207 23.6753C192.715 24.2853 193.229 24.8887 193.736 25.5039C194.941 26.9611 196.146 28.4235 197.35 29.8836C198.781 31.6183 200.211 33.3558 201.646 35.0868C203.117 36.8584 204.596 38.6178 206.068 40.3889C206.909 41.4006 207.747 42.4179 208.579 43.4417C208.771 43.6781 208.956 43.9214 209.22 43.9961C210.052 44.6694 210.221 45.5805 210.046 46.6114C209.922 46.667 209.813 46.7488 209.783 46.9274C209.759 47.0615 209.743 47.2007 209.728 47.34C209.499 49.4745 209.275 51.6076 209.041 53.7408C208.73 56.5632 208.413 59.3846 208.096 62.2061C207.981 63.2285 207.859 64.25 207.746 65.2719C207.421 68.1756 207.117 71.0886 206.768 73.9839C206.625 75.169 206.507 76.3647 206.375 77.5544C206.054 80.432 205.729 83.3081 205.42 86.1875C205.357 86.7753 205.16 87.1735 204.781 87.4905C203.474 88.5892 202.2 89.7444 200.912 90.8758C200.122 91.5682 199.326 92.2545 198.534 92.945C197.019 94.2671 195.506 95.5916 193.992 96.9161C193.94 96.96 193.885 97.0072 193.853 97.0736C193.795 97.1867 193.88 97.2815 193.934 97.3773C193.843 97.8572 193.444 97.884 193.196 98.1182C192.953 98.3085 192.738 98.5264 192.558 98.8049Z" fill="#9D47B9"/>
<path d="M64.9037 156.155C64.9846 156.069 64.9831 155.968 64.9559 155.863C64.9357 155.786 64.9285 155.714 65.0375 155.692C65.6207 155.572 66.2032 155.442 66.7883 155.333C68.1022 155.088 69.4183 154.859 70.7311 154.612C71.0139 154.559 71.2936 154.53 71.5774 154.584C72.4795 153.855 73.5931 153.453 74.4811 152.705C74.5191 152.418 74.7712 152.347 74.9682 152.23C76.0568 151.576 77.1479 150.93 78.2387 150.28C78.7152 149.996 79.1937 149.712 79.6691 149.427C80.0075 149.224 80.3463 149.025 80.6361 148.744C80.8409 148.546 81.1166 148.42 81.3661 148.272C89.1126 143.658 96.8591 139.043 104.606 134.429C105.035 134.174 105.476 133.937 105.841 133.578C106.025 133.396 106.281 133.289 106.508 133.154C114.367 128.473 122.229 123.793 130.089 119.108C130.429 118.907 130.791 118.739 131.056 118.428C131.22 118.234 131.461 118.192 131.701 118.169C132.248 117.978 132.706 117.536 133.339 117.594C133.217 117.123 133.216 117.121 133.502 116.936C133.658 116.836 133.82 116.745 133.976 116.649C135.795 115.567 137.612 114.485 139.431 113.402C139.613 113.294 139.797 113.189 139.974 113.074C140.242 112.9 140.266 112.855 140.17 112.557C140.017 112.082 139.847 111.611 139.681 111.139C139.243 109.899 138.833 108.648 138.357 107.42C137.748 105.848 137.238 104.242 136.648 102.667C136.065 101.114 135.53 99.5461 134.973 97.9838C134.354 96.2498 133.705 94.5258 133.057 92.8018C132.981 92.6009 133.072 92.4426 133.091 92.2661C132.834 91.4091 132.506 90.5757 132.21 89.7312C132.132 89.5108 132.065 89.274 131.821 89.1625C131.555 88.4754 131.276 87.796 131.024 87.1029C130.495 85.6433 129.981 84.1796 129.458 82.7185C129.052 81.5787 128.649 80.4377 128.237 79.2994C127.681 77.7663 127.115 76.2369 126.56 74.7038C126.337 74.0849 126.12 73.4627 125.916 72.8376C125.799 72.4782 125.63 72.1519 125.377 71.8787C124.175 70.5871 122.965 69.306 121.762 68.0156C120.451 66.6116 119.146 65.2014 117.835 63.7974C117.117 63.0286 116.391 62.2642 115.673 61.4953C114.003 59.7054 112.342 57.9081 110.669 56.1224C109.481 54.8533 108.28 53.6 107.086 52.3372C106.183 51.3812 105.279 50.4233 104.384 49.4598C104.242 49.3057 104.141 49.1144 104.023 48.941C103.721 48.3738 103.276 47.9276 102.803 47.5079C102.653 47.374 102.48 47.2838 102.288 47.2253C101.592 46.4734 100.901 45.7163 100.202 44.9666C99.0363 43.7175 97.8629 42.4728 96.6989 41.2226C94.9591 39.3576 93.2275 37.4851 91.4846 35.6193C90.6402 34.7148 89.7841 33.8248 88.9371 32.9244C88.7739 32.7523 88.6442 32.5426 88.4618 32.4022C88.2556 32.2429 88.3851 32.0721 88.3738 31.9037C87.4864 31.1617 86.7471 30.276 85.9713 29.4272C85.6076 29.3234 85.3316 29.1067 85.0802 28.8245C84.3786 28.0407 83.6586 27.273 82.9431 26.5C82.8891 26.4433 82.8276 26.391 82.7664 26.3436C82.6251 26.2296 82.4975 26.2114 82.358 26.3654C82.0229 26.737 81.6733 27.097 81.333 27.4641C80.6877 28.1596 80.0436 28.857 79.4024 29.5551C79.2971 29.6684 79.1907 29.6986 79.0555 29.6292C78.3602 30.4839 77.5384 31.2283 76.883 32.1203C76.8574 32.308 76.7662 32.4536 76.6346 32.5952C75.5738 33.7533 74.5275 34.9231 73.4708 36.0838C72.8555 36.7614 72.234 37.4327 71.6094 38.1032C71.3789 38.3518 71.1741 38.6309 70.8553 38.7821C69.9911 39.4808 69.2328 40.2764 68.6243 41.209C68.4243 41.6501 68.0584 41.9613 67.7474 42.3136C67.3468 42.7673 66.9399 43.2146 66.5278 43.6574C66.4225 43.7707 66.2859 43.8569 66.165 43.9567C65.3921 44.3092 64.9481 45.04 64.4021 45.6207C63.6873 46.3828 62.9661 47.1513 62.2979 47.962C62.363 48.1314 62.3034 48.2532 62.1838 48.3851C61.4892 49.1429 60.8103 49.9142 60.1188 50.6728C59.4798 51.3746 58.8417 52.0735 58.189 52.7608C57.8863 53.0801 57.8328 53.4089 57.9267 53.8404C58.4333 56.1588 58.913 58.4831 59.3945 60.8062C59.614 61.8637 59.8163 62.9263 60.0369 63.9856C60.0772 64.1774 60.1083 64.3493 59.9251 64.481C60.2163 65.6634 60.4996 66.8454 60.6249 68.0603C60.8399 68.26 60.9782 68.4799 61.0397 68.7885C61.5695 71.4536 62.1195 74.1143 62.6733 76.7727C62.9584 78.1414 63.2705 79.5043 63.5557 80.873C64.0922 83.4554 64.6201 86.0403 65.1498 88.6242C65.1711 88.7283 65.1875 88.8328 65.2076 88.935C65.2347 89.0789 65.1907 89.2014 65.0669 89.275C64.8849 89.3831 64.7036 89.5009 64.5061 89.57C63.539 89.9161 62.5986 90.3198 61.6568 90.7296C60.8866 91.0653 60.0894 91.3383 59.3066 91.6485C58.8672 91.8232 58.433 92.0152 57.9951 92.1966C56.7541 92.7053 55.5128 93.2092 54.2729 93.7198C53.8103 93.9109 53.3521 94.1095 52.8905 94.3024C51.7241 94.7872 50.5607 95.2727 49.394 95.7525C48.9332 95.9425 48.4554 96.0995 48.0013 96.3007C46.7013 96.8724 45.3868 97.407 44.0609 97.918C43.2032 98.2473 42.371 98.6452 41.5236 99.009C41.1858 99.1538 40.8401 99.2855 40.4964 99.4161C40.3498 99.4727 40.2503 99.3694 40.1493 99.2847C38.515 99.956 36.9093 100.697 35.2428 101.288C35.1564 101.433 35.1594 101.609 34.9293 101.688C34.2861 101.912 33.661 102.185 33.0326 102.451C32.1857 102.807 31.3376 103.161 30.5021 103.541C30.1421 103.704 29.7633 103.81 29.4033 103.973C28.4021 104.428 27.3767 104.834 26.3547 105.246C25.5524 105.57 24.7368 105.859 23.9349 106.188C23.0853 106.535 22.2468 106.914 21.4021 107.274C21.1126 107.397 20.8158 107.5 20.5241 107.62C20.1128 107.791 19.686 107.923 19.2876 108.136C19.0389 108.269 18.7374 108.308 18.4456 108.304C17.4443 108.584 16.5326 109.126 15.5029 109.324C15.5873 109.53 15.5439 109.7 15.3236 109.765C14.9402 109.876 14.594 110.067 14.2303 110.219C13.4317 110.554 12.6204 110.863 11.8137 111.18C11.6349 111.251 11.6021 111.392 11.6006 111.561C11.5875 112.325 11.5646 113.09 11.5557 113.856C11.5319 115.675 11.5123 117.496 11.4916 119.316C11.4663 121.478 11.4441 123.641 11.4121 125.805C11.378 128.021 11.3282 130.235 11.2923 132.452C11.2725 133.718 11.2587 134.985 11.2546 136.251C11.2533 136.544 11.2636 136.835 11.0844 137.089C10.8304 138.148 11.3312 138.82 12.2213 139.289C12.3702 139.223 12.5249 139.185 12.6795 139.265C12.7964 139.325 12.9091 139.396 13.0218 139.466C14.7476 140.542 16.4677 141.622 18.1961 142.694C20.4847 144.111 22.7778 145.523 25.0709 146.935C25.9024 147.447 26.7385 147.953 27.5682 148.465C29.927 149.919 32.2737 151.396 34.6483 152.825C35.6203 153.41 36.5775 154.022 37.5434 154.618C39.8798 156.06 42.2188 157.498 44.5462 158.951C45.0217 159.247 45.4794 159.325 46.0405 159.21C47.9778 158.819 49.9272 158.485 51.8719 158.127C53.0633 157.907 54.2551 157.679 55.4473 157.455C57.7276 157.03 60.0089 156.606 62.2903 156.182C62.3674 156.167 62.4495 156.151 62.5258 156.164C62.6574 156.185 62.6497 156.309 62.6706 156.408C63.093 156.619 63.4644 156.317 63.8505 156.258C64.2008 156.177 64.546 156.134 64.9037 156.155Z" fill="#FF61B0"/>
<path d="M90.3972 170.559C90.3972 170.559 94.3475 177.352 95.6652 179.796C97.9511 184.087 100.398 188.184 102.713 192.407C103.777 194.348 104.887 196.457 104.887 196.457L108.614 202.859C108.614 202.859 106.181 202.789 105.702 202.857C104.855 202.963 83.8486 202.034 83.8486 202.034L66.9816 201.891L69.383 184.883L71.0055 175.303L76.7914 173.753L82.776 172.149L86.7745 171.349L90.3972 170.559Z" fill="#FF61B0"/>
<path d="M166.349 96.2691C166.28 96.2898 166.222 96.2591 166.168 96.2121C166.129 96.1776 166.089 96.1522 166.05 96.2082C165.838 96.5068 165.621 96.802 165.416 97.105C164.954 97.7854 164.501 98.472 164.039 99.1512C163.939 99.2973 163.854 99.449 163.817 99.628C163.176 99.9285 162.673 100.447 162.025 100.734C161.851 100.671 161.748 100.794 161.633 100.872C160.99 101.302 160.352 101.735 159.711 102.167C159.432 102.356 159.151 102.546 158.871 102.734C158.671 102.868 158.474 103.003 158.241 103.085C158.077 103.144 157.937 103.265 157.791 103.364C153.242 106.433 148.694 109.502 144.145 112.572C143.893 112.742 143.649 112.925 143.353 113.027C143.203 113.078 143.079 113.194 142.946 113.284C138.332 116.398 133.717 119.514 129.1 122.627C128.901 122.762 128.716 122.92 128.472 122.979C128.32 123.015 128.237 123.141 128.165 123.272C127.922 123.529 127.556 123.66 127.435 124.04C127.193 123.831 127.192 123.829 127.016 123.938C126.92 123.998 126.828 124.064 126.735 124.125C125.667 124.846 124.601 125.566 123.533 126.286C123.426 126.359 123.321 126.433 123.211 126.501C123.046 126.602 123.014 126.603 122.866 126.459C122.629 126.23 122.399 125.993 122.168 125.757C121.56 125.138 120.939 124.531 120.347 123.893C119.589 123.077 118.788 122.307 118.024 121.5C117.271 120.705 116.497 119.932 115.733 119.148C114.884 118.278 114.049 117.394 113.213 116.51C113.116 116.407 113.002 116.412 112.896 116.371C112.465 115.968 112.064 115.533 111.65 115.112C111.541 115.002 111.421 114.893 111.417 114.72C111.085 114.363 110.762 114.001 110.424 113.651C109.711 112.914 108.993 112.184 108.278 111.45C107.72 110.879 107.161 110.308 106.605 109.734C105.857 108.96 105.114 108.181 104.365 107.407C104.063 107.095 103.757 106.786 103.447 106.483C103.268 106.309 103.121 106.115 103.025 105.889C102.574 104.816 102.13 103.742 101.68 102.668C101.19 101.5 100.696 100.332 100.206 99.1636C99.9381 98.5234 99.6744 97.8802 99.4063 97.24C98.7818 95.7508 98.151 94.2641 97.5295 92.7746C97.0876 91.7164 96.6581 90.6552 96.2215 89.5953C95.8906 88.7935 95.5588 87.9905 95.2216 87.1913C95.1675 87.0639 95.0819 86.9492 95.0107 86.8299C94.7573 86.4886 94.6087 86.1007 94.482 85.705C94.4415 85.5788 94.4317 85.4529 94.4448 85.3254C94.181 84.7033 93.913 84.0822 93.6514 83.4586C93.2157 82.419 92.7844 81.3764 92.3475 80.3376C91.6968 78.7859 91.0397 77.2367 90.3892 75.6831C90.0737 74.9301 89.7695 74.1749 89.457 73.4217C89.3976 73.277 89.3083 73.1403 89.2718 72.994C89.2304 72.8285 89.1003 72.8519 89.006 72.7954C88.7947 72.0662 88.4644 71.3791 88.1643 70.6821C88.1932 70.4428 88.1356 70.2201 88.0342 69.9921C87.7535 69.357 87.4866 68.716 87.2155 68.0761C87.1959 68.0283 87.1808 67.9775 87.1684 67.9283C87.1371 67.8134 87.1578 67.7349 87.2805 67.7007C87.5764 67.6191 87.8692 67.5256 88.1638 67.4396C88.722 67.2764 89.2811 67.1144 89.8398 66.9544C89.9308 66.9277 89.9742 66.8757 89.9671 66.7775C90.6293 66.6329 91.2588 66.3831 91.9328 66.2724C92.0472 66.3136 92.1533 66.3046 92.2671 66.2712C93.1933 66.0073 94.1227 65.7551 95.0494 65.4943C95.5901 65.343 96.1286 65.1862 96.6673 65.0274C96.8668 64.9692 97.0776 64.9347 97.2426 64.7969C97.856 64.5092 98.4995 64.3109 99.1855 64.2392C99.4885 64.2557 99.7571 64.1385 100.036 64.0649C100.395 63.9701 100.752 63.8697 101.108 63.7651C101.199 63.7384 101.282 63.6857 101.369 63.646C101.761 63.3077 102.29 63.2704 102.758 63.13C103.372 62.9467 103.99 62.7617 104.621 62.6196C104.702 62.7073 104.787 62.7092 104.892 62.6799C105.498 62.5069 106.109 62.347 106.714 62.176C107.275 62.0183 107.833 61.8602 108.389 61.6903C108.647 61.6117 108.849 61.6787 109.075 61.8608C110.288 62.8403 111.51 63.806 112.732 64.7725C113.288 65.2127 113.851 65.6444 114.408 66.0857C114.509 66.1659 114.6 66.2348 114.721 66.1689C115.332 66.6872 115.944 67.2009 116.614 67.6338C116.676 67.8165 116.769 67.9611 116.932 68.0881C118.339 69.1838 119.739 70.2899 121.136 71.3975C121.855 71.9677 122.565 72.5517 123.284 73.1219C124.642 74.197 126.003 75.2679 127.363 76.3395C127.418 76.3827 127.475 76.4231 127.529 76.465C127.605 76.5233 127.686 76.5345 127.759 76.4854C127.866 76.4132 127.978 76.3443 128.066 76.2516C128.501 75.8001 128.963 75.381 129.429 74.9628C129.81 74.6211 130.162 74.2452 130.532 73.8886C130.739 73.6887 130.956 73.4968 131.167 73.2997C131.763 72.7395 132.356 72.1776 132.953 71.6186C133.176 71.4102 133.402 71.2065 133.626 70.9993C134.19 70.4747 134.753 69.9521 135.314 69.4258C135.536 69.2181 135.743 68.9908 135.97 68.7903C136.616 68.215 137.245 67.6204 137.863 67.0121C138.262 66.6183 138.694 66.2595 139.11 65.8818C139.276 65.7312 139.437 65.5722 139.596 65.4139C139.664 65.3467 139.629 65.259 139.605 65.1759C140.39 64.4386 141.208 63.7382 141.956 62.9586C142.06 62.9523 142.161 63.0062 142.262 62.8976C142.549 62.5957 142.858 62.3183 143.165 62.0373C143.577 61.6575 143.988 61.2766 144.41 60.9104C144.592 60.7525 144.745 60.5668 144.927 60.4089C145.434 59.9702 145.918 59.5031 146.404 59.0395C146.787 58.676 147.152 58.2943 147.537 57.9324C147.945 57.5486 148.368 57.1805 148.781 56.8032C148.923 56.674 149.054 56.5344 149.195 56.4028C149.393 56.2177 149.573 56.0122 149.794 55.8474C149.931 55.7442 150.027 55.5831 150.096 55.4145C150.501 54.9238 151.036 54.562 151.401 54.0306C151.499 54.1403 151.608 54.1661 151.699 54.059C151.857 53.8722 152.051 53.7304 152.227 53.5672C152.615 53.2089 152.991 52.8358 153.371 52.4674C153.455 52.3859 153.544 52.4091 153.642 52.4583C154.086 52.6779 154.532 52.8922 154.976 53.1149C156.03 53.6418 157.085 54.1719 158.139 54.7008C159.391 55.3289 160.643 55.959 161.898 56.5838C163.184 57.2228 164.473 57.8525 165.759 58.4907C166.494 58.8555 167.227 59.2242 167.958 59.5983C168.127 59.6845 168.293 59.7769 168.482 59.7495C169.155 59.9188 169.42 60.4056 169.474 61.0552C169.399 61.1211 169.339 61.1983 169.348 61.3109C169.354 61.3958 169.367 61.4812 169.38 61.5667C169.58 62.8759 169.783 64.1829 169.979 65.4924C170.238 67.2256 170.493 68.9598 170.748 70.6941C170.84 71.3227 170.927 71.9523 171.02 72.5802C171.283 74.3646 171.562 76.1488 171.807 77.935C171.908 78.666 172.027 79.3966 172.135 80.1275C172.396 81.8955 172.655 83.6638 172.925 85.4297C172.98 85.7903 172.913 86.076 172.71 86.3635C172.012 87.3576 171.344 88.3761 170.664 89.3845C170.246 90.002 169.824 90.6174 169.405 91.2344C168.603 92.4151 167.803 93.597 167.002 94.7789C166.974 94.8186 166.945 94.8609 166.934 94.9085C166.914 94.9902 166.987 95.0226 167.04 95.0641C167.058 95.3689 166.794 95.4921 166.665 95.6959C166.533 95.8725 166.424 96.0578 166.349 96.2691Z" fill="#FFD700"/>
<path d="M168.878 73.257C168.836 73.3421 168.866 73.4259 168.917 73.5096C168.955 73.5704 168.98 73.6292 168.898 73.6651C168.461 73.8612 168.027 74.0654 167.585 74.2521C166.593 74.6718 165.594 75.0781 164.603 75.4992C164.39 75.5904 164.173 75.6605 163.928 75.6613C163.403 76.4173 162.616 76.9357 162.107 77.7057C162.156 77.951 161.973 78.0517 161.846 78.1816C161.149 78.9059 160.448 79.6235 159.749 80.3451C159.443 80.6594 159.136 80.9749 158.831 81.2906C158.615 81.516 158.397 81.7373 158.241 82.0195C158.131 82.2182 157.943 82.3682 157.783 82.5328C152.814 87.6527 147.845 92.7726 142.875 97.8926C142.6 98.1759 142.31 98.4455 142.115 98.8051C142.017 98.9875 141.84 99.1185 141.694 99.2682C136.653 104.462 131.609 109.656 126.568 114.853C126.35 115.077 126.104 115.276 125.977 115.58C125.899 115.768 125.715 115.843 125.528 115.902C125.14 116.15 124.893 116.594 124.366 116.65C124.595 117.022 124.596 117.024 124.417 117.225C124.319 117.334 124.214 117.437 124.114 117.542C122.947 118.744 121.782 119.944 120.615 121.146C120.498 121.266 120.378 121.383 120.267 121.509C120.1 121.698 120.093 121.739 120.253 121.972C120.509 122.344 120.777 122.708 121.042 123.075C121.74 124.039 122.419 125.015 123.145 125.962C124.073 127.174 124.931 128.431 125.846 129.649C126.748 130.849 127.616 132.07 128.5 133.283C129.482 134.628 130.484 135.961 131.487 137.293C131.604 137.448 131.575 137.595 131.608 137.746C132.054 138.419 132.551 139.061 133.024 139.717C133.148 139.888 133.268 140.075 133.496 140.128C133.902 140.658 134.316 141.179 134.712 141.716C135.545 142.848 136.367 143.985 137.195 145.118C137.839 146.003 138.482 146.889 139.132 147.772C140.006 148.96 140.888 150.144 141.763 151.332C142.115 151.812 142.463 152.296 142.801 152.784C142.996 153.065 143.222 153.31 143.503 153.496C144.832 154.377 146.165 155.248 147.495 156.128C148.943 157.085 150.388 158.048 151.837 159.005C152.63 159.529 153.428 160.048 154.222 160.572C156.067 161.792 157.908 163.02 159.754 164.236C161.066 165.1 162.384 165.949 163.699 166.808C164.694 167.457 165.69 168.109 166.68 168.766C166.837 168.872 166.972 169.015 167.116 169.14C167.517 169.564 168 169.863 168.498 170.136C168.657 170.223 168.822 170.27 168.993 170.288C169.763 170.801 170.531 171.32 171.304 171.831C172.592 172.682 173.885 173.529 175.172 174.381C177.095 175.653 179.013 176.932 180.939 178.203C181.872 178.82 182.81 179.422 183.744 180.035C183.924 180.152 184.087 180.306 184.273 180.393C184.484 180.492 184.427 180.656 184.483 180.795C185.405 181.268 186.248 181.886 187.11 182.468C187.433 182.495 187.716 182.63 187.997 182.825C188.781 183.364 189.576 183.886 190.368 184.414C190.428 184.453 190.492 184.486 190.554 184.516C190.7 184.588 190.808 184.582 190.878 184.431C191.045 184.066 191.227 183.708 191.4 183.346C191.727 182.66 192.053 181.972 192.376 181.285C192.43 181.173 192.507 181.13 192.636 181.166C192.959 180.339 193.416 179.583 193.697 178.731C193.665 178.57 193.698 178.434 193.765 178.294C194.299 177.154 194.818 176.006 195.349 174.864C195.657 174.198 195.972 173.536 196.289 172.874C196.406 172.629 196.494 172.363 196.709 172.184C197.212 171.459 197.603 170.671 197.835 169.793C197.874 169.392 198.083 169.073 198.236 168.728C198.433 168.284 198.637 167.844 198.846 167.407C198.9 167.295 198.986 167.2 199.056 167.097C199.582 166.677 199.737 165.994 200.016 165.42C200.381 164.667 200.749 163.907 201.063 163.121C200.964 162.99 200.978 162.879 201.038 162.749C201.388 162.003 201.721 161.248 202.068 160.502C202.389 159.812 202.71 159.124 203.045 158.443C203.201 158.127 203.153 157.844 202.957 157.499C201.903 155.648 200.87 153.786 199.835 151.927C199.364 151.08 198.906 150.226 198.433 149.379C198.347 149.225 198.274 149.087 198.385 148.947C197.822 148.008 197.264 147.068 196.825 146.074C196.596 145.943 196.424 145.782 196.288 145.535C195.12 143.397 193.936 141.267 192.75 139.139C192.139 138.044 191.508 136.957 190.898 135.862C189.746 133.795 188.602 131.724 187.456 129.654C187.41 129.571 187.367 129.486 187.323 129.404C187.261 129.289 187.262 129.179 187.342 129.098C187.459 128.978 187.572 128.85 187.712 128.76C188.397 128.312 189.043 127.821 189.69 127.325C190.218 126.919 190.785 126.56 191.331 126.173C191.637 125.955 191.934 125.724 192.237 125.501C193.097 124.873 193.959 124.249 194.818 123.62C195.138 123.385 195.452 123.144 195.771 122.907C196.578 122.312 197.382 121.716 198.19 121.124C198.509 120.89 198.851 120.681 199.162 120.439C200.052 119.748 200.964 119.087 201.892 118.443C202.493 118.028 203.054 117.56 203.637 117.117C203.869 116.941 204.112 116.774 204.353 116.609C204.455 116.538 204.564 116.608 204.669 116.662C205.802 115.834 206.892 114.953 208.072 114.186C208.102 114.051 208.05 113.905 208.214 113.801C208.671 113.509 209.1 113.179 209.533 112.853C210.117 112.418 210.703 111.983 211.272 111.53C211.517 111.335 211.794 111.184 212.039 110.989C212.72 110.445 213.435 109.938 214.145 109.427C214.703 109.025 215.281 108.651 215.836 108.244C216.426 107.815 216.997 107.362 217.579 106.923C217.778 106.773 217.989 106.638 218.191 106.49C218.475 106.281 218.783 106.101 219.045 105.857C219.209 105.706 219.442 105.623 219.678 105.579C220.409 105.181 220.994 104.58 221.77 104.246C221.644 104.088 221.632 103.939 221.792 103.848C222.07 103.693 222.297 103.477 222.548 103.29C223.099 102.88 223.668 102.489 224.231 102.092C224.356 102.004 224.343 101.881 224.297 101.74C224.096 101.1 223.901 100.458 223.695 99.8168C223.209 98.2952 222.718 96.772 222.229 95.2502C221.648 93.4416 221.065 91.6328 220.489 89.8219C219.901 87.9672 219.325 86.1106 218.737 84.2547C218.402 83.1952 218.06 82.1355 217.712 81.078C217.631 80.8336 217.542 80.5925 217.616 80.3514C217.527 79.4257 216.936 78.9468 216.087 78.7015C215.985 78.7806 215.871 78.8382 215.723 78.7961C215.612 78.7652 215.502 78.7251 215.392 78.6851C213.699 78.0695 212.011 77.4502 210.318 76.8385C208.077 76.0307 205.833 75.228 203.59 74.4253C202.777 74.135 201.961 73.8498 201.149 73.5582C198.841 72.731 196.536 71.8832 194.222 71.0792C193.275 70.7502 192.333 70.3966 191.387 70.0572C189.101 69.2365 186.813 68.4196 184.531 67.5886C184.065 67.4193 183.673 67.4289 183.253 67.6168C181.798 68.2613 180.317 68.8586 178.847 69.4762C177.947 69.8553 177.049 70.2411 176.148 70.6228C174.426 71.3516 172.703 72.0789 170.979 72.8063C170.921 72.8317 170.86 72.8583 170.794 72.8599C170.682 72.8641 170.654 72.7595 170.61 72.6801C170.21 72.5731 169.994 72.8859 169.699 72.9987C169.439 73.1238 169.172 73.2159 168.878 73.257Z" fill="#FF8457"/>
</svg>
