<svg width="354" height="276" viewBox="0 0 354 276" fill="none" xmlns="http://www.w3.org/2000/svg">
<path d="M180.481 168.176L169.02 152.586L126.61 260.156L137.69 278.085L180.481 168.176Z" fill="#69C9A0"/>
<path d="M126.61 268.09L138.072 252.5L180.481 360.07L169.402 377.999L126.61 268.09Z" fill="#69C9A0"/>
<path d="M275.622 156.964C275.493 156.914 275.435 156.781 275.4 156.621C275.375 156.504 275.341 156.404 275.221 156.46C274.577 156.757 273.929 157.041 273.29 157.354C271.856 158.058 270.429 158.785 268.995 159.486C268.686 159.636 268.394 159.816 268.147 160.109C266.835 159.856 265.505 160.196 264.196 159.906C263.991 159.559 263.702 159.662 263.44 159.662C261.988 159.652 260.539 159.656 259.087 159.652C258.454 159.652 257.818 159.652 257.184 159.649C256.733 159.646 256.284 159.649 255.835 159.506C255.518 159.406 255.174 159.456 254.842 159.456C244.535 159.439 234.229 159.422 223.922 159.406C223.351 159.406 222.78 159.439 222.211 159.252C221.924 159.155 221.61 159.215 221.308 159.215C210.852 159.199 200.393 159.185 189.934 159.165C189.483 159.165 189.029 159.229 188.587 159.025C188.313 158.899 188.051 159.032 187.801 159.189C187.153 159.366 186.444 159.142 185.856 159.712C185.701 158.999 185.701 158.995 185.312 158.975C185.1 158.965 184.888 158.972 184.678 158.969C182.259 158.965 179.842 158.962 177.422 158.959C177.18 158.959 176.938 158.965 176.696 158.952C176.332 158.932 176.282 158.892 176.203 158.425C176.075 157.681 175.968 156.931 175.856 156.18C175.562 154.209 175.235 152.245 174.985 150.26C174.666 147.718 174.23 145.21 173.89 142.679C173.556 140.184 173.167 137.706 172.803 135.218C172.399 132.456 172.03 129.684 171.66 126.912C171.618 126.589 171.436 126.452 171.314 126.235C171.067 124.908 170.902 123.557 170.7 122.216C170.648 121.866 170.575 121.503 170.75 121.166C170.61 120.055 170.488 118.944 170.331 117.837C169.999 115.506 169.65 113.181 169.311 110.853C169.044 109.038 168.774 107.224 168.515 105.406C168.166 102.958 167.829 100.506 167.48 98.0583C167.338 97.071 167.188 96.0837 167.023 95.1031C166.929 94.5394 166.904 93.9791 166.993 93.4221C167.42 90.7872 167.862 88.1589 168.291 85.5239C168.759 82.6555 169.218 79.7838 169.687 76.9154C169.944 75.3444 170.211 73.7735 170.468 72.2025C171.064 68.5469 171.648 64.888 172.249 61.2358C172.676 58.6409 173.125 56.056 173.561 53.4644C173.89 51.5032 174.22 49.5387 174.536 47.5742C174.586 47.2606 174.574 46.9304 174.589 46.6102C174.554 45.6296 174.731 44.6957 174.95 43.7752C175.02 43.4817 175.138 43.2282 175.292 43.0014C175.537 41.4704 175.774 39.9362 176.023 38.4052C176.44 35.8537 176.866 33.3021 177.28 30.7506C177.901 26.9416 178.51 23.1293 179.133 19.317C179.435 17.4692 179.757 15.6314 180.064 13.7869C180.124 13.4334 180.129 13.0565 180.226 12.7296C180.336 12.3594 180.109 12.236 180.021 12.0058C180.46 10.3382 180.67 8.59709 180.937 6.87604C181.234 6.45578 181.378 5.95549 181.461 5.38847C181.693 3.81085 181.952 2.23988 182.204 0.665588C182.224 0.548859 182.254 0.432114 182.286 0.322052C182.359 0.0618896 182.473 -0.0615082 182.7 0.0318756C183.247 0.258682 183.8 0.458801 184.349 0.675598C185.389 1.08585 186.429 1.49944 187.467 1.91635C187.637 1.98306 187.759 1.93971 187.851 1.74292C189.034 2.32327 190.276 2.66014 191.441 3.32054C191.575 3.54735 191.75 3.66742 191.962 3.75081C193.681 4.44456 195.392 5.16501 197.108 5.86543C198.108 6.27568 199.111 6.67259 200.116 7.06616C200.488 7.21292 200.852 7.41971 201.253 7.36967C202.511 7.61316 203.72 8.06677 204.863 8.81723C205.317 9.24081 205.858 9.36423 206.369 9.58435C207.028 9.86786 207.689 10.138 208.352 10.3982C208.522 10.4649 208.706 10.4716 208.884 10.5083C209.849 10.3682 210.712 10.9819 211.587 11.3188C212.735 11.7624 213.892 12.2093 215.022 12.753C215.057 13.0265 215.187 13.1398 215.381 13.2199C216.506 13.6735 217.624 14.1572 218.746 14.6141C219.784 15.0377 220.819 15.4579 221.862 15.8515C222.346 16.035 222.59 16.4252 222.75 17.0656C223.605 20.5077 224.491 23.9364 225.374 27.3652C225.775 28.9261 226.197 30.4804 226.598 32.0447C226.671 32.3282 226.741 32.5784 226.998 32.6084C227.402 34.3895 227.813 36.1639 228.399 37.8583C228.305 38.2885 228.297 38.6854 228.417 39.139C229.452 43.0547 230.465 46.9805 231.472 50.9062C231.991 52.9274 232.48 54.962 232.999 56.9832C233.979 60.7956 234.969 64.6045 235.957 68.4135C235.997 68.5669 236.042 68.717 236.082 68.8671C236.139 69.0773 236.254 69.204 236.419 69.204C236.661 69.204 236.908 69.2173 237.142 69.154C238.294 68.8538 239.454 68.6503 240.619 68.4535C241.572 68.2934 242.515 68.03 243.465 67.8265C243.999 67.7131 244.538 67.6264 245.074 67.523C246.591 67.2228 248.105 66.9159 249.621 66.6191C250.188 66.509 250.754 66.4123 251.32 66.3056C252.749 66.0321 254.176 65.7619 255.603 65.4817C256.166 65.3717 256.728 65.2049 257.291 65.1149C258.903 64.8514 260.507 64.5278 262.108 64.1643C263.143 63.9275 264.193 63.8007 265.238 63.6173C265.655 63.5439 266.072 63.4472 266.486 63.3504C266.663 63.3104 266.7 63.0969 266.75 62.9068C268.748 62.5133 270.758 62.2331 272.741 61.7094C272.911 61.8328 273.011 62.0663 273.283 61.9896C274.046 61.7828 274.819 61.6527 275.592 61.5126C276.633 61.3192 277.673 61.1224 278.715 60.969C279.164 60.9023 279.598 60.7455 280.047 60.6788C281.297 60.4954 282.542 60.2285 283.786 59.9717C284.764 59.7716 285.734 59.5148 286.715 59.3213C287.752 59.1145 288.798 58.9578 289.838 58.771C290.194 58.7076 290.546 58.6109 290.903 58.5408C291.407 58.4441 291.903 58.284 292.419 58.254C292.741 58.234 293.06 58.0505 293.345 57.8171C294.492 57.4035 295.704 57.4035 296.832 56.8598C296.869 57.1967 297.011 57.3868 297.266 57.3001C297.707 57.1467 298.159 57.1266 298.605 57.0433C299.586 56.8598 300.563 56.633 301.541 56.4196C301.758 56.3729 301.873 56.533 301.973 56.7531C302.432 57.747 302.901 58.7343 303.357 59.7349C304.442 62.1064 305.525 64.4845 306.607 66.8592C307.894 69.681 309.179 72.506 310.473 75.3244C311.8 78.2095 313.142 81.0812 314.472 83.9663C315.23 85.614 315.983 87.2683 316.727 88.9294C316.899 89.3129 317.059 89.7032 317.383 89.8966C318.251 91.0907 318.151 92.3648 317.55 93.6756C317.365 93.7056 317.191 93.7756 317.086 94.0024C317.006 94.1725 316.936 94.3527 316.866 94.5328C315.799 97.2944 314.739 100.056 313.666 102.814C312.244 106.463 310.815 110.109 309.386 113.754C308.867 115.075 308.341 116.393 307.824 117.714C306.355 121.466 304.911 125.238 303.412 128.97C302.798 130.498 302.215 132.049 301.614 133.587C300.159 137.305 298.7 141.021 297.261 144.747C296.967 145.507 296.562 145.967 295.944 146.254C293.811 147.252 291.701 148.336 289.581 149.383C288.281 150.023 286.977 150.654 285.675 151.291C283.185 152.511 280.696 153.735 278.207 154.96C278.122 155 278.032 155.043 277.965 155.12C277.847 155.25 277.927 155.407 277.965 155.553C277.673 156.16 277.131 156.054 276.717 156.277C276.326 156.444 275.962 156.657 275.622 156.964Z" fill="#9D47B9"/>
<path d="M85.0934 187.799C85.2318 187.713 85.2658 187.579 85.2673 187.428C85.2677 187.319 85.2838 187.22 85.4367 187.231C86.2567 187.278 87.0792 187.313 87.8975 187.376C89.7353 187.519 91.5701 187.684 93.4071 187.824C93.803 187.853 94.186 187.915 94.5445 188.089C96.0065 187.44 97.6338 187.301 99.0839 186.621C99.2367 186.253 99.598 186.248 99.9022 186.163C101.586 185.68 103.27 185.209 104.955 184.732C105.691 184.525 106.43 184.317 107.165 184.107C107.688 183.957 108.211 183.813 108.697 183.542C109.041 183.351 109.453 183.282 109.838 183.174C121.805 179.792 133.772 176.41 145.738 173.028C146.402 172.841 147.073 172.684 147.688 172.336C147.998 172.158 148.378 172.108 148.728 172.009C160.869 168.578 173.013 165.149 185.156 161.715C185.68 161.567 186.223 161.474 186.686 161.153C186.974 160.953 187.311 160.984 187.639 161.038C188.435 160.98 189.203 160.554 190.026 160.857C190.031 160.187 190.031 160.184 190.478 160.04C190.722 159.962 190.969 159.898 191.212 159.827C194.021 159.033 196.828 158.241 199.637 157.447C199.918 157.368 200.201 157.295 200.479 157.204C200.897 157.068 200.945 157.017 200.924 156.585C200.89 155.898 200.831 155.211 200.778 154.522C200.638 152.714 200.537 150.901 200.342 149.095C200.092 146.783 199.986 144.462 199.762 142.152C199.54 139.876 199.387 137.597 199.202 135.316C198.996 132.785 198.748 130.257 198.499 127.729C198.47 127.434 198.648 127.256 198.737 127.028C198.699 125.794 198.56 124.567 198.467 123.336C198.443 123.015 198.438 122.676 198.153 122.44C198.043 121.43 197.914 120.425 197.826 119.412C197.642 117.278 197.479 115.145 197.304 113.012C197.171 111.349 197.041 109.685 196.898 108.021C196.705 105.78 196.497 103.541 196.305 101.3C196.229 100.396 196.161 99.49 196.113 98.5844C196.085 98.0639 195.977 97.569 195.737 97.1145C194.598 94.9652 193.443 92.8265 192.3 90.6779C191.055 88.3396 189.82 85.9952 188.575 83.6569C187.892 82.3763 187.199 81.0989 186.516 79.8183C184.931 76.8379 183.359 73.8504 181.768 70.8745C180.639 68.7599 179.486 66.6613 178.345 64.5529C177.484 62.957 176.621 61.3581 175.773 59.7552C175.639 59.4992 175.573 59.2083 175.477 58.9351C175.278 58.0719 174.844 57.3186 174.364 56.5907C174.211 56.3586 174.013 56.1767 173.778 56.0302C173.12 54.7803 172.47 53.5251 171.806 52.2768C170.699 50.1966 169.58 48.1197 168.476 46.0387C166.824 42.9331 165.185 39.8205 163.53 36.7129C162.728 35.2065 161.905 33.7153 161.098 32.2134C160.942 31.9259 160.844 31.6001 160.651 31.348C160.433 31.0623 160.667 30.8809 160.712 30.6525C159.794 29.3474 159.126 27.9035 158.395 26.4958C157.948 26.2278 157.657 25.8405 157.423 25.3749C156.768 24.0803 156.083 22.8006 155.406 21.5154C155.354 21.4205 155.291 21.3289 155.226 21.2439C155.079 21.0416 154.915 20.9719 154.675 21.1272C154.096 21.5026 153.501 21.8574 152.917 22.225C151.809 22.9212 150.702 23.6203 149.599 24.3214C149.418 24.4348 149.265 24.4371 149.11 24.2963C147.879 25.1867 146.518 25.8851 145.327 26.8393C145.226 27.0803 145.052 27.2417 144.826 27.3834C143 28.5475 141.188 29.7324 139.366 30.9014C138.305 31.5846 137.237 32.257 136.166 32.9273C135.77 33.1762 135.397 33.4748 134.919 33.5625C133.518 34.1848 132.224 34.974 131.08 35.9991C130.657 36.5154 130.058 36.7994 129.518 37.1577C128.822 37.6191 128.121 38.0697 127.414 38.5125C127.233 38.6259 127.02 38.692 126.823 38.7817C125.668 38.9754 124.816 39.7904 123.881 40.3691C122.657 41.1293 121.422 41.8957 120.242 42.7371C120.268 42.9861 120.145 43.1269 119.939 43.26C118.743 44.0216 117.563 44.8068 116.371 45.5704C115.27 46.2774 114.17 46.9806 113.055 47.6631C112.538 47.9806 112.349 48.3994 112.321 49.0078C112.168 52.2772 111.977 55.5447 111.789 58.8114C111.704 60.2985 111.595 61.7863 111.51 63.2763C111.496 63.5461 111.476 63.7862 111.184 63.8963C111.15 65.5753 111.106 67.2511 110.839 68.9143C111.054 69.2571 111.16 69.5994 111.132 70.0325C110.886 73.772 110.669 77.5127 110.458 81.2519C110.349 83.1771 110.279 85.104 110.17 87.0292C109.963 90.6609 109.743 94.2929 109.527 97.9241C109.518 98.0705 109.502 98.2155 109.493 98.3589C109.477 98.5602 109.375 98.7077 109.184 98.7615C108.903 98.8406 108.619 98.9329 108.332 98.9544C106.92 99.0702 105.523 99.2724 104.122 99.4821C102.976 99.6543 101.816 99.7335 100.663 99.8673C100.015 99.9432 99.3683 100.044 98.7202 100.129C96.8854 100.364 95.0519 100.592 93.2179 100.83C92.5333 100.919 91.8521 101.02 91.1683 101.113C89.4415 101.342 87.7183 101.573 85.9927 101.796C85.3111 101.885 84.6185 101.923 83.9417 102.029C82.0058 102.327 80.0639 102.57 78.1151 102.777C76.8549 102.91 75.6043 103.143 74.3456 103.325C73.8438 103.397 73.3364 103.449 72.8318 103.501C72.6164 103.524 72.5207 103.351 72.4163 103.202C69.9996 103.513 67.596 103.926 65.1649 104.119C64.998 104.282 64.9392 104.517 64.6047 104.539C63.6676 104.609 62.7377 104.749 61.8054 104.88C60.55 105.052 59.2939 105.221 58.0454 105.428C57.5076 105.517 56.9652 105.522 56.4274 105.611C54.9312 105.86 53.4203 106.035 51.9119 106.219C50.7273 106.364 49.5376 106.458 48.3517 106.61C47.096 106.77 45.8438 106.975 44.5901 107.153C44.1603 107.214 43.7282 107.245 43.2968 107.301C42.6879 107.381 42.0723 107.405 41.4652 107.547C41.0866 107.635 40.671 107.58 40.2837 107.47C38.8499 107.486 37.4419 107.882 35.9996 107.778C36.0385 108.083 35.9198 108.294 35.6031 108.302C35.0528 108.313 34.5235 108.443 33.9846 108.517C32.8012 108.678 31.6101 108.8 30.4223 108.934C30.1588 108.964 30.0647 109.141 30.0026 109.365C29.7124 110.378 29.4089 111.389 29.1233 112.407C28.4424 114.821 27.7662 117.241 27.0891 119.657C26.2836 122.529 25.4819 125.402 24.6669 128.273C23.8306 131.213 22.9737 134.146 22.1344 137.086C21.6563 138.765 21.1856 140.448 20.7281 142.134C20.6219 142.523 20.5319 142.914 20.2025 143.188C19.4861 144.509 19.9133 145.583 20.9318 146.525C21.1535 146.491 21.3734 146.495 21.5505 146.658C21.6848 146.779 21.8099 146.913 21.935 147.047C23.8498 149.097 25.7558 151.149 27.6756 153.194C30.2185 155.899 32.7693 158.599 35.3201 161.299C36.2454 162.276 37.1786 163.249 38.1011 164.227C40.7243 167.006 43.3235 169.811 45.9766 172.563C47.0625 173.69 48.1194 174.846 49.1933 175.985C51.791 178.74 54.3937 181.491 56.9757 184.257C57.5033 184.821 58.0851 185.089 58.8737 185.136C61.5944 185.306 64.3102 185.558 67.0287 185.775C68.6946 185.906 70.3638 186.028 72.0317 186.156C75.2213 186.403 78.4117 186.652 81.6022 186.902C81.7104 186.909 81.8253 186.918 81.9223 186.962C82.0902 187.037 82.0358 187.199 82.0282 187.339C82.5155 187.771 83.1181 187.501 83.6537 187.56C84.1492 187.577 84.6244 187.644 85.0934 187.799Z" fill="#FF61B0"/>
<path d="M113.913 216.085C113.913 216.085 116.751 226.545 117.633 230.272C119.147 236.804 120.944 243.136 122.521 249.588C123.246 252.553 123.971 255.759 123.971 255.759L126.651 265.617C126.651 265.617 123.435 264.656 122.773 264.575C121.606 264.415 93.9536 255.679 93.9536 255.679L71.535 249.467L80.8051 227.667L86.3861 215.484H94.6473H103.192L108.805 215.845L113.913 216.085Z" fill="#FF61B0"/>
<path d="M241.613 144.232C241.513 144.235 241.447 144.173 241.392 144.091C241.352 144.031 241.308 143.983 241.236 144.044C240.847 144.366 240.453 144.682 240.071 145.012C239.213 145.754 238.365 146.507 237.507 147.247C237.321 147.406 237.154 147.578 237.04 147.803C236.08 147.975 235.224 148.486 234.259 148.636C234.049 148.49 233.868 148.618 233.687 148.68C232.677 149.023 231.672 149.373 230.664 149.72C230.225 149.872 229.783 150.025 229.343 150.175C229.029 150.282 228.718 150.391 228.378 150.418C228.139 150.438 227.91 150.549 227.68 150.628C220.525 153.094 213.369 155.559 206.214 158.024C205.818 158.161 205.428 158.317 204.997 158.348C204.779 158.363 204.572 158.472 204.363 158.544C197.104 161.046 189.844 163.549 182.582 166.049C182.269 166.158 181.966 166.303 181.62 166.294C181.405 166.288 181.249 166.426 181.107 166.575C180.691 166.83 180.156 166.874 179.859 167.337C179.612 166.972 179.611 166.97 179.338 167.052C179.188 167.097 179.043 167.152 178.897 167.2C177.217 167.779 175.539 168.358 173.859 168.937C173.692 168.995 173.525 169.057 173.354 169.107C173.098 169.184 173.055 169.173 172.909 168.928C172.675 168.539 172.454 168.141 172.23 167.745C171.64 166.702 171.03 165.672 170.469 164.611C169.751 163.253 168.958 161.942 168.228 160.594C167.509 159.266 166.755 157.961 166.016 156.643C165.196 155.181 164.399 153.705 163.601 152.229C163.509 152.057 163.356 152.023 163.228 151.93C162.798 151.24 162.42 150.517 162.018 149.809C161.913 149.624 161.792 149.436 161.847 149.204C161.533 148.61 161.231 148.012 160.906 147.425C160.22 146.189 159.524 144.96 158.834 143.727C158.294 142.767 157.753 141.807 157.218 140.843C156.497 139.545 155.784 138.242 155.064 136.944C154.772 136.421 154.476 135.899 154.17 135.385C153.994 135.09 153.867 134.779 153.821 134.443C153.602 132.853 153.395 131.264 153.178 129.673C152.943 127.941 152.701 126.21 152.466 124.478C152.337 123.529 152.215 122.578 152.087 121.63C151.787 119.423 151.477 117.217 151.181 115.011C150.97 113.444 150.776 111.877 150.573 110.309C150.418 109.123 150.263 107.935 150.099 106.75C150.072 106.561 149.999 106.377 149.947 106.193C149.731 105.648 149.672 105.078 149.644 104.505C149.635 104.323 149.667 104.152 149.73 103.987C149.601 103.064 149.466 102.141 149.34 101.216C149.13 99.6759 148.928 98.1331 148.717 96.5932C148.404 94.2938 148.081 91.9955 147.769 89.6936C147.618 88.578 147.482 87.4632 147.335 86.3483C147.307 86.1343 147.237 85.9204 147.241 85.7125C147.245 85.4771 147.063 85.4619 146.957 85.353C146.936 84.3061 146.742 83.2729 146.591 82.2372C146.714 81.9287 146.717 81.6115 146.664 81.2717C146.516 80.3254 146.389 79.3762 146.257 78.427C146.248 78.3563 146.246 78.2832 146.247 78.2133C146.246 78.049 146.302 77.9518 146.477 77.95C146.901 77.9469 147.324 77.9269 147.747 77.9176C148.549 77.8994 149.352 77.8831 150.153 77.8694C150.284 77.8663 150.36 77.8125 150.386 77.6792C151.32 77.7229 152.247 77.6149 153.185 77.708C153.323 77.8037 153.467 77.8295 153.631 77.8257C154.959 77.8047 156.287 77.8006 157.615 77.7839C158.389 77.7753 159.162 77.7586 159.937 77.7395C160.223 77.7331 160.516 77.7624 160.785 77.6377C161.705 77.4733 162.633 77.4389 163.572 77.5883C163.97 77.7184 164.37 77.6581 164.768 77.6596C165.28 77.6615 165.792 77.6553 166.303 77.6429C166.433 77.6398 166.563 77.5993 166.693 77.5775C167.335 77.2666 168.054 77.4058 168.728 77.3858C169.61 77.3607 170.501 77.3351 171.391 77.3707C171.469 77.5167 171.581 77.5496 171.732 77.5481C172.601 77.5341 173.471 77.5388 174.339 77.5272C175.142 77.5172 175.942 77.5059 176.742 77.4777C177.114 77.4651 177.36 77.6267 177.596 77.9499C178.862 79.6876 180.146 81.4107 181.429 83.1343C182.012 83.9191 182.608 84.6953 183.193 85.482C183.298 85.6247 183.396 85.7491 183.58 85.7044C184.208 86.6128 184.84 87.5157 185.578 88.3315C185.596 88.5972 185.669 88.823 185.84 89.0504C187.323 91.0124 188.793 92.9854 190.259 94.9596C191.014 95.9761 191.751 97.0073 192.506 98.0238C193.93 99.9406 195.362 101.853 196.791 103.766C196.849 103.843 196.909 103.917 196.966 103.992C197.047 104.097 197.152 104.141 197.266 104.102C197.434 104.044 197.608 103.992 197.758 103.9C198.499 103.454 199.264 103.06 200.034 102.669C200.664 102.35 201.267 101.975 201.886 101.632C202.235 101.44 202.592 101.262 202.944 101.074C203.937 100.541 204.928 100.004 205.922 99.4724C206.294 99.2743 206.668 99.0837 207.04 98.8875C207.978 98.3899 208.916 97.8948 209.851 97.3941C210.221 97.1966 210.577 96.9677 210.951 96.7815C212.018 96.2458 213.068 95.6781 214.108 95.0883C214.78 94.7061 215.484 94.3824 216.173 94.0279C216.448 93.8865 216.718 93.7318 216.986 93.5778C217.102 93.5127 217.086 93.3832 217.083 93.2639C218.393 92.562 219.733 91.9211 221.007 91.1493C221.149 91.1783 221.264 91.2861 221.437 91.1775C221.927 90.8775 222.438 90.6184 222.947 90.3537C223.631 89.9947 224.314 89.6339 225.008 89.2969C225.306 89.1514 225.577 88.9587 225.875 88.8133C226.707 88.4096 227.518 87.9601 228.332 87.5163C228.971 87.1685 229.594 86.7906 230.237 86.446C230.917 86.0801 231.611 85.7407 232.296 85.3855C232.532 85.264 232.757 85.125 232.991 84.9998C233.321 84.8242 233.634 84.6147 233.987 84.4737C234.206 84.3852 234.392 84.205 234.544 84.0049C235.259 83.4959 236.1 83.2048 236.777 82.6272C236.868 82.8084 237.004 82.8816 237.164 82.7715C237.44 82.5789 237.749 82.4592 238.043 82.3049C238.687 81.966 239.322 81.6032 239.958 81.2479C240.1 81.1694 240.211 81.2322 240.323 81.3326C240.836 81.7835 241.354 82.2282 241.866 82.6835C243.082 83.7617 244.298 84.8443 245.513 85.925C246.957 87.2089 248.401 88.4953 249.85 89.7756C251.334 91.0857 252.826 92.3847 254.312 93.6942C255.16 94.4423 256.006 95.1953 256.847 95.9545C257.041 96.1298 257.228 96.3117 257.491 96.3431C258.326 96.8087 258.506 97.552 258.345 98.4363C258.223 98.4976 258.115 98.579 258.087 98.7322C258.065 98.8474 258.051 98.9659 258.038 99.0843C257.837 100.9 257.64 102.713 257.435 104.528C257.161 106.929 256.882 109.331 256.602 111.732C256.5 112.602 256.392 113.472 256.292 114.342C256.005 116.813 255.74 119.289 255.429 121.756C255.301 122.766 255.199 123.782 255.082 124.794C254.8 127.243 254.513 129.69 254.242 132.139C254.186 132.639 253.996 132.996 253.623 133.307C252.337 134.382 251.085 135.5 249.818 136.601C249.042 137.274 248.259 137.943 247.48 138.616C245.991 139.902 244.503 141.191 243.015 142.48C242.964 142.523 242.91 142.569 242.878 142.628C242.822 142.73 242.908 142.799 242.963 142.873C242.879 143.286 242.482 143.356 242.239 143.581C242 143.769 241.789 143.977 241.613 144.232Z" fill="#FFD700"/>
<path d="M253.196 114.478C253.111 114.577 253.12 114.699 253.158 114.829C253.187 114.923 253.2 115.011 253.078 115.029C252.426 115.134 251.775 115.251 251.119 115.343C249.647 115.547 248.172 115.732 246.702 115.939C246.385 115.985 246.07 116 245.744 115.914C244.774 116.734 243.541 117.144 242.589 117.988C242.566 118.332 242.286 118.401 242.071 118.529C240.884 119.245 239.694 119.95 238.505 120.662C237.985 120.972 237.463 121.282 236.945 121.594C236.576 121.817 236.206 122.034 235.898 122.354C235.68 122.58 235.377 122.713 235.105 122.875C226.657 127.922 218.21 132.968 209.763 138.015C209.294 138.294 208.812 138.55 208.424 138.959C208.229 139.168 207.946 139.279 207.698 139.426C199.128 144.546 190.555 149.665 181.984 154.789C181.613 155.009 181.214 155.186 180.938 155.546C180.766 155.769 180.495 155.803 180.225 155.814C179.618 156.006 179.131 156.51 178.409 156.396C178.582 156.974 178.583 156.977 178.272 157.181C178.102 157.291 177.926 157.39 177.755 157.495C175.772 158.679 173.791 159.862 171.807 161.047C171.609 161.165 171.408 161.279 171.215 161.406C170.925 161.598 170.9 161.651 171.031 162.019C171.239 162.605 171.465 163.186 171.688 163.769C172.274 165.302 172.83 166.846 173.458 168.366C174.263 170.312 174.957 172.292 175.741 174.242C176.514 176.163 177.234 178.099 177.98 180.03C178.807 182.173 179.667 184.306 180.527 186.439C180.628 186.687 180.536 186.873 180.527 187.085C180.881 188.141 181.313 189.173 181.71 190.216C181.814 190.489 181.907 190.78 182.192 190.932C182.543 191.783 182.909 192.625 183.245 193.482C183.951 195.286 184.64 197.095 185.338 198.901C185.881 200.309 186.421 201.719 186.971 203.127C187.712 205.022 188.464 206.914 189.205 208.809C189.502 209.574 189.794 210.343 190.07 211.114C190.229 211.557 190.444 211.964 190.751 212.313C192.206 213.961 193.671 215.597 195.129 217.244C196.717 219.035 198.298 220.834 199.887 222.626C200.757 223.607 201.635 224.584 202.505 225.565C204.527 227.849 206.541 230.142 208.567 232.421C210.006 234.041 211.458 235.643 212.904 237.255C213.997 238.476 215.091 239.699 216.175 240.928C216.348 241.125 216.476 241.364 216.623 241.582C217.006 242.29 217.543 242.861 218.109 243.402C218.289 243.575 218.492 243.696 218.714 243.781C219.557 244.74 220.395 245.705 221.242 246.662C222.654 248.256 224.075 249.845 225.485 251.44C227.593 253.82 229.691 256.209 231.802 258.59C232.825 259.744 233.86 260.882 234.886 262.031C235.083 262.251 235.246 262.514 235.463 262.697C235.708 262.904 235.574 263.102 235.598 263.307C236.658 264.267 237.561 265.392 238.502 266.474C238.922 266.625 239.25 266.907 239.556 267.266C240.408 268.264 241.28 269.244 242.147 270.23C242.212 270.303 242.286 270.37 242.359 270.432C242.527 270.58 242.673 270.611 242.82 270.434C243.173 270.007 243.543 269.596 243.902 269.175C244.583 268.378 245.263 267.578 245.939 266.778C246.051 266.648 246.169 266.619 246.327 266.712C247.054 265.726 247.931 264.882 248.61 263.847C248.625 263.622 248.718 263.452 248.857 263.289C249.975 261.961 251.077 260.618 252.19 259.286C252.839 258.508 253.495 257.739 254.154 256.97C254.398 256.685 254.609 256.362 254.96 256.201C255.889 255.415 256.691 254.504 257.313 253.418C257.508 252.897 257.9 252.546 258.227 252.141C258.648 251.62 259.077 251.106 259.512 250.599C259.623 250.469 259.772 250.374 259.902 250.262C260.753 249.889 261.203 249.035 261.78 248.37C262.535 247.497 263.297 246.617 263.995 245.682C263.909 245.472 263.968 245.329 264.094 245.177C264.827 244.308 265.54 243.421 266.269 242.551C266.943 241.746 267.616 240.944 268.306 240.157C268.626 239.792 268.662 239.397 268.525 238.868C267.782 236.025 267.07 233.177 266.356 230.33C266.03 229.034 265.724 227.733 265.397 226.435C265.337 226.2 265.289 225.99 265.488 225.843C265.072 224.391 264.665 222.94 264.435 221.459C264.176 221.203 264.004 220.927 263.912 220.549C263.118 217.284 262.301 214.024 261.481 210.766C261.058 209.088 260.606 207.416 260.183 205.739C259.388 202.574 258.602 199.407 257.814 196.241C257.782 196.113 257.756 195.985 257.726 195.86C257.685 195.684 257.726 195.539 257.861 195.458C258.059 195.34 258.256 195.21 258.475 195.14C259.546 194.789 260.583 194.365 261.621 193.935C262.47 193.582 263.354 193.307 264.219 192.986C264.704 192.805 265.183 192.603 265.666 192.414C267.036 191.885 268.407 191.361 269.775 190.83C270.286 190.63 270.791 190.422 271.3 190.221C272.587 189.715 273.871 189.208 275.159 188.709C275.667 188.511 276.198 188.354 276.698 188.142C278.13 187.541 279.582 186.985 281.048 186.459C281.996 186.12 282.911 185.696 283.845 185.315C284.218 185.163 284.6 185.028 284.98 184.894C285.142 184.835 285.262 184.967 285.383 185.077C287.187 184.378 288.954 183.593 290.8 182.994C290.887 182.824 290.871 182.61 291.127 182.532C291.839 182.305 292.528 182.018 293.221 181.739C294.156 181.367 295.092 180.998 296.011 180.597C296.407 180.424 296.829 180.323 297.226 180.15C298.328 179.669 299.461 179.249 300.589 178.822C301.475 178.485 302.379 178.192 303.264 177.85C304.202 177.488 305.125 177.088 306.057 176.712C306.376 176.582 306.705 176.478 307.027 176.353C307.481 176.175 307.955 176.046 308.391 175.815C308.664 175.672 309.003 175.645 309.334 175.67C310.449 175.401 311.443 174.809 312.596 174.641C312.485 174.386 312.522 174.182 312.767 174.119C313.194 174.011 313.572 173.805 313.974 173.646C314.855 173.296 315.752 172.978 316.644 172.651C316.841 172.578 316.868 172.409 316.858 172.205C316.817 171.28 316.787 170.356 316.742 169.428C316.637 167.227 316.527 165.023 316.419 162.821C316.291 160.204 316.159 157.586 316.038 154.968C315.916 152.287 315.812 149.609 315.692 146.927C315.623 145.395 315.547 143.862 315.459 142.328C315.44 141.974 315.407 141.621 315.592 141.327C315.803 140.061 315.186 139.212 314.143 138.583C313.979 138.652 313.807 138.688 313.626 138.579C313.489 138.498 313.356 138.405 313.223 138.313C311.188 136.889 309.16 135.461 307.123 134.041C304.426 132.165 301.724 130.295 299.022 128.425C298.042 127.748 297.057 127.077 296.08 126.399C293.3 124.473 290.533 122.521 287.737 120.624C286.593 119.847 285.463 119.04 284.325 118.25C281.572 116.341 278.816 114.436 276.072 112.514C275.511 112.122 274.987 111.995 274.359 112.096C272.191 112.435 270.005 112.702 267.827 113C266.492 113.184 265.158 113.377 263.822 113.564C261.268 113.92 258.712 114.274 256.157 114.628C256.07 114.641 255.979 114.654 255.891 114.633C255.74 114.599 255.74 114.449 255.709 114.328C255.215 114.043 254.816 114.382 254.383 114.427C253.991 114.501 253.603 114.529 253.196 114.478Z" fill="#FF8457"/>
</svg>
