<svg width="200" height="200" viewBox="0 0 200 200" fill="none" xmlns="http://www.w3.org/2000/svg">
<mask id="mask0_152_227" style="mask-type:alpha" maskUnits="userSpaceOnUse" x="14" y="4" width="172" height="192">
<path d="M185.025 158.166L150.28 195.569C70.8617 173.381 42.0726 134.076 22.2181 102.695C6.33446 77.5902 20.2326 26.7258 29.1672 4.43169L81.7817 12.0392C80.789 26.1975 80.5905 60.8537 87.7381 86.212C94.8857 111.57 155.574 144.747 185.025 158.166Z" fill="#D2ECFF"/>
</mask>
<g mask="url(#mask0_152_227)">
<path d="M184.033 157.85L149.288 195.253C69.8696 173.064 41.0805 133.759 21.2259 102.378C5.34227 77.2738 19.2404 26.4094 28.175 4.11528L80.7896 11.7227C79.7968 25.8811 79.5983 60.5373 86.7459 85.8956C93.8936 111.254 154.582 144.431 184.033 157.85Z" fill="#D2ECFF"/>
<path d="M49.3 67.7647C47.701 67.717 52.8603 67.3222 49.3704 67.3774C50.0751 67.2916 50.7589 67.1899 51.4265 67.0702C51.6468 67.1549 51.8703 67.2374 52.0981 67.318C51.2049 67.4991 50.2682 67.6466 49.3002 67.7653C49.3002 67.7651 49.3001 67.7649 49.3 67.7647ZM48.3107 69.2664C49.2122 68.9001 52.0956 68.5279 48.8299 68.5204C48.6048 68.6487 48.3758 68.7753 48.1425 68.9003C46.9923 68.8818 45.8333 68.8293 44.683 68.75C44.2816 68.794 43.8711 68.8346 43.4629 68.8714C42.924 68.674 42.3941 68.4709 41.8701 68.2633C42.3313 68.3055 42.8 68.3446 43.2618 68.3788C45.0612 68.2417 46.6609 68.19 49.0095 67.9815C48.7908 67.9531 48.5665 67.9241 48.3512 67.8928C49.5654 67.8886 50.7671 67.8436 51.9362 67.745C50.9858 67.971 49.8655 68.1771 48.9139 68.32C50.5723 68.5189 53.2194 67.9697 54.4242 67.5826C56.0664 67.0595 55.7929 67.2871 56.8942 66.8135C57.0631 66.7334 56.9835 66.6331 57.3138 66.4836C58.0129 66.1709 58.8589 65.6727 59.3981 65.23C60.1073 64.6426 60.4378 64.239 60.1217 65.0321C60.0062 65.1578 59.8817 65.2794 59.7467 65.3998C57.9583 66.9671 55.2286 67.9455 51.8369 68.3695C52.933 68.5077 51.0823 68.9676 48.3107 69.2664ZM23.4488 71.9576C23.4603 71.1921 24.2044 69.7283 24.8874 68.7761C24.888 68.775 24.8886 68.7738 24.8892 68.7727C25.0374 68.5618 25.5863 68.1445 25.1968 68.8518C24.5745 70.0017 23.8756 70.4638 23.9348 71.143C23.7661 71.4039 23.6057 71.6803 23.4488 71.9576ZM22.9085 74.483C22.7617 75.174 22.377 74.8449 22.5902 73.9459C22.59 73.9459 22.5897 73.9459 22.5894 73.9458C22.7002 73.5733 22.8117 74.348 22.8244 72.9613C23.1147 72.717 23.3931 72.4811 23.6919 72.2498C23.59 72.5762 23.5108 72.8722 23.4328 73.2122C23.1277 72.931 23.0733 73.7924 22.9085 74.483ZM60.4777 64.0715C60.166 63.9332 60.1359 64.2837 59.4834 64.7362C59.9219 64.2415 60.0938 63.7508 60.0079 63.2582C60.2287 63.494 60.3944 63.7643 60.4777 64.0715ZM35.678 68.1394C35.6761 68.1392 35.6742 68.139 35.6723 68.1388C35.2562 68.1326 34.8361 68.1237 34.424 68.1127C34.1888 68.0112 33.9575 67.9096 33.7245 67.8066C32.9592 67.7569 32.1899 67.6987 31.4211 67.6329C30.7973 67.5832 30.1848 67.5035 29.5716 67.3903C29.7237 67.2855 30.5292 67.4383 31.4474 67.5135C32.194 67.582 32.998 67.6481 33.6039 67.6499C35.7187 67.9613 36.7386 68.1681 36.859 68.3779C36.4665 68.301 36.0733 68.2211 35.678 68.1394ZM45.3003 141.884C45.4077 141.986 45.5158 142.086 45.6249 142.185C45.8157 142.36 46.0069 142.534 46.1996 142.71C46.0837 142.515 45.9669 142.321 45.8511 142.127C45.7274 141.918 45.6094 141.707 45.5 141.491C44.4502 140.524 44.7266 140.344 44.0634 138.937C42.4265 134.548 42.1267 135.676 42.7063 131.622C42.9082 134.881 43.2772 133.631 43.9822 135.542C43.794 135.962 42.7954 134.058 42.9332 135.374C43.707 137.614 44.7648 139.74 46.5108 141.957C46.5133 141.96 46.5157 141.963 46.5182 141.966C46.5179 141.962 46.5176 141.959 46.5173 141.955C46.5138 141.882 46.5112 141.809 46.509 141.736C46.2377 141.386 45.9797 141.026 45.7388 140.664C46.0866 141.038 46.4465 141.398 46.8297 141.755C46.564 141.565 46.6142 141.701 46.7203 141.902C46.8628 142.167 47.093 142.538 46.8587 142.483C46.7469 142.456 46.4898 142.256 46.2226 142.031C46.0446 141.884 45.8645 141.723 45.7218 141.597C45.8143 141.761 45.9105 141.923 46.0104 142.086C46.4765 142.839 46.9639 143.6 47.4541 144.35C47.005 143.912 46.5591 143.472 46.1199 143.034C45.9199 142.759 45.723 142.485 45.5267 142.21C45.4513 142.105 45.377 141.998 45.3039 141.891C45.3027 141.889 45.3015 141.886 45.3003 141.884ZM129.147 59.7921C130.443 60.7641 132.283 62.7171 132.875 63.8684C131.658 62.5025 130.414 61.1446 129.147 59.7921ZM36.9839 68.5507C36.7777 68.4963 36.5782 68.4423 36.3725 68.3867C37.3038 68.4004 38.2409 68.4027 39.163 68.3901C39.334 68.5082 39.5135 68.6262 39.6938 68.7433C38.7921 68.692 37.8864 68.6269 36.9839 68.5507ZM36.4087 60.8968C37.05 60.7991 37.101 60.7946 37.9173 60.7117C37.9164 60.7117 37.9154 60.7117 37.9145 60.7117C38.2289 60.6663 40.9717 60.479 40.695 60.5939C39.3392 60.7041 37.911 60.851 36.58 61.0423C36.5159 60.9948 36.4835 60.9432 36.4087 60.8968ZM52.6452 60.0399C52.6472 60.0401 52.6492 60.0403 52.6511 60.0404C53.1673 60.0473 53.6581 60.0682 54.1905 60.0681C52.2943 60.217 51.9613 59.9854 50.2405 60.0794C48.5211 60.1768 47.4874 60.3327 45.9726 60.0631C46.5045 59.9956 47.0759 59.9087 47.6274 59.8375C50.0995 59.9041 50.742 59.7788 52.7051 59.628C52.6847 59.7656 52.6655 59.9023 52.6452 60.0399ZM44.1848 122.108C44.0116 121.781 44.3329 121.486 44.3444 121.453C44.3445 121.454 44.3447 121.454 44.3448 121.455C44.821 118.803 44.3673 121.806 45.1009 119.361C45.0526 119.737 45.014 120.105 44.9766 120.473C44.7042 121.02 44.4226 121.579 44.1848 122.108ZM93.3439 94.4542C93.2645 94.446 93.1815 94.4411 93.1025 94.4321C93.2342 94.3036 93.3448 94.1831 93.44 94.0701C94.2127 93.1324 94.3052 92.7116 95.1546 91.8113C94.7128 92.6086 94.198 93.3885 93.6074 94.1371C93.5241 94.2435 93.4365 94.3493 93.3446 94.4545C93.3444 94.4544 93.3441 94.4543 93.3439 94.4542ZM26.8516 63.8953C28.1065 62.6442 29.6706 61.9463 31.8971 61.4667C31.8989 61.4664 31.9007 61.4661 31.9025 61.4658C32.0307 61.4386 31.5031 61.6975 31.6815 61.6738C32.1093 61.5327 32.5506 61.3932 33.0049 61.2679C33.1144 61.3263 33.2205 61.3858 33.3285 61.4445C32.0309 61.7169 30.7933 62.0617 29.6897 62.512C29.8916 62.4808 30.0982 62.4508 30.2996 62.4267C29.3795 62.8139 28.5717 63.2648 27.9254 63.7832C28.007 63.5222 28.1237 63.2579 28.2667 62.9968C27.7471 63.2633 27.2706 63.5642 26.8516 63.8953ZM89.0049 74.1039C89.3901 74.2013 88.6488 74.1954 89.2462 74.3132C89.8395 74.4255 90.9735 74.5518 90.6643 74.6383C89.8593 74.4992 89.008 74.3985 88.1948 74.3554C90.764 74.7979 93.3455 75.4169 93.1926 75.7055C90.9122 74.9149 88.7574 74.5639 86.5394 74.6911C86.54 74.4006 89.0104 74.3065 87.4545 73.9931C87.9638 74.0083 88.503 74.0472 88.9992 74.1038C89.0011 74.1038 89.003 74.1039 89.0049 74.1039ZM9.63404 51.7678C9.6365 51.0785 9.71865 49.87 10.1567 48.7318C10.5207 47.7761 10.9655 47.0432 11.2478 46.5932C11.4315 46.3498 12.3544 45.6389 12.4336 45.638C12.7637 45.6903 12.5474 46.8094 13.0138 45.65C12.9541 46.0529 12.8507 46.4388 12.6898 46.8497C12.9288 46.8204 13.167 46.7884 13.4034 46.7571C13.5626 46.2371 13.6406 45.7245 13.6296 45.2038C13.7023 45.1828 13.775 45.1613 13.8473 45.139C13.6103 47.0238 14.0439 45.9397 13.9993 46.9821C14.4897 46.0931 14.7292 45.1362 14.7063 44.1482C14.78 44.7151 14.7648 45.3822 14.6611 45.8677C15.0424 45.9794 15.0402 44.7647 15.0536 44.5562C15.146 44.0139 15.4508 44.9943 15.2316 46.2629C15.0138 47.5354 14.1988 48.9514 14.2329 49.5353C14.2302 49.6394 14.2438 49.7174 14.2742 49.7616C14.3018 49.695 14.3309 49.6272 14.3607 49.5605C14.7081 48.7722 15.264 47.9518 15.6341 47.0448C15.6001 47.3403 15.5449 47.6369 15.4847 47.922C15.1224 48.4837 14.7466 49.0212 14.4627 49.5806C13.6814 51.0757 13.5861 52.8529 14.0762 54.6746C14.1705 54.8981 14.2723 55.1183 14.3793 55.3364C14.5113 55.25 14.6448 55.1674 14.7792 55.0837C14.8408 55.2166 14.905 55.3487 14.9727 55.4828L14.9388 55.4185C15.0697 55.6124 15.2025 55.8075 15.3353 56.0002C14.2366 55.1393 15.0366 56.4889 15.8354 58.1721C15.0689 57.3601 14.5042 56.2629 14.2216 56.411C16.328 59.3196 18.5662 62.9122 22.0862 65.1964C22.9753 65.7369 23.208 65.6055 25.323 66.7591C25.2193 66.7473 25.1535 66.7863 25.0661 66.7948C27.2359 67.791 29.1864 68.2643 31.2231 68.5306C32.9686 68.7514 34.7697 68.9801 36.9994 69.2308C36.7246 69.1015 36.4567 68.9711 36.1855 68.8397C35.1407 68.7987 34.0912 68.7428 33.0481 68.6724C32.4563 68.4432 33.1978 68.4638 31.2961 68.1994C31.0474 68.1636 30.7584 68.1194 30.4131 68.0568C28.1068 67.5661 29.4469 67.9269 28.7937 67.8256C27.9094 67.6569 27.2886 67.2875 26.4015 66.9998C25.724 66.7579 26.2502 67.2263 24.6806 66.3624C25.4923 66.5702 26.3232 66.7312 27.1251 66.8352C27.4897 67.0301 27.8668 67.2136 28.2624 67.3853C27.8059 67.2954 27.3576 67.1898 26.9057 67.0656C28.3469 67.546 29.7852 67.8409 31.3479 67.9647C31.4494 67.9731 31.5514 67.9814 31.654 67.9896C31.0088 68.1792 32.8984 68.3275 33.9195 68.4043C35.5099 68.5252 34.1247 68.5663 35.1703 68.6427C36.2169 68.7133 37.3582 68.6126 39.2278 68.7727C38.2179 68.831 39.5806 69.0243 39.3132 69.1193C39.0458 69.2184 37.0288 69.1042 38.9564 69.3561C42.67 69.4627 38.6609 68.8343 41.1456 68.8812C44.0952 68.901 44.8836 69.5493 43.9999 69.7068C43.3021 69.8304 40.8478 69.7346 40.1255 69.806C44.5441 70.2032 44.5482 69.6961 45.2811 69.6263C47.9218 69.2613 46.2689 70.1443 49.4038 69.6584C49.3867 69.8105 49.3757 69.9468 49.3545 70.0928C49.9069 70.0229 50.2662 69.9557 50.9255 69.8641C48.8574 69.7677 50.4837 69.6362 51.2912 69.5383C52.569 69.381 50.5391 69.4823 50.8663 69.4033C51.7473 69.2135 53.1612 69.0354 52.2459 69.0417C52.6554 69.0439 53.1065 69.0333 53.5278 69.0191C55.0128 68.7107 57.5929 67.2381 54.7594 68.1541C54.8952 67.874 55.9052 67.736 56.6236 67.525C57.3349 67.3135 57.1981 67.1881 57.7784 66.9715C59.9639 66.0046 58.9121 66.8821 58.7298 67.2339C60.756 65.9556 59.6009 66.504 60.4518 65.7434C60.6764 65.4903 61.1073 65.0898 61.37 64.3463C61.2581 64.041 60.3991 65.2419 60.751 64.1684C61.1413 64.0921 62.0831 63.2407 60.7744 61.6227C60.7185 61.5584 60.6592 61.4931 60.597 61.4276C60.3485 61.3007 60.0949 61.1841 59.8388 61.0785C59.4729 60.6012 59.4415 60.4244 59.2161 60.214C58.9854 60.0284 58.518 59.699 57.0602 59.5136C57.9004 59.4183 58.1202 59.4525 57.7717 59.325C57.4255 59.2144 56.5607 58.9933 55.2262 58.9097C55.1187 58.903 55.0084 58.8956 54.8955 58.8872C54.3062 58.8439 55.6387 58.7113 54.8167 58.6564C54.4438 58.6317 53.5584 58.7308 52.6467 58.6698C52.2023 58.6391 50.1075 58.4378 48.6944 58.5774C49.7845 58.8388 47.1188 59.1379 49.4707 59.3237C45.1913 59.3528 42.2349 59.6448 46.9426 59.0753C45.8408 59.0218 44.7379 58.9775 43.6314 58.9465C42.891 59.0516 42.1453 59.1629 41.4053 59.2823C41.2312 59.0669 41.3152 58.9544 38.3722 59.2795C39.6343 59.0923 40.904 58.9366 42.194 58.8017C42.2261 58.752 42.3959 58.6924 42.3411 58.6495C40.7586 58.8026 36.2928 59.2879 35.2734 59.5539C34.2427 59.7803 36.2962 59.4797 36.019 59.5881C33.7194 60.4608 33.763 60.0832 32.0625 60.5674C31.0873 60.8622 33.5316 60.332 33.0044 60.4843C31.0612 61.018 29.9621 61.0535 28.3767 61.746C29.0687 61.6169 29.7665 61.53 30.446 61.4759C28.7284 62.0306 27.0592 62.9275 26.1967 63.9092C25.861 64.2932 26.2821 64.0733 26.2331 64.1385C26.1187 64.2943 25.8292 64.6812 25.6298 65.0759C25.4002 65.5142 25.1799 65.9305 25.1348 66.0076C24.4652 67.1533 24.2176 67.123 23.5981 68.2426C23.8136 67.7964 24.0262 67.3783 24.2526 66.9442C23.9993 66.6488 23.7507 66.3479 23.5008 66.0497C22.8316 67.1434 22.1893 68.2494 21.6258 69.3846C22.1419 68.579 22.7003 67.7899 23.2784 67.0132C22.8611 68.3588 22.5009 69.7146 22.3033 71.0654C21.8557 71.699 21.4466 72.345 21.0995 73.016C20.8036 74.9375 21.7113 74.5784 21.0329 75.4577C21.1315 76.0218 21.3037 76.5791 21.5704 77.1146C21.4456 77.0484 21.3222 76.9809 21.2001 76.9105C21.2648 77.0618 21.3376 77.2143 21.417 77.3625C21.6907 77.8764 21.9701 78.3916 22.2632 78.9005C22.2566 78.3404 22.2799 77.7879 22.2993 77.2366C22.314 77.0622 22.3385 76.8889 22.3716 76.7185C22.4442 76.9079 22.5098 77.0662 22.5637 77.1988C22.8906 77.9915 22.7081 78.0665 22.7235 78.2385C22.7736 78.7884 23.5309 79.7625 23.5884 80.1938C23.5993 80.3451 22.7543 79.1084 22.7707 79.5822C22.7613 79.6691 22.9078 81.5435 23.8557 82.5765C23.976 82.522 24.0839 82.398 24.2014 82.3185C25.2598 83.71 25.252 84.611 24.897 84.4947C25.656 85.203 26.7318 86.2375 27.0844 86.2965C27.4686 86.6491 27.8689 86.9951 28.2846 87.3335C27.39 87.1938 29.263 88.5857 29.7633 88.4551C29.0063 87.894 28.2923 87.3091 27.6273 86.7054C28.6053 86.9035 26.9147 85.278 30.2182 88.2845C30.4202 88.4539 30.6411 88.6391 30.8833 88.8414C31.3327 89.3516 30.5422 88.7176 30.0772 88.3647C29.8115 88.1628 29.6496 88.0487 29.8544 88.2809C29.9041 88.3227 29.9544 88.3643 30.0053 88.4056C31.1698 89.3517 32.4264 90.155 33.4963 91.0902C34.8992 92.2983 32.7188 91.0855 36.7386 93.4504C29.1374 87.4724 38.1351 94.0673 42.5346 96.2906C43.1281 97.3262 46.4654 99.6365 52.2272 101.672C51.7471 101.323 49.9537 100.685 49.0295 100.199C48.109 99.7184 49.2227 100.123 48.0959 99.5106C46.9654 98.9029 44.6391 97.5658 43.6422 96.8521C44.6427 97.3521 49.6745 99.6175 46.2501 98.1987C48.5047 99.5225 49.5126 100.225 52.7444 101.496C53.9037 101.627 53.8796 101.553 57.1644 102.476C55.0065 102.253 58.7203 103.484 57.7279 103.586C55.2975 102.879 56.8428 102.922 55.5654 102.381C55.428 102.336 53.2208 101.696 52.7444 101.496C54.6688 102.538 55.437 102.861 53.8188 102.739C55.4295 103.242 56.4489 103.546 56.6845 103.429C56.9898 103.589 57.3003 103.746 57.6163 103.9C58.1697 104.03 58.6677 104.131 59.2656 104.25C58.5446 103.836 60.0611 104.321 61.235 104.358C62.3929 104.374 60.9209 104.061 64.0017 104.307C62.9743 104.186 62.0487 104.033 61.0945 103.834C63.0507 104.058 65.0313 104.11 66.9327 103.958C65.5405 103.901 62.6773 103.453 62.8019 103.234C63.6498 103.44 66.5487 103.341 66.8437 103.284C68.0388 103.195 67.4205 103.361 67.5119 103.361C68.9413 103.309 70.1154 103.092 70.961 102.989C71.2692 102.951 71.5354 102.933 71.754 102.942C73.1362 102.548 74.2425 102.36 75.7413 102.006C76.5648 101.809 76.3121 101.708 76.8101 101.618C80.0818 100.985 77.2952 102.013 82.9885 99.9561C82.2026 100.083 81.423 100.193 80.6307 100.3C81.2761 100.076 81.9062 99.8472 82.5342 99.6098C82.9841 99.4924 83.4313 99.3716 83.8759 99.2461C84.0399 99.4489 84.2022 99.6527 84.3658 99.8556C84.8572 99.7074 85.3468 99.5529 85.8265 99.3946C85.0365 99.7046 84.2246 99.9999 83.4006 100.282C83.3535 100.341 83.3111 100.399 83.2632 100.458C84.5623 100.127 85.8379 99.767 87.0886 99.3609C87.0453 99.2847 87.0011 99.2083 86.9574 99.1322C89.6726 98.1602 89.8592 98.1769 91.8009 96.754C93.081 95.9647 93.7337 95.0479 94.0905 94.3304C94.1955 94.1266 94.2908 93.9338 94.3804 93.7615C94.6585 93.5205 94.9285 93.2758 95.1924 93.0225C95.2311 92.817 95.2651 92.6121 95.2942 92.4072C95.6599 92.1021 96.018 91.7822 96.3601 91.4594C96.1714 91.1707 96.1879 91.0648 95.1847 92.3899C95.1938 91.8296 96.7117 89.4447 97.1657 88.4092C97.5469 87.6362 97.552 88.5757 97.6243 88.4855C97.8947 88.18 98.1823 86.8245 98.2571 86.5442C98.6291 85.361 98.7235 84.5059 98.8519 83.4082C98.8792 83.1949 99.0918 82.6011 99.0954 82.549C99.1364 82.1507 99.1676 81.1603 99.1524 81.046C99.1231 80.6489 99.0804 80.3072 99.0339 80.0137C98.6422 78.0227 98.3562 78.345 98.2779 78.4823C98.2136 78.5557 98.1449 78.593 97.9742 78.3326C97.772 78.0856 97.6122 77.4782 96.5267 76.644C96.5875 76.7976 96.6185 76.9401 96.6391 77.0853C96.3373 76.821 95.9706 76.5849 95.5448 76.3739C95.0531 76.0693 95.8198 76.2582 94.6593 75.881C94.6277 75.8715 94.5945 75.8617 94.5596 75.8514C94.6156 75.8335 94.6715 75.8157 94.7278 75.7981C94.8241 75.7671 94.9218 75.7372 95.0216 75.7088C94.963 75.6915 94.9037 75.6744 94.8437 75.6575C94.2798 75.4979 93.716 75.3582 93.1202 75.2285C92.3593 74.5542 88.4387 73.8242 88.7439 73.5382C88.8549 73.3766 91.8598 73.7475 90.3339 73.3445C89.0458 73.1192 89.8851 73.4044 89.358 73.3396C85.5439 73.0418 85.6808 73.0478 84.1406 73.2617C83.9406 73.3921 83.744 73.5308 83.5676 73.6715C83.4587 73.6895 83.3499 73.7089 83.2411 73.7298C82.8114 73.8115 82.3756 73.8951 81.9418 73.9795C81.8615 74.0687 81.7762 74.1594 81.696 74.2489C82.1873 74.1294 82.7388 73.9972 83.1892 73.8908C82.6952 74.2492 77.1407 75.8731 79.1417 75.0967C79.9555 74.774 81.6023 74.3916 80.388 74.388C78.886 74.8252 77.2029 75.3488 75.6983 75.8985C75.6021 75.8587 75.5089 75.8179 75.4122 75.7784C73.3808 76.5278 75.4552 76.0954 75.5541 76.2192C75.0871 76.382 74.6247 76.55 74.1703 76.7239C73.9269 76.7432 73.6895 76.7582 73.4363 76.7865C73.5017 76.8808 73.4287 77.1543 72.0544 77.6444C71.1754 77.9709 72.2504 77.1725 70.7064 77.9293C70.9737 78.0009 71.6791 77.8681 70.0529 78.7483C69.7306 78.7086 69.3531 78.7182 69.0561 78.6583C67.1922 79.9045 66.0313 80.2919 64.2742 82C63.1608 83.0921 62.2715 84.7871 60.8353 85.2056C60.1172 86.0261 60.5467 85.8471 60.3931 86.1107C59.6863 87.3649 58.71 88.1371 58.5326 88.3627C58.4583 88.4585 58.3881 88.5517 58.3213 88.6427C57.4145 89.8772 57.1278 90.5535 56.2628 91.6151C56.4637 91.5974 56.6379 91.6067 56.8269 91.6007C57.2277 90.5159 57.5605 89.9665 58.4237 88.6732C58.4885 88.5761 58.5566 88.4755 58.6283 88.3712C58.5694 88.4741 58.5109 88.5776 58.4528 88.6819C58.2193 89.1019 57.9875 89.522 57.7569 89.9417C57.9397 89.8965 58.122 89.8521 58.3022 89.81C58.4895 89.4349 58.6643 89.0965 58.8259 88.7933C60.629 85.6788 60.7485 86.3485 59.3065 88.9367C59.0952 89.3428 58.8485 89.7958 58.5675 90.289C58.1136 90.5587 57.6532 90.8417 57.2012 91.1105C56.1626 93.5109 55.1883 94.5027 53.6004 97.1004C53.4111 97.4103 52.9086 98.5822 52.6427 99.0761C52.6482 99.0682 52.6536 99.0603 52.6591 99.0524C52.7205 99.4194 53.0569 99.0356 53.2911 99.0424C53.1686 99.3145 53.047 99.5866 52.9267 99.8581C52.4442 100.407 52.4252 100.164 51.8297 101.344C52.0721 101.228 52.3136 101.114 52.5565 100.998C51.87 102.276 51.2541 103.076 50.717 104.289C50.7604 104.072 50.8015 103.86 50.8457 103.643C49.3622 106.216 49.48 103.907 48.9603 105.999C48.8166 106.107 48.674 106.21 48.5308 106.317C48.9113 105.488 49.2967 104.674 49.6951 103.852C49.5887 103.807 49.4835 103.76 49.3754 103.718C48.9599 104.604 48.5611 105.483 48.1673 106.375C48.4025 105.711 48.6406 105.055 48.8872 104.396C48.3203 105.394 47.7643 106.404 47.2293 107.408C48.1662 106.429 47.5547 107.841 48.1011 107.676C46.9083 109.403 45.7824 110.724 44.9591 113.636C44.8019 114.217 45.2084 113.958 44.2547 115.502C44.8647 115.207 44.3868 117.256 44.9337 117.084C45.1005 116.518 45.288 115.944 45.4599 115.394C45.08 115.981 44.6072 116.005 44.8232 115.036C45.0931 113.811 46.1017 112.135 45.5976 112.107C45.8154 111.637 46.0159 111.196 46.2308 110.745C46.2674 110.959 46.3076 111.169 46.3475 111.379C46.7129 110.041 47.1496 109.229 47.7281 108.679C47.0904 110.232 46.4876 111.804 45.941 113.371C46.053 113.144 46.1651 112.919 46.2778 112.694C46.1165 113.93 46.8669 112.782 46.0951 114.99C45.9602 114.949 45.8242 114.911 45.6886 114.87C45.7493 115.75 45.0061 117.952 45.6765 117.327C45.3212 117.971 45.1956 118.092 45.3108 118.509C44.4302 120.216 43.7361 121.301 43.3993 120.587C43.3003 121.269 43.2194 121.934 43.1494 122.616C43.3737 122.248 43.6022 121.881 43.8342 121.522C43.5377 122.67 43.2803 123.837 43.0783 124.993C42.6359 125.06 43.3796 122.741 42.883 123.373C42.7816 123.495 42.8137 124.148 42.7437 124.307C41.9887 125.994 42.8004 123.3 42.3701 123.769C41.8187 126.359 41.5076 124.214 41.5869 127.875C41.4606 127.962 41.3317 128.055 41.2074 128.135C41.1177 129.405 41.3936 129.312 41.4315 130.406C41.4612 131.087 41.0231 131.939 41.4105 132.699C41.4976 132.833 41.8904 131.575 42.201 134.223C42.5496 136.28 41.9953 135.432 42.1287 136.566C42.2417 137.712 43.8496 140.139 43.7221 140.972C43.4751 140.391 43.1531 139.651 42.9503 139C42.7192 138.754 42.4987 138.513 42.2822 138.267C42.9793 139.736 43.636 141.274 44.5662 142.161C44.6048 142.25 44.6462 142.338 44.6901 142.426C45.6157 144.295 47.3888 146.038 47.4232 145.385C46.9058 144.803 47.1953 145.513 46.6991 144.641C46.7425 144.526 46.7822 144.406 46.8261 144.291C47.8633 145.719 48.6373 146.696 47.8142 146.144C47.9752 146.367 48.1356 146.586 48.2986 146.807C48.5626 146.779 48.8239 146.745 49.0877 146.716C49.3174 146.969 49.5495 147.222 49.782 147.474C49.9603 147.777 50.1409 148.081 50.3261 148.388C49.6477 148.107 49.0719 147.446 50.6912 149.714C50.822 149.681 50.9549 149.651 51.0858 149.617C52.483 151.498 52.2087 151.654 54.3129 153.913C52.2669 152.33 52.21 151.1 51.3474 151.396C51.0184 150.934 50.692 150.466 50.3748 150.002C50.1911 149.975 50.0077 149.947 49.8265 149.923C51.8758 152.33 56.3436 155.895 57.4479 157.605C57.7036 157.763 57.9516 157.923 58.2171 158.08C59.4991 159.689 60.8862 160.008 62.2308 161.627C62.3808 161.791 61.336 161.802 63.7309 163.639C63.7495 163.552 63.8504 163.458 63.9011 163.369C64.3677 163.791 64.8376 164.208 65.3183 164.621C65.4845 164.651 65.6553 164.684 65.8218 164.713C64.9404 164.041 64.0857 163.356 63.2538 162.661C63.9938 163.214 64.7529 163.761 65.5261 164.298C64.6676 163.515 64.2536 163.187 65.0123 163.521C65.8518 164.141 66.7133 164.749 67.5928 165.344C67.7282 165.378 67.8632 165.411 67.9992 165.445C67.7141 165.074 67.4307 164.701 67.1622 164.326C69.2535 165.97 71.2941 167.26 72.9504 168.524C73.2383 168.736 71.9119 168.216 74.2976 169.347C74.2509 169.43 74.2453 169.516 74.2099 169.597C77.253 170.895 78.1171 171.402 81.1737 172.861C79.4005 171.964 80.7137 172.595 81.4087 172.812C81.4743 172.832 81.5345 172.849 81.5858 172.861C81.7376 172.896 81.6341 172.84 81.4568 172.758C81.1587 172.62 80.657 172.4 80.7863 172.408C80.8743 172.414 81.2919 172.514 81.6212 172.572C82.0037 172.639 82.2662 172.655 81.7573 172.418C81.6798 172.382 81.5844 172.34 81.469 172.29C77.3064 171.135 76.7908 170.191 72.245 167.909C72.9695 168.25 73.7061 168.583 74.4454 168.902C74.1707 168.695 73.9275 168.507 73.6356 168.28C75.9656 169.701 74.8545 168.997 75.9399 169.474C77.0329 169.949 78.9936 170.81 80.3347 171.355C80.7564 171.527 80.221 171.437 81.1616 171.843C81.3524 171.924 81.6551 172.032 81.9943 172.15C82.8034 172.433 83.8234 172.777 84.0179 173.01C84.2063 173.228 80.9774 172.421 85.081 173.962C85.768 174.359 83.8199 173.596 83.7665 173.589C83.296 173.588 85.7516 174.638 87.0293 174.943C87.1315 174.967 86.2752 174.536 87.3243 174.849C89.8223 175.584 91.1613 176.14 92.6801 176.787C92.982 176.639 95.2073 177.024 97.8339 177.739C97.9987 177.713 98.157 177.685 98.3213 177.658C97.8925 177.592 97.4652 177.522 97.0388 177.45C96.6078 177.302 96.1469 177.153 95.7362 176.996C98.4149 177.633 98.9313 177.417 100.252 177.599C104.772 178.142 101.843 178.361 100.976 178.327C100.418 178.154 99.8879 177.975 99.3444 177.792C99.3754 177.878 99.4074 177.964 99.4337 178.05C106.109 179.424 100.252 178.756 103.647 179.544C104.664 179.339 107.175 179.744 110.431 180.311C110.796 180.346 111.163 180.381 111.527 180.411C111.593 180.362 111.601 180.279 111.704 180.252C115.653 180.507 116.38 181.032 116.764 181.113C118.476 181.405 119.768 181.057 120.255 181.049C122.342 181.005 122.973 181.128 124.937 180.945C127.028 180.725 125.553 180.715 126.163 180.565C126.658 180.447 128.289 180.276 128.928 180.112C128.689 180.21 128.414 180.309 128.168 180.406C129.663 180.314 130.964 180.209 132.419 180.028C133.077 179.946 133.803 179.815 134.559 179.643C136.838 178.542 139.492 178.538 138.122 178.22C136.028 178.864 134.794 179.089 133.508 179.184C134.924 178.852 136.27 178.434 137.579 177.976C138.02 177.917 138.384 177.878 138.881 177.792C139.751 177.307 142.001 176.492 142.802 176.074C146.498 174.113 145.002 174.477 148.827 173.056C146.478 174.388 146.703 174.57 144.145 175.73C144.86 175.609 146.093 174.972 145.46 175.522C147.843 174.301 146.869 174.542 147.636 173.949C148.308 173.429 149.807 172.571 149.545 172.483C149.804 172.464 150.016 172.467 150.27 172.449C151.713 171.607 153.119 170.716 154.441 169.805C153.984 170.267 153.523 170.718 153.033 171.173C153.525 170.911 154.012 170.645 154.488 170.378C157.587 167.973 163.01 163.88 161.244 164.117C162.481 162.863 162.747 162.742 163.586 162.126C163.578 162.017 163.581 161.915 163.563 161.802C164.398 160.991 164.63 160.232 165.3 159.493C165.958 158.76 166.379 158.657 165.973 158.384C166.471 157.926 166.925 157.461 167.381 156.989C167.463 156.647 167.541 156.302 167.607 155.964C167.949 155.498 168.279 155.022 168.595 154.54C168.505 154.221 169.526 152.28 169.657 151.365C170.214 150.574 171.108 150.765 171.486 148.698C171.261 148.72 171.037 148.739 170.812 148.761C170.971 148.309 171.117 147.853 171.25 147.388C171.325 147.368 171.399 147.352 171.474 147.333C171.408 147.57 171.339 147.803 171.266 148.037C171.428 147.847 171.586 147.658 171.743 147.467C171.706 146.721 171.634 145.998 171.532 145.257C171.301 146.219 171.013 147.166 170.67 148.1C170.775 146.884 171.052 146.068 170.978 144.996C171.35 144.102 171.492 144.449 171.784 144.851C171.786 144.503 171.78 144.159 171.767 143.812C172.066 144.061 172.339 143.482 172.129 145.511C172.236 145.379 172.337 145.244 172.445 145.115C172.461 144.776 172.555 144.569 172.54 144.201C172.498 143.197 171.911 142.395 171.716 142.462C171.617 142.491 171.807 143.485 171.657 143.436C171.297 143.315 171.52 141.11 171.062 144.285C170.889 143.224 171.068 142.977 171.102 141.823C170.986 141.911 170.871 141.996 170.754 142.079C170.794 141.544 170.817 141.003 170.822 140.455C170.969 140.621 171.079 140.561 171.168 140.401C171.471 139.849 171.52 138.136 172.127 140.406C172.16 140.534 172.194 140.675 172.228 140.829C172.221 140.688 172.212 140.547 172.202 140.406C172.136 139.442 172.06 138.54 171.961 137.58C172.052 137.803 172.143 138.027 172.232 138.252C172.257 138.731 172.278 139.213 172.296 139.702C172.351 139.124 172.402 138.566 172.445 137.985C172.13 136.615 171.83 136.114 171.463 135.487C171.508 137.076 171.696 136.535 171.913 137.771C171.737 137.73 171.587 137.788 171.394 137.682C171.674 137.044 171.105 134.981 171 134.511C170.691 133.061 171.241 134.188 171.068 133.211C170.894 132.246 170.438 131.09 170.596 130.292C170.408 130.316 170.224 130.389 170.063 130.455C169.641 128.94 169.931 129.233 169.924 129.074C169.755 126.545 168.953 125.218 167.902 122.394C167.973 122.758 168.051 123.137 168.118 123.499C166.96 121.403 167.621 122.834 168.093 124.696C167.565 122.952 166.858 122.007 166.286 120.797C165.725 119.598 165.01 117.495 164.8 116.723C165.793 118.423 166.428 120.321 167.195 122.257C167.307 122.015 167.39 121.783 167.516 121.532C166.665 120.387 166.656 119.682 166.549 119.282C166.233 118.122 165.901 118.205 165.971 117.465C165.857 117.511 165.76 117.546 165.654 117.59C164.691 115.238 163.672 112.687 162.441 111.256C162.67 111.066 162.905 110.912 163.129 110.701C162.4 109.756 162.19 108.874 161.701 108.057C161.212 107.243 161.138 107.601 160.531 106.652C160.419 106.477 160.369 106.074 160.024 105.657C159.674 105.234 157.966 103.751 158.586 103.42C158.145 102.59 157.753 101.802 157.337 100.99C157.795 101.772 158.257 102.555 158.72 103.335C158.533 102.626 158.355 101.933 158.171 101.222C157.969 101.165 157.764 101.109 157.565 101.055C156.411 99.2678 155.986 97.9147 155 96.0812C154.837 95.7757 154.885 96.5565 154.287 95.1754C153.698 93.7969 153.783 92.6918 152.498 90.3912C152.436 90.2803 151.663 89.6322 151.618 88.7626C151.606 88.5632 152.059 89.346 151.962 88.8982C151.86 88.4512 151.112 86.4787 151.277 86.2978C151.206 86.329 151.175 86.462 151.119 86.5317C150.944 86.2022 150.767 85.8665 150.592 85.5275C150.628 85.5133 150.665 85.4988 150.701 85.4843C150.791 85.4489 150.88 85.4128 150.97 85.3779C149.83 83.4781 148.844 82.5454 147.395 79.7301C147.673 80.5679 147.903 81.3654 148.128 82.2057C148.381 82.3985 148.633 82.5917 148.88 82.7816C149.292 83.6836 149.698 84.6599 150.021 85.5698C150.163 85.9678 150.307 86.3619 150.45 86.7521C150.701 86.9473 150.949 87.1371 151.2 87.3291C151.325 87.6779 151.455 88.0343 151.583 88.3844C151.43 88.3133 151.276 88.2411 151.121 88.1659C151.447 88.8561 151.774 89.5321 152.113 90.2206C150.791 88.9189 150.492 86.3077 149.995 86.5641C149.956 86.2408 149.918 85.9149 149.882 85.5873C149.882 85.5873 149.882 85.5872 149.882 85.5871C149.546 85.4875 149.393 84.8667 148.907 83.7381C148.893 84.0164 148.888 84.3178 148.852 84.5692C148.573 83.4502 147.579 81.5749 147.017 80.4816C146.771 79.9954 147.245 80.435 147.185 80.2875C146.878 79.5161 145.683 78.2189 145.517 77.9202C144.56 76.159 144.412 74.8788 142.636 73.1322C143.937 75.0777 143.215 74.0228 143.475 74.7633C143.556 74.9927 145.148 77.5217 143.028 74.3947C142.835 74.0167 138.939 68.3386 140.685 70.0672C139.872 69.2015 139.183 68.5349 138.402 67.7553C137.588 65.4985 137.366 66.441 137.415 67.1548C137.141 66.8303 136.877 66.5233 136.593 66.1896C137.663 66.7514 134.582 63.1232 133.249 62.0022C132.81 61.6248 133.683 62.8032 132.773 61.893C132.399 61.4329 131.978 60.9122 131.582 60.4321C131.923 61.2105 130.59 59.9186 130.32 60.0422C129.78 59.0919 129.71 58.2504 130.441 58.6103C129.666 57.9533 128.876 57.289 128.086 56.6328C128.329 56.9818 128.578 57.3375 128.823 57.6914C126.843 55.3412 123.519 52.5611 123.656 51.8837C123.344 51.5787 123.033 51.2745 122.728 50.9782C122.536 50.9251 122.347 50.8757 122.156 50.8237C120.878 49.442 119.576 48.057 118.276 46.6907C119.567 47.85 120.037 48.1117 121.181 49.3872C120.799 48.8565 120.423 48.3332 120.031 47.7978C117.786 46.0476 117.304 45.8585 114.421 42.9993C114.282 42.8643 112.302 40.6292 112.268 40.5322C112.07 40.1637 112.72 40.5966 112.636 40.4269C112.604 40.3655 112.546 40.2716 112.498 40.1805C112.46 40.1204 112.4 40.0297 112.401 40.0034C112.401 39.9965 112.403 39.9929 112.41 39.9964C112.416 40.0098 112.408 39.9589 112.449 40.0775C112.45 40.1274 112.536 40.2974 112.211 40.5059C111.84 40.6976 111.506 40.6044 111.425 40.5873C111.312 40.5563 111.314 40.5515 111.307 40.551C111.3 40.549 111.295 40.5475 111.29 40.5463C111.281 40.544 111.276 40.5431 111.273 40.5436C111.267 40.5445 111.272 40.5503 111.282 40.5599C111.538 40.7773 111.955 41.1615 112.278 41.4712C112.708 41.8611 112.943 42.1089 113.212 42.368C113.464 42.614 113.643 42.7918 113.611 42.7856C113.2 42.6971 112.321 42.1882 111.134 41.455C110.956 41.3437 110.803 41.2517 110.691 41.19C110.658 41.1741 110.52 41.0934 110.54 41.1127C110.567 41.1264 110.526 41.1256 110.793 41.2333C110.942 41.2761 111.136 41.3935 111.829 41.4076C112.166 41.4096 112.681 41.3266 113.055 41.1079C113.434 40.8929 113.591 40.6193 113.643 40.4396C113.732 40.0711 113.632 39.948 113.606 39.8574C113.559 39.7573 113.566 39.7776 113.559 39.7637C113.542 39.7307 113.531 39.7131 113.525 39.7024C113.5 39.6601 113.568 39.736 113.624 39.7866C113.67 39.8273 113.726 39.8791 113.793 39.9404C113.86 40.0015 113.939 40.0738 114.024 40.1517C114.086 40.2066 114.153 40.2659 114.225 40.3298C114.366 40.4555 114.539 40.6106 114.707 40.761C114.85 40.887 115.005 41.0244 115.172 41.173C115.528 41.4928 115.827 41.7574 116.173 42.0692C118.895 44.5072 121.723 47.21 122.923 48.3622C134.831 59.968 146.477 71.775 152.396 85.2711C157.564 99.094 167.369 112.374 171.424 126.876C171.506 127.16 171.604 127.026 171.644 127.147C171.891 127.905 171.877 128.67 171.938 128.947C172.071 129.547 172.18 129.205 172.288 129.646C173.171 133.314 173.645 136.803 173.975 140.415C174.056 141.317 174.096 142.195 174.095 143.105C174.093 143.409 173.944 143.092 173.959 143.626C173.969 143.904 174.167 144.762 174.106 145.392C173.897 147.544 173.432 149.346 172.677 151.541C172.266 152.75 171.47 154.515 170.759 155.809C170.451 156.379 170.212 156.993 169.868 157.551C169.377 158.336 169.269 158.109 169.18 158.225C168.779 158.726 168.949 158.874 168.595 159.364C167.923 160.268 167.747 160.269 166.848 161.396C166.218 162.202 164.694 164.039 163.739 164.992C161.323 167.151 158.096 169.769 155.459 171.557C153.886 172.626 153.576 172.586 152.897 173.005C150.523 174.435 148.812 175.596 146.329 176.776C142.995 178.329 139.809 179.452 135.976 180.468C135.361 180.623 135.589 180.715 134.941 180.87C134.372 181.003 133.669 181.15 132.995 181.257C131.087 181.567 128.999 181.822 127.405 181.949C125.024 182.13 124.107 181.985 121.777 182.098C121.094 182.127 120.913 182.305 119.761 182.334C117.906 182.378 115.864 182.159 114.578 182.07C112.808 181.941 114.34 182.223 111.951 182.019C111.852 182.01 111.507 181.858 110.998 181.816C109.508 181.686 109.638 181.809 107.471 181.527C107.257 181.509 104.431 180.971 104.157 180.913C102.491 180.65 99.2187 179.937 98.256 179.731C94.8129 179.007 97.3869 179.832 94.7182 178.724C93.4128 178.484 92.1255 178.227 90.7606 177.919C91.6767 178.107 88.2396 176.903 87.9999 176.819C85.9507 176.204 87.0324 176.756 84.5278 175.841C87.8926 176.657 82.0481 174.88 80.2168 174.158C80.1015 174.115 80.0008 174.076 79.9174 174.043C72.8834 171.233 67.4877 167.788 62.272 163.753C60.5222 162.4 58.2288 160.563 56.6011 159.034C56.2203 158.678 56.615 158.901 56.2852 158.588C55.9568 158.275 56.2004 158.672 55.8306 158.312C53.5395 156.059 52.1016 154.186 49.9253 152.161C49.8788 152.043 49.9165 152.034 49.8158 151.846C47.997 150.197 45.6673 146.659 44.7791 145.347C43.9596 144.167 43.4401 143.508 42.9478 142.876C42.5687 142.384 42.2153 141.887 41.8476 141.201C40.6156 139.038 40.2325 135.73 39.9538 137.244C39.481 135.736 39.2165 134.296 39.14 132.782C39.1323 132.616 39.3181 132.732 39.3159 132.666C39.3056 132.245 39.1407 132.104 39.1171 131.816C39.0611 131.036 39.3047 132.308 39.2072 131.204C39.169 130.63 38.9988 130.279 39.0694 128.682C39.6486 119.009 44.1398 109.245 48.9378 100.327C49.2721 99.7135 48.8916 100.073 49.3224 99.308C50.8048 96.6455 53.8733 92.0029 55.2466 89.7451C55.806 88.8149 56.0479 88.3416 56.1897 88.0066C56.4148 87.5006 56.401 87.3138 56.9511 86.4342C57.1311 86.1514 57.0973 86.4205 57.2794 86.1731C58.5069 84.4822 60.4851 82.6444 61.9208 81.4553C62.8776 80.6624 62.6335 80.6347 63.3117 80.093C64.3406 79.2834 65.6958 78.6305 66.3341 78.2601C69.3428 76.5248 71.6409 75.442 75.0195 74.3986C74.8643 74.4123 74.7551 74.4142 74.6197 74.4228C77.1466 73.5939 79.7509 72.9347 82.2815 72.3157C84.1356 71.8579 86.1511 71.7518 88.038 71.8756C87.7926 71.8312 87.5531 71.7905 87.3007 71.7531C90.4239 71.9088 91.5945 72.3765 92.0881 72.452C92.5681 72.5556 92.329 72.4115 92.2038 72.0425C92.637 72.1112 93.0934 72.1914 93.4976 72.2729C93.2919 72.4571 94.5723 72.9278 96.4154 73.753C97.5427 74.2488 99.0581 75.044 100.048 76.1934C100.335 76.3997 101.717 77.8814 101.005 77.7947C101.322 78.1608 101.499 78.3795 101.725 78.6891C101.727 79.13 101.687 79.5457 101.628 79.9503C101.6 80.1289 101.569 80.306 101.536 80.4813C101.604 80.7856 101.663 81.0933 101.715 81.3984C101.837 81.4449 101.959 81.4113 102.083 81.5112C102.271 82.9438 101.839 85.8303 101.539 86.9174C100.96 89.6377 99.8758 92.4017 98.0941 94.2081C97.4108 95.1271 98.332 94.3401 97.2394 95.5908C97.2172 95.6152 97.1941 95.6402 97.1701 95.6659C96.9173 95.7882 96.673 95.8982 96.4048 96.0127C95.6451 97.3155 95.0876 97.4441 93.0037 98.5759C91.5596 99.3127 90.6713 99.8195 89.2139 100.398C88.8414 100.543 88.8076 100.434 88.5594 100.536C87.7377 100.887 85.3772 101.847 84.7525 102.032C80.4127 103.401 76.3967 104.292 72.2564 105.153C70.9067 105.431 69.5111 105.621 68.033 105.712C67.3291 105.751 68.2675 105.796 67.5343 105.833C66.3442 105.875 67.0158 105.696 66.3336 105.704C64.4372 105.675 64.4096 105.87 61.7614 105.605C52.9147 104.556 45.0906 100.412 38.8825 96.6539C38.6864 96.5349 38.6022 96.6085 38.3888 96.4793C36.9983 95.6348 35.7722 94.6714 34.5743 93.8772C32.59 92.5582 30.9955 91.6316 29.1224 90.2942C28.7558 90.032 28.3979 89.7736 28.0474 89.5189C24.6154 87.0223 22.2555 84.2522 20.4804 81.0871C19.8258 79.9229 19.3125 78.8138 18.8327 77.7315C17.9868 75.7807 18.1365 73.891 18.6735 71.9512C19.4879 69.1526 20.9775 66.6285 22.4271 64.1544C25.097 59.7846 32.1863 58.526 37.7425 57.8798C43.5628 57.2512 49.3378 57.198 55.005 57.1344C58.7156 57.024 62.1292 58.8442 63.6511 60.5286C65.815 62.5164 65.4024 65.5788 63.3425 67.1519C62.7843 67.6423 62.1431 68.0808 61.4503 68.4656C60.9624 68.7305 61.0723 68.5543 60.9275 68.6367C59.5223 69.3808 59.4269 69.4897 58.696 69.4911C56.7545 70.1927 56.1966 70.5268 53.64 70.9535C52.2808 71.1425 53.183 70.7606 50.9483 71.1523C48.9228 71.4204 51.2266 71.568 45.0254 71.5648C44.8631 71.5606 44.0451 71.402 42.7775 71.4181C41.5057 71.4221 42.9834 71.6107 39.9076 71.5083C37.0702 71.3928 33.9577 71.1031 30.7537 70.659C24.7453 69.8995 19.9903 66.7114 17.1438 63.8247C16.7586 63.5367 14.0874 60.5751 13.6574 59.9825C12.7144 58.8512 12.6985 59.1365 11.6621 57.631C11.353 57.1743 11.1081 56.7402 10.8742 56.302L10.763 56.0913C10.478 55.327 10.2531 54.5344 10.0211 53.541C9.99217 53.3497 9.6385 53.0407 9.63404 51.7678ZM49.1998 146.541C49.606 146.751 50.6783 147.023 51.765 148.675C51.8693 148.832 50.7117 148.169 51.36 149.072C50.5958 148.229 49.9015 147.39 49.1991 146.541C49.1993 146.541 49.1996 146.541 49.1998 146.541ZM16.6315 44.4906C16.779 45.9642 16.178 47.497 15.5148 48.6908C15.8325 47.8292 16.1865 46.8385 16.2016 45.8369C16.3963 45.4006 16.5377 44.9485 16.6315 44.4906ZM97.6634 87.2509C97.663 87.2521 97.6627 87.2532 97.6623 87.2544C97.9391 85.9331 98.0515 84.5945 97.9985 83.2584C98.0697 83.403 98.1395 83.5477 98.2069 83.694C98.2595 84.7568 98.2077 85.8236 98.0534 86.88C97.9251 87.0042 97.7947 87.1291 97.6634 87.2509ZM91.6626 96.7669C90.6436 97.2913 90.7647 97.0716 90.1245 97.2878C90.1247 97.2879 90.1249 97.288 90.1251 97.2882C89.9563 97.3464 89.2473 97.6717 88.9679 97.7942C89.1272 97.7988 89.3177 97.787 89.4869 97.7846C87.1604 99.1084 81.5507 100.454 87.8825 97.7641C87.8629 97.8704 87.8455 97.9749 87.8225 98.0817C90.9934 96.7662 93.8051 94.7675 91.6626 96.7669ZM67.6987 164.212C70.3649 165.706 71.1652 166.186 74.1411 168.128C73.6202 167.928 73.1047 167.724 72.5885 167.513C72.1463 167.154 71.7183 166.794 71.2935 166.427C71.2921 166.426 71.2907 166.425 71.2893 166.425C71.1084 166.416 70.9266 166.406 70.749 166.399C69.6998 165.689 68.6821 164.958 67.6987 164.212ZM41.1118 59.8491C42.1867 60.2993 41.8203 59.9916 39.2276 60.3454C38.3412 60.4754 39.2481 60.4752 38.6951 60.5475C35.7331 60.9659 35.3794 60.7294 35.9486 60.4404C37.6327 60.1745 39.3887 59.9877 41.1061 59.8495C41.108 59.8494 41.1099 59.8493 41.1118 59.8491ZM16.8117 58.9237C16.8108 58.9226 16.81 58.9214 16.8092 58.9202C16.9483 58.8257 17.5472 59.5714 17.0907 58.6712C17.5578 59.3237 18.0471 59.9686 18.5709 60.6042C18.4016 60.4231 18.2314 60.2354 18.0671 60.0521C18.1392 60.2355 18.2142 60.4205 18.2917 60.6039C18.674 60.768 18.7245 61.014 19.2474 61.6899C19.2883 61.4399 19.3345 61.1907 19.3869 60.9446C19.9746 61.7192 20.6151 62.4789 21.323 63.2055C21.2842 63.2349 21.2456 63.2646 21.2069 63.2942C21.5585 63.5327 21.9161 63.7624 22.2818 63.9852C22.3105 64.0809 22.3378 64.1739 22.369 64.2695C22.7902 64.5508 23.2258 64.8218 23.6717 65.0758C23.6841 65.2303 22.6879 64.6665 24.3787 65.71C23.7406 65.4755 23.1133 65.2121 22.4928 64.9208C20.1265 63.1438 18.3457 61.0573 16.8117 58.9237ZM23.9695 68.2107C25.2262 65.8726 24.9999 66.5661 25.0545 67.2027C24.6886 67.5353 24.3252 67.873 23.9695 68.2107ZM55.2075 95.4636C55.0621 96.2102 54.918 96.9582 54.7646 97.7195C54.1183 99.1329 52.892 100.402 53.2898 99.309C53.7741 97.9922 54.7659 96.753 55.2075 95.4636ZM42.5431 128.016C42.8407 126.206 42.9851 127.952 43.148 128.363C42.8156 128.844 42.7927 129.539 42.763 130.669C42.73 129.61 42.4948 128.31 42.5423 128.016C42.5426 128.016 42.5429 128.016 42.5431 128.016ZM82.6804 74.7676C83.0392 74.676 83.4013 74.5787 83.7538 74.4853C84.3483 74.3262 84.9723 74.2238 85.5767 74.2108C85.3387 74.3729 83.589 74.5239 84.9114 74.5563C84.5769 74.6086 84.2518 74.6746 83.9367 74.7549C83.6446 74.829 83.3514 74.9036 83.061 74.9781C83.4152 74.7786 82.8026 74.8475 82.6835 74.7674C82.6825 74.7675 82.6815 74.7675 82.6804 74.7676ZM33.8921 90.0478C35.2491 91.2699 35.6463 91.4256 37.4092 92.4106C37.4662 92.6714 35.243 91.5644 33.9901 90.7723C33.9584 90.5321 33.9268 90.2912 33.8921 90.0478ZM144.09 77.0886C144.605 77.3393 146.196 79.7543 146.778 80.9949C146.653 80.8596 146.526 80.7238 146.398 80.5884C145.669 79.3994 144.906 78.25 144.09 77.0886ZM42.7508 131.202C42.7549 131.016 42.759 130.838 42.763 130.669C42.7678 130.857 42.7656 131.037 42.7508 131.202ZM123.554 180.684C122.655 180.917 125.475 180.862 122.047 180.928C122.047 180.928 122.047 180.928 122.048 180.929C119.777 180.939 119.276 180.924 117.173 180.869C117.927 180.642 122.123 180.613 116.308 180.459C116.231 180.455 116.389 180.611 115.453 180.551C115.165 180.532 114.243 180.374 112.855 180.236C112.401 180.192 109.029 179.883 113.635 180.24C113.507 180.06 113.763 179.903 113.76 179.737C115.53 179.799 116.908 180.185 118.801 180.19C121.612 180.184 122.947 179.749 123.576 180.172C121.263 180.431 117.166 180.391 116.632 180.089C114.353 180.005 113.682 180.169 115.535 180.373C123.463 180.372 117.779 180.87 124.682 180.431C124.749 180.364 125.014 180.279 124.955 180.224C127.107 180.29 123.881 180.612 123.554 180.684ZM106.935 179.439C108.323 179.503 109.692 179.533 111.057 179.531C111.03 179.738 110.263 179.879 108.086 179.727C107.705 179.634 107.314 179.537 106.935 179.439ZM170.044 133.187C169.841 133.065 169.612 132.732 169.392 132.495C169.557 132.209 168.087 125.857 169.062 129.074C169.219 129.54 169.554 132.442 170.044 133.187ZM24.6933 81.9101C25.0435 82.6282 25.4438 83.3372 25.9009 84.0343C24.9675 83.0335 24.1511 81.9829 23.4374 80.9034C23.8475 81.2492 24.2648 81.5831 24.6933 81.9101ZM48.7972 106.727C48.948 106.43 48.705 107.478 49.2375 106.294C48.9611 107.207 48.7036 108.053 48.4526 108.946C48.2226 109.177 47.9931 109.41 47.7657 109.641C47.7478 109.859 47.728 110.081 47.7119 110.299C47.6007 110.141 47.488 109.997 47.3779 109.832C48.3782 108.466 48.1398 108.036 48.7972 106.727ZM88.0045 73.3646C88.3952 73.6086 85.026 73.6231 88.3469 73.8097C87.7083 73.927 86.698 73.8876 84.9152 74.1185C84.6049 74.0976 84.2919 74.0874 83.974 74.0886C84.0005 74.1746 83.8975 74.2547 83.6728 74.3661C83.4558 74.47 83.1221 74.598 82.6804 74.7676C82.6794 74.7676 82.6784 74.7677 82.6774 74.7677C79.9498 75.4691 80.0978 75.3916 79.263 75.3221C81.8633 74.7599 82.1427 74.5248 83.4531 74.0423C83.6322 73.9768 83.8337 73.9113 84.0724 73.8478C85.4242 73.4606 87.4188 73.5421 88.0045 73.3646ZM171.025 140.005C170.555 138.532 170.43 139.865 170.436 137.263C170.537 137.429 170.638 137.597 170.738 137.765C170.847 138.527 170.939 139.244 171.025 140.005ZM97.1644 77.1036C97.3487 76.9545 97.2432 76.5573 96.8636 76.2494C96.4929 75.9396 95.9037 75.7568 95.5192 75.9402C96.2401 76.3514 96.4142 76.4347 96.5983 76.5005C96.7614 76.5695 96.9294 76.633 97.1644 77.1036ZM41.703 127.32C42.0311 124.759 42.6468 125.322 42.8161 126.392C42.6779 126.541 42.5406 126.689 42.4056 126.835C42.4068 127.288 42.4168 127.741 42.4358 128.187C42.1881 127.902 41.9434 127.613 41.703 127.32ZM58.7789 103.192C61.7768 103.567 55.7414 102.335 57.8196 102.644C59.4409 102.928 61.5039 103.504 60.6467 103.538C60.0725 103.449 59.4385 103.333 58.7844 103.193C58.7826 103.193 58.7807 103.193 58.7789 103.192ZM75.6238 102.355C74.9903 102.193 75.7103 102.125 73.5172 102.67C73.2408 102.738 72.0889 102.972 71.0774 103.184C69.8312 103.444 68.765 103.593 70.0239 103.545C70.4007 103.483 70.7817 103.412 71.1657 103.331C72.6345 103.022 74.1456 102.696 75.6238 102.355ZM56.6038 155.44C56.4552 155.53 53.817 153.271 53.6379 152.923C53.6376 152.923 53.6374 152.923 53.6372 152.923C53.1123 152.004 55.4899 154.527 54.8032 153.309C56.7848 155.84 58.2496 156.256 57.1643 156.455C55.7083 155.065 56.5712 155.657 56.6038 155.44ZM118.155 46.7661C118.154 46.7649 118.153 46.7638 118.152 46.7627C118.337 46.9497 119.402 48.2935 119.172 48.1806C117.661 46.6267 118.059 46.8039 116.313 45.4734C116.308 45.3597 116.313 45.2592 116.303 45.1406C116.974 45.7153 117.369 45.9617 118.155 46.7661ZM168.745 126.272C168.995 126.933 169.128 128.155 169.33 128.905C167.942 126.56 167.729 123.658 168.745 126.272ZM48.3023 69.2675C48.3051 69.2671 48.3079 69.2668 48.3107 69.2664C48.31 69.2667 48.3089 69.2671 48.3081 69.2674C48.3061 69.2674 48.3042 69.2675 48.3023 69.2675ZM149.272 172.508C149.405 172.478 149.49 172.469 149.537 172.477C149.54 172.479 149.542 172.481 149.545 172.483C149.459 172.489 149.37 172.497 149.272 172.508ZM61.7762 160.199C62.6498 161.237 58.7033 158.261 57.7325 157.158C57.9081 157.191 58.0099 157.165 58.3015 157.288C58.9138 158.245 61.6215 160.035 61.7762 160.199ZM66.4852 80.9467C63.5831 83.1104 66.5452 79.7947 67.4093 80.111C67.4056 80.1218 66.5558 80.8873 66.4852 80.9467ZM43.8338 139.161C43.2285 138.462 43.6987 139.971 42.8632 137.561C42.8968 137.413 42.9313 137.261 42.9698 137.116C43.217 137.81 43.4996 138.482 43.8338 139.161ZM52.3346 97.4939C50.5277 100.995 49.1231 104.43 51.1395 102.365C51.2529 102.093 51.3675 101.823 51.4818 101.553C51.0975 101.409 51.838 100.49 52.638 99.0828C52.5895 98.8378 52.9948 98.0422 52.942 97.8596C52.8403 97.5037 52.1456 98.3524 52.3346 97.4939ZM53.9816 58.814C53.894 58.862 53.8086 58.9103 53.721 58.9578C52.8087 59.0196 51.8949 59.0827 50.9844 59.1493C51.1199 59.0566 51.2562 58.9641 51.3924 58.8716C52.2542 58.8502 53.1133 58.8314 53.9757 58.8138C53.9776 58.8139 53.9796 58.814 53.9816 58.814ZM101.19 179.043C101.896 178.641 100.062 178.429 96.3564 177.772C97.9406 178.231 99.5576 178.657 101.19 179.043ZM96.6154 93.3702C96.3563 93.3706 96.0991 93.3684 95.8387 93.3684C95.1875 94.557 95.5559 94.4457 96.2699 94.0019C96.3919 93.7904 96.5036 93.5841 96.6154 93.3702ZM74.0384 103.485C74.8243 103.343 74.3618 103.317 74.4436 103.302C76.4168 102.922 76.7305 102.917 79.0225 102.245C79.2901 102.143 79.5485 102.04 79.8137 101.935C78.5326 101.926 77.862 102.289 75.4402 102.653C75.9206 102.657 76.4009 102.66 76.8828 102.662C75.5849 102.946 74.2849 103.215 72.9751 103.475C72.8402 103.539 72.7048 103.603 72.5697 103.667C73.0557 103.608 73.5599 103.549 74.0384 103.485ZM62.1668 62.6513C62.5144 63.514 62.3485 64.4224 61.7887 65.1847C61.8772 65.2478 61.9654 65.312 62.0515 65.3771C62.5813 64.5197 62.6436 63.5283 62.1668 62.6513ZM128.928 180.112C129.022 180.073 129.114 180.035 129.194 179.997C129.198 180.031 129.094 180.07 128.928 180.112ZM116.612 44.5687C115.781 43.6857 114.461 42.4992 113.489 41.5485C113.332 41.7346 115.89 44.068 116.606 44.9504C116.791 45.0675 116.954 44.933 116.612 44.5687ZM42.2568 123.788C42.1593 123.52 42.0626 123.262 41.9679 123.001C42.109 122.413 42.2662 121.813 42.4299 121.229C42.3151 121.194 42.1992 121.159 42.0844 121.124C41.6081 123.773 41.4296 123.114 40.8338 124.394C41.3062 124.188 41.7798 123.989 42.2568 123.788ZM25.5075 67.7714C28.2894 68.8622 29.4597 68.8698 27.9491 68.2435C26.9284 67.992 25.9328 67.6595 24.9944 67.2681C25.1579 67.4379 25.3309 67.6067 25.5075 67.7714ZM167.061 158.103C167.897 156.619 168.372 156.715 168.925 155.187C168.419 155.95 167.873 156.7 167.297 157.432C167.222 157.654 167.143 157.879 167.061 158.103ZM65.4572 165.32C66.0933 165.928 68.0351 166.574 69.903 168.234C70.5627 168.485 71.0163 168.612 71.6016 168.808C71.7565 169.057 71.9503 169.328 72.1026 169.569C72.1042 169.57 72.1058 169.571 72.1073 169.572C74.3131 170.741 73.0522 169.848 73.2252 169.781C73.2927 169.757 74.8353 170.686 74.4352 170.329C73.7185 169.735 70.4766 167.997 70.7367 167.81C71.7146 168.528 73.9697 169.691 73.4801 169.211C72.9422 168.695 70.6409 167.741 69.5803 166.847C70.9285 168.24 67.419 165.827 67.3861 165.341C65.124 164.061 66.8204 165.46 69.008 166.865C67.4386 166.155 69.5184 167.347 69.6561 167.679C68.0779 166.914 63.7184 163.625 65.4572 165.32ZM61.6728 83.3382C60.6019 84.4051 58.9938 86.1079 58.7203 86.9965C58.5481 87.5031 59.9758 85.7625 59.3255 87.0743C60.1103 85.9576 60.2412 85.6865 59.8697 85.7926C60.046 85.5302 60.2285 85.2701 60.4111 85.0182C60.551 84.9193 60.6943 84.8176 60.8352 84.7213C60.8618 84.5586 60.8911 84.3963 60.9178 84.2382C61.1719 83.9867 61.4377 83.7328 61.7007 83.4922C61.6866 83.4449 61.7014 83.3768 61.6728 83.3382ZM163.711 112.572C163.886 112.918 164.057 113.261 164.229 113.607C164.266 113.56 164.302 113.505 164.338 113.452C164.368 113.413 164.398 113.374 164.428 113.335C164.367 113.563 164.89 115.26 165.377 115.93C165.623 116.27 165.574 115.42 166.299 116.909C165.801 115.825 165.293 114.831 164.763 113.79C164.9 113.869 165.036 113.944 165.173 114.023C165.173 114.023 165.172 114.022 165.172 114.022C165.026 113.671 164.877 113.315 164.727 112.964C164.388 112.832 164.051 112.703 163.711 112.572ZM97.6814 92.553C98.217 91.3712 98.2875 90.9628 97.7134 91.422C97.7126 91.4231 97.7118 91.4243 97.711 91.4254C97.6023 91.8794 97.4714 92.3353 97.3197 92.7881C97.4404 92.7111 97.5603 92.6341 97.6814 92.553ZM143.949 176.643C146.467 174.609 139.591 178.139 141.18 177.751C141.267 177.744 143.563 176.724 143.949 176.643ZM41.3029 127.764C41.3551 127.052 41.4301 126.347 41.5249 125.636C41.3591 125.785 41.1943 125.938 41.0306 126.087C41.109 126.642 41.199 127.208 41.3029 127.764ZM38.4546 70.4019C39.6169 70.6968 42.6876 70.9013 44.1584 70.6707C43.3736 70.6409 42.5923 70.5997 41.8128 70.5484C43.2842 70.5701 44.7381 70.5538 46.2147 70.4955C46.2462 70.204 44.5718 70.4334 42.0113 70.2779C41.6063 70.2615 39.1032 69.7908 38.2241 69.9872C38.0442 70.0354 40.73 70.2345 38.8544 70.2813C39.6724 70.3454 40.38 70.379 41.1564 70.4169C41.2133 70.4871 41.2699 70.5574 41.3329 70.6278C40.369 70.5669 39.4109 70.4909 38.4546 70.4019ZM56.697 89.9748C55.6828 91.5686 55.7326 91.8164 55.8213 92.234C56.2401 91.4806 56.6674 90.7234 57.0953 89.9722C56.9618 89.9747 56.8312 89.9725 56.697 89.9748ZM62.1265 66.6941C62.163 66.6647 62.197 66.6364 62.2288 66.6092C63.0633 65.8371 62.4924 66.0931 62.7618 65.7135C63.684 64.1986 63.7569 62.785 62.3759 61.3045C62.5055 61.3891 62.6224 61.4697 62.7415 61.5577C62.7404 61.5563 62.7394 61.5549 62.7383 61.5536C62.6037 61.3704 62.4584 61.1994 62.3073 61.0397C61.044 59.6963 59.5771 59.0215 58.7065 58.7332C57.816 58.4458 57.5294 58.4447 57.7595 58.5207C58.2126 58.6501 60.5967 59.5064 62.0635 61.1324C62.4718 61.5542 62.819 62.0332 63.0396 62.546C62.9927 62.6664 62.9363 62.779 62.8749 62.8917C63.5635 64.6321 62.1669 66.0981 62.0592 66.5266C62.0338 66.6174 62.0517 66.6754 62.1265 66.6941ZM109.591 180.801C109.71 180.85 108.617 180.983 110.611 181.075C112.219 180.872 109.633 180.805 109.023 180.588C109.56 180.616 110.102 180.641 110.633 180.66C107.487 180.23 107.022 180.209 108.116 180.621C108.194 180.651 109.476 180.752 109.591 180.801ZM130.498 180.797C130.712 180.246 126.906 180.913 127.089 181.042C127.634 180.999 128.027 180.87 128.619 180.847C129.215 180.821 129.403 180.929 130.498 180.797ZM42.4525 139.89C42.4765 139.96 42.5476 140.783 42.7622 140.66C42.8259 139.627 41.7404 137.807 41.6527 138.154C41.8923 138.778 42.1581 139.196 42.4517 139.89C42.452 139.89 42.4522 139.89 42.4525 139.89ZM20.9915 65.7372C20.9711 65.791 23.1553 67.3449 23.6102 67.4326C23.9642 67.5062 24.1897 67.4988 24.4765 67.525C22.9303 66.9311 20.6794 65.1546 20.9957 65.7403C20.9943 65.7393 20.9929 65.7382 20.9915 65.7372Z" fill="#E9719A"/>
</g>
</svg>
