<svg width="443" height="373" viewBox="0 0 443 373" fill="none" xmlns="http://www.w3.org/2000/svg">
<path d="M225.01 42.1527C207.555 29.2912 189.028 46.6793 179.15 54.9973C166.747 63.7492 160.552 65.218 151.531 63.5265C82.4617 54.5052 90.9191 87.2072 97.967 112.58C119.11 163.606 91.201 184.749 76.8235 210.122C12.2652 270.169 62.0308 301.737 84.2488 303.97C148.258 305.338 129.823 308.51 160.703 318.673C215.338 345.378 249.091 331.987 273.983 325.398C318.278 312.463 320.932 318.673 346.657 318.673C364.733 323.579 380.717 321.499 390.291 311.372C399.864 301.245 401.534 274.627 390.291 262.585C385.476 257.429 383.117 254.434 379.352 249.906C344.684 208.203 352.718 191.588 370.177 171.919C385.661 154.475 374.015 139.824 366.257 134.679C363.317 132.719 330.487 119.734 316.495 97.2732C297.738 41.3872 284.325 45.9409 269.95 45.9409C262.247 45.9409 246.828 58.2295 225.01 42.1527Z" fill="black"/>
<path d="M225.856 7.27698C204.172 -8.70056 181.156 12.9003 168.886 23.2336C153.478 34.1059 145.781 35.9305 134.574 33.8292C48.7712 22.6223 59.2777 63.2473 68.0331 94.7668C94.2991 158.156 59.6279 184.422 41.767 215.941C-38.4324 290.538 23.3903 329.754 50.9913 332.528C130.508 334.226 107.608 338.167 145.969 350.792C213.84 383.967 255.771 367.332 286.695 359.147C341.721 343.078 345.018 350.792 376.975 350.792C399.431 356.887 419.288 354.303 431.181 341.722C443.074 329.142 445.148 296.074 431.181 281.115C425.2 274.71 422.269 270.99 417.592 265.364C374.525 213.558 384.505 192.917 406.194 168.483C425.429 146.813 410.962 128.612 401.324 122.221C397.672 119.786 356.888 103.655 339.505 75.7521C316.205 6.32598 299.542 11.983 281.684 11.983C272.114 11.983 252.961 27.2489 225.856 7.27698Z" stroke="black" stroke-width="3"/>
</svg>
