<svg width="500" height="400" viewBox="0 0 500 400" fill="none" xmlns="http://www.w3.org/2000/svg">
<path d="M498.184 370.729V332.97C498.184 332.97 497.405 175.271 499.74 160.614C501.037 153.285 497.146 47.8238 495.33 26.9239L476.151 6.51426C460.844 5.69998 371.18 0 363.397 0C314.104 0 256.51 5.69998 220.708 3.52856C184.906 1.35714 159.484 6.51414 118.493 6.51414C111.229 6.51414 41.7586 2.9857 22.5605 3.52856L4.15094 29.5856L4.15094 123.699L0 264.299C0 264.299 4.15094 337.91 4.15094 371.567L19.4357 395.657H159.741L267.147 400H470.554" fill="#FFE2D2"/>
</svg>
