<svg width="200" height="200" viewBox="0 0 200 200" fill="none" xmlns="http://www.w3.org/2000/svg">
<mask id="mask0_152_235" style="mask-type:alpha" maskUnits="userSpaceOnUse" x="2" y="69" width="197" height="61">
<path d="M192.2 114.939C191.217 115.364 190.23 115.787 189.249 116.217C187.311 117.067 185.376 117.92 183.441 118.773C181.847 119.475 180.254 120.18 178.665 120.885C177.891 121.229 177.128 121.582 176.352 121.922C175.986 122.082 175.611 122.251 175.167 122.058C173.971 121.913 172.773 121.776 171.578 121.621C170.358 121.464 169.144 121.284 167.924 121.126C167.067 121.015 166.205 120.928 165.347 120.817C164.102 120.657 162.859 120.484 161.613 120.319C161.146 120.258 160.677 120.207 160.208 120.147C159.637 120.075 159.067 120 158.496 119.926C158.029 119.865 157.56 119.807 157.093 119.746C155.795 119.577 154.499 119.405 153.201 119.238C152.708 119.174 152.211 119.124 151.718 119.063C150.834 118.954 149.953 118.833 149.067 118.734C148.417 118.661 147.779 118.517 147.114 118.518C146.585 118.628 146.078 118.5 145.565 118.433C145.144 118.379 144.734 118.349 144.388 118.594C144.354 118.565 144.289 118.535 144.289 118.506C144.309 118.131 143.956 118.04 143.583 118.01C143.164 117.976 142.754 117.915 142.339 117.858C141.05 117.681 139.759 117.498 138.463 117.36C137.815 117.292 137.179 117.139 136.514 117.164C135.565 117.258 134.668 117.045 133.764 116.884C133.441 116.742 133.09 116.674 132.723 116.627C131.454 116.469 130.189 116.294 128.924 116.127C128.692 116.097 128.455 116.044 128.247 116.184C127.605 116.146 126.941 116.212 126.358 115.924C125.789 115.709 124.799 115.581 124.264 115.651C122.722 115.527 121.174 115.437 119.708 115.004C119.531 114.962 119.36 114.907 119.181 114.883C118.195 114.75 117.209 114.621 116.221 114.5C115.337 114.392 114.449 114.298 113.565 114.186C112.734 114.082 111.905 113.959 111.077 113.848C110.584 113.782 110.091 113.72 109.595 113.66C108.4 113.511 107.202 113.367 106.007 113.214C105.487 113.147 104.973 113.061 104.454 112.992C103.442 112.859 102.429 112.725 101.415 112.602C100.531 112.493 99.6408 112.403 98.7573 112.291C97.9261 112.185 97.0997 112.058 96.2709 111.945C95.8041 111.882 95.335 111.826 94.8659 111.77C93.9801 111.665 93.0871 111.592 92.2152 111.441C91.8403 111.376 91.5376 111.428 91.2212 111.512C90.6478 111.662 90.0871 111.835 89.52 111.999C86.1944 112.958 82.8688 113.921 79.5411 114.876C75.9408 115.907 72.3386 116.932 68.7362 117.959C66.49 118.599 64.2438 119.235 61.9997 119.878C61.7316 119.956 61.4483 120.021 61.2376 120.185C60.2774 120.567 59.3109 120.934 58.2033 121C57.2869 121.253 56.3684 121.502 55.4563 121.761C53.9003 122.202 52.3442 122.645 50.7923 123.095C48.4756 123.766 46.1631 124.445 43.8485 125.116C42.5912 125.48 41.3319 125.835 40.0725 126.194C39.9757 126.223 39.8854 126.263 39.7885 126.3C39.8735 126.438 40.217 126.427 40.1058 126.65C39.2541 126.588 38.4571 126.65 37.8742 127.203C37.8036 127.121 37.7329 127.04 37.6515 126.945C37.4709 126.898 37.3267 127.013 37.1598 127.05C37.0083 127.085 36.8589 127.124 36.7117 127.167C35.1399 127.628 33.5682 128.091 31.9964 128.553C30.9413 128.863 29.884 129.172 28.8267 129.48C28.7277 129.509 28.6331 129.545 28.532 129.57C28.3431 129.617 28.2063 129.566 28.1738 129.43C28.1128 129.174 28.0672 128.917 28.0018 128.663C27.9427 128.427 27.8747 128.192 27.798 127.961C27.7419 127.798 27.6307 127.664 27.3796 127.644C27.2054 126.877 27.1016 126.091 26.334 125.49C26.3866 125.484 26.4391 125.481 26.4918 125.472C26.7572 125.426 26.8282 125.366 26.7874 125.208C26.7629 125.11 26.7143 125.017 26.6767 124.92C25.5064 121.921 24.2352 118.946 22.9772 115.967C22.5264 114.899 22.0581 113.833 21.5875 112.769C21.1926 111.876 20.7867 110.985 20.383 110.094C19.8852 109.693 19.8561 109.126 19.4991 108.676C19.6043 108.421 19.5585 108.171 19.4493 107.924C19.086 107.097 18.7226 106.271 18.3483 105.446C18.2558 105.241 18.1637 105.018 17.7899 105.013C17.6801 104.068 17.0852 103.234 16.7273 102.347C16.8061 102.22 16.8541 102.107 16.7825 101.953C16.4539 101.264 16.1517 100.566 15.8362 99.873C15.6911 99.5549 15.5328 99.2399 15.3943 98.9202C15.3187 98.7453 15.1579 98.8109 15.0134 98.8238C14.7911 97.8144 14.1715 96.8938 13.8438 95.9111C13.6944 95.4654 13.0277 95.5752 12.8481 95.2284C12.8745 95.2238 12.8987 95.2143 12.9249 95.2146C13.7386 95.1963 13.7268 95.2491 13.4387 94.6112C12.8837 93.3803 12.3068 92.1574 11.743 90.9297C11.2654 89.8903 10.7988 88.8494 10.3191 87.8115C9.63104 86.3206 8.93424 84.8313 8.24402 83.3403C7.84209 82.4724 7.44897 81.6013 7.04045 80.735C6.48028 79.5487 5.90915 78.364 5.34677 77.1793C5.15089 76.7661 4.95065 76.3529 4.76798 75.9349C4.66092 75.6885 4.46811 75.5898 4.12024 75.6014C3.67172 75.6166 3.22168 75.5954 2.77142 75.5857C2.59001 75.5815 2.39516 75.5953 2.26418 75.4627C2.5509 75.2053 2.95099 75.3284 3.30159 75.287C3.57768 75.2545 4.049 75.4299 4.05556 75.0676C4.06106 74.7631 3.89875 74.4282 3.40444 74.3153C3.08652 74.243 2.6999 74.3418 2.45075 74.0934C2.70091 73.9231 3.00525 74.0217 3.28323 74.0058C3.47147 73.9952 3.6464 73.9944 3.75192 73.8419C3.84837 73.7076 4.03041 73.677 4.22095 73.6599C5.02902 73.5918 5.83502 73.5171 6.64312 73.4474C6.75262 73.4373 6.84289 73.4038 6.91401 73.3403C7.10886 73.2057 7.30566 73.2051 7.50444 73.337C8.05959 73.3498 8.61632 73.3957 9.16087 73.2693C9.21135 73.2585 9.26607 73.2559 9.3185 73.2583C10.142 73.3047 10.9452 73.1455 11.7695 73.1439C12.5304 73.143 13.2888 73.0411 14.0486 72.9823C14.1274 72.9768 14.2064 72.963 14.285 72.9674C15.2134 73.0169 16.1245 72.8146 17.055 72.8674C17.1337 72.8719 17.2146 72.8697 17.2934 72.8625C17.6329 72.8325 17.9163 72.7571 17.9178 72.436C17.9186 72.3881 18.0025 72.3429 18.0471 72.2955C18.6446 72.87 19.3457 72.5488 20.0234 72.4376C20.1584 72.5917 20.3025 72.7212 20.5897 72.6822C20.7431 72.6612 20.9152 72.6934 21.0602 72.659C21.4993 72.556 21.9492 72.5871 22.3953 72.5868C22.9222 72.5876 23.4372 72.527 23.9379 72.405C25.1954 72.1496 26.4976 72.2043 27.78 72.1429C28.7692 72.0956 29.7677 71.8946 30.7676 72.1039C31.5547 72.1067 32.345 72.1725 33.1281 72.0346C33.3036 72.0039 33.4956 72.0281 33.6793 72.0258C34.0992 72.0217 34.5227 72.0558 34.9314 71.9491C34.9797 71.9365 35.0366 71.934 35.089 71.938C36.0654 71.9948 37.0282 71.8346 38.0011 71.8367C38.4975 71.8371 38.9928 71.7729 39.4895 71.7517C39.9862 71.7306 40.4902 71.7923 40.9799 71.6751C41.0766 71.6516 41.1902 71.6532 41.2929 71.6596C42.1905 71.7203 43.0727 71.544 43.9666 71.5649C44.1524 71.5692 44.2586 71.4995 44.3068 71.3694C45.7353 71.3316 47.1555 71.153 48.5922 71.2659C48.6677 71.3233 48.7519 71.3774 48.8684 71.3459C49.1233 71.2784 49.3876 71.292 49.6522 71.2908C50.177 71.2866 50.7056 71.3188 51.2257 71.2136C51.3991 71.178 51.5933 71.2022 51.777 71.1999C52.2756 71.1937 52.7799 71.2372 53.2696 71.1216C53.3421 71.1044 53.4273 71.1056 53.506 71.11C54.5631 71.1712 55.6035 70.9542 56.6584 71.0237C57.0537 71.0491 57.3074 70.9236 57.4954 70.6829C58.8919 70.8449 60.278 70.6129 61.6684 70.6242C62.1959 70.8385 62.7571 70.7537 63.3001 70.7134C63.587 70.6909 63.874 70.6569 64.1649 70.6544C64.7444 70.651 65.3296 70.6923 65.9003 70.5729C66.0232 70.5465 66.1628 70.565 66.2962 70.5636C66.8496 70.5565 67.4064 70.5974 67.9529 70.4843C68.1021 70.4533 68.2679 70.4738 68.4276 70.4728C68.9546 70.4669 69.4874 70.5092 70.0033 70.3923C70.0516 70.3814 70.1085 70.3806 70.1609 70.3846C71.2486 70.4513 72.3266 70.3291 73.4034 70.2731C74.3751 70.2222 75.358 70.2807 76.3185 70.1254C76.369 70.1179 76.4237 70.112 76.4762 70.1144C77.5356 70.174 78.5872 70.0581 79.6399 70.0067C80.7166 69.954 81.8047 69.9975 82.8722 69.852C82.8985 69.849 82.9248 69.8444 82.951 69.8448C83.9056 69.898 84.8464 69.7457 85.7975 69.7508C86.2457 69.7522 86.6976 69.7883 87.137 69.677C87.1853 69.6644 87.2422 69.6636 87.2946 69.666C88.354 69.7239 89.4022 69.555 90.4602 69.5732C90.7509 69.5789 91.0437 69.5897 91.3249 69.5159C91.3996 69.4971 91.4808 69.4833 91.5594 69.4877C92.5927 69.5403 93.6144 69.3842 94.6441 69.3938C94.7491 69.3953 94.8561 69.3984 94.9612 69.3933C95.3003 69.3815 95.6558 69.312 95.9763 69.3645C96.4101 69.4352 96.8205 69.5949 97.238 69.7216C99.4235 70.3846 101.611 71.0459 103.794 71.7138C106.443 72.5257 109.087 73.3474 111.738 74.1576C113.479 74.6902 115.233 75.2014 116.977 75.7308C118.499 76.1924 120.016 76.6656 121.539 77.1289C122.815 77.5176 124.094 77.903 125.37 78.2884C125.764 78.4082 126.16 78.5197 126.549 78.6476C126.799 78.7306 127.054 78.7606 127.319 78.7627C127.798 78.8522 128.246 79.0124 128.7 79.1545C129.002 79.2498 129.295 79.292 129.592 79.1605C129.614 79.1724 129.638 79.1826 129.655 79.1978C129.81 79.3175 129.642 79.5319 129.864 79.626C130.024 79.6945 130.2 79.74 130.37 79.792C132.79 80.5361 135.21 81.2802 137.631 82.0209C140.492 82.8954 143.356 83.7681 146.222 84.6377C146.507 84.7244 146.798 84.8609 147.122 84.7149C147.861 85.0513 148.763 85.1302 149.451 85.552C149.599 85.7163 149.854 85.7314 150.065 85.7907C150.361 85.8743 150.644 85.9693 150.919 86.0857C151.101 86.3216 150.922 86.5243 150.775 86.701C150.149 87.4435 150.252 88.1517 150.635 88.9763C152.314 92.5946 153.959 96.2207 155.605 99.8468C155.971 100.655 155.993 100.658 157.055 100.301C161.596 98.7743 166.152 97.2712 170.703 95.763C171.501 95.4978 172.294 95.221 173.096 94.9626C174.038 94.6614 174.038 94.6184 173.759 93.8829C173.652 93.605 173.393 93.3283 173.647 93.0224C174.866 92.7665 176.082 92.5056 177.3 92.253C179.027 91.895 180.756 91.5453 182.482 91.1856C183.676 90.936 184.861 90.6713 186.055 90.4217C188.263 89.9596 190.473 89.5058 192.681 89.0453C193.899 88.7911 195.118 88.5318 196.329 88.2626C196.551 88.2128 196.803 88.2014 196.982 88.0633C197.091 87.9754 197.223 87.9127 197.379 87.8835C197.684 87.8282 198.007 87.7417 198.266 87.9423C198.514 88.1361 198.342 88.3489 198.246 88.5511C198.094 88.7508 198.094 88.9693 198.088 89.191C198.074 89.8313 198.063 90.4732 198.036 91.1134C198.016 91.6112 198.064 92.1134 197.886 92.6041C197.838 92.7358 197.866 92.8835 197.861 93.0224C197.842 93.7437 197.829 94.4651 197.803 95.1847C197.785 95.6429 197.83 96.1052 197.66 96.5563C197.609 96.6863 197.637 96.8357 197.632 96.9746C197.612 97.7356 197.596 98.4967 197.571 99.2577C197.557 99.6762 197.591 100.097 197.433 100.509C197.382 100.639 197.408 100.786 197.403 100.927C197.384 101.628 197.374 102.328 197.346 103.03C197.323 103.567 197.383 104.111 197.192 104.641C197.144 104.773 197.174 104.92 197.169 105.059C197.15 105.741 197.14 106.421 197.112 107.103C197.093 107.6 197.142 108.103 196.963 108.595C196.915 108.727 196.943 108.874 196.938 109.013C196.914 109.854 196.875 110.695 196.879 111.536C196.882 111.982 196.756 112.408 196.681 112.843C196.668 112.917 196.591 112.985 196.543 113.056C196.47 113.124 196.379 113.178 196.284 113.228C196.236 113.252 196.183 113.269 196.13 113.287C196.075 113.301 196.021 113.313 195.966 113.326C195.913 113.342 195.858 113.356 195.803 113.366C195.685 113.393 195.639 113.48 195.559 113.538C195.308 113.558 195.086 113.623 194.923 113.781C194.092 114.272 193.244 114.737 192.2 114.939Z" fill="#7DC5E4"/>
</mask>
<g mask="url(#mask0_152_235)">
<path d="M192.2 114.939C191.217 115.364 190.23 115.787 189.249 116.217C187.311 117.067 185.376 117.92 183.441 118.773C181.847 119.475 180.254 120.18 178.665 120.885C177.891 121.229 177.128 121.582 176.352 121.922C175.986 122.082 175.611 122.251 175.167 122.058C173.971 121.913 172.773 121.776 171.578 121.621C170.358 121.464 169.144 121.284 167.924 121.126C167.067 121.015 166.205 120.928 165.347 120.817C164.102 120.657 162.859 120.484 161.613 120.319C161.146 120.258 160.677 120.207 160.208 120.147C159.637 120.075 159.067 120 158.496 119.926C158.029 119.865 157.56 119.807 157.093 119.746C155.795 119.577 154.499 119.405 153.201 119.238C152.708 119.174 152.211 119.124 151.718 119.063C150.834 118.954 149.953 118.833 149.067 118.734C148.417 118.661 147.779 118.517 147.114 118.518C146.585 118.628 146.078 118.5 145.565 118.433C145.144 118.379 144.734 118.349 144.388 118.594C144.354 118.565 144.289 118.535 144.289 118.506C144.309 118.131 143.956 118.04 143.583 118.01C143.164 117.976 142.754 117.915 142.339 117.858C141.05 117.681 139.759 117.498 138.463 117.36C137.815 117.292 137.179 117.139 136.514 117.164C135.565 117.258 134.668 117.045 133.764 116.884C133.441 116.742 133.09 116.674 132.723 116.627C131.454 116.469 130.189 116.294 128.924 116.127C128.692 116.097 128.455 116.044 128.247 116.184C127.605 116.146 126.941 116.212 126.358 115.924C125.789 115.709 124.799 115.581 124.264 115.651C122.722 115.527 121.174 115.437 119.708 115.004C119.531 114.962 119.36 114.907 119.181 114.883C118.195 114.75 117.209 114.621 116.221 114.5C115.337 114.392 114.449 114.298 113.565 114.186C112.734 114.082 111.905 113.959 111.077 113.848C110.584 113.782 110.091 113.72 109.595 113.66C108.4 113.511 107.202 113.367 106.007 113.214C105.487 113.147 104.973 113.061 104.454 112.992C103.442 112.859 102.429 112.725 101.415 112.602C100.531 112.493 99.6408 112.403 98.7573 112.291C97.9261 112.185 97.0997 112.058 96.2709 111.945C95.8041 111.882 95.335 111.826 94.8659 111.77C93.9801 111.665 93.0871 111.592 92.2152 111.441C91.8403 111.376 91.5376 111.428 91.2212 111.512C90.6478 111.662 90.0871 111.835 89.52 111.999C86.1944 112.958 82.8688 113.921 79.5411 114.876C75.9408 115.907 72.3386 116.932 68.7362 117.959C66.49 118.599 64.2438 119.235 61.9997 119.878C61.7316 119.956 61.4483 120.021 61.2376 120.185C60.2774 120.567 59.3109 120.934 58.2033 121C57.2869 121.253 56.3684 121.502 55.4563 121.761C53.9003 122.202 52.3442 122.645 50.7923 123.095C48.4756 123.766 46.1631 124.445 43.8485 125.116C42.5912 125.48 41.3319 125.835 40.0725 126.194C39.9757 126.223 39.8854 126.263 39.7885 126.3C39.8735 126.438 40.217 126.427 40.1058 126.65C39.2541 126.588 38.4571 126.65 37.8742 127.203C37.8036 127.121 37.7329 127.04 37.6515 126.945C37.4709 126.898 37.3267 127.013 37.1598 127.05C37.0083 127.085 36.8589 127.124 36.7117 127.167C35.1399 127.628 33.5682 128.091 31.9964 128.553C30.9413 128.863 29.884 129.172 28.8267 129.48C28.7277 129.509 28.6331 129.545 28.532 129.57C28.3431 129.617 28.2063 129.566 28.1738 129.43C28.1128 129.174 28.0672 128.917 28.0018 128.663C27.9427 128.427 27.8747 128.192 27.798 127.961C27.7419 127.798 27.6307 127.664 27.3796 127.644C27.2054 126.877 27.1016 126.091 26.334 125.49C26.3866 125.484 26.4391 125.481 26.4918 125.472C26.7572 125.426 26.8282 125.366 26.7874 125.208C26.7629 125.11 26.7143 125.017 26.6767 124.92C25.5064 121.921 24.2352 118.946 22.9772 115.967C22.5264 114.899 22.0581 113.833 21.5875 112.769C21.1926 111.876 20.7867 110.985 20.383 110.094C19.8852 109.693 19.8561 109.126 19.4991 108.676C19.6043 108.421 19.5585 108.171 19.4493 107.924C19.086 107.097 18.7226 106.271 18.3483 105.446C18.2558 105.241 18.1637 105.018 17.7899 105.013C17.6801 104.068 17.0852 103.234 16.7273 102.347C16.8061 102.22 16.8541 102.107 16.7825 101.953C16.4539 101.264 16.1517 100.566 15.8362 99.873C15.6911 99.5549 15.5328 99.2399 15.3943 98.9202C15.3187 98.7453 15.1579 98.8109 15.0134 98.8238C14.7911 97.8144 14.1715 96.8938 13.8438 95.9111C13.6944 95.4654 13.0277 95.5752 12.8481 95.2284C12.8745 95.2238 12.8987 95.2143 12.9249 95.2146C13.7386 95.1963 13.7268 95.2491 13.4387 94.6112C12.8837 93.3803 12.3068 92.1574 11.743 90.9297C11.2654 89.8903 10.7988 88.8494 10.3191 87.8115C9.63104 86.3206 8.93424 84.8313 8.24402 83.3403C7.84209 82.4724 7.44897 81.6013 7.04045 80.735C6.48028 79.5487 5.90915 78.364 5.34677 77.1793C5.15089 76.7661 4.95065 76.3529 4.76798 75.9349C4.66092 75.6885 4.46811 75.5898 4.12024 75.6014C3.67172 75.6166 3.22168 75.5954 2.77142 75.5857C2.59001 75.5815 2.39516 75.5953 2.26418 75.4627C2.5509 75.2053 2.95099 75.3284 3.30159 75.287C3.57768 75.2545 4.049 75.4299 4.05556 75.0676C4.06106 74.7631 3.89875 74.4282 3.40444 74.3153C3.08652 74.243 2.6999 74.3418 2.45075 74.0934C2.70091 73.9231 3.00525 74.0217 3.28323 74.0058C3.47147 73.9952 3.6464 73.9944 3.75192 73.8419C3.84837 73.7076 4.03041 73.677 4.22095 73.6599C5.02902 73.5918 5.83502 73.5171 6.64312 73.4474C6.75262 73.4373 6.84289 73.4038 6.91401 73.3403C7.10886 73.2057 7.30566 73.2051 7.50444 73.337C8.05959 73.3498 8.61632 73.3957 9.16087 73.2693C9.21135 73.2585 9.26607 73.2559 9.3185 73.2583C10.142 73.3047 10.9452 73.1455 11.7695 73.1439C12.5304 73.143 13.2888 73.0411 14.0486 72.9823C14.1274 72.9768 14.2064 72.963 14.285 72.9674C15.2134 73.0169 16.1245 72.8146 17.055 72.8674C17.1337 72.8719 17.2146 72.8697 17.2934 72.8625C17.6329 72.8325 17.9163 72.7571 17.9178 72.436C17.9186 72.3881 18.0025 72.3429 18.0471 72.2955C18.6446 72.87 19.3457 72.5488 20.0234 72.4376C20.1584 72.5917 20.3025 72.7212 20.5897 72.6822C20.7431 72.6612 20.9152 72.6934 21.0602 72.659C21.4993 72.556 21.9492 72.5871 22.3953 72.5868C22.9222 72.5876 23.4372 72.527 23.9379 72.405C25.1954 72.1496 26.4976 72.2043 27.78 72.1429C28.7692 72.0956 29.7677 71.8946 30.7676 72.1039C31.5547 72.1067 32.345 72.1725 33.1281 72.0346C33.3036 72.0039 33.4956 72.0281 33.6793 72.0258C34.0992 72.0217 34.5227 72.0558 34.9314 71.9491C34.9797 71.9365 35.0366 71.934 35.089 71.938C36.0654 71.9948 37.0282 71.8346 38.0011 71.8367C38.4975 71.8371 38.9928 71.7729 39.4895 71.7517C39.9862 71.7306 40.4902 71.7923 40.9799 71.6751C41.0766 71.6516 41.1902 71.6532 41.2929 71.6596C42.1905 71.7203 43.0727 71.544 43.9666 71.5649C44.1524 71.5692 44.2586 71.4995 44.3068 71.3694C45.7353 71.3316 47.1555 71.153 48.5922 71.2659C48.6677 71.3233 48.7519 71.3774 48.8684 71.3459C49.1233 71.2784 49.3876 71.292 49.6522 71.2908C50.177 71.2866 50.7056 71.3188 51.2257 71.2136C51.3991 71.178 51.5933 71.2022 51.777 71.1999C52.2756 71.1937 52.7799 71.2372 53.2696 71.1216C53.3421 71.1044 53.4273 71.1056 53.506 71.11C54.5631 71.1712 55.6035 70.9542 56.6584 71.0237C57.0537 71.0491 57.3074 70.9236 57.4954 70.6829C58.8919 70.8449 60.278 70.6129 61.6684 70.6242C62.1959 70.8385 62.7571 70.7537 63.3001 70.7134C63.587 70.6909 63.874 70.6569 64.1649 70.6544C64.7444 70.651 65.3296 70.6923 65.9003 70.5729C66.0232 70.5465 66.1628 70.565 66.2962 70.5636C66.8496 70.5565 67.4064 70.5974 67.9529 70.4843C68.1021 70.4533 68.2679 70.4738 68.4276 70.4728C68.9546 70.4669 69.4874 70.5092 70.0033 70.3923C70.0516 70.3814 70.1085 70.3806 70.1609 70.3846C71.2486 70.4513 72.3266 70.3291 73.4034 70.2731C74.3751 70.2222 75.358 70.2807 76.3185 70.1254C76.369 70.1179 76.4237 70.112 76.4762 70.1144C77.5356 70.174 78.5872 70.0581 79.6399 70.0067C80.7166 69.954 81.8047 69.9975 82.8722 69.852C82.8985 69.849 82.9248 69.8444 82.951 69.8448C83.9056 69.898 84.8464 69.7457 85.7975 69.7508C86.2457 69.7522 86.6976 69.7883 87.137 69.677C87.1853 69.6644 87.2422 69.6636 87.2946 69.666C88.354 69.7239 89.4022 69.555 90.4602 69.5732C90.7509 69.5789 91.0437 69.5897 91.3249 69.5159C91.3996 69.4971 91.4808 69.4833 91.5594 69.4877C92.5927 69.5403 93.6144 69.3842 94.6441 69.3938C94.7491 69.3953 94.8561 69.3984 94.9612 69.3933C95.3003 69.3815 95.6558 69.312 95.9763 69.3645C96.4101 69.4352 96.8205 69.5949 97.238 69.7216C99.4235 70.3846 101.611 71.0459 103.794 71.7138C106.443 72.5257 109.087 73.3474 111.738 74.1576C113.479 74.6902 115.233 75.2014 116.977 75.7308C118.499 76.1924 120.016 76.6656 121.539 77.1289C122.815 77.5176 124.094 77.903 125.37 78.2884C125.764 78.4082 126.16 78.5197 126.549 78.6476C126.799 78.7306 127.054 78.7606 127.319 78.7627C127.798 78.8522 128.246 79.0124 128.7 79.1545C129.002 79.2498 129.295 79.292 129.592 79.1605C129.614 79.1724 129.638 79.1826 129.655 79.1978C129.81 79.3175 129.642 79.5319 129.864 79.626C130.024 79.6945 130.2 79.74 130.37 79.792C132.79 80.5361 135.21 81.2802 137.631 82.0209C140.492 82.8954 143.356 83.7681 146.222 84.6377C146.507 84.7244 146.798 84.8609 147.122 84.7149C147.861 85.0513 148.763 85.1302 149.451 85.552C149.599 85.7163 149.854 85.7314 150.065 85.7907C150.361 85.8743 150.644 85.9693 150.919 86.0857C151.101 86.3216 150.922 86.5243 150.775 86.701C150.149 87.4435 150.252 88.1517 150.635 88.9763C152.314 92.5946 153.959 96.2207 155.605 99.8468C155.971 100.655 155.993 100.658 157.055 100.301C161.596 98.7743 166.152 97.2712 170.703 95.763C171.501 95.4978 172.294 95.221 173.096 94.9626C174.038 94.6614 174.038 94.6184 173.759 93.8829C173.652 93.605 173.393 93.3283 173.647 93.0224C174.866 92.7665 176.082 92.5056 177.3 92.253C179.027 91.895 180.756 91.5453 182.482 91.1856C183.676 90.936 184.861 90.6713 186.055 90.4217C188.263 89.9596 190.473 89.5058 192.681 89.0453C193.899 88.7911 195.118 88.5318 196.329 88.2626C196.551 88.2128 196.803 88.2014 196.982 88.0633C197.091 87.9754 197.223 87.9127 197.379 87.8835C197.684 87.8282 198.007 87.7417 198.266 87.9423C198.514 88.1361 198.342 88.3489 198.246 88.5511C198.094 88.7508 198.094 88.9693 198.088 89.191C198.074 89.8313 198.063 90.4732 198.036 91.1134C198.016 91.6112 198.064 92.1134 197.886 92.6041C197.838 92.7358 197.866 92.8835 197.861 93.0224C197.842 93.7437 197.829 94.4651 197.803 95.1847C197.785 95.6429 197.83 96.1052 197.66 96.5563C197.609 96.6863 197.637 96.8357 197.632 96.9746C197.612 97.7356 197.596 98.4967 197.571 99.2577C197.557 99.6762 197.591 100.097 197.433 100.509C197.382 100.639 197.408 100.786 197.403 100.927C197.384 101.628 197.374 102.328 197.346 103.03C197.323 103.567 197.383 104.111 197.192 104.641C197.144 104.773 197.174 104.92 197.169 105.059C197.15 105.741 197.14 106.421 197.112 107.103C197.093 107.6 197.142 108.103 196.963 108.595C196.915 108.727 196.943 108.874 196.938 109.013C196.914 109.854 196.875 110.695 196.879 111.536C196.882 111.982 196.756 112.408 196.681 112.843C196.668 112.917 196.591 112.985 196.543 113.056C196.47 113.124 196.379 113.178 196.284 113.228C196.236 113.252 196.183 113.269 196.13 113.287C196.075 113.301 196.021 113.313 195.966 113.326C195.913 113.342 195.858 113.356 195.803 113.366C195.685 113.393 195.639 113.48 195.559 113.538C195.308 113.558 195.086 113.623 194.923 113.781C194.092 114.272 193.244 114.737 192.2 114.939Z" fill="#7DC5E4"/>
<path d="M14.3671 75.1718C13.5273 80.352 12.8255 85.5395 13.8681 90.7542C13.7928 90.8804 13.7537 91.0181 13.7436 91.1562C12.8935 93.6277 13.1046 96.1123 13.5775 98.6002C13.8272 99.9024 13.5127 101.424 15.8813 101.857C18.1818 103.494 20.0191 102.174 21.9341 101.319C22.406 100.993 22.8708 100.662 23.3428 100.336C25.4882 99.948 26.2682 98.421 27.6129 97.3653C28.2008 96.6982 28.7961 96.0312 29.3841 95.3586C30.3777 94.7684 31.083 94.0475 31.2339 93.0654C32.7711 91.8408 33.7822 90.3885 34.4329 88.7824C35.6427 88.2834 35.7839 87.4173 35.7808 86.4996C35.8999 86.3629 35.9538 86.2143 35.9426 86.0483C36.1793 85.8523 36.4159 85.6562 36.6526 85.4602C37.5446 84.8577 37.8376 84.0376 38.0945 83.2006C38.9281 82.9678 38.2972 82.5287 38.3407 82.181C38.7285 82.0587 38.8926 81.8562 38.7463 81.5393C39.0517 81.1838 39.3643 80.8284 39.6696 80.4728C39.9604 79.7578 40.2441 79.0372 40.5349 78.3222L40.8255 78.3369C41.1669 79.4246 41.0212 80.5063 40.7739 81.5866C40.8719 81.7703 40.9698 81.9595 41.0606 82.143C41.0492 83.0605 41.0305 83.9779 41.0191 84.8954C40.6657 87.6107 40.3196 90.3261 39.9663 93.0415C38.8214 94.2765 39.5412 95.7061 39.2597 97.0349C39.1941 98.112 39.1357 99.1947 39.0702 100.272L39.0701 100.277C37.9194 101.087 38.5444 102.172 38.3214 103.126C38.2828 106.807 37.6772 110.481 38.213 114.164C38.5761 116.684 37.0403 119.622 40.9602 121.357C41.3775 121.572 41.7947 121.793 42.212 122.008C44.155 122.635 46.0924 123.178 47.7105 121.551C46.6826 121.688 45.6547 121.824 44.6268 121.961C44.3833 121.421 44.147 120.882 43.9037 120.337C42.5393 120.575 43.343 119.308 42.5023 119.176C41.7763 117.696 41.0431 116.211 40.3171 114.732C41.696 113.782 41.6901 112.643 41.0897 111.425C41.0898 111.06 41.0901 110.689 41.0975 110.325C41.1092 109.037 41.1137 107.743 41.1254 106.456C41.3585 105.723 41.7874 105.01 41.4252 104.231C41.5949 104.106 41.6122 103.974 41.4844 103.823L41.4848 103.801C42.4454 101.972 42.0988 100.072 42.0572 98.1863C42.1911 98.0387 42.2525 97.8792 42.2417 97.6966C43.3388 96.66 42.7962 95.4592 42.8194 94.3152C43.1696 92.1139 44.1078 89.9587 43.6666 87.7033C44.1818 87.0353 44.0511 86.3151 43.9494 85.5952C45.07 83.409 44.9127 81.1351 44.7262 78.8664C44.8539 77.9503 45.9846 77.0523 44.8187 76.1091C44.89 75.1094 44.9243 74.1369 44.5957 73.1378C44.0201 71.4115 42.5589 71.045 40.9256 71.9921C39.2997 72.9282 37.5029 74.0501 38.161 76.0096C36.6867 76.6436 37.0265 77.8087 36.7521 78.7892C36.7516 79.5244 36.7439 80.2595 36.7436 80.9892C36.744 80.254 36.7517 79.5189 36.7521 78.7892C34.9622 79.5685 35.935 81.0676 35.2443 82.1369C33.0001 85.5916 30.7632 89.0463 28.5189 92.501C28.2282 92.8567 27.9372 93.2179 27.6465 93.5736C26.9446 94.1232 26.2354 94.6726 25.5335 95.2222C25.3498 95.3194 25.289 95.4458 25.3583 95.6125C25.4708 95.8019 25.5907 95.9858 25.7185 96.1366C25.5834 95.9857 25.4708 95.8019 25.3583 95.6125C24.9643 96.0388 24.5777 96.4596 24.1837 96.8859C23.6347 97.4263 23.0784 97.9667 22.5294 98.5071C21.2022 98.7006 19.9816 99.0171 19.3501 100.037C18.7246 100.046 18.1065 100.055 17.4809 100.069C17.2458 98.0489 17.0179 96.0283 16.7827 94.0077C17.2492 92.1672 17.0177 90.3236 16.8735 88.481C16.9178 87.3759 16.9621 86.2709 17.0064 85.1659C17.2388 83.035 18.2489 80.9193 17.2532 78.7566C18.5242 76.6829 17.4637 74.4917 17.7688 72.3617C17.8618 71.7216 18.2676 70.7151 16.7923 70.6857C15.6441 70.6603 14.5062 70.8396 14.0174 71.9944C13.605 72.9677 14.338 73.7452 14.2691 74.6288C14.3164 74.8063 14.3418 74.989 14.3671 75.1718ZM41.8476 78.8416C41.9203 78.8425 41.9929 78.8489 42.0728 78.8499C42.0003 78.8435 41.9203 78.8425 41.8476 78.8416C41.8203 78.7528 41.8077 78.6587 41.8168 78.5703C41.8077 78.6587 41.8204 78.7473 41.8476 78.8416ZM34.105 86.3184C32.9162 88.2826 31.5618 90.1729 29.9692 91.9773C31.5545 90.1728 32.9091 88.277 34.105 86.3184ZM15.3698 97.6994C15.4383 97.9048 15.4849 98.1154 15.5026 98.3201C15.4923 98.11 15.4383 97.9048 15.3698 97.6994ZM15.3834 94.5321L15.7322 94.5419C15.7323 94.5364 15.3834 94.5321 15.3834 94.5321ZM14.5719 96.1803C13.8425 95.5798 13.7493 95.1585 14.1548 94.8816C13.7492 95.164 13.8353 95.5797 14.5719 96.1803Z" fill="#C075E3"/>
<path d="M47.8538 121.711C50.1993 121.33 52.4594 120.855 53.5755 118.981C54.3908 118.283 56.0552 118.093 55.8489 116.779C56.4637 116.272 57.3088 115.901 57.4339 115.122C57.8852 114.779 58.3364 114.436 58.7877 114.093C59.779 113.336 60.0979 112.338 60.4385 111.352C60.7298 110.995 61.0138 110.639 61.3051 110.283C62.4368 109.783 62.6137 108.966 62.5736 108.074C62.8364 107.684 63.1065 107.295 63.3693 106.911C64.7594 104.808 66.2222 102.718 66.2066 100.266C67.9748 98.9098 67.8031 96.9705 68.739 95.3606C68.9868 94.2789 69.2419 93.1973 69.4897 92.1157C70.7328 93.2989 70.0068 94.6181 69.9299 95.8901C70.3693 96.842 69.6916 97.9349 70.5838 98.826C70.6211 99.1419 70.6656 99.4579 70.7029 99.7739C70.0272 101.481 70.9478 103.125 71.0665 104.804C70.6785 106.692 70.9832 108.538 71.7182 110.352C71.4431 112.059 72.2847 113.646 72.6009 115.288C72.5381 116.223 72.7101 117.077 73.8863 117.612C73.8757 117.773 73.9165 117.917 74.0229 118.057C74.0117 118.25 74.0004 118.444 73.9893 118.632C74.4623 119.368 74.9352 120.105 75.4082 120.841C75.3495 121.936 76.1187 122.427 77.487 122.472C78.4651 122.722 79.4359 122.972 80.414 123.223C84.301 123.326 87.6503 122.294 90.6158 120.438C92.5148 119.46 94.3633 118.454 95.1276 116.687C95.3857 116.529 95.6365 116.372 95.8947 116.209C97.9596 115.665 97.6616 113.846 98.9844 112.905C99.6519 112.675 100.319 112.44 100.145 111.729C100.242 111.576 100.304 111.416 100.336 111.245C101.667 110.619 102.14 109.562 102.707 108.551C102.865 108.337 103.029 108.124 103.186 107.91C105.054 105.276 106.899 102.643 107.688 99.6694C107.843 99.533 107.905 99.3788 107.872 99.2013C109.603 97.1751 110.421 94.905 110.95 92.5595C111.892 91.3591 112.428 90.0763 112.376 88.6643C113.463 87.1337 113.97 85.4963 114.006 83.7644C114.494 83.7484 114.975 83.7322 115.463 83.7162C115.496 83.8992 115.536 84.0823 115.569 84.2598C116.025 87.2431 115.795 90.3063 117.317 93.17C116.876 93.729 116.967 94.2725 117.371 94.8144C117.146 98.0105 117.934 101.125 118.694 104.239C118.66 105.197 118.589 106.153 119.293 107.014C119.304 107.197 119.314 107.385 119.325 107.568C118.581 110.138 120.047 112.519 120.434 114.992C120.439 115.463 120.436 115.933 120.442 116.398C120.725 116.413 121.009 116.428 121.293 116.442C121.297 116.614 121.3 116.791 121.311 116.963C121.533 117.53 121.762 118.092 121.983 118.659C122.536 118.677 123.089 118.7 123.481 118.805C123.089 118.7 122.544 118.677 121.983 118.659C121.762 118.092 121.533 117.53 121.311 116.963C121.308 116.791 121.297 116.614 121.293 116.442C121.009 116.428 120.725 116.413 120.442 116.398C120.487 118.48 120.451 120.571 121.606 122.528C121.693 123.271 121.787 124.008 121.874 124.751C122.112 125.916 122.38 127.076 122.589 128.247C122.818 129.506 123.348 130.658 125.239 130.809C127.093 130.954 128.001 130.002 128.391 128.728C129.213 128.429 129.043 127.801 129.222 127.283C130.18 126.006 131.312 124.791 131.575 123.278C132.86 121.335 133.696 119.275 134.329 117.158C134.646 116.271 134.955 115.389 135.272 114.502C135.159 114.301 135.054 114.101 134.942 113.9C134.578 113.89 134.214 113.874 133.843 113.864C134.207 113.874 134.571 113.884 134.942 113.9C135.047 114.101 135.159 114.301 135.265 114.502C136.148 113.694 136.008 112.69 136.18 111.746C137.372 110.432 137.157 108.847 137.638 107.397C138.451 105.742 139.184 104.079 138.951 102.267C140.387 100.785 139.312 98.8563 140.479 97.3267C140.559 96.6193 140.639 95.9063 140.719 95.1989C141.815 93.9673 141.268 92.5713 141.397 91.2447C141.484 90.9137 141.571 90.5827 141.665 90.2518L141.672 90.2408C142.546 89.1669 142.301 87.985 142.23 86.8164C142.274 86.4627 142.317 86.1146 142.361 85.7609C143.279 84.3334 143.084 82.809 143.02 81.2972C143.038 81.1093 143.057 80.9214 143.075 80.7334C143.195 80.591 143.234 80.431 143.208 80.2646C144.286 78.8446 143.852 77.284 143.934 75.7686C143.92 74.9991 144.867 74.3025 144.242 73.4867C144.245 73.3539 144.204 73.2316 144.126 73.1144C145.11 71.6656 144.85 70.1127 144.779 68.5732C144.824 67.8377 144.86 67.1076 144.904 66.3721C145.081 66.2746 145.113 66.1588 144.999 66.019C145.837 64.917 145.628 63.719 145.587 62.5285C145.625 62.0807 145.773 61.6177 145.687 61.1849C145.555 60.5523 146.283 59.4877 144.901 59.4041C143.453 59.3197 143.411 60.3209 143.466 61.1739C142.717 62.2161 142.339 63.263 143.395 64.3332C143.291 64.4038 143.246 64.4918 143.244 64.597C143.072 64.8051 142.9 65.0133 142.728 65.2215C141.907 65.8699 142.182 66.6813 142.151 67.4502C142.348 67.4527 142.545 67.4496 142.741 67.452C142.788 67.3143 142.82 67.1763 142.83 67.0325C142.82 67.1763 142.788 67.3143 142.741 67.4465C142.545 67.4441 142.348 67.4471 142.151 67.4447C142.329 69.4725 141.094 71.4662 141.868 73.5125C140.743 75.0869 140.84 76.7817 141.002 78.4828C140.847 78.5805 140.808 78.7017 140.9 78.8412C139.84 79.7191 140.459 80.8005 140.286 81.7835C140.261 81.9713 140.228 82.1536 140.202 82.3414C139.64 85.2788 138.656 88.1777 138.624 91.1714C138.081 92.7807 137.292 94.3593 137.606 96.0734L137.614 96.0735C136.617 96.7197 137.03 97.5661 137.072 98.358C137.319 98.3722 137.566 98.3863 137.814 98.406C137.566 98.3918 137.319 98.3777 137.072 98.358C135.904 100.281 136.108 102.425 135.397 104.425C134.052 105.366 135.067 106.657 134.565 107.719L134.573 107.713C133.615 109.677 132.802 111.665 133.043 113.804C132.895 113.908 132.842 114.034 132.882 114.184C130.268 116.648 129.942 119.793 128.523 122.614L128.479 122.608C128.203 122.959 127.933 123.316 127.657 123.666C127.466 124.428 127.276 125.195 127.086 125.956C126.995 126.11 126.941 126.27 126.923 126.435C126.245 126.46 125.665 126.331 125.318 125.84C125.424 124.928 125.537 124.011 125.643 123.099C125.603 122.921 125.541 122.749 125.45 122.576C124.657 120.768 125.229 118.777 124.158 117.004C124.014 115.873 124.796 114.67 123.703 113.616C123.361 112.511 123.793 111.315 123.006 110.259C122.962 109.921 122.918 109.577 122.874 109.239C123.083 107.914 123.234 106.587 122.276 105.363C122.261 104.998 122.247 104.627 122.24 104.261C122.643 102.728 121.82 101.295 121.595 99.8148C121.676 99.0409 121.896 98.2522 121.131 97.5731C121.176 92.8582 120.207 88.2249 119.194 83.5965C119.234 83.4365 119.179 83.303 119.028 83.1849C119.577 81.9797 118.585 80.9545 118.331 79.8445C118.324 79.4902 118.324 79.1305 118.317 78.7762C118.756 77.9404 118.14 77.4346 117.356 76.9766C117.112 76.4311 117.432 75.7322 116.624 75.3293C116.144 74.5817 115.745 73.8019 114.258 74.2538C113.092 74.6101 112.232 75.02 111.962 76.0904C111.424 78.22 111.125 80.3526 111.074 82.5159C109.68 83.0354 110.208 83.9164 110.359 84.7319C110.29 84.9026 110.243 85.0791 110.217 85.2614C108.135 90.5763 106.053 95.8912 103.971 101.206C103.559 101.777 103.14 102.341 102.728 102.912C101.04 103.865 101.236 105.345 100.91 106.68C100.703 106.844 100.488 107.013 100.281 107.176C98.7101 108.496 97.4134 109.941 96.5494 111.602C97.0406 111.442 97.5317 111.287 98.0229 111.127C98.1769 110.36 98.7111 109.88 99.5112 109.569C98.7111 109.88 98.1768 110.365 98.0229 111.127C97.5317 111.287 97.0406 111.442 96.5494 111.602L96.6 111.619C95.8844 112.069 95.0534 112.463 95.2542 113.329C94.9196 113.668 94.585 114.007 94.2502 114.351C93.3428 115.281 92.4352 116.216 91.5277 117.146C88.4115 118.535 85.7052 120.532 81.9032 120.905C81.6627 120.914 81.4148 120.927 81.1743 120.935C80.5492 120.878 79.9241 120.814 79.299 120.757C78.7862 120.186 78.5904 119.431 77.6281 119.12C77.5006 118.947 77.3731 118.768 77.2528 118.595C76.4684 115.63 75.684 112.665 74.8996 109.7C74.8861 108.216 75.033 106.724 74.2609 105.303C74.2392 104.937 74.2175 104.572 74.1957 104.212C74.3583 103.378 74.6231 102.535 73.72 101.82C73.7804 101.716 73.8191 101.606 73.836 101.49C74.5293 100.707 74.7562 99.935 73.7151 99.2025C74.3125 98.4794 74.5529 97.7574 73.7522 97.0224C74.1829 96.2585 73.6588 95.5325 73.5865 94.79C73.6085 94.425 73.6306 94.0544 73.6526 93.6894C73.7105 90.8454 74.2713 87.9855 73.2653 85.1726C73.4342 85.1027 73.48 85.0037 73.4026 84.8699C74.0562 83.8873 73.9301 82.9283 73.2868 81.9739C73.2147 80.5064 73.8065 78.9862 72.6254 77.6156C72.6861 76.7806 72.1987 76.3982 71.1158 76.6449C69.8866 76.9229 68.7667 77.5565 68.8996 78.5378C69.2533 81.1987 67.7675 83.704 67.9688 86.3353C67.1547 89.4743 66.3333 92.6132 65.5193 95.7522C64.6834 96.3838 64.9359 97.2171 64.8112 97.9793C63.8485 98.7588 63.9358 99.8336 63.4583 100.752C62.7812 101.457 63.7507 102.488 62.6528 103.111C61.2763 104.544 60.6383 106.19 60.2682 107.913C60.0495 108.281 59.8308 108.649 59.6122 109.011C59.4932 109.132 59.4394 109.269 59.4728 109.419C58.4682 109.755 58.4079 110.568 57.9441 111.171C57.3131 111.401 57.1738 111.804 57.2951 112.287C56.48 112.968 55.298 113.435 55.0948 114.473C55.1121 114.695 55.1222 114.916 55.1395 115.138C55.1294 114.916 55.1121 114.695 55.0948 114.473C53.5345 115.273 52.9689 116.583 52.1871 117.78C49.6008 118.893 47.3101 120.514 44.0631 120.457C44.307 120.997 44.5436 121.537 44.7874 122.082C45.7944 121.984 46.8241 121.847 47.8538 121.711ZM129.207 122.64C129.311 122.901 129.445 123.085 129.61 123.209C129.445 123.085 129.304 122.901 129.207 122.64ZM129.15 126.878C129.075 126.612 128.971 126.356 128.742 126.148C128.964 126.356 129.075 126.612 129.15 126.878ZM119.984 103.486C119.815 103.163 119.728 102.813 119.596 102.474C119.728 102.813 119.816 103.158 119.984 103.486ZM119.516 104.294C119.945 105.019 120.367 105.744 120.797 106.468C120.714 106.578 120.618 106.671 120.514 106.742C120.625 106.671 120.714 106.578 120.797 106.468C120.367 105.744 119.945 105.019 119.516 104.294ZM115.54 77.0813C115.751 77.0728 115.955 77.0643 116.167 77.0559C115.963 77.0644 115.751 77.0728 115.54 77.0813ZM114.716 81.4377C114.734 81.6095 114.745 81.7757 114.756 81.9474C115.242 82.0641 115.899 81.9727 116.295 82.2101C115.899 81.9727 115.242 82.0641 114.756 81.9529C114.745 81.7757 114.727 81.6039 114.716 81.4377ZM112.623 79.779C112.576 79.9168 112.552 80.0493 112.549 80.171C112.552 80.0438 112.576 79.9113 112.623 79.779ZM108.657 92.4867C108.926 92.169 109.081 91.706 109.392 91.4166C109.081 91.706 108.918 92.1689 108.657 92.4867C108.635 93.9254 107.874 95.1501 107.056 96.363C107.874 95.1501 108.635 93.9198 108.657 92.4867ZM105.601 100.214C105.597 100.424 105.571 100.623 105.48 100.799C105.563 100.623 105.597 100.424 105.601 100.214ZM97.2164 113.536C96.6141 114.143 96.4573 115.048 95.7832 115.605C96.4573 115.048 96.6214 114.143 97.2164 113.536ZM74.7127 109.935C74.7127 109.935 74.7351 109.908 74.765 109.869L74.7127 109.935ZM71.8338 83.9427C71.6393 84.1949 71.5535 84.4761 71.699 84.8376C71.4226 85.1773 71.2323 85.5845 70.9271 85.9072C71.225 85.5844 71.4154 85.1772 71.699 84.8376C71.5462 84.476 71.6394 84.1893 71.8338 83.9427ZM69.403 89.22C69.4753 89.2486 69.5401 89.2826 69.605 89.3166C69.5401 89.2826 69.4752 89.2541 69.403 89.22ZM69.2894 91.9361C69.2894 91.9361 69.3252 91.9697 69.3682 92.0035L69.2894 91.9361Z" fill="#C075E3"/>
</g>
</svg>
