<svg width="218" height="200" viewBox="0 0 218 200" fill="none" xmlns="http://www.w3.org/2000/svg">
<path d="M65.5457 42.0749C65.7157 42.1126 65.7909 42.2131 65.8367 42.3337C65.8694 42.4216 65.9152 42.497 66.0722 42.4543C66.9159 42.2307 67.7661 42.0172 68.6033 41.781C70.4837 41.251 72.3542 40.7033 74.2346 40.1758C74.6401 40.0628 75.0227 39.9271 75.3464 39.7061C77.0666 39.897 78.8096 39.6407 80.5264 39.8593C80.7946 40.1205 81.1739 40.0427 81.5173 40.0427C83.4205 40.0502 85.3205 40.0477 87.2238 40.0502C88.0544 40.0502 88.8883 40.0502 89.7189 40.0527C90.3108 40.0552 90.8995 40.0527 91.4881 40.1607C91.9034 40.2361 92.3547 40.1984 92.7897 40.1984C106.302 40.211 119.815 40.2235 133.327 40.2361C134.076 40.2361 134.825 40.211 135.57 40.3517C135.946 40.4245 136.358 40.3793 136.754 40.3793C150.463 40.3919 164.175 40.4019 177.887 40.417C178.478 40.417 179.074 40.3692 179.652 40.5225C180.012 40.6179 180.356 40.5175 180.683 40.3994C181.533 40.2662 182.462 40.4346 183.233 40.005C183.436 40.5426 183.436 40.5451 183.946 40.5602C184.224 40.5677 184.502 40.5627 184.777 40.5652C187.949 40.5677 191.118 40.5702 194.29 40.5727C194.607 40.5727 194.924 40.5677 195.242 40.5777C195.719 40.5928 195.784 40.623 195.889 40.9747C196.056 41.5348 196.196 42.1001 196.344 42.6653C196.729 44.1499 197.158 45.6295 197.485 47.1242C197.903 49.0384 198.476 50.9275 198.92 52.8342C199.359 54.7132 199.869 56.5797 200.346 58.4537C200.876 60.5337 201.36 62.6212 201.844 64.7088C201.9 64.9524 202.138 65.0554 202.299 65.2187C202.622 66.2185 202.838 67.2359 203.103 68.2458C203.172 68.5096 203.267 68.7834 203.038 69.0371C203.221 69.8736 203.381 70.7101 203.587 71.5441C204.022 73.3001 204.48 75.051 204.925 76.8044C205.274 78.171 205.628 79.5376 205.968 80.9067C206.426 82.7505 206.867 84.5969 207.325 86.4408C207.511 87.1843 207.707 87.9279 207.923 88.6665C208.048 89.091 208.08 89.513 207.963 89.9326C207.403 91.9171 206.825 93.8966 206.262 95.8812C205.647 98.0415 205.046 100.204 204.431 102.365C204.094 103.548 203.744 104.731 203.407 105.914C202.626 108.668 201.86 111.423 201.072 114.174C200.513 116.129 199.924 118.075 199.352 120.027C198.92 121.504 198.489 122.984 198.073 124.464C198.008 124.7 198.024 124.948 198.005 125.19C198.051 125.928 197.818 126.632 197.531 127.325C197.439 127.546 197.285 127.737 197.083 127.908C196.762 129.061 196.451 130.216 196.124 131.369C195.578 133.291 195.019 135.213 194.476 137.135C193.662 140.003 192.864 142.875 192.047 145.746C191.651 147.138 191.229 148.522 190.827 149.911C190.748 150.177 190.742 150.461 190.614 150.707C190.47 150.986 190.768 151.079 190.882 151.252C190.307 152.508 190.032 153.82 189.682 155.116C189.293 155.433 189.103 155.809 188.995 156.236C188.691 157.425 188.351 158.608 188.021 159.793C187.995 159.881 187.956 159.969 187.913 160.052C187.818 160.248 187.668 160.341 187.37 160.271C186.654 160.1 185.928 159.949 185.209 159.786C183.845 159.477 182.481 159.165 181.121 158.851C180.898 158.801 180.738 158.834 180.617 158.982C179.067 158.545 177.439 158.291 175.911 157.794C175.735 157.623 175.506 157.533 175.228 157.47C172.975 156.947 170.731 156.405 168.482 155.877C167.17 155.568 165.856 155.269 164.538 154.973C164.05 154.862 163.573 154.707 163.046 154.744C161.398 154.561 159.812 154.219 158.315 153.654C157.719 153.335 157.01 153.242 156.339 153.076C155.476 152.863 154.609 152.659 153.74 152.463C153.517 152.413 153.275 152.408 153.043 152.38C151.777 152.486 150.646 152.024 149.498 151.77C147.994 151.436 146.476 151.099 144.995 150.69C144.949 150.484 144.779 150.398 144.524 150.338C143.049 149.996 141.584 149.632 140.113 149.288C138.752 148.969 137.395 148.652 136.028 148.356C135.394 148.218 135.073 147.924 134.864 147.442C133.742 144.849 132.581 142.267 131.424 139.684C130.897 138.509 130.345 137.338 129.818 136.16C129.723 135.946 129.632 135.758 129.295 135.735C128.765 134.394 128.225 133.057 127.457 131.781C127.581 131.457 127.591 131.158 127.434 130.817C126.077 127.867 124.749 124.911 123.428 121.954C122.748 120.432 122.107 118.899 121.427 117.377C120.142 114.506 118.843 111.637 117.548 108.768C117.496 108.653 117.437 108.54 117.385 108.426C117.31 108.268 117.159 108.173 116.943 108.173C116.626 108.173 116.302 108.163 115.995 108.21C114.484 108.437 112.963 108.59 111.436 108.738C110.187 108.859 108.951 109.057 107.705 109.21C107.005 109.296 106.299 109.361 105.596 109.439C103.607 109.665 101.622 109.896 99.6342 110.12C98.8918 110.203 98.1495 110.275 97.4072 110.356C95.5333 110.562 93.6628 110.765 91.7922 110.976C91.0532 111.059 90.3174 111.185 89.5783 111.253C87.4658 111.451 85.363 111.695 83.2636 111.969C81.9064 112.147 80.5297 112.242 79.1595 112.381C78.6134 112.436 78.0672 112.509 77.5244 112.581C77.2922 112.612 77.2432 112.772 77.1778 112.916C74.5583 113.212 71.9225 113.423 69.3227 113.817C69.1004 113.724 68.9696 113.549 68.6131 113.606C67.6124 113.762 66.5987 113.86 65.5849 113.966C64.2212 114.111 62.8576 114.26 61.4906 114.375C60.902 114.425 60.333 114.543 59.7444 114.594C58.106 114.732 56.4741 114.933 54.8423 115.126C53.5604 115.277 52.2883 115.47 51.0031 115.616C49.6427 115.772 48.2725 115.89 46.9089 116.031C46.4412 116.078 45.9801 116.151 45.5125 116.204C44.8519 116.277 44.2011 116.397 43.5242 116.42C43.1023 116.435 42.6838 116.573 42.311 116.749C40.8067 117.061 39.2173 117.06 37.7392 117.47C37.6902 117.216 37.5038 117.073 37.1702 117.138C36.5914 117.254 35.9995 117.269 35.4141 117.332C34.1289 117.47 32.847 117.641 31.5651 117.802C31.2806 117.837 31.1302 117.716 30.9994 117.55C30.3976 116.802 29.7828 116.058 29.1844 115.305C27.7619 113.518 26.3426 111.727 24.9233 109.939C23.2359 107.814 21.5518 105.686 19.8545 103.563C18.1148 101.39 16.3554 99.2272 14.6124 97.0543C13.6183 95.8133 12.6307 94.5673 11.6562 93.3163C11.4305 93.0274 11.2212 92.7335 10.7961 92.5878C9.65808 91.6885 9.78888 90.7289 10.577 89.7416C10.819 89.719 11.0479 89.6663 11.1853 89.4955C11.2899 89.3673 11.3815 89.2317 11.473 89.096C12.8727 87.016 14.2625 84.936 15.6687 82.8585C17.5327 80.1103 19.4065 77.3646 21.2803 74.6189C21.9605 73.6241 22.6505 72.6319 23.3275 71.6371C25.2536 68.811 27.1471 65.9698 29.1124 63.1588C29.9169 62.0083 30.6821 60.8402 31.4703 59.6821C33.3768 56.8811 35.2899 54.0827 37.1768 51.2767C37.5626 50.7039 38.0924 50.3573 38.9034 50.1412C41.6994 49.3901 44.466 48.5737 47.2457 47.7849C48.9494 47.3026 50.6598 46.8278 52.3668 46.348C55.6305 45.4286 58.8941 44.5066 62.1577 43.5847C62.2689 43.5546 62.3867 43.5219 62.475 43.4641C62.6287 43.3662 62.524 43.2481 62.475 43.1376C62.8576 42.6804 63.5672 42.7607 64.1101 42.5924C64.6235 42.4668 65.1009 42.3061 65.5457 42.0749Z" fill="#D2ECFF"/>
</svg>
