<svg width="793" height="616" viewBox="0 0 793 616" fill="none" xmlns="http://www.w3.org/2000/svg">
<path d="M789.119 573.136V408.196C789.119 408.196 787.886 177.269 791.583 155.806C793.636 145.074 791.993 70.0307 789.119 39.4259L758.758 9.53913C734.528 8.34674 592.59 0 580.27 0C502.24 0 411.069 8.34675 354.396 5.16703C297.722 1.98732 257.478 9.53895 192.59 9.53895C181.091 9.53895 88.3856 8.74422 57.9952 9.53915L11.5884 43.3236L7.07088 101.751L0.5 307.637C0.5 307.637 7.07088 525.079 7.07088 574.364L46.4348 609.641H253.368L423.39 616H745.381" fill="#FFF4CA"/>
</svg>
