<svg width="61" height="47" viewBox="0 0 61 47" fill="none" xmlns="http://www.w3.org/2000/svg">
<path d="M0.472656 13.8814C0.472656 13.8814 1.1364 41.3163 0.472758 47L60.4727 46.4626V4.92772C52.6518 4.92772 45.8512 3.63537 38.5491 2.84186C35.065 2.51395 31.5809 1.85814 28.0968 1.96744C25.0274 1.96744 21.8751 2.07674 18.8057 1.85814C14.7409 1.53023 1.13629 0 1.13629 0L0.804497 4.4814C0.804497 4.4814 0.472656 10.493 0.472656 13.8814Z" fill="#FFF4CA"/>
<path d="M21.7926 21.2L39.9926 21.2V23.16L21.7926 23.16L21.7926 21.2ZM26.9726 27.26L34.7326 27.26V28.98L26.9726 28.98V27.26ZM26.9726 30.32L34.7326 30.32V32.18H26.9726V30.32ZM23.5326 18.32L38.2326 18.32V20.22L23.5326 20.22V18.32ZM22.8726 15.42L38.8926 15.42V17.32L22.8726 17.32V15.42ZM33.5926 18.94C33.9926 19.9933 34.5259 20.9933 35.1926 21.94C35.8726 22.8733 36.6592 23.7 37.5526 24.42C38.4592 25.14 39.4526 25.72 40.5326 26.16C40.3592 26.3067 40.1659 26.5 39.9526 26.74C39.7526 26.98 39.5592 27.2267 39.3726 27.48C39.1992 27.72 39.0459 27.9467 38.9126 28.16C37.7526 27.6133 36.6992 26.92 35.7526 26.08C34.8192 25.2267 33.9926 24.2533 33.2726 23.16C32.5526 22.0533 31.9459 20.8533 31.4526 19.56L33.5926 18.94ZM25.5126 24.18H36.2726V32.7H33.7926V26.04L27.8726 26.04V32.78H25.5126V24.18ZM29.0926 14L31.5526 14.2C31.4192 15.6133 31.1659 17.0133 30.7926 18.4C30.4326 19.7733 29.9126 21.0867 29.2326 22.34C28.5526 23.5933 27.6859 24.7533 26.6326 25.82C25.5926 26.8733 24.3259 27.8 22.8326 28.6C22.7392 28.4 22.5992 28.18 22.4126 27.94C22.2392 27.6867 22.0526 27.4467 21.8526 27.22C21.6526 26.9933 21.4592 26.8133 21.2726 26.68C22.6592 25.9867 23.8326 25.1733 24.7926 24.24C25.7659 23.2933 26.5526 22.2733 27.1526 21.18C27.7526 20.0733 28.2059 18.9133 28.5126 17.7C28.8192 16.4867 29.0126 15.2533 29.0926 14Z" fill="#FFD700"/>
</svg>
