<svg width="61" height="47" viewBox="0 0 61 47" fill="none" xmlns="http://www.w3.org/2000/svg">
<path d="M0.472656 13.8814C0.472656 13.8814 1.1364 41.3163 0.472758 47L60.4727 46.4626V4.92772C52.6518 4.92772 45.8512 3.63537 38.5491 2.84186C35.065 2.51395 31.5809 1.85814 28.0968 1.96744C25.0274 1.96744 21.8751 2.07674 18.8057 1.85814C14.7409 1.53023 1.13629 0 1.13629 0L0.804497 4.4814C0.804497 4.4814 0.472656 10.493 0.472656 13.8814Z" fill="#FFE2D2"/>
<path d="M33.6126 14.06L35.8326 14.06C35.8192 15.82 35.7926 17.4867 35.7526 19.06C35.7126 20.62 35.6059 22.0867 35.4326 23.46C35.2726 24.82 34.9859 26.08 34.5726 27.24C34.1726 28.4 33.6192 29.4467 32.9126 30.38C32.2059 31.3 31.2792 32.1133 30.1326 32.82C29.9726 32.5267 29.7392 32.2067 29.4326 31.86C29.1392 31.5133 28.8526 31.24 28.5726 31.04C29.6259 30.4267 30.4726 29.7133 31.1126 28.9C31.7659 28.0733 32.2659 27.1467 32.6126 26.12C32.9592 25.0933 33.1992 23.96 33.3326 22.72C33.4659 21.48 33.5459 20.14 33.5726 18.7C33.5992 17.26 33.6126 15.7133 33.6126 14.06ZM35.4926 21.28C35.7059 22.7333 36.0059 24.0867 36.3926 25.34C36.7926 26.58 37.3192 27.6733 37.9726 28.62C38.6392 29.5667 39.4726 30.3133 40.4726 30.86C40.2192 31.0733 39.9459 31.3667 39.6526 31.74C39.3592 32.1133 39.1326 32.44 38.9726 32.72C37.8792 32.0267 36.9726 31.14 36.2526 30.06C35.5459 28.98 34.9792 27.7267 34.5526 26.3C34.1392 24.8733 33.8059 23.3 33.5526 21.58L35.4926 21.28ZM37.7526 18.42L40.1126 18.96C39.8992 19.6 39.6659 20.2467 39.4126 20.9C39.1726 21.54 38.9259 22.1533 38.6726 22.74C38.4192 23.3267 38.1792 23.8467 37.9526 24.3L35.9526 23.76C36.1659 23.28 36.3859 22.7333 36.6126 22.12C36.8526 21.4933 37.0726 20.86 37.2726 20.22C37.4726 19.5667 37.6326 18.9667 37.7526 18.42ZM30.5526 18.44L32.6126 18.72C32.6126 19.3867 32.5659 20.0667 32.4726 20.76C32.3926 21.4533 32.2592 22.12 32.0726 22.76C31.8992 23.3867 31.6792 23.9533 31.4126 24.46L29.3526 23.64C29.5926 23.24 29.7926 22.7533 29.9526 22.18C30.1259 21.5933 30.2592 20.98 30.3526 20.34C30.4592 19.6867 30.5259 19.0533 30.5526 18.44ZM24.8326 15.84H27.1526L27.1526 32.8H24.8326L24.8326 15.84ZM21.6526 19.68H29.6526V21.88H21.6526L21.6526 19.68ZM24.7926 20.58L26.2926 21.26C26.0792 21.98 25.8326 22.7333 25.5526 23.52C25.2726 24.3067 24.9592 25.08 24.6126 25.84C24.2792 26.6 23.9192 27.3133 23.5326 27.98C23.1592 28.6467 22.7726 29.2333 22.3726 29.74C22.2926 29.5 22.1792 29.2333 22.0326 28.94C21.8992 28.6333 21.7592 28.34 21.6126 28.06C21.4659 27.7667 21.3192 27.5133 21.1726 27.3C21.6659 26.7667 22.1459 26.12 22.6126 25.36C23.0792 24.5867 23.5059 23.78 23.8926 22.94C24.2792 22.1 24.5792 21.3133 24.7926 20.58ZM28.2926 14.12L29.7926 16.02C29.0726 16.2867 28.2859 16.52 27.4326 16.72C26.5926 16.92 25.7326 17.1 24.8526 17.26C23.9726 17.4067 23.1192 17.5333 22.2926 17.64C22.2526 17.3733 22.1659 17.06 22.0326 16.7C21.8992 16.3267 21.7659 16.02 21.6326 15.78C22.4192 15.66 23.2192 15.52 24.0326 15.36C24.8459 15.1867 25.6192 15 26.3526 14.8C27.0859 14.5867 27.7326 14.36 28.2926 14.12ZM27.1526 22.16C27.2726 22.2667 27.4526 22.4533 27.6926 22.72C27.9459 22.9733 28.2059 23.2533 28.4726 23.56C28.7526 23.8533 29.0059 24.1333 29.2326 24.4C29.4726 24.6533 29.6392 24.84 29.7326 24.96L28.3926 26.92C28.2859 26.6667 28.1326 26.3733 27.9326 26.04C27.7326 25.6933 27.5192 25.34 27.2926 24.98C27.0792 24.6067 26.8659 24.26 26.6526 23.94C26.4526 23.62 26.2726 23.36 26.1126 23.16L27.1526 22.16Z" fill="#FF8457"/>
</svg>
