<svg width="443" height="373" viewBox="0 0 443 373" fill="none" xmlns="http://www.w3.org/2000/svg">
<path d="M225.01 42.6899C207.555 29.8285 189.028 47.2165 179.15 55.5346C166.747 64.2865 160.552 65.7552 151.531 64.0637C82.4617 55.0425 90.9191 87.7445 97.967 113.117C119.11 164.143 91.201 185.287 76.8235 210.659C12.2652 270.707 62.0308 302.275 84.2488 304.508C148.258 305.875 129.823 309.047 160.703 319.21C215.338 345.915 249.091 332.524 273.983 325.935C318.278 313.001 320.932 319.21 346.657 319.21C364.733 324.117 380.717 322.036 390.291 311.909C399.864 301.782 401.534 275.164 390.291 263.122C385.476 257.966 383.117 254.972 379.352 250.443C344.684 208.74 352.718 192.125 370.177 172.456C385.661 155.012 374.015 140.361 366.257 135.216C363.317 133.257 330.487 120.272 316.495 97.8105C297.738 41.9244 284.325 46.4781 269.95 46.4781C262.247 46.4781 246.828 58.7668 225.01 42.6899Z" fill="#E4C5F2"/>
<path d="M225.856 7.81421C204.172 -8.16333 181.156 13.4375 168.886 23.7708C153.478 34.6432 145.781 36.4677 134.574 34.3664C48.7712 23.1595 59.2777 63.7846 68.0331 95.304C94.2991 158.693 59.6279 184.959 41.767 216.479C-38.4324 291.075 23.3903 330.291 50.9913 333.065C130.508 334.764 107.608 338.704 145.969 351.33C213.84 384.504 255.771 367.87 286.695 359.684C341.721 343.616 345.018 351.33 376.975 351.33C399.431 357.425 419.288 354.84 431.181 342.26C443.074 329.679 445.148 296.612 431.181 281.653C425.2 275.247 422.269 271.527 417.592 265.902C374.525 214.095 384.505 193.455 406.194 169.02C425.429 147.35 410.962 129.15 401.324 122.758C397.672 120.323 356.888 104.192 339.505 76.2893C316.205 6.86321 299.542 12.5202 281.684 12.5202C272.114 12.5202 252.961 27.7861 225.856 7.81421Z" stroke="black" stroke-width="3"/>
<circle cx="256.328" cy="93.5845" r="2.91479" fill="black"/>
<circle cx="198.929" cy="83.2706" r="2.91479" fill="black"/>
<path d="M191.785 93.2289C199.103 98.1636 211.056 105.843 225.784 109.79C240.513 113.736 262.042 107.908 262.042 107.908" stroke="black" stroke-width="3" stroke-linecap="round"/>
</svg>
