<svg width="54" height="59" viewBox="0 0 54 59" fill="none" xmlns="http://www.w3.org/2000/svg">
<path d="M13.2806 4.62655C6.32214 4.06966 2.79541 20.0291 2.79541 20.0291L7.52754 37.5655L22.9553 56.0593L37.8688 46.4728L50.8588 31.9982C50.8588 31.9982 57.3766 15.4568 46.4978 7.87397C38.2858 2.14992 26.6718 19.3403 26.6718 19.3403C26.6718 19.3403 20.2391 5.18343 13.2806 4.62655Z" fill="#EF3838"/>
<mask id="mask0_676_101" style="mask-type:alpha" maskUnits="userSpaceOnUse" x="2" y="4" width="51" height="53">
<path d="M13.2806 4.62655C6.32214 4.06966 2.79541 20.0291 2.79541 20.0291L7.52754 37.5655L22.9553 56.0593L37.8688 46.4728L50.8588 31.9982C50.8588 31.9982 57.3766 15.4568 46.4978 7.87397C38.2858 2.14992 26.6718 19.3403 26.6718 19.3403C26.6718 19.3403 20.2391 5.18343 13.2806 4.62655Z" fill="white"/>
</mask>
<g mask="url(#mask0_676_101)">
<path d="M6.49021 -1.6001L45.5346 49.2822L-0.363281 26.8525L28.0894 56.9666" stroke="#FFD700"/>
</g>
</svg>
