<svg width="260" height="207" viewBox="0 0 260 207" fill="none" xmlns="http://www.w3.org/2000/svg">
<path d="M166.455 65.8428L250.982 64.9775L224.912 170.398L133.969 189.712L48.7349 128.801L91.0405 26L166.455 65.8428Z" fill="#FF61B0"/>
<path d="M89.7423 16.8819L165.156 56.7252L249.683 55.8594L223.613 161.28L132.671 180.593L47.4359 119.683L89.7423 16.8819Z" fill="#7DC5E4"/>
<path d="M84.9776 110.206C88.11 111.75 91.2792 113.234 94.8715 113.948C94.9351 114.01 95.0145 114.058 95.1008 114.094C96.4908 115.031 98.136 115.498 99.8442 115.849C100.739 116.032 101.643 116.516 102.472 115.559C104.059 114.904 103.638 113.787 103.534 112.741C103.434 112.457 103.33 112.176 103.23 111.892C103.48 110.849 102.68 110.156 102.315 109.319C102.023 108.907 101.733 108.491 101.438 108.077C101.29 107.501 100.991 107.024 100.395 106.735C99.9655 105.774 99.2677 104.996 98.3873 104.343C98.3481 103.692 97.8246 103.433 97.2343 103.227C97.1742 103.144 97.0913 103.086 96.9821 103.053C96.9112 102.904 96.8403 102.754 96.7693 102.604C96.5897 102.071 96.1311 101.755 95.6532 101.452C95.6974 101.028 95.2687 101.21 95.0554 101.112C95.067 100.912 94.9751 100.793 94.7375 100.786C94.5802 100.57 94.4245 100.351 94.2672 100.134C93.8755 99.8434 93.4785 99.5543 93.0869 99.2633L93.1639 99.1372C93.942 99.2308 94.603 99.5399 95.2395 99.8941C95.3802 99.8919 95.5245 99.891 95.6636 99.892C96.2503 100.104 96.8353 100.32 97.422 100.532C99.0841 101.303 100.748 102.07 102.41 102.841C102.937 103.629 104.023 103.632 104.811 104.057C105.488 104.33 106.17 104.6 106.846 104.873L106.85 104.874C107.102 105.569 107.945 105.536 108.506 105.851C110.862 106.699 113.081 107.799 115.571 108.392C117.274 108.799 118.805 110.147 120.831 108.793C121.066 108.655 121.305 108.519 121.54 108.382C122.395 107.658 123.194 106.918 122.525 105.83C122.374 106.319 122.223 106.807 122.071 107.296C121.668 107.283 121.267 107.266 120.86 107.251C120.696 107.913 120.069 107.269 119.788 107.613C118.669 107.602 117.545 107.594 116.425 107.583C116.136 106.754 115.403 106.5 114.481 106.492C114.246 106.409 114.008 106.326 113.776 106.24C112.951 105.944 112.121 105.65 111.297 105.354C110.88 105.085 110.522 104.732 109.938 104.718C109.897 104.614 109.816 104.577 109.689 104.599L109.675 104.594C108.724 103.753 107.422 103.479 106.201 103.071C106.138 102.978 106.049 102.915 105.93 102.879C105.519 102.156 104.621 102.126 103.892 101.858C102.559 101.205 101.393 100.3 99.8415 99.9871C99.5322 99.6068 99.0391 99.5023 98.553 99.385C97.4092 98.3923 95.9119 97.9488 94.4111 97.5195C93.8524 97.2557 93.5384 96.5493 92.6614 96.8556C92.0358 96.5981 91.4191 96.3632 90.7008 96.2839C89.458 96.1504 88.8828 96.7184 89.1113 97.6598C89.3345 98.5953 89.6374 99.6489 91.0492 99.7984C91.1136 100.598 91.9411 100.71 92.5071 101.054C92.9793 101.22 93.4498 101.389 93.9184 101.554C93.4462 101.388 92.9758 101.219 92.5071 101.054C92.5915 102.027 93.7807 101.932 94.3071 102.481C96.0044 104.261 97.7034 106.037 99.4008 107.817C99.5616 108.027 99.726 108.238 99.8869 108.448C100.077 108.885 100.265 109.325 100.455 109.761C100.474 109.865 100.541 109.921 100.665 109.927C100.812 109.92 100.958 109.908 101.085 109.885C100.957 109.911 100.812 109.92 100.665 109.927C100.847 110.199 101.027 110.466 101.209 110.738C101.429 111.105 101.647 111.475 101.866 111.841C101.682 112.476 101.601 113.091 102.11 113.603C101.97 113.883 101.832 114.161 101.696 114.442C100.343 114.091 98.9921 113.736 97.6394 113.384C96.5655 112.761 95.3274 112.448 94.1101 112.096C93.4106 111.827 92.711 111.557 92.0115 111.288C90.6967 110.703 89.5725 109.776 87.9516 109.731C86.915 108.696 85.2608 108.674 83.9635 108.057C83.5739 107.871 83.0217 107.463 82.6597 108.113C82.3764 108.619 82.227 109.166 82.8551 109.645C83.3845 110.048 84.0544 109.897 84.606 110.127C84.731 110.147 84.8543 110.176 84.9776 110.206ZM93.7258 98.796C93.7433 98.7638 93.7643 98.7329 93.7835 98.6975C93.7625 98.7284 93.7433 98.7638 93.7258 98.796C93.6624 98.788 93.599 98.7724 93.5444 98.7484C93.599 98.7724 93.6589 98.7867 93.7258 98.796ZM96.7282 103.933C97.7136 104.906 98.6129 105.936 99.4016 107.053C98.6111 105.939 97.7083 104.908 96.7282 103.933ZM99.6823 114.847C99.8301 114.863 99.9763 114.89 100.112 114.928C99.9745 114.886 99.8301 114.863 99.6823 114.847ZM97.6508 114.126L97.7382 113.973C97.7347 113.972 97.6508 114.126 97.6508 114.126ZM98.5209 114.86C97.9655 115.049 97.6732 114.995 97.5896 114.752C97.6767 114.997 97.9637 115.052 98.5209 114.86Z" fill="white"/>
<path d="M120.666 106.421C120.961 105.315 121.177 104.226 120.252 103.326C119.999 102.816 120.259 102.05 119.385 101.849C119.206 101.469 119.165 101.019 118.703 100.793C118.59 100.52 118.477 100.248 118.364 99.9756C118.114 99.3766 117.559 99.0173 117.015 98.651C116.858 98.4455 116.698 98.2431 116.54 98.0375C116.483 97.434 116.01 97.1765 115.439 96.997C115.254 96.7964 115.07 96.5927 114.889 96.3934C113.882 95.3235 112.9 94.2245 111.353 93.6897C110.903 92.6199 109.643 92.2663 108.844 91.503C108.219 91.1561 107.597 90.8061 106.972 90.4592C108.001 90.1791 108.665 90.7868 109.448 91.1013C110.148 91.1201 110.681 91.6568 111.445 91.465C111.653 91.5186 111.862 91.569 112.069 91.6225C112.989 92.294 114.234 92.2562 115.318 92.5753C116.417 93.1614 117.649 93.4366 118.958 93.517C119.969 94.0139 121.161 93.9981 122.266 94.2231C122.84 94.4569 123.417 94.5708 124.022 94.1766C124.121 94.2166 124.221 94.2308 124.333 94.2153C124.452 94.2629 124.571 94.3106 124.687 94.357C125.259 94.3137 125.83 94.2703 126.401 94.227C127.077 94.4945 127.562 94.2679 127.902 93.6818C128.282 93.311 128.661 92.9434 129.041 92.5727C129.993 90.9025 130.107 89.2157 129.615 87.514C129.433 86.4708 129.221 85.4433 128.283 84.7201C128.243 84.5729 128.201 84.4289 128.157 84.2805C128.285 83.2608 127.073 82.9887 126.782 82.2047C126.79 81.8632 126.794 81.5205 126.307 81.4397C126.232 81.3632 126.146 81.3011 126.045 81.2491C125.955 80.5312 125.398 80.0917 124.891 79.6214C124.792 79.5056 124.695 79.3867 124.596 79.2709C123.365 77.876 122.128 76.4905 120.436 75.49C120.386 75.3921 120.303 75.3313 120.184 75.3063C119.303 74.1048 118.061 73.2469 116.705 72.4986C116.164 71.8231 115.479 71.3062 114.579 71.0167C113.864 70.205 112.948 69.6226 111.867 69.2246C111.968 69.0084 112.067 68.7953 112.168 68.5791C112.291 68.6053 112.416 68.6283 112.535 68.6533C114.516 69.1135 116.392 69.8904 118.541 69.86C118.793 70.1756 119.155 70.2561 119.589 70.1998C121.549 71.004 123.689 71.3485 125.822 71.7057C126.417 71.9319 127.003 72.174 127.705 72.0578C127.823 72.0934 127.943 72.1303 128.061 72.166C129.509 73.0578 131.342 72.9452 132.987 73.3232C133.284 73.425 133.579 73.5299 133.873 73.6304C133.947 73.51 134.021 73.3897 134.095 73.2693C134.204 73.3056 134.316 73.3431 134.427 73.3762C134.834 73.405 135.24 73.4295 135.647 73.4583C135.785 73.2213 135.926 72.9856 136.081 72.8383C135.926 72.9856 135.787 73.2182 135.647 73.4583C135.24 73.4295 134.834 73.405 134.427 73.3762C134.318 73.3399 134.204 73.3056 134.095 73.2693C134.021 73.3897 133.947 73.51 133.873 73.6304C135.194 74.0706 136.502 74.548 137.997 74.4775C138.484 74.6037 138.97 74.7255 139.457 74.8518C140.244 75.0053 141.036 75.145 141.82 75.3124C142.665 75.4907 143.511 75.5144 144.037 74.7243C144.551 73.9486 144.159 73.343 143.446 72.8917C143.445 72.4675 143.011 72.4027 142.726 72.2107C142.14 71.511 141.634 70.7498 140.742 70.3006C139.812 69.3116 138.706 68.4926 137.518 67.7491C137.032 67.4152 136.547 67.0857 136.061 66.7518C135.909 66.7565 135.759 66.758 135.607 66.7626C135.518 66.9189 135.425 67.074 135.334 67.2334C135.423 67.0771 135.513 66.9208 135.607 66.7626C135.757 66.7611 135.909 66.7565 136.059 66.755C135.752 66.1918 135.089 66.031 134.534 65.7474C133.979 64.9381 132.932 64.6816 132.129 64.1518C131.272 63.4319 130.393 62.7454 129.199 62.4463C128.594 61.4935 127.135 61.5358 126.439 60.6895C126.012 60.4984 125.581 60.306 125.154 60.1149C124.629 59.3656 123.626 59.2954 122.82 58.9461C122.632 58.8352 122.443 58.7242 122.256 58.6101L122.251 58.6044C121.774 57.9865 120.975 57.8323 120.223 57.605C120.01 57.5079 119.801 57.4121 119.589 57.3149C118.899 56.5999 117.895 56.348 116.929 56.0418C116.815 55.9923 116.701 55.9428 116.587 55.8932C116.525 55.8098 116.433 55.7571 116.323 55.7316C115.675 54.9485 114.593 54.7929 113.658 54.4225C113.171 54.2584 112.948 53.6923 112.292 53.784C112.209 53.7535 112.123 53.7444 112.032 53.7524C111.344 53.0039 110.307 52.7739 109.322 52.4646C108.869 52.2829 108.418 52.1056 107.965 51.9239C107.944 51.8254 107.879 51.7861 107.765 51.8048C107.262 51.1962 106.461 51.0225 105.702 50.7775C105.429 50.6619 105.171 50.4952 104.879 50.437C104.451 50.3551 103.947 49.8028 103.579 50.3863C103.196 50.9981 103.816 51.2377 104.366 51.402C104.851 51.9587 105.424 52.3547 106.338 52.1311C106.359 52.1918 106.404 52.231 106.47 52.2552C106.561 52.376 106.653 52.4968 106.745 52.6176C106.966 53.1187 107.539 53.1782 108.016 53.3613C108.063 53.2762 108.106 53.1898 108.152 53.1047C108.076 53.054 107.996 53.0096 107.908 52.9734C107.996 53.0096 108.076 53.054 108.149 53.1035C108.102 53.1885 108.059 53.2749 108.013 53.36C109.33 53.7308 110.303 54.7091 111.767 54.824C112.502 55.6616 113.59 55.994 114.698 56.2992C114.724 56.3883 114.791 56.432 114.9 56.4228C115.211 57.0782 116.033 57.0475 116.612 57.34C116.725 57.3927 116.832 57.4472 116.944 57.4999C118.665 58.3937 120.265 59.4627 122.142 60.1379C123.031 60.7298 123.844 61.4224 124.995 61.664L124.997 61.6609C125.176 62.2376 125.803 62.2449 126.311 62.4015C126.376 62.2969 126.441 62.1923 126.51 62.089C126.445 62.1936 126.38 62.2982 126.311 62.4015C127.255 63.335 128.651 63.7198 129.748 64.4713C130.033 65.2648 131.077 65.1078 131.631 65.5612L131.629 65.5568C132.647 66.4078 133.713 67.2008 135.114 67.5686C135.145 67.6558 135.213 67.7071 135.316 67.7225C136.271 69.4052 138.176 70.2421 139.628 71.4836L139.614 71.5013C139.772 71.6993 139.935 71.8953 140.093 72.0933C140.528 72.3444 140.968 72.5968 141.404 72.8478C141.48 72.9213 141.568 72.9802 141.668 73.0246C141.529 73.3253 141.316 73.5495 140.927 73.592C140.378 73.3444 139.826 73.0924 139.276 72.8448C139.156 72.823 139.033 72.812 138.903 72.8135C137.584 72.7596 136.462 72.0706 135.102 72.1453C134.357 71.9584 133.778 71.3522 132.866 71.5954C132.092 71.4999 131.438 71.0475 130.594 71.1571C130.371 71.1016 130.145 71.0448 129.922 70.9893C129.135 70.6054 128.335 70.2467 127.346 70.3937C127.113 70.3192 126.876 70.2435 126.645 70.1659C125.771 69.6517 124.682 69.6937 123.699 69.4645C123.23 69.2581 122.784 68.9881 122.182 69.1715C119.225 68.1103 116.088 67.5088 112.944 66.9274C112.852 66.8748 112.756 66.8695 112.647 66.909C112.014 66.4037 111.142 66.609 110.386 66.4745C110.161 66.3994 109.935 66.32 109.71 66.2449C109.284 65.8689 108.825 66.0254 108.358 66.266C107.959 66.2517 107.592 65.9578 107.155 66.2205C106.575 66.2645 105.993 66.2661 105.938 67.0139C105.897 67.6002 105.959 68.0655 106.571 68.4193C107.788 69.1243 109.062 69.7254 110.412 70.2257C110.421 70.9478 111.096 70.9123 111.644 71.0267C111.736 71.0945 111.836 71.1541 111.945 71.2055C114.815 73.2864 117.686 75.3673 120.556 77.4483C120.821 77.7538 121.081 78.0612 121.346 78.3668C121.561 79.3122 122.537 79.554 123.303 79.9909C123.359 80.1173 123.416 80.2481 123.472 80.3745C123.944 81.3502 124.558 82.2342 125.406 82.9774C125.418 82.7282 125.433 82.4801 125.444 82.2309C124.996 81.9943 124.816 81.6555 124.802 81.2382C124.816 81.6555 125 81.9955 125.444 82.2309C125.433 82.4801 125.418 82.7282 125.406 82.9774L125.429 82.9592C125.549 83.3704 125.607 83.8193 126.198 83.9231C126.335 84.1438 126.472 84.3644 126.613 84.5863C126.991 85.1869 127.373 85.7888 127.751 86.3894C127.914 88.0536 128.555 89.6736 127.923 91.4122C127.873 91.5187 127.825 91.6297 127.775 91.7362C127.596 91.9958 127.414 92.2541 127.235 92.5137C126.759 92.6109 126.239 92.5294 125.824 92.8798C125.686 92.8971 125.544 92.9132 125.408 92.9273C123.363 92.614 121.318 92.3006 119.273 91.9873C118.336 91.6654 117.43 91.2717 116.36 91.2942C116.125 91.2229 115.89 91.1516 115.658 91.0815C115.171 90.8265 114.7 90.5248 114.045 90.7605C113.993 90.7111 113.932 90.6699 113.863 90.6369C113.529 90.162 113.095 89.8926 112.396 90.1843C112.077 89.7644 111.678 89.5001 111.033 89.6865C110.65 89.3302 110.073 89.3981 109.59 89.2655C109.365 89.1753 109.137 89.0838 108.912 88.9936C107.135 88.3401 105.463 87.4641 103.463 87.2809C103.458 87.1919 103.406 87.1501 103.304 87.1542C102.835 86.6525 102.203 86.4955 101.455 86.5649C100.515 86.2721 99.6933 85.6785 98.5613 85.8902C98.0496 85.6793 97.6978 85.8071 97.6061 86.3333C97.5009 86.9301 97.6443 87.5579 98.2922 87.7167C100.048 88.1505 101.286 89.3511 102.988 89.8447C104.778 90.8928 106.566 91.9439 108.356 92.9919C108.563 93.4955 109.145 93.5696 109.596 93.7924C109.867 94.3839 110.564 94.5832 111.033 94.9941C111.322 95.4449 112.192 95.2502 112.334 95.866C112.921 96.7821 113.813 97.4238 114.812 97.9655C114.994 98.142 115.176 98.3186 115.354 98.4939C115.403 98.5723 115.477 98.6262 115.579 98.6447C115.561 99.1566 116.059 99.3624 116.333 99.6976C116.334 100.023 116.555 100.173 116.887 100.227C117.13 100.732 117.154 101.35 117.761 101.668C117.905 101.71 118.047 101.754 118.19 101.795C118.048 101.751 117.905 101.71 117.761 101.668C117.909 102.524 118.605 103.06 119.18 103.665C119.291 105.038 119.788 106.393 119.012 107.795C119.408 107.808 119.801 107.824 120.2 107.839C120.368 107.378 120.517 106.9 120.666 106.421ZM139.8 71.1912C139.988 71.2037 140.135 71.1858 140.25 71.1413C140.135 71.1858 139.986 71.2069 139.8 71.1912ZM142.455 72.1525C142.27 72.1262 142.085 72.1149 141.902 72.1687C142.083 72.1181 142.27 72.1262 142.455 72.1525ZM125.642 70.9775C125.4 70.9794 125.16 70.9402 124.917 70.9226C125.16 70.9402 125.397 70.9781 125.642 70.9775ZM126.044 71.3598C126.598 71.3328 127.15 71.309 127.704 71.282C127.755 71.3421 127.791 71.4047 127.812 71.4654C127.793 71.4016 127.755 71.3421 127.704 71.282C127.15 71.309 126.598 71.3328 126.044 71.3598ZM108.01 67.0799C108.053 66.986 108.094 66.8952 108.137 66.8013C108.096 66.892 108.053 66.986 108.01 67.0799ZM110.564 68.4013C110.676 68.4313 110.784 68.4631 110.894 68.4962C111.078 68.3105 111.171 68.004 111.41 67.8841C111.171 68.004 111.078 68.3105 110.898 68.4975C110.784 68.4631 110.671 68.4332 110.564 68.4013ZM109.043 68.9465C109.119 68.9972 109.197 69.0371 109.273 69.0651C109.193 69.0359 109.116 68.9959 109.043 68.9465ZM116.137 73.4811C115.998 73.2939 115.742 73.1241 115.631 72.9244C115.742 73.1241 115.996 73.2971 116.137 73.4811C117.037 73.8085 117.634 74.4103 118.211 75.0348C117.634 74.4103 117.034 73.8073 116.137 73.4811ZM120.303 76.5191C120.434 76.5674 120.554 76.6227 120.644 76.7012C120.552 76.6258 120.434 76.5674 120.303 76.5191ZM126.776 83.1142C127.021 83.5106 127.555 83.779 127.751 84.1954C127.555 83.779 127.022 83.5074 126.776 83.1142ZM119.379 92.1207C119.379 92.1207 119.366 92.1049 119.349 92.0834L119.379 92.1207ZM102.363 87.6327C102.477 87.7731 102.635 87.8726 102.895 87.8891C103.046 88.0845 103.259 88.2574 103.393 88.4616C103.257 88.2606 103.045 88.0877 102.895 87.8891C102.633 87.8758 102.474 87.7719 102.363 87.6327ZM105.13 89.8573C105.165 89.8321 105.201 89.8114 105.237 89.7907C105.201 89.8114 105.168 89.8334 105.13 89.8573ZM106.814 90.5067C106.814 90.5067 106.843 90.4986 106.874 90.4873L106.814 90.5067Z" fill="white"/>
<path d="M201.941 136.781C198.271 136.337 194.618 135.831 191.221 134.541C191.123 134.555 191.023 134.551 190.927 134.533C189.105 134.523 187.442 134.036 185.817 133.431C184.967 133.114 183.878 133.014 183.957 131.887C183.202 130.6 184.393 129.987 185.28 129.266C185.577 129.107 185.876 128.952 186.173 128.792C186.777 127.894 187.943 127.787 188.876 127.353C189.424 127.196 189.974 127.035 190.526 126.878C191.086 126.527 191.689 126.326 192.384 126.414C193.463 125.92 194.614 125.698 195.814 125.661C196.345 125.199 196.959 125.273 197.585 125.419C197.697 125.387 197.807 125.387 197.919 125.418C198.09 125.343 198.261 125.268 198.433 125.194C198.985 124.89 199.591 124.889 200.203 124.906C200.494 124.57 200.694 124.922 200.938 124.957C201.083 124.803 201.247 124.762 201.441 124.877C201.732 124.797 202.024 124.713 202.315 124.633C202.849 124.616 203.386 124.603 203.92 124.586L203.956 124.454C203.267 124.13 202.505 124.024 201.728 123.964C201.618 123.891 201.505 123.817 201.394 123.747C200.765 123.608 200.136 123.471 199.508 123.331C197.597 123.06 195.688 122.786 193.778 122.514C192.754 122.831 191.892 122.283 190.94 122.199C190.194 122.058 189.445 121.913 188.699 121.772L188.695 121.772C187.961 122.158 187.318 121.707 186.632 121.656C184.112 121.092 181.507 120.782 179.077 119.96C177.414 119.4 175.165 119.622 174.599 117.596C174.517 117.375 174.433 117.154 174.351 116.933C174.23 115.966 174.165 115.014 175.531 114.548C175.276 114.985 175.02 115.423 174.765 115.861C175.095 116.055 175.426 116.246 175.759 116.441C175.382 117.013 176.374 116.854 176.331 117.251C177.227 117.809 178.126 118.372 179.021 118.93C179.888 118.464 180.665 118.646 181.402 119.107C181.651 119.165 181.904 119.223 182.154 119.278C183.035 119.476 183.919 119.678 184.801 119.876C185.338 119.888 185.892 119.809 186.367 120.094C186.479 120.038 186.572 120.051 186.655 120.132L186.67 120.135C188.071 119.995 189.314 120.45 190.595 120.767C190.717 120.73 190.836 120.728 190.958 120.762C191.84 120.435 192.574 120.867 193.359 121.038C194.917 121.229 196.537 121.15 198.008 121.704C198.545 121.579 199.017 121.751 199.492 121.911C201.162 121.755 202.69 122.185 204.21 122.627C204.856 122.714 205.647 122.351 206.107 123.021C206.801 123.147 207.471 123.286 208.101 123.59C209.189 124.12 209.209 124.831 208.305 125.412C207.409 125.991 206.359 126.617 205.125 126.013C204.459 126.572 203.717 126.236 203.004 126.203C202.502 126.087 201.999 125.975 201.5 125.859C202.002 125.975 202.506 126.088 203.004 126.203C202.189 126.88 201.319 126.208 200.48 126.348C197.766 126.805 195.054 127.259 192.341 127.717C192.052 127.79 191.759 127.863 191.47 127.937C190.984 128.164 190.497 128.394 190.011 128.621C189.916 128.688 189.82 128.695 189.717 128.638C189.605 128.557 189.499 128.475 189.416 128.394C189.498 128.478 189.605 128.557 189.717 128.638C189.364 128.746 189.015 128.853 188.662 128.961C188.206 129.121 187.749 129.285 187.294 129.445C186.952 130.007 186.543 130.503 185.747 130.624C185.642 130.902 185.538 131.177 185.43 131.454C186.773 131.879 188.117 132.3 189.459 132.724C190.79 132.807 192.012 133.202 193.248 133.557C194.01 133.712 194.771 133.867 195.533 134.022C197.025 134.255 198.629 134.137 199.949 134.924C201.565 134.684 202.894 135.504 204.397 135.704C204.849 135.764 205.6 135.742 205.388 136.406C205.224 136.923 204.922 137.403 204.056 137.439C203.326 137.47 202.911 137.019 202.297 136.91C202.183 136.861 202.062 136.821 201.941 136.781ZM203.773 123.917C203.783 123.885 203.79 123.851 203.802 123.815C203.795 123.849 203.783 123.885 203.773 123.917C203.829 123.944 203.891 123.964 203.953 123.974C203.891 123.964 203.833 123.944 203.773 123.917ZM197.444 126.197C195.915 126.418 194.411 126.724 192.927 127.151C194.41 126.728 195.918 126.422 197.444 126.197ZM186.715 132.773C186.586 132.71 186.449 132.655 186.312 132.615C186.454 132.653 186.586 132.71 186.715 132.773ZM188.88 133.267L188.929 133.11C188.932 133.11 188.88 133.267 188.88 133.267ZM187.627 133.369C187.922 133.79 188.195 133.898 188.448 133.761C188.191 133.898 187.921 133.793 187.627 133.369Z" fill="white"/>
<path d="M174.66 114.539C175.286 113.556 175.963 112.626 177.407 112.424C178.008 112.171 178.398 111.461 179.255 111.758C179.695 111.564 180.079 111.247 180.627 111.313C180.93 111.166 181.233 111.02 181.536 110.873C182.204 110.551 182.93 110.565 183.652 110.568C183.939 110.495 184.224 110.424 184.511 110.35C185.028 109.926 185.609 109.975 186.206 110.132C186.512 110.077 186.818 110.018 187.119 109.961C188.761 109.672 190.407 109.35 192.065 109.74C193.261 109.167 194.547 109.547 195.784 109.383C196.555 109.442 197.328 109.498 198.099 109.557C197.493 108.819 196.486 108.936 195.612 108.771C195.037 108.426 194.19 108.556 193.727 108.021C193.519 107.955 193.312 107.885 193.104 107.819C191.842 107.852 190.873 107.186 189.755 106.87C188.415 106.747 187.213 106.323 186.1 105.712C184.901 105.567 183.958 104.945 182.896 104.547C182.253 104.429 181.701 104.219 181.524 103.613C181.414 103.592 181.322 103.551 181.244 103.482C181.111 103.457 180.979 103.432 180.85 103.407C180.425 103.082 180.001 102.756 179.576 102.431C178.825 102.286 178.614 101.867 178.798 101.252C178.783 100.778 178.766 100.308 178.75 99.8337C179.29 98.0903 180.515 96.7635 182.237 95.7362C183.198 95.0455 184.17 94.3816 185.487 94.3186C185.634 94.2285 185.78 94.1417 185.93 94.0524C186.623 93.2201 187.808 93.6372 188.653 93.1967C188.914 92.936 189.178 92.6762 189.632 92.8651C189.751 92.8457 189.869 92.8434 189.99 92.8557C190.622 92.3622 191.412 92.3174 192.186 92.2238C192.356 92.1874 192.526 92.1477 192.696 92.1113C194.772 91.6938 196.846 91.286 198.983 91.4009C199.1 91.353 199.214 91.3499 199.329 91.3922C200.973 90.9402 202.639 90.932 204.31 91.0643C205.271 90.8335 206.224 90.7962 207.172 91.04C208.379 90.7964 209.567 90.8275 210.746 91.0829C210.833 90.8685 210.92 90.6573 211.007 90.4428C210.889 90.3996 210.771 90.3532 210.656 90.3109C208.707 89.6411 206.597 89.2638 204.896 88.1393C204.449 88.2478 204.095 88.1223 203.791 87.8579C201.592 87.4578 199.606 86.6198 197.617 85.7949C196.963 85.6602 196.304 85.5418 195.832 85.0944C195.71 85.061 195.584 85.0267 195.462 84.9933C193.605 84.9218 192.222 83.8975 190.608 83.3386C190.29 83.2627 189.971 83.1901 189.657 83.1151C189.692 82.9867 189.727 82.8583 189.761 82.73C189.646 82.7014 189.526 82.672 189.412 82.6403C189.062 82.453 188.718 82.2634 188.369 82.0762C188.443 81.8276 188.514 81.5781 188.505 81.388C188.514 81.5781 188.444 81.8243 188.369 82.0762C188.718 82.2634 189.062 82.453 189.412 82.6403C189.527 82.6688 189.646 82.7014 189.761 82.73C189.727 82.8583 189.692 82.9867 189.657 83.1151C188.255 82.7693 186.833 82.4576 185.689 81.6382C185.2 81.4834 184.715 81.3261 184.226 81.1713C183.474 80.883 182.731 80.5824 181.971 80.3063C181.154 80.0073 180.457 79.5914 180.652 78.7278C180.845 77.8812 181.632 77.6267 182.556 77.6527C182.888 77.3344 183.286 77.5079 183.665 77.5098C184.681 77.284 185.681 76.9712 186.747 77.0908C188.265 76.824 189.791 76.7749 191.324 76.825C191.975 76.8232 192.62 76.8237 193.271 76.8219C193.389 76.9032 193.508 76.9814 193.626 77.0627C193.576 77.226 193.529 77.3901 193.478 77.5567C193.528 77.3934 193.579 77.2301 193.626 77.0627C193.507 76.9846 193.389 76.9032 193.27 76.8251C193.955 76.5592 194.613 76.7784 195.28 76.8496C196.356 76.5255 197.396 76.8694 198.453 76.8825C199.702 76.7804 200.943 76.7149 202.134 77.1019C203.363 76.6959 204.5 77.4754 205.719 77.1961C206.211 77.2713 206.706 77.3473 207.198 77.4225C208.204 77.1284 209.063 77.5899 209.982 77.7403C210.22 77.7535 210.458 77.7667 210.696 77.7767L210.705 77.775C211.569 77.5548 212.331 77.8488 213.112 78.0632C213.358 78.0992 213.601 78.1343 213.847 78.1703C214.958 77.986 215.959 78.3111 216.973 78.5761C217.103 78.5974 217.233 78.6186 217.364 78.6399C217.479 78.6091 217.593 78.6165 217.702 78.654C218.833 78.3974 219.821 78.8346 220.86 79.0355C221.379 79.1619 222 78.8504 222.454 79.2555C222.545 79.2751 222.621 79.3125 222.688 79.3654C223.824 79.1551 224.834 79.5136 225.866 79.7859C226.371 79.8814 226.871 79.9794 227.376 80.0749C227.47 80.0116 227.553 80.0157 227.63 80.0881C228.508 79.8882 229.286 80.1684 230.086 80.3731C230.395 80.4262 230.732 80.433 231.012 80.5389C231.419 80.6969 232.255 80.54 232.094 81.1672C231.924 81.8237 231.239 81.6857 230.67 81.5276C229.847 81.6975 229.079 81.7017 228.52 81.0649C228.456 81.0998 228.389 81.1062 228.317 81.0907C228.149 81.1345 227.981 81.1782 227.814 81.2219C227.245 81.4855 226.739 81.2364 226.214 81.1295C226.243 81.0418 226.276 80.9548 226.305 80.8671C226.406 80.868 226.504 80.8754 226.603 80.8934C226.504 80.8754 226.406 80.868 226.309 80.8679C226.28 80.9557 226.247 81.0426 226.217 81.1303C224.872 80.7342 223.328 80.9709 222.064 80.3067C220.821 80.56 219.689 80.2518 218.562 79.9135C218.472 79.9671 218.383 79.9654 218.303 79.9027C217.542 80.2361 216.907 79.7918 216.214 79.7148C216.083 79.6968 215.955 79.6829 215.823 79.6649C213.746 79.455 211.628 79.4385 209.596 78.9841C208.421 78.9733 207.228 79.0771 206.117 78.669L206.118 78.6657C205.524 79.0073 205.015 78.6916 204.486 78.5489C204.515 78.4368 204.544 78.3246 204.57 78.2117C204.54 78.3238 204.511 78.4359 204.486 78.5489C203 78.767 201.58 78.3407 200.114 78.3435C199.266 78.7938 198.551 78.1406 197.753 78.1976L197.758 78.1951C196.278 78.3133 194.804 78.3632 193.393 77.9215C193.3 77.971 193.205 77.975 193.11 77.9334C191.032 78.7093 188.851 78.362 186.717 78.5511L186.714 78.5714C186.433 78.6394 186.15 78.7034 185.869 78.7714C185.323 78.7368 184.774 78.7013 184.228 78.6667C184.11 78.6829 183.993 78.682 183.878 78.664C183.755 78.9613 183.751 79.2392 184.029 79.4703C184.664 79.5659 185.303 79.6591 185.937 79.7547C186.051 79.8003 186.158 79.8549 186.26 79.9224C187.36 80.5581 188.798 80.6154 189.831 81.3688C190.574 81.61 191.511 81.4508 192.053 82.1014C192.748 82.4262 193.626 82.4213 194.217 82.9362C194.439 83.0088 194.665 83.0821 194.887 83.1546C195.818 83.2692 196.74 83.4098 197.418 84.0272C197.663 84.0908 197.912 84.1552 198.159 84.2156C199.26 84.2767 200.101 84.8666 201.069 85.1982C201.605 85.2832 202.174 85.3089 202.514 85.7553C205.714 86.4732 208.699 87.629 211.674 88.8035C211.789 88.8109 211.871 88.8565 211.927 88.9419C212.829 88.8866 213.368 89.4876 214.08 89.7743C214.318 89.833 214.562 89.8893 214.801 89.948C215.436 89.8836 215.682 90.2365 215.868 90.6568C216.2 90.8505 216.723 90.8176 216.869 91.2395C217.3 91.5698 217.765 91.8693 217.226 92.4596C216.801 92.9216 216.389 93.2398 215.622 93.192C214.095 93.098 212.604 92.8968 211.131 92.581C210.56 93.1193 210.046 92.7466 209.518 92.5519C209.391 92.5559 209.264 92.5493 209.137 92.5321C205.211 92.6253 201.285 92.7186 197.359 92.8118C196.908 92.9057 196.459 93.0036 196.008 93.0975C195.098 93.698 194.126 93.3794 193.171 93.3152C193.028 93.3817 192.88 93.4507 192.736 93.5172C191.596 94.0086 190.414 94.3587 189.153 94.4827C189.339 94.2895 189.521 94.0954 189.706 93.9021C190.25 93.9538 190.659 93.7917 190.995 93.4848C190.659 93.7917 190.246 93.953 189.706 93.9021C189.521 94.0954 189.339 94.2895 189.153 94.4827L189.15 94.4575C188.732 94.705 188.335 95.0126 187.78 94.7879C187.498 94.8835 187.216 94.9791 186.93 95.074C186.158 95.3317 185.382 95.5886 184.61 95.8464C183.18 97.0137 181.403 97.9036 180.553 99.5346C180.51 99.6402 180.461 99.7483 180.418 99.8539C180.359 100.141 180.304 100.428 180.244 100.715C180.551 101.032 181.031 101.238 181.091 101.714C181.188 101.798 181.289 101.882 181.387 101.963C183.272 102.775 185.157 103.588 187.041 104.401C188.044 104.639 189.078 104.807 189.919 105.373C190.163 105.44 190.407 105.507 190.647 105.573C191.237 105.631 191.85 105.645 192.192 106.158C192.272 106.148 192.353 106.148 192.434 106.158C193.073 105.973 193.631 105.993 193.964 106.57C194.547 106.418 195.074 106.424 195.446 106.895C196.031 106.823 196.44 107.17 196.932 107.318C197.182 107.365 197.437 107.413 197.687 107.461C199.622 107.88 201.647 108.079 203.394 108.966C203.468 108.902 203.542 108.897 203.621 108.952C204.389 108.816 205.018 109.022 205.564 109.457C206.546 109.719 207.668 109.694 208.411 110.433C208.986 110.537 209.168 110.813 208.831 111.256C208.45 111.759 207.845 112.157 207.201 111.944C205.455 111.371 203.525 111.639 201.775 111.138C199.521 111.008 197.267 110.882 195.013 110.752C194.454 111.025 193.93 110.782 193.394 110.718C192.715 111.024 192.001 110.817 191.304 110.885C190.72 111.076 190.174 110.484 189.58 110.874C188.394 111.262 187.178 111.287 185.954 111.182C185.67 111.222 185.387 111.261 185.107 111.302C185.007 111.336 184.905 111.338 184.809 111.3C184.423 111.694 183.863 111.593 183.382 111.705C183.127 111.949 182.833 111.948 182.525 111.819C181.935 112.074 181.433 112.526 180.699 112.454C180.551 112.412 180.403 112.373 180.256 112.33C180.404 112.369 180.551 112.412 180.699 112.454C179.912 113.022 178.936 113.069 178.003 113.229C176.843 114.204 175.385 114.968 174.914 116.42C174.587 116.227 174.258 116.037 173.927 115.843C174.152 115.411 174.406 114.975 174.66 114.539ZM186.807 78.2432C186.647 78.1561 186.543 78.0674 186.485 77.9747C186.543 78.0674 186.646 78.1593 186.807 78.2432ZM183.928 77.6052C184.097 77.6801 184.254 77.7663 184.358 77.9005C184.253 77.7696 184.097 77.6801 183.928 77.6052ZM198.329 85.3396C198.522 85.4649 198.745 85.5586 198.954 85.6701C198.745 85.5586 198.525 85.4657 198.329 85.3396ZM197.709 85.4211C197.285 85.1168 196.861 84.8158 196.438 84.5115C196.35 84.5309 196.272 84.5593 196.208 84.5942C196.273 84.556 196.35 84.5309 196.438 84.5115C196.861 84.8158 197.285 85.1168 197.709 85.4211ZM215.512 91.4471C215.551 91.3545 215.589 91.2652 215.628 91.1726C215.59 91.2619 215.551 91.3545 215.512 91.4471ZM212.433 91.1316C212.319 91.0965 212.209 91.0655 212.094 91.0337C212.091 90.7997 212.256 90.5219 212.158 90.3089C212.256 90.5219 212.091 90.7997 212.09 91.0329C212.209 91.0655 212.322 91.1006 212.433 91.1316ZM213.227 92.3212C213.127 92.3203 213.033 92.3104 212.95 92.2925C213.037 92.3112 213.131 92.3211 213.227 92.3212ZM203.999 92.0944C204.257 92.0248 204.594 92.0283 204.839 91.9351C204.594 92.0283 204.255 92.028 203.999 92.0944C203.021 91.879 202.073 92.0253 201.123 92.1992C202.073 92.0253 203.025 91.8798 203.999 92.0944ZM198.287 92.243C198.144 92.212 198.005 92.1923 197.871 92.2052C198.004 92.1956 198.144 92.212 198.287 92.243ZM187.948 93.8835C187.443 94.0562 186.805 93.9841 186.322 94.1966C186.805 93.9841 187.444 94.0529 187.948 93.8835ZM186.852 104.447C186.852 104.447 186.875 104.441 186.905 104.434L186.852 104.447ZM204.002 109.795C203.801 109.842 203.597 109.836 203.375 109.714C203.101 109.784 202.796 109.805 202.529 109.89C202.795 109.808 203.1 109.787 203.375 109.714C203.596 109.839 203.805 109.842 204.002 109.795ZM200.047 110.049C200.039 110.012 200.026 109.978 200.013 109.944C200.026 109.978 200.035 110.011 200.047 110.049ZM198.19 109.674C198.19 109.674 198.172 109.653 198.156 109.629L198.19 109.674Z" fill="white"/>
<path d="M48.4438 84.5371C48.073 84.979 47.6738 85.4059 47.2554 85.8105C46.4684 85.9903 45.8672 85.0431 46.4526 84.7969C47.1428 84.4946 47.7816 85.0001 48.4438 84.5371ZM5.88721 12.083C6.26359 13.1893 6.9859 14.0549 7.62744 15.082C7.72443 15.1272 7.82112 15.1708 7.91455 15.2148C8.07024 14.9752 8.22746 14.7375 8.3833 14.498C8.52401 14.5692 8.67376 14.6467 8.81396 14.7178C7.8661 15.1534 8.36863 15.5472 8.59814 16.4746C8.07678 16.4709 7.81071 15.9979 7.44971 16.4941C8.83746 17.0161 9.67164 18.5751 11.0552 19.043C11.3992 19.1588 11.9072 18.5562 12.4673 19.1201C12.3907 19.1694 12.2865 19.287 12.1997 19.3633C12.7184 19.6003 13.154 19.7965 13.5444 20.0205L13.5278 20.0068C14.1315 20.334 14.635 20.7448 15.1646 21.4609C15.2764 21.187 15.3919 20.9138 15.5034 20.6396C15.1715 20.5573 14.8448 20.4819 14.519 20.4062C14.6487 19.9124 15.014 19.933 14.2886 19.375C14.2188 19.3214 14.1609 19.2811 14.1128 19.251L14.1489 19.2803C13.7963 19.0462 13.9286 19.3806 13.7163 19.3652C13.3873 19.3404 13.4436 18.9024 13.0845 18.8789C12.8061 18.8584 12.7462 19.314 12.356 18.8594C12.8594 18.6269 13.3792 18.3858 13.8843 18.1455C13.9218 18.3238 13.9575 18.5017 13.9937 18.6797C13.7982 18.692 13.6042 18.7038 13.4067 18.7139C13.747 18.8014 14.0751 18.8831 14.4077 18.9629L14.3618 18.9277C14.5632 18.9706 14.7851 19.0279 14.9966 19.0742C14.4127 19.5374 15.022 19.6683 15.3101 19.7861C15.7645 19.9741 15.139 20.1162 15.4292 20.2402C15.7243 20.3658 16.3337 20.1363 16.6909 20.5732C16.2579 20.6409 16.3927 21.1193 16.146 21.3037C15.8971 21.486 15.4066 21.18 15.6372 21.7793C16.6361 22.2603 16.4319 20.6445 17.1138 20.9541C17.9369 21.3311 16.9445 22.9072 16.4888 23.0508C16.1322 23.1647 15.6201 22.6745 15.269 22.792C15.8985 24.0157 16.6054 23.1622 16.9077 23.126C18.0209 23.008 16.2769 24.3126 17.4839 24.3057C17.2224 24.6018 16.9881 24.8696 16.7368 25.1533C16.9046 25.1963 17.0468 25.1886 17.2339 25.2666C17.2738 24.3097 17.6148 24.6267 17.8052 24.7793C18.1006 25.0151 17.8821 24.3563 18.02 24.3428C18.3967 24.3143 18.6491 24.6696 18.6606 24.2432C18.6524 24.4393 18.6515 24.6434 18.6479 24.8418C19.1106 24.9637 20.965 24.3468 19.981 23.9766C20.4377 23.5589 20.5063 23.9924 20.6382 24.2197C20.7729 24.4487 21.0151 24.1447 21.1421 24.3398C21.6337 25.1111 20.7714 25.2696 20.3354 25.5889C21.4563 26.0367 20.7319 25.1393 22.1724 26.002C22.5653 25.7727 22.2607 24.9385 22.9087 25.1494C22.5318 25.7965 22.5603 26.5052 23.1177 27.2773C23.2946 27.2022 23.4707 27.1245 23.647 27.0488C23.5998 27.8919 22.9616 28.2878 24.2085 28.2129C22.8385 29.1059 23.7336 28.5492 23.9751 29.5654C24.0237 29.7703 23.5195 29.7764 23.5962 30.0508C23.6314 30.175 23.9851 30.1498 24.0698 30.4619C24.1095 30.6146 24.1875 31.4537 24.689 31.4951C24.935 30.7213 25.9431 30.7151 25.8208 29.8086C26.6809 30.7103 27.5834 30.981 25.856 30.8984C25.9574 31.2763 26.0548 31.6493 26.1548 32.0244C26.4379 32.0234 26.7263 32.0284 27.0073 32.0273C26.6412 32.5294 26.5014 32.6398 27.2437 33.1055C26.858 32.9794 26.4746 32.8598 26.0913 32.7373C26.0021 32.8259 25.879 32.8932 25.812 32.9951C26.3179 33.1007 27.3885 33.8431 27.7388 33.916C28.0876 33.9882 27.6434 33.5664 27.8149 33.5C29.2385 32.9578 28.5704 33.6691 29.1353 33.8389C29.4673 33.9371 28.9709 33.3425 29.1382 33.4053C29.7637 33.6461 29.5386 34.3683 29.9702 34.7324C30.0672 34.2975 30.1702 33.8593 30.2749 33.4258C30.7176 33.8147 31.218 34.2267 31.7251 34.4756C31.9214 34.5707 31.9844 34.2404 32.0239 34.2471C32.2208 34.2767 32.8644 34.596 32.9272 34.6445C33.3645 34.9983 33.116 35.3241 33.5269 35.6885C33.3379 35.5792 33.161 35.4761 32.978 35.3701C32.4838 35.8256 31.9874 36.2806 31.4927 36.7373C31.8723 37.1096 32.2657 37.4908 32.647 37.8643C32.4854 37.4458 32.318 37.0225 32.1548 36.6025C32.9722 36.5757 33.7832 36.5415 34.603 36.5146C34.6048 36.5342 34.6062 36.5546 34.6079 36.5742L34.7427 36.7031C34.7119 37.1436 34.6787 37.5824 34.645 38.0205C35.2831 38.6079 36.1755 37.5934 35.5688 38.6787C35.8129 38.8049 36.0553 38.9299 36.2983 39.0576C36.1483 39.1408 35.9978 39.2249 35.8481 39.3086C36.1302 39.4728 36.4116 39.6372 36.6929 39.7998C36.9256 39.1654 37.1836 38.5121 37.4019 37.8887C37.9024 38.2625 37.5323 38.6036 37.4976 38.7549C37.4076 39.1556 38.0565 39.2166 37.9536 39.5654C37.9163 39.6833 37.2729 39.4529 37.1206 39.8594C37.0902 39.939 36.5617 41.465 37.1343 41.6318C37.3201 41.4578 37.5307 41.2235 37.7261 41.0264C38.2931 41.4432 37.5154 42.5759 37.1743 42.751C37.6072 42.8531 37.9712 43.2427 38.3286 43.0342C38.4573 43.1688 38.5847 43.3025 38.7124 43.4365C37.8333 43.9346 38.4717 44.4026 39.1548 43.8896C38.9629 43.6317 38.7736 43.3755 38.5825 43.1201C39.5328 42.6239 39.3814 41.4724 39.9585 43.6426C39.7942 44.2888 39.5704 43.0711 39.4644 43.5752C39.6388 44.1455 40.1202 44.4084 40.1655 45.0508C40.2174 45.8493 39.3584 45.5279 40.7847 46.2988C39.8123 42.7871 41.8642 45.9844 43.2144 46.9131C42.8551 47.432 42.7214 47.9562 42.7827 48.4727C42.7934 48.4851 42.8042 48.4982 42.8149 48.5107C42.9878 48.3181 43.1618 48.1273 43.3354 47.9365C43.5089 48.0365 43.6813 48.1382 43.8501 48.2383C43.7267 47.8526 43.5971 47.43 43.5776 47.1299C43.9819 47.2526 45.5078 48.2753 44.2661 47.7891C44.2924 47.9028 44.3152 48.0117 44.3345 48.1162C44.6888 48.0397 45.2324 48.1321 45.5493 47.9619C45.8863 48.4776 45.7122 49.9524 46.6411 49.7998C46.6638 49.4311 46.6861 49.0631 46.7085 48.6943C46.9072 48.7968 47.1071 48.9003 47.3081 49.0039C47.3052 49.1246 47.3013 49.2455 47.2983 49.3662C47.1964 49.3155 47.0952 49.2656 46.9937 49.2139C47.0603 49.4276 47.1253 49.6409 47.1899 49.8545C47.5466 49.5964 47.9072 49.3391 48.272 49.084C47.8656 48.7986 47.4596 48.5141 47.0552 48.2324C47.6338 48.0337 47.9807 48.3521 48.5005 48.1182C48.8493 48.6793 48.6536 48.9486 48.4106 49.4727C48.5718 49.4471 48.7323 49.4232 48.8892 49.3975C48.7107 49.9307 48.9332 50.2933 48.0405 50.127C48.081 50.2912 48.1238 50.4489 48.1616 50.6191C48.3108 50.6145 48.3913 50.7592 48.5562 50.7207C49.0072 50.6151 49.4768 49.7027 49.4956 49.3613C49.5042 49.1825 49.0292 49.4589 49.0815 49.2119C49.2089 48.61 50.1557 49.0213 48.8198 48.2119C49.3449 47.8898 49.4106 48.1959 49.9175 48.3828C49.9056 48.1743 49.8948 47.9671 49.8843 47.7588C50.1144 47.887 50.3459 48.0152 50.5767 48.1445C50.0867 49.135 51.8174 49.7913 50.0737 50.4629C50.5379 50.5785 51.0146 50.6992 51.4683 50.8193C51.356 50.9111 51.2441 51.0018 51.1323 51.0938C50.9303 51.0052 50.7227 50.918 50.5181 50.8311C50.739 51.0634 50.9672 51.296 51.1812 51.5283C51.8016 51.376 52.0913 51.041 52.4341 50.625C51.8002 50.1822 51.9516 50.6747 51.4058 50.6836C51.469 50.3957 51.485 50.1235 51.5786 49.8252C51.7608 50.469 52.7319 50.1736 52.9487 50.1787C53.6042 50.193 53.0063 50.7027 53.4321 50.7852C53.8631 50.8681 54.4166 50.5999 54.6665 51.2441C54.7159 50.9151 54.7455 50.5705 54.771 50.2676C55.4538 50.2727 55.2559 50.6384 55.3159 50.7002C56.2738 51.7146 56.9832 51.1234 58.2534 51.2695C58.1129 51.1388 57.9691 51.0172 57.8257 50.8926C58.9003 50.372 58.223 50.4662 57.4419 50.0879C58.1996 50.2966 58.7522 49.7871 59.3335 49.7139C59.9137 49.6409 60.7884 50.1234 61.0845 50.4268C60.2292 50.6547 59.4404 50.2449 58.5483 50.1885C58.5855 50.54 58.6291 50.8406 58.6626 51.2256C59.3206 50.6253 59.5383 51.1482 59.6929 51.2744C60.148 51.6429 60.2479 51.0415 60.4302 51.7451C60.4606 51.521 60.4886 51.3326 60.5161 51.123C61.5496 51.4185 62.5995 52.0361 63.4478 51.3584C63.4017 51.9027 63.3448 52.4244 63.3052 52.9814C63.8288 52.6724 64.1232 53.1599 64.5142 53.1445C64.9042 53.1285 64.8538 52.6701 65.3247 52.5967C65.4119 52.5834 65.5236 52.8868 65.7642 52.7314C66.0066 52.5739 67.0671 51.2558 66.8765 52.5664C67.2489 52.6534 67.5925 52.7782 67.9546 52.8809C67.5809 52.8748 67.208 52.8673 66.8374 52.8633C67.0735 53.2422 67.3073 53.6194 67.5425 53.999C67.6424 53.7289 67.7426 53.4533 67.8403 53.1865C68.7351 53.0277 69.2278 53.616 70.0737 53.6953C70.2156 53.7086 70.0159 53.0831 70.5972 53.3633C71.179 53.6448 71.3949 54.7762 72.521 54.624C72.5792 54.6121 73.0729 53.905 73.3169 54.5361C73.3715 54.6793 72.972 54.7765 73.1274 54.9844C73.2846 55.1926 74.1198 55.535 74.0933 55.9365C74.1171 55.7981 74.0967 55.643 74.104 55.498C74.2671 55.4686 74.432 55.4388 74.5962 55.4111C74.5515 55.6546 74.5088 55.8994 74.4644 56.1416C75.4376 55.7876 76.1204 54.9894 77.2974 55.6055C77.033 55.1687 76.7667 54.7294 76.4985 54.293C76.3402 54.5132 76.1805 54.7353 76.0239 54.9561C75.4596 54.7127 74.9098 54.4761 74.3501 54.2373C74.1871 54.4928 74.0255 54.7482 73.8628 55.0039C73.7176 54.9307 73.573 54.8592 73.4272 54.7861C73.5141 54.5938 73.6014 54.4019 73.6899 54.21C73.372 54.1861 73.05 54.1629 72.7349 54.1406C73.6402 53.0971 74.4448 54.6565 74.604 53.6426C74.704 53.8301 74.8039 54.0193 74.9028 54.208C75.0809 53.7405 75.3234 53.9463 75.7974 54.1436C75.7415 53.8779 75.6757 53.6129 75.6313 53.3477C76.0272 53.7998 76.8942 53.9813 77.355 54.2344C77.5577 54.3455 77.2537 54.6395 77.3071 54.6973C77.5851 54.9949 78.3635 54.5446 78.4897 54.6279C79.2173 55.1191 79.4308 56.4042 80.4829 55.8701C79.6496 55.4513 80.1088 55.6552 79.9038 55.1514C79.8385 54.9929 78.7603 54.4179 80.1694 54.915C80.3307 54.9719 82.7417 56.4675 81.7163 56.8457C82.1896 56.7644 82.5784 56.6275 83.0161 56.5254C83.5241 58.3868 83.6123 56.7933 83.5601 55.8877C83.7181 55.9271 83.87 55.9596 84.0308 56.0039C83.4555 56.7811 85.1574 57.3105 85.8638 57.0391C86.1038 56.9497 85.6269 56.5135 86.1245 56.5127C86.3261 56.6357 86.5505 56.7854 86.7593 56.9189C86.5854 56.2751 87.297 56.25 87.4487 55.6895C87.7215 56.307 87.7256 57.452 87.3354 57.958C87.7369 57.8241 88.1498 57.6947 88.5659 57.5654C88.4444 57.3858 88.3204 57.2053 88.1968 57.0254C89.2405 57.7106 90.8813 57.3438 90.7749 58.5889C90.926 58.6263 91.0776 58.6649 91.2271 58.7021C91.3337 58.5194 91.4397 58.336 91.5464 58.1533C92.1489 58.5278 92.7741 58.9147 93.3833 59.2998C92.7567 59.232 92.5047 59.4602 91.9644 59.04C92.1216 59.3379 92.3076 59.6463 92.4712 59.9473C93.6138 59.6445 93.8302 59.2694 95.2046 59.9307C95.2747 59.9641 96.1223 60.8199 96.1577 60.8887C96.2468 61.172 95.8781 61.4099 95.9126 61.5498C96.0238 61.9436 96.9303 63.1661 96.856 63.2793C96.0669 64.6415 92.0043 63.2801 90.8345 63.0146C79.0079 60.2205 67.5767 56.336 55.5972 54.3848C55.474 54.3667 55.487 54.6034 55.4331 54.6045C55.0977 54.6046 54.8401 54.1942 54.7222 54.1582C54.4711 54.0842 54.5553 54.4365 54.3687 54.4053C52.6685 54.1124 51.0631 53.7026 49.3735 53.4609C49.4872 53.7169 49.5382 53.9477 49.3628 54.2256C49.8229 54.4668 49.8989 54.8209 50.1821 55.2178C50.3367 55.4349 50.6339 55.1751 50.6587 55.3457C50.8128 56.4884 49.8531 55.9193 51.7397 57.0967C51.8435 56.7469 51.951 56.3932 52.0493 56.0352C52.261 56.1755 52.472 56.3142 52.6812 56.4551C52.7204 56.6117 52.7577 56.7673 52.7974 56.9268C52.2907 57.2335 51.7825 57.5417 51.2759 57.8486C51.3352 58.007 51.3948 58.1653 51.4517 58.3223C51.2574 58.1126 51.0559 57.8943 50.8599 57.6895C50.758 57.7227 50.6569 57.7575 50.5552 57.791C50.6361 58.2259 50.7157 58.6696 50.7847 59.1045C50.9656 59.0064 51.1476 58.9075 51.3286 58.8096C51.5594 59.7696 51.4143 59.8644 52.3433 60.377C52.6661 60.9842 53.6889 61.0986 54.1987 61.3145C54.1612 61.4998 54.1209 61.6846 54.0806 61.8682C54.2756 61.88 54.4692 61.8916 54.6655 61.9082C54.531 62.1838 54.3943 62.4581 54.2534 62.7246C54.7878 62.5983 54.9751 62.5869 54.8315 61.8223C55.5568 61.7721 55.8271 63.1256 55.8081 63.7275C55.7949 64.1735 55.1081 63.9474 55.063 64.0215C55.016 64.0942 55.0221 64.1945 55.0522 64.3027C55.1221 64.5512 55.3235 64.846 55.3306 64.9453C55.3727 65.5421 55.5264 65.9173 55.5659 66.4521C55.5734 66.5568 55.3201 66.9278 55.313 66.957C55.3092 67.1506 55.2702 67.6396 55.2788 67.6904C55.7038 70.348 56.5 67.1603 56.9282 69.6895C57.111 69.5722 57.2931 69.4592 57.4751 69.3408C57.5296 69.5298 57.5834 69.7245 57.6353 69.918C57.5174 70.1983 57.1564 69.9605 57.4946 70.3994C57.2424 70.4141 56.99 70.429 56.7388 70.4434C56.9109 70.6233 57.0801 70.8044 57.2505 70.999C56.4583 71.4859 56.4197 72.7146 55.3892 72.7432C55.0425 72.7459 54.5829 72.0001 54.271 72.4688C54.2419 72.8145 54.6243 72.5356 54.6636 72.6709C54.9294 73.6753 54.3302 73.662 54.5142 74.0566C54.7669 74.1058 55.0249 74.1602 55.2798 74.2158C55.2147 74.3811 55.1469 74.544 55.0776 74.7041C55.2459 74.7365 55.4144 74.7705 55.5825 74.8047C55.5909 74.6538 55.597 74.4815 55.6021 74.3398C56.282 74.495 56.5381 76.386 56.0005 75.6562C55.7856 75.3697 55.877 74.857 55.1108 75.1797C55.221 75.6456 55.3119 76.1797 55.3726 76.6904C55.2069 76.6898 55.0411 76.6882 54.8755 76.6865C54.9104 77.3356 55.6317 76.836 55.9839 76.8623C55.9771 77.0214 55.9666 77.1839 55.9536 77.3467C55.7858 77.3922 55.6104 77.43 55.4468 77.4736C55.6959 77.5185 56.2748 77.7008 55.9624 78.1475C55.7574 78.4184 55.2326 77.8225 55.1929 78.3877C55.5852 78.444 56.1222 78.3343 56.0649 79.0352C55.6477 78.9872 55.259 78.9605 54.8286 78.8779C54.9594 79.7421 54.2602 79.806 54.1968 80.7803C54.1931 81.375 54.1985 82.8623 52.8872 81.834C52.5543 82.0346 52.8775 82.2842 52.8257 82.4307C52.5257 83.1368 51.7535 82.6153 51.6626 82.6025C50.9636 82.5523 50.7179 82.8544 50.1538 82.5625C50.2132 82.8547 50.2614 83.1334 50.3198 83.418C50.7882 82.9057 51.0206 82.8976 51.7261 82.7461C51.5273 82.8862 51.305 83.0181 51.0815 83.1328C51.1769 83.3576 51.2763 83.5818 51.3784 83.8027C52.4704 83.0022 52.824 82.8081 52.9214 83.124C52.9995 83.4133 52.5653 84.2561 51.4019 84.7012C51.1003 84.3139 50.8148 83.9135 50.5845 83.4961C50.1537 83.841 49.7598 83.9246 49.3774 83.8936C48.8576 83.8463 48.359 83.5908 47.6206 83.4395C47.4678 83.4107 46.8911 83.6046 46.645 83.582C46.6486 83.5842 46.6532 83.5867 46.6567 83.5889C46.4514 83.9853 46.6248 84.2049 46.603 84.5811C46.4598 84.6095 46.3214 84.638 46.1772 84.6641C45.92 84.3336 46.0611 84.1217 45.4712 84.0869C45.4987 84.3819 45.5275 84.6767 45.5591 84.9717C44.8985 84.8661 44.5371 84.4744 43.9126 84.4658C44.0387 84.3847 44.1622 84.3018 44.2847 84.2188C43.0682 83.6452 44.4871 82.2654 43.3481 82.833C43.3267 82.6754 43.3107 82.5165 43.2925 82.3594C43.6773 82.4292 44.0623 82.4923 44.4458 82.5449C44.5006 82.345 44.5559 82.1456 44.6089 81.9453C44.2011 81.9141 43.7885 81.8747 43.3794 81.8242C43.7025 81.7705 44.0261 81.7112 44.3452 81.6465C43.9164 81.4387 43.4954 81.2202 43.0825 80.9922C43.3372 81.8631 42.6964 81.7702 42.5923 82.5264C41.9402 81.6675 41.623 80.696 40.2241 80.707C39.9504 80.7084 39.8657 81.2489 39.4448 80.3691C39.278 81.2142 38.2551 81.1904 38.0308 81.9629C38.2919 82.0401 38.5597 82.1316 38.8179 82.1914C38.6538 81.8182 38.9235 81.1073 39.4097 81.0703C40.0307 81.0255 40.5915 81.8055 40.8638 81.0039C41.0536 81.1184 41.234 81.2103 41.4233 81.3135C41.271 81.4813 41.1182 81.6502 40.9634 81.8164C41.6553 81.7193 41.9715 81.9341 42.0991 82.5303C41.3563 82.4208 40.6151 82.2821 39.8755 82.1172C39.9647 82.1913 40.0546 82.2662 40.144 82.3379C39.4189 82.6316 39.7776 83.3342 38.7241 83.0234C38.8265 82.7985 38.9281 82.5719 39.0308 82.3457C38.4148 82.8081 37.4155 82.3471 37.4165 83.1826C37.207 82.8291 37.2164 82.6704 36.8677 82.958C36.3181 82.0539 36.1844 81.151 36.8481 80.5146C36.5084 80.4977 36.1688 80.4774 35.8276 80.4512C35.8732 80.7473 35.9216 81.0419 35.9722 81.3379C35.4923 81.0681 35.0075 80.7832 34.5405 80.4961C34.847 79.8627 35.5659 80.8306 35.5962 80.124C35.6018 79.9847 35.2157 80.0762 35.1831 79.9756C34.8749 78.9096 35.6861 80.0168 35.7729 79.3848C35.171 78.9069 35.5069 78.5755 35.3354 78.376C35.2414 78.2645 34.9975 78.1985 34.355 78.1436C34.428 77.9488 34.5011 77.7489 34.5776 77.5576C34.1255 77.2519 33.9102 77.6585 33.4653 77.4619C33.1837 77.3345 33.3519 76.4651 32.7661 76.7148C32.6562 76.7576 32.5269 77.9034 31.5933 77.1387C30.8802 76.532 31.6244 76.2297 31.4058 75.7285C31.1999 75.2427 29.7077 75.1791 30.2485 74.1621C30.3238 74.4417 30.5013 74.7215 30.6284 75C30.8574 74.9207 31.0816 74.8386 31.3052 74.7539C30.6472 74.5365 30.4126 73.8486 29.7524 73.8936C29.7329 73.0086 29.0768 72.684 28.521 72.9023C28.3597 72.9671 28.2094 73.0827 28.0942 73.2529C28.0924 73.2556 28.0912 73.259 28.0894 73.2617C28.3727 73.4037 28.4633 72.9175 28.5347 73.3799C28.4057 73.544 28.28 73.7101 28.1528 73.876C28.0319 73.7259 27.9219 73.587 27.8403 73.4629C27.6281 73.1391 27.6042 72.9175 28.0972 72.8057C28.0415 72.7142 27.987 72.6234 27.9312 72.5312C27.5687 72.802 27.206 73.0763 26.8433 73.3467C26.7228 73.2792 26.6028 73.2101 26.4829 73.1426C26.4698 72.9685 26.4573 72.7932 26.4458 72.6182C27.1259 72.3219 27.3447 72.5621 26.9839 71.4668C26.7884 71.6175 26.5925 71.7663 26.397 71.917C26.0799 71.0052 26.5357 70.6217 25.8364 69.7324C27.0393 69.9066 26.1299 71.2066 27.4868 70.1494C27.5308 70.3898 27.5729 70.6308 27.6196 70.8721C27.8358 70.743 28.0531 70.6131 28.2681 70.4824C27.452 69.6753 24.9714 69.0968 25.4155 67.8223C25.2532 67.8221 25.1054 67.8136 24.9331 67.8154C25.0478 66.8243 23.6352 67.3634 23.936 66.251C23.9744 66.1368 25.2164 65.5348 24.6919 64.752C24.5484 64.8634 24.2935 65.0279 24.1079 65.1602C24.0967 64.9239 24.094 64.6865 24.0942 64.4551C23.9314 64.5042 23.766 64.5501 23.6011 64.5977C23.7158 64.9398 23.8412 65.2862 23.9731 65.6289C23.7694 65.4024 23.5667 65.1676 23.3696 64.9326C23.3268 65.41 23.4179 65.5685 22.9194 65.5781C22.7203 65.2856 22.5267 64.9925 22.3403 64.6914C22.2248 64.7108 22.1075 64.7305 21.9917 64.749C21.7746 65.0545 21.571 65.3669 21.3599 65.6855C21.1397 64.7136 20.7897 63.9128 21.147 63C21.2113 62.8462 21.7543 63.1043 21.1177 62.4541C21.332 62.371 21.5037 62.2933 21.7017 62.2158C21.3001 61.897 21.107 61.6158 21.0454 61.3262C20.9689 60.9591 21.073 60.5688 21.2427 59.9658C20.9177 60.6918 21.1022 60.0609 20.8491 59.9238C20.6735 59.8303 20.7641 60.2825 20.5913 60.2568C20.4175 60.236 19.6649 59.7166 19.6626 60.2568C20.3189 60.7137 20.4274 61.0635 20.4048 61.4492C20.3801 61.9919 20.1546 62.6807 20.8774 63.4639C20.6145 63.2856 20.3538 63.0969 20.0981 62.8916C20.0259 63.0549 19.9593 63.1989 19.8892 63.3789C19.8088 62.3246 19.8117 62.8568 19.481 62.502C19.3199 62.3226 19.1439 62.0388 19.0024 61.7197C18.8713 61.4571 18.7593 61.1702 18.6899 60.9346C18.6481 60.7887 18.9765 60.8956 18.9507 60.5527C18.9318 60.3251 18.391 59.7372 18.9106 59.5234C19.2512 59.3976 20.3204 60.2502 20.1685 58.9043C20.4859 58.6209 20.4443 59.2668 20.4888 59.2793C20.9066 59.341 21.1267 58.5213 20.7983 58.1729C20.7694 58.1426 20.4686 58.4622 20.3237 58.1436C19.9835 57.3785 20.3627 56.893 20.8843 56.4434C20.3088 56.3715 19.6439 55.618 20.0269 54.792C19.8726 54.7161 19.7171 54.6389 19.563 54.5586C19.6196 54.7144 19.6785 54.8671 19.7417 55.0166C19.6133 55.1456 19.514 55.2921 19.3726 55.4229C19.3607 54.5156 18.6308 54.2028 18.4712 53.6445C18.0522 51.6564 19.7117 53.4105 19.9888 53.7344C19.7907 53.8747 19.5805 54.0135 19.3823 54.1689C19.5841 54.1961 19.7877 54.2252 19.9897 54.2568C20.6342 52.1873 21.318 54.3195 22.0044 53.5586C21.1693 52.9746 21.4632 52.1098 22.5337 51.8096C22.592 51.7307 22.6568 51.6526 22.7173 51.5762C22.6204 51.4669 22.4553 51.319 22.4038 51.2334C23.12 50.2504 24.2474 51.4161 24.3833 51.4814C25.0555 51.7886 24.8358 50.8944 24.9507 50.8203C25.2719 50.6197 25.5222 50.7297 25.7798 50.6699C25.8695 50.6513 25.9617 50.6089 26.0679 50.5186C26.5015 50.1651 26.0616 50.0017 26.1323 49.6885C26.1969 49.4359 26.6467 49.2579 26.7651 48.9971C26.739 49.1935 26.7078 49.3888 26.6899 49.585C27.3015 49.6698 27.8825 49.7895 28.521 49.7402C29.0886 48.284 30.061 50.4539 29.5649 48.666C28.893 48.6223 28.4612 48.484 28.0269 48.0879C28.4488 47.9499 28.9265 47.8192 29.3628 47.7051C29.5154 47.8886 29.6295 48.0723 29.8032 48.2588C30.0731 47.7966 30.925 47.9066 31.1919 47.7656C32.5588 47.0964 32.1823 46.3872 33.4839 47.5791C32.5651 47.7186 32.5597 48.312 31.6382 48.2783C31.8593 48.6902 32.3219 48.5817 32.0444 49.1045C32.9265 48.94 32.6385 48.4995 32.9624 48.085C33.2444 47.7281 33.8571 47.7001 33.8188 47.249C33.8847 47.4968 33.9351 47.7377 33.9995 47.9854C34.5992 47.9785 35.1645 47.9826 35.7466 47.9922C35.4929 48.2465 35.244 48.5038 35.0015 48.7598C35.182 48.8595 35.3645 48.9583 35.5464 49.0596C36.3427 48.6321 37.3942 48.9105 38.1499 48.9336C38.0672 48.723 37.983 48.5207 37.854 48.3682C37.3567 47.7792 36.7192 47.5672 36.231 46.9893C35.274 45.8595 34.5437 44.7366 33.5454 43.5781C32.7287 42.6303 31.9809 41.8321 31.0679 40.8037C31.0152 40.7444 30.9617 40.6852 30.9087 40.626C26.3826 37.0233 21.3916 33.829 17.1567 29.8643C17.0449 29.7583 17.2314 29.6271 17.1899 29.6045C16.7847 29.3982 16.5597 29.5996 16.8306 29.0156C16.3133 28.7541 15.8744 29.0006 15.3579 28.5391C15.082 28.293 15.7594 27.9065 15.0337 27.8018C14.3867 27.7151 14.6132 28.4081 13.5747 27.0488C13.5506 27.0138 13.6518 26.5282 13.313 26.4043C12.9755 26.2805 13.0809 26.7716 12.3755 26.3301C11.5994 25.8434 10.8199 25.1886 10.0396 24.5264L9.93506 24.4434C8.94224 23.5617 8.01793 22.6685 7.04248 21.9375C6.92901 21.8513 5.72628 21.159 5.44873 21.0732C4.91265 20.907 4.78625 21.2295 4.2124 20.8643C3.76962 20.5823 3.66698 20.0181 3.14307 19.6904C3.07769 19.651 2.75033 19.8778 2.41846 19.5459C2.09138 19.217 1.09114 18.7669 0.877441 18.0996C0.822831 17.9301 1.22469 16.6622 1.32568 16.5332C1.68057 16.1099 2.18991 16.4172 1.9165 15.7412C2.08841 15.8726 2.25779 15.9805 2.43115 16.1055C2.63211 15.7912 2.83205 15.4772 3.03369 15.165C2.8027 15.0529 2.55806 14.9311 2.32471 14.8193C2.39115 14.7151 2.4585 14.6101 2.5249 14.5059C3.25334 15.0791 3.11964 14.3685 3.76904 14.3193C3.56366 13.871 3.35203 13.4191 3.13818 12.9658C3.32707 13.1496 3.54425 13.3483 3.70361 13.5156C4.11552 13.0387 3.6064 12.8262 3.604 12.6758C3.60684 11.8364 5.47235 13.7385 6.2124 13.1602C5.94823 12.8187 5.66076 12.4633 5.38135 12.1133C5.54669 12.1004 5.72023 12.0945 5.88721 12.083ZM41.4995 82.625C41.9711 83.4446 42.3501 82.8147 42.9478 83.0391C43.0846 83.0901 42.5019 83.3676 43.0757 83.459C42.5894 83.6069 42.1249 83.7085 41.6392 83.8213C41.5774 83.5904 41.5144 83.3591 41.4595 83.1289C41.3253 83.2201 41.1876 83.3093 41.0503 83.3984C41.2029 83.1412 41.3456 82.8873 41.4995 82.625ZM47.4868 81.7754C45.917 81.9163 44.2302 82.0471 44.9956 83.7598C45.135 83.7386 45.2743 83.7182 45.4097 83.6943C45.5667 82.9751 45.9532 83.4607 46.6421 83.5801C46.7828 83.3063 47.1653 83.2854 47.2651 83.0469C47.4499 82.5855 47.0754 82.2026 47.4868 81.7754ZM35.3599 81.9521C35.6856 81.6485 35.634 82.0896 35.6479 82.1025H35.646C36.9712 82.3447 35.3823 82.2375 36.4507 82.8477C36.2415 82.8622 36.0279 82.8799 35.8179 82.8926C35.6616 82.5846 35.5065 82.2433 35.3599 81.9521ZM50.6011 81.5811C50.034 81.6497 49.9718 81.9356 49.8706 82.4863C50.1901 82.4053 50.488 82.3027 50.772 82.1768C50.7131 81.9795 50.6572 81.7803 50.6011 81.5811ZM52.5054 80.4521C52.2581 80.7906 51.6346 80.8064 51.6333 81.374C51.6046 81.7318 52.3604 81.5847 52.1304 82.249C52.5491 81.9689 52.511 81.7414 52.2183 81.4473C52.2707 81.3518 52.3199 81.2559 52.3628 81.1602C52.4467 81.1964 52.5333 81.2283 52.6206 81.2598C52.5502 81.0964 52.4751 80.9369 52.3931 80.7812C52.4841 80.7428 52.5752 80.6994 52.6665 80.6523C52.6119 80.5857 52.5705 80.5204 52.5054 80.4521ZM54.7476 80.5186C54.6467 80.1427 54.7307 79.7239 55.4097 79.959C55.4386 79.97 55.5622 80.5415 55.5405 80.583C55.1869 81.2481 54.8477 80.8884 54.7476 80.5186ZM32.0913 79.292C32.5326 79.5576 33.3453 79.4201 33.4448 79.5234L33.4438 79.5244C34.0589 80.1614 33.0868 80.2009 32.7417 80.3574C32.8123 79.7934 32.5058 79.6498 32.0913 79.292ZM34.5083 78.3701C34.8089 78.5744 34.9398 78.7944 34.9575 79.0117C34.9843 79.3322 34.7593 79.6439 34.4565 79.8564C34.3183 79.9536 34.1642 80.0298 34.0122 80.0771C34.0516 79.8648 34.0918 79.652 34.1343 79.4424C33.9099 79.4126 33.6837 79.38 33.4585 79.3438C33.8119 79.0228 34.1629 78.6977 34.5083 78.3701ZM36.6626 77.126C36.386 77.8192 36.1152 78.5171 35.8511 79.2178C36.0723 79.0519 36.2908 78.884 36.5063 78.7139C36.722 78.8644 36.9428 79.0156 37.1626 79.1621C37.266 78.9823 37.37 78.8 37.4731 78.6201C36.3341 78.3171 36.8533 77.911 36.6626 77.126ZM34.4019 51.9922C33.5009 52.0019 32.8946 52.5145 32.0864 52.5713C31.0711 52.6466 30.1325 52.402 29.1841 52.5303C29.0354 52.5516 29.1275 52.8984 28.9907 52.9316C28.4973 53.0503 27.8815 53.2639 27.522 53.3291C27.2448 53.3797 27.0375 53.2082 26.8403 53.1523C26.7257 53.129 26.6142 53.1389 26.521 53.2256C26.4381 53.3027 26.6198 53.7192 26.5249 53.8408C26.3767 54.0307 25.969 53.8373 25.8228 53.9043C25.6367 53.9919 26.0643 54.2217 25.8638 54.3359C25.8504 54.335 25.5898 54.1416 25.5649 54.1924C25.4985 54.3417 25.7126 54.4841 25.5796 54.6367C25.5642 54.6405 25.1449 54.7514 25.1274 54.7949C25.0348 54.9582 24.7827 55.3732 24.8159 55.5469C24.9342 56.1464 25.5134 55.7549 24.3657 56.1025C24.5967 56.3752 24.845 56.6337 25.0923 56.8994C24.8562 56.7054 24.4961 57.4373 24.5259 57.5078C24.723 57.965 25.125 57.6623 25.0981 58.2529C24.0671 57.5324 25.0356 59.0484 25.1382 59.4238C25.2152 59.7751 25.2874 60.1313 25.3579 60.4961C25.4839 61.1991 25.9001 62.5217 26.6763 63.7998C26.9997 64.3405 27.65 64.965 28.0483 65.5479C28.142 65.6839 27.8825 65.7123 27.9614 65.835C28.0417 65.9558 28.1608 65.677 28.2446 65.8193C28.7651 66.7145 28.8832 67.6824 29.9653 68.0869C29.9252 68.1785 29.8696 68.2209 29.8423 68.3428C30.637 68.6023 31.0485 69.8789 31.3521 70.5684C31.3873 70.6629 31.4218 70.7444 31.4556 70.8057C31.8492 71.5008 32.2637 71.3937 32.6108 71.8477C33.0642 72.4486 33.509 73.7551 33.8804 72.5127C34.2997 72.8227 34.699 73.1278 35.0659 73.5371C35.1067 73.5828 34.8948 73.8019 34.9106 73.8213C35.0097 73.9471 35.2093 73.7584 35.3003 73.8086C35.548 73.9449 34.9853 73.9415 35.3667 74.1016C35.5705 74.1842 35.8005 74.0622 36.2974 74.3828C36.6315 74.5974 36.9757 74.8096 37.3286 75.0186C40.2088 76.7337 43.4458 78.1455 46.5376 78.7227C46.7717 78.7649 46.6691 78.4529 46.9585 78.5186C47.6099 78.6672 48.5845 78.9913 49.3979 79.123C49.6997 79.1964 49.9211 79.2112 50.0493 79.1611C50.3744 79.0136 50.1418 78.6188 50.1304 78.4336C50.1237 78.4012 50.2282 78.6187 50.2407 78.6162C50.3008 78.6151 50.6538 78.8213 50.8345 78.668C50.9435 78.5754 50.6135 78.3791 50.6343 78.2861C50.6661 78.1505 51.1013 78.1134 51.1577 77.9971C51.4059 77.4588 51.1993 76.903 51.4243 76.1953C51.3378 76.2172 51.2572 76.229 51.1724 76.2451C51.2665 75.3919 51.2578 74.4227 51.1646 73.4141C51.0932 73.4696 51.0199 73.523 50.9468 73.5771C50.8596 72.4052 51.6779 72.3992 49.9565 72.7637C49.8831 72.6888 49.7986 72.6121 49.73 72.543C50.6313 72.4431 51.1814 71.6092 51.187 70.5889C51.1884 70.5113 50.2173 70.2473 51.2446 70.0518C50.9661 69.9892 50.7757 69.9587 50.5317 69.9111C50.7871 69.632 51.0348 69.3431 51.2817 69.0537C51.2055 68.955 51.1288 68.8543 51.0513 68.7559C50.8498 68.7963 50.6491 68.8679 50.4458 68.8887C50.2749 68.3941 50.1757 67.2747 50.0044 66.8818C49.9206 66.6859 49.815 66.4951 49.7026 66.3086C49.2834 65.6355 48.7403 65.0457 48.895 64.2637C48.6698 63.9396 48.4802 64.4609 48.269 63.9209C48.4218 63.7716 48.5679 63.6279 48.7231 63.4707C47.6908 63.452 48.144 63.1225 47.9849 62.4355C47.8788 61.977 47.5346 61.8214 47.3521 61.4238C47.3056 61.3221 47.5431 61.1997 47.4966 61.1377C47.3431 60.9299 46.648 60.4932 46.5435 60.3477C45.5922 59.0057 44.8133 57.7911 43.9585 56.4268C43.866 56.2808 43.782 56.615 43.687 56.4639C43.5335 56.2202 43.961 56.1204 43.8794 55.9727C43.644 55.5577 43.3026 55.8133 42.895 55.2988C42.2011 54.4237 41.5168 53.4182 40.8188 52.4023C40.7724 52.395 40.7212 52.3881 40.6636 52.3857C40.2675 52.3699 39.369 52.523 38.894 52.5586C37.766 52.1617 36.3541 52.2314 35.313 52.3242C34.7105 52.3793 34.6601 51.9915 34.4019 51.9922ZM27.3843 74.4121C27.692 74.4643 27.9985 74.5076 28.3022 74.5439C28.4354 74.6803 28.5682 74.8163 28.7046 74.9492C28.705 74.9504 28.7063 74.9519 28.7065 74.9531C28.4794 74.9641 28.2508 74.9737 28.021 74.9775C28.1017 75.1798 28.1986 75.3672 28.2778 75.5781C29.1848 75.4373 28.7484 75.9366 29.2964 76.3867C31.0186 77.717 31.2462 76.3959 31.7925 78.9141C30.5752 77.9238 30.5888 78.9205 29.4302 78.7852C29.5741 78.3021 30.9691 78.0709 30.6108 77.5029C29.4598 77.205 28.3436 76.8252 27.231 76.1182C27.1981 76.2007 27.1645 76.2833 27.1323 76.3662C27.3103 76.4787 27.4888 76.5872 27.6685 76.6943C27.3609 76.6928 27.0557 76.6877 26.7397 76.6729C27.2917 76.5424 26.592 76.2012 27.0728 75.8887C27.2862 75.7507 27.7525 75.7391 28.0493 75.7002C27.8202 75.2765 27.5899 74.8462 27.3843 74.4121ZM35.6655 77.4453C35.3333 77.5483 34.9954 77.6473 34.6567 77.7402C34.9201 77.8879 35.1856 78.0344 35.4546 78.1758C35.4604 78.1788 35.4664 78.1815 35.4722 78.1846C35.478 78.1616 35.4839 78.1382 35.4897 78.1152C35.547 77.8915 35.6053 77.6679 35.6655 77.4453ZM29.6079 75.9229C30.235 75.7556 29.8176 75.1877 30.5757 75.9912C30.5309 76.1399 30.4859 76.2898 30.4429 76.4395C30.1624 76.2734 29.8836 76.1014 29.6079 75.9229ZM56.2153 72.7568C56.6515 72.9022 56.9061 73.1881 56.9839 73.7959C56.8306 73.9029 56.6777 74.0072 56.5229 74.1094C56.9506 74.099 57.1201 74.2488 57.4351 74.5879L57.4341 74.5889C57.4828 75.5344 57.3233 75.4884 56.6177 75.6865C57.0325 74.723 56.3768 74.6862 55.9673 74.0713C55.6832 73.6559 55.7473 73.0803 55.1167 72.9863C55.7376 72.7905 56.215 73.7621 56.2153 72.7568ZM57.397 73.5576C57.8449 73.6225 57.4817 74.2904 58.1069 73.791C58.1323 74.0209 58.1538 74.2617 58.1733 74.4961C57.8983 74.3564 57.7024 74.5628 57.436 74.5879H57.4351C57.4114 74.2279 57.2643 73.8851 57.397 73.5576ZM31.437 73.5664C31.468 73.3947 31.5196 73.1058 31.2964 73.3672C30.8115 74.414 31.8805 74.4352 32.0239 74.0557C31.8242 73.9028 31.589 73.9094 31.4243 73.6738L31.437 73.5664ZM25.6196 72.7646C25.9689 73.0425 26.2578 73.3495 26.5767 73.6387H26.5757C26.2011 73.7744 24.9709 74.4619 24.7925 73.5635C24.7762 73.4793 25.7773 73.2064 25.6196 72.7646ZM58.3374 70.6943C58.2697 71.5892 58.4665 72.2917 58.7749 73.1338C58.1071 73.1473 57.4468 72.3883 56.8745 72.9658C56.8497 72.8044 56.8183 72.6338 56.7944 72.4756L56.7925 72.4736C56.9107 72.3327 57.1616 72.5378 57.2524 72.3281C57.3415 72.1172 57.0439 71.7864 57.4302 71.8193C57.5184 72.0819 57.6119 72.3519 57.6958 72.6279C58.2772 71.6478 57.5086 70.8493 58.3374 70.6943ZM24.5913 68.9688C25.0841 69.5116 24.5687 69.4597 24.3091 69.7432C24.5691 69.5481 25.869 70.0948 25.8228 70.3252H25.8247C25.6896 70.9591 24.8536 69.9705 24.6538 70.8232C24.3809 69.4725 23.0077 69.9942 24.5913 68.9688ZM56.7241 69.3936C55.7822 69.6922 55.1572 70.4426 56.7505 70.2402C56.9441 69.5545 56.1188 70.0467 56.7241 69.3936ZM22.7642 67.6797C22.8693 67.0075 24.4029 68.023 24.5796 68.5566C24.3872 68.6456 24.2285 68.7504 23.981 68.8145C24.1677 68.1483 22.7504 67.8006 22.7642 67.6797ZM19.0112 63.6172C19.2637 63.7464 19.5138 63.8575 19.7661 63.9648C19.6673 64.2458 19.5766 64.5314 19.4907 64.8203L19.4917 64.8223C19.6993 64.7785 19.9082 64.7356 20.1138 64.6865C20.2359 65.1535 20.3729 65.612 20.521 66.0635C19.4164 65.4255 19.0837 65.1265 19.0112 63.6172ZM56.4214 65.1953C56.6123 65.4781 56.8009 65.7644 56.9858 66.0547C56.8395 66.0274 56.6917 66.0007 56.5454 65.9746C56.1907 65.5462 55.826 65.1215 55.4595 64.7168C55.587 64.5986 55.7146 64.479 55.8413 64.3594L56.4214 65.1953ZM23.186 61.8779C23.045 61.9124 23.1379 61.4031 22.8823 61.6289C22.4284 62.0255 23.0924 62.8891 22.5073 63.1484C22.5461 62.719 22.1451 62.1023 21.8062 62.4434C21.4377 62.8461 22.4416 63.2204 22.2788 63.792C22.951 62.7759 23.2109 64.0908 22.5933 64.6045C23.5163 65.0251 23.3664 64.2583 23.0034 63.5625C23.7622 63.7307 23.1578 63.2361 23.5796 62.9277C24.027 63.227 24.5996 64.7917 24.9487 63.7275C25.087 63.3738 23.5972 63.5205 24.2388 62.4434C23.8929 62.4093 23.5844 62.426 23.2515 62.3936C23.5211 62.1936 23.7963 61.9912 24.0728 61.8105V61.8096C23.7799 61.2977 23.5148 61.7737 23.186 61.8779ZM51.2954 63.7402C51.801 64.0698 52.0256 64.1727 52.4058 63.7324V63.7305C52.1153 63.6459 51.8238 63.5644 51.5317 63.4854C51.4535 63.5704 51.3737 63.6548 51.2954 63.7402ZM52.8267 62.4082C52.2081 62.0659 51.8542 62.3686 51.5044 62.834C51.6069 62.8919 51.7083 62.9494 51.8101 63.0078C52.15 62.8094 52.4886 62.6102 52.8267 62.4082ZM54.8384 60.4062C55.1424 61.0732 55.662 61.0415 55.5249 61.7949C55.1951 61.3841 54.8605 60.9891 54.5239 60.6074L54.5259 60.6064C54.6301 60.5404 54.7343 60.4725 54.8384 60.4062ZM94.1401 59.7783C94.0493 59.8443 93.9217 60.2728 94.0884 60.3906C94.477 60.6678 95.111 60.784 95.5454 60.9648C95.682 60.4736 94.4759 60.2114 94.1401 59.7783ZM52.3188 59.3975C51.5174 58.7907 51.7582 56.4402 53.4995 58.2529C53.3007 58.3255 53.1032 58.3994 52.9048 58.4727C53.5695 59.4962 53.7861 60.8998 52.4438 60.2812C52.3867 59.8505 52.6663 59.8124 52.7817 59.4912L52.7808 59.4922C52.8104 59.4079 52.7254 59.1382 52.6802 59.0391C52.5567 59.1553 52.4402 59.2798 52.3188 59.3975ZM93.022 58.1797C93.7614 58.5667 93.5241 58.8233 94.3921 58.5605C94.3783 58.732 94.3608 58.8977 94.3491 59.0713C94.0409 59.0744 93.8238 59.2144 93.4644 59.0186H93.4663C93.3955 58.9788 92.8935 58.3132 93.022 58.1797ZM47.5913 55.5811C47.5808 55.7619 47.5605 55.9538 47.5552 56.126C47.6198 56.3651 47.8132 56.0895 47.8218 56.1133C48.0161 56.6954 47.9462 56.848 48.5435 57.3223C48.6623 57.3519 48.7841 57.3787 48.9048 57.4072C49.406 56.6719 48.9016 56.7152 48.896 55.8438C48.7363 56.1104 48.5742 56.3753 48.4106 56.6396C48.2374 56.273 48.0651 55.9149 47.8862 55.5508C47.7879 55.561 47.6897 55.5707 47.5913 55.5811ZM49.4448 54.8271C49.301 54.6785 48.6134 53.211 48.4897 54.1182C48.8154 54.5804 49.1508 55.0854 49.4741 55.5791C50.0158 55.0377 49.9516 55.3297 49.4448 54.8271ZM21.687 54.1318C20.4394 53.5344 20.4358 54.2081 20.9536 55.3643C21.1688 54.9226 21.4136 54.5058 21.687 54.1318ZM79.3159 53.3604C79.0245 53.8433 77.8947 53.6276 77.3784 53.334C77.464 53.2728 77.5504 53.2107 77.6362 53.1484C78.1946 53.2171 78.7495 53.2866 79.3159 53.3604ZM62.1333 52.7109C62.102 52.4065 61.4533 51.7824 61.0806 52.0273C60.8937 52.1504 61.1427 52.7655 60.4604 52.7314C60.9466 52.7967 61.4089 52.8096 61.8853 52.8564C61.8111 53.01 61.7387 53.1667 61.6646 53.3203L61.6655 53.3213C61.8127 53.3885 61.961 53.458 62.1079 53.5254C62.2753 53.0919 62.4418 52.6589 62.6099 52.2256C62.4538 52.1992 62.2993 52.1724 62.1431 52.1475C62.1404 52.2495 62.1399 52.3567 62.1392 52.4619C62.1372 52.5449 62.1353 52.628 62.1333 52.7109ZM47.7388 53.4883C47.7402 53.4811 47.7403 53.4732 47.7417 53.4658C47.7328 53.4657 47.7239 53.4667 47.7153 53.4658C47.7129 53.4655 47.71 53.4651 47.7075 53.4648C47.7178 53.4726 47.7284 53.4805 47.7388 53.4883ZM46.4312 53.3789C46.4257 53.3339 46.4173 53.2891 46.4116 53.2451C46.3737 53.2376 46.3354 53.2312 46.2974 53.2236C46.3391 53.2657 46.3845 53.3166 46.4312 53.3789ZM44.8813 52.999C44.9686 53.0857 45.0604 53.2505 45.2769 53.2812C45.4707 53.3102 45.6169 53.1992 45.7632 53.123C45.5598 53.0882 45.3482 53.0565 45.1235 53.0312C45.0474 53.0227 44.9665 53.0098 44.8813 52.999ZM23.2437 52.3193C22.5669 52.74 22.7304 52.9734 23.437 53.1387C23.4824 53.1512 23.5264 52.8627 23.6245 52.9043C23.7189 52.9511 24.1118 53.4906 24.0981 53.0254C23.5821 52.178 23.603 52.8679 23.2339 52.7695C23.2299 52.6213 23.2351 52.4706 23.2437 52.3193ZM44.2593 52.9189C44.3387 53.0122 44.4174 53.1002 44.4946 53.208C44.5813 53.0837 44.6474 53.0116 44.7007 52.9756C44.5591 52.9569 44.4099 52.9393 44.2593 52.9189ZM20.9272 50.2461C21.3617 50.6199 21.552 51.1468 21.4487 51.873C21.2842 51.9103 21.1183 51.955 20.9546 52.0049C20.8792 51.4482 20.8668 50.8542 20.9272 50.2461ZM27.647 51.1084C27.4181 49.724 26.6023 50.5959 26.7749 51.0049C26.9078 50.9805 26.948 50.7234 27.106 50.7871C27.2694 50.8505 27.3847 51.1537 27.647 51.1084ZM23.4556 49.0342C24.1323 48.5854 24.2843 47.7458 24.7622 48.2861C24.8174 48.3526 24.8764 48.4402 24.9419 48.5508C24.9265 48.5662 24.9111 48.5823 24.895 48.5977C24.2951 49.1209 23.3157 49.7328 22.7593 49.2998C22.118 49.7759 22.3881 50.3463 23.0024 50.2041C24.6873 48.629 24.0705 50.2788 25.2476 49.4248C25.3313 49.3706 25.4276 49.3057 25.5405 49.2285C25.5026 49.0663 25.5185 48.8703 25.4526 48.7295C26.2369 49.063 25.4155 49.6059 25.4312 49.8086C25.4305 49.824 25.4307 49.8391 25.4312 49.8535C25.4323 50.0135 25.5017 50.1112 25.5679 50.1758C25.6621 50.2732 25.7491 50.2989 25.6353 50.3311C25.572 50.3501 25.4516 50.3728 25.2544 50.417V50.418C24.6756 50.5599 24.5423 50.5978 24.0728 50.8682C23.8384 50.2305 24.79 49.3244 23.2788 50.1777C23.2628 50.1928 23.5274 50.4748 23.2876 50.5977C23.2161 50.6353 22.7991 50.5538 22.4312 50.7871C22.3135 50.8616 21.5169 51.5506 22.5083 50.5254C22.1639 50.222 21.9074 49.8288 21.605 49.5049C22.02 48.952 22.9553 49.3701 23.4556 49.0342ZM55.5659 49.7842C56.8718 48.6254 57.9161 50.1071 56.6899 50.2334C56.3813 50.2655 55.9042 49.8211 55.5659 49.7842ZM31.4624 50.04C32.4446 47.9795 30.0079 49.3743 30.5552 50.0186C30.5808 50.0444 31.3555 49.8249 31.4624 50.04ZM42.9019 48.9648C42.9595 49.1229 43.0357 49.2791 43.1294 49.4346C43.2589 49.4976 43.4178 49.509 43.6724 49.376C43.418 49.2391 43.159 49.1008 42.9019 48.9648ZM54.2065 48.2373C54.2808 48.5098 57.0756 49.2446 55.5894 49.248C55.3712 49.2468 54.1951 48.4956 53.7427 49.0596C53.8497 48.764 54.047 48.5091 54.2065 48.2373ZM50.7144 48.5947C51.4431 48.1605 50.9458 47.577 52.0034 48.3164C51.9087 48.4399 51.8146 48.5628 51.7202 48.6865C51.3917 48.6574 51.0491 48.6256 50.7144 48.5947ZM33.7466 46.9971C33.7866 47.0849 33.8102 47.1613 33.8188 47.2285C33.8189 47.2348 33.8178 47.2417 33.8179 47.248C33.796 47.1656 33.773 47.0818 33.7466 46.9971ZM41.8882 43.2627C41.9107 44.099 42.1593 44.0476 42.8608 44.3252C42.5942 44.6683 41.5426 44.5174 41.1099 44.2471C41.3701 43.92 41.6298 43.5917 41.8882 43.2627ZM38.7778 41.2949C38.3392 40.9887 37.8973 40.686 37.4565 40.3848C37.8324 40.2974 38.2078 40.2092 38.5835 40.1221C38.6467 40.5105 38.7157 40.9061 38.7778 41.2949ZM37.5981 35.3174C37.0514 35.6506 37.545 35.7685 37.6333 36.167C37.7201 36.5668 37.1526 36.8512 36.9819 36.4082L36.981 36.4102C36.9103 36.2258 37.5144 36.1747 36.7056 36.0059C36.9019 35.6498 37.073 35.3171 37.2603 34.9697C37.3737 35.0878 37.4809 35.1929 37.5981 35.3174ZM35.1655 33.7412C35.1642 33.5609 35.2983 33.161 35.5269 33.3711C35.9481 33.7614 35.6471 34.5676 36.2319 34.3311C36.2472 34.3941 36.2648 34.4571 36.2827 34.5195L36.7212 34.9385C36.7342 35.0435 36.7485 35.1491 36.7603 35.2568C36.6512 35.2548 36.5485 35.2267 36.4536 35.1768L36.0571 34.7969C35.6654 34.6649 35.3422 34.2164 35.1763 33.8037L35.1655 33.7412ZM31.6958 32.4375C31.7224 32.304 31.7481 32.1704 31.7749 32.0371C32.0997 32.2223 32.417 32.4015 32.7397 32.585C32.4277 32.766 32.1152 32.9474 31.8042 33.1309C31.9283 33.3235 32.0559 33.5148 32.1812 33.71C31.4426 33.4097 30.939 33.1328 30.6128 32.3857V32.3828C30.5952 32.3386 30.9135 32.2672 30.9126 32.1826C30.7737 32.1188 30.6123 32.0637 30.4653 32.0029C30.5795 31.8304 30.6947 31.6578 30.8081 31.4863C31.1074 31.8062 31.3964 32.1176 31.6958 32.4375ZM28.0142 31C28.6652 29.7711 28.2211 30.4303 29.0298 30.6943C29.3104 30.7858 29.2551 30.4334 29.4106 30.5088C30.2543 30.918 29.7387 31.6772 29.2769 31.9141C28.8527 31.6091 28.4282 31.3009 28.0142 31.001V31ZM30.3188 30.4727C30.237 30.5929 30.148 30.7059 30.0679 30.8291C29.902 30.7159 29.8938 30.6969 29.728 30.5088L29.7271 30.5098C29.6619 30.4364 29.1273 29.7831 29.3384 29.6709C29.66 29.929 29.9932 30.2065 30.3188 30.4727ZM21.1187 28.4209C20.3005 28.1204 19.5438 27.8577 19.0835 28.4814C19.3594 28.8195 19.4943 28.3655 19.6812 28.4102C20.3853 28.5807 20.5343 29.1051 21.1577 29.3613C21.0712 29.3994 20.9913 29.4364 20.9077 29.4736H20.9087C23.0474 31.6955 22.427 29.9085 20.9087 28.8779C20.9786 28.7251 21.0495 28.5727 21.1187 28.4209ZM25.2251 29.833C25.0397 29.9923 24.8537 30.1522 24.6685 30.3115C24.4613 30.1759 24.2502 30.0361 24.0405 29.8984V29.8965C24.1405 29.8167 24.2411 29.736 24.3403 29.6572C24.6369 29.7168 24.931 29.7754 25.2251 29.833ZM26.1401 27.3037C26.7922 27.3884 26.4618 27.9219 26.9644 28.1055C27.471 28.2902 27.9229 28.2151 27.7183 29.1504C27.513 29.1478 27.2634 29.1805 27.0425 29.1924C26.7112 28.4812 26.3493 28.6 25.6978 28.502C25.9372 28.2266 26.1751 27.9531 26.4146 27.6777V27.6748C26.3189 27.5534 26.2514 27.4108 26.1401 27.3037ZM20.6226 27.3076C21.0458 27.4331 21.4672 27.557 21.8892 27.6816C21.6067 27.4096 21.3237 27.1347 21.0405 26.8623C20.9015 27.0101 20.7616 27.1598 20.6226 27.3076ZM15.0259 23.9502C14.9583 23.8501 14.9868 22.6664 14.354 23.0723C14.2227 23.1545 14.7547 23.7075 14.0767 23.7109C14.2357 23.8804 14.3986 24.0003 14.5552 24.1494C14.4543 24.3008 14.3521 24.4522 14.2524 24.6045C14.0855 24.3868 13.9144 24.164 13.7476 23.9473C13.6654 24.58 14.2021 25.2634 14.8989 25.0615C14.7688 24.8678 14.6495 24.6828 14.519 24.4893C14.8824 24.6929 15.2486 24.8911 15.6128 25.1016C16.107 24.5223 15.4555 24.5633 15.0259 23.9502ZM24.2446 24.4248C23.9115 24.5406 23.5811 24.6564 23.2505 24.7744C23.6506 24.3693 23.4731 24.2283 23.4106 23.6699C23.6938 23.9246 23.9633 24.1714 24.2446 24.4248ZM18.5454 20.1914C19.2375 20.2171 19.6847 20.432 20.3169 20.8438C20.3421 20.7094 20.368 20.5764 20.3911 20.4404C20.5537 20.8351 20.7261 21.2383 20.8853 21.6309C20.5085 21.5844 20.0753 21.5226 19.7261 21.4814C19.5973 22.4032 20.551 22.6043 20.9946 22.75C21.613 22.9598 21.2604 23.1614 21.7114 23.3232C21.7831 23.3495 21.9766 23.1245 22.0913 23.2109C22.6571 23.6404 23.6388 24.6437 22.5688 24.667C21.7133 23.8548 20.5818 23.6534 19.813 22.7686C19.5448 23.5844 18.8999 23.4134 18.0317 23.1699C18.7931 22.6875 19.6374 23.0777 19.3735 21.8516C19.129 22.0302 18.881 22.2062 18.6362 22.3848C18.5141 21.9943 18.3874 21.6001 18.2651 21.2119C18.1026 21.2245 17.9317 21.2318 17.7671 21.2412C17.9623 20.7451 18.1657 20.253 18.3589 19.7539C18.4247 19.9021 18.4823 20.0452 18.5454 20.1914ZM10.811 21.1094C10.3032 20.9916 9.70581 20.2552 9.46631 20.9053L9.46436 20.9043C9.45606 20.9495 9.9428 21.6613 10.1675 21.5654C10.3938 21.4348 10.5957 21.2606 10.811 21.1094ZM11.3657 20.8896C12.1218 21.3372 12.5253 21.3268 12.5444 20.5381C12.2192 20.4547 11.8925 20.3678 11.5679 20.2822C11.5004 20.4846 11.4333 20.6875 11.3657 20.8896ZM22.0425 20.1006C21.9 20.3701 21.7589 20.6404 21.6167 20.9102C21.3187 20.782 21.0192 20.6527 20.7192 20.5234V20.5225C20.6657 19.7832 21.7606 21.1238 21.3931 19.7871C21.6084 19.8911 21.8297 19.9984 22.0425 20.1006ZM17.3013 19.7695C17.164 20.0266 17.027 20.2847 16.8921 20.542C16.6837 20.3709 16.4787 20.2007 16.27 20.0303C16.283 19.9142 16.2984 19.8002 16.312 19.6846C16.6368 19.7077 16.9753 19.7444 17.3013 19.7695ZM15.0796 17.998C15.4501 17.9216 15.9106 18.2662 16.3843 18.208C16.7804 18.7563 16.8007 19.2322 16.5063 19.667C16.4877 19.5033 16.4665 19.3353 16.4429 19.168L16.4419 19.167C16.2882 19.1593 16.1373 19.1549 15.9868 19.1484C16.0523 18.9426 16.1187 18.7382 16.1851 18.5332C15.7714 18.4265 15.3394 18.306 14.9224 18.2021L14.9868 18.2539C14.9445 18.2431 14.9014 18.2318 14.8589 18.2207C14.952 18.1243 15.0488 18.0741 15.1489 18.0537L15.0796 17.998ZM10.521 16.1816C10.4268 16.1437 10.3362 16.1087 10.2437 16.0723C10.2354 16.2134 10.2224 16.353 10.2153 16.4951C10.5485 16.2749 10.4846 16.5107 10.6626 16.8252C10.8536 16.4528 11.0418 16.0772 11.2319 15.7041C11.4561 16.0485 11.6794 16.3931 11.8999 16.7363C11.8376 16.8182 11.7747 16.9006 11.7124 16.9824C11.9088 16.9754 12.1071 16.9681 12.3032 16.9609C12.2545 17.0802 12.2046 17.1974 12.1567 17.3174C12.3523 17.36 12.5488 17.4037 12.7427 17.4434C12.5927 17.7063 12.2115 17.5554 12.7876 17.9404C12.4298 18.0387 12.0736 18.1379 11.7124 18.2334C10.9384 17.5507 10.1548 16.8611 9.37061 16.1816L9.36865 16.1807C9.56136 15.9083 9.90795 16.0772 9.78369 15.5664C10.0304 15.7711 10.2752 15.9761 10.521 16.1816ZM6.53369 11.7842C6.11302 11.6633 5.68727 11.5388 5.26025 11.416C5.2627 11.1158 5.26764 10.8179 5.26709 10.5156C5.68668 10.9354 6.11737 11.3637 6.53369 11.7842Z" fill="#FF61B0"/>
</svg>
