<svg width="251" height="101" viewBox="0 0 251 101" fill="none" xmlns="http://www.w3.org/2000/svg">
<path d="M55.8897 12L83.1393 17.8774C91.2866 19.6346 100.113 36.7081 103.508 45.0252C105.93 58.2352 98.8284 78.1436 94.9749 86.4465L70.2026 101L42.4025 98.761L21.7589 81.4088C12.951 70.8855 14.6025 52.7683 16.5292 45.0252L34.1451 17.8774L55.8897 12Z" fill="#FFF4CA" fill-opacity="0.5"/>
<path d="M20.2151 0L33.6868 2.90566C37.7147 3.77442 42.0783 12.2152 43.7566 16.327C44.9541 22.8579 41.4433 32.7002 39.5382 36.805L27.2912 44L13.5473 42.8931L3.34148 34.3145C-1.013 29.1119 -0.196538 20.1551 0.756007 16.327L9.46498 2.90566L20.2151 0Z" fill="#69C9A0"/>
<path d="M22.4968 10.648C23.4888 10.648 24.3848 10.8 25.1848 11.104C25.9848 11.408 26.6248 11.864 27.1048 12.472C27.5848 13.08 27.8248 13.84 27.8248 14.752C27.8248 15.44 27.6808 16.048 27.3928 16.576C27.1208 17.088 26.7448 17.536 26.2648 17.92C25.8008 18.304 25.2728 18.648 24.6808 18.952C25.3368 19.272 25.9448 19.648 26.5048 20.08C27.0648 20.496 27.5128 20.992 27.8488 21.568C28.2008 22.128 28.3768 22.792 28.3768 23.56C28.3768 24.504 28.1288 25.328 27.6328 26.032C27.1528 26.736 26.4728 27.28 25.5928 27.664C24.7128 28.048 23.6888 28.24 22.5208 28.24C21.2568 28.24 20.1848 28.056 19.3048 27.688C18.4248 27.32 17.7528 26.792 17.2888 26.104C16.8248 25.416 16.5928 24.6 16.5928 23.656C16.5928 22.872 16.7448 22.192 17.0488 21.616C17.3688 21.04 17.7848 20.544 18.2968 20.128C18.8088 19.696 19.3688 19.336 19.9768 19.048C19.4488 18.728 18.9688 18.368 18.5368 17.968C18.1048 17.552 17.7608 17.088 17.5048 16.576C17.2648 16.048 17.1448 15.432 17.1448 14.728C17.1448 13.832 17.3848 13.08 17.8648 12.472C18.3608 11.864 19.0088 11.408 19.8088 11.104C20.6248 10.8 21.5208 10.648 22.4968 10.648ZM19.4728 23.512C19.4728 24.216 19.7208 24.8 20.2168 25.264C20.7128 25.712 21.4648 25.936 22.4728 25.936C23.1448 25.936 23.6968 25.84 24.1288 25.648C24.5768 25.44 24.9128 25.152 25.1368 24.784C25.3768 24.416 25.4968 23.992 25.4968 23.512C25.4968 23.032 25.3608 22.608 25.0888 22.24C24.8168 21.872 24.4648 21.544 24.0328 21.256C23.6008 20.968 23.1208 20.704 22.5928 20.464L22.2568 20.296C21.6808 20.552 21.1848 20.84 20.7688 21.16C20.3528 21.464 20.0328 21.808 19.8088 22.192C19.5848 22.576 19.4728 23.016 19.4728 23.512ZM22.4728 12.928C21.7688 12.928 21.1848 13.104 20.7208 13.456C20.2728 13.808 20.0488 14.304 20.0488 14.944C20.0488 15.408 20.1608 15.808 20.3848 16.144C20.6088 16.48 20.9048 16.768 21.2728 17.008C21.6568 17.248 22.0728 17.48 22.5208 17.704C22.9688 17.496 23.3688 17.272 23.7208 17.032C24.0888 16.792 24.3768 16.504 24.5848 16.168C24.8088 15.832 24.9208 15.424 24.9208 14.944C24.9208 14.304 24.6888 13.808 24.2248 13.456C23.7768 13.104 23.1928 12.928 22.4728 12.928Z" fill="white"/>
<path d="M202.89 12L230.139 17.8774C238.287 19.6346 247.113 36.7081 250.508 45.0252C252.93 58.2352 245.828 78.1436 241.975 86.4465L217.203 101L189.403 98.761L168.759 81.4088C159.951 70.8855 161.602 52.7683 163.529 45.0252L181.145 17.8774L202.89 12Z" fill="#FFF4CA" fill-opacity="0.5"/>
<path d="M167.215 0L180.687 2.90566C184.715 3.77442 189.078 12.2152 190.757 16.327C191.954 22.8579 188.443 32.7002 186.538 36.805L174.291 44L160.547 42.8931L150.341 34.3145C145.987 29.1119 146.803 20.1551 147.756 16.327L156.465 2.90566L167.215 0Z" fill="#69C9A0"/>
<path d="M175.353 18.184C175.353 19.16 175.281 20.136 175.137 21.112C174.993 22.072 174.745 22.984 174.393 23.848C174.041 24.696 173.553 25.456 172.929 26.128C172.305 26.784 171.505 27.304 170.529 27.688C169.569 28.056 168.401 28.24 167.025 28.24C166.705 28.24 166.321 28.224 165.873 28.192C165.441 28.16 165.081 28.112 164.793 28.048V25.552C165.097 25.632 165.425 25.696 165.777 25.744C166.145 25.792 166.505 25.816 166.857 25.816C167.945 25.816 168.841 25.672 169.545 25.384C170.265 25.08 170.825 24.664 171.225 24.136C171.641 23.592 171.945 22.96 172.137 22.24C172.329 21.504 172.441 20.72 172.473 19.888H172.329C172.089 20.256 171.801 20.592 171.465 20.896C171.145 21.2 170.737 21.44 170.241 21.616C169.761 21.792 169.153 21.88 168.417 21.88C167.441 21.88 166.585 21.672 165.849 21.256C165.129 20.84 164.569 20.24 164.169 19.456C163.769 18.656 163.569 17.688 163.569 16.552C163.569 15.32 163.801 14.264 164.265 13.384C164.729 12.504 165.385 11.832 166.233 11.368C167.097 10.888 168.105 10.648 169.257 10.648C170.121 10.648 170.921 10.808 171.657 11.128C172.393 11.432 173.033 11.896 173.577 12.52C174.137 13.128 174.569 13.904 174.873 14.848C175.193 15.792 175.353 16.904 175.353 18.184ZM169.305 13.144C168.489 13.144 167.825 13.416 167.313 13.96C166.801 14.504 166.545 15.352 166.545 16.504C166.545 17.448 166.761 18.192 167.193 18.736C167.641 19.264 168.321 19.528 169.233 19.528C169.857 19.528 170.393 19.392 170.841 19.12C171.305 18.848 171.665 18.512 171.921 18.112C172.177 17.712 172.305 17.288 172.305 16.84C172.305 16.408 172.241 15.976 172.113 15.544C171.985 15.096 171.793 14.688 171.537 14.32C171.297 13.952 170.985 13.664 170.601 13.456C170.233 13.248 169.801 13.144 169.305 13.144Z" fill="white"/>
<path d="M58.3155 39.368C58.3155 40.392 58.1022 41.288 57.6755 42.056C57.2702 42.824 56.7048 43.4533 55.9795 43.944C55.2542 44.4133 54.4115 44.7547 53.4515 44.968V45.064C55.2862 45.2773 56.6728 45.8427 57.6115 46.76C58.5502 47.6773 59.0195 48.8933 59.0195 50.408C59.0195 51.7307 58.6995 52.9147 58.0595 53.96C57.4195 55.0053 56.4275 55.8267 55.0835 56.424C53.7608 57.0213 52.0542 57.32 49.9635 57.32C48.7262 57.32 47.5742 57.2133 46.5075 57C45.4408 56.808 44.4382 56.4987 43.4995 56.072V52.52C44.4595 53.0107 45.4835 53.384 46.5715 53.64C47.6595 53.896 48.6835 54.024 49.6435 54.024C51.4995 54.024 52.8115 53.6933 53.5795 53.032C54.3475 52.3493 54.7315 51.4107 54.7315 50.216C54.7315 49.448 54.5395 48.8187 54.1555 48.328C53.7715 47.8373 53.1422 47.4747 52.2675 47.24C51.4142 46.984 50.2942 46.856 48.9075 46.856H46.9875V43.624H48.9395C50.2835 43.624 51.3395 43.4747 52.1075 43.176C52.8968 42.8773 53.4515 42.4613 53.7715 41.928C54.1128 41.3947 54.2835 40.776 54.2835 40.072C54.2835 39.1547 53.9848 38.44 53.3875 37.928C52.7902 37.416 51.8942 37.16 50.6995 37.16C49.9315 37.16 49.2382 37.2453 48.6195 37.416C48.0008 37.5867 47.4355 37.8107 46.9235 38.088C46.4115 38.344 45.9315 38.6213 45.4835 38.92L43.5635 36.136C44.1395 35.7093 44.7902 35.3253 45.5155 34.984C46.2408 34.6213 47.0515 34.344 47.9475 34.152C48.8435 33.9387 49.8248 33.832 50.8915 33.832C53.2595 33.832 55.0835 34.3333 56.3635 35.336C57.6648 36.3173 58.3155 37.6613 58.3155 39.368ZM73.012 57H68.98V42.76C68.98 42.2907 68.98 41.8107 68.98 41.32C69.0013 40.8293 69.0227 40.3387 69.044 39.848C69.0653 39.336 69.0867 38.8667 69.108 38.44C68.8947 38.6533 68.628 38.9093 68.308 39.208C67.988 39.4853 67.6573 39.7733 67.316 40.072L64.756 42.12L62.74 39.624L69.652 34.152H73.012V57Z" fill="#69C9A0"/>
<path d="M206.712 57H191.064V54.024L196.888 48.136C198.04 46.9627 198.978 45.96 199.704 45.128C200.45 44.2747 200.994 43.4853 201.336 42.76C201.698 42.0347 201.88 41.2453 201.88 40.392C201.88 39.3467 201.581 38.568 200.984 38.056C200.386 37.5227 199.597 37.256 198.616 37.256C197.656 37.256 196.76 37.4587 195.928 37.864C195.096 38.248 194.232 38.8027 193.336 39.528L191.128 36.872C191.768 36.3173 192.45 35.816 193.176 35.368C193.901 34.8987 194.722 34.5253 195.64 34.248C196.557 33.9707 197.624 33.832 198.84 33.832C200.312 33.832 201.57 34.0987 202.616 34.632C203.682 35.144 204.504 35.8587 205.08 36.776C205.656 37.6933 205.944 38.76 205.944 39.976C205.944 40.9147 205.805 41.7893 205.528 42.6C205.25 43.3893 204.845 44.168 204.312 44.936C203.778 45.704 203.128 46.4827 202.36 47.272C201.592 48.0613 200.728 48.9147 199.768 49.832L196.152 53.32V53.512H206.712V57ZM224.128 39.368C224.128 40.392 223.915 41.288 223.488 42.056C223.083 42.824 222.517 43.4533 221.792 43.944C221.067 44.4133 220.224 44.7547 219.264 44.968V45.064C221.099 45.2773 222.485 45.8427 223.424 46.76C224.363 47.6773 224.832 48.8933 224.832 50.408C224.832 51.7307 224.512 52.9147 223.872 53.96C223.232 55.0053 222.24 55.8267 220.896 56.424C219.573 57.0213 217.867 57.32 215.776 57.32C214.539 57.32 213.387 57.2133 212.32 57C211.253 56.808 210.251 56.4987 209.312 56.072V52.52C210.272 53.0107 211.296 53.384 212.384 53.64C213.472 53.896 214.496 54.024 215.456 54.024C217.312 54.024 218.624 53.6933 219.392 53.032C220.16 52.3493 220.544 51.4107 220.544 50.216C220.544 49.448 220.352 48.8187 219.968 48.328C219.584 47.8373 218.955 47.4747 218.08 47.24C217.227 46.984 216.107 46.856 214.72 46.856H212.8V43.624H214.752C216.096 43.624 217.152 43.4747 217.92 43.176C218.709 42.8773 219.264 42.4613 219.584 41.928C219.925 41.3947 220.096 40.776 220.096 40.072C220.096 39.1547 219.797 38.44 219.2 37.928C218.603 37.416 217.707 37.16 216.512 37.16C215.744 37.16 215.051 37.2453 214.432 37.416C213.813 37.5867 213.248 37.8107 212.736 38.088C212.224 38.344 211.744 38.6213 211.296 38.92L209.376 36.136C209.952 35.7093 210.603 35.3253 211.328 34.984C212.053 34.6213 212.864 34.344 213.76 34.152C214.656 33.9387 215.637 33.832 216.704 33.832C219.072 33.832 220.896 34.3333 222.176 35.336C223.477 36.3173 224.128 37.6613 224.128 39.368Z" fill="#69C9A0"/>
<path d="M139 60L125 67L125 53L139 60Z" fill="#69C9A0"/>
<path d="M46.0556 76.616C46.0556 75.7413 46.1356 74.888 46.2956 74.056C46.4663 73.224 46.7276 72.4293 47.0796 71.672C47.4316 70.9147 47.8743 70.216 48.4076 69.576H49.9276C49.437 70.2373 49.021 70.952 48.6796 71.72C48.349 72.488 48.0983 73.2827 47.9276 74.104C47.757 74.9253 47.6716 75.7573 47.6716 76.6C47.6716 77.4213 47.757 78.2373 47.9276 79.048C48.0983 79.8587 48.349 80.6373 48.6796 81.384C49.0103 82.1413 49.421 82.856 49.9116 83.528H48.4076C47.8743 82.8987 47.4316 82.2107 47.0796 81.464C46.7276 80.728 46.4663 79.9493 46.2956 79.128C46.1356 78.3067 46.0556 77.4693 46.0556 76.616ZM52.704 74.104H67.36V75.416H52.704V74.104ZM73.952 76.616C73.952 77.4693 73.8667 78.3067 73.696 79.128C73.536 79.9493 73.28 80.728 72.928 81.464C72.5867 82.2107 72.144 82.8987 71.6 83.528H70.096C70.5867 82.856 70.9973 82.1413 71.328 81.384C71.6587 80.6373 71.904 79.8587 72.064 79.048C72.2347 78.2373 72.32 77.4213 72.32 76.6C72.32 75.7573 72.2347 74.9253 72.064 74.104C71.904 73.2827 71.6587 72.488 71.328 71.72C70.9973 70.952 70.5813 70.2373 70.08 69.576H71.6C72.144 70.216 72.5867 70.9147 72.928 71.672C73.28 72.4293 73.536 73.224 73.696 74.056C73.8667 74.888 73.952 75.7413 73.952 76.616Z" fill="#69C9A0"/>
<path d="M193.056 76.616C193.056 75.7413 193.136 74.888 193.296 74.056C193.466 73.224 193.728 72.4293 194.08 71.672C194.432 70.9147 194.874 70.216 195.408 69.576H196.928C196.437 70.2373 196.021 70.952 195.68 71.72C195.349 72.488 195.098 73.2827 194.928 74.104C194.757 74.9253 194.672 75.7573 194.672 76.6C194.672 77.4213 194.757 78.2373 194.928 79.048C195.098 79.8587 195.349 80.6373 195.68 81.384C196.01 82.1413 196.421 82.856 196.912 83.528H195.408C194.874 82.8987 194.432 82.2107 194.08 81.464C193.728 80.728 193.466 79.9493 193.296 79.128C193.136 78.3067 193.056 77.4693 193.056 76.616ZM201.816 68.648H212.312V82.024H211.032V69.848H203.048V82.104H201.816V68.648ZM202.648 74.184H211.576V75.368H202.648V74.184ZM202.616 79.864H211.592V81.064H202.616V79.864ZM220.952 76.616C220.952 77.4693 220.867 78.3067 220.696 79.128C220.536 79.9493 220.28 80.728 219.928 81.464C219.587 82.2107 219.144 82.8987 218.6 83.528H217.096C217.587 82.856 217.997 82.1413 218.328 81.384C218.659 80.6373 218.904 79.8587 219.064 79.048C219.235 78.2373 219.32 77.4213 219.32 76.6C219.32 75.7573 219.235 74.9253 219.064 74.104C218.904 73.2827 218.659 72.488 218.328 71.72C217.997 70.952 217.581 70.2373 217.08 69.576H218.6C219.144 70.216 219.587 70.9147 219.928 71.672C220.28 72.4293 220.536 73.224 220.696 74.056C220.867 74.888 220.952 75.7413 220.952 76.616Z" fill="#69C9A0"/>
</svg>
