<svg width="127" height="104" viewBox="0 0 127 104" fill="none" xmlns="http://www.w3.org/2000/svg">
<g clip-path="url(#clip0_581_479)">
<path d="M101.322 75.6392C101.223 75.6421 101.157 75.5806 101.102 75.4986C101.062 75.4387 101.018 75.3906 100.947 75.4514C100.56 75.7733 100.168 76.089 99.7878 76.4192C98.9346 77.1605 98.091 77.9133 97.2371 78.6528C97.0528 78.8117 96.8864 78.9834 96.773 79.2083C95.8181 79.3802 94.9665 79.8913 94.0062 80.0418C93.7976 79.8952 93.618 80.023 93.4372 80.0858C92.4333 80.4286 91.4336 80.7783 90.4309 81.1249C89.9936 81.2769 89.5545 81.4296 89.1166 81.5798C88.8043 81.6863 88.495 81.7959 88.1573 81.8227C87.9192 81.8423 87.6913 81.9532 87.4623 82.0328C80.3449 84.4971 73.2276 86.9615 66.1102 89.4258C65.7159 89.5629 65.3281 89.7188 64.8993 89.7499C64.6825 89.7642 64.4772 89.8735 64.2689 89.9459C57.0482 92.4462 49.8265 94.9489 42.6035 97.4479C42.2918 97.5563 41.9908 97.701 41.6465 97.6921C41.4325 97.6865 41.2776 97.8246 41.1359 97.973C40.7226 98.2284 40.1903 98.2723 39.8947 98.7354C39.6493 98.3698 39.6487 98.3679 39.3762 98.45C39.2279 98.4952 39.0828 98.5499 38.9376 98.5983C37.2668 99.1771 35.5979 99.7554 33.9272 100.334C33.7601 100.392 33.5944 100.454 33.4248 100.505C33.1696 100.581 33.1274 100.57 32.9815 100.326C32.7492 99.9366 32.5294 99.5389 32.3061 99.1423C31.7199 98.1006 31.1126 97.0704 30.5549 96.0104C29.8406 94.6528 29.052 93.3422 28.3259 91.995C27.6105 90.6674 26.8604 89.3623 26.1255 88.0456C25.31 86.5842 24.5166 85.1087 23.7233 83.6332C23.6312 83.4608 23.4789 83.4273 23.3524 83.3343C22.924 82.6445 22.5479 81.9217 22.1479 81.2136C22.0437 81.0285 21.9232 80.8407 21.9782 80.6087C21.666 80.0155 21.3658 79.418 21.0422 78.8309C20.3602 77.5949 19.6674 76.3668 18.9809 75.1345C18.4442 74.1746 17.9057 73.2154 17.3734 72.2518C16.6567 70.9541 15.9479 69.6516 15.2312 68.3538C14.9412 67.8308 14.6461 67.3096 14.3419 66.7958C14.167 66.5005 14.0409 66.1902 13.9946 65.8544C13.7771 64.2651 13.5711 62.6759 13.3553 61.0861C13.1216 59.3548 12.8804 57.6241 12.6467 55.8929C12.5188 54.9447 12.3978 53.9942 12.2699 53.046C11.9711 50.84 11.6631 48.6352 11.3683 46.4299C11.1586 44.8632 10.9662 43.2968 10.7639 41.7295C10.6101 40.5438 10.4557 39.3562 10.2926 38.1715C10.2662 37.9826 10.1934 37.7993 10.1415 37.615C9.92686 37.07 9.86763 36.5005 9.84027 35.9283C9.83145 35.7459 9.86311 35.5748 9.92579 35.4097C9.79705 34.4871 9.66251 33.5644 9.53722 32.6406C9.32896 31.1008 9.12761 29.5585 8.91763 28.0193C8.60624 25.7207 8.28557 23.4233 7.97525 21.1223C7.82454 20.0072 7.68955 18.8929 7.54294 17.7784C7.51556 17.5645 7.44578 17.3506 7.44941 17.1428C7.45323 16.9076 7.27259 16.8924 7.16761 16.7835C7.14659 15.737 6.95291 14.7042 6.80272 13.669C6.92595 13.3606 6.92861 13.0435 6.87526 12.7038C6.72884 11.7578 6.60265 10.8091 6.47065 9.86022C6.46174 9.78955 6.45971 9.71649 6.46071 9.6466C6.46009 9.48243 6.51531 9.38525 6.69014 9.38347C7.11126 9.38034 7.53236 9.36037 7.95327 9.351C8.75093 9.33286 9.54925 9.3166 10.3465 9.30282C10.4765 9.29975 10.5525 9.24595 10.5779 9.11275C11.5068 9.15648 12.4297 9.04843 13.362 9.14152C13.4991 9.23718 13.6429 9.26303 13.8055 9.25919C15.1265 9.2382 16.4476 9.23405 17.7682 9.21741C18.5384 9.20885 19.3076 9.19216 20.0779 9.17299C20.363 9.1666 20.6545 9.19589 20.922 9.07127C21.8371 8.90693 22.7602 8.87255 23.6946 9.02185C24.0903 9.15192 24.4878 9.09164 24.8836 9.09314C25.3932 9.09507 25.9019 9.08888 26.4105 9.07644C26.5405 9.07337 26.6692 9.03284 26.7986 9.01104C27.4377 8.7003 28.1526 8.83947 28.8224 8.81943C29.7006 8.79437 30.5863 8.76879 31.4719 8.80439C31.5491 8.95034 31.6607 8.9832 31.8105 8.98168C32.6752 8.96765 33.5405 8.97236 34.404 8.96081C35.2026 8.9508 35.9987 8.9395 36.7949 8.91134C37.1645 8.89872 37.4091 9.06027 37.6437 9.38333C38.9031 11.1204 40.1805 12.8427 41.4562 14.5657C42.0367 15.3502 42.6297 16.1261 43.2108 16.9124C43.3158 17.055 43.4126 17.1794 43.5958 17.1347C44.2208 18.0428 44.8497 18.9454 45.5835 19.7608C45.6017 20.0264 45.6736 20.2521 45.8444 20.4794C47.3198 22.4406 48.7816 24.4129 50.2399 26.3863C50.9908 27.4024 51.7236 28.4332 52.4744 29.4493C53.8918 31.3653 55.3154 33.2771 56.7373 35.1894C56.7947 35.2664 56.8548 35.3404 56.9115 35.4155C56.992 35.5203 57.0958 35.5643 57.2094 35.5248C57.3764 35.4667 57.5495 35.415 57.699 35.3229C58.4361 34.8769 59.1972 34.4837 59.963 34.0931C60.5896 33.7741 61.1892 33.3991 61.8056 33.0562C62.152 32.864 62.5071 32.6858 62.8572 32.4987C63.8456 31.9653 64.8311 31.4288 65.8202 30.8973C66.1896 30.6992 66.5617 30.5088 66.9318 30.3126C67.8652 29.8152 68.7975 29.3203 69.7279 28.8198C70.0956 28.6224 70.4506 28.3936 70.8222 28.2075C71.8832 27.672 72.9274 27.1045 73.9621 26.515C74.6306 26.1329 75.3308 25.8093 76.0166 25.455C76.2899 25.3136 76.5586 25.159 76.8256 25.005C76.9401 24.9399 76.9244 24.8105 76.9219 24.6912C78.2245 23.9896 79.5578 23.349 80.8248 22.5775C80.9659 22.6064 81.0801 22.7142 81.2529 22.6057C81.7395 22.3058 82.248 22.0468 82.7545 21.7822C83.4349 21.4234 84.1146 21.0627 84.8044 20.7258C85.1014 20.5804 85.3705 20.3878 85.6675 20.2424C86.4944 19.8389 87.3017 19.3896 88.1109 18.9459C88.747 18.5983 89.3668 18.2205 90.0058 17.8761C90.6819 17.5103 91.3728 17.171 92.0545 16.816C92.2884 16.6946 92.5123 16.5556 92.7449 16.4304C93.0739 16.2549 93.3855 16.0454 93.736 15.9046C93.9542 15.8161 94.139 15.6359 94.2899 15.4359C95.0015 14.9271 95.8383 14.6362 96.5108 14.0588C96.6021 14.2399 96.7372 14.313 96.896 14.203C97.1709 14.0105 97.4786 13.8908 97.7706 13.7366C98.4116 13.3978 99.0425 13.0351 99.6759 12.68C99.8166 12.6016 99.9269 12.6644 100.039 12.7647C100.548 13.2154 101.064 13.66 101.573 14.1151C102.783 15.1929 103.993 16.275 105.201 17.3553C106.638 18.6387 108.073 19.9246 109.515 21.2043C110.991 22.5139 112.475 23.8124 113.954 25.1214C114.797 25.8692 115.639 26.6219 116.474 27.3808C116.668 27.556 116.854 27.7379 117.115 27.7692C117.946 28.2347 118.125 28.9776 117.965 29.8616C117.843 29.9228 117.736 30.0043 117.708 30.1574C117.686 30.2726 117.673 30.391 117.66 30.5094C117.459 32.324 117.264 34.1369 117.06 35.9509C116.787 38.3513 116.509 40.7515 116.231 43.1518C116.13 44.0217 116.022 44.8915 115.923 45.7607C115.638 48.2308 115.374 50.7062 115.064 53.1721C114.937 54.1815 114.836 55.1968 114.72 56.2087C114.439 58.6564 114.153 61.1034 113.884 63.5512C113.828 64.051 113.639 64.4077 113.268 64.718C111.989 65.7927 110.743 66.9109 109.483 68.0108C108.711 68.6841 107.933 69.3529 107.158 70.0249C105.677 71.3113 104.196 72.5995 102.716 73.8877C102.665 73.9307 102.612 73.9767 102.58 74.0362C102.524 74.1377 102.61 74.207 102.664 74.2809C102.581 74.6935 102.187 74.7631 101.944 74.9886C101.706 75.1767 101.496 75.3846 101.322 75.6392Z" fill="#69C9A0"/>
</g>
<defs>
<clipPath id="clip0_581_479">
<rect width="127" height="103" fill="white" transform="translate(0 0.5)"/>
</clipPath>
</defs>
</svg>
