<svg xmlns="http://www.w3.org/2000/svg" width="218" height="189" fill="none"><g clip-path="url(#a)"><path fill="gold" d="M23.317 183.056 93.223 6.535l114.388 144.72z"/><mask id="b" width="185" height="178" x="23" y="6" maskUnits="userSpaceOnUse" style="mask-type:alpha"><path fill="gold" d="M23.317 183.056 93.223 6.535l114.388 144.72z"/></mask><g mask="url(#b)"><path fill="#FF61B0" d="M225.618 76.936c-3.396 4.07-7.655 8.563-11.782 12.735a399 399 0 0 1-5.493 5.44c-1.709 1.66-1.083.558-2.261 1.68-2.306 2.193-4.249 4.399-6.556 6.532-.76.7-.216-.57-1.007.173-4.341 4.086-8.233 8.177-12.574 12.351-18.934 18.118-37.45 36.003-57.47 53.351a276 276 0 0 1-8.289 6.842c-3.167 2.491-6.639 5.062-10.583 7.462-1.979 1.183-4.024 2.331-6.463 3.213-1.216.424-2.578.812-4.2.839-1.6.082-3.632-.641-4.72-1.412-2.44-1.522-4.25-3.954-5.201-6.342-.538-1.399-.648-.422-.78-.682-1.675-4.167-.367-2.908-.512-5.571.247-10.442 4.343-20.092 7.747-28.471 1.527-3.556-.878-.417 1.192-3.702.145-.228.154.852.649-.077 1.124-2.138 3.079-6.175 3.981-7.781 1.738-3.107 2.02-3.62 3.662-6.528 2.273-3.995 5.263-8.52 7.792-12.718.54-.898-.611.018.218-1.441.823-1.46 3.281-5.154 4.197-6.315.919-1.175.883-.438 1.101-.609 1.812-1.408 3.858-6.168 4.222-6.723 4.855-7.514 9.834-13.793 14.962-20.126 1.762-2.169 3.581-4.342 5.598-6.499 1.122-1.19 2.31-2.39 3.728-3.525 1.485-.983 2.899-2.73 6.525-2.196 2.258.629 3.155 2.341 3.672 3.502.517 1.245.729 2.403.855 3.526.232 2.245.061 4.356-.301 6.385a45 45 0 0 1-1.126 4.733c-2.986 9.741-7.915 16.838-13.942 24.234-.649.779.55.236-.246 1.185-8.539 10.055-18.698 18.253-29.439 25.35-1.08.707-.002-.651-1.097.029-6.681 4.232-17.763 9.822-20.753 13.991-1.06.588-2.21 1.221-3.348 1.834-4.014 2.193-8.629 3.916-12.383 4.614-3.142.539-.287-.704-4.008.369-.844.219.373.469-.928.756-5.465 1.185-11.661 1.133-17.226.236-1.126-.186-.924.285-1.264.287-2.002-.011-4.74-1.306-6.414-2.611-.84-.614-1.356-1.215-1.615-1.479-2.892-3.164-3.349-6.36-3.956-9.108-.69-3.708-.41-7.282.525-11.035.418-1.574-.638.152-.231-1.389 2.239-7.901 6.54-14.906 11.046-21.033 1.016-1.358.523.199 1.03-.434 2.234-2.76 1.972-3.934 4.215-6.517.477-.545.554.032.671-.043 1.81-1.149 2.152-3.172 2.464-3.588 4.003-5.327 7.634-7.781 11.892-12.534.511-.568-1.06.322.407-1.254 8.292-8.876 17.626-17.52 27.138-25.185 1.876-1.47 4.075-2.963 7.04-3.012 1.495.062 1.671.378 1.513.423-.159.073-.629.109-.544.148.526.227.978.455 1.383.675 1.683.97 2.773 1.787 3.176 2.39 1.259 2.181 1.357 4.566 1.129 6.623-.415 3.561-1.531 6.535-1.855 9.201-12.103 22.291-33.24 35.46-53.29 47.781-.26.153-.078-.562-.596-.256-6.248 3.668-4.66 3.566-8.224 6.922-.898.844-4.635 1.789-4.954 1.884-1.172.352-.516-.927-.885-.771-3.04 1.301-1.299 3.139-5.085 5.429-.12.068.142-.622-.2-.469-1.06.474-1.948 1.218-2.995 1.664-1.766.748-2.997.643-4.724 1.576-.636.343-1.313.798-2.154 1.47-.41.305.993 1.236-2.684 2.985-1.423.763-8.108 3.424-10.096 3.811-1.953.473-.752-.347-.896-.325-5.325.795-3.426.01-6.175-.308-2.716-.402-1.664 1.53-2.706 1.932-1.05.42-5 .326-5.955.19-.954-.112.206-.472-.642-.518-5.592-.394-2.417 1.141-4.264 1.527-.845.165-1.648.235-2.416.244-3.8-.014-6.429-2.217-9.003-4.178-.707-.561-.5-.129-.833-.253a1.5 1.5 0 0 1-.344-.22c-2.781-2.279-3.121-5.053-3.453-8.191-.06-.621-.11-1.296-.142-2.052-.1-.676-.504-4.601.872-6.634.192-.289.286.717.862-.854.83-2.305 2.65-6.284 3.761-8.658.81-1.751-.805-.082.541-2.162.597-.895-.035 1.012 1.057-.666 1.092-1.727 3.782-6.036 4.908-7.672 1.08-1.603.084-1.005.144-1.153.371-.893 2.382-4.087 2.587-4.346C2.79 92.356 14.062 81.808 25.69 70.546c.918-.881-.051-.68.085-.818 3.062-3.111 1.45.217 4.003-1.493-1.02-.475.424-1.545 2.65-3.663 1.072-1.019.202-.789.276-.91 1.243-1.903 2.93-2.307 3.331-2.438 1.486-.491 2.239-2.044 3.255-2.375 1.01-.328-.355 1.566 1.89-.308.395-.81-1.902-.174-.284-1.713 2.334-2.214 5.636-4.898 9.185-7.515 4.345-3.556 10.718-3.082 14.528-2.127 1.992.395 3.694 1.007 4.995 1.64 2.368 1.146 4.019 2.717 4.685 4.511.994 2.798.906 4.923.203 7.461-1.185 3.569-1.923 4.508-2.118 5.329-.254.769-.286 1.4-1.513 3.313-2.64 3.809-2.595.874-3.294 1.135-.706.227-.862.981-1.543 1.394-.683.408.281-.965-1.029.276-1.264 1.246-4.509 5.032-4.78 5.743-.512 1.508 1.833.793-2.187 3.594-.23.156.194-.766-.675-.15-6.946 4.914-14.346 9.595-21.766 13.616-1.016.548-.39-.423-.985-.11-6.224 3.232-3.625 2.726-6.501 5.466.12-1.555-2.11-1.185-6.781 1.334-2.815 1.51-2.064 1.745-3.704 3.067-.494.399-2.678 1.107-2.917 1.531-.794 1.391 1.541 1.286-3.514 3.457-.224.094.245-.681-.512-.324-4.875 2.278-5.05 3.383-10.203 6.073-1.767.92-4.183 2.019-6.71 3.131-3.406 1.516-7.17 2.763-10.034 3.611-.351-1.384-4.91.301-6.699 1.654-3.355.68-7.026 1.226-10.328 1.297-1.14.023-.417-.444-.564-.48-2.202-.589-3.64.392-4.38.437-1.548.081-3.05.079-4.489.042-4.499.148-7.335-4.534-7.2-8.19-.098-2.209-.083-4.432.012-6.792.018-.266-.957-.89.172-2.809.08-.112.009 2.459.793-1.074.77-3.578 3.734-9.67 5.948-14.132.495-1.082 1.47-4.141 3.462-5.741.263-.21.286.247.693-.032 1.31-.89 1.02-2.183 2.816-3.002 1.807-.822 4.608-3.117 7.702-6.98.102-.125.365-1.519 1.519-2.578 1.828-1.687 4.599-3.883 6.6-5.53.957-.79.025-.675.186-.82 6.341-5.492 11.486-8.592 19.07-13.338 1.381-.866 5.006-3.986 8.005-5.179 3.279-1.295 1.502 2.63 8.042-1.948l.108-.078c.98-.716 1.876-1.903 3.324-2.663.713-.36 1.618-.608 2.506-.256.902.322 1.49 1.5 1.234 2.603a6 6 0 0 1-.875 2.129c-3.79 10.598-13.559 16.4-21.812 23.81-.387.33-1.13 1.996-2.102 2.708-1.431 1.047-2.457 1.293-3.5 2.023a193 193 0 0 0-5.088 3.693l-.024.013c-2.813 1.225-5.436 2.401-8.306 3.506-1.815.697-1.287.035-3.493.876-2.187.83-3.375 1.89-6.434 2.77-2.244.635-4.919.428-7.877 1.376.253 1.1-1.73 1.813-5.28 3.395-.676.302.2.404-.113.566-1.263.663-2.605.793-3.822 1.448-.294.157-.183.524-.415.673-1.933 1.272-5.806 1.664-6.473 1.724-2.55.244-3.467 1.063-5.36 1.431-1.854.353.726-.758-1.392-.231-4.444 1.11-10.092 2.842-14.588 4.012-1.775.464-.435.639-.686.717-3.687 1.108-7.573 1.449-9.463 2.888-3.165-2.049-2.171.785-7.752 1.151-.421.017-1.14-1.13.443-1.556 1.585-.429 4.115-.492 6.316-1.247.49-.163 3.27-1.976 3.664-2.147 3.063-1.289 3.99.375 4.176.438 2.244.58 5.567-1.623 6.505-1.981 4.307-1.619 8.089-2.498 11.67-3.929 2.324-.932 2.207-2.178 4.062-2.746 6.222-1.933 8.966-1.093 14.287-4.564 1.127-.745-.602-1.523 4.249-2.188.274-.03 3.93-.365 5.606-1.651.209-.161.063-.521.363-.67 2.02-.994 3.568-1.258 5.779-2.277 2.276-1.046 4.865-2.306 7.575-3.252 1.565-.543 3.855-.691 4.684-.838.348-.06.69-.15 1.025-.26l-.53.292c1.694-1.023 2.955-2.581 4.243-2.867 1.519-.34-.185 2.075 3.082.18-.486-.894-.845-1.916-1.272-2.862 6.542-4.822 13.117-9.502 18.57-15.213.665-.71-.407-.362.282-1.132 2.802-3.198 5.527-6.118 6.274-9.594.066-.344.103-.69.109-1.018-.019-.047-.063-.008-.059.139.002.142.079.396.228.608.146.215.33.357.417.43.092.073.094.099.022.135-.33.108-1.453.57-2.48 1.236a2 2 0 0 0-.414.009c-2.686.525-7.052 3.539-10.395 5.526-1.258.747-1.33.43-2.26.901-3.493 1.797-1.392 1.665-2.202 2.38-3.44 3.082-5.058 1.365-9.46 4.528-.242.165-2.347 3.208-2.676 3.557-2.135 2.22-.662-.045-2.238 1.031-2.86 1.98-4.951 3.258-7.805 6.18-.832.854-2.431 3.293-4.487 4.441-.271.151-.432-.257-.623-.107-3.433 2.787-2.573 3.805-3.925 5.891-1.36 2.098-4.39 4.448-5.064 4.937-1.755 1.218.73-1.416.757-1.524.222-1.493-1.467.765-2.76 2.46-1.214-.49-2.869 2.066-1.326 1.783.165-.034 1.019-1.467 1.326-1.783-.122 2.264-1.757 4.908-4.43 7.533-1.212 1.266-1.217-.509-3.03 4.337-.736 2.226.382 1.672-.013 3.648-.706 3.692-1.886 8.17-1.82 12.345.002.758.106 1.444.304 2.001.211.558.349.477.45.4.105-.088.194-.188.355.086.613.921 1.1 1.374 2.442 1.504.95.045 1.906.063 2.889.017.292-.015-.413-.514.58-.514 7.518-.044 14.019-.56 21.471-2.901 2.392-.749 5.93-2.238 8.977-3.821a184 184 0 0 1 4.343-2.171c6.416-3.059 14.53-6.368 19.807-9.36 3.44-1.948 2.436-1.981 3.766-3.077 2.563-2.11 8.147-3.888 8.916-4.125.024-.003-2.873 1.758-1.173 1.094 1.177-.055 1.142-1.074 1.173-1.094.513-.14 6.41-3.428 7.511-4.222.599-.42.007-.611.323-.822 7.49-5.03 14.928-10.037 21.853-15.595.127-.096.284.46.58.228 4.052-3.198 5.934-6.034 7.938-9.353 1.97-3.349 2.862-5.595 3.867-7.23.019-.922-.044-1.912-.351-2.94.04-.518-1.282-1.833-2.403-2.417-1.98-1.058-2.646-.025-2.81-.072q-.48-.057-.945-.094c-5.208-.527-7.1-.604-10.223 1.381-1.11.782-2.315 1.656-3.599 2.637-2.941 2.218-8.483 6.972-11.409 9.672-2.318 2.126-3.9 3.21-5.95 5.27-.278.279.321.348.244.442-2.026 2.58-1.624.714-2.252 1.02-2.27 1.115-3.647 1.856-6.412 4.986-.641.723-1.517 3.813-2.677 5.107-1.511 1.683-1.317.672-2.88 2.462-.134.153.146.37-.88 1.404-4.752 4.812-9.88 10.17-14.27 15.596-.605.749.607.148-.256 1.232-4.015 5.06-8.189 10.731-11.576 15.845-.827 1.25-.683.246-.951.468-1.666 1.402-2.097 4.416-2.267 4.816-2.527 5.63-4.421 10.62-4.379 14.98.02 1.11.164 2.063.398 2.687.242.628.495 1.002 1.166 1.537 1.045.815 2.335 1.487 3.647 1.822.253.071 1.535.047 2.612-.107 1.388-.099 2.76-.078 3.666.291.144.06 2.319.966 4.126.163.11-.053-1.216-.438 1.037-.576 2.266-.142 5.755-.969 8.865-1.158.973-.053 3.524.314 6.06-1.378.214-.095 3.7-3.286 5.611-2.912.312.054.64 1.381 3.481-.83.527-.429-.67-.094.788-1.097.492-.343 1.018-.68 1.589-1.04 2.138-1.343 4.717-2.759 6.857-4.564.479-.405 2.283-2.499 4.421-3.04.335-.085.02.603.995.063 4.638-2.567 9.188-5.732 13.85-8.382 1.652-.942 1.209.159 2.965-.763 1.768-.927 5.195-2.984 6.723-4.4 1.539-1.423-.935-1.052 1.562-2.866 10.775-7.916 21.811-15.388 30.624-24.79 1.277-1.402-.024-.498 1.758-2.582 3.737-4.398 8.304-11.382 8.828-17.576.106-.992.014-1.854-.139-2.355-.071-.25-.154-.403-.157-.432-.002-.034.089.078.418.206.146.046.32.045.354.016.039-.027-.052-.055-.227-.032-.355.04-.971.279-1.554.588-.391.205-.729.405-1.008.57-3.724 2.397 1.633-2.734-2.512.466-2.191 1.703-3.6 4.643-4.082 5.127-4.585 4.64-8.282 7.344-12.37 11.58-.84.876.367.409-.347 1.147-2.448 2.54-5.19 5.012-7.47 7.484-1.019 1.108-.543 1.174-1.508 2.165-2.3 2.38-4.37 4.44-6.75 6.642-.217.201.706-1.62-.903.225-2.595 2.988-5.978 6.586-8.345 10.456-.696 1.151-.01 1.696-2.143 3.692-.435.421-.926-.827-1.978 2.473-.203.549-2.014 5.871-3.866 7.85-.498.501-2.098 1.764-2.56 3.215-.06.201.704-.38.257.812-1.53 4.109-2.69 8.544-2.108 12.117.168.923.456-.486.717.816l.015.067c.53 2.668 1.68 4.761 2.107 4.847 1.279.769 3.38 1.479 5.171 1.901 1.624.368.423.56.531.627 1.861 1.071 3.205.166 3.856.157 4.155-.099 7.393.056 11.213-.85 1.052-.264.198-.558.4-.645 2.035-.907.653.3 2.034.038 3.733-.742 7.704-2.418 11.104-4.41l.473-.275c1.392-.815-.455-.394.8-1.122a623 623 0 0 0 22.012-13.44c1.319-.847.75.059 1.072-.049 2.239-.737 4.373-3.428 4.921-3.95 2.515-2.376 3.787-2.899 6.103-4.85 11.303-9.414 24-22.697 28.562-34.932a43.5 43.5 0 0 0 2.203-7.365c.314-1.527.433-3.067.327-4.298-.047-.602-.176-1.14-.245-1.32-.025-.086-.039-.064.136.13.161.18.638.583 1.328.747.471.115.841.07.991.037.158-.037.147-.055.069-.024-.169.06-.573.29-.988.594-.852.616-1.823 1.507-2.758 2.454-1.887 1.915-3.735 4.11-5.557 6.405a319 319 0 0 0-7.848 10.318c-.661.907.459.327-.103 1.113-7.271 10.14-14.337 20.208-20.557 30.982-.509.884.692-.11-.105 1.314a402 402 0 0 1-5.462 9.492c-.847 1.425-.21-.749-1.052.689a93 93 0 0 0-5.333 10.647c-.639 1.537.864-.533.007 1.435-2.465 5.753-4.57 11.58-5.67 17.26-1.163 5.656-.624 10.937 1.65 12.244.263.187.215.157.134.157-.084-.006-.144.022-.045.042.189.047.866-.042 1.621-.283.706-.23 1.87.489 3.561-.708-.018-.341-.209-.646-.316-.96 6.445-3.922 12.854-9.32 19.105-14.645 10.3-8.886 20.465-18.255 30.492-27.805.68-.65-.897.056.419-1.205 7.584-7.276 14.773-14.533 22.82-21.702.792-.706 1.136.399 3.255-1.929.369-.406 3.626-3.851 4.342-4.885.093-.142-.855.132.212-.958a1175 1175 0 0 1 19.156-19.055c1.01-.983.341.45 1.06-.244.704-.681 1.412-1.386 2.082-2.066 4.459-4.536 8.858-9.575 12.917-13.742 3.075-3.23 2.72-1.413 4.82-2.77.153-.11.618-.7 1.05-1.258.44-.558.764-1.023 1.015-.993 1.38-.027 2.021 2.043 3.534 1.951.083-.018.28-.324.486-.942.19-.565.471-1.873-.109-3.194-.6-1.225-.92-1.367-.859-1.464.017-.035.055-.065.224.03.148.113.601.33 1.176 1.443.072.124.429 1.07.389 2.032-.022.962-.256 1.727-.468 2.344-.444 1.236-.911 2.108-1.027 2.513-.18.564.821.003.344 1.077-.482 1.061-1.533 1.741-2.413 3.224-.894 1.48.046 1.295-2.088 3.881M57.005 50.139c-2.238.03-1.835 1.818.03.885.093-.042.081-.88-.03-.885M7.003 64.594c3.002-1.572 3.8-3.987 1.72-2.864-2.082 1.093-2.632 3.334-1.72 2.864m-28.006 18.904c3.835-.85 3.466-3.444-.208-1.43-.213.115-.015 1.479.208 1.43m238.361-8.444c.04-.006 1.422-1.517 1.439-1.575.302-1.193-2.466 1.837-1.439 1.575M-52.914 95.878c1.22-.041 4.456-1.566 2.868-1.476-1.287.078-4.422 1.543-2.868 1.476m36.176 52.043c.006.058 1.216.88 1.274.722.147-.445-1.532-1.452-1.274-.722m-92.583-42.439c3.481.2 6.145 1.548 7.65 2.283l.013.002c1.832.585 2.329 1.116-.138 1.129l-.13-.022c-.852-.121-1.967-.457-3.337-.829-1.598-.457 3.638.276 1.632-.461-3.749-1.421-6.397-.176-10.363-.761-.745-.134 4.132-1.459 4.689-1.343zM55.194 48.363c-.068-.046-1.979.697-1.998.777-.354.508.366.281 1.065.007.697-.282 1.428-.618.933-.784m6.62 74.113c.126-.015 4.105-2.623 4.205-2.755 1.535-2.15-6.495 3.115-4.205 2.755m-78.18-.204c-1.996 1.245-4.67 1.998-6.596 1.665 2.216-.434 4.416-1.01 6.596-1.665"/></g></g><defs><clipPath id="a"><path fill="#fff" d="M0 0h218v189H0z"/></clipPath></defs></svg>