<svg width="51" height="46" viewBox="0 0 51 46" fill="none" xmlns="http://www.w3.org/2000/svg">
<path d="M14.1894 0.99118C14.2323 1.0054 14.2513 1.04332 14.2629 1.08883C14.2711 1.12201 14.2827 1.15045 14.3223 1.13434C14.5353 1.04996 14.7499 0.969375 14.9613 0.880258C15.4359 0.680219 15.9081 0.473544 16.3828 0.274453C16.4851 0.231791 16.5817 0.180596 16.6635 0.097168C17.0977 0.16922 17.5377 0.0725186 17.9711 0.154999C18.0388 0.253596 18.1345 0.224207 18.2212 0.224207C18.7016 0.227051 19.1813 0.226103 19.6617 0.227051C19.8714 0.227051 20.0819 0.227051 20.2916 0.227999C20.441 0.228947 20.5896 0.227999 20.7382 0.268765C20.843 0.297207 20.9569 0.282986 21.0667 0.282986C24.4777 0.287726 27.8887 0.292466 31.2997 0.297207C31.4887 0.297207 31.6778 0.287726 31.866 0.340817C31.9609 0.368311 32.0649 0.351246 32.1648 0.351246C35.6254 0.355986 39.0867 0.359778 42.548 0.365466C42.6975 0.365466 42.8477 0.347453 42.9938 0.405284C43.0846 0.44131 43.1713 0.403388 43.2539 0.35883C43.4685 0.308583 43.7029 0.372103 43.8978 0.209986C43.9489 0.412869 43.9489 0.413817 44.0777 0.419505C44.1479 0.422349 44.2181 0.420453 44.2874 0.421401C45.0881 0.422349 45.8881 0.423297 46.6888 0.424246C46.7689 0.424246 46.8489 0.422349 46.929 0.426142C47.0495 0.43183 47.0661 0.443207 47.0925 0.575934C47.1346 0.787349 47.1701 1.00066 47.2072 1.21397C47.3046 1.77427 47.4128 2.33267 47.4953 2.89676C47.601 3.61918 47.7454 4.33211 47.8577 5.05168C47.9683 5.76082 48.0971 6.46523 48.2176 7.17247C48.3514 7.95746 48.4735 8.74529 48.5957 9.53312C48.6097 9.62508 48.67 9.66395 48.7105 9.72557C48.7922 10.1029 48.8467 10.4869 48.9135 10.868C48.9309 10.9675 48.9548 11.0709 48.897 11.1666C48.9433 11.4823 48.9837 11.798 49.0357 12.1128C49.1455 12.7755 49.2611 13.4362 49.3733 14.098C49.4617 14.6137 49.5508 15.1295 49.6367 15.6461C49.7522 16.342 49.8637 17.0388 49.9793 17.7347C50.0263 18.0153 50.0758 18.296 50.1303 18.5747C50.1617 18.7349 50.17 18.8942 50.1402 19.0525C49.9991 19.8015 49.853 20.5485 49.711 21.2975C49.5558 22.1128 49.4039 22.9291 49.2487 23.7444C49.1637 24.1909 49.0753 24.6375 48.9903 25.084C48.793 26.1231 48.5998 27.1631 48.4009 28.2012C48.2597 28.9388 48.1111 29.6735 47.9667 30.4101C47.8577 30.9676 47.7487 31.526 47.6439 32.0844C47.6274 32.1735 47.6315 32.2674 47.6266 32.3584C47.6381 32.6371 47.5795 32.9026 47.5069 33.1642C47.4838 33.2477 47.445 33.3197 47.3938 33.3842C47.3129 33.8193 47.2345 34.2554 47.1519 34.6906C47.014 35.4159 46.8729 36.1411 46.7358 36.8664C46.5303 37.949 46.3289 39.0327 46.1225 40.1163C46.0226 40.6415 45.9161 41.1639 45.8146 41.6882C45.7948 41.7887 45.7931 41.8958 45.7609 41.9887C45.7246 42.0939 45.7997 42.129 45.8286 42.1944C45.6833 42.6684 45.614 43.1633 45.5257 43.6525C45.4274 43.772 45.3795 43.9142 45.3523 44.0754C45.2755 44.5238 45.1897 44.9703 45.1063 45.4178C45.0997 45.451 45.0898 45.4842 45.0791 45.5154C45.0551 45.5894 45.0171 45.6245 44.942 45.5979C44.7612 45.5335 44.578 45.4766 44.3964 45.4149C44.0521 45.2983 43.7079 45.1808 43.3645 45.0623C43.3083 45.0433 43.2679 45.0556 43.2373 45.1116C42.8461 44.9466 42.435 44.8509 42.0494 44.6631C42.0049 44.5987 41.9471 44.5645 41.8769 44.5408C41.3081 44.3436 40.7418 44.1389 40.1739 43.9398C39.8429 43.8232 39.511 43.7104 39.1783 43.5985C39.0553 43.5568 38.9348 43.498 38.8019 43.5122C38.3858 43.443 37.9855 43.3141 37.6074 43.1008C37.4571 42.9804 37.278 42.9453 37.1088 42.8827C36.8908 42.8021 36.6721 42.7253 36.4525 42.6514C36.3964 42.6324 36.3353 42.6305 36.2767 42.6201C35.9572 42.6599 35.6716 42.4855 35.3818 42.3897C35.0021 42.2636 34.6191 42.1366 34.2451 41.9821C34.2335 41.9043 34.1906 41.8721 34.1262 41.8493C33.7539 41.7204 33.3841 41.5829 33.0126 41.453C32.6692 41.3326 32.3266 41.2132 31.9816 41.1013C31.8214 41.0492 31.7405 40.9383 31.6877 40.7562C31.4045 39.7778 31.1115 38.8032 30.8193 37.8286C30.6863 37.385 30.5468 36.9432 30.4139 36.4985C30.39 36.4179 30.3669 36.3468 30.2818 36.3383C30.1481 35.8321 30.0119 35.3277 29.8179 34.8461C29.8493 34.7238 29.8518 34.611 29.8121 34.482C29.4695 33.369 29.1344 32.2532 28.8009 31.1373C28.6292 30.5628 28.4674 29.9845 28.2957 29.41C27.9713 28.3263 27.6435 27.2437 27.3166 26.161C27.3034 26.1174 27.2886 26.0747 27.2753 26.032C27.2564 25.9723 27.2184 25.9363 27.1639 25.9363C27.0838 25.9363 27.0021 25.9325 26.9245 25.9505C26.5431 26.0358 26.1593 26.0937 25.7737 26.1496C25.4584 26.1951 25.1464 26.27 24.8318 26.3278C24.6552 26.3601 24.4769 26.3847 24.2994 26.4141C23.7975 26.4994 23.2964 26.5867 22.7945 26.671C22.6071 26.7023 22.4197 26.7298 22.2323 26.7602C21.7593 26.8379 21.2871 26.9147 20.8149 26.9943C20.6284 27.0256 20.4426 27.073 20.2561 27.0986C19.7228 27.1735 19.192 27.2655 18.662 27.3688C18.3194 27.4361 17.9719 27.4721 17.626 27.5243C17.4881 27.5451 17.3503 27.5726 17.2132 27.6001C17.1546 27.6115 17.1423 27.6722 17.1257 27.7262C16.4645 27.8381 15.7992 27.9177 15.1429 28.0666C15.0867 28.0315 15.0537 27.9651 14.9637 27.9869C14.7111 28.0457 14.4552 28.0827 14.1993 28.1225C13.8551 28.1775 13.5108 28.2334 13.1658 28.277C13.0172 28.296 12.8736 28.3406 12.725 28.3595C12.3114 28.4117 11.8995 28.4875 11.4875 28.5605C11.1639 28.6174 10.8428 28.6904 10.5184 28.7454C10.175 28.8042 9.82909 28.8487 9.48485 28.9018C9.3668 28.9198 9.25041 28.9473 9.13236 28.9672C8.96561 28.9947 8.80133 29.0402 8.63045 29.0487C8.52396 29.0544 8.4183 29.1066 8.32419 29.1729C7.94446 29.2905 7.54326 29.2905 7.17013 29.445C7.15774 29.3493 7.11069 29.2952 7.02649 29.3199C6.88037 29.3635 6.73096 29.3692 6.58319 29.3929C6.25877 29.445 5.93517 29.5095 5.61157 29.5702C5.53975 29.5834 5.50178 29.5379 5.46876 29.4754C5.31686 29.1928 5.16167 28.9122 5.0106 28.6278C4.65151 27.9537 4.29323 27.2778 3.93496 26.6028C3.509 25.8007 3.08387 24.9977 2.65543 24.1966C2.21626 23.3766 1.77214 22.5603 1.33214 21.7402C1.08119 21.2719 0.831886 20.8016 0.585885 20.3295C0.528925 20.2205 0.476092 20.1096 0.368776 20.0546C0.0814999 19.7152 0.114519 19.353 0.313466 18.9804C0.374554 18.9719 0.432341 18.952 0.467012 18.8875C0.493428 18.8392 0.516543 18.788 0.539657 18.7368C0.892974 17.9518 1.24381 17.1668 1.59878 16.3828C2.06932 15.3456 2.54233 14.3094 3.01535 13.2732C3.18705 12.8977 3.36124 12.5233 3.53212 12.1478C4.01834 11.0813 4.49631 10.009 4.99244 8.94817C5.19551 8.51396 5.38868 8.07312 5.58763 7.63607C6.0689 6.57899 6.55182 5.52286 7.02814 4.46389C7.12555 4.24773 7.25928 4.1169 7.46401 4.03537C8.16982 3.7519 8.86819 3.44379 9.56988 3.1461C9.99996 2.96407 10.4317 2.78489 10.8626 2.60381C11.6865 2.25683 12.5103 1.90889 13.3342 1.56096C13.3623 1.54958 13.392 1.53726 13.4143 1.51545C13.4531 1.47848 13.4266 1.43392 13.4143 1.39221C13.5108 1.21966 13.69 1.25 13.827 1.18648C13.9566 1.13908 14.0771 1.0784 14.1894 0.99118Z" fill="#FF9245"/>
</svg>
