<svg width="477" height="379" viewBox="0 0 477 379" fill="none" xmlns="http://www.w3.org/2000/svg">
<path d="M62.9365 177.977C67.6576 178.912 84.7867 188.269 88.6309 190.547C93.3309 193.102 109.55 201.615 113.407 204.767C116.221 207.122 148.474 223.629 154.88 226.302C157.902 227.557 170.887 232.547 170.887 232.547C170.868 232.582 166.218 241.413 165.536 243.706C162.622 252.815 160.115 262.217 156.251 270.789C154.553 274.485 103.367 378.641 103.367 378.641C103.367 378.641 68.1492 355.583 49.7246 343.47C31.1662 331.404 0.15625 317.088 0.15625 317.088C0.15625 317.088 17.1288 285.33 25.9463 269.111C34.7635 252.893 52.0301 207.697 53.6123 202.437C54.2555 200.446 62.9365 177.977 62.9365 177.977Z" fill="#F47EDE"/>
<path d="M56.9883 314.42C58.2044 316.326 59.4585 318.202 60.7461 320.044C61.1537 320.992 61.5671 321.932 61.9883 322.869C60.2457 320.111 58.5675 317.282 56.9883 314.42ZM428.894 1.58105C435.234 2.39766 443.434 3.4378 444.56 4.56348C445.375 4.7374 446.235 4.93163 447.04 5.12207C447.324 5.04998 447.612 4.97936 447.9 4.91016C451.596 5.96162 455.231 7.19584 458.771 8.66699C455.528 7.55855 454.721 7.49862 451.331 6.33008C452.621 6.86533 453.903 7.42852 455.129 8.00391C460.288 9.41564 461.227 9.18474 468.333 13.1377C468.717 13.2345 473.558 16.9981 473.542 17.2949C474.093 18.0457 472.929 17.2487 473.171 17.5908C473.314 17.7918 473.637 18.174 473.925 18.6553L473.97 18.71C474.741 19.7559 475.856 21.0457 476.197 22.084C476.569 23.1092 476.387 23.8947 476.367 23.8604C476.001 23.2998 475.913 22.3123 472.933 19.6465L472.818 19.5098C468.076 14.7551 455.272 10.209 451.192 9.1582C443.636 7.00787 435.842 5.69971 427.983 4.96582C414.62 8.42518 402.344 15.9056 391.38 24.6211C376.983 36.8578 359.174 48.7267 352.836 65.2461C354.007 66.0581 354.621 66.7012 356.29 68.1143C356.2 67.8652 356.113 67.6197 356.027 67.376C357.042 68.2715 358.045 69.1825 359.032 70.1035C357.176 69.422 364.473 76.0674 357.343 70.7432C359.328 72.4509 361.265 74.207 363.165 75.998C362.721 75.6878 362.276 75.3779 361.828 75.0703C360.979 74.2514 360.128 73.4448 359.263 72.6436C360.223 73.6521 361.172 74.6751 362.107 75.7041C364.634 77.7918 365.73 78.5075 367.032 79.3232C364.419 76.5206 365.113 77.6013 362.885 75.627C363.094 75.5525 363.114 75.3274 363.445 75.3516C364.318 76.6808 368.157 79.9333 368.999 80.7451C369.147 80.8852 369.28 81.0113 369.396 81.125C371.216 83.0679 369.442 81.5726 370.78 83.2686C372.146 85.0851 373.291 87.7002 373.034 89.5957C373.252 89.5422 373.465 89.3688 373.648 89.2061C373.849 90.6907 373.724 91.4696 373.653 91.8691C373.52 92.4465 373.432 92.2588 373.372 92.4707C370.874 97.7909 368.53 100.349 363.955 105.579C364.612 104.979 365.265 104.364 365.915 103.741C362.671 107.927 365.041 105.286 368.171 101.908C365.502 104.935 364.065 106.899 362.235 109.008C362.104 109.158 361.971 109.305 361.832 109.453C360.367 111.016 357.15 113.752 354.091 112.656C353.198 112.331 352.496 111.97 352.036 111.692C352.72 111.985 353.418 112.229 354.158 112.439C357.411 113.195 359.925 110.759 361.976 108.757C362.703 108.007 363.43 107.244 364.146 106.462C363.605 106.707 363.098 106.961 362.527 107.198C362.216 107.65 361.913 108.052 361.62 108.412C360.327 110.002 359.126 110.598 358.449 110.961C357.214 111.614 356.577 111.804 356.062 111.926C355.557 112.022 355.099 112.055 354.413 111.632C354.409 111.629 354.404 111.626 354.399 111.623C354.401 111.636 354.403 111.649 354.404 111.662C354.418 111.808 354.429 111.935 354.459 112.076C354.402 112.061 354.345 112.044 354.289 112.025C348.163 110.444 346.096 103.547 345.369 99.9688C345.691 99.5836 346.014 99.2889 346.352 98.8652C345.905 96.4663 346.254 94.3421 346.315 92.2812C346.398 90.2191 346.038 90.9773 346.164 88.5332C346.189 88.09 346.474 87.1577 346.475 86.0498C346.465 84.9179 346.052 80.6501 347.002 80.2949C347.315 78.2212 347.658 76.2501 347.991 74.2295C347.73 76.2075 347.464 78.2099 347.22 80.1855C347.683 78.5282 348.154 76.8873 348.63 75.2324C348.476 74.9888 348.318 74.7429 348.165 74.5068C348.355 72.7191 348.595 71.1466 348.855 69.5977C348.998 68.7672 349.183 67.9572 349.408 67.1455C348.821 66.7914 348.189 66.4031 347.673 66.0449C347.498 65.9226 347.323 65.8023 347.149 65.6826C343.227 62.9793 339.86 60.6407 335.503 58.1377C333.015 56.7001 329.214 54.715 326.299 53.5537C325.018 53.0328 323.621 52.6562 322.344 52.2656C320.53 51.7293 320.955 51.6145 320.681 51.5186C319.459 51.1433 319.226 51.3777 318.058 51.1611C315.903 50.8439 315.773 50.5723 313.1 50.6855C311.832 50.7596 309.56 51.2407 307.854 52.2686C306.844 52.8466 305.915 53.4351 305.202 53.9121C301.778 55.9191 298.276 59.0666 296.478 62.668C295.38 64.8012 294.384 66.829 293.573 68.6611C292.194 71.8334 291.892 72.0468 291.395 73.3555C289.756 77.9775 289.266 81.6962 289.538 85.8457C289.636 87.0631 289.842 88.2133 290.164 89.2949C291.524 93.8173 292.87 98.1062 294.562 102.593C294.581 102.644 294.603 102.691 294.621 102.735C296.348 103.988 298.591 105.858 300.088 107.29C300.663 107.837 299.938 107.404 301.179 108.67C302.045 109.542 304.529 111.744 304.777 112.57C304.924 113.092 300.917 109.592 305.803 115.043C306.535 116.227 304.274 113.544 304.2 113.519C303.577 113.221 306.406 116.706 307.873 118.172C307.993 118.286 307.105 116.894 308.313 118.211C311.164 121.344 312.465 123.444 313.855 125.815C314.34 125.815 316.873 128.379 319.327 132.073C319.549 132.193 319.765 132.305 319.987 132.425C319.54 131.897 319.095 131.372 318.644 130.846C318.26 130.194 317.838 129.524 317.469 128.881C320.171 132.435 320.955 132.656 322.348 134.299C322.487 134.465 322.62 134.624 322.745 134.775C324.165 136.45 323.941 138.56 323.591 139.198C323.251 139.922 323.088 139.862 323.098 139.536C323.098 139.204 323.175 138.522 323.042 137.865C322.922 137.2 322.614 136.637 322.415 136.316C322.3 135.955 322.152 135.631 321.974 135.312C321.674 134.76 321.379 134.213 321.074 133.659C321.024 133.822 320.974 133.987 320.918 134.144C321.248 134.614 321.543 135.041 321.807 135.429C323.22 137.458 322.254 139.081 321.934 139.403C321.543 139.828 321.477 139.682 321.477 139.496C321.475 139.302 321.489 139.037 321.338 139.071C321.173 139.089 320.938 139.467 319.926 140.086C319.679 140.518 319.035 141.101 317.993 141.347C315.988 141.858 313.094 140.356 310.952 137.81C310.558 137.432 310.131 136.987 309.763 136.586C309.628 136.581 309.519 136.682 309.368 136.608C305.24 131.849 305.786 130.158 305.491 129.651C304.473 127.239 302.979 125.752 302.603 125.086C301.032 122.246 300.842 121.271 299.391 118.547C297.855 115.595 298.646 117.735 298.05 116.895C297.569 116.214 296.463 113.824 295.896 112.883C296.181 113.232 296.484 113.624 296.77 113.967C296.003 111.978 295.354 110.202 294.646 108.273C289.172 103.323 283.194 99.2157 277.472 100.05C275.542 100.426 273.55 101.032 271.589 101.793C268.032 103.135 263.598 105.759 260.521 108.264C259.862 108.795 260.182 108.37 259.753 108.693C259.712 108.725 259.665 108.764 259.609 108.81C258.952 109.36 259.786 108.879 259.036 109.502C255.437 112.513 252.383 115.185 251.403 118.2C251.092 119.179 250.872 120.195 250.75 121.273C250.646 121.505 250.6 121.488 250.467 121.885C250.368 122.998 250.27 124.404 250.155 126.022C250.353 126.131 250.552 126.241 250.75 126.354C251.245 126.853 251.738 127.375 252.195 127.897C252.673 128.157 253.15 128.434 253.616 128.717C253.243 128.656 252.904 128.623 252.518 128.567C251.567 127.659 250.815 127.055 250.115 126.59C250.105 126.728 250.095 126.867 250.085 127.008C253.483 129.179 256.429 132.006 259.007 135.1C258.652 134.62 258.285 134.137 257.913 133.669C260.136 135.819 258.489 133.074 262.003 137.647C261.849 137.715 261.699 137.788 261.544 137.856C263.147 139.279 266.279 144.032 265.698 142.238C266.515 143.751 266.621 144.095 267.384 144.753C269.529 148.715 270.796 151.33 269.402 150.354C269.842 150.92 270.276 151.465 270.724 152.023C271.378 152.835 271.822 153.854 271.953 154.917C272.035 153.839 271.783 152.673 271.239 151.654C271.236 151.649 271.233 151.642 271.23 151.637C271.234 151.642 271.238 151.647 271.241 151.652C273.491 154.674 272.083 158.559 270.639 161.018C270.361 161.025 271.068 159.758 271.493 158.522C271.936 157.289 272.041 156.138 271.677 156.999C271.553 157.341 271.181 158.948 270.935 159.309C269.716 161.198 269.958 160.585 270.409 159.685C270.864 158.773 271.283 157.426 270.892 157.978C268.313 163.221 269.502 159.659 266.599 164.657C266.274 165.191 265.906 165.824 265.43 166.538C265.181 166.64 264.919 166.746 264.683 166.814C263.719 167.924 263.216 168.208 262.722 168.388C262.085 168.557 261.537 168.75 260.237 168.695C258.558 168.617 256.914 167.409 255.368 166.576C255.22 166.503 255.637 167.063 255.479 167.15C255.364 167.198 254.313 167.007 252.379 164.29C249.791 159.876 251.34 161.474 250.429 158.938C249.542 156.398 247.7 150.402 248.238 148.468C248.333 149.882 248.581 151.684 248.835 153.233C249.11 153.836 249.387 154.403 249.679 154.975C248.615 151.558 248.345 147.824 247.771 145.45C247.789 140.625 247.315 135.269 246.738 136.728C246.855 138.331 247.067 136.577 246.967 138.799C246.838 139.035 246.71 139.271 246.583 139.503C246.455 135.727 246.522 133.117 246.921 134.825C246.931 134.25 246.946 133.662 246.964 133.082C246.664 132.974 246.362 132.877 246.062 132.769C246.041 132.057 246.025 131.377 246.017 130.652C246.103 129.935 246.199 129.201 246.302 128.475C246.165 128.39 246.027 128.306 245.889 128.224C245.826 129.84 245.791 131.455 245.797 133.074C245.589 132.429 244.774 131.265 245.058 127.744C242.203 126.16 239.057 125.056 235.518 124.591C233.82 124.249 232.139 123.91 230.477 123.597C228.915 123.307 229.907 123.681 227.964 123.329C221.19 121.686 209.528 121.933 204.358 124.714C200.014 126.658 200.272 126.944 198.64 127.987C198.35 128.186 198.003 128.422 197.571 128.732C197.067 129.103 197.396 128.677 196.933 129.001C195.455 130.037 193.994 131.445 193.465 132.608C192.57 134.624 191.881 136.735 191.456 138.439C190.934 140.632 191.24 140.511 190.999 142.043C190.657 144.327 190.252 146.695 190.219 147.932C190.127 150.997 190.395 153.553 190.844 156.025C190.933 156.07 191.024 156.115 191.115 156.161C191.033 156.166 190.951 156.173 190.87 156.179C190.882 156.243 190.893 156.306 190.905 156.37C190.916 156.428 190.926 156.488 190.938 156.546C196.272 159.896 201.281 163.959 195.979 160.921C194.25 159.602 194.78 159.756 193.891 158.947L193.89 158.948C193.646 158.728 192.437 157.879 191.961 157.566C192.082 157.775 192.244 158.011 192.376 158.229C191.984 157.987 191.553 157.721 191.104 157.443C191.144 157.666 191.186 157.889 191.227 158.112C192.554 158.995 193.564 159.664 196.085 161.104C199.156 163.242 201.967 164.534 203.878 165.571C204.404 166.021 204.902 166.451 205.438 166.905C205.516 166.972 205.595 167.039 205.673 167.105C206.161 167.311 206.636 167.52 207.121 167.751C207.825 168.495 208.525 169.294 209.155 170.096C209.787 170.248 210.204 170.243 207.162 167.626C208.622 167.959 213.676 173.217 214.878 175.935C215.904 177.891 214.342 175.975 214.441 176.243C214.84 177.066 216.513 180.213 216.701 180.962C217.681 183.983 218.139 186.193 218.143 189.09C218.141 189.169 218.136 189.264 218.126 189.364C218.09 190.109 217.649 191.298 217.596 191.401C217.382 192.484 215.8 194.556 215.488 194.728C215.485 194.73 215.482 194.733 215.479 194.735C213.331 196.712 211.523 197.062 210.532 197.314C209.509 197.521 209.155 197.524 209.113 197.61C209.011 197.765 210.197 197.969 208.845 198.066C208.084 198.043 206.288 198.178 203.14 196.667C203.47 196.982 203.787 197.27 204.149 197.557C203.088 197.153 202.067 196.617 201.134 195.988C200.059 195.046 201.491 195.985 199.277 194.299C199.523 194.299 199.765 194.294 200.016 194.292C199.076 193.588 198.232 192.812 197.42 191.928C196.5 190.176 193.795 184.192 194.691 184.335C194.918 184.431 197.143 188.366 196.295 186.123C195.508 184.366 195.817 185.656 195.474 184.946C193.184 179.678 193.865 179.783 193.062 177.575C192.801 177.266 192.534 176.934 192.273 176.607C192.089 175.73 191.918 174.848 191.758 173.96C191.601 173.783 191.443 173.597 191.287 173.419C191.469 174.243 191.688 175.171 191.874 175.922C191.085 175.011 188.945 165.269 190.048 168.924C190.484 170.413 191.025 173.182 191.148 171.333C190.523 168.758 189.908 165.803 189.361 163.063C189.455 162.959 189.55 162.86 189.644 162.755C188.938 159.055 189.081 162.499 188.849 162.537C188.697 161.691 188.544 160.824 188.394 159.983C188.397 159.954 188.399 159.925 188.402 159.896C187.977 159.642 187.537 159.379 187.068 159.097C186.53 158.777 186.694 158.667 186.315 158.462C185.052 157.702 181.355 156.387 180.464 156.244C178.768 155.787 177.105 155.606 175.414 155.643C167.16 155.539 161.122 153.1 154.631 154.359C153.763 154.518 154.918 154.471 154.021 154.643C152.597 154.954 153.366 154.499 152.537 154.701C150.587 155.251 150.344 155.557 148.498 156.478C148.13 156.668 147.687 156.891 147.17 157.147C137.17 162.341 123.525 169.239 118.933 178.393C118.812 178.736 118.693 179.085 118.573 179.438C118.448 179.809 118.609 179.853 118.48 180.247C117.621 182.875 116.616 185.519 115.982 187.965C114.938 192.036 114.512 195.154 113.835 199.221C112.574 207.16 111.956 214.377 112.738 222.503C113.222 226.916 113.982 230.927 115.407 234.989C115.609 234.887 115.839 234.771 116.105 234.637C116.476 234.453 116.444 234.242 117.223 233.919C121.078 231.793 129.985 232.33 124.907 232.727C121.36 232.843 118.292 233.995 115.55 235.392C115.603 235.54 115.659 235.688 115.714 235.836C115.727 235.829 115.74 235.824 115.752 235.817C116.429 235.456 116.508 235.242 117.465 234.883C122.288 233.364 119.263 234.888 118.688 235.463C121.678 234.302 121.78 234.364 122.128 234.164C122.508 234.117 123.209 233.349 128.048 233.745C129.058 233.56 124.49 232.772 128.349 233.031C128.961 233.645 131.766 234.334 136.11 237.045C136.596 237.19 137.08 237.341 137.562 237.496C139.391 239.038 138.571 239.071 141.231 240.298C141.709 240.513 142.276 240.797 142.932 241.228C141.466 240.746 141.245 240.808 141.822 241.185C142.379 241.582 143.787 242.557 144.837 244.596C145.253 245.404 143.939 243.772 144.532 244.881C144.798 245.375 145.62 246.511 145.988 247.87C146.218 248.526 146.714 251.659 147.134 253.824C147.412 252.121 148.413 256.338 148.317 252.598C149.134 259.474 148.834 264.245 148.189 256.604C148.13 258.336 147.964 260.058 147.712 261.756C147.761 262.953 147.764 264.167 147.724 265.382C147.477 265.452 147.346 265.428 147.163 266.228C146.995 266.809 146.929 267.963 146.033 269.635C146.581 268.599 146.839 267.403 146.963 266.196C147.041 265.433 147.101 264.656 147.143 263.887C147.067 263.809 147.009 263.521 146.922 263.58C146.901 264.208 146.833 265.121 146.707 266.157C146.533 267.745 145.949 269.615 144.879 270.551C144.014 271.339 142.877 271.565 142.369 271.667C141.596 271.794 141.958 271.807 142.471 271.779C142.983 271.753 143.611 271.588 143.409 271.705C141.372 272.717 140.268 272.393 139.451 272.206C138.803 272.014 138.203 271.735 137.082 271.146C136.321 270.716 136.8 271.1 137.395 271.479C137.985 271.862 138.757 272.17 138.303 272.018C135.058 270.606 134.294 268.894 132.215 266.723C132.748 267.706 133.308 268.67 133.929 269.601C131.514 267.371 129.263 264.526 127.399 262.165C126.675 261.24 127.043 262.07 126.919 261.925C126.283 261.203 123.965 258.058 123.746 257.715C122.017 255.136 122.205 254.912 120.6 252.37C121.248 253.349 121.866 254.272 122.519 255.229C123.173 255.419 123.844 255.63 124.5 255.813C122.904 253.358 121.365 250.87 119.846 248.346C120.847 250.252 121.871 252.155 122.918 254.04C120.791 251.421 118.71 248.742 116.66 246.044C116.482 245.642 116.303 245.236 116.123 244.829C115.578 243.6 115.097 242.358 114.673 241.099L114.672 241.098C114.132 241.429 113.609 241.757 112.994 242.127C113.085 242.282 113.184 242.453 113.294 242.639C113.415 243.447 113.572 244.235 113.742 245.035C113.272 244.215 112.861 243.456 112.421 242.568C112.613 242.685 112.645 242.601 112.581 242.374C112.004 242.715 111.339 243.095 110.512 243.541C108.778 244.5 109.81 243.339 107.033 245.244C104.569 247.034 107.469 245.358 99.8223 250.096C99.6273 250.222 98.4827 250.64 97.0166 251.803C95.5593 252.984 97.3936 251.827 93.8701 254.631C86.8138 260.31 78.7616 268.16 73.2539 277.273C72.2902 278.851 71.313 280.395 70.3457 281.905C69.9146 282.603 65.8241 289.056 65.1104 290.334C63.7098 292.819 64.1608 292.437 62.3994 295.579C61.1124 297.984 59.8097 299.922 59.1357 302.611C59.0969 302.894 59.0702 303.583 59.042 305.171C59.0495 305.733 59.1751 306.426 59.5391 307.08C60.783 309.395 62.3278 312.09 63.2295 313.929C63.5663 314.635 64.226 317.297 64.1318 317.345C63.7753 317.473 62.0505 314.765 63.6533 317.819C63.0366 316.836 62.4414 315.886 61.8457 314.897C61.7389 315.202 61.6325 315.506 61.5225 315.802C62.2785 316.99 63.0509 318.17 63.8379 319.337C63.8062 319.44 63.7745 319.542 63.7422 319.644C61.0486 315.35 62.3666 318.056 60.7451 315.956C61.8611 318.117 63.0452 320.27 64.252 322.382C63.4997 321.201 62.6162 319.799 61.9844 318.741C61.5382 318.828 63.1983 321.265 63.417 321.731C64.5245 324.413 57.0681 311.935 56.1064 311.089C57.1605 313.17 58.3187 315.329 59.4932 317.407C59.0754 316.86 58.6558 316.3 58.2441 315.746C57.2585 313.716 56.2211 311.597 55.1758 309.386C53.4381 305.808 54.5222 301.747 56.0508 298.433C56.251 297.898 56.474 297.352 56.6953 296.842C56.4526 296.913 56.2145 296.976 55.9717 297.053C56.312 296.249 56.6904 295.439 57.0781 294.655C56.4727 297.244 57.998 293.988 60.5527 290.622C59.5533 292.631 58.1133 294.998 58.5674 295.029C61.7525 288.53 67.0735 281.944 70.5869 275.645C70.8087 275.251 71.0292 274.863 71.2471 274.48C72.1874 272.888 71.6841 272.549 74.3262 269.036C74.2832 269.19 74.3519 269.273 74.3555 269.396C78.7493 263.229 81.8686 259.729 87.9521 254.718C87.4846 254.871 87.0186 255.025 86.5498 255.187C85.3581 256.368 84.1873 257.589 83.0645 258.821C82.0454 259.414 83.0883 258.065 79.626 261.711C76.8562 264.764 78.6109 263.042 77.9346 263.938C77.0378 265.162 75.9948 266.026 75.0967 267.396C74.4151 268.463 75.4236 267.519 73.4248 270.114C73.9264 268.852 74.469 267.569 75.0449 266.308C75.6076 265.725 76.1782 265.153 76.7568 264.588C76.2989 265.267 75.8564 265.942 75.4199 266.631C77.084 264.298 78.7657 262.164 80.7119 259.915C80.3878 260.942 82.384 258.617 83.5566 257.44C85.3799 255.602 83.9888 257.359 85.1934 256.169C86.4053 254.99 87.528 253.483 89.9639 251.613C88.8204 252.818 90.6804 251.559 90.4697 251.986C90.2483 252.41 87.8067 254.487 90.3242 252.694C94.8816 248.877 89.3335 252.269 92.4434 249.699C96.2501 246.653 97.9377 247.089 96.9043 248.11C96.0946 248.913 92.9612 251.183 92.209 252.061C97.9165 248.157 97.629 247.655 98.5156 246.834C101.827 244.012 100.153 246.744 104.199 243.631C104.255 243.905 104.312 244.147 104.362 244.412C105.084 243.917 105.548 243.565 106.444 242.996C103.502 244.142 105.693 242.857 106.842 242.196C108.633 241.166 105.742 242.539 106.182 242.214C107.369 241.317 109.467 240.248 108.099 240.75C108.712 240.527 109.383 240.279 110.011 240.058C110.378 239.828 110.828 239.525 111.292 239.199C111.264 239.117 111.237 239.035 111.211 238.953C110.731 237.383 111.069 237.559 111.678 238.925C112.129 238.601 112.574 238.266 112.954 237.966C112.837 237.787 112.739 237.638 112.656 237.502C112.444 237.615 112.203 237.746 111.933 237.897C112.018 237.707 112.243 237.512 112.552 237.319C112.501 237.224 112.457 237.131 112.421 237.031C110.764 237.911 109.084 238.815 107.335 239.748C109.069 239.408 106.19 241.139 102.434 243.754C103.457 242.432 107.725 239.738 102.785 242.075C102.519 242.466 102.243 242.866 101.977 243.262C100.302 244.128 98.6294 245.041 96.9805 245.991C96.4667 246.435 95.9459 246.89 95.4365 247.343C94.5394 247.565 93.6344 247.802 92.7354 248.048C93.3835 247.627 94.0536 247.2 94.71 246.792C97.0388 244.797 99.2744 243.194 102.791 240.997C102.437 241.117 102.087 241.237 101.732 241.361C103.604 240.369 105.492 239.425 107.39 238.527C105.866 239.526 104.186 240.678 102.809 241.663C105.375 240.703 109.364 238.14 111.506 236.924C111.801 236.755 112.062 236.608 112.293 236.481C112.261 236.234 112.244 235.93 112.238 235.523C111.729 234.204 111.275 232.863 110.872 231.505C111.029 231.674 111.187 231.841 111.345 232.007C110.854 230.383 110.437 228.731 110.087 227.065C109.993 228.894 109.952 230.717 110.04 232.565C109.123 229.265 109.518 229.118 109.487 228.608C109.439 227.253 108.761 224.666 108.858 223.58C108.874 223.223 109.524 226.466 109.626 225.304C109.62 225.061 110.035 220.629 109.76 217.877C109.592 217.935 109.391 218.158 109.212 218.279C108.969 214.51 109.971 212.616 110.194 213.118C110.05 211.133 110.231 208.232 109.999 207.805C110.071 206.79 110.159 205.783 110.262 204.771C110.796 205.887 111.163 201.683 110.659 201.328C110.402 203.061 110.186 204.8 110.015 206.539C109.508 205.165 108.309 210.4 110.417 199.449C111.092 197.408 109.819 203.175 110.34 201.504C110.908 198.555 111.276 195.757 112.114 193.021C113.215 189.637 112.417 193.931 114.079 185.853C109.359 201.88 112.728 186.228 115.762 177.289C116.042 176.429 116.415 175.659 116.772 175.007C118.755 173.315 123.725 168.303 131.976 162.719C130.95 163.042 128.439 164.911 126.95 165.925C125.465 166.935 126.905 165.62 125.053 166.898C123.171 168.165 119.501 171.284 117.962 173.096C118.852 171.211 126.015 164.609 121.487 169.179C125.23 166.193 127.176 165.112 132.081 161.956C133.333 160.672 133.04 160.431 137.991 157.581C135.354 159.758 141.191 156.956 140.248 158.199C136.68 160.021 138.338 158.404 136.175 159.318C135.946 159.404 132.813 161.479 132.081 161.956C135.572 160.383 136.798 159.944 135.149 161.674C137.387 160.25 138.875 159.523 138.935 159.134C139.481 158.979 140.035 158.824 140.574 158.681C141.331 158.263 142.009 157.887 142.822 157.463C141.492 157.642 143.781 156.746 145.245 155.784C146.525 154.948 144.979 155.364 147.372 154.119C147.744 153.929 148.186 153.718 148.775 153.473C148.265 153.646 147.802 153.815 147.319 154.008C146.373 154.385 145.439 154.773 144.485 155.176C145.375 154.684 146.284 154.193 147.182 153.721C149.043 152.743 151.003 151.96 153.048 151.425C151.3 151.528 148.03 152.413 146.721 152.755C146.373 152.83 146.156 152.842 146.146 152.758C146.281 152.709 146.444 152.641 146.628 152.561C148.355 151.702 152.352 150.293 152.881 150.24C155.03 149.775 153.896 150.247 154.06 150.216C157.462 149.738 160.276 149.841 161.511 150.275C164.025 150.297 165.876 150.696 168.435 151.076C169.841 151.283 169.604 150.982 170.414 151.145C174.252 151.823 172.696 151.925 175.349 151.858C176.463 151.815 178.326 151.639 181.473 152.283C180.198 151.746 178.863 151.322 177.471 151.034C178.788 151.063 180.107 151.213 181.408 151.48C182.258 151.736 183.077 152.036 183.883 152.376C183.726 152.739 183.566 153.102 183.41 153.465C184.256 153.805 185.084 154.189 185.892 154.604C184.475 153.961 183.011 153.41 181.494 153.021C181.338 153.049 181.191 153.082 181.037 153.113C183.236 153.801 185.271 154.838 187.21 156.014C187.313 155.914 187.417 155.812 187.521 155.713C187.542 155.726 187.563 155.741 187.585 155.755C187.565 155.44 187.584 155.308 187.621 155.262C185.043 153.605 183.622 152.533 187.888 154.571C187.867 154.336 187.832 154.027 187.776 153.624C187.554 153.877 187.277 155.071 186.941 151.536C187.198 151.166 187.433 150.679 187.716 150.4C187.406 146.056 187.944 144.091 188.609 139.04C188.955 136.627 189.439 133.474 190.557 131.424C190.927 130.738 191.43 130.25 191.938 129.997C193.393 128.215 192.796 128.637 193.228 128.086C194.537 126.614 196.04 125.797 197.094 125.323C197.848 124.985 198.376 124.803 198.605 124.692C202.158 123.023 203.724 122.189 206.819 121.422C206.596 121.285 206.448 121.136 206.255 120.996C203.569 122.23 202.187 122.745 198.514 124.622C199.716 123.922 200.927 123.272 202.177 122.673C201.907 122.617 201.636 122.563 201.369 122.511C199.482 123.499 198.046 124.368 196.931 125.043C194.893 126.298 194.09 126.982 194.068 126.833C194.062 126.706 194.886 125.772 196.662 124.579C197.966 123.708 199.729 122.637 201.973 121.598C202.963 121.488 203.972 121.403 204.933 121.371C210.675 118.971 213.844 118.83 220.799 119.221C221.628 119.262 224.671 119.405 225.964 119.602C225.943 119.597 225.921 119.593 225.899 119.589C226.742 119.428 225.673 119.141 225.573 118.876C226.288 118.943 226.996 119.018 227.703 119.101C229.243 119.553 228.666 119.598 231.733 120.125C231.357 119.86 230.987 119.596 230.604 119.332C232.838 119.74 234.529 120.174 236.323 120.567C237.276 120.777 238.21 120.991 239.284 121.244C238.746 121.176 238.183 121.112 237.654 121.065C244.384 123.085 238.706 122.54 243.822 123.756C244.091 123.97 244.351 124.185 244.618 124.407C242.649 123.575 240.606 122.924 238.541 122.422C238.465 122.545 238.386 122.668 238.318 122.793C240.521 123.306 242.699 123.987 244.78 124.873C243.235 124.284 241.638 123.802 240.043 123.425C242.523 124.231 244.907 125.268 247.134 126.579V126.576C245.744 125.467 246.547 125.734 247.215 125.873C247.236 125.685 247.261 125.488 247.285 125.282C247.122 125.253 246.96 125.215 246.797 125.186C246.809 125.089 246.823 124.993 246.835 124.899C246.448 124.719 246.027 124.52 245.561 124.285C244.844 123.953 247.366 124.771 244.485 123.54C245.313 123.816 246.114 124.117 246.896 124.444C247.364 121.13 247.811 120.17 248.833 117.299C249.142 116.501 249.595 115.577 250.306 114.502C249.762 115.58 249.342 116.534 249.05 117.376C248.189 119.913 247.709 121.319 248.535 121.44C248.266 122.561 248.065 123.719 247.898 124.885C248.057 124.957 248.215 125.031 248.373 125.106C248.499 122.841 248.673 120.156 249.448 117.516C250.891 112.868 255.234 109.204 257.48 107.793C257.732 107.492 257.99 107.197 258.249 106.895C258.337 106.792 258.425 106.688 258.514 106.584C262.037 104.356 263.077 102.545 267.148 101.106C267.583 101.021 267.1 102.015 272.121 100.035C271.953 99.9679 271.818 99.8016 271.662 99.6973C272.799 99.3592 273.942 99.0739 275.084 98.8447C275.258 98.6832 275.447 98.5184 275.624 98.3594C273.662 98.805 271.724 99.4204 269.831 100.158C271.377 99.4758 272.97 98.8738 274.587 98.3818C272.42 98.8157 271.472 99.1987 272.648 98.4785C274.049 98.0007 275.478 97.5925 276.925 97.291C277.368 97.1989 277.821 97.1345 278.272 97.0977C278.464 97.0092 278.659 96.9245 278.86 96.8457C278.196 96.7053 277.499 96.6239 276.789 96.6074C276.494 96.5976 276.189 96.5927 275.891 96.5908C276.18 96.5356 276.473 96.4831 276.756 96.4365C281.821 95.6874 285.916 97.8046 288.853 99.9482C289.348 100.359 287.434 99.3901 290.744 101.313C290.646 101.059 290.546 100.804 290.448 100.549C289.57 100.006 288.573 99.436 287.418 98.834C288.399 99.2383 289.372 99.7061 290.317 100.206C290.269 100.079 290.222 99.9513 290.174 99.8242C290.013 99.6934 289.846 99.5578 289.664 99.416C289.835 99.5361 289.996 99.6499 290.147 99.7559C290.052 99.5033 289.955 99.2499 289.86 98.9971C289.855 98.9634 289.851 98.9293 289.846 98.8965C289.094 98.5691 288.329 98.2639 287.568 98C286.598 97.3629 285.608 96.7887 284.531 96.2822C284.528 96.2812 284.525 96.2803 284.522 96.2793C284.253 96.3336 283.986 96.3945 283.734 96.4629C281.543 95.7401 279.065 95.3849 276.635 95.8193C276.462 95.8494 276.285 95.882 276.108 95.916C276.285 95.863 276.457 95.8135 276.623 95.7666C282.054 94.6959 284.571 95.5254 289.833 98.8057C289.739 98.1784 289.685 97.6744 289.552 96.9111C288.773 95.4556 287.724 92.0765 287.117 90.2461C287.039 90.0117 286.97 89.8008 286.912 89.6211C285.793 85.809 285.864 84.3439 285.8 83.0576C285.828 81.7689 285.925 80.5017 287.155 77.0977C286.191 82.1766 286.457 82.2606 286.806 87.29C286.896 86.169 286.814 83.6519 287.191 85.2734C287.145 80.4859 286.94 81.998 286.88 80.0703C286.871 78.3886 287.762 75.147 287.436 75.248C287.692 74.9647 287.924 74.7591 288.185 74.4854C289.153 71.4406 290.418 68.4958 291.807 65.6279C291.369 66.9273 290.959 68.2308 290.587 69.541C291.048 68.6267 291.528 67.7242 292.022 66.8301C292.649 65.2232 293.511 63.4324 294.448 61.6113C297.718 55.097 305.165 51.5831 303.059 51.5615C304.675 50.4726 305.645 49.9901 306.433 49.6406C307.199 49.3114 307.816 49.1426 308.798 48.9365C308.978 48.7676 309.162 48.6204 309.351 48.4473C311.738 47.8926 313.64 47.4329 315.826 47.6572C318 47.927 318.444 48.4434 318.867 47.8818C320.23 48.3022 321.554 48.7819 322.832 49.335C323.679 49.4438 324.514 49.5766 325.348 49.7295C326.563 50.2439 327.759 50.8061 328.93 51.3984C329.708 51.3745 334.307 53.7494 336.365 54.7314C338.087 56.0849 337.56 56.8535 341.918 59.3828C341.94 59.1057 341.963 58.8295 341.983 58.5518C342.938 59.2176 343.878 59.8896 344.829 60.582C344.843 60.6874 344.848 60.7884 344.861 60.8936C344.384 60.5462 343.906 60.2011 343.427 59.8584C343.782 60.2515 344.127 60.6407 344.474 61.0332C345.921 61.7717 347.361 62.53 348.799 63.3027C348.933 63.3749 349.067 63.4486 349.201 63.5215C349.082 63.4265 348.963 63.3307 348.844 63.2363C347.087 61.845 345.302 60.4644 343.489 59.1201C345.784 60.4225 347.317 61.6112 349.169 62.7695C349.442 62.9406 349.722 63.112 350.011 63.2852C350.227 63.4942 350.401 63.6715 350.539 63.8193C350.72 63.3582 350.911 62.887 351.116 62.4043C351.44 61.7046 350.27 63.1703 351.896 60.1396C353.643 57.1513 355.545 55.3977 359.047 50.7617C359.223 50.5312 359.945 48.8439 361.641 47.5635C362.022 47.2727 360.767 48.8266 361.582 48.1006C362.384 47.3474 365.862 43.9327 366.324 43.877C366.221 43.8468 365.937 43.991 365.767 44.0264C366.323 43.413 366.902 42.7865 367.474 42.1787C367.644 42.2437 367.82 42.3055 367.989 42.3701C371.206 38.8049 372.625 36.6629 378.175 32.2002C376.506 33.3014 374.818 34.4387 373.162 35.5791C372.869 36.0614 372.559 36.5625 372.269 37.0469C369.776 39.1826 367.317 41.3747 364.942 43.6387C364.701 44.1478 364.45 44.6716 364.213 45.1855C363.598 45.7753 362.967 46.3962 362.365 47C362.411 46.7493 362.46 46.4961 362.516 46.2373C361.356 47.5048 360.214 48.8108 359.129 50.1299C360.752 46.9047 365.866 43.0695 365.058 42.9268C365.687 42.4556 366.321 41.9892 366.952 41.5332C366.972 41.0587 368.176 40.0259 370.264 38.1943C369.679 38.5056 369.067 38.8496 368.516 39.1367C370.652 37.4531 374.239 34.2547 376.433 32.5068C377.383 31.7462 376.615 32.7184 376.908 32.5049C378.422 31.4004 380.912 28.7778 381.506 28.333C384.498 26.0745 386.925 24.8593 389.68 22.499C390.228 22.0304 390.774 21.533 391.362 20.9678C390.502 21.6009 389.935 22.0295 389.54 22.3252C388.07 23.4279 389.167 22.5288 387.918 23.2383C387.438 23.5056 382.221 27.4766 388.641 22.4062C388.722 22.3422 388.932 22.1818 389.24 21.9512C391.713 19.9341 401.324 13.8716 397.956 16.6602C399.849 15.1989 401.337 14.0493 403.134 12.7783C408.291 10.9876 406.196 11.0535 404.551 11.3379C405.307 10.8894 406.037 10.4634 406.831 10.0205C405.429 11.4335 414.053 6.82674 417.091 5.4082C418.084 4.88962 415.121 5.90458 417.481 4.83398C418.638 4.41093 419.974 3.96279 421.221 3.58008C419.301 3.84708 422.776 2.48419 422.618 2.14844C425.021 1.74019 426.966 2.02054 425.811 2.73438C426.456 2.49874 427.105 2.27338 427.753 2.06055C429.05 2.07851 430.288 2.1053 431.586 2.1543C430.684 1.95414 429.792 1.76422 428.894 1.58105ZM72.0527 270.915C71.5483 271.994 71.0647 273.087 70.6094 274.187C70.385 274.538 70.163 274.894 69.9434 275.251C67.2016 279.714 64.1999 284.027 61.3438 288.465C61.3421 288.467 61.3395 288.47 61.3379 288.473C61.0817 288.462 62.1264 286.717 60.7119 288.541C61.6525 287.061 62.6134 285.6 63.5781 284.137C63.3133 284.576 63.0403 285.028 62.7754 285.47C63.0877 285.132 63.4042 284.791 63.7158 284.456C63.8437 283.798 64.2862 283.399 65.3623 281.92C64.8579 282.191 64.3523 282.461 63.8467 282.733C65.0846 281.004 66.3217 279.273 67.5244 277.536C67.5961 277.551 67.6685 277.566 67.7402 277.581C68.0935 276.863 68.4383 276.148 68.7803 275.428C68.9634 275.287 69.1416 275.151 69.3242 275.01C69.3423 274.975 69.3599 274.941 69.3779 274.906C69.8217 274.066 70.2761 273.241 70.749 272.417C71.0856 272.283 69.9359 274.113 72.0527 270.915ZM75.7285 270.043C74.3174 272.099 71.517 276.271 72.5703 275.439C72.5688 275.442 72.567 275.445 72.5654 275.447C72.6112 275.367 75.2446 271.743 75.4961 271.212C75.6448 270.731 75.6481 270.433 75.7285 270.043ZM148.785 269.633C149.354 268.351 149.582 267.228 149.607 267.528C149.24 269.221 148.591 271.234 146.821 272.797C145.944 273.553 144.944 274.003 143.985 274.265C143.871 274.195 143.828 274.106 143.696 274.038C145.002 273.631 145.208 273.658 146.645 272.592C146.686 272.557 146.729 272.52 146.772 272.481C146.771 272.483 146.768 272.484 146.767 272.485C147.081 272.263 148.265 270.931 148.785 269.633ZM148.571 266.225C149.327 265.273 149.307 265.128 149.077 266.518C148.943 267.218 148.794 268.29 148.184 269.834C147.405 271.481 148.405 269.984 147.835 271.009C147.47 271.605 147.033 272.113 146.573 272.509C144.517 274.109 143.193 273.861 142.75 273.823C142.278 273.712 142.503 273.501 143.034 273.267C144.082 273.068 145.153 272.652 146.033 271.885C147.712 270.374 148.255 268.29 148.541 266.436C148.551 266.369 148.56 266.302 148.569 266.234C148.57 266.231 148.571 266.228 148.571 266.225ZM127.358 263.09C130.067 266.339 132.033 268.77 135.261 271.579L135.29 271.608C135.328 271.679 134.41 271.171 134.627 271.388C135.34 271.915 136.148 272.426 137.013 272.836C137.063 273.016 137.116 273.196 137.185 273.379C134.657 272.098 132.906 270.292 131.239 268.487C131.43 268.809 131.626 269.13 131.832 269.452C130.313 267.97 128.956 266.411 127.658 264.822C128.276 265.247 128.895 265.657 129.522 266.059C128.771 265.082 128.051 264.089 127.358 263.09ZM139.438 243.562C132.543 239.333 127.326 236.252 120.977 238.43C120.267 238.649 120.504 238.421 120.294 238.498C118.523 239.199 118.247 239.565 117.59 239.604C117.506 239.612 117.416 239.616 117.317 239.617C117.56 240.127 117.813 240.64 118.08 241.157C118.414 241.788 118.765 242.409 119.133 243.021C125.234 252.7 132.203 265.547 140.054 269.292C141.521 269.622 143.055 269.29 143.429 268.874C143.887 268.512 144.419 267.297 144.609 265.839C145.792 257.589 145.089 246.83 139.438 243.562ZM76.377 268.623C79.2052 264.911 80.2651 263.607 78.1943 265.321C77.1885 266.644 76.2133 268.007 75.293 269.381C75.6549 269.122 76.0171 268.869 76.377 268.623ZM86.7051 253.823C86.1571 254.196 85.6132 254.571 85.0664 254.96C85.0642 254.962 85.0627 254.965 85.0605 254.967C84.5912 255.471 84.1257 255.98 83.6748 256.484C83.2847 256.666 82.8966 256.849 82.5068 257.037C80.8458 258.812 79.2431 260.657 77.7266 262.553C77.5977 262.05 80.6073 258.882 82.1572 257.023C84.8227 254.631 86.3076 253.717 86.7051 253.823ZM147.355 244.796C149.03 247.776 148.703 248.451 149.466 251.287C150.121 254.144 150.457 255.967 149.936 258.414C149.84 257.511 149.679 256.543 149.51 255.624C149.349 251.557 148.891 250.438 147.617 247.376C147.867 247.352 148.116 247.328 148.367 247.309C148.366 247.306 148.366 247.302 148.365 247.299C148.081 246.453 147.785 245.64 147.355 244.796ZM120.444 252.828C123.872 258.083 122.821 256.67 121.635 255.703C121.23 254.745 120.829 253.78 120.444 252.828ZM100.432 247.436C100.262 246.949 98.2052 248.612 94.9668 250.841C94.455 251.173 90.9729 253.074 90.2451 254.321C90.0928 254.558 93.3623 252.007 91.2969 254.037C92.2886 253.259 93.1402 252.584 94.0898 251.875C94.2312 251.919 94.3715 251.964 94.5205 252.003C93.3303 252.85 92.1575 253.72 90.9971 254.619C92.6072 253.734 96.3331 251.051 97.9727 249.448C96.973 250.092 95.9811 250.752 95.0059 251.424C96.7768 250.043 98.567 248.724 100.432 247.436ZM90.4932 251.062C89.336 251.979 88.185 252.928 87.0684 253.89C86.7647 254.065 86.4698 254.236 86.166 254.416C87.2322 253.313 88.3256 252.231 89.4385 251.174C89.7871 251.138 90.1403 251.099 90.4932 251.062ZM114.629 245.726C115.863 247.383 117.706 250.604 118.933 252.858C118.934 252.861 118.936 252.864 118.938 252.866C119.226 253.397 119.661 254.726 118.624 253.064C116.949 250.359 116.617 248.758 115.438 247.529C115.157 246.954 114.865 246.366 114.568 245.762C114.514 245.652 114.46 245.542 114.407 245.432C114.478 245.524 114.552 245.622 114.629 245.726ZM145.838 246.175C146.557 247.449 147.118 248.82 147.565 250.226C147.352 250.033 147.138 249.848 146.92 249.664C146.539 248.36 146.054 247.093 145.423 245.903C145.422 245.901 145.419 245.898 145.418 245.896C145.559 245.986 145.699 246.077 145.838 246.175ZM102.432 243.758C102.429 243.759 102.426 243.761 102.423 243.763C102.427 243.76 102.43 243.757 102.434 243.754C102.433 243.755 102.432 243.757 102.432 243.758ZM131.422 236.37C127.253 234.886 123.286 235.824 123.579 236.288C125.722 236.132 124.785 235.95 125.661 235.864C128.997 235.725 131.17 236.729 134.241 238.187C134.014 238.129 133.805 238.08 133.587 238.03C133.589 238.031 133.592 238.032 133.595 238.033C136.851 239.82 138.974 241.297 140.314 241.969C141.188 242.444 141.512 242.717 141.509 242.651C141.496 242.596 141.138 242.223 140.421 241.774C138.572 240.714 135.48 238.381 131.923 236.919C131.756 236.733 131.597 236.551 131.422 236.37ZM107.624 237.62C106.12 238.514 104.627 239.438 103.154 240.389L103.155 240.387C100.539 241.51 108.778 236.946 103.109 239.643C104.209 238.946 105.34 238.25 106.456 237.585C106.839 237.6 107.24 237.603 107.624 237.62ZM125.845 234.899C128.024 234.811 130.243 235.218 132.336 235.973C130.368 235.125 128.24 234.578 126.085 234.499C126.001 234.631 125.922 234.766 125.845 234.899ZM125.023 231.853C127.413 231.784 129.832 232.211 132.013 232.987C130.872 232.804 129.722 232.712 128.575 232.726C128.977 232.437 127.565 232.054 125.023 231.853ZM108.746 213.379C108.783 216.236 108.959 219.093 109.303 221.925C108.987 220.949 108.693 219.973 108.416 218.978C108.462 217.097 108.575 215.232 108.746 213.379ZM204.919 197.309C204.604 196.62 201.927 194.634 200.848 195.016C203.673 197.153 202.461 195.756 204.919 197.309ZM192.119 163.438C192.136 163.207 192.161 163.051 192.184 162.855C193.342 169.537 194.581 176.167 196.887 182.173C196.825 181.874 196.77 181.578 196.715 181.277C199.489 188.198 199.061 187.363 199.659 186.324C199.951 186.751 200.263 187.166 200.559 187.542C199.974 187.548 201.653 192.106 206.349 193.804C206.705 194.002 209.138 193.765 208.838 194.395C208.915 194.381 208.99 194.367 209.062 194.353C209.413 194.228 209.667 194.096 210.002 193.898C210.842 193.953 211.879 193.74 212.776 193.353C213.027 193.148 213.258 192.929 213.445 192.711C213.564 192.575 213.673 192.433 213.772 192.289C213.708 192.151 213.567 192.103 213.543 191.912C213.969 191.342 214.414 190.393 214.44 189.34C214.513 186.822 213.763 183.821 213.231 182.474C211.243 177.032 206.807 172.947 203.243 170.062C203.215 170.039 203.186 170.015 203.157 169.992C201.12 168.622 202.962 170.238 200.001 168.123C199.739 167.773 199.511 167.454 199.235 167.089C196.456 165.881 196.175 165.212 192.936 162.829C192.577 162.568 192.235 162.329 191.906 162.103C191.977 162.539 192.049 162.984 192.119 163.438ZM111.966 186.37C112.363 185.951 111.732 190.238 111.297 192.891C110.935 193.278 110.573 193.679 110.214 194.081C111.285 190.633 111.294 189.938 111.966 186.37ZM191.266 181.524C191.718 181.58 193.613 185.48 193.038 182.788C193.348 183.606 193.693 184.444 194.035 185.218C194.037 185.22 194.038 185.224 194.039 185.227C194.229 185.878 193.587 184.798 193.942 185.787C194.297 186.798 195.37 188.446 194.935 188.161C194.215 186.902 193.558 185.559 192.981 184.218C194.203 188.8 197.576 192.523 197.235 192.887C194.338 189.073 192.843 185.597 191.266 181.524ZM216.607 179.471C218.053 182.517 218.991 185.821 219.127 189.354C219.041 188.948 218.94 188.569 218.829 188.178C218.511 185.299 217.676 182.567 216.477 180.034C216.432 179.65 216.378 179.261 216.315 178.874L216.607 179.471ZM189.63 168.934C190.378 173.97 190.859 174.037 191.983 177.312C192.762 179.558 193.713 182.508 194.439 183.187C194.276 183.99 192.12 178.925 193.965 184.009C193.328 183.165 192.558 181.658 191.637 178.61C191.595 178.087 191.561 177.572 191.531 177.053C191.239 177.058 190.913 176.302 190.296 174.611C190.296 174.61 190.295 174.607 190.295 174.605C189.19 169.903 189.407 170.156 189.63 168.934ZM190.296 174.611C190.732 176.392 191.29 178.131 191.675 179.731C191.234 179.349 190.605 176.095 190.822 178.485C190.49 177.352 190.184 176.209 189.899 175.074C190.251 175.754 190.145 174.751 190.296 174.616C190.296 174.615 190.296 174.613 190.296 174.611ZM206.584 170.595C208.891 172.293 209.59 173.019 208.885 171.772C208.883 171.77 208.881 171.768 208.879 171.766C207.988 171.105 207.085 170.514 206.143 169.957C206.286 170.163 206.438 170.379 206.584 170.595ZM266.201 167.345C268.994 163.645 266.921 167.386 266.223 168.444C265.501 168.886 264.816 169.788 262.995 170.141C262.023 170.262 260.902 170.348 259.549 170.154C260.674 170.299 261.876 170.201 262.967 169.959C265.366 169.227 265.809 167.645 266.199 167.345H266.201ZM258.07 169.821C258.583 169.979 259.068 170.084 259.549 170.154C259.013 170.087 258.523 169.974 258.07 169.821ZM245.942 139.022C246.119 140.254 246.317 141.496 246.536 142.722C246.611 143.73 246.699 144.739 246.806 145.749C246.806 145.755 246.806 145.762 246.806 145.768C246.611 144.985 246.427 144.211 246.252 143.42C246.281 144.488 246.339 145.54 246.398 146.617C247.235 149.347 246.792 149.668 247.538 153.295C248.805 158.835 250.022 160.691 250.934 162.41C252.082 163.978 252.183 166.208 256.964 169.358C252.858 167.273 252.393 165.717 251.624 165.199C250.963 164.526 250.413 164.294 249.081 161.987C248.873 160.921 251.828 165.13 250.38 162.019C247.575 156.846 246.314 151.302 245.477 144.984C245.44 145.175 245.403 145.364 245.368 145.556C245.501 146.565 245.651 147.56 245.82 148.565C245.531 147.496 245.268 146.446 245.017 145.347C245.472 146.717 244.965 143.162 245.388 143.609C245.569 143.811 245.932 145.359 246.193 146.266C246.025 143.877 245.942 141.429 245.942 139.022ZM204.9 167.677C202.179 166.113 202.486 166.688 203.521 167.833C203.821 168.008 204.122 168.182 204.427 168.359C204.598 168.459 204.769 168.559 204.938 168.661C204.938 168.339 204.934 168.017 204.916 167.686C204.911 167.683 204.905 167.68 204.9 167.677ZM202.031 163.479C203.847 164.769 204.908 165.379 205.997 166.1C206.793 166.631 207.561 167.214 208.529 168.177C207.665 167.499 206.79 166.878 205.871 166.281C204.585 165.449 203.322 164.627 202.047 163.793V163.792C202.044 163.69 202.035 163.582 202.031 163.479ZM266.774 164.776C269.855 160.41 269.758 161.73 268.661 164.027C268.322 164.285 267.983 164.54 267.652 164.786C267.569 164.925 267.483 165.065 267.401 165.202C266.913 166.013 266.425 166.84 265.819 167.646C266.037 166.907 266.169 166.188 266.292 165.47C266.462 165.226 266.622 164.994 266.774 164.776ZM267.124 162.603C266.827 163.196 266.518 163.793 266.213 164.396C265.909 164.999 265.613 165.593 265.293 166.166C265.679 165.643 266.047 165.092 266.419 164.536C267.016 163.644 267.623 162.768 268.193 161.876C267.841 162.12 267.482 162.365 267.124 162.603ZM249.802 130.996C249.621 133.962 249.527 136.772 249.548 138.328C249.642 143.494 250.038 144.789 250.464 148.464C250.916 153.392 252.879 160.214 252.604 156.975C253.627 159.982 254.991 162.717 256.889 164.44C257.097 164.626 256.822 164.657 256.907 164.732C257.468 165.208 257.759 165.157 258.161 165.364C259.286 165.848 257.349 165.263 259.01 165.86C259.801 166.031 260.257 166.154 262.21 165.887C262.215 165.883 262.221 165.878 262.228 165.874C262.631 165.632 263.555 164.398 264.38 163.152C267.057 159.468 269.334 155.354 267.894 154.047C262.178 145.614 256.878 136.809 249.802 130.996ZM269.348 152.56C269.422 152.658 269.495 152.756 269.566 152.851C271.012 154.984 270.28 156.248 270.091 156.859C269.778 157.52 269.501 157.836 268.689 159.042C269.388 158.754 270.076 158.432 270.749 158.012C270.792 157.386 270.778 156.768 270.684 156.2C270.884 154.936 270.637 153.663 269.895 152.616C269.85 152.553 269.807 152.489 269.763 152.426C269.625 152.47 269.486 152.515 269.348 152.56ZM247.804 152.767C248.58 154.511 247.737 150.864 249.17 156.685C249.178 157.05 249.191 157.416 249.208 157.779C248.64 156.131 248.186 154.46 247.804 152.767ZM138.979 157.028C141.236 155.501 144.645 154.318 143.574 155.193C142.75 155.623 141.826 156.112 140.875 156.628C140.872 156.629 140.869 156.63 140.866 156.632C144.92 153.928 136.139 158.905 138.979 157.028ZM249.463 151.22C249.429 151.043 249.525 149.208 249.255 149.43C248.823 151.769 250.364 156.055 250.429 155.214C250.047 153.794 249.728 152.858 249.465 151.22H249.463ZM161.967 151.8C162.731 151.938 163.518 152.109 164.269 152.274C165.539 152.498 164.918 152.206 165.05 152.227C168.291 152.783 168.713 153.087 172.833 153.321C173.342 153.304 173.842 153.272 174.35 153.228C172.474 152.617 171.103 152.776 167.229 151.847C167.906 152.14 168.58 152.436 169.263 152.726C167.078 152.366 164.93 151.955 162.757 151.698C162.492 151.73 162.229 151.763 161.967 151.8ZM268.616 146.509C269.19 147.242 269.758 147.951 270.334 148.666C270.809 149.526 271.295 150.403 271.79 151.26C272.089 151.75 272.333 152.274 272.508 152.811C272.119 152.304 271.834 151.755 271.629 151.375C271.541 151.193 271.492 151.058 271.475 151.03C271.476 151.031 271.477 151.032 271.479 151.033C267.52 145.786 272.068 151.679 268.616 146.509ZM164.439 150.756C163.381 150.387 154.502 150.28 158.235 150.634C161.386 150.539 164.677 151.018 167.847 151.519C167.133 150.91 168.263 151.196 164.439 150.756ZM187.185 143.282C188.286 136.006 188.008 145.596 187.191 145.914C187.16 145.89 187.148 143.476 187.185 143.282ZM250.053 127.439C252.805 129.686 255.172 132.234 258.936 136.559C259.851 137.66 259.718 136.801 261.719 140.393C261.623 139.247 264.726 143.361 264.795 142.523C263.983 141.349 263.132 140.118 262.307 138.997C263.061 140.407 262.794 140.898 261.296 139.025C259.418 136.616 256.783 133.004 256.463 133.537C255.675 132.621 254.903 131.804 254.064 130.985C254.512 131.214 254.951 131.445 255.388 131.688C252.884 129.48 251.235 128.219 250.083 127.023C250.073 127.161 250.063 127.3 250.053 127.439ZM309.311 138.271C309.633 137.965 310.524 138.854 313.608 140.603C314.121 140.995 314.671 141.352 315.302 141.645C312.981 141.086 311.062 139.728 309.311 138.271ZM311.587 136.58C309.528 135.344 312.367 137.901 312.988 138.581C312.33 138.146 311.685 137.64 311.097 137.136C314.476 140.56 315.39 140.175 314.162 139.1C314.064 139.041 312.555 138.015 312.487 137.831C312.406 137.645 313.783 138.378 311.587 136.58ZM299.891 114.688C301.355 117.95 301.622 119.298 303.299 122.36C303.792 123.243 304.205 123.386 305.062 124.835C306.44 127.171 307.792 129.796 308.852 131.323C310.328 133.386 309.223 131.492 311.293 134.103C311.382 134.209 311.536 134.731 312.018 135.229C313.429 136.582 313.464 136.562 315.519 137.877C315.599 137.921 315.987 138.172 316.444 138.356C316.89 138.543 317.346 138.625 317.655 138.612C317.748 138.626 317.992 138.565 318.037 138.547C318.464 138.418 319.153 137.939 319.25 137.734C319.265 137.706 319.275 137.694 319.279 137.69C319.261 137.626 319.205 137.484 319.089 137.318C318.556 136.546 318.105 135.91 317.834 135.548C314.59 131.26 316.785 134.893 314.688 130.771C313.358 129.252 312.022 127.762 310.592 126.183C311.591 127.204 308.236 122.514 307.958 122.226C305.752 119.71 306.813 121.41 304.123 118.163C308.235 121.987 300.658 113.94 298.885 112.314C298.86 112.29 298.835 112.266 298.811 112.242C299.193 113.118 299.559 113.945 299.891 114.688ZM317.521 130.716C318.693 132.465 319.848 134.227 320.988 135.998C321.269 136.436 321.464 136.899 321.519 137.362C321.781 137.504 321.954 137.483 322.007 137.175C322.056 136.876 321.941 136.306 321.483 135.654C320.692 134.523 319.344 132.861 317.521 130.716ZM298.112 118.798C297.02 115.587 299.394 120.243 299.754 120.649C300.728 121.825 298.835 117.837 301.144 122.67C302.72 125.838 303.082 126.536 304.764 129.345C303.768 128.57 300.192 122.91 304.905 130.845C304.974 130.945 305.05 130.607 305.837 131.847C306.091 132.233 306.708 133.566 308.051 135.347C308.473 135.912 311.933 140.098 307.213 134.419C307.102 134.776 306.617 134.649 306.391 134.84C304.567 132.534 303.872 130.324 302.326 127.708C300.051 123.79 298.545 121.987 298.851 120.852C300.663 124.198 303.939 129.803 304.043 130.755C306.063 133.873 307.03 134.445 305.494 131.918C298.691 121.237 303.983 128.787 298.637 119.121C298.481 119.051 298.175 118.69 298.112 118.798ZM195.715 126.521C193.281 128.297 193.056 129.02 193.57 128.826C193.126 129.313 192.714 129.832 192.372 130.368C192.158 130.576 191.951 130.801 191.761 131.03C191.707 131.319 191.673 131.604 191.665 131.875C191.662 131.932 191.659 131.991 191.655 132.05C191.369 132.705 191.096 133.388 190.845 134.065C190.872 134.162 190.875 134.314 190.919 134.383C191.156 133.637 191.468 132.787 191.826 131.941C192.739 129.784 195.211 127.955 196.311 126.927C197.183 126.05 193.234 128.715 195.715 126.521ZM208.452 121.019C206.559 121.562 204.709 122.26 202.914 123.079C203.055 123.167 203.185 123.262 203.324 123.353C207.22 121.801 207.706 121.628 208.452 121.019ZM225.981 119.605C225.416 119.712 223.347 119.503 222.938 119.636C222.163 119.878 224.493 120.341 222.403 120.444C228.711 120.933 234.853 122.166 236.058 121.892C236.309 121.845 236.346 121.745 236.121 121.579C235.878 121.401 235.346 121.149 234.453 120.812C233.764 120.708 233.061 120.602 232.374 120.502C232.172 120.972 229.713 120.174 225.981 119.605ZM221.606 117.676C225.434 117.798 229.027 119.04 226.215 118.809C222.842 118.577 219.283 117.989 215.961 118.483C217.792 118.09 219.678 117.827 221.606 117.676ZM248.922 114.705C253.219 109.131 254.613 107.674 254.993 108.791C252.122 111.559 253.331 110.101 252.844 110.206C252.907 110.226 248.992 115.709 248.877 116.615V116.616C248.312 117.642 248.595 116.479 249.036 115.437C249.473 114.407 249.966 113.464 248.922 114.705ZM296.499 110.46C295.363 110.205 298.24 115.742 298.427 115.401C298.084 114.622 297.666 114.071 297.364 113.216C297.061 112.35 297.158 112.044 296.499 110.46ZM295.953 105.484C297.503 106.829 298.836 108.313 300.939 110.668C298.528 107.811 300.742 110.304 301.502 110.882C302.03 111.273 300.252 109.463 300.528 109.592C300.821 109.718 303.429 111.787 301.508 109.715C298.783 107.701 297.28 106.07 295.539 104.445C295.674 104.784 295.81 105.132 295.953 105.484ZM346.673 103.336C346.9 104.154 347.186 104.956 347.544 105.713C347.565 105.6 347.584 105.472 347.605 105.349C347.625 105.258 347.646 105.168 347.667 105.078C347.517 105.622 349.429 109.303 351.131 109.947C351.511 110.142 351.354 109.89 351.477 109.836C351.599 109.772 351.885 109.938 353.095 110.444C350.979 109.505 349.338 108.031 348.255 106.026C348.454 106.167 348.652 106.29 348.855 106.415C348.855 106.414 348.854 106.412 348.854 106.411C348.472 105.732 348.162 104.996 347.915 104.235C347.495 103.97 347.077 103.657 346.673 103.336ZM351.697 68.7158C351.582 69.137 351.473 69.561 351.373 69.9883C350.184 77.6462 348.756 85.2442 348.257 92.709C347.74 100.049 348.67 107.835 355.106 109.432C355.602 109.842 358.056 108.472 359.745 106.596C363.181 103.021 366.657 99.3794 369.257 95.542C369.601 95.0152 369.319 95.162 369.457 94.9346C370.322 93.5304 371.024 92.3335 371.087 91.9717C371.129 91.7967 371.132 91.6967 371.125 91.6348C371.106 91.2229 370.964 91.4553 370.979 90.8154C371.002 87.9055 369.719 85.0809 367.579 82.9785C362.619 78.0667 357.584 73.3716 351.977 69.0439C351.683 68.8188 351.732 68.7956 351.697 68.7158ZM263.825 101.545C266.006 100.612 260.716 103.922 257.907 106.485C257.36 106.954 256.874 107.364 256.501 107.661C256.569 107.419 256.51 107.302 256.779 106.863C257.05 106.694 257.356 106.474 257.685 106.221C259.829 104.48 263.422 101.685 263.825 101.545ZM278.074 97.291C277.61 97.3771 277.251 97.4784 276.98 97.5703C275.892 97.9507 276.113 98.0135 277.045 97.8926C278.066 97.7503 280.055 97.6629 282.11 98.1611C279.416 98.0376 283.318 98.5648 283.795 99.207C282.393 98.7493 279.122 98.1228 277.201 98.6826C275.357 99.1262 274.467 99.4934 276.521 99.2422C276.75 99.2194 277.008 99.1685 277.284 99.1025C278.621 98.7403 281.364 98.097 284.594 100.086C285.615 100.297 286.303 100.424 287.196 100.681C287.571 101.131 287.968 101.618 288.288 102.066C288.29 102.068 288.293 102.069 288.295 102.07C291.72 104.218 289.685 102.569 289.883 102.412C289.961 102.362 291.172 103.31 291.646 103.614C291.607 103.516 291.569 103.418 291.53 103.32C290.131 101.847 285.193 99.2724 285.288 99.0264C287.254 99.9351 290.878 102.217 289.979 101.284C288.988 100.213 285.184 98.6505 282.784 97.8135C284.429 98.6794 283.474 98.4545 282.021 98.0684C280.571 97.6583 278.531 97.4817 278.074 97.291ZM291.607 102.347C291.864 102.509 292.109 102.667 292.346 102.82C292.115 102.331 291.923 101.851 291.757 101.395C291.575 101.27 291.386 101.146 291.192 101.02C291.343 101.491 291.481 101.931 291.607 102.347ZM373.854 93.1162C372.41 99.3494 366.422 103.891 370.5 98.7207C371.436 97.3895 373.336 95.017 373.854 93.1162ZM291.524 100.72C290.809 98.5089 290.75 97.0998 290.318 98.3389C290.558 99.0629 290.773 99.7237 290.97 100.331C291.183 100.48 291.366 100.609 291.524 100.72ZM291.061 100.608C291.103 100.632 291.146 100.655 291.188 100.679C291.14 100.636 291.091 100.596 291.043 100.555C291.049 100.573 291.055 100.591 291.061 100.608ZM371.817 82.7119C372.176 82.8552 372.823 83.4983 373.304 83.9961C373.478 84.2972 375.278 88.6676 374.699 91.9678C374.453 93.696 373.76 94.7516 373.595 95.0488C373.369 95.3163 373.746 94.8946 374.301 92.8232C374.339 92.647 374.412 92.3499 374.459 91.9443C375.082 89.5789 373.369 83.7599 371.817 82.7119ZM288.232 88.6152C287.062 85.7761 287.114 87.7184 287.89 90.0059C288.694 92.2666 289.888 94.8286 289.676 93.4873C289.661 93.4015 288.908 91.2685 288.482 89.8213C288.314 89.2523 288.227 88.7829 288.232 88.6152ZM287.436 75.2471C287.35 75.3417 287.262 75.4444 287.169 75.5625C287.284 75.3738 287.368 75.2729 287.423 75.2441C287.427 75.2453 287.432 75.2459 287.436 75.2471ZM359.681 71.0312C362.617 73.1298 360.458 70.7153 364.918 75.2969C364.555 75.0852 364.189 74.8707 363.825 74.6611C362.461 73.4317 361.081 72.2208 359.681 71.0312ZM352.752 65.4639C352.579 65.9234 352.415 66.3867 352.26 66.8535C353.616 67.5847 354.651 67.8985 354.663 67.6885C354.668 67.5343 352.645 66.2512 352.817 66.1787C353.21 66.0138 356.838 68.9274 352.752 65.4639ZM348.418 63.8516C348.629 64.1209 348.845 64.3917 349.043 64.6611C349.403 64.9053 349.677 65.128 349.969 65.3584C350.008 65.2442 350.049 65.1296 350.09 65.0146C349.666 64.7242 349.121 64.3445 348.423 63.8438C348.414 63.8379 348.406 63.8321 348.397 63.8262C348.404 63.8348 348.411 63.843 348.418 63.8516ZM350.258 64.5547C350.274 64.5099 350.291 64.4649 350.308 64.4199C350.182 64.3874 350.045 64.353 349.905 64.3184C350.023 64.3961 350.14 64.4762 350.258 64.5547ZM320.084 49.0537C323.92 49.8538 323.793 50.4431 327.457 51.5439C325.604 50.6665 323.704 49.8802 321.756 49.2441C321.199 49.168 320.642 49.1038 320.084 49.0537ZM382.937 25.9189C382.509 26.7262 377.664 30.7944 375.226 32.7715C375.474 32.487 375.729 32.1963 375.978 31.9121C378.274 29.8875 380.599 27.8932 382.937 25.9189ZM463.188 10.6592C462.808 10.5559 462.815 10.879 463.71 11.3379C465.877 12.4413 468.958 14.023 471.101 15.5752C471.188 15.0705 465.321 11.7168 463.188 10.6592ZM455.451 6.81055C459.651 8.37071 458.821 8.28137 462.791 9.5791C462.947 9.76974 463.093 9.9537 463.271 10.1572C461.741 9.54774 460.841 9.30641 458.792 8.4668C458.795 8.46784 458.798 8.46773 458.801 8.46875C458.385 8.2777 455.004 6.76518 455.451 6.81055ZM423.697 0.816406C420.816 2.03518 415.681 4.10935 412.849 4.98438C416.352 3.35968 419.961 1.94154 423.697 0.816406Z" fill="#7DC5E4"/>
</svg>
