<svg width="119" height="158" viewBox="0 0 119 158" fill="none" xmlns="http://www.w3.org/2000/svg">
<path d="M0.842065 149.724C0.471969 146.79 0.274277 143.358 0.163063 140.101C0.113371 138.613 0.0810537 137.116 0.0662055 135.81C0.0499442 134.488 0.290956 135.158 0.290751 134.255C0.291038 132.489 0.119691 130.866 0.147158 129.123C0.157579 128.549 0.516462 129.249 0.519871 128.647C0.536723 125.339 0.34515 122.213 0.314604 118.873C0.216841 104.335 0.0268807 90.0644 0.625591 75.369C0.718947 73.3881 0.838128 71.4183 1.01114 69.4084C1.20895 67.1757 1.49552 64.7893 2.03348 62.2634C2.31267 61.0026 2.62992 59.7271 3.21623 58.3703C3.5163 57.6995 3.88773 56.9746 4.52968 56.2679C5.13581 55.5484 6.29208 54.9546 7.04394 54.8043C8.65055 54.3768 10.399 54.5762 11.7743 55.1139C12.5723 55.4362 12.2212 54.9734 12.3831 55.0174C14.8122 55.9136 13.7308 56.0303 14.8834 57.0117C19.0611 61.1869 21.3876 66.5083 23.5137 71.0749C24.3822 73.0452 24.1059 70.8417 24.605 72.9502C24.6394 73.097 24.1539 72.707 24.3379 73.2632C24.7664 74.5365 25.6676 76.8603 25.9719 77.8376C26.5633 79.7253 26.6648 80.034 27.2182 81.8042C27.9722 84.2437 28.646 87.1794 29.3959 89.7947C29.557 90.3538 29.6706 89.5273 29.9545 90.4152C30.2409 91.3011 30.8 93.701 30.9107 94.5153C31.0263 95.3368 30.7038 95.0507 30.6815 95.2059C30.491 96.4907 31.7421 99.103 31.831 99.4611C33.0613 104.273 33.6892 108.679 34.2915 113.161C34.4962 114.702 34.6824 116.267 34.7904 117.914C34.8463 118.827 34.8831 119.771 34.8034 120.798C34.625 121.792 34.8471 123.069 33.1011 124.467C31.8708 125.212 30.757 124.89 30.0587 124.65C29.3221 124.374 28.7565 124.009 28.2392 123.624C27.2144 122.846 26.4112 121.961 25.7149 121.029C25.1622 120.285 24.6606 119.522 24.2122 118.756C21.3809 113.803 20.4023 109.083 19.6892 103.818C19.6197 103.257 19.3271 103.958 19.2443 103.273C18.4061 95.9677 18.9534 88.7255 20.198 81.6809C20.3253 80.9753 20.5164 81.9351 20.6636 81.2344C21.529 76.925 23.57 70.344 22.8026 67.5C22.9688 66.8478 23.1514 66.1417 23.3377 65.4488C23.9863 62.9754 25.0615 60.4372 26.2412 58.6556C27.2463 57.1826 26.7087 58.8462 27.6718 56.9116C27.9006 56.4818 27.2945 56.8572 27.6709 56.2155C29.2642 53.5244 31.6637 51.0281 34.1509 49.0774C34.6566 48.6835 34.3639 48.5515 34.4899 48.4056C35.2434 47.5533 36.8544 46.9527 38.0616 46.7877C38.661 46.6844 39.1218 46.7124 39.3363 46.7092C41.8249 46.7639 43.2973 47.8293 44.6539 48.6336C46.4499 49.7875 47.8121 51.2757 48.9873 53.0971C49.4704 53.8714 49.2161 52.7487 49.6921 53.5059C52.0727 57.452 53.2722 61.8727 54.0193 66.0393C54.1782 66.9695 53.6862 66.1871 53.7451 66.6345C53.9915 68.5937 54.6586 68.9172 54.8335 70.8127C54.8691 71.2137 54.564 71.0321 54.5455 71.1087C54.2516 72.2893 55.0431 73.1817 55.0953 73.466C55.7635 77.1096 55.271 79.5225 55.5937 83.0487C55.6313 83.4716 55.9207 82.4943 56.0041 83.6867C56.4618 90.4148 56.4084 97.476 55.8715 104.237C55.7459 105.573 55.5146 107.063 54.3547 108.337C53.732 108.945 53.5223 108.887 53.5616 108.795C53.589 108.691 53.7542 108.472 53.7029 108.49C53.3926 108.613 53.1165 108.707 52.8647 108.787C51.7963 109.1 51.0289 109.29 50.614 109.224C49.2058 108.903 48.1849 108.012 47.4295 107.122C46.1365 105.58 45.36 103.989 44.3252 102.864C39.9074 89.3877 42.5556 75.857 45.2832 63.0786C45.3213 62.9156 45.5925 63.2694 45.6672 62.9442C46.5827 59.0307 45.9421 59.6974 45.8412 56.9621C45.8166 56.274 46.9676 54.427 47.059 54.2637C47.3923 53.6628 47.7357 54.4284 47.819 54.2214C48.4934 52.5081 46.841 52.4635 47.3514 50.063C47.3701 49.9885 47.5952 50.3664 47.6673 50.1711C47.8924 49.5648 47.9096 48.9198 48.1424 48.3307C48.5366 47.3383 49.1181 46.8957 49.4044 45.8454C49.5096 45.4585 49.5776 45.0103 49.6066 44.4098C49.6294 44.1254 48.5814 44.3059 49.2788 42.1449C49.5135 41.2761 50.979 37.5415 51.5883 36.5893C52.1488 35.6189 52.064 36.4405 52.1115 36.3744C53.869 33.9394 53.4864 35.0213 54.7349 34.0778C56.002 33.183 54.6423 32.7556 54.8567 32.1663C55.067 31.5667 56.6471 30.0304 57.0783 29.7067C57.4995 29.3741 57.2272 29.9986 57.575 29.6796C59.9052 27.6099 57.9509 28.1978 58.4708 27.2804C58.7136 26.8649 58.9859 26.5084 59.273 26.194C60.7584 24.6214 62.7209 24.4838 64.4975 24.1983C64.9968 24.128 64.7377 24.0253 64.9149 23.9265C64.9585 23.904 65.0259 23.8822 65.1366 23.8655C67.1531 23.5907 68.4207 24.5543 69.8303 25.604C70.1086 25.8151 70.4061 26.0495 70.7321 26.3206C71.0496 26.5305 72.8829 27.8194 73.1276 29.1925C73.1636 29.3858 72.6859 29.0604 73.0967 29.897C73.7048 31.1176 74.6168 33.3693 75.1688 34.7169C75.58 35.7074 75.5787 34.3972 75.8911 35.7408C76.0185 36.3257 75.4495 35.3566 75.7016 36.4405C75.9728 37.5431 76.6973 40.2668 76.9332 41.3429C77.1739 42.3879 77.3581 41.7475 77.3982 41.8272C77.6377 42.3129 78.1911 44.336 78.2181 44.5177C79.887 53.6874 79.7933 62.2547 79.9658 71.2323C79.9758 71.9384 80.3146 71.4701 80.3196 71.5779C80.4383 73.9983 79.5645 72.0811 79.2407 73.7618C79.9266 73.5308 79.7922 74.5208 79.8161 76.2252C79.8269 77.0463 80.1051 76.6084 80.1299 76.6841C80.4914 77.9121 79.9336 78.7454 79.818 78.9566C79.3922 79.741 79.8066 80.6387 79.5144 81.1734C79.2237 81.7033 78.9154 80.4302 78.8228 82.0486C79.0381 82.5181 79.752 81.3534 79.7769 82.5934C79.8099 84.3801 79.6461 86.7361 79.3525 89.1659C79.1347 92.3268 76.4545 94.7657 74.6207 95.9286C73.6935 96.5863 72.7897 97.0436 72.0297 97.3316C70.6504 97.8588 69.3596 97.936 68.3478 97.5109C66.8148 96.84 65.9743 95.9816 65.2129 94.7162C64.2195 92.8587 64.1101 92.2078 63.8318 91.8191C63.5975 91.4267 63.327 91.1785 63.0001 89.9488C62.4246 87.4207 63.7772 88.543 63.975 88.1558C64.1904 87.781 63.9042 87.4352 64.0173 87.002C64.1325 86.5708 64.3487 87.4781 64.352 86.4796C64.3358 85.4995 63.9655 82.7537 63.7405 82.3707C63.2377 81.5862 62.5466 82.8018 62.9711 80.1094C62.9973 79.9568 63.2567 80.4832 63.342 79.8979C64.0264 75.2222 64.9427 70.4536 66.163 65.9333C66.3316 65.3155 66.539 65.9484 66.6411 65.59C67.7278 61.8553 66.859 63.0781 66.745 60.8506C67.4576 61.5212 68.2326 60.4987 68.9855 57.6554C69.4431 55.9449 69.007 56.1446 69.0551 54.9689C69.0694 54.6146 69.6495 53.4733 69.5426 53.2088C69.1954 52.3362 68.256 53.2934 69.3337 50.4354C69.3824 50.3096 69.565 50.8069 69.7111 50.3659C70.6571 47.5351 70.187 47.0192 71.0434 43.9102C71.3381 42.8456 71.8182 41.4532 72.3381 40.0133C73.0339 38.0564 73.9796 36.0611 74.73 34.5789C75.5583 35.024 76.5729 32.5308 76.6186 31.2367C77.6227 29.619 78.7938 27.9183 80.0319 26.561C80.4593 26.0933 80.4067 26.5911 80.4807 26.5485C81.6103 25.9277 81.6842 24.9075 81.9445 24.5881C82.4945 23.9247 83.0638 23.315 83.6246 22.7464C84.4361 21.8979 85.6768 21.3847 86.8503 21.5263C88.0262 21.6524 88.9974 22.2584 89.8012 22.9422C90.7375 23.7424 91.6401 24.5888 92.5805 25.5135C92.6831 25.6198 93.3894 25.4012 93.6816 26.6372C93.6922 26.7152 92.6378 25.7338 93.771 27.4003C94.9289 29.0811 96.2202 32.6182 97.2323 35.197C97.4936 35.8049 98.4448 37.3483 98.2729 38.7781C98.2493 38.9658 98.0267 38.8068 97.9686 39.0804C97.7803 39.9577 98.5167 40.3159 98.0786 41.3659C97.6375 42.4214 97.4358 44.4224 97.8863 47.1336C97.8994 47.2216 98.4469 47.8549 98.4361 48.7238C98.423 50.1036 98.2428 52.0566 98.1506 53.4903C98.1072 54.1773 98.4657 53.7601 98.4638 53.8799C98.3086 58.5334 97.5647 61.7865 96.5883 66.6499C96.4105 67.5363 96.3665 70.2002 95.657 71.8542C94.8776 73.6594 93.7159 71.3999 93.147 75.7909C93.1437 75.8152 93.1408 75.8397 93.1383 75.8643C93.0737 76.5183 93.2844 77.3254 93.1025 78.2137C93.007 78.6455 92.7921 79.1188 92.3244 79.3589C91.8643 79.6172 91.1534 79.4143 90.8134 78.8863C90.581 78.5526 90.4054 78.1465 90.3223 77.7046C87.4453 72.1857 88.8815 66.0272 88.9577 59.8811C88.9682 59.5989 88.4871 58.657 88.5691 57.9937C88.6905 57.0178 89.0215 56.5144 89.1246 55.8164C89.3026 54.6361 89.4344 53.4935 89.5587 52.3575L89.5633 52.3396C90.1281 50.7353 90.6367 49.2241 91.2818 47.6453C91.69 46.6478 91.7976 47.1282 92.2966 45.9178C92.7925 44.7195 92.7618 43.8157 93.5916 42.2555C94.2054 41.1146 95.4112 40.1566 96.1622 38.6069C95.5154 38.2472 95.9807 37.176 96.66 35.1277C96.7889 34.7376 96.3785 35.0371 96.4274 34.8473C96.6194 34.0767 97.1066 33.498 97.2828 32.7481C97.3254 32.5674 97.099 32.4572 97.1208 32.3042C97.2875 31.0158 98.6785 29.3363 98.9211 29.0504C99.8426 27.9511 99.813 27.2477 100.403 26.3525C100.984 25.4785 100.481 26.9559 101.084 25.9055C102.346 23.6999 103.781 20.7573 105.015 18.4968C105.501 17.6036 104.876 18.0539 104.938 17.9223C105.878 16.0043 107.261 14.3328 107.307 12.9683C109.566 12.6063 107.79 11.7787 109.806 9.40956C109.963 9.23451 110.803 9.45301 110.392 10.2636C109.981 11.0759 109.015 12.0998 108.511 13.2899C108.397 13.5534 108.18 15.4235 108.107 15.6507C107.518 17.4021 106.327 17.0524 106.222 17.0989C105.037 17.7315 104.781 19.972 104.579 20.4901C103.637 22.8625 102.535 24.7117 101.782 26.7142C101.295 28.0146 101.957 28.4928 101.48 29.4554C99.8926 32.6951 98.3527 33.4153 97.8781 36.9416C97.7813 37.6923 98.8772 37.3424 97.2089 39.5118C97.1105 39.6308 95.7693 41.1977 95.7117 42.3862C95.7048 42.5345 95.9424 42.6275 95.8919 42.8065C95.5484 44.0071 95.0388 44.7206 94.6271 46.0058C94.2011 47.3276 93.7502 48.8597 93.093 50.308C92.7115 51.1434 91.8343 52.0982 91.5625 52.4825C91.4472 52.6434 91.3494 52.8139 91.2643 52.9898L91.3629 52.6047C91.1198 53.6749 91.3251 54.7818 90.8992 55.4032C90.3972 56.1377 89.9706 54.5216 89.4573 56.5556C90.1062 56.7107 90.761 56.9653 91.4088 57.1636C90.8744 61.6273 90.2429 66.0496 90.4868 70.382C90.5229 70.9147 90.8441 70.3516 90.8958 70.9152C91.1287 73.2266 91.2511 75.4128 92.3197 76.9109C92.4273 77.0553 92.5455 77.1869 92.667 77.2983C92.6946 77.2719 92.4677 76.9808 92.0109 76.9292C91.5595 76.8817 91.3274 77.0447 91.3107 76.9924C91.2822 76.9121 91.5011 76.3373 91.6004 75.7127C91.6598 75.6704 91.7166 75.6192 91.7708 75.5587C92.6677 74.2954 93.07 71.3829 93.5433 69.2836C93.7216 68.4938 93.9087 68.5903 94.0805 68.0391C94.7158 65.9557 93.8694 66.8347 93.8714 66.2347C93.8592 63.6695 95.4005 63.7053 95.785 60.7293C95.8093 60.5691 95.2512 58.5524 95.2268 58.2877C95.0875 56.5829 95.5398 58.0429 95.7112 57.0022C96.0117 55.1023 96.3175 53.7778 96.1808 51.5222C96.1402 50.8637 95.6814 49.2993 96.0578 48.0396C96.1075 47.8737 96.3755 47.9627 96.3898 47.8289C96.6055 45.3938 95.7368 45.3611 95.3622 44.0381C94.9865 42.7084 95.2782 40.6022 95.3621 40.1427C95.6035 38.9689 95.6855 40.9631 95.7254 41.0138C96.3222 41.6547 96.0373 40.1263 95.8507 38.9669C96.6358 38.6395 96.2233 37.0069 95.6402 37.7612C95.5793 37.8429 95.8454 38.7232 95.8507 38.9669C94.8583 38.088 94.4001 36.4574 94.4709 34.3621C94.4739 33.3815 95.25 34.0224 93.964 31.4781C93.3378 30.3496 93.0568 31.0483 92.3933 30.1632C91.1434 28.526 89.8473 26.3595 88.1651 24.8139C87.8754 24.5396 87.5794 24.3356 87.3067 24.2206C86.7762 24.0316 87.1445 24.5099 86.8358 24.4355C86.5752 24.3952 86.4338 24.396 86.2605 24.4238C86.0908 24.4537 85.8698 24.5427 85.6402 24.7565C85.2617 25.1217 84.894 25.4999 84.5461 25.9162C84.443 26.0406 84.947 25.9819 84.5734 26.3811C81.7693 29.4162 79.5119 32.1861 77.6491 36.0492C77.0511 37.2878 76.331 39.2678 75.827 41.084C75.5597 42.0267 75.2879 42.9586 75.0615 43.6636C73.8565 47.4135 72.0476 51.9258 71.2743 55.1961C70.7692 57.3269 71.212 56.9475 71.1843 57.9085C71.1312 59.7594 69.6177 62.6568 69.4038 63.0532C69.3955 63.0639 69.7698 61.2241 69.3683 62.1557C68.8916 62.6389 69.4073 63.0329 69.4038 63.0532C69.2542 63.3102 68.3377 66.9332 68.2507 67.6806C68.199 68.0821 68.5475 67.9261 68.5152 68.1336C67.7526 73.0678 66.9731 77.9582 66.5742 82.8243C66.5637 82.9114 66.226 82.7629 66.206 82.9687C65.9388 85.7974 66.4398 87.6185 67.0508 89.6247C67.6896 91.6327 68.1992 92.7288 68.3457 93.7518C68.6853 94.0723 69.0543 94.3859 69.5294 94.6374C69.5319 94.7991 70.5083 94.839 71.1428 94.6274C72.2837 94.2725 72.0638 93.5271 72.137 93.4802C72.2656 93.3666 72.3899 93.2527 72.5096 93.1395C74.664 91.1964 75.2629 90.6538 75.6639 88.775C75.7733 88.0321 75.8808 87.2164 75.9729 86.3275C76.1952 84.3021 76.3592 80.2664 76.3651 78.0639C76.3754 76.3239 76.5614 75.2758 76.4905 73.669C76.4808 73.4514 76.1786 73.666 76.1683 73.5994C75.8375 71.8055 76.5533 72.6749 76.6885 72.3061C77.1728 70.9686 77.4342 70.1311 77.1825 67.8306C77.1252 67.2976 76.0442 65.7785 75.9511 64.8219C75.8316 63.5765 76.2257 64.035 76.0807 62.7281C76.0681 62.6167 75.8385 62.6491 75.8103 61.8442C75.6747 58.1088 75.4751 54.0143 74.9436 50.1975C74.8706 49.6706 74.5967 50.3934 74.4841 49.6372C73.9565 46.1121 73.2523 42.2979 72.5039 39.013C72.3208 38.2105 72.7092 38.6332 72.7332 38.4388C72.8697 37.2211 71.7196 35.9516 71.6221 35.7364C70.2964 32.6311 69.0224 30.0281 67.3723 28.4931C66.9424 28.0983 66.5433 27.8249 66.278 27.7116C66.0069 27.6014 65.8705 27.5703 65.4663 27.6275C64.797 27.7331 64.088 27.9878 63.5195 28.3643C63.4056 28.4353 63.0094 28.9638 62.7339 29.401C62.2541 30.0067 61.7277 30.5459 61.2076 30.7419C61.1249 30.7721 59.8647 31.2364 59.5641 32.3056C59.5474 32.3722 60.2398 32.0215 59.4473 32.9682C58.6512 33.9234 57.7098 35.6391 56.5718 36.9172C56.2137 37.3134 55.0171 38.1478 54.8194 39.8289C54.7812 39.9563 54.9316 42.6002 53.9436 43.1772C53.7853 43.2741 53.0003 42.8661 52.8869 44.8505C52.8739 45.2252 53.2183 44.6301 53.0916 45.5915C53.0508 45.9178 52.9919 46.254 52.9237 46.6167C52.6623 47.9917 52.2459 49.5684 52.2083 51.1273C52.2006 51.4763 52.4495 53.017 51.7921 54.0717C51.6891 54.237 51.4882 53.8401 51.3321 54.4376C50.5889 57.2798 50.1722 60.3216 49.4469 63.2021C49.1914 64.2234 48.8454 63.6151 48.5338 64.67C48.22 65.7316 47.735 67.8918 47.76 69.0498C47.7837 70.2147 48.6818 69.0939 48.4781 70.7885C47.6332 78.1317 46.4109 85.3949 46.8565 92.4521C46.9369 93.4886 47.1051 92.6271 47.271 94.1178C47.6243 97.2562 48.7366 101.648 50.902 104.044C51.2211 104.418 51.5473 104.657 51.7129 104.745C51.8792 104.857 51.8376 104.706 51.2647 104.94C50.9329 105.106 50.8523 105.376 50.9534 105.273C51.042 105.192 51.1804 104.899 51.2801 104.58C51.3482 104.367 51.3997 104.168 51.4441 104.003C51.9467 101.598 52.0356 105.702 52.3387 102.82C52.4941 101.292 51.7094 99.6066 51.6923 99.229C51.5136 95.6235 51.8793 93.1092 51.699 89.858C51.6598 89.1877 51.3386 89.8524 51.3083 89.2852C51.2005 87.3382 51.2649 85.297 51.1262 83.4435C51.0624 82.6145 50.8151 82.7838 50.7834 82.0204C50.7011 80.1938 50.6699 78.581 50.7209 76.7868C50.7252 76.6227 51.1612 77.6777 51.0275 76.332C50.8071 74.1573 50.673 71.4291 49.9707 69.0246C49.7582 68.3128 49.1876 68.4019 49.2541 66.7803C49.2625 66.4445 50.0601 66.6907 49.0347 65.0485C48.8741 64.7618 47.2937 62.0789 47.2827 60.5749C47.2914 60.1821 47.4763 59.035 47.056 58.3143C46.9963 58.2166 46.8931 58.7581 46.5813 58.1389C45.5061 56.0082 44.1803 53.9206 42.6181 52.9007C42.2113 52.6454 42.5905 53.3022 42.0171 52.9542C42.0071 52.9485 41.9971 52.9429 41.987 52.9373C41.373 52.5816 40.7539 52.275 40.3102 52.1341C39.8463 51.9869 39.7222 52.0244 39.702 52.0111C39.0062 52.1984 37.9439 52.7501 37.1223 53.288C36.3791 53.7826 36.7144 53.2025 36.6455 53.2154C35.485 53.4845 35.4158 54.4396 35.1852 54.7028C33.7193 56.4028 32.4174 57.5888 31.3697 59.4452C31.0868 59.961 31.5662 59.7596 31.5302 59.874C31.1761 61.036 31.1263 59.9956 30.7087 60.634C29.5906 62.3733 28.7794 64.575 28.3104 66.6692C28.2879 66.7676 28.2655 66.8659 28.2433 66.964C28.0473 67.8344 28.6313 66.9434 28.4521 67.7251C27.4001 72.3563 26.3897 77.1607 25.522 81.6707C25.3588 82.5209 25.1654 81.9429 25.077 82.1123C24.4588 83.2832 24.8314 85.1721 24.8437 85.5901C24.8923 87.5032 24.5838 88.2083 24.5024 89.8764C24.0592 97.9762 24.5996 108.048 27.7385 114.403C28.357 115.72 29.0521 116.92 29.8225 118.011C30.2937 118.685 30.8425 119.287 31.3245 119.672C31.556 119.862 31.7881 119.99 31.8144 120.005C31.8225 120.015 31.7701 119.987 31.5513 119.983C31.3446 119.977 30.8883 120.034 30.4593 120.317C30.1596 120.512 29.988 120.739 29.916 120.858C29.8417 120.983 29.8401 121.021 29.8479 121.006C29.8701 120.971 29.9288 120.75 29.9616 120.49C30.0331 119.957 30.0448 119.244 30.0191 118.523C29.9656 117.062 29.7837 115.493 29.5503 113.895C29.2126 111.6 28.8241 109.265 28.3571 106.821C28.2405 106.211 27.9938 106.893 27.8884 106.369C26.5346 99.6004 25.1679 92.9345 23.1601 86.3586C22.9951 85.8196 22.8883 86.6946 22.612 85.8366C22.0429 84.0788 21.3578 81.8351 20.864 80.0483C20.6188 79.1667 21.2984 80.2287 21.0446 79.344C20.4582 77.3039 19.6756 75.1464 18.7856 73.1767C18.4054 72.3425 18.6175 73.7481 18.1495 72.6631C16.7672 69.5102 15.2168 66.4788 13.3838 63.9407C11.5758 61.3512 9.36635 59.8221 8.41629 60.1521C8.26357 60.1802 8.35474 60.1517 8.44073 60.0837C8.53084 60.0174 8.58838 59.9377 8.57216 59.9331C8.54028 59.9154 8.33161 60.1754 8.1519 60.5392C7.98444 60.8794 7.14971 61.0259 7.01885 62.1476C7.1945 62.2758 7.42592 62.3222 7.62664 62.405C6.79144 66.4161 6.53722 71.0545 6.31687 75.5857C5.99735 83.1032 5.91375 90.7644 5.9693 98.437C5.97375 98.9583 6.34594 98.0526 6.35676 99.0625C6.42202 104.886 6.64663 110.542 6.43398 116.514C6.41367 117.102 5.73125 116.826 5.88476 118.564C5.91171 118.867 6.08365 121.49 6.25339 122.17C6.27851 122.262 6.57661 121.773 6.61401 122.618C6.82744 127.533 6.95989 132.684 7.0207 137.584C7.02982 138.365 6.65227 137.554 6.65589 138.108C6.66063 138.651 6.67466 139.204 6.69378 139.733C6.82625 143.253 7.21948 146.938 7.32241 150.147C7.4289 152.602 6.73998 151.787 6.40314 153.157C6.38318 153.261 6.44061 153.669 6.49223 154.05C6.54094 154.435 6.58568 154.729 6.45422 154.828C5.83064 155.466 4.61001 154.974 3.95017 155.685C3.92006 155.731 3.96832 155.938 4.15429 156.284C4.32222 156.599 4.79355 157.287 5.65226 157.592C6.0416 157.731 6.33065 157.75 6.47302 157.771C6.62037 157.79 6.65938 157.806 6.67288 157.83C6.68037 157.855 6.68105 157.886 6.57105 157.924C6.46226 157.945 6.17465 158.064 5.41043 157.849C5.32194 157.829 4.7288 157.583 4.30587 157.153C3.87634 156.732 3.63515 156.31 3.45065 155.969C3.09071 155.277 2.90356 154.749 2.76933 154.544C2.59073 154.252 2.39091 154.898 2.11192 154.284C1.841 153.674 2.00639 152.972 1.71402 152.048C1.42738 151.12 1.0869 151.58 0.842065 149.724ZM76.0503 91.5159C76.9119 90.6561 75.8597 90.0826 75.6032 91.1473C75.5891 91.1984 76.0055 91.5558 76.0503 91.5159ZM89.5489 65.9389C88.9651 67.7433 89.7589 68.9767 90.1561 67.7157C90.5661 66.4683 89.7295 65.3951 89.5489 65.9389ZM92.4578 47.4855C91.2877 49.3353 92.7199 50.2643 93.2491 47.9967C93.2802 47.8662 92.5258 47.3784 92.4578 47.4855ZM5.49406 147.022C5.47888 147.041 5.56329 148.172 5.58275 148.201C6.00909 148.769 5.83837 146.504 5.49406 147.022ZM99.493 29.8648C99.0146 30.359 98.4412 32.2622 99.0471 31.6044C99.5355 31.069 100.095 29.2297 99.493 29.8648ZM64.6669 24.7516C64.6411 24.7297 63.8505 24.9045 63.8969 25.0029C64.0348 25.2791 65.0654 24.9703 64.6669 24.7516ZM116.986 3.42967C115.575 4.76509 113.997 5.30271 113.108 5.59813C112.139 6.08878 111.686 6.06317 112.622 5.0297L112.691 4.97781C113.065 4.67029 113.625 4.34301 114.29 3.93786C115.08 3.47097 112.842 5.35905 113.908 4.84528C115.925 3.896 116.325 2.26235 118.114 0.93462C118.462 0.691852 117.243 3.25282 116.981 3.43711C116.982 3.43463 116.984 3.43215 116.986 3.42967ZM77.6407 91.5769C77.6874 91.5681 78.114 90.5136 78.0865 90.4749C77.9875 90.1314 77.7911 90.5035 77.6374 90.8868C77.4873 91.2725 77.359 91.7001 77.6407 91.5769ZM45.0722 66.1304C45.0255 66.1859 44.5657 68.7845 44.586 68.876C44.9677 70.3271 45.8942 65.0844 45.0722 66.1304ZM74.7731 34.5477C74.9758 33.2393 75.6849 31.8586 76.6151 31.2415C75.9443 32.3037 75.3403 33.4151 74.7731 34.5477Z" fill="#FF61B0"/>
</svg>
