<svg width="127" height="38" viewBox="0 0 127 38" fill="none" xmlns="http://www.w3.org/2000/svg">
<rect x="8" y="12" width="118" height="25" stroke="#D80000" stroke-width="2"/>
<path d="M47.8 20.804V21.364H50.824V20.804H47.8ZM46.248 19.924H52.472V22.244H46.248V19.924ZM47.192 24.884V25.38H51.432V24.884H47.192ZM47.192 26.228V26.74H51.432V26.228H47.192ZM47.192 23.556V24.036H51.432V23.556H47.192ZM45.592 22.66H53.096V27.62H45.592V22.66ZM47.464 27.444L48.872 27.908C48.4987 28.2067 48.0347 28.4947 47.48 28.772C46.936 29.0493 46.408 29.268 45.896 29.428C45.8213 29.3427 45.7147 29.236 45.576 29.108C45.448 28.98 45.3093 28.852 45.16 28.724C45.0213 28.596 44.8987 28.4947 44.792 28.42C45.304 28.292 45.8 28.148 46.28 27.988C46.7707 27.8173 47.1653 27.636 47.464 27.444ZM49.832 28.084L50.968 27.412C51.4587 27.6147 51.9707 27.844 52.504 28.1C53.048 28.3453 53.4907 28.58 53.832 28.804L52.248 29.428C51.9813 29.236 51.624 29.012 51.176 28.756C50.7387 28.5 50.2907 28.276 49.832 28.084ZM42.536 17.588H56.248V31.988H54.344V19.316H44.36V31.988H42.536V17.588ZM43.688 29.588H55.384V31.316H43.688V29.588ZM65.928 17.348H67.944V29.86H65.928V17.348ZM60.472 20.804H62.456V31.748H60.472V20.804ZM71.576 20.772H73.576V31.7H71.576V20.772ZM61.448 28.708H72.472V30.676H61.448V28.708ZM77.464 19.876H83.656V21.668H77.464V19.876ZM79.736 17.14H81.528V20.772H79.736V17.14ZM87.448 19.844H92.088V21.684H87.448V19.844ZM84.776 29.38H90.504V31.156H84.776V29.38ZM86.488 16.884H88.456V25.22H86.488V16.884ZM83.912 24.436H91.544V31.86H89.576V26.228H85.784V31.924H83.912V24.436ZM77.112 28.612C77.6667 28.5053 78.3013 28.3827 79.016 28.244C79.7307 28.1053 80.488 27.956 81.288 27.796C82.088 27.6253 82.8773 27.4547 83.656 27.284L83.832 29.06C83.1067 29.2307 82.3707 29.4067 81.624 29.588C80.8773 29.7587 80.152 29.924 79.448 30.084C78.744 30.2333 78.0933 30.3773 77.496 30.516L77.112 28.612ZM77.864 22.436L79.4 22.132C79.528 22.708 79.64 23.3213 79.736 23.972C79.8427 24.612 79.9227 25.2413 79.976 25.86C80.04 26.468 80.0773 27.0227 80.088 27.524L78.44 27.828C78.4507 27.3373 78.4293 26.7827 78.376 26.164C78.3333 25.5453 78.264 24.9107 78.168 24.26C78.0827 23.6093 77.9813 23.0013 77.864 22.436ZM81.448 21.972L83.304 22.292C83.2293 22.9747 83.1333 23.6733 83.016 24.388C82.9093 25.1027 82.7973 25.7907 82.68 26.452C82.5733 27.1027 82.4613 27.6787 82.344 28.18L80.728 27.844C80.8133 27.46 80.8933 27.028 80.968 26.548C81.0427 26.0573 81.112 25.5507 81.176 25.028C81.24 24.4947 81.2933 23.9667 81.336 23.444C81.3893 22.9213 81.4267 22.4307 81.448 21.972Z" fill="#64503C"/>
<path d="M31 1L3.3116e-06 28L2.12669e-06 1L31 1Z" fill="#FFD700"/>
<path d="M2.2 8.544H7.848V9.136H2.2V8.544ZM4.648 2.32H5.272V8.888H4.648V2.32ZM1.904 6.32H2.504V9.64H1.904V6.32ZM7.528 6.32H8.144V9.624H7.528V6.32ZM2.208 3.04H2.808V5.224H7.2V3.04H7.824V5.8H2.208V3.04ZM10.816 3.12H16.816V9.408H16.168V3.72H11.44V9.44H10.816V3.12ZM11.096 8.144H16.608V8.76H11.096V8.144Z" fill="black"/>
<mask id="path-5-outside-1_2147_511" maskUnits="userSpaceOnUse" x="9" y="9" width="14" height="21" fill="black">
<rect fill="white" x="9" y="9" width="14" height="21"/>
<path d="M21.304 14.824C21.304 15.592 21.16 16.264 20.872 16.84C20.584 17.4 20.184 17.856 19.672 18.208C19.176 18.56 18.584 18.816 17.896 18.976V19.072C19.208 19.232 20.184 19.664 20.824 20.368C21.48 21.056 21.808 21.968 21.808 23.104C21.808 24.096 21.584 24.984 21.136 25.768C20.688 26.536 19.992 27.144 19.048 27.592C18.12 28.024 16.928 28.24 15.472 28.24C14.592 28.24 13.784 28.168 13.048 28.024C12.328 27.88 11.632 27.64 10.96 27.304V25C11.632 25.368 12.352 25.648 13.12 25.84C13.904 26.032 14.64 26.128 15.328 26.128C16.656 26.128 17.608 25.856 18.184 25.312C18.76 24.752 19.048 23.976 19.048 22.984C19.048 22.344 18.896 21.824 18.592 21.424C18.288 21.008 17.824 20.704 17.2 20.512C16.576 20.304 15.784 20.2 14.824 20.2H13.432V18.112H14.848C15.744 18.112 16.472 17.992 17.032 17.752C17.608 17.496 18.024 17.144 18.28 16.696C18.552 16.248 18.688 15.736 18.688 15.16C18.688 14.392 18.456 13.8 17.992 13.384C17.544 12.952 16.896 12.736 16.048 12.736C15.504 12.736 15 12.8 14.536 12.928C14.088 13.056 13.672 13.224 13.288 13.432C12.92 13.64 12.576 13.872 12.256 14.128L11.032 12.376C11.432 12.056 11.888 11.76 12.4 11.488C12.912 11.216 13.48 11.008 14.104 10.864C14.728 10.704 15.424 10.624 16.192 10.624C17.872 10.624 19.144 11.016 20.008 11.8C20.872 12.568 21.304 13.576 21.304 14.824Z"/>
</mask>
<path d="M21.304 14.824C21.304 15.592 21.16 16.264 20.872 16.84C20.584 17.4 20.184 17.856 19.672 18.208C19.176 18.56 18.584 18.816 17.896 18.976V19.072C19.208 19.232 20.184 19.664 20.824 20.368C21.48 21.056 21.808 21.968 21.808 23.104C21.808 24.096 21.584 24.984 21.136 25.768C20.688 26.536 19.992 27.144 19.048 27.592C18.12 28.024 16.928 28.24 15.472 28.24C14.592 28.24 13.784 28.168 13.048 28.024C12.328 27.88 11.632 27.64 10.96 27.304V25C11.632 25.368 12.352 25.648 13.12 25.84C13.904 26.032 14.64 26.128 15.328 26.128C16.656 26.128 17.608 25.856 18.184 25.312C18.76 24.752 19.048 23.976 19.048 22.984C19.048 22.344 18.896 21.824 18.592 21.424C18.288 21.008 17.824 20.704 17.2 20.512C16.576 20.304 15.784 20.2 14.824 20.2H13.432V18.112H14.848C15.744 18.112 16.472 17.992 17.032 17.752C17.608 17.496 18.024 17.144 18.28 16.696C18.552 16.248 18.688 15.736 18.688 15.16C18.688 14.392 18.456 13.8 17.992 13.384C17.544 12.952 16.896 12.736 16.048 12.736C15.504 12.736 15 12.8 14.536 12.928C14.088 13.056 13.672 13.224 13.288 13.432C12.92 13.64 12.576 13.872 12.256 14.128L11.032 12.376C11.432 12.056 11.888 11.76 12.4 11.488C12.912 11.216 13.48 11.008 14.104 10.864C14.728 10.704 15.424 10.624 16.192 10.624C17.872 10.624 19.144 11.016 20.008 11.8C20.872 12.568 21.304 13.576 21.304 14.824Z" fill="black"/>
<path d="M20.872 16.84L21.7613 17.2974L21.7664 17.2872L20.872 16.84ZM19.672 18.208L19.1055 17.384L19.0993 17.3882L19.0933 17.3925L19.672 18.208ZM17.896 18.976L17.6695 18.002L16.896 18.1819V18.976H17.896ZM17.896 19.072H16.896V19.9575L17.7749 20.0646L17.896 19.072ZM20.824 20.368L20.0841 21.0407L20.0921 21.0495L20.1003 21.0581L20.824 20.368ZM21.136 25.768L21.9998 26.2719L22.0042 26.2641L21.136 25.768ZM19.048 27.592L19.47 28.4986L19.4767 28.4954L19.048 27.592ZM13.048 28.024L12.8519 29.0046L12.856 29.0054L13.048 28.024ZM10.96 27.304H9.96V27.922L10.5128 28.1984L10.96 27.304ZM10.96 25L11.4403 24.1229L9.96 23.3123V25H10.96ZM13.12 25.84L12.8775 26.8102L12.8821 26.8113L13.12 25.84ZM18.184 25.312L18.8706 26.039L18.8759 26.034L18.8811 26.029L18.184 25.312ZM18.592 21.424L17.7846 22.014L17.7902 22.0216L17.7958 22.0291L18.592 21.424ZM17.2 20.512L16.8838 21.4607L16.8948 21.4644L16.9059 21.4678L17.2 20.512ZM13.432 20.2H12.432V21.2H13.432V20.2ZM13.432 18.112V17.112H12.432V18.112H13.432ZM17.032 17.752L17.426 18.6712L17.4381 18.6658L17.032 17.752ZM18.28 16.696L17.4252 16.177L17.4183 16.1884L17.4118 16.1999L18.28 16.696ZM17.992 13.384L17.2979 14.1038L17.3109 14.1164L17.3245 14.1286L17.992 13.384ZM14.536 12.928L14.2701 11.964L14.2613 11.9665L14.536 12.928ZM13.288 13.432L12.8117 12.5527L12.8038 12.557L12.7959 12.5614L13.288 13.432ZM12.256 14.128L11.4362 14.7007L12.0474 15.5755L12.8807 14.9089L12.256 14.128ZM11.032 12.376L10.4073 11.5951L9.67556 12.1805L10.2122 12.9487L11.032 12.376ZM14.104 10.864L14.3289 11.8384L14.3407 11.8357L14.3524 11.8327L14.104 10.864ZM20.008 11.8L19.336 12.5406L19.3436 12.5474L20.008 11.8ZM21.304 14.824H20.304C20.304 15.4664 20.184 15.9799 19.9776 16.3928L20.872 16.84L21.7664 17.2872C22.136 16.5481 22.304 15.7176 22.304 14.824H21.304ZM20.872 16.84L19.9827 16.3827C19.7693 16.7977 19.4793 17.1269 19.1055 17.384L19.672 18.208L20.2385 19.032C20.8887 18.5851 21.3987 18.0023 21.7613 17.2973L20.872 16.84ZM19.672 18.208L19.0933 17.3925C18.7189 17.6581 18.2511 17.8667 17.6695 18.002L17.896 18.976L18.1225 19.95C18.9169 19.7653 19.6331 19.4619 20.2507 19.0235L19.672 18.208ZM17.896 18.976H16.896V19.072H17.896H18.896V18.976H17.896ZM17.896 19.072L17.7749 20.0646C18.9412 20.2069 19.6584 20.5725 20.0841 21.0407L20.824 20.368L21.5639 19.6953C20.7096 18.7555 19.4748 18.2571 18.0171 18.0794L17.896 19.072ZM20.824 20.368L20.1003 21.0581C20.5453 21.5248 20.808 22.1717 20.808 23.104H21.808H22.808C22.808 21.7643 22.4147 20.5872 21.5477 19.6779L20.824 20.368ZM21.808 23.104H20.808C20.808 23.9396 20.6211 24.6536 20.2678 25.2719L21.136 25.768L22.0042 26.2641C22.5469 25.3144 22.808 24.2524 22.808 23.104H21.808ZM21.136 25.768L20.2722 25.2641C19.9425 25.8294 19.414 26.3114 18.6193 26.6886L19.048 27.592L19.4767 28.4954C20.57 27.9766 21.4335 27.2426 21.9998 26.2719L21.136 25.768ZM19.048 27.592L18.626 26.6854C17.8737 27.0356 16.8395 27.24 15.472 27.24V28.24V29.24C17.0165 29.24 18.3663 29.0124 19.47 28.4986L19.048 27.592ZM15.472 28.24V27.24C14.6457 27.24 13.903 27.1723 13.24 27.0426L13.048 28.024L12.856 29.0054C13.665 29.1637 14.5383 29.24 15.472 29.24V28.24ZM13.048 28.024L13.2441 27.0434C12.6133 26.9173 12.0016 26.7068 11.4072 26.4096L10.96 27.304L10.5128 28.1984C11.2624 28.5732 12.0427 28.8427 12.8519 29.0046L13.048 28.024ZM10.96 27.304H11.96V25H10.96H9.96V27.304H10.96ZM10.96 25L10.4797 25.8771C11.2291 26.2875 12.0293 26.5981 12.8775 26.8101L13.12 25.84L13.3625 24.8699C12.6747 24.6979 12.0349 24.4485 11.4403 24.1229L10.96 25ZM13.12 25.84L12.8821 26.8113C13.7309 27.0192 14.5474 27.128 15.328 27.128V26.128V25.128C14.7326 25.128 14.0771 25.0448 13.3579 24.8687L13.12 25.84ZM15.328 26.128V27.128C16.7498 27.128 18.0179 26.8444 18.8706 26.039L18.184 25.312L17.4974 24.585C17.1981 24.8676 16.5622 25.128 15.328 25.128V26.128ZM18.184 25.312L18.8811 26.029C19.6943 25.2383 20.048 24.1785 20.048 22.984H19.048H18.048C18.048 23.7735 17.8257 24.2657 17.4869 24.595L18.184 25.312ZM19.048 22.984H20.048C20.048 22.1859 19.8568 21.4356 19.3882 20.8189L18.592 21.424L17.7958 22.0291C17.9352 22.2124 18.048 22.5021 18.048 22.984H19.048ZM18.592 21.424L19.3994 20.834C18.9377 20.2022 18.2686 19.7945 17.4941 19.5562L17.2 20.512L16.9059 21.4678C17.3794 21.6135 17.6383 21.8138 17.7846 22.014L18.592 21.424ZM17.2 20.512L17.5162 19.5633C16.7551 19.3096 15.8467 19.2 14.824 19.2V20.2V21.2C15.7213 21.2 16.3969 21.2984 16.8838 21.4607L17.2 20.512ZM14.824 20.2V19.2H13.432V20.2V21.2H14.824V20.2ZM13.432 20.2H14.432V18.112H13.432H12.432V20.2H13.432ZM13.432 18.112V19.112H14.848V18.112V17.112H13.432V18.112ZM14.848 18.112V19.112C15.8212 19.112 16.6972 18.9834 17.4259 18.6711L17.032 17.752L16.6381 16.8329C16.2468 17.0006 15.6668 17.112 14.848 17.112V18.112ZM17.032 17.752L17.4381 18.6658C18.1647 18.3429 18.765 17.8628 19.1482 17.1921L18.28 16.696L17.4118 16.1999C17.283 16.4252 17.0513 16.6491 16.6259 16.8382L17.032 17.752ZM18.28 16.696L19.1348 17.215C19.511 16.5953 19.688 15.9003 19.688 15.16H18.688H17.688C17.688 15.5717 17.593 15.9007 17.4252 16.177L18.28 16.696ZM18.688 15.16H19.688C19.688 14.1792 19.383 13.288 18.6595 12.6394L17.992 13.384L17.3245 14.1286C17.529 14.312 17.688 14.6048 17.688 15.16H18.688ZM17.992 13.384L18.6861 12.6642C17.9927 11.9955 17.0592 11.736 16.048 11.736V12.736V13.736C16.7328 13.736 17.0953 13.9085 17.2979 14.1038L17.992 13.384ZM16.048 12.736V11.736C15.4256 11.736 14.8311 11.8092 14.2701 11.964L14.536 12.928L14.8019 13.892C15.1689 13.7908 15.5824 13.736 16.048 13.736V12.736ZM14.536 12.928L14.2613 11.9665C13.7479 12.1131 13.2638 12.3078 12.8117 12.5527L13.288 13.432L13.7643 14.3113C14.0802 14.1402 14.4281 13.9989 14.8107 13.8895L14.536 12.928ZM13.288 13.432L12.7959 12.5614C12.3829 12.7949 11.9943 13.0567 11.6313 13.3471L12.256 14.128L12.8807 14.9089C13.1577 14.6873 13.4571 14.4851 13.7801 14.3026L13.288 13.432ZM12.256 14.128L13.0758 13.5553L11.8518 11.8033L11.032 12.376L10.2122 12.9487L11.4362 14.7007L12.256 14.128ZM11.032 12.376L11.6567 13.1569C12.0023 12.8804 12.405 12.6177 12.8692 12.3711L12.4 11.488L11.9308 10.6049C11.371 10.9023 10.8617 11.2316 10.4073 11.5951L11.032 12.376ZM12.4 11.488L12.8692 12.3711C13.2965 12.1441 13.7812 11.9648 14.3289 11.8384L14.104 10.864L13.8791 9.88961C13.1788 10.0512 12.5275 10.2879 11.9308 10.6049L12.4 11.488ZM14.104 10.864L14.3524 11.8327C14.8815 11.697 15.4923 11.624 16.192 11.624V10.624V9.624C15.3557 9.624 14.5745 9.711 13.8556 9.89533L14.104 10.864ZM16.192 10.624V11.624C17.7318 11.624 18.7229 11.9842 19.336 12.5406L20.008 11.8L20.68 11.0594C19.5651 10.0478 18.0122 9.624 16.192 9.624V10.624ZM20.008 11.8L19.3436 12.5474C19.9757 13.1093 20.304 13.836 20.304 14.824H21.304H22.304C22.304 13.316 21.7683 12.0267 20.6724 11.0526L20.008 11.8Z" fill="#FFD700" mask="url(#path-5-outside-1_2147_511)"/>
</svg>
