<svg width="127" height="38" viewBox="0 0 127 38" fill="none" xmlns="http://www.w3.org/2000/svg">
<rect x="8" y="12" width="118" height="25" stroke="#0D9345" stroke-width="2"/>
<path d="M42.808 19.684H56.024V27.716H54.008V21.572H44.728V27.796H42.808V19.684ZM43.8 25.028H55.128V26.916H43.8V25.028ZM48.344 16.9H50.376V31.924H48.344V16.9ZM65.928 17.348H67.944V29.86H65.928V17.348ZM60.472 20.804H62.456V31.748H60.472V20.804ZM71.576 20.772H73.576V31.7H71.576V20.772ZM61.448 28.708H72.472V30.676H61.448V28.708ZM77.464 19.876H83.656V21.668H77.464V19.876ZM79.736 17.14H81.528V20.772H79.736V17.14ZM87.448 19.844H92.088V21.684H87.448V19.844ZM84.776 29.38H90.504V31.156H84.776V29.38ZM86.488 16.884H88.456V25.22H86.488V16.884ZM83.912 24.436H91.544V31.86H89.576V26.228H85.784V31.924H83.912V24.436ZM77.112 28.612C77.6667 28.5053 78.3013 28.3827 79.016 28.244C79.7307 28.1053 80.488 27.956 81.288 27.796C82.088 27.6253 82.8773 27.4547 83.656 27.284L83.832 29.06C83.1067 29.2307 82.3707 29.4067 81.624 29.588C80.8773 29.7587 80.152 29.924 79.448 30.084C78.744 30.2333 78.0933 30.3773 77.496 30.516L77.112 28.612ZM77.864 22.436L79.4 22.132C79.528 22.708 79.64 23.3213 79.736 23.972C79.8427 24.612 79.9227 25.2413 79.976 25.86C80.04 26.468 80.0773 27.0227 80.088 27.524L78.44 27.828C78.4507 27.3373 78.4293 26.7827 78.376 26.164C78.3333 25.5453 78.264 24.9107 78.168 24.26C78.0827 23.6093 77.9813 23.0013 77.864 22.436ZM81.448 21.972L83.304 22.292C83.2293 22.9747 83.1333 23.6733 83.016 24.388C82.9093 25.1027 82.7973 25.7907 82.68 26.452C82.5733 27.1027 82.4613 27.6787 82.344 28.18L80.728 27.844C80.8133 27.46 80.8933 27.028 80.968 26.548C81.0427 26.0573 81.112 25.5507 81.176 25.028C81.24 24.4947 81.2933 23.9667 81.336 23.444C81.3893 22.9213 81.4267 22.4307 81.448 21.972Z" fill="#64503C"/>
<path d="M31 1L3.3116e-06 28L2.12669e-06 1L31 1Z" fill="#FFD700"/>
<path d="M2.2 8.544H7.848V9.136H2.2V8.544ZM4.648 2.32H5.272V8.888H4.648V2.32ZM1.904 6.32H2.504V9.64H1.904V6.32ZM7.528 6.32H8.144V9.624H7.528V6.32ZM2.208 3.04H2.808V5.224H7.2V3.04H7.824V5.8H2.208V3.04ZM10.816 3.12H16.816V9.408H16.168V3.72H11.44V9.44H10.816V3.12ZM11.096 8.144H16.608V8.76H11.096V8.144Z" fill="black"/>
<mask id="path-5-outside-1_2147_526" maskUnits="userSpaceOnUse" x="14" y="9" width="16" height="20" fill="black">
<rect fill="white" x="14" y="9" width="16" height="20"/>
<path d="M15.832 28V26.728C17.224 25.608 18.496 24.544 19.648 23.536C20.816 22.512 21.824 21.528 22.672 20.584C23.52 19.64 24.176 18.744 24.64 17.896C25.104 17.048 25.336 16.24 25.336 15.472C25.336 14.784 25.192 14.176 24.904 13.648C24.616 13.104 24.192 12.68 23.632 12.376C23.088 12.056 22.416 11.896 21.616 11.896C20.688 11.896 19.848 12.136 19.096 12.616C18.36 13.08 17.64 13.704 16.936 14.488L15.544 13.24C16.376 12.28 17.296 11.512 18.304 10.936C19.328 10.36 20.464 10.072 21.712 10.072C22.88 10.072 23.896 10.288 24.76 10.72C25.64 11.152 26.32 11.768 26.8 12.568C27.28 13.352 27.52 14.304 27.52 15.424C27.52 16.304 27.312 17.192 26.896 18.088C26.48 18.984 25.896 19.888 25.144 20.8C24.408 21.712 23.544 22.624 22.552 23.536C21.576 24.432 20.52 25.344 19.384 26.272C19.864 26.224 20.336 26.192 20.8 26.176C21.264 26.144 21.72 26.128 22.168 26.128H28.384V28H15.832Z"/>
</mask>
<path d="M15.832 28V26.728C17.224 25.608 18.496 24.544 19.648 23.536C20.816 22.512 21.824 21.528 22.672 20.584C23.52 19.64 24.176 18.744 24.64 17.896C25.104 17.048 25.336 16.24 25.336 15.472C25.336 14.784 25.192 14.176 24.904 13.648C24.616 13.104 24.192 12.68 23.632 12.376C23.088 12.056 22.416 11.896 21.616 11.896C20.688 11.896 19.848 12.136 19.096 12.616C18.36 13.08 17.64 13.704 16.936 14.488L15.544 13.24C16.376 12.28 17.296 11.512 18.304 10.936C19.328 10.36 20.464 10.072 21.712 10.072C22.88 10.072 23.896 10.288 24.76 10.72C25.64 11.152 26.32 11.768 26.8 12.568C27.28 13.352 27.52 14.304 27.52 15.424C27.52 16.304 27.312 17.192 26.896 18.088C26.48 18.984 25.896 19.888 25.144 20.8C24.408 21.712 23.544 22.624 22.552 23.536C21.576 24.432 20.52 25.344 19.384 26.272C19.864 26.224 20.336 26.192 20.8 26.176C21.264 26.144 21.72 26.128 22.168 26.128H28.384V28H15.832Z" fill="black"/>
<path d="M15.832 28H14.832V29H15.832V28ZM15.832 26.728L15.2051 25.9489L14.832 26.2491V26.728H15.832ZM19.648 23.536L20.3065 24.2886L20.3072 24.2879L19.648 23.536ZM22.672 20.584L21.9281 19.9157L21.9281 19.9157L22.672 20.584ZM24.64 17.896L23.7627 17.416L23.7627 17.416L24.64 17.896ZM24.904 13.648L24.0201 14.1159L24.0261 14.1269L24.904 13.648ZM23.632 12.376L23.125 13.2379L23.1398 13.2467L23.1549 13.2549L23.632 12.376ZM19.096 12.616L19.6293 13.4619L19.634 13.4589L19.096 12.616ZM16.936 14.488L16.2685 15.2326L17.0124 15.8996L17.68 15.1561L16.936 14.488ZM15.544 13.24L14.7883 12.5851L14.1443 13.3282L14.8765 13.9846L15.544 13.24ZM18.304 10.936L17.8137 10.0644L17.8079 10.0678L18.304 10.936ZM24.76 10.72L24.3128 11.6145L24.3193 11.6177L24.76 10.72ZM26.8 12.568L25.9425 13.0825L25.9471 13.0902L26.8 12.568ZM26.896 18.088L27.803 18.5091L27.803 18.5091L26.896 18.088ZM25.144 20.8L24.3724 20.1638L24.3658 20.172L25.144 20.8ZM22.552 23.536L23.2283 24.2727L23.2288 24.2722L22.552 23.536ZM19.384 26.272L18.7514 25.4976L16.181 27.5973L19.4835 27.267L19.384 26.272ZM20.8 26.176L20.8345 27.1754L20.8516 27.1748L20.8688 27.1736L20.8 26.176ZM28.384 26.128H29.384V25.128H28.384V26.128ZM28.384 28V29H29.384V28H28.384ZM15.832 28H16.832V26.728H15.832H14.832V28H15.832ZM15.832 26.728L16.4589 27.5071C17.8599 26.3799 19.1426 25.307 20.3065 24.2886L19.648 23.536L18.9895 22.7834C17.8494 23.781 16.5881 24.8361 15.2051 25.9489L15.832 26.728ZM19.648 23.536L20.3072 24.2879C21.4988 23.2433 22.5363 22.2315 23.4159 21.2523L22.672 20.584L21.9281 19.9157C21.1117 20.8245 20.1332 21.7807 18.9888 22.7841L19.648 23.536ZM22.672 20.584L23.4159 21.2523C24.3004 20.2676 25.0068 19.3089 25.5173 18.376L24.64 17.896L23.7627 17.416C23.3452 18.1791 22.7396 19.0124 21.9281 19.9157L22.672 20.584ZM24.64 17.896L25.5173 18.376C26.0414 17.4182 26.336 16.4457 26.336 15.472H25.336H24.336C24.336 16.0343 24.1667 16.6778 23.7627 17.416L24.64 17.896ZM25.336 15.472H26.336C26.336 14.641 26.1609 13.864 25.7819 13.1691L24.904 13.648L24.0261 14.1269C24.2231 14.488 24.336 14.927 24.336 15.472H25.336ZM24.904 13.648L25.7878 13.1801C25.4043 12.4557 24.8357 11.8916 24.1091 11.4971L23.632 12.376L23.1549 13.2549C23.5483 13.4684 23.8277 13.7523 24.0202 14.1159L24.904 13.648ZM23.632 12.376L24.139 11.5141C23.4054 11.0825 22.5473 10.896 21.616 10.896V11.896V12.896C22.2847 12.896 22.7707 13.0295 23.125 13.2379L23.632 12.376ZM21.616 11.896V10.896C20.5054 10.896 19.4773 11.1862 18.558 11.7731L19.096 12.616L19.634 13.4589C20.2187 13.0858 20.8706 12.896 21.616 12.896V11.896ZM19.096 12.616L18.5627 11.7701C17.7342 12.2924 16.9451 12.9811 16.192 13.8199L16.936 14.488L17.68 15.1561C18.3349 14.4269 18.9858 13.8676 19.6293 13.4619L19.096 12.616ZM16.936 14.488L17.6035 13.7434L16.2115 12.4954L15.544 13.24L14.8765 13.9846L16.2685 15.2326L16.936 14.488ZM15.544 13.24L16.2997 13.8949C17.0648 13.0121 17.8989 12.3193 18.8001 11.8042L18.304 10.936L17.8079 10.0678C16.6931 10.7047 15.6872 11.5478 14.7883 12.5851L15.544 13.24ZM18.304 10.936L18.7943 11.8076C19.6592 11.321 20.6247 11.072 21.712 11.072V10.072V9.072C20.3033 9.072 18.9968 9.39897 17.8137 10.0644L18.304 10.936ZM21.712 10.072V11.072C22.7568 11.072 23.6137 11.2649 24.3128 11.6144L24.76 10.72L25.2072 9.82557C24.1783 9.3111 23.0032 9.072 21.712 9.072V10.072ZM24.76 10.72L24.3193 11.6177C25.0356 11.9693 25.5668 12.4563 25.9425 13.0825L26.8 12.568L27.6575 12.0535C27.0732 11.0797 26.2444 10.3347 25.2007 9.82233L24.76 10.72ZM26.8 12.568L25.9471 13.0902C26.3119 13.6858 26.52 14.448 26.52 15.424H27.52H28.52C28.52 14.16 28.2481 13.0182 27.6529 12.0458L26.8 12.568ZM27.52 15.424H26.52C26.52 16.1416 26.3513 16.8866 25.989 17.6669L26.896 18.088L27.803 18.5091C28.2727 17.4974 28.52 16.4664 28.52 15.424H27.52ZM26.896 18.088L25.989 17.6669C25.615 18.4724 25.0806 19.305 24.3725 20.1638L25.144 20.8L25.9155 21.4362C26.7114 20.471 27.345 19.4956 27.803 18.5091L26.896 18.088ZM25.144 20.8L24.3658 20.172C23.6651 21.0403 22.836 21.9165 21.8752 22.7998L22.552 23.536L23.2288 24.2722C24.252 23.3315 25.1509 22.3837 25.9222 21.428L25.144 20.8ZM22.552 23.536L21.8757 22.7993C20.9153 23.681 19.874 24.5805 18.7514 25.4976L19.384 26.272L20.0166 27.0464C21.166 26.1075 22.2367 25.183 23.2283 24.2727L22.552 23.536ZM19.384 26.272L19.4835 27.267C19.9427 27.2211 20.393 27.1906 20.8345 27.1754L20.8 26.176L20.7655 25.1766C20.279 25.1934 19.7853 25.2269 19.2845 25.277L19.384 26.272ZM20.8 26.176L20.8688 27.1736C21.3108 27.1431 21.7438 27.128 22.168 27.128V26.128V25.128C21.6962 25.128 21.2172 25.1449 20.7312 25.1784L20.8 26.176ZM22.168 26.128V27.128H28.384V26.128V25.128H22.168V26.128ZM28.384 26.128H27.384V28H28.384H29.384V26.128H28.384ZM28.384 28V27H15.832V28V29H28.384V28Z" fill="#FFD700" mask="url(#path-5-outside-1_2147_526)"/>
</svg>
