<svg width="450" height="143" viewBox="0 0 450 143" fill="none" xmlns="http://www.w3.org/2000/svg">
<path d="M216.498 142.974L286.498 133.474V11.4741L33.4747 0.507736L0.0106201 13.658L4.83176 136.587L216.498 142.974Z" fill="#F5F5F5"/>
<rect width="168" height="73" transform="translate(59 35)" fill="white"/>
<path d="M106.424 60.6H109.352V70.008H106.424V60.6ZM104.24 79.536H112.04V82.104H104.24V79.536ZM101.336 63.72H114.656V66.336H101.336V63.72ZM102.008 68.952H114.08V71.568H102.008V68.952ZM102.776 73.608H113.552V83.112H110.768V76.176H105.416V83.136H102.776V73.608ZM95.72 60.624L98.264 61.512C97.944 62.136 97.608 62.776 97.256 63.432C96.904 64.072 96.56 64.696 96.224 65.304C95.888 65.896 95.56 66.416 95.24 66.864L93.296 66.072C93.584 65.576 93.88 65.016 94.184 64.392C94.488 63.752 94.776 63.104 95.048 62.448C95.32 61.792 95.544 61.184 95.72 60.624ZM98.6 63.48L101.048 64.488C100.456 65.4 99.816 66.36 99.128 67.368C98.44 68.36 97.744 69.312 97.04 70.224C96.336 71.136 95.68 71.936 95.072 72.624L93.32 71.736C93.784 71.192 94.256 70.576 94.736 69.888C95.216 69.2 95.688 68.488 96.152 67.752C96.632 67.016 97.08 66.28 97.496 65.544C97.928 64.792 98.296 64.104 98.6 63.48ZM92.024 66.312L93.392 64.344C93.808 64.696 94.24 65.096 94.688 65.544C95.136 65.976 95.544 66.408 95.912 66.84C96.296 67.272 96.584 67.672 96.776 68.04L95.312 70.272C95.12 69.904 94.84 69.488 94.472 69.024C94.12 68.544 93.728 68.072 93.296 67.608C92.864 67.128 92.44 66.696 92.024 66.312ZM98.024 69.264L100.064 68.376C100.384 68.904 100.696 69.472 101 70.08C101.304 70.688 101.568 71.288 101.792 71.88C102.016 72.456 102.184 72.976 102.296 73.44L100.088 74.448C99.992 74 99.84 73.48 99.632 72.888C99.424 72.28 99.176 71.664 98.888 71.04C98.616 70.4 98.328 69.808 98.024 69.264ZM92.024 71.184C93.128 71.152 94.456 71.104 96.008 71.04C97.56 70.976 99.136 70.904 100.736 70.824L100.712 73.104C99.208 73.216 97.712 73.328 96.224 73.44C94.752 73.536 93.432 73.616 92.264 73.68L92.024 71.184ZM98.432 75.264L100.544 74.568C100.88 75.288 101.192 76.072 101.48 76.92C101.768 77.768 101.976 78.504 102.104 79.128L99.872 79.944C99.76 79.304 99.568 78.552 99.296 77.688C99.024 76.808 98.736 76 98.432 75.264ZM93.056 74.712L95.432 75.144C95.304 76.296 95.112 77.432 94.856 78.552C94.6 79.672 94.304 80.616 93.968 81.384C93.808 81.272 93.592 81.144 93.32 81C93.048 80.872 92.768 80.744 92.48 80.616C92.208 80.488 91.968 80.392 91.76 80.328C92.112 79.608 92.392 78.752 92.6 77.76C92.808 76.752 92.96 75.736 93.056 74.712ZM95.84 72.456H98.384V83.16H95.84V72.456ZM119.504 62.856H140.144V65.496H119.504V62.856ZM128.264 60.624H131.264V83.16H128.264V60.624ZM128.072 73.584L130.496 74.616C129.92 75.48 129.256 76.304 128.504 77.088C127.752 77.856 126.936 78.584 126.056 79.272C125.192 79.96 124.288 80.584 123.344 81.144C122.4 81.704 121.456 82.184 120.512 82.584C120.368 82.344 120.176 82.072 119.936 81.768C119.712 81.464 119.472 81.168 119.216 80.88C118.976 80.592 118.744 80.352 118.52 80.16C119.448 79.84 120.376 79.448 121.304 78.984C122.232 78.504 123.112 77.976 123.944 77.4C124.792 76.824 125.568 76.216 126.272 75.576C126.976 74.92 127.576 74.256 128.072 73.584ZM131.696 73.728C132.352 74.608 133.184 75.456 134.192 76.272C135.2 77.072 136.304 77.808 137.504 78.48C138.72 79.136 139.936 79.672 141.152 80.088C140.928 80.28 140.68 80.528 140.408 80.832C140.152 81.136 139.904 81.44 139.664 81.744C139.44 82.064 139.248 82.36 139.088 82.632C137.84 82.104 136.616 81.44 135.416 80.64C134.216 79.824 133.088 78.92 132.032 77.928C130.992 76.92 130.088 75.864 129.32 74.76L131.696 73.728ZM123.872 69.936V72.6H135.776V69.936H123.872ZM121.088 67.392H138.728V75.144H121.088V67.392ZM150.2 69.96V78.816H147.512V72.624H145.064V69.96H150.2ZM150.2 77.688C150.68 78.504 151.352 79.104 152.216 79.488C153.096 79.872 154.152 80.088 155.384 80.136C156.136 80.168 157.032 80.192 158.072 80.208C159.128 80.208 160.232 80.2 161.384 80.184C162.552 80.168 163.68 80.144 164.768 80.112C165.872 80.064 166.856 80 167.72 79.92C167.624 80.144 167.512 80.416 167.384 80.736C167.256 81.04 167.144 81.36 167.048 81.696C166.968 82.048 166.896 82.36 166.832 82.632C166.064 82.664 165.184 82.688 164.192 82.704C163.2 82.736 162.168 82.752 161.096 82.752C160.04 82.768 159.016 82.768 158.024 82.752C157.032 82.736 156.16 82.712 155.408 82.68C153.936 82.616 152.688 82.384 151.664 81.984C150.64 81.584 149.768 80.912 149.048 79.968C148.6 80.448 148.136 80.928 147.656 81.408C147.176 81.888 146.656 82.392 146.096 82.92L144.728 80.184C145.208 79.832 145.712 79.44 146.24 79.008C146.784 78.576 147.304 78.136 147.8 77.688H150.2ZM144.896 62.568L147.176 61.128C147.592 61.528 148.016 61.968 148.448 62.448C148.88 62.912 149.272 63.376 149.624 63.84C149.992 64.304 150.272 64.736 150.464 65.136L148.016 66.744C147.84 66.36 147.584 65.92 147.248 65.424C146.912 64.928 146.536 64.432 146.12 63.936C145.72 63.44 145.312 62.984 144.896 62.568ZM150.872 63.744H158.984V66.096H150.872V63.744ZM154.16 67.848H157.424V70.2H154.16V67.848ZM153.728 60.6H156.368V65.016H153.728V60.6ZM156.44 67.848H158.864C158.864 67.848 158.856 67.976 158.84 68.232C158.84 68.488 158.84 68.696 158.84 68.856C158.808 70.456 158.776 71.832 158.744 72.984C158.712 74.12 158.664 75.064 158.6 75.816C158.536 76.552 158.456 77.136 158.36 77.568C158.28 77.984 158.168 78.288 158.024 78.48C157.832 78.752 157.624 78.952 157.4 79.08C157.192 79.208 156.936 79.296 156.632 79.344C156.376 79.408 156.064 79.448 155.696 79.464C155.328 79.464 154.936 79.456 154.52 79.44C154.504 79.104 154.44 78.712 154.328 78.264C154.232 77.816 154.096 77.44 153.92 77.136C154.224 77.168 154.496 77.192 154.736 77.208C154.976 77.208 155.168 77.208 155.312 77.208C155.44 77.208 155.552 77.192 155.648 77.16C155.744 77.112 155.832 77.024 155.912 76.896C156.008 76.736 156.088 76.368 156.152 75.792C156.216 75.216 156.272 74.328 156.32 73.128C156.368 71.928 156.408 70.32 156.44 68.304V67.848ZM160.208 63H167.144V65.352H160.208V63ZM159.368 71.592H167.288V73.848H159.368V71.592ZM159.992 66.816H165.32V68.928H159.992V66.816ZM160.712 60.48L163.112 61.032C162.824 62.264 162.416 63.464 161.888 64.632C161.36 65.8 160.776 66.784 160.136 67.584C160.008 67.44 159.824 67.272 159.584 67.08C159.344 66.872 159.096 66.672 158.84 66.48C158.6 66.288 158.384 66.136 158.192 66.024C158.784 65.336 159.296 64.504 159.728 63.528C160.16 62.536 160.488 61.52 160.712 60.48ZM162.032 70.128H164.48V76.752C164.48 77.296 164.416 77.752 164.288 78.12C164.176 78.472 163.92 78.744 163.52 78.936C163.152 79.128 162.712 79.248 162.2 79.296C161.704 79.328 161.112 79.344 160.424 79.344C160.392 79.008 160.296 78.616 160.136 78.168C159.976 77.72 159.808 77.328 159.632 76.992C160.08 77.008 160.496 77.016 160.88 77.016C161.28 77.016 161.544 77.008 161.672 76.992C161.912 76.992 162.032 76.896 162.032 76.704V70.128ZM164.6 66.816H165.152L165.656 66.672L167.144 67.8C166.696 68.52 166.168 69.272 165.56 70.056C164.968 70.824 164.392 71.48 163.832 72.024C163.672 71.784 163.448 71.528 163.16 71.256C162.888 70.968 162.656 70.744 162.464 70.584C162.88 70.12 163.288 69.568 163.688 68.928C164.088 68.288 164.392 67.728 164.6 67.248V66.816ZM152.744 64.824H155.072V69.048C155.072 69.816 155.04 70.648 154.976 71.544C154.912 72.44 154.776 73.344 154.568 74.256C154.376 75.168 154.088 76.048 153.704 76.896C153.32 77.744 152.808 78.52 152.168 79.224C151.992 78.968 151.728 78.672 151.376 78.336C151.04 77.984 150.744 77.72 150.488 77.544C151.16 76.744 151.656 75.848 151.976 74.856C152.296 73.848 152.504 72.832 152.6 71.808C152.696 70.784 152.744 69.856 152.744 69.024V64.824ZM173.504 64.536H183.656V66.384H173.504V64.536ZM178.184 61.824H184.64V63.648H178.184V61.824ZM174.92 71.832H184.928V73.536H174.92V71.832ZM176.888 60.6H179.552V65.232H176.888V60.6ZM172.424 64.536H174.776V71.088C174.776 71.936 174.752 72.872 174.704 73.896C174.656 74.92 174.56 75.976 174.416 77.064C174.288 78.136 174.104 79.176 173.864 80.184C173.624 81.192 173.304 82.104 172.904 82.92C172.776 82.776 172.592 82.6 172.352 82.392C172.112 82.184 171.864 81.984 171.608 81.792C171.352 81.6 171.136 81.464 170.96 81.384C171.408 80.392 171.728 79.296 171.92 78.096C172.128 76.88 172.264 75.664 172.328 74.448C172.392 73.216 172.424 72.096 172.424 71.088V64.536ZM175.04 67.776L182.408 67.128L182.576 68.592L175.232 69.264L175.04 67.776ZM182.96 64.536H183.296L183.68 64.464L185.36 64.752C185.232 65.408 185.08 66.088 184.904 66.792C184.744 67.496 184.576 68.088 184.4 68.568L182.36 68.232C182.472 67.784 182.584 67.248 182.696 66.624C182.808 65.984 182.896 65.384 182.96 64.824V64.536ZM177.032 66.12H179.048V69.216C179.048 69.456 179.088 69.616 179.168 69.696C179.264 69.76 179.464 69.792 179.768 69.792C179.832 69.792 179.952 69.792 180.128 69.792C180.304 69.792 180.504 69.792 180.728 69.792C180.952 69.792 181.16 69.792 181.352 69.792C181.544 69.792 181.68 69.792 181.76 69.792C182 69.792 182.16 69.744 182.24 69.648C182.32 69.536 182.376 69.32 182.408 69C182.6 69.128 182.856 69.248 183.176 69.36C183.496 69.456 183.784 69.52 184.04 69.552C183.96 70.192 183.768 70.632 183.464 70.872C183.16 71.112 182.688 71.232 182.048 71.232C181.936 71.232 181.76 71.232 181.52 71.232C181.296 71.232 181.04 71.232 180.752 71.232C180.48 71.232 180.224 71.232 179.984 71.232C179.744 71.232 179.576 71.232 179.48 71.232C178.824 71.232 178.312 71.176 177.944 71.064C177.592 70.936 177.352 70.728 177.224 70.44C177.096 70.136 177.032 69.72 177.032 69.192V66.12ZM174.464 80.784C175.344 80.704 176.344 80.608 177.464 80.496C178.584 80.384 179.768 80.264 181.016 80.136C182.28 80.008 183.536 79.872 184.784 79.728L184.856 81.696C183.656 81.84 182.456 81.984 181.256 82.128C180.056 82.272 178.904 82.408 177.8 82.536C176.696 82.664 175.688 82.776 174.776 82.872L174.464 80.784ZM176.384 78.24L178.328 77.88C178.504 78.216 178.656 78.592 178.784 79.008C178.928 79.424 179.024 79.792 179.072 80.112L177.032 80.52C177 80.216 176.92 79.848 176.792 79.416C176.68 78.984 176.544 78.592 176.384 78.24ZM180.92 77.832L183.248 78.144C183.056 78.608 182.872 79.04 182.696 79.44C182.536 79.824 182.392 80.168 182.264 80.472L180.272 80.136C180.384 79.8 180.504 79.416 180.632 78.984C180.76 78.536 180.856 78.152 180.92 77.832ZM177.776 75.528V76.608H181.856V75.528H177.776ZM175.64 74.208H184.112V77.928H175.64V74.208ZM184.136 67.512L193.4 66.288L193.736 68.808L184.472 70.056L184.136 67.512ZM189.32 61.992L191.408 60.936C191.712 61.336 192.008 61.768 192.296 62.232C192.6 62.68 192.872 63.128 193.112 63.576C193.352 64.024 193.536 64.432 193.664 64.8L191.456 66C191.36 65.632 191.192 65.224 190.952 64.776C190.728 64.312 190.472 63.84 190.184 63.36C189.912 62.864 189.624 62.408 189.32 61.992ZM191.384 69.792L193.52 70.944C193.04 72.544 192.392 74.12 191.576 75.672C190.76 77.208 189.816 78.616 188.744 79.896C187.688 81.16 186.528 82.192 185.264 82.992C185.024 82.672 184.712 82.328 184.328 81.96C183.96 81.608 183.592 81.312 183.224 81.072C184.2 80.544 185.104 79.88 185.936 79.08C186.784 78.28 187.552 77.384 188.24 76.392C188.944 75.384 189.56 74.32 190.088 73.2C190.616 72.08 191.048 70.944 191.384 69.792ZM186.128 60.72H188.768C188.784 62.752 188.832 64.704 188.912 66.576C189.008 68.448 189.136 70.176 189.296 71.76C189.472 73.344 189.672 74.728 189.896 75.912C190.12 77.08 190.368 78 190.64 78.672C190.912 79.328 191.208 79.672 191.528 79.704C191.72 79.704 191.872 79.432 191.984 78.888C192.112 78.344 192.208 77.56 192.272 76.536C192.416 76.728 192.608 76.936 192.848 77.16C193.104 77.384 193.36 77.584 193.616 77.76C193.888 77.92 194.096 78.048 194.24 78.144C194.048 79.488 193.792 80.512 193.472 81.216C193.168 81.936 192.84 82.416 192.488 82.656C192.152 82.912 191.824 83.04 191.504 83.04C190.688 83.008 189.984 82.64 189.392 81.936C188.816 81.232 188.328 80.232 187.928 78.936C187.544 77.624 187.224 76.056 186.968 74.232C186.728 72.408 186.536 70.36 186.392 68.088C186.264 65.8 186.176 63.344 186.128 60.72Z" fill="#64503C"/>
<path d="M406.394 6.26622C398.26 4.78738 388.74 4.97224 385.043 4.97224C377.094 4.87981 370.07 6.54351 362.398 8.85421C353.987 11.3498 338.737 18.744 331.804 28.5413C324.872 38.3387 320.99 49.3376 319.327 56.1773C318.31 60.3365 318.125 64.4958 317.571 68.7475C316.831 75.3098 315.814 89.2665 319.049 99.1562C322.284 109.046 328.754 116.718 332.174 119.121C338.552 123.465 344.467 127.532 351.399 130.767C354.634 132.245 357.869 133.909 361.197 135.111C365.171 136.497 369.33 137.237 373.397 138.161C385.043 140.841 416.376 134.464 421.922 131.783C427.467 129.103 436.71 119.213 438.744 115.331C441.609 109.785 448.264 83.1662 448.356 80.1161C448.448 75.4023 447.154 55.9924 445.491 51.1862C441.147 38.7084 431.719 25.0291 428.392 20.9623C425.157 16.803 414.62 7.74507 406.394 6.26622Z" fill="#F5F5F5"/>
<path d="M367.31 49.0134L364.906 95.2827" stroke="#64503C" stroke-width="4.85" stroke-linecap="square" stroke-linejoin="bevel"/>
<path d="M399.758 48.4138C399.758 56.1474 399.758 63.881 399.56 70.9385C399.362 77.9961 398.965 84.1433 398.557 90.4768" stroke="#64503C" stroke-width="4.85" stroke-linecap="square" stroke-linejoin="bevel"/>
</svg>
