<svg width="311" height="277" viewBox="0 0 311 277" fill="none" xmlns="http://www.w3.org/2000/svg">
<path d="M272.391 36.6211C273.388 35.573 270.152 39.1511 272.335 36.8081C271.893 37.3107 271.45 37.8142 271.012 38.3121C270.881 38.4202 270.748 38.531 270.616 38.6385C271.203 37.9715 271.794 37.2999 272.391 36.621C272.391 36.621 272.391 36.6211 272.391 36.6211ZM272.985 35.5014C272.484 36.1574 270.745 38.1181 272.688 36.0589C272.82 35.8755 272.96 35.685 273.088 35.5074C273.747 34.8048 274.413 34.0921 275.079 33.3781C275.308 33.1114 275.537 32.8445 275.767 32.5769C276.096 32.2687 276.422 31.9618 276.752 31.6502C276.48 31.9454 276.205 32.2436 275.934 32.537C274.899 33.7361 273.995 34.76 272.575 36.3541C272.708 36.2203 272.842 36.0859 272.975 35.9516C272.233 36.7548 271.497 37.5503 270.769 38.3357C271.377 37.6316 272.063 36.8392 272.636 36.1782C271.648 37.1787 270.051 39.0059 269.218 39.9549C268.063 41.2692 268.302 40.9514 267.452 41.9171C267.317 42.0707 267.322 42.1072 267.053 42.4076C265.718 43.8966 263.002 46.8846 264.518 45.0979C266.789 42.5945 268.69 40.4112 270.891 37.9984C270.256 38.5977 271.396 37.2993 272.985 35.5014ZM231.496 81.3808C232.122 80.6139 233.609 79.0707 234.572 78.1031C234.573 78.1019 234.574 78.1007 234.575 78.0995C234.792 77.8823 235.332 77.431 234.645 78.1649C233.552 79.3325 232.85 79.8716 232.346 80.552C232.068 80.8221 231.796 81.0881 231.496 81.3808ZM229.031 84.002C228.301 84.7154 228.529 84.3119 229.449 83.3889C229.449 83.3888 229.449 83.3887 229.449 83.3887C229.815 83.0211 229.172 83.8291 230.395 82.4065C230.711 82.1738 231.02 81.9372 231.336 81.6984C231.012 82.0442 230.721 82.3561 230.39 82.7086C230.521 82.4035 229.786 83.2599 229.031 84.002ZM263.401 46.3892C263.339 46.5459 263.78 46.0566 264.57 45.2376C263.85 46.0353 263.138 46.8242 262.433 47.6045C262.756 47.1982 263.075 46.7969 263.401 46.3892ZM280.41 27.8515C280.412 27.8503 280.413 27.8492 280.414 27.848C280.657 27.5933 280.899 27.3411 281.134 27.096C281.284 26.9624 281.447 26.8159 281.604 26.6749C282.469 25.7844 283.341 24.8918 284.205 24.0126C284.116 24.1496 282.549 25.714 281.709 26.6024C280.426 27.884 279.775 28.5119 279.676 28.5624C279.911 28.3355 280.166 28.088 280.41 27.8515ZM132.361 161.759C132.186 162.145 132.015 162.527 131.842 162.91C132.203 162.498 132.554 162.081 132.926 161.664C133.485 160.254 133.844 160.359 134.961 158.822C138.392 154.095 136.989 154.988 140.842 151.273C138.269 154.661 139.59 153.572 138.312 155.83C137.799 156.111 138.881 153.743 137.76 155.058C136.199 157.581 134.713 159.983 132.879 162.733C132.97 162.682 133.062 162.632 133.153 162.581C133.441 162.149 133.727 161.717 134.018 161.281C133.773 161.803 133.536 162.313 133.291 162.839C133.509 162.106 132.536 163.66 132.442 163.282C132.399 163.115 132.732 162.358 132.917 161.897C132.125 162.842 131.318 163.815 130.511 164.78C130.812 164.198 131.12 163.607 131.42 163.029C131.73 162.609 132.041 162.191 132.354 161.766C132.357 161.764 132.359 161.761 132.361 161.759ZM22.8772 252.586C23.2812 250.948 24.7605 248.515 26.0794 247.605C25.0159 249.26 23.9626 250.901 22.8772 252.586ZM279.574 28.6254C279.701 28.5058 279.823 28.3919 279.957 28.2659C279.415 28.8306 278.882 29.389 278.327 29.9717C278.21 30.0632 278.09 30.1562 277.969 30.2511C278.489 29.7228 279.053 29.1522 279.574 28.6254ZM245.818 65.6896C246.206 65.2616 246.244 65.2224 246.735 64.6932C246.735 64.6938 246.734 64.6943 246.734 64.6949C246.918 64.4968 248.524 62.7725 248.371 62.9851C247.574 63.861 246.759 64.7533 245.925 65.6655C245.885 65.6784 245.864 65.6701 245.818 65.6896ZM255.15 55.4685C255.151 55.4674 255.152 55.4662 255.153 55.465C255.445 55.15 255.737 54.8404 256.025 54.5247C254.987 55.7331 254.75 55.8803 253.8 56.9592C252.857 58.0306 252.285 58.7297 251.372 59.566C251.667 59.2166 251.983 58.8345 252.289 58.4694C253.699 56.9875 254.026 56.5641 255.115 55.3069C255.127 55.3611 255.139 55.4143 255.15 55.4685ZM148.593 141.445C148.66 141.007 149.083 140.779 149.112 140.744C149.111 140.745 149.111 140.746 149.111 140.746C151.025 137.844 148.932 141.18 150.911 138.564C150.661 138.987 150.419 139.406 150.173 139.825C149.649 140.366 149.1 140.917 148.593 141.445ZM217.876 52.7605C217.925 52.7665 217.979 52.7684 218.028 52.7747C216.636 54.1309 216.405 54.6013 215.185 55.6812C216.063 54.6896 216.962 53.7096 217.876 52.7602C217.876 52.7603 217.876 52.7604 217.876 52.7605ZM239.001 72.8918C240.447 71.2762 241.539 70.0733 243.001 68.5699C243.002 68.5688 243.003 68.5676 243.004 68.5665C243.089 68.4793 242.719 68.939 242.834 68.8288C243.124 68.5047 243.424 68.1657 243.721 67.8328C243.784 67.8096 243.847 67.7865 243.908 67.7655C243.054 68.6828 242.21 69.5871 241.383 70.4719C241.518 70.3531 241.656 70.2304 241.791 70.1105C241.115 70.8608 240.376 71.6771 239.682 72.4441C239.888 72.1407 240.096 71.8365 240.304 71.5335C239.865 71.9916 239.431 72.4452 239.001 72.8918ZM196.3 77.2722C196.558 77.0255 196.217 77.5897 196.59 77.1859C196.962 76.7803 197.501 75.953 197.465 76.2197C197.04 76.7869 196.557 77.4343 196.136 78.0018C197.801 76.2849 199.095 74.2968 199.352 74.4614C197.861 76.2143 196.753 77.6808 195.46 79.4776C195.327 79.2437 196.514 77.3881 195.48 78.3299C195.754 77.9766 196.031 77.617 196.298 77.2764C196.299 77.275 196.299 77.2736 196.3 77.2722ZM302.316 6.30189C302.605 6.02938 303.007 5.64889 303.453 5.21578C304.525 4.18879 305.949 2.94434 306.924 2.2422C307.257 1.98557 308.413 1.2021 308.411 1.20977C308.375 1.2311 306.968 2.19446 308.479 1.16862C307.968 1.50787 307.477 1.85034 306.989 2.21428C307.078 2.1508 307.166 2.08827 307.253 2.02785C307.852 1.58958 308.469 1.17184 309.093 0.771745C309.123 0.752288 309.155 0.732219 309.186 0.713205C306.958 2.18597 308.27 1.31228 307.143 2.11688C308.17 1.35753 309.247 0.661641 310.335 -0.000108538C309.705 0.381806 308.978 0.843981 308.44 1.20638C308.367 1.25152 309.658 0.409008 309.887 0.275286C311.097 -0.595417 304.842 3.69818 304.544 4.31757C305.43 3.49269 306.403 2.67207 307.404 1.9439C307.118 2.15407 306.832 2.37219 306.554 2.59286C305.54 3.38649 304.538 4.3072 303.523 5.28696C302.338 6.45831 301.072 7.64455 299.773 8.85348C299.561 9.05308 299.338 9.262 299.13 9.45728C299.198 9.40321 299.261 9.35262 299.328 9.29923C299.006 9.60153 298.677 9.91192 298.35 10.2201C299.295 9.30301 297.967 10.5453 296.348 12.045C297.191 11.2384 298.26 10.249 298.17 10.3111C295.246 13.0514 291.819 16.2831 289.038 19.0234C288.334 19.7174 288.372 19.7291 286.745 21.3246C286.798 21.2667 286.802 21.2518 286.834 21.2125C284.031 23.9982 282.353 25.6977 279.444 28.5868C279.621 28.4354 279.796 28.2854 279.98 28.1259C280.6 27.4888 281.184 26.8888 281.804 26.2557C282.248 25.8526 281.618 26.4984 283.467 24.6491C284.968 23.1515 284.069 24.0321 284.473 23.6187C285.015 23.0653 285.527 22.5855 286.112 21.9914C286.559 21.538 286.058 22.0038 287.267 20.82C286.805 21.3088 286.313 21.8321 285.853 22.3261C285.559 22.6105 285.244 22.9144 284.958 23.1902C285.238 22.9018 285.544 22.5879 285.833 22.2917C284.78 23.3525 283.823 24.3249 282.744 25.4285C283.06 25.0507 281.976 26.1594 281.362 26.7849C280.433 27.7315 281.212 26.9029 280.604 27.5227C279.983 28.1551 279.365 28.8315 278.231 29.9703C278.817 29.3443 277.984 30.1598 278.129 29.9834C278.269 29.8121 279.461 28.6042 278.299 29.7444C276.153 31.938 278.557 29.6181 277.101 31.1143C276.955 31.2653 276.816 31.407 276.685 31.5394C275.324 33.0406 274.94 33.283 275.381 32.7568C275.587 32.5106 276.086 31.9539 276.564 31.4202C276.989 30.985 277.386 30.5784 277.568 30.3809C277.173 30.7698 276.834 31.1072 276.543 31.3989C275.031 33.0504 275.014 33.1625 274.671 33.5619C273.207 35.2688 274.107 34.0289 272.358 36.0441C272.367 35.9847 272.373 35.9348 272.385 35.8764C272.076 36.2236 271.874 36.4565 271.502 36.8722C272.66 35.6966 271.747 36.6939 271.284 37.2041C270.553 38.0076 271.706 36.7879 271.518 37.0058C271.011 37.5968 270.184 38.4929 270.709 37.9581C270.473 38.198 270.219 38.458 269.977 38.703C269.162 39.6234 267.234 41.9789 269.137 39.8309C268.998 40.0669 268.357 40.7366 267.87 41.2622C267.383 41.7877 267.419 41.8024 266.994 42.2627C265.309 44.085 266.349 42.8371 266.577 42.5128C264.405 44.9561 266.569 42.6067 263.392 46.1462C263.117 46.5164 264.622 44.9221 263.417 46.2929C263.136 46.4892 262.196 47.4443 260.398 49.3814C260.24 49.5826 260.084 49.783 259.927 49.9836C258.911 50.9891 259.355 50.377 257.621 52.4267C258.456 51.2408 257.866 52.0633 256.217 53.7543C255.883 54.0968 256.601 53.2553 256.135 53.7346C255.922 53.9532 255.456 54.5058 254.922 55.0537C254.664 55.3193 253.448 56.5302 252.688 57.4093C253.337 56.8445 251.902 58.533 253.244 57.1855C250.834 59.7928 249.175 61.6677 251.777 58.6303C251.139 59.2823 250.505 59.9266 249.879 60.5621C249.478 61.0324 249.065 61.5174 248.648 62.0074C248.522 62.0169 248.556 61.946 246.9 63.7618C247.605 62.9678 248.318 62.1654 249.048 61.3452C249.06 61.3065 249.151 61.1821 249.114 61.1979C248.211 62.2234 245.734 64.9218 245.116 65.6232C244.518 66.3033 245.712 65.0249 245.552 65.2311C244.213 66.9624 244.251 66.7128 243.212 67.8838C242.6 68.5741 244.109 66.9762 243.779 67.3449C242.565 68.7041 241.908 69.2567 240.838 70.4041C241.263 70.0386 241.688 69.6721 242.109 69.3074C240.992 70.5101 239.672 71.9323 238.65 73.0611C238.247 73.5067 238.591 73.2068 238.526 73.2809C238.196 73.6608 236.823 75.1745 236.685 75.3227C235.617 76.4689 235.492 76.5016 234.428 77.6301C234.842 77.1807 235.236 76.7521 235.651 76.3003C235.762 76.0177 235.87 75.7404 235.972 75.4701C234.904 76.5939 233.862 77.6859 232.785 78.8087C233.614 77.9903 234.37 77.246 235.188 76.431C234.043 77.7805 232.902 79.1263 231.772 80.4597C231.13 81.0537 230.41 81.726 229.75 82.3299C228.062 84.1157 228.552 83.9619 227.593 84.6441C227.123 85.1589 226.59 85.7361 226.099 86.268C226.149 86.171 226.199 86.0744 226.249 85.9768C225.647 86.6244 225.059 87.2544 224.438 87.9144C225.189 87.3144 225.89 86.7656 226.611 86.1753C225.423 87.4397 225.342 87.3816 225.133 87.561C224.579 88.0377 223.744 89.0115 223.279 89.3931C223.143 89.5025 224.286 88.2538 223.824 88.6147C223.749 88.6735 221.953 90.0897 220.925 91.1799C220.981 91.1975 221.105 91.1636 221.186 91.1614C219.843 92.5261 218.888 93.0447 219.036 92.8016C218.306 93.5698 217.199 94.5815 217.082 94.7962C216.702 95.1372 216.282 95.5057 215.884 95.8404C216.165 95.3439 214.536 96.7156 214.457 96.9571C215.222 96.4256 215.89 95.8691 216.623 95.2393C216.433 95.5501 216.883 95.2749 216.819 95.3768C216.733 95.4296 216.264 96.1352 213.732 97.5906C213.477 97.6778 213.414 97.6744 213.551 97.6185C213.685 97.5575 213.857 97.4777 214.123 97.3191C214.531 97.0776 215.029 96.7124 214.607 96.967C214.246 97.2026 213.871 97.4459 213.479 97.5936C213.366 97.6343 213.276 97.6571 213.181 97.6639C213.048 97.6731 212.946 97.6353 212.886 97.5527C212.764 97.3357 212.812 97.1752 212.861 96.9169C213.012 96.2707 213.196 95.6561 213.417 95.0242C214.049 93.2789 213.468 95.4897 214.629 91.3289C211.506 100.341 214.785 89.997 216.039 85.7136C216.735 84.6474 218.003 81.0654 219.328 76.0397C219.081 76.5249 218.677 78.1152 218.375 79.0155C218.076 79.9066 218.309 78.9053 217.927 80.0264C217.551 81.128 216.761 83.5059 216.342 84.6228C216.592 83.649 217.893 78.8342 217.1 82.0399C217.901 79.7227 218.334 78.6439 219.186 75.7277C219.275 74.8013 219.167 74.8461 219.936 71.9851C219.703 73.7403 220.74 70.524 220.779 71.3052C220.172 73.3265 220.256 72.1283 219.829 73.267C219.785 73.3925 219.318 75.2855 219.186 75.7277C219.923 73.8761 220.179 73.2428 220.089 74.4795C220.45 73.12 220.706 72.2968 220.626 72.1391C220.753 71.8705 220.881 71.5948 221.006 71.3358C221.123 70.8988 221.225 70.5011 221.351 70.0301C221.003 70.6285 221.444 69.413 221.594 68.5029C221.743 67.5869 221.299 68.7538 221.913 66.3084C221.665 67.1207 221.444 67.8374 221.2 68.6229C221.56 67.0382 221.904 65.4541 222.234 63.8615C221.859 64.9459 221.101 67.2961 220.973 67.1928C221.212 66.4836 221.715 63.9738 221.771 63.7034C222.002 62.6502 221.961 63.244 221.982 63.1654C222.416 61.5164 222.686 60.1406 222.969 59.5478C223.177 58.2814 223.414 57.3542 223.684 56.0207C223.83 55.293 223.691 55.4114 223.798 54.988C224.335 52.8318 224.235 53.93 224.506 52.0885C224.584 51.5147 224.714 50.6751 224.762 49.3879C224.629 50.0278 224.453 50.6719 224.265 51.3077C224.337 50.6952 224.395 50.0758 224.417 49.4798C224.465 49.0826 224.499 48.6998 224.497 48.3329C224.673 48.3328 224.85 48.3351 225.026 48.3367C225.019 47.9094 224.959 47.4321 224.758 47.2008C225.131 47.6334 225.113 48.5504 225.083 49.3056C225.108 49.3847 225.133 49.4474 225.158 49.5216C225.23 48.9381 225.288 48.359 225.217 47.7753C225.178 47.4918 225.107 47.1964 224.908 46.9903C224.71 46.7774 224.378 46.7522 224.09 46.8152C224.081 46.8813 224.078 46.9467 224.076 47.012C221.781 48.0299 221.735 48.3328 220.009 49.9831C219.981 50.0117 219.952 50.0408 219.923 50.0705C218.467 51.3639 217.521 52.6688 216.809 53.5478C216.508 53.798 216.181 54.0777 215.883 54.3325C215.746 54.5516 215.59 54.7914 215.459 55.0076C215.055 55.3205 214.641 55.6472 214.234 55.9705C214.161 56.3075 214.104 56.4326 215.517 55.0335C215.192 55.6671 212.742 58.189 211.747 59.2167C210.988 59.9907 211.647 58.9658 211.54 59.0539C211.182 59.3387 210.042 60.7394 209.789 61.015C208.696 62.1958 207.992 63.0377 207.025 64.1199C206.827 64.3408 206.248 64.8425 206.198 64.8963C205.841 65.2891 204.987 66.2232 204.89 66.3378C200.04 72.0888 205.547 66.2024 201.095 71.5989C201.284 71.4788 201.462 71.3728 201.646 71.2586C201.319 71.6714 200.976 72.1056 200.66 72.5069C200.197 72.9883 200.619 72.2834 199.854 73.384C199.838 73.2593 199.823 73.1344 199.811 73.0068C199.48 73.4979 199.175 73.9565 198.848 74.4461C198.015 74.986 195.857 77.5938 195.711 77.1756C195.659 77.0337 197.069 75.056 196.167 75.9703C195.496 76.7688 196.055 76.3111 195.795 76.6505C193.962 79.0494 193.882 78.8083 193.169 79.8036C193.121 80.0142 193.068 80.235 193.018 80.4517C192.706 80.8043 192.38 81.1749 192.077 81.5171C192.06 81.6406 192.041 81.7681 192.024 81.8921C192.296 81.5508 192.6 81.1693 192.861 80.8433C192.698 81.4373 189.608 85.5966 190.65 83.9131C191.073 83.229 192.025 82.0697 191.217 82.6335C190.372 83.7819 189.467 85.0153 188.594 86.2122C188.516 86.2088 188.44 86.2028 188.362 86.1994C187.197 87.7701 188.49 86.5183 188.594 86.6056C188.324 86.9604 188.05 87.3221 187.775 87.684C187.609 87.7985 187.445 87.9042 187.273 88.0284C187.314 88.0742 187.34 88.2186 187.149 88.5592C187.033 88.7703 186.83 89.0586 186.485 89.4523C185.916 90.1017 186.547 88.8685 185.568 90.1991C185.766 90.197 186.283 89.8328 185.196 91.336C184.957 91.3788 184.687 91.485 184.465 91.491C183.205 93.3941 182.376 94.0562 180.887 96.3141C179.963 97.7186 178.877 99.8626 177.7 100.32C176.936 101.297 177.305 101.084 177.112 101.4C176.189 102.91 175.178 103.721 174.962 103.974C173.609 105.56 173.155 106.345 172.013 107.602C172.169 107.605 172.295 107.637 172.438 107.653C173.219 106.303 173.683 105.707 175.029 103.995C174.613 104.585 174.186 105.193 173.775 105.778C173.927 105.746 174.079 105.714 174.228 105.685C177.938 100.116 177.498 101.725 174.239 106.288C173.8 106.558 173.349 106.843 172.909 107.11C171.185 109.875 170.072 110.94 167.828 113.819C167.559 114.164 166.697 115.5 166.295 116.045C166.302 116.037 166.31 116.028 166.317 116.019C166.213 116.47 166.625 116.063 166.799 116.109C166.595 116.416 166.391 116.724 166.187 117.032C165.591 117.615 165.679 117.322 164.731 118.639C164.964 118.542 165.195 118.446 165.429 118.346C164.372 119.771 163.565 120.618 162.622 121.983C162.748 121.732 162.875 121.48 163.002 121.228C160.749 124.036 161.851 121.282 160.526 123.688C160.368 123.787 160.213 123.881 160.055 123.979C160.715 123.072 161.375 122.166 162.03 121.266C161.968 121.191 161.908 121.115 161.844 121.044C161.148 122.017 160.448 122.996 159.75 123.973C160.225 123.234 160.703 122.492 161.178 121.756C160.308 122.836 159.431 123.926 158.561 125.005C159.729 124.038 158.615 125.591 159.11 125.513C157.405 127.309 155.93 128.62 153.842 131.82C153.428 132.455 153.876 132.278 152.344 133.81C152.977 133.634 151.518 135.902 152.033 135.856C152.465 135.245 152.919 134.616 153.333 134.023C152.734 134.604 152.359 134.494 153.023 133.427C153.871 132.066 155.47 130.347 155.093 130.185C155.491 129.686 155.856 129.218 156.24 128.732C156.165 128.995 156.095 129.254 156.024 129.514C156.956 128.011 157.662 127.155 158.366 126.624C157.152 128.341 155.944 130.051 154.733 131.768C154.932 131.531 155.133 131.29 155.331 131.052C154.585 132.479 155.759 131.309 154.033 133.722C153.949 133.637 153.864 133.555 153.78 133.469C153.388 134.522 151.622 136.897 152.478 136.359C151.856 137.009 151.69 137.112 151.548 137.636C149.924 139.359 148.729 140.361 148.89 139.433C148.421 140.175 147.956 140.914 147.49 141.654C147.889 141.317 148.281 140.985 148.677 140.649C147.768 141.859 146.838 143.096 145.932 144.303C145.562 144.211 147.595 141.892 146.815 142.416C146.658 142.521 146.276 143.258 146.12 143.409C144.458 144.994 146.807 142.311 146.173 142.67C144.08 145.318 145.299 142.861 142.843 146.836C142.688 146.873 142.525 146.915 142.375 146.945C141.4 148.233 141.662 148.273 140.866 149.41C140.368 150.121 139.383 150.744 139.029 151.687C138.97 151.853 140.338 150.868 138.292 153.569C136.698 155.672 137.063 154.579 136.106 155.64C135.157 156.687 133.594 159.621 132.557 160.034C133.074 159.475 133.666 158.756 134.217 158.127C134.329 157.79 134.439 157.46 134.551 157.126C133.521 158.735 132.213 160.186 131.658 161.374C129.817 163.128 128.41 165.634 129.255 165.304C129.697 164.603 128.99 165.199 129.788 164.357C129.947 164.329 130.11 164.295 130.269 164.266C129.083 165.825 128.258 166.926 128.531 166C128.339 166.242 128.149 166.48 127.958 166.72C128.121 166.912 128.289 167.099 128.452 167.291C128.255 167.6 128.058 167.908 127.863 168.214C127.576 168.506 127.3 168.783 127.003 169.087C127.022 168.409 127.584 167.646 125.525 170.011C125.628 170.1 125.728 170.192 125.831 170.281C124.145 172.231 123.823 172.108 121.857 174.72C123.006 172.417 124.487 171.856 123.73 171.28C124.171 170.802 124.59 170.353 125.019 169.89C124.967 169.731 124.915 169.573 124.86 169.418C122.877 172.144 120.211 177.177 118.359 178.584C118.249 178.851 118.133 179.111 118.028 179.382C116.732 180.58 116.485 181.69 115.583 182.785C115.344 183.076 115.062 183.369 114.712 183.663C114.521 183.823 114.219 182.917 112.423 185.262C112.55 185.27 112.712 185.348 112.853 185.382C112.417 185.837 111.984 186.281 111.534 186.747C111.54 186.897 111.543 187.051 111.55 187.201C112.262 186.354 112.923 185.568 113.636 184.712C113.087 185.472 112.607 186.142 112.053 186.906C112.921 186.053 113.211 185.68 112.993 186.373C112.376 187.191 111.779 187.982 111.15 188.807C111.136 188.931 111.123 189.055 111.11 189.178C111.569 188.91 112.038 188.62 112.484 188.369C110.729 190.362 109.293 192.165 107.713 193.501C107.442 193.731 108.024 192.609 106.709 194.593C106.579 194.534 106.453 194.511 106.33 194.462C104.795 196.908 104.117 197.616 101.845 199.586C103.367 198.379 102.064 199.511 101.81 199.95C101.637 200.265 102.572 199.299 102.53 199.481C102.507 199.668 101.538 201.199 102.647 200.167C104.527 196.932 105.87 196.797 108.5 192.922C108.11 193.577 107.784 194.151 107.385 194.809C107.658 194.589 107.906 194.386 108.185 194.161C106.414 196.091 107.319 195.138 106.719 196.073C106.147 196.97 104.967 198.549 104.101 199.559C103.827 199.876 104.005 199.411 103.334 200.107C102.876 200.566 101.876 202.062 100.85 202.103C100.696 202.103 100.948 201.933 101.086 201.746C101.237 201.559 101.375 201.333 101.386 201.214C101.402 201.088 101.354 201.033 101.062 201.173C100.912 201.227 100.766 201.368 100.331 201.435C100.226 201.445 100.038 201.416 99.9197 201.293C99.7971 201.168 99.7654 201.035 99.7424 200.923C99.7015 200.689 99.7148 200.464 99.7309 200.216C99.8692 199.861 99.8688 200.142 99.8728 200.525C99.8809 200.713 99.8812 200.937 99.9963 201.111C100.133 201.297 100.322 201.239 100.322 201.238C100.451 201.117 100.12 201.161 100.148 200.887C100.129 200.59 100.239 200.082 100.295 199.568C100.345 199.123 100.375 198.657 100.356 198.321C100.35 198.231 100.053 199.055 100.087 198.126C100.18 195.908 100.614 194.678 101.144 193.316C100.809 193.106 100.679 191.197 101.186 188.939C101.101 188.805 101.015 188.676 100.929 188.541C100.926 188.908 100.923 189.267 100.921 189.627C100.791 190.009 100.677 190.411 100.54 190.772C100.827 188.459 100.377 188.057 100.366 186.928C100.317 183.064 101.301 185.56 101.423 186.274C101.255 186.735 101.073 187.213 100.899 187.675C101.035 187.642 101.171 187.608 101.307 187.579C102.192 181.928 102.273 186.853 102.957 184.018C102.439 183.187 102.694 181.066 103.444 178.426C103.479 178.131 103.515 177.834 103.548 177.535C103.46 177.473 103.317 177.457 103.265 177.368C103.543 174.11 104.583 173.635 104.715 173.331C105.281 171.996 104.793 170.862 104.823 170.46C104.95 168.76 105.252 168.282 105.256 166.636C105.252 164.881 104.968 166.063 104.821 165.521C104.705 165.091 104.76 163.693 104.636 163.128C104.748 163.36 104.855 163.616 104.966 163.845C105.232 162.054 105.463 160.564 105.569 158.502C104.725 156.136 106.285 154.203 105.02 154.985C104.908 156.921 104.733 158.035 104.386 159.047C104.384 157.788 104.372 156.484 104.346 155.22C104.489 154.848 104.626 154.583 104.771 154.136C104.488 153.199 104.611 150.957 104.513 150.105C104.047 146.038 103.556 147.3 104.297 143.578C104.472 146.242 104.888 146.251 104.874 148.895C105.163 148.31 105.077 146.976 105.447 147.837C105.31 145.266 105.004 146.084 104.695 145.107C104.428 144.265 104.346 142.501 104.031 142.621C104.199 142.439 104.363 142.296 104.531 142.114C104.461 140.454 104.376 138.793 104.273 137.121C104.501 137.826 104.726 138.524 104.945 139.218C104.987 138.683 105.028 138.143 105.067 137.599C104.998 137.246 104.938 136.869 104.886 136.474C104.729 135.425 104.703 134.282 104.266 133.08C104.146 132.784 103.979 132.459 103.672 132.196C103.366 131.923 102.904 131.81 102.542 131.849C101.832 131.927 101.333 132.265 100.944 132.523C99.366 133.692 98.7265 134.735 99.5446 134.828C98.2248 136.26 97.9622 136.329 97.0209 136.982C97.0338 137.141 97.0338 137.287 97.0557 137.456C96.1363 138.366 95.8505 139.407 95.0907 140.194C94.2887 141.04 93.8294 140.978 94.2632 141.53C93.66 141.996 93.0991 142.466 92.5186 142.935C92.3783 143.381 92.2295 143.838 92.1086 144.262C91.6518 144.741 91.1433 145.295 90.6963 145.767C90.7499 146.248 89.0743 148.322 88.5476 149.45C87.6292 150.126 86.6958 149.481 85.3481 151.739C85.6176 151.845 85.8856 151.953 86.1547 152.059C85.7625 152.515 85.363 152.983 84.9542 153.464C84.8666 153.444 84.7813 153.421 84.694 153.4C84.6847 153.398 84.6754 153.396 84.6661 153.393C84.6683 153.391 84.6705 153.388 84.6727 153.385C84.8772 153.143 85.0774 152.906 85.2791 152.669C84.9954 152.802 84.7138 152.933 84.4295 153.067C84.4143 153.105 84.399 153.144 84.3837 153.183C84.0712 154.015 83.7476 154.867 83.4123 155.741C84.0315 155.068 84.6388 154.412 85.2332 153.777C85.4909 153.497 85.7461 153.221 85.9987 152.949C85.8151 153.301 85.6252 153.619 85.4335 153.917C84.8911 154.767 84.333 155.441 83.8782 156.406C82.892 157.143 82.9501 156.659 82.8696 156.027C82.6532 156.403 82.4305 156.786 82.2094 157.17C82.025 156.687 81.3838 157.16 82.8872 155.06C82.6841 155.139 82.483 155.225 82.2775 155.299C82.0541 155.653 81.8171 155.814 81.5919 156.22C80.9797 157.325 81.0251 158.587 81.3009 158.652C81.4364 158.699 81.9438 157.498 82.0733 157.654C82.3918 158.029 80.584 160.281 83.3292 157.135C82.8137 158.416 82.4158 158.593 81.5129 159.755C81.7103 159.749 81.9047 159.745 82.099 159.743C81.649 160.271 81.193 160.809 80.732 161.354C80.6031 160.091 77.4279 164.177 79.471 159.928C78.6359 161.077 77.8683 162.13 77.0427 163.269C77.1344 162.984 77.2263 162.701 77.3169 162.419C77.7063 161.93 78.0896 161.449 78.4711 160.971C77.9374 161.476 77.3981 161.989 76.8536 162.509C76.0222 164.061 75.9106 164.752 75.7635 165.62C77.1171 164.108 76.4283 164.47 77.2611 163.123C77.421 163.298 77.6378 163.358 77.7606 163.609C76.903 164.015 75.7267 166.364 75.3906 166.904C74.4187 168.465 74.8356 167.004 74.1333 168.021C73.4255 169.046 72.8354 170.429 71.8775 170.998C72.1087 171.131 72.3827 171.218 72.6244 171.293C71.6155 172.948 71.5664 172.457 71.4205 172.6C69.079 174.87 68.583 176.625 66.5991 179.717C66.9267 179.379 67.2552 179.025 67.5821 178.678C66.5157 181.31 67.4171 179.644 68.9024 177.762C67.6069 179.597 67.3006 180.943 66.5474 182.342C65.7838 183.756 64.0836 185.862 63.3616 186.589C64.3544 184.512 65.8895 182.584 67.2101 180.444C66.8218 180.528 66.4727 180.628 66.0552 180.704C65.6899 182.3 64.8661 182.835 64.5213 183.211C63.512 184.313 63.9566 184.555 63.0071 185.002C63.1828 185.075 63.3284 185.139 63.4938 185.206C61.7276 187.721 59.6195 190.288 59.103 192.337C58.6225 192.237 58.1803 192.109 57.6759 192.027C57.24 193.303 56.3353 194.028 55.7966 194.985C55.2613 195.937 55.8005 195.796 55.2121 196.945C55.1036 197.157 54.6369 197.439 54.4589 198.02C54.2773 198.605 54.1608 201.132 53.0741 200.726C52.465 201.638 51.8581 202.483 51.25 203.37C51.7734 202.46 52.2993 201.551 52.821 200.646C52.1 201.239 51.3815 201.828 50.6583 202.421C50.8005 202.651 50.9464 202.884 51.0887 203.109C50.0129 205.283 48.7167 206.515 47.4579 208.598C47.2483 208.945 48.1852 208.417 47.0914 209.851C46.0015 211.28 44.4857 211.896 43.1019 214.646C43.0315 214.786 43.1271 215.94 42.1106 216.584C41.8794 216.731 42.319 215.762 41.8803 216.16C41.4418 216.558 39.9311 218.627 39.5234 218.604C39.643 218.649 39.8396 218.587 39.9887 218.592C39.7971 218.991 39.6038 219.393 39.4101 219.793C39.2031 219.706 38.9941 219.622 38.788 219.536C37.8366 221.906 37.8268 223.459 35.5413 226.427C36.3885 225.73 37.2418 225.022 38.0781 224.335C38.0452 223.971 38.0118 223.606 37.9776 223.245C39.0012 221.852 40.0138 220.472 41.0349 219.081C40.977 218.703 40.9175 218.331 40.8606 217.953C41.1387 217.591 41.4117 217.235 41.6895 216.873C41.7808 217.069 41.8708 217.265 41.9598 217.465C42.4158 216.689 42.8737 215.909 43.331 215.132C43.2288 217.259 40.453 219.343 41.3416 219.649C41.0006 219.911 40.6587 220.172 40.3172 220.432C40.5884 220.827 40.0391 221.433 39.1783 222.618C39.5443 222.46 39.93 222.266 40.2798 222.135C39.2405 223.159 37.9083 225.25 36.9978 226.422C36.6007 226.933 36.6812 226.216 36.5442 226.355C35.8345 227.072 35.3009 228.926 35.0401 229.243C33.5287 231.065 31.7824 231.735 30.9851 234.262C32.5752 232.162 31.729 233.315 32.5783 232.748C32.8498 232.562 34.9321 229.854 32.4932 233.372C32.2101 233.783 27.3406 239.828 28.2415 237.388C27.709 238.537 27.3406 239.491 26.886 240.547C24.0463 242.048 25.7948 242.04 26.9186 241.787C26.666 242.179 26.4315 242.552 26.1722 242.948C26.0198 241.644 23.1616 245.897 22.5636 247.591C22.3599 248.162 23.4916 246.934 22.8524 248.144C22.4475 248.652 21.9894 249.21 21.567 249.731C22.5577 249.207 21.6664 250.947 22.1411 251.23C21.049 252.004 19.6758 252.188 19.5669 251.325C19.21 252.283 18.8068 253.312 18.4585 254.262C18.8227 253.948 19.1932 253.623 19.565 253.296C19.2065 253.735 18.8656 254.206 18.543 254.68C16.8774 257.131 15.5236 259.889 14.3776 259.839C14.1405 260.212 13.9166 260.562 13.6655 260.956C13.7545 261.183 13.8471 261.405 13.9374 261.631C12.7047 263.175 11.4313 264.769 10.1748 266.326C11.0714 264.765 11.0727 264.249 12.2913 262.842C11.6929 263.323 11.1134 263.772 10.5135 264.25C9.46378 266.926 9.60115 267.484 7.05865 270.871C6.96542 271.002 4.67466 273.36 4.57872 273.39C4.08423 273.673 4.26355 272.832 4.0311 272.951C3.70642 273.114 2.83234 273.837 2.05132 274.375C1.88432 274.479 1.6233 274.658 1.66504 274.528C1.67866 274.507 1.6958 274.478 1.79595 274.401C1.84436 274.365 1.90877 274.321 2.00442 274.27C2.05648 274.244 2.38169 274.068 2.87331 274.067C3.13307 274.07 3.40684 274.101 3.7706 274.273C4.1388 274.449 4.4357 274.747 4.60075 275.008C4.76823 275.264 4.84543 275.525 4.87235 275.635C4.89913 275.741 4.9131 275.828 4.92208 275.902C4.95204 276.198 4.93212 276.279 4.93511 276.334C4.92864 276.533 4.96881 276.445 5.00613 276.425C5.1723 276.253 5.34214 276.03 5.36179 276.067C5.43368 276.155 5.48299 276.284 5.52419 276.423C5.54562 276.49 5.56414 276.562 5.5904 276.611C5.60373 276.635 5.61912 276.653 5.64155 276.644C5.66389 276.628 5.69499 276.62 5.74386 276.409C5.75344 276.332 5.83728 276.096 5.72569 275.48C5.68605 275.189 5.29726 273.972 4.0709 273.429C3.0361 272.981 2.27098 273.2 1.88161 273.324C1.64288 273.411 1.62537 273.426 1.5382 273.465C1.46547 273.5 1.40451 273.532 1.35179 273.562C1.2466 273.621 1.17347 273.669 1.11683 273.707C1.02651 273.766 0.995238 273.785 0.96035 273.805C0.850979 273.862 0.893306 273.776 0.913943 273.7C0.982357 273.522 1.09878 273.281 1.25008 272.992C1.83198 271.866 2.72657 270.342 3.6783 268.795C5.60157 265.67 7.83208 262.33 8.75391 260.899C10.6645 257.93 12.5865 254.958 14.5024 252.014C31.8536 225.338 49.7983 199.58 67.5583 173.16C67.7607 172.858 67.5162 172.885 67.5967 172.752C68.0993 171.931 68.8643 171.325 69.0805 171.029C69.5326 170.41 69.0729 170.608 69.3874 170.147C72.6333 165.402 75.8162 161.045 79.0808 156.292C79.2961 155.979 79.2451 156.413 79.5953 155.848C79.7774 155.552 80.1159 154.518 80.5538 153.888C81.1179 153.076 81.6492 152.341 82.1678 151.634C83.142 150.304 84.0728 149.069 85.1291 147.601C86.0393 146.335 87.4383 144.464 88.466 143.081C88.9441 142.436 89.2668 141.775 89.7537 141.126C90.4093 140.255 90.4948 140.612 90.6096 140.49C91.0983 139.98 90.9423 139.675 91.3687 139.14C92.1626 138.153 92.38 138.203 93.4118 136.904C94.1311 135.993 95.7921 133.783 96.9011 132.614C97.4876 132.093 98.12 131.527 98.9104 130.933C99.301 130.645 99.7282 130.338 100.353 130.013C100.948 129.745 101.75 129.248 103.345 129.445C104.127 129.557 104.954 129.999 105.461 130.507C105.955 130.989 106.221 131.457 106.414 131.855C106.769 132.622 106.883 133.196 106.987 133.71C107.177 134.738 107.233 135.549 107.296 136.325C107.341 136.915 107.383 137.478 107.422 138.006C107.557 139.883 107.285 140.088 107.318 140.861C107.428 143.557 107.829 145.649 107.867 148.199C107.913 151.61 107.655 154.628 107.536 157.922C107.516 158.457 107.764 158.341 107.751 158.862C107.705 160.817 107.619 163.29 107.468 165.025C107.3 166.939 106.9 167.633 106.808 169.522C106.78 170.079 107.067 170.254 107.017 171.186C106.934 172.677 106.494 174.265 106.344 175.285C106.137 176.697 106.589 175.498 106.311 177.393C106.299 177.472 106.049 177.732 106.006 178.138C105.88 179.308 106.062 179.24 105.801 180.958C105.776 181.131 105.232 183.39 105.195 183.613C104.986 184.956 104.474 187.618 104.381 188.409C104.052 191.239 104.737 189.082 103.658 191.347C103.642 192.428 103.632 193.479 103.609 194.602C103.578 193.852 102.889 196.772 102.88 196.986C102.752 198.696 103.13 197.738 102.841 199.828C102.84 199.838 102.838 199.848 102.837 199.859C102.836 199.848 102.835 199.838 102.835 199.827C102.72 198.647 102.631 198.955 102.561 199.799C102.534 200.109 102.509 200.529 102.534 200.554C102.536 200.543 102.554 200.512 102.506 200.279C102.483 200.179 102.429 199.973 102.274 199.708C102.127 199.441 101.75 199.014 101.273 198.794C100.173 198.342 99.7313 198.65 99.5656 198.666C99.357 198.739 99.3511 198.752 99.329 198.756C99.3329 198.733 99.5765 198.511 99.7613 198.312C99.934 198.129 100.118 197.93 100.227 197.817C104.221 193.482 107.897 188.914 111.795 184.001C112.429 183.193 113.049 182.36 113.772 181.391C114.542 180.354 115.402 179.194 116.119 178.271C116.439 177.859 116.301 178.251 116.586 177.887C116.871 177.522 116.439 177.841 116.77 177.425C118.786 174.907 120.588 173.002 122.113 170.46C122.241 170.374 122.269 170.401 122.459 170.24C123.692 168.141 126.893 164.614 127.99 163.26C129.745 161.093 129.992 160.444 131.253 158.851C132.894 156.783 135.612 153.822 134.039 154.868C135.121 153.413 136.185 152.005 137.341 150.578C137.47 150.418 137.509 150.624 137.561 150.56C137.893 150.159 137.885 149.94 138.093 149.656C138.658 148.884 137.85 150.222 138.631 149.116C139.042 148.533 139.188 148.143 140.392 146.553C147.62 137.012 155.51 126.673 162.96 116.922C163.474 116.25 163.032 116.614 163.682 115.776C165.932 112.875 170.087 107.786 171.998 105.243C173.897 102.718 173.33 103.162 174.471 101.557C174.69 101.247 174.582 101.555 174.792 101.284C176.231 99.4284 178.049 97.325 179.213 95.8547C179.985 94.8802 179.809 94.8547 180.33 94.1636C181.105 93.137 182.04 92.1841 182.47 91.6368C183.704 90.069 184.695 88.7271 185.684 87.4304C186.312 86.6093 186.943 85.7984 187.652 84.9336C187.554 85.0065 187.483 85.0472 187.397 85.1052C189.619 82.2852 191.844 79.4853 194.089 76.6947C193.962 76.8077 193.838 76.9168 193.709 77.0307C196.358 73.7597 196.284 74.3448 195.558 74.2225C195.728 73.9766 195.912 73.7082 196.085 73.4632C196.274 73.7541 198.055 71.9289 200.175 69.4809C200.321 69.312 201.109 67.8726 201.28 68.2415C201.475 67.8646 201.584 67.6378 201.743 67.324C202.276 66.8576 202.805 66.3929 203.32 65.9487C203.551 65.6475 203.783 65.3477 204.007 65.0566C203.988 64.9699 203.905 64.955 203.928 64.8208C205.031 63.494 207.39 60.8892 208.292 59.8605C210.508 57.3071 212.725 54.6516 214.729 52.9118C215.638 51.9782 214.616 52.8026 216.012 51.4628C216.216 51.3547 216.406 51.258 216.611 51.1534C217.44 50.0264 217.829 49.8066 219.01 48.8569C219.188 48.7141 219.37 48.5683 219.588 48.3912C220.748 47.4748 221.381 46.788 222.813 45.9925C223.206 45.7995 223.191 45.8978 223.497 45.7792C223.77 45.7103 224.193 45.4488 225.092 45.7044C226.06 46.0465 226.358 46.9683 226.463 47.4296C226.671 48.4551 226.585 49.1663 226.571 49.4948C226.485 50.5183 226.318 51.4791 226.141 52.3993C225.383 56.2898 224.586 59.8169 223.629 63.6462C223.502 64.1509 223.733 63.5127 223.602 64.0346C223.39 64.8709 223.405 64.3525 223.278 64.8413C222.922 66.2006 223.033 66.2417 222.546 68.1308C220.934 74.3814 218.717 81.4409 216.636 87.8264C216.573 88.0201 216.631 88.0322 216.56 88.2512C216.105 89.6638 215.565 91.0688 215.155 92.3506C214.595 94.1195 214.179 95.551 213.816 97.1287C213.778 97.2443 213.826 97.3769 213.77 97.141C213.741 97.0078 213.514 96.7518 213.311 96.7069C213.106 96.6546 213.078 96.692 213.083 96.6855C216.029 95.0129 219.126 91.7623 222.2 88.8148C224.785 86.2613 226.982 84.0106 229.751 81.1497C241.82 68.6141 253.793 55.5048 265.748 42.6567C266.048 42.333 265.942 42.4793 266.033 42.3796C266.897 41.4294 266.957 41.3237 267.313 41.0249C268.424 39.8022 268.758 39.3778 270.096 37.9332C270.815 37.1563 270.322 37.7825 271.519 36.4362C272.601 35.2198 271.374 36.5055 274.649 33.0006C274.737 32.9071 275.187 32.4679 275.866 31.7176C276.261 31.2813 276.154 31.3822 276.315 31.1945L276.325 31.1838C276.449 31.0521 276.728 30.7658 277.445 30.0494C281.465 26.0382 286.64 20.9921 291.422 16.4522C291.73 16.1546 294.628 13.4189 295.207 12.8825C296.32 11.8408 296.08 12.0486 297.533 10.7107C298.665 9.6687 299.601 8.82919 300.921 7.60875C301.076 7.46405 301.328 7.22823 302.316 6.30189ZM128.721 167.288C128.653 167.718 128.873 168.686 127.324 170.377C127.177 170.536 127.458 169.291 126.638 170.245C127.338 169.22 128.023 168.276 128.72 167.288C128.72 167.288 128.72 167.288 128.721 167.288ZM309.967 0.228019C308.535 1.12187 307.134 2.08604 305.845 3.17814C306.733 2.42473 307.674 1.72921 308.639 1.08355C309.077 0.790971 309.518 0.508167 309.967 0.228019ZM210.638 60.3827C210.64 60.3815 210.641 60.3803 210.642 60.3791C209.523 61.7508 208.415 63.1453 207.322 64.5434C207.411 64.3684 207.498 64.1943 207.585 64.0223C208.416 62.9255 209.297 61.7867 210.148 60.703C210.313 60.5946 210.477 60.4875 210.638 60.3827ZM220.024 50.0368C220.03 50.0316 220.037 50.0265 220.043 50.0215C220.903 49.3268 220.751 49.5697 221.272 49.2266C221.272 49.2265 221.272 49.2264 221.272 49.2263C221.405 49.1376 222.004 48.6657 222.234 48.4945C222.115 48.5231 221.98 48.5663 221.857 48.6009C222.346 48.1719 222.999 47.6739 223.635 47.3747C223.947 47.2267 224.27 47.1436 224.45 47.1807C224.623 47.2189 224.641 47.3033 224.682 47.4204C224.739 47.6803 224.679 47.7467 224.538 47.5417C224.502 47.501 224.455 47.4687 224.446 47.4843C224.436 47.5044 224.48 47.5134 224.375 47.5332C224.165 47.5738 223.628 47.8587 223.011 48.3324C223.053 48.2247 223.09 48.1219 223.131 48.0185C222.09 48.7365 221.032 49.6619 220.271 50.2784C219.163 51.1915 218.687 51.4652 220.024 50.0368ZM112.797 188.841C111.359 191.336 110.863 192.127 108.49 194.644C108.695 194.205 108.93 193.728 109.14 193.279C109.573 192.925 110.035 192.53 110.477 192.159C110.478 192.157 110.479 192.156 110.48 192.155C110.452 191.992 110.425 191.827 110.396 191.667C111.205 190.722 111.998 189.788 112.797 188.841ZM248.54 62.4172C249.221 61.9518 248.972 62.0615 247.482 63.7531C246.97 64.3359 247.505 63.8011 247.184 64.1606C245.433 66.1222 245.179 66.1988 245.531 65.7144C246.56 64.5883 247.539 63.5144 248.536 62.4208C248.537 62.4196 248.538 62.4184 248.54 62.4172ZM295.514 12.8617C295.515 12.8606 295.517 12.8595 295.518 12.8584C295.575 12.8183 294.814 13.5447 295.679 12.7367C295.03 13.3523 294.352 13.9981 293.704 14.6194C293.9 14.4302 294.084 14.2523 294.285 14.0591C294.103 14.2277 293.941 14.3768 293.765 14.5395C293.538 14.7752 293.32 14.9727 292.623 15.6363C292.828 15.4608 293.027 15.2894 293.225 15.1199C292.419 15.8899 291.62 16.6567 290.817 17.4308C290.804 17.4374 290.791 17.4443 290.778 17.4509C290.479 17.7498 290.197 18.0324 289.895 18.3356C289.809 18.412 289.723 18.4889 289.639 18.5632C289.29 18.9096 288.925 19.2734 288.565 19.633C288.444 19.7327 289.235 18.9473 287.834 20.329C288.261 19.8882 288.67 19.4676 289.105 19.0231C291.215 16.9652 293.367 14.8931 295.514 12.8617ZM234.606 77.5816C236.849 75.1694 236.244 75.8658 235.803 76.507C235.401 76.8694 235 77.2302 234.606 77.5816ZM169.693 112.088C169.288 112.962 168.878 113.842 168.452 114.74C167.385 116.362 165.938 117.678 166.689 116.429C167.589 114.934 168.853 113.569 169.693 112.088ZM143.461 147.403C144.955 145.576 143.849 147.522 143.663 148.044C143.069 148.411 142.535 149.166 141.64 150.319C142.443 149.209 143.217 147.699 143.46 147.403C143.46 147.403 143.46 147.403 143.461 147.403ZM192.867 81.9443C193.442 81.1967 193.999 80.4065 194.553 79.7918C194.53 80.086 193.373 81.3284 194.307 80.5253C193.942 81.001 193.564 81.4934 193.197 81.9729C193.347 81.6145 192.978 81.9657 192.869 81.9428C192.869 81.9433 192.868 81.9438 192.867 81.9443ZM212.692 95.5885C213.305 93.816 213.375 93.4681 213.848 91.6511C214.02 91.4258 213.498 93.6157 213.147 94.9684C212.998 95.1571 212.839 95.3901 212.692 95.5885ZM35.3753 231.116C35.2095 230.465 36.9495 227.684 37.9707 226.383C37.9241 226.587 37.8782 226.792 37.833 226.996C37.0113 228.372 36.1986 229.735 35.3753 231.116ZM141.211 150.865C141.363 150.674 141.506 150.492 141.64 150.319C141.497 150.516 141.354 150.702 141.211 150.865ZM104.582 167.675C104.862 168.475 105.154 166.176 104.803 168.97C104.804 168.97 104.804 168.97 104.804 168.97C104.563 170.82 104.501 171.237 104.306 172.941C103.94 172.286 104.117 168.795 103.564 173.576C103.557 173.639 103.825 173.543 103.71 174.298C103.675 174.521 103.383 175.281 103.191 176.403C103.128 176.777 102.733 179.552 103.177 175.758C102.868 175.836 102.59 175.599 102.301 175.575C102.381 174.077 103.081 173.004 103.21 171.447C103.398 169.114 102.873 167.88 103.695 167.496C103.757 169.475 103.445 172.83 102.929 173.23C102.732 175.11 103.046 175.705 103.4 174.198C103.791 167.623 104.184 172.461 104.321 166.674C104.216 166.597 104.114 166.35 104.008 166.379C104.509 164.656 104.486 167.387 104.582 167.675ZM102.29 181.28C102.225 180.117 102.146 178.971 102.057 177.824C102.423 177.864 102.68 178.538 102.648 180.33C102.528 180.649 102.408 180.969 102.29 181.28ZM75.2439 168.866C75.3561 169.139 75.2986 169.629 75.3141 170.026C74.9383 170.21 70.2202 176.895 72.3668 173.319C72.6884 172.786 75.0968 169.979 75.2439 168.866ZM221.608 91.0949C220.887 91.7496 220.168 92.3925 219.447 93.0223C220.505 91.9753 221.561 90.8962 222.563 89.8579C222.245 90.2704 221.949 90.6612 221.608 91.0949ZM160.076 124.524C160.325 124.2 159.669 125.404 160.608 124.096C159.988 125.134 159.406 126.093 158.801 127.104C158.516 127.329 158.23 127.558 157.945 127.783C157.829 128.038 157.71 128.298 157.596 128.553C157.584 128.34 157.564 128.143 157.557 127.921C158.973 126.514 158.977 125.954 160.076 124.524ZM195.252 77.5781C195.656 77.4434 194.001 79.768 195.763 77.594C195.566 78.0923 195.073 78.8477 194.088 80.1292C193.88 80.2984 193.671 80.469 193.461 80.641C193.566 80.7655 193.341 81.1491 192.867 81.9443C192.867 81.9449 192.866 81.9454 192.865 81.9459C191.36 83.9017 191.377 83.7959 190.813 84.0855C192.572 82.0655 192.395 81.8982 193.417 80.3622C194.094 79.3405 195.146 78.078 195.252 77.5781ZM80.1314 161.646C79.4347 163.415 80.7123 162.235 78.4609 164.756C78.4929 164.517 78.5285 164.275 78.5613 164.035C79.0917 163.225 79.6137 162.43 80.1314 161.646ZM201.632 70.8573C201.23 70.801 199.9 72.0094 200.164 72.5952C201.31 71.3536 200.556 71.7775 201.632 70.8573ZM143.319 146.293C145.319 143.662 145.389 144.489 144.799 145.75C144.592 145.858 144.385 145.965 144.182 146.069C143.873 146.561 143.565 147.052 143.257 147.541C143.277 147.125 143.297 146.709 143.319 146.293ZM220.543 70.5462C221.01 68.0534 219.745 73.1519 220.088 71.4136C220.36 70.0419 221.002 68.2878 220.941 68.9971C220.823 69.4662 220.687 69.9934 220.544 70.5415C220.544 70.543 220.544 70.5446 220.543 70.5462ZM223.85 56.329C223.555 56.6908 223.741 56.1264 223.367 58.0767C223.267 58.6426 222.194 63.0286 222.781 61.2185C223.141 59.6367 223.505 57.9811 223.85 56.329ZM120.862 177.178C120.713 177.068 122.47 174.086 122.838 173.765C122.838 173.765 122.838 173.765 122.837 173.765C123.784 172.965 121.583 175.941 122.851 174.887C120.477 177.478 120.451 178.845 119.76 177.993C120.98 176.312 120.562 177.223 120.862 177.178ZM10.4277 266.463C10.4268 266.465 10.4259 266.466 10.425 266.468C10.5759 266.271 12.0279 264.945 12.0356 265.225C10.6396 267.065 10.6155 266.542 9.82508 268.632C9.62329 268.637 9.44241 268.619 9.22749 268.641C9.60757 267.904 9.74358 267.349 10.4277 266.463ZM69.8582 175.933C70.2803 175.178 71.3757 174.059 71.9026 173.243C71.1064 176.403 68.1904 178.924 69.8582 175.933ZM272.99 35.496C272.989 35.4978 272.987 35.4996 272.985 35.5014C272.986 35.5008 272.986 35.5001 272.987 35.4995C272.988 35.4983 272.989 35.4972 272.99 35.496ZM103.86 142.82C103.918 142.706 103.97 142.645 104.017 142.621C104.021 142.621 104.025 142.621 104.03 142.621C103.974 142.682 103.917 142.744 103.86 142.82ZM116.518 182.974C115.435 183.954 118.021 179.901 119.071 178.684C119.097 178.845 119.172 178.924 119.122 179.213C118.105 180.043 116.69 182.821 116.518 182.974ZM182.63 94.7395C180.313 97.7731 182.745 93.3875 183.329 93.5731C183.328 93.5927 182.689 94.6602 182.63 94.7395ZM134.585 158.84C134.939 157.886 133.699 159.415 135.625 156.927C135.792 156.827 135.96 156.727 136.127 156.626C135.624 157.349 135.095 158.108 134.585 158.84ZM166.711 114.101C163.918 118.015 161.35 121.845 163.774 119.745C163.975 119.44 164.179 119.133 164.379 118.829C164.147 118.59 165.101 117.618 166.289 116.053C166.354 115.75 166.981 114.866 167.019 114.635C167.089 114.19 166.212 115.107 166.711 114.101ZM255.699 54.2817C255.659 54.3483 255.62 54.4136 255.579 54.48C255.073 55.0589 254.564 55.6416 254.063 56.2148C254.124 56.1037 254.185 55.9923 254.247 55.8811C254.727 55.3526 255.221 54.8087 255.696 54.2852C255.697 54.284 255.698 54.2829 255.699 54.2817ZM102.577 186.063C101.774 185.498 101.709 187.016 101.634 190.153C101.95 188.797 102.27 187.419 102.577 186.063ZM215.194 53.8798C215.353 53.8951 215.511 53.9123 215.672 53.9263C216.735 52.6634 216.416 52.792 215.749 53.2245C215.558 53.4471 215.378 53.6602 215.194 53.8798ZM224 58.2012C224.167 57.5419 224.006 57.8619 224.023 57.7929C224.431 56.1098 224.524 55.8846 224.874 53.7895C224.901 53.5308 224.925 53.2755 224.951 53.0154C224.529 53.9293 224.521 54.6577 223.964 56.6546C224.12 56.3011 224.273 55.9589 224.428 55.6089C224.18 56.729 223.923 57.8523 223.658 58.9767C223.653 59.1159 223.646 59.2551 223.641 59.3938C223.76 59.0013 223.887 58.5883 224 58.2012ZM261.66 47.8187C262.434 46.9755 263.167 46.1763 263.929 45.3443C263.941 45.3 263.952 45.2569 263.965 45.2127C263.189 46.0886 262.445 46.9313 261.66 47.8187ZM104.636 163.128C104.592 163.038 104.548 162.949 104.503 162.87C104.562 162.88 104.605 162.979 104.636 163.128ZM7.87131 268.302C7.05002 269.262 6.0923 270.823 5.26736 271.949C5.73634 272.166 7.65359 269.139 8.58706 268.293C8.63046 268.069 8.22607 267.884 7.87131 268.302ZM146.075 142.649C146.165 142.318 146.256 141.988 146.345 141.661C146.82 141.051 147.293 140.443 147.768 139.833C147.7 139.754 147.631 139.674 147.563 139.595C145.623 142.399 145.855 141.6 144.606 142.771C145.097 142.729 145.584 142.691 146.075 142.649ZM286.081 21.8307C284.319 23.5691 283.725 24.1828 284.732 23.2344C285.335 22.6277 285.962 21.9996 286.578 21.3855C286.409 21.537 286.239 21.6897 286.081 21.8307ZM93.0011 141.511C91.9015 143.245 91.3794 142.904 90.4478 144.75C91.2003 143.923 91.9209 143.15 92.6673 142.353C92.7778 142.072 92.8759 141.808 93.0011 141.511ZM110.591 186.908C109.934 187.462 109.546 189.272 107.556 190.786C107.323 191.362 107.258 191.716 107.065 192.236C106.727 192.347 106.367 192.48 106.048 192.567C106.047 192.568 106.046 192.569 106.045 192.571C104.691 194.321 105.789 193.368 105.918 193.535C105.966 193.613 104.82 194.773 105.289 194.499C106.094 194.039 108.044 191.337 108.343 191.574C107.544 192.374 106.163 194.233 106.795 193.867C107.469 193.493 108.465 191.5 109.483 190.592C107.798 191.725 110.443 188.708 111.1 188.62C112.28 186.533 110.819 188.169 109.325 190.076C109.984 188.667 108.746 190.54 108.309 190.602C109.131 189.297 112.468 185.298 110.591 186.908ZM178.752 98.0756C177.757 99.405 176.099 101.337 175.585 102.368C175.29 102.964 176.92 100.978 176.005 102.507C176.959 101.219 177.122 100.88 176.819 100.995C177.024 100.692 177.231 100.386 177.435 100.085C177.563 99.9722 177.694 99.8552 177.822 99.7423C177.881 99.5488 177.941 99.3552 177.998 99.1661C178.242 98.8691 178.496 98.5585 178.743 98.2588C178.743 98.2012 178.766 98.1208 178.752 98.0756ZM59.4213 190.316C59.6686 189.937 59.9155 189.558 60.1646 189.174C60.0667 189.169 59.9605 189.171 59.8565 189.171C59.7766 189.168 59.6967 189.165 59.6168 189.161C59.9683 189.075 61.5087 187.489 61.7962 186.59C61.9437 186.135 60.9734 186.757 61.9955 185.083C61.2228 186.281 60.5602 187.387 59.828 188.556C59.7816 188.377 59.7314 188.201 59.6852 188.023C59.6846 188.023 59.6839 188.024 59.6833 188.024C59.4039 188.387 59.1198 188.753 58.8396 189.117C59.0322 189.518 59.2275 189.915 59.4213 190.316ZM214.08 54.6747C213.079 55.8761 212.78 56.2912 213.398 55.8738C213.399 55.8727 213.4 55.8716 213.401 55.8705C213.744 55.3932 214.078 54.9323 214.437 54.4518C214.32 54.5238 214.202 54.5967 214.08 54.6747ZM106.098 149.736C104.688 146.427 105.587 153.887 106.039 152.47C106.064 152.399 105.951 150.051 106.098 149.736ZM142.709 146.594C143.245 145.866 143.785 145.134 144.327 144.397C144.103 144.492 143.876 144.591 143.652 144.686C143.336 145.322 143.021 145.959 142.709 146.594ZM278.422 29.3417C277.976 29.7558 277.205 30.5053 276.429 31.2859C275.951 31.8089 275.506 32.3077 275.2 32.6683C275.616 32.2208 276.034 31.7711 276.453 31.3195C276.472 31.3001 276.487 31.2855 276.502 31.2709C276.487 31.2857 276.473 31.3004 276.458 31.3152C275.659 32.1964 274.88 33.0572 274.092 33.9267C274.094 34.0128 274.992 32.9787 276.42 31.4356C276.438 31.4169 276.463 31.3903 276.494 31.357C276.9 30.9645 278.17 29.7607 278.621 29.2453C278.711 29.1405 277.163 30.6825 278.213 29.589C277.74 30.0589 277.347 30.4534 276.896 30.9044C276.855 30.9279 276.813 30.9511 276.768 30.9779C277.333 30.4179 277.852 29.9049 278.422 29.3417ZM172.98 105.692C171.607 107.469 171.536 107.779 171.436 108.293C172.053 107.434 172.666 106.582 173.275 105.736C173.176 105.723 173.08 105.705 172.98 105.692ZM264.705 44.1217C263.859 45.0311 264.252 44.6684 263.921 45.0414C262.677 46.4469 261.801 47.3535 260.55 48.7482C260.627 48.6511 260.697 48.5618 260.771 48.4681C260.77 48.4693 260.769 48.4705 260.768 48.4717C254.802 54.9013 258.011 51.5836 261.544 47.6994C261.641 47.6195 261.735 47.543 261.831 47.4627C263.381 45.7234 264.832 44.0977 264.705 44.1217ZM104.351 179.175C104.429 179.083 104.733 179.99 104.749 178.363C104.301 177.032 104.34 179.131 104.034 179.623C104.033 179.189 104.036 178.725 104.031 178.299C103.524 180.856 103.603 181.251 104.179 180.364C104.219 180.305 104.272 179.269 104.351 179.175ZM106.213 162.151C105.296 161.761 105.543 165.041 105.832 164.95C105.872 164.498 105.735 164.122 105.831 163.657C105.928 163.18 106.154 163.071 106.213 162.151ZM132.989 158.433C132.929 158.508 132.106 159.083 132.358 159.152C133.522 158.562 134.678 156.414 134.267 156.632C133.794 157.275 133.543 157.749 132.988 158.433C132.989 158.433 132.989 158.433 132.989 158.433ZM289.003 18.904C288.968 18.9348 287.225 20.6074 287.024 20.8189C286.851 21.0039 286.769 21.102 286.641 21.2458C287.563 20.3262 289.509 18.4551 289 18.9074C289.001 18.9063 289.002 18.9052 289.003 18.904Z" fill="#FFD700"/>
</svg>
