<svg width="319" height="116" viewBox="0 0 319 116" fill="none" xmlns="http://www.w3.org/2000/svg">
<path d="M276.022 17.9114C277.16 17.3782 273.413 19.268 275.924 18.0546C275.42 18.319 274.885 18.5995 274.368 18.8709C274.224 18.9158 274.077 18.9621 273.933 19.0064C274.625 18.6431 275.342 18.268 276.022 17.9112C276.022 17.9113 276.022 17.9113 276.022 17.9114ZM276.831 17.1555C276.221 17.5392 274.223 18.5761 276.425 17.5318C276.587 17.4223 276.755 17.3107 276.918 17.2014C277.687 16.8331 278.466 16.4583 279.245 16.0819C279.519 15.9334 279.78 15.791 280.049 15.6452C280.412 15.5037 280.773 15.3623 281.138 15.2178C280.826 15.3707 280.512 15.5251 280.202 15.6768C279.016 16.317 277.889 16.9034 276.25 17.7482C276.399 17.6832 276.548 17.6177 276.698 17.5522C275.855 17.9649 275.007 18.3786 274.15 18.7956C274.878 18.4049 275.69 17.9703 276.349 17.6171C275.266 18.0944 273.327 19.1185 272.358 19.6283C271.031 20.3258 271.309 20.1451 270.306 20.6706C270.145 20.7545 270.14 20.7891 269.822 20.951C268.235 21.7606 265.104 23.328 266.902 22.3392C269.529 21.0201 271.76 19.8336 274.352 18.5421C273.628 18.8305 275.009 18.1055 276.831 17.1555ZM228.344 41.4629C229.154 41.0134 230.813 40.2709 231.93 39.7918C231.931 39.7912 231.932 39.7906 231.934 39.79C232.181 39.6842 232.773 39.5004 231.974 39.8764C230.702 40.4742 229.947 40.6682 229.329 41.064C229.031 41.1831 228.676 41.3294 228.344 41.4629ZM225.486 42.7749C224.69 43.0906 224.983 42.837 226.004 42.4118C226.004 42.4117 226.004 42.4116 226.004 42.4116C226.435 42.2306 225.633 42.6923 227.13 41.9137C227.458 41.8401 227.785 41.7593 228.118 41.6783C227.747 41.8508 227.415 42.0056 227.041 42.1782C227.269 41.9484 226.289 42.455 225.486 42.7749ZM265.574 23.0501C265.476 23.1655 265.994 22.9035 266.907 22.4846C266.061 22.9122 265.224 23.3351 264.399 23.7513C264.789 23.5173 265.178 23.285 265.574 23.0501ZM285.279 13.1558C285.281 13.1552 285.282 13.1546 285.283 13.1541C285.568 13.0208 285.851 12.889 286.125 12.7611C286.298 12.6983 286.467 12.6368 286.638 12.5748C287.631 12.1204 288.622 11.6708 289.611 11.2262C289.508 11.3085 287.726 12.0863 286.744 12.5529C285.291 13.1873 284.573 13.484 284.467 13.4931C284.74 13.3798 285.007 13.2692 285.279 13.1558ZM129.607 71.1566C129.35 71.4294 129.099 71.699 128.845 71.97C129.27 71.7476 129.689 71.5166 130.127 71.293C131 70.2624 131.273 70.5034 132.667 69.5781C136.93 66.7448 135.467 66.9839 139.825 65.2095C136.683 67.1896 138.105 66.7582 136.401 68.2421C135.881 68.288 137.447 66.6272 136.127 67.344C134.072 68.9723 132.141 70.5069 129.798 72.2191C129.892 72.2101 129.985 72.2014 130.078 72.1923C130.446 71.9228 130.813 71.6534 131.186 71.3805C130.83 71.747 130.485 72.1051 130.13 72.4739C130.517 71.9123 129.25 72.9043 129.269 72.5333C129.277 72.3691 129.77 71.8307 130.056 71.4956C129.11 72.0209 128.143 72.5649 127.18 73.1005C127.598 72.7053 128.027 72.3034 128.445 71.9089C128.828 71.6604 129.211 71.4126 129.599 71.1602C129.602 71.159 129.604 71.1578 129.607 71.1566ZM25.8149 101.216C26.6069 99.9322 28.5548 98.3693 29.9553 98.0841C28.5837 99.1222 27.2221 100.153 25.8149 101.216ZM284.361 13.5093C284.505 13.452 284.645 13.3969 284.788 13.3403C284.381 13.5305 283.965 13.725 283.543 13.923L283.552 13.9186C283.344 14.0294 283.136 14.14 282.929 14.2503C282.802 14.2929 282.672 14.3367 282.541 14.3808C282.87 14.2142 283.2 14.0464 283.532 13.8782C283.807 13.7559 284.085 13.6317 284.361 13.5093ZM245.082 33.2503C245.53 33.0268 245.57 33.0087 246.138 32.7348C246.137 32.7351 246.136 32.7354 246.136 32.7357C246.372 32.6222 248.229 31.7286 248.036 31.8583C247.137 32.3054 246.117 32.8096 245.18 33.2724C245.143 33.2675 245.127 33.2518 245.082 33.2503ZM255.955 27.8616C255.957 27.861 255.958 27.8604 255.959 27.8598C256.297 27.6952 256.635 27.5351 256.972 27.3678C255.74 28.0336 255.497 28.0692 254.382 28.6515C253.284 29.2253 252.572 29.6331 251.567 30.0084C251.916 29.8157 252.292 29.6017 252.656 29.3991C254.302 28.6293 254.681 28.3924 255.971 27.7035C255.965 27.7564 255.961 27.8086 255.955 27.8616ZM149.23 59.5485C149.406 59.187 149.838 59.1493 149.873 59.1296C149.872 59.1302 149.872 59.1308 149.872 59.1313C152.323 57.3118 149.605 59.4413 152.026 57.9061C151.696 58.1819 151.374 58.4562 151.049 58.73C150.447 59.0028 149.815 59.2787 149.23 59.5485ZM233.153 7.62536C233.194 7.64863 233.241 7.66973 233.282 7.69311C231.732 8.41763 231.418 8.75341 230.086 9.27325C231.101 8.70603 232.121 8.15472 233.153 7.62494C233.153 7.62508 233.153 7.62522 233.153 7.62536ZM237.202 36.9389C238.948 36.0567 240.179 35.4446 241.858 34.6893C241.859 34.6887 241.861 34.6882 241.862 34.6876C241.957 34.6449 241.52 34.9016 241.647 34.8507C241.98 34.6817 242.325 34.503 242.667 34.3282C242.727 34.3331 242.785 34.339 242.845 34.3436C241.872 34.8115 240.915 35.269 239.922 35.7421C240.074 35.6889 240.23 35.6335 240.383 35.5794C239.543 35.9996 238.777 36.3838 237.922 36.8085C238.19 36.6191 238.468 36.4254 238.717 36.2455C238.233 36.4673 237.699 36.7125 237.202 36.9389ZM208.004 21.3099C208.291 21.1918 207.849 21.5584 208.277 21.3461C208.706 21.1324 209.389 20.6088 209.289 20.8313C208.766 21.1722 208.204 21.5414 207.654 21.9024C209.575 21.0138 211.219 19.7516 211.4 19.9974C209.661 20.9644 208.255 21.8698 206.686 22.9434C206.63 22.6853 208.141 21.507 206.999 21.937C207.325 21.7333 207.67 21.5164 208 21.3126C208.001 21.3117 208.002 21.3108 208.004 21.3099ZM310.083 2.62125C310.535 2.44743 311.222 2.17996 311.967 1.87259C313.051 1.43778 314.289 1.0059 315.149 0.797379C315.504 0.696109 316.708 0.46573 316.703 0.473483C316.667 0.476587 315.199 0.764082 316.773 0.464854C316.242 0.557082 315.73 0.664866 315.211 0.798113C315.304 0.776614 315.398 0.755524 315.488 0.736024C316.121 0.581779 316.762 0.461856 317.406 0.365646C317.437 0.361244 317.469 0.356868 317.501 0.352485C315.194 0.745244 316.553 0.506818 315.37 0.772014C316.455 0.499356 317.57 0.327595 318.677 0.203125C318.037 0.273891 317.286 0.380373 316.728 0.482818C316.654 0.491079 317.99 0.277755 318.22 0.25783C318.871 0.188042 317.535 0.299638 316.004 0.632368C314.465 0.94992 312.794 1.63338 312.545 1.7375C313.53 1.34288 314.583 0.97234 315.64 0.721627C315.338 0.795231 315.033 0.877788 314.735 0.96713C313.842 1.22833 312.934 1.57763 312.003 1.95796C310.479 2.60683 308.851 3.22893 307.182 3.87026C306.936 3.96609 306.704 4.05682 306.459 4.15259C306.533 4.13066 306.603 4.11033 306.677 4.08865C306.31 4.23236 305.937 4.37863 305.58 4.51945C306.644 4.08036 305.155 4.65789 303.359 5.34992C304.311 4.96313 305.485 4.51308 305.403 4.52838C302.117 5.81302 298.299 7.33604 295.138 8.68725C294.37 9.01626 294.378 9.0503 292.533 9.83369C292.593 9.80348 292.599 9.79229 292.638 9.76959C289.485 11.1366 287.546 12.0014 284.26 13.4232C284.458 13.3564 284.651 13.2915 284.845 13.2255C285.528 12.9133 286.245 12.5877 286.922 12.2815C287.413 12.0975 286.721 12.413 288.8 11.5029C290.507 10.7584 289.481 11.1934 289.944 10.9836C290.59 10.6921 291.115 10.4868 291.811 10.1753C292.337 9.94083 291.748 10.1706 293.128 9.58672C292.569 9.85163 292.047 10.1047 291.489 10.3751C291.146 10.5173 290.829 10.6481 290.489 10.7889C290.827 10.6341 291.139 10.4915 291.482 10.336C290.31 10.8555 289.185 11.3593 287.969 11.91C288.354 11.6943 287.078 12.271 286.406 12.5741C285.342 13.0531 286.247 12.619 285.543 12.936C284.967 13.1953 284.411 13.4685 283.52 13.872C283.317 13.9769 283.09 14.0921 282.844 14.2152C283.503 13.8563 282.584 14.2995 282.751 14.1919C282.851 14.1273 283.369 13.8585 283.488 13.7898C283.516 13.7748 283.52 13.7707 283.482 13.7851C283.426 13.8089 283.268 13.8838 282.958 14.0342C280.533 15.2761 283.204 14.0168 281.573 14.8573C279.624 15.8657 279.11 15.966 279.672 15.6497C280.115 15.401 281.697 14.6123 282.156 14.3577C279.292 15.7463 279.331 15.8191 278.84 16.0853C277.093 17.033 278.203 16.2886 276.148 17.386C276.173 17.3373 276.191 17.2954 276.216 17.2481C275.861 17.432 275.627 17.5574 275.199 17.7762C276.496 17.2008 275.464 17.7125 274.917 17.9868C274.058 18.4172 275.4 17.781 275.176 17.902C274.57 18.2306 273.601 18.7055 274.207 18.4344C273.935 18.5558 273.641 18.6877 273.363 18.8115C272.373 19.3247 270.143 20.6183 272.322 19.4856C272.138 19.6405 271.431 19.9678 270.852 20.2502C270.282 20.5275 270.309 20.5549 269.812 20.7982C267.844 21.7601 269.093 21.0563 269.382 20.8566C266.81 22.185 269.386 20.9189 265.635 22.8296C265.294 23.0513 267.04 22.2234 265.615 22.9705C265.308 23.0393 264.266 23.5014 262.163 24.5223C261.971 24.6393 261.78 24.7562 261.589 24.873C260.428 25.3688 261 24.9903 258.929 26.1323C259.98 25.4059 259.24 25.9064 257.352 26.7575C256.969 26.9295 257.821 26.4654 257.287 26.7072C257.045 26.8169 256.487 27.1253 255.876 27.4007C255.58 27.5347 254.2 28.1292 253.306 28.6079C254.019 28.364 252.318 29.2957 253.843 28.6306C251.027 30.0038 249.112 30.9966 252.173 29.3375C251.446 29.6627 250.726 29.9825 250.016 30.2962C249.528 30.5623 249.029 30.8338 248.541 31.1C248.429 31.0595 248.489 31.0043 246.559 31.9608C247.399 31.5292 248.212 31.1101 249.065 30.6716C249.087 30.6421 249.198 30.5679 249.162 30.567C248.128 31.1079 245.199 32.5462 244.505 32.9076C243.813 33.2696 245.174 32.6175 244.983 32.7359C243.391 33.7225 243.428 33.5472 242.223 34.167C241.514 34.5324 243.239 33.7214 242.859 33.9149C241.446 34.6354 240.748 34.8537 239.47 35.4651C239.946 35.3057 240.423 35.1449 240.898 34.9834C239.538 35.6386 238.097 36.3313 236.849 36.9507C236.371 37.1886 236.755 37.0576 236.678 37.0982C236.309 37.2938 234.698 38.0916 234.531 38.1705C233.271 38.7695 233.192 38.7305 231.944 39.3118C232.426 39.0795 232.895 38.853 233.376 38.6197C233.54 38.419 233.709 38.2162 233.876 38.0152C232.673 38.5701 231.441 39.1344 230.201 39.6944C231.154 39.2991 232 38.9486 232.944 38.5482C231.57 39.2914 230.201 40.0302 228.871 40.7457C228.093 41.039 227.349 41.3116 226.605 41.5798C224.585 42.4972 225.134 42.5229 224.07 42.7508C223.489 43.023 222.916 43.2893 222.317 43.5619C222.39 43.4969 222.462 43.4319 222.535 43.3664C221.833 43.6842 221.112 44.0037 220.411 44.3054C221.201 44.1133 221.991 43.9136 222.78 43.6948C221.391 44.3129 221.317 44.2314 221.093 44.2985C220.521 44.466 219.403 45.0001 218.964 45.098C218.795 45.1422 220.171 44.5431 219.66 44.6606C219.554 44.6871 217.609 45.1502 216.392 45.5476C216.429 45.5904 216.547 45.6223 216.617 45.6595C215.792 45.9185 215.088 45.9892 214.716 45.8843C214.477 45.8289 214.42 45.7266 214.415 45.667C214.419 45.6113 214.458 45.6084 214.477 45.6066C214.46 45.5977 214.442 45.5346 214.481 45.4167C214.506 45.3325 214.559 45.2214 214.641 45.0912C215.039 44.4543 215.479 43.8465 215.518 43.6875C215.791 43.3205 216.074 42.9476 216.36 42.5752C216.228 43.0854 217.395 41.53 217.331 41.3188C216.842 41.9323 216.327 42.5839 215.842 43.2118C216.045 42.5991 214.424 44.4364 217.716 40.5607C218.41 39.8685 216.636 41.9082 217.194 41.3397C218.084 40.29 218.851 39.2543 219.727 38.2813C220.827 37.0576 219.657 38.7107 221.899 35.646C216.455 41.995 222.45 34.6237 224.729 31.4277C225.656 30.7877 227.78 28.232 230.376 24.4778C230.017 24.7952 229.208 25.9917 228.69 26.6338C228.169 27.2807 228.652 26.5261 228.003 27.3222C227.349 28.1258 225.991 29.8272 225.3 30.6206C225.797 29.8838 228.284 26.3167 226.699 28.7152C228.065 27.0503 228.748 26.3096 230.332 24.1616C230.669 23.4128 230.553 23.4112 232.05 21.2874C231.355 22.6727 233.191 20.3595 233.014 21.0282C231.896 22.5046 232.31 21.5192 231.597 22.3282C231.523 22.4156 230.574 23.8365 230.332 24.1616C231.518 22.8724 231.926 22.4374 231.504 23.4437C232.206 22.4366 232.675 21.8323 232.642 21.673C232.832 21.495 233.024 21.3147 233.214 21.1377C233.448 20.8055 233.646 20.5181 233.892 20.171C233.405 20.5443 234.154 19.6796 234.542 18.9753C234.93 18.2693 234.2 19.0743 235.449 17.254C235.001 17.83 234.581 18.3735 234.147 18.9276C234.915 17.7375 235.683 16.5275 236.433 15.3231C235.784 16.0861 234.428 17.7751 234.336 17.6443C234.755 17.1352 235.924 15.2208 236.051 15.0176C236.563 14.22 236.357 14.7032 236.399 14.6451C237.265 13.4276 237.909 12.3774 238.339 11.9888C238.892 11.0137 239.381 10.3236 240.015 9.31708C240.149 9.10389 240.208 8.97895 240.242 8.8886C240.298 8.74143 240.289 8.68426 240.423 8.49415C241.138 7.46335 241.203 7.46535 241.382 7.19254C241.465 7.06109 241.581 6.85257 241.781 6.40252C241.874 6.18784 242 5.88794 242.114 5.52853C242.173 5.33993 242.227 5.14282 242.259 4.92905C242.293 4.72732 242.28 4.48026 242.227 4.42753C242.235 4.60164 242.004 5.17646 241.723 5.62022C241.803 5.38876 241.876 5.14127 241.911 4.93741C241.952 4.73082 241.935 4.52701 241.912 4.54323C241.909 4.55068 242.007 4.66784 242.031 4.66013C242.053 4.66061 241.974 4.62527 241.856 4.61647C241.868 4.44062 241.884 4.26459 241.9 4.08906C241.549 4.06444 241.154 4.12405 240.767 4.20055C241.387 4.04755 242.221 3.88356 242.485 4.2476C242.533 4.26674 242.579 4.29229 242.624 4.33584C242.542 3.88768 241.919 3.82755 241.428 3.86299C240.923 3.89681 240.407 4.00461 239.902 4.12442C239.9 4.1896 239.897 4.25557 239.897 4.32034C239.184 4.50401 238.691 4.65315 238.281 4.78038C237.422 5.05432 236.937 5.23673 235.59 5.91935C234.013 6.57312 232.862 7.41852 232.031 7.94851C231.701 8.06765 231.367 8.19022 231.026 8.31819C230.853 8.46538 230.673 8.61619 230.492 8.76908C230.053 8.90542 229.621 9.0403 229.181 9.18146C229.043 9.45104 228.949 9.55277 230.536 8.81356C230.099 9.26579 227.322 10.6172 226.187 11.1606C225.332 11.5634 226.164 10.8981 226.049 10.9358C225.668 11.0543 224.322 11.8709 224.019 12.0267C222.782 12.6549 221.925 13.1517 220.808 13.7421C220.595 13.8542 219.933 14.095 219.878 14.1223C219.47 14.3325 218.481 14.8367 218.361 14.9049C212.641 18.1521 218.974 15.0394 213.675 18.1248C213.872 18.0909 214.055 18.0649 214.246 18.0342C213.851 18.2759 213.438 18.5292 213.057 18.7642C212.527 19.0133 213.08 18.5503 212.124 19.2318C212.144 19.1152 212.163 18.9985 212.186 18.8805C211.772 19.1865 211.375 19.4831 210.965 19.7887C210.103 19.9433 207.535 21.4226 207.511 20.9989C207.515 20.8458 209.244 19.6483 208.225 20.106C207.435 20.552 208.039 20.3642 207.726 20.5634C205.481 21.9915 205.48 21.7425 204.591 22.3525C204.495 22.5198 204.392 22.694 204.293 22.8655C203.93 23.0561 203.562 23.2498 203.188 23.4475C203.138 23.5521 203.085 23.6592 203.035 23.7642C203.374 23.5599 203.751 23.3324 204.056 23.1498C203.744 23.6227 199.946 26.1138 201.313 25.0167C201.878 24.565 202.983 23.9256 202.142 24.1042C201.663 24.4234 201.145 24.7674 200.611 25.1221C200.05 25.4963 199.471 25.8822 198.908 26.2591C198.84 26.2265 198.774 26.1923 198.706 26.1596C197.247 27.1161 198.727 26.4958 198.798 26.6114C198.456 26.8291 198.126 27.0394 197.796 27.2503C197.623 27.2858 197.454 27.3147 197.274 27.3564C197.311 27.4494 197.252 27.7577 196.197 28.3188C195.521 28.6776 196.394 27.8329 195.202 28.6218C195.374 28.6982 195.918 28.5788 194.587 29.4775C194.364 29.4243 194.096 29.4155 193.899 29.336C192.288 30.5355 191.37 30.8107 189.497 32.2135C188.292 33.1128 186.813 34.5625 185.638 34.5251C184.699 35.0995 185.088 35.0486 184.835 35.2532C183.655 36.2128 182.518 36.5602 182.269 36.6961C180.69 37.556 180.049 38.0966 178.731 38.7536C178.866 38.8178 178.967 38.8957 179.087 38.9656C180.118 38.0829 180.715 37.7145 182.322 36.7402C181.804 37.0994 181.283 37.461 180.761 37.8238C180.903 37.8539 181.045 37.8845 181.183 37.9162C185.909 34.4327 185.085 35.6916 181.03 38.4557C180.571 38.5253 180.099 38.6036 179.64 38.6704C177.415 40.4343 176.153 40.9462 173.415 42.6243C173.092 42.8228 171.984 43.6668 171.483 43.995C171.492 43.9903 171.501 43.9856 171.51 43.9808C171.297 44.339 171.768 44.139 171.908 44.2467C171.647 44.4396 171.385 44.6332 171.124 44.8264C170.45 45.1094 170.607 44.883 169.428 45.6779C169.658 45.6818 169.886 45.6869 170.116 45.6905C168.81 46.5394 167.877 46.9755 166.693 47.8125C166.871 47.639 167.047 47.4672 167.225 47.294C164.506 48.8991 166.202 46.8943 164.403 48.5051C164.239 48.5306 164.078 48.5533 163.914 48.5787C164.731 48.0347 165.551 47.4897 166.366 46.9481C166.332 46.8581 166.299 46.7677 166.262 46.6799C165.392 47.2694 164.518 47.8639 163.649 48.4539C164.26 47.9868 164.876 47.5175 165.488 47.0509C164.436 47.6697 163.386 48.2863 162.334 48.9037C163.614 48.5027 162.225 49.4427 162.679 49.5663C160.708 50.4896 159.07 51.0732 156.39 53.0879C155.86 53.4872 156.3 53.5043 154.548 54.2635C155.148 54.355 153.27 55.7885 153.733 55.9483C154.272 55.5782 154.835 55.2 155.357 54.8361C154.678 55.1175 154.379 54.8744 155.245 54.1893C156.353 53.3147 158.205 52.4219 157.92 52.1309C158.401 51.8447 158.846 51.5729 159.311 51.2935C159.176 51.4967 159.045 51.6982 158.914 51.8997C160.129 50.9353 160.974 50.4537 161.732 50.258C160.213 51.3019 158.7 52.3438 157.183 53.3896C157.42 53.257 157.66 53.1225 157.897 52.9893C156.864 53.9603 158.203 53.3831 156.051 54.8427C156.001 54.7348 155.947 54.6287 155.897 54.5204C155.269 55.3011 153.099 56.707 153.989 56.5661C153.274 56.8964 153.097 56.9252 152.833 57.3335C150.949 58.2245 149.644 58.6403 150.031 57.8828C149.421 58.3578 148.812 58.8321 148.21 59.3028C148.646 59.162 149.081 59.0194 149.518 58.8765C148.392 59.5963 147.265 60.3166 146.14 61.036C145.841 60.8109 148.245 59.5495 147.421 59.7099C147.258 59.7403 146.722 60.2456 146.545 60.3179C144.662 61.0745 147.443 59.6133 146.791 59.6847C144.24 61.2167 145.983 59.5079 142.763 62.0691C142.616 62.0409 142.462 62.0152 142.323 61.983C141.13 62.739 141.355 62.8718 140.347 63.57C139.716 64.008 138.699 64.1677 138.136 64.8621C138.04 64.9864 139.504 64.648 136.982 66.2412C135.044 67.4648 135.639 66.6524 134.519 67.2159C133.406 67.7721 131.254 69.7529 130.244 69.7074C130.837 69.4211 131.552 69.0145 132.203 68.6736C132.393 68.4192 132.578 68.1697 132.767 67.9173C131.426 68.9437 129.905 69.7063 129.096 70.5417C127.017 71.3703 125.119 73.0297 125.944 73.07C126.516 72.6252 125.741 72.8734 126.661 72.4441C126.808 72.4816 126.959 72.5154 127.106 72.5524C125.66 73.4588 124.628 74.1176 125.12 73.4043C124.887 73.5426 124.658 73.6786 124.427 73.8151C124.518 74.048 124.615 74.2788 124.706 74.5119C124.452 74.7067 124.198 74.9008 123.948 75.0932C123.631 75.2309 123.283 75.3872 122.951 75.5335C123.16 74.9361 123.832 74.4988 121.423 75.7625C121.489 75.8815 121.551 76.002 121.617 76.121C119.586 77.2015 119.364 76.9504 116.954 78.4732C118.543 76.9171 120.022 76.9812 119.503 76.1832C119.999 75.9466 120.526 75.69 121.016 75.4552C121.012 75.2954 121.008 75.1357 121.001 74.978C119.185 76.1788 116.74 78.3024 114.777 79.5548C114.026 80.0336 113.378 80.3707 112.851 80.5001C112.679 80.6941 112.505 80.8785 112.338 81.0762C110.523 81.7495 110.198 82.9382 108.291 83.5189C108.089 83.578 108.025 82.694 105.848 84.0129C105.956 84.0708 106.074 84.2053 106.186 84.2923C105.684 84.5146 105.169 84.7388 104.663 84.9561C104.627 85.0891 104.588 85.224 104.555 85.3567C105.377 84.9234 106.21 84.4769 107.049 84.0208C106.379 84.4583 105.746 84.8708 105.062 85.3089C106.057 84.9107 106.41 84.7007 106.029 85.2212C105.26 85.6926 104.491 86.1603 103.749 86.6029C103.7 86.7064 103.649 86.8117 103.6 86.9151C104.092 86.859 104.528 86.8277 105.021 86.7685C102.912 87.8101 101.168 88.7906 99.3531 89.2082C99.037 89.2588 99.9468 88.6528 98.1036 89.61C98.0303 89.489 97.9466 89.3972 97.883 89.2828C97.6767 89.3875 97.4181 89.4364 97.3925 89.4332C97.3597 89.5095 97.3377 89.2222 97.4007 89.0565C97.5102 88.6815 97.6823 88.3466 97.8432 88.0307C98.3065 87.1365 98.8557 86.3753 99.7827 85.1225C98.6915 86.4715 99.6122 85.228 99.7068 84.7901C99.773 84.4839 99.1991 85.4927 99.1767 85.3302C99.1595 85.1568 99.5631 83.6569 98.8724 84.7407C98.4787 86.1635 98.0148 87.0033 97.4855 87.838C97.323 88.0961 97.1457 88.3481 96.9707 88.6597C96.8859 88.8185 96.793 88.9797 96.7366 89.2393C96.7168 89.3731 96.6744 89.5673 96.837 89.8276C96.9233 89.9538 97.0354 90.0316 97.1515 90.0798C97.2577 90.1226 97.3374 90.1364 97.4299 90.1451C98.4935 90.1166 99.2062 89.6603 100.202 89.0774C99.6707 89.4575 99.1515 89.8272 98.5395 90.1617C98.708 90.14 98.8619 90.1163 99.0128 90.0919C99.1717 90.0641 99.3283 90.0347 99.492 90.0029C98.3924 90.4116 97.9404 90.4624 97.7745 90.5092C97.6731 90.5331 97.6341 90.5575 97.5154 90.5849C97.462 90.5962 97.3572 90.6164 97.1619 90.5896C97.0749 90.5762 96.9192 90.5462 96.7283 90.4299C96.5523 90.3348 96.3039 90.0554 96.2262 89.7935C96.0819 89.285 96.1746 89.0695 96.211 88.8496C96.2574 88.649 96.3149 88.4825 96.3757 88.32C96.4944 88.0051 96.6261 87.7179 96.7481 87.4406C97.0493 86.7627 97.3989 86.0496 97.693 85.492C97.8628 85.1709 97.8338 85.598 98.2549 84.8993C98.5446 84.4174 99.0683 82.974 99.5312 82.8441C99.8326 82.762 99.0994 85.139 100.817 82.2688C101.322 81.841 100.444 83.1702 100.445 83.2209C100.511 83.5949 101.732 81.9374 102.062 81.0246C102.088 80.9496 101.527 81.4954 101.888 80.75C102.735 78.9963 103.501 78.1691 104.42 77.2443C104.177 76.9447 104.642 75.3276 105.783 73.6481C105.745 73.5058 105.703 73.367 105.664 73.2238C105.553 73.5242 105.444 73.8192 105.334 74.1158C105.1 74.383 104.873 74.673 104.638 74.9196C105.598 73.1161 105.304 72.6043 105.623 71.678C106.717 68.4705 106.898 70.885 106.794 71.5312C106.494 71.8642 106.194 72.1734 105.898 72.4892C106.032 72.5133 106.168 72.5372 106.301 72.5648C108.786 68.2324 107.404 72.3356 108.883 70.2319C108.646 69.3599 109.511 67.6954 111.002 65.8006C111.125 65.5666 111.251 65.3309 111.375 65.0926C111.312 65.0091 111.185 64.9398 111.164 64.8485C112.41 62.2722 113.524 62.2814 113.741 62.0793C114.679 61.1932 114.577 60.0965 114.738 59.7669C115.387 58.4344 115.835 58.1251 116.353 56.814C116.918 55.3768 116.273 56.2346 116.314 55.7329C116.355 55.3188 116.843 54.2389 116.923 53.7157C116.949 53.9487 116.964 54.2 116.99 54.4312C117.831 53.0562 118.528 51.9574 119.321 50.3254C119.336 48.0908 121.443 47.138 120.011 47.271C119.251 48.7752 118.707 49.6259 118.05 50.3034C118.466 49.2917 118.909 48.2078 119.311 47.1933C119.569 46.9518 119.785 46.7939 120.07 46.4942C120.149 45.5862 121.016 43.8909 121.242 43.1323C122.243 39.6973 121.343 40.5186 123.368 37.8187C122.558 40.0419 122.951 40.1806 121.994 42.3168C122.46 41.9729 122.864 40.846 122.894 41.6953C123.694 39.5504 123.105 40.1323 123.179 39.209C123.239 38.4195 123.8 36.9826 123.468 36.9525C123.688 36.8749 123.89 36.8272 124.11 36.749C124.648 35.3948 125.183 34.0313 125.705 32.6681C125.653 33.3191 125.601 33.9644 125.547 34.604C125.782 34.1965 126.018 33.7847 126.254 33.3698C126.355 32.9006 126.499 32.3958 126.669 31.8715C126.944 31.0106 127.292 30.1078 127.527 29.1671C127.635 28.6981 127.742 28.2041 127.659 27.6388C127.614 27.3527 127.487 27.0234 127.228 26.7862C126.967 26.5427 126.648 26.4541 126.414 26.4245C125.413 26.3574 124.883 26.6825 124.56 26.8966C124.245 27.1354 124.19 27.3767 124.514 27.5964C122.964 28.2664 122.705 28.2484 121.735 28.4231C121.697 28.5707 121.653 28.701 121.62 28.8615C120.577 29.2899 120.067 30.0812 119.15 30.5001C118.279 30.8949 117.817 30.707 118.065 31.3536C117.454 31.5014 116.773 31.7368 116.173 31.9015C115.939 32.2343 115.697 32.5722 115.452 32.9155C114.917 33.1639 114.379 33.417 113.814 33.6898C113.742 34.1284 111.704 35.3136 110.967 36.0852C109.93 36.3569 109.353 35.3774 107.534 36.8657C107.742 37.0646 107.949 37.2634 108.156 37.4624C107.696 37.7076 107.225 37.9606 106.743 38.2225C106.663 38.1652 106.588 38.1053 106.508 38.048C106.753 37.9136 106.992 37.7831 107.233 37.6532C106.95 37.6587 106.67 37.6633 106.386 37.669C106.275 37.8029 106.162 37.9375 106.049 38.0729C105.637 38.5816 105.215 39.1003 104.78 39.6292C105.379 39.3385 105.966 39.0563 106.541 38.783C106.964 38.577 107.38 38.3762 107.79 38.1805C107.427 38.5212 107.071 38.7936 106.722 39.0449C106.136 39.4681 105.571 39.8228 105.016 40.3939C103.928 40.677 104.117 40.2666 104.222 39.674C103.918 39.9302 103.634 40.1719 103.337 40.4242C103.307 39.9246 102.598 40.1059 104.497 38.8273C104.299 38.8173 104.1 38.8144 103.9 38.7991C103.595 39.0343 103.346 39.0822 103.043 39.3502C102.216 40.0815 101.932 41.2018 102.149 41.3728C102.265 41.4601 103.017 40.6083 103.092 40.7949C103.273 41.2484 101.1 42.5175 104.329 40.8297C103.539 41.7549 103.162 41.7417 102.038 42.4286C102.213 42.4998 102.385 42.572 102.556 42.6456C102.023 42.9335 101.482 43.2277 100.935 43.5266C101.161 42.3619 97.2623 44.7388 100.199 41.7852C99.1706 42.4642 98.197 43.1065 97.1784 43.7803C97.3337 43.5662 97.4886 43.3537 97.6422 43.1414C98.113 42.8635 98.5749 42.5915 99.0368 42.3193C98.4342 42.5552 97.8265 42.7957 97.2111 43.0404C96.0632 44.0864 95.7843 44.6488 95.4276 45.3532C97.015 44.5518 96.314 44.6019 97.4089 43.7369C97.5035 43.9532 97.6788 44.0894 97.7211 44.3573C96.8407 44.3946 95.2037 45.9888 94.7628 46.3344C93.4816 47.3389 94.2428 46.2105 93.355 46.8326C92.4664 47.4549 91.5703 48.4486 90.5805 48.5739C90.7491 48.7808 90.9678 48.9631 91.1611 49.1228C89.8378 50.1835 89.9233 49.7336 89.7571 49.8026C87.0878 50.8942 86.1912 52.2405 83.6245 54.1888C84.0069 54.0155 84.3867 53.8339 84.7669 53.6557C83.1333 55.5532 84.3682 54.4391 86.172 53.3634C84.5495 54.4699 83.9183 55.5373 82.888 56.4721C81.8439 57.4165 79.7847 58.6097 78.9575 58.9675C80.3785 57.5303 82.2455 56.4291 83.9712 55.0639C83.6068 54.9866 83.2724 54.9396 82.8841 54.8448C82.1418 56.104 81.2769 56.2524 80.8698 56.4519C79.6878 57.0294 80.0176 57.4133 79.0619 57.4377C79.1978 57.5698 79.3093 57.6829 79.4378 57.8051C77.2139 59.3317 74.6774 60.7682 73.6826 62.3659C73.2845 62.0927 72.9276 61.8095 72.5039 61.5423C71.7836 62.493 70.7918 62.7812 70.0649 63.4116C69.3415 64.0403 69.855 64.125 69.0327 64.9052C68.8802 65.0498 68.3944 65.1163 68.0841 65.5573C67.7698 66.0003 67.002 68.1721 66.1485 67.3961C65.3701 67.9616 64.6118 68.4678 63.841 69.0108C64.543 68.4148 65.2468 67.8207 65.9459 67.2284C65.1528 67.4704 64.363 67.7095 63.568 67.95C63.633 68.207 63.7006 68.4678 63.7671 68.72C62.2448 70.211 60.7743 70.7917 59.1145 72.1315C58.8378 72.3555 59.8049 72.254 58.4608 73.0891C57.1211 73.9222 55.6194 73.8772 53.6739 75.7535C53.5749 75.849 53.3554 76.8981 52.2872 77.0712C52.044 77.1108 52.6879 76.4305 52.1953 76.6102C51.7023 76.79 49.8244 78.0203 49.4696 77.8425C49.5633 77.9288 49.7535 77.9498 49.884 78.0117C49.6096 78.2876 49.3328 78.5656 49.056 78.8423C48.896 78.6862 48.7334 78.5315 48.5739 78.3762C47.112 80.0857 46.6897 81.4475 43.8913 83.1657C44.8252 82.88 45.7622 82.5915 46.6837 82.3107C46.7504 81.9789 46.8172 81.6456 46.8818 81.3162C48.1549 80.4881 49.41 79.6718 50.6802 78.8445C50.7281 78.4914 50.7744 78.1409 50.8224 77.7888C51.1619 77.5799 51.4982 77.3719 51.8388 77.1621C51.8679 77.3691 51.8958 77.576 51.9218 77.7856C52.5293 77.2808 53.1396 76.7732 53.7484 76.2682C53.0972 78.0951 50.0974 78.8491 50.8015 79.4615C50.4311 79.5598 50.06 79.6569 49.6896 79.7531C49.826 80.2035 49.1784 80.5249 48.1085 81.2299C48.4744 81.2319 48.8642 81.2119 49.208 81.2322C48.0234 81.7267 46.2898 83.0498 45.1804 83.7236C44.6948 84.018 44.9549 83.4201 44.7971 83.4895C43.9812 83.8442 43.0183 85.2664 42.7082 85.4408C40.8904 86.4565 39.1748 86.3667 37.8019 88.2774C39.7618 87.0482 38.7093 87.7339 39.6101 87.5636C39.9013 87.5039 42.4478 85.938 39.3703 88.0781C39.0101 88.3309 33.1153 91.7515 34.5541 89.9593C33.7865 90.7573 33.2044 91.4559 32.5251 92.2057C29.6247 92.422 31.1682 93.0931 32.2301 93.3039C31.9032 93.5506 31.5972 93.7877 31.2634 94.0353C31.472 92.8328 27.8235 95.4611 26.8535 96.7124C26.5224 97.1353 27.848 96.4933 26.9629 97.3093C26.4711 97.5991 25.9153 97.9141 25.4089 98.2052C26.4162 98.1326 25.1807 99.3074 25.5225 99.7411C24.3518 99.9995 23.0884 99.6321 23.2204 98.8317C22.6619 99.5276 22.0255 100.282 21.4677 100.98C21.8728 100.845 22.2867 100.702 22.702 100.559C22.2412 100.822 21.7886 101.124 21.3539 101.436C19.2659 102.935 17.387 104.773 16.3962 104.296C16.0848 104.535 15.8049 104.748 15.4756 104.999C15.4941 105.233 15.5169 105.464 15.5369 105.697C14.0467 106.573 12.4937 107.487 10.9785 108.365C12.1786 107.343 12.313 106.893 13.7651 106.124C13.1055 106.319 12.4844 106.482 11.8243 106.674C10.1937 108.617 10.1668 109.16 7.03268 111.154C6.91177 111.236 4.27801 112.42 4.18596 112.409C3.67666 112.467 4.05695 111.796 3.8213 111.81C3.49531 111.826 2.52774 112.129 1.73234 112.281C1.65028 112.289 1.54239 112.31 1.49044 112.299C1.45645 112.298 1.43699 112.289 1.43903 112.271C1.44009 112.261 1.4542 112.246 1.48502 112.227C1.52582 112.206 1.52957 112.189 1.70884 112.143C1.7919 112.124 1.90231 112.103 2.06532 112.1C2.11128 112.096 2.75708 112.081 3.32127 112.542C3.9373 113.029 4.09566 113.769 4.08398 114.136C4.08448 114.328 4.05455 114.491 4.03724 114.572C4.02274 114.642 4.00734 114.7 3.99277 114.749C3.86246 115.13 3.86371 115.087 3.85411 115.143C3.85426 115.193 3.90528 115.169 3.95486 115.15C4.1651 115.057 4.37538 114.937 4.38432 114.975C4.42534 115.077 4.43536 115.205 4.43237 115.341C4.43288 115.406 4.42684 115.478 4.43293 115.534C4.4401 115.587 4.44149 115.656 4.53655 115.582C4.56429 115.556 4.60159 115.516 4.65463 115.437C4.71178 115.334 4.82567 115.203 4.95017 114.685C5.01806 114.314 5.15443 113.523 4.55971 112.53C3.91157 111.451 2.66271 111.135 2.23188 111.134C1.63755 111.098 1.36343 111.2 1.25609 111.216C1.04681 111.262 0.99122 111.277 0.968621 111.268C0.942169 111.262 0.949432 111.241 0.959975 111.217C1.02777 111.108 1.1857 110.946 1.38817 110.755C2.17052 110.004 3.35968 109.009 4.60281 108.02C7.11637 106.02 9.96457 103.95 11.1531 103.052C13.5966 101.203 16.0441 99.3621 18.4867 97.5381C40.8601 80.8225 63.5339 65.1535 86.2 48.8016C86.4579 48.6151 86.2352 48.5441 86.3409 48.4591C86.9969 47.9353 87.8414 47.6921 88.107 47.5178C88.6682 47.1494 88.2108 47.1458 88.6091 46.8631C92.7284 43.9482 96.6656 41.3649 100.82 38.4354C101.091 38.2447 100.932 38.6055 101.387 38.2464C101.629 38.0545 102.176 37.2937 102.756 36.8895C103.347 36.4785 103.902 36.1057 104.441 35.7512C105.761 34.8809 107.019 34.0882 108.439 33.1383C109.607 32.3558 111.289 31.282 112.596 30.4392C113.157 30.0771 113.682 29.5776 114.25 29.2168C115.035 28.7197 115.036 29.0538 115.17 28.9912C115.771 28.71 115.68 28.4026 116.194 28.0999C117.214 27.5055 117.352 27.6573 118.609 26.9185C119.528 26.3776 121.576 25.0788 123.041 24.48C123.763 24.2698 124.418 24.0166 125.716 23.9191C126.314 23.9167 127.435 23.8146 128.74 24.8406C130.043 25.9669 130.122 27.321 130.139 27.9776C129.981 30.5245 129.357 31.4515 128.951 32.7424C128.703 33.4193 128.469 34.0611 128.254 34.6505C127.69 36.1884 127.365 36.2505 127.114 36.8768C126.231 39.0721 125.861 40.8712 124.982 42.9562C123.826 45.6928 122.548 48.0121 121.326 50.6286C121.129 51.0505 121.395 51.0542 121.209 51.4687C120.511 53.0262 119.609 55.0142 118.919 56.3412C118.13 57.8625 117.554 58.2438 116.867 59.7571C116.667 60.1963 116.878 60.4472 116.534 61.1982C115.996 62.3747 115.09 63.5259 114.646 64.2945C114.022 65.3762 114.8 64.5718 113.971 66.0168C113.936 66.0766 113.631 66.1874 113.464 66.5146C112.979 67.4584 113.195 67.4207 112.423 68.7684C112.351 68.8957 111.172 70.5649 111.071 70.7362C110.483 71.7622 109.21 73.7962 108.892 74.4093C107.735 76.6437 109.023 75.1016 107.336 76.5856C106.996 77.4702 106.66 78.3432 106.273 79.2789C106.491 78.6388 104.901 80.8118 104.817 80.9727C104.094 82.3575 104.801 81.706 103.738 83.3472C104.579 80.8428 102.337 85.4651 101.791 86.4301C101.226 87.4088 100.684 88.3547 100.172 89.2856C100.036 89.5333 99.9128 89.7516 99.8398 89.8942C99.8051 89.9605 99.7814 90.0161 99.7916 89.9856C99.7961 89.9698 99.8117 89.9286 99.8342 89.8233C99.851 89.7152 99.9049 89.5482 99.8579 89.1098C99.826 88.8801 99.7741 88.6276 99.5939 88.2782C99.4284 87.9504 99.1146 87.6048 98.8494 87.4213C98.2355 87.0046 97.8826 87.006 97.654 86.9762C97.2728 86.9604 97.2502 87.0017 97.238 86.9992C97.2441 87.0039 97.4229 86.9531 97.5975 86.8872C98.3474 86.6053 99.2675 86.1524 100.157 85.698C101.971 84.7634 103.768 83.7552 105.662 82.6464C107.249 81.7163 109.31 80.3466 110.982 79.3385C111.374 79.1015 111.145 79.3927 111.495 79.184C111.846 78.973 111.379 79.0851 111.786 78.8475C112.426 78.4752 113.048 78.1307 113.675 77.7821C115.303 76.883 116.835 76.0297 118.318 74.8218C118.452 74.7966 118.469 74.8314 118.676 74.766C120.341 73.3836 124.051 71.5459 125.386 70.7709C127.502 69.5441 127.886 69.0703 129.422 68.1525C131.403 66.9723 134.574 65.4164 132.917 65.7271C134.264 64.8578 135.552 64.0416 136.956 63.2242C137.112 63.1332 137.091 63.3303 137.154 63.2943C137.556 63.0667 137.601 62.8745 137.857 62.7058C138.549 62.2492 137.493 63.1109 138.469 62.4405C138.983 62.0871 139.228 61.7903 140.696 60.862C149.562 55.2555 159.22 49.1932 168.337 43.4707C168.962 43.0779 168.481 43.2269 169.268 42.7412C172.012 41.0504 177.009 38.1611 179.345 36.6625C181.685 35.1619 181.049 35.3491 182.491 34.3605C182.768 34.1704 182.589 34.4019 182.848 34.2423C184.574 33.1766 186.724 32.0203 188.153 31.1576C189.091 30.5923 188.933 30.5086 189.566 30.1028C190.528 29.488 191.601 29.0051 192.109 28.6958C194.548 27.2107 196.128 26.0949 198.431 24.7565C198.325 24.7834 198.25 24.794 198.158 24.813C198.712 24.4751 199.259 24.1421 199.799 23.8144C201.957 22.5034 204.066 21.2318 206.214 19.9497C206.075 20.0002 205.939 20.0483 205.798 20.0991C208.979 18.2155 208.753 18.7092 208.15 18.3218C208.365 18.1682 208.608 17.9944 208.818 17.8463C208.904 18.179 210.938 17.2474 213.433 15.8856C213.608 15.7894 214.666 14.8171 214.721 15.2091C214.992 14.9481 215.148 14.7872 215.371 14.568C215.934 14.3713 216.544 14.1458 217.107 13.9493C217.37 13.7798 217.659 13.5967 217.934 13.4213C217.941 13.3364 217.872 13.2914 217.929 13.1799C219.224 12.4289 221.981 10.9931 223.016 10.4249C225.616 8.98124 228.217 7.4364 230.391 6.60439C231.412 6.09602 230.326 6.46444 231.862 5.7665C232.068 5.74235 232.259 5.72276 232.465 5.70158C233.605 4.88051 233.934 4.91356 235.727 4.26341C236.54 3.97553 237.159 3.72907 237.826 3.48551C238.162 3.36381 238.498 3.2464 238.895 3.12645C239.195 3.03702 239.181 3.12588 239.389 3.0616C239.747 2.95621 240.394 2.72612 241.188 2.59434C241.587 2.53602 242.026 2.48457 242.568 2.61428C243.12 2.71263 243.723 3.28164 243.845 3.61219C244.334 4.93067 243.91 5.4302 243.776 5.98684C243.582 6.51692 243.361 6.96542 243.131 7.40426C242.678 8.26035 242.187 9.05125 241.696 9.81245C240.423 11.7794 239.152 13.6756 237.779 15.6629C237.519 16.039 237.913 15.5898 237.644 15.9785C237.211 16.6015 237.372 16.172 237.12 16.53C236.404 17.5451 236.507 17.6011 235.52 19.0206C232.296 23.6527 228.34 28.8139 224.697 33.4422C224.583 33.5882 224.636 33.6153 224.513 33.7732C223.712 34.7962 222.826 35.7882 222.089 36.7128C220.865 38.2501 220 39.446 218.79 40.9503C217.535 42.5222 216.303 44.0057 215.247 45.4982C215.195 45.5717 215.164 45.6271 215.152 45.6516C215.135 45.6751 215.161 45.6801 215.154 45.5157C215.149 45.447 215.113 45.3069 215.03 45.2001C214.953 45.0937 214.842 45.0323 214.812 45.0212C214.733 44.9893 214.745 45.0068 214.797 45.0085C214.998 45.0253 215.434 44.9539 215.812 44.8634C216.633 44.6658 217.404 44.4103 218.267 44.1055C221.193 43.0476 223.784 41.9213 226.945 40.5345C240.861 34.3105 254.787 27.3444 268.626 20.657C268.977 20.4867 268.844 20.5755 268.951 20.5223C269.965 20.0151 270.047 19.9442 270.438 19.8175C271.748 19.1617 272.105 18.9397 273.684 18.1697C274.523 17.7601 273.931 18.12 275.331 17.3965C276.588 16.7474 275.148 17.4202 278.981 15.5743C279.088 15.5226 279.584 15.3162 280.365 14.9221C281.152 14.5259 280.221 14.9574 282.13 14.012C282.513 13.8227 282.905 13.6287 283.307 13.4305L283.322 13.4234C287.692 11.5334 292.991 9.31056 297.914 7.32873C298.248 7.18983 301.493 5.89593 302.142 5.64626C303.386 5.15875 303.124 5.24773 304.749 4.6293C306 4.15506 307.043 3.77683 308.519 3.22107C308.686 3.15748 308.98 3.04274 310.083 2.62125ZM124.94 74.6153C124.768 74.9668 124.7 75.9085 122.887 76.7958C122.718 76.8779 123.291 75.893 122.327 76.4088C123.196 75.7898 124.08 75.2053 124.94 74.6146C124.94 74.6148 124.94 74.615 124.94 74.6153ZM318.3 0.249638C316.831 0.436003 315.368 0.730763 313.969 1.21759C314.934 0.882694 315.929 0.631641 316.931 0.455405C317.387 0.375561 317.841 0.308661 318.3 0.249638ZM224.921 11.7846C224.922 11.784 224.923 11.7833 224.924 11.7826C223.582 12.5936 222.281 13.4003 220.959 14.2323C221.077 14.1126 221.195 13.9934 221.311 13.8754C222.359 13.193 223.372 12.5402 224.418 11.8812C224.587 11.8482 224.755 11.8159 224.921 11.7846ZM235.686 5.92491C236.62 5.595 236.429 5.76269 236.957 5.64008C236.957 5.63994 236.957 5.6398 236.957 5.63966C237.101 5.60481 237.731 5.38568 237.97 5.30346C237.865 5.28803 237.734 5.28285 237.62 5.27194C237.841 5.17606 238.097 5.07648 238.353 4.9844C240.61 4.17975 243.472 3.82902 238.697 5.39877C238.758 5.31005 238.815 5.22349 238.875 5.13599C238.74 5.18353 238.601 5.23287 238.458 5.28363C235.874 6.20243 233.289 7.25355 235.686 5.92491ZM105.148 87.316C103.155 88.9142 102.577 89.4416 99.5546 90.5672C99.928 90.2767 100.293 89.9705 100.623 89.6754C101.145 89.5428 101.644 89.4094 102.14 89.2729C102.141 89.2722 102.142 89.2715 102.143 89.2708C102.173 89.1151 102.204 88.9583 102.232 88.8032C103.204 88.3273 104.207 87.8092 105.148 87.316ZM248.336 31.421C249.045 31.2805 248.8 31.2797 247.068 32.183C246.452 32.5036 247.075 32.2339 246.688 32.4312C244.607 33.4938 244.411 33.4398 244.832 33.1565C245.993 32.5829 247.202 31.984 248.332 31.4229C248.333 31.4223 248.334 31.4216 248.336 31.421ZM302.413 5.74898C302.414 5.74845 302.416 5.74792 302.417 5.74738C302.478 5.73395 301.603 6.08837 302.592 5.70175C301.843 6.00189 301.12 6.29461 300.365 6.6026C300.583 6.51232 300.811 6.41838 301.026 6.33014C300.834 6.40393 300.638 6.47924 300.44 6.55579C300.189 6.67253 299.936 6.76701 299.163 7.0795C299.378 7.00738 299.599 6.93278 299.821 6.85701C298.919 7.2238 298.015 7.59433 297.115 7.96646C297.102 7.96711 297.089 7.96786 297.077 7.96851C296.747 8.11222 296.391 8.2679 296.07 8.40982C295.977 8.44318 295.887 8.47537 295.793 8.50913C295.385 8.68601 294.976 8.86387 294.574 9.0396C294.444 9.08047 295.345 8.6898 293.746 9.37476C294.225 9.15428 294.719 8.92942 295.196 8.71364C297.605 7.6997 299.995 6.71509 302.413 5.74898ZM232.11 39.3405C234.734 38.0929 233.969 38.4898 233.448 38.8644C233 39.0254 232.548 39.187 232.11 39.3405ZM175.513 41.8152C174.923 42.4323 174.322 43.0571 173.718 43.6803C172.361 44.6935 170.73 45.3037 171.725 44.4875C172.924 43.5078 174.369 42.8078 175.513 41.8152ZM143.151 62.8111C144.953 61.7749 143.459 63.0675 143.156 63.4568C142.536 63.5501 141.882 63.9999 140.781 64.6759C141.792 64.0012 142.851 62.9823 143.15 62.8105C143.15 62.8107 143.15 62.8109 143.151 62.8111ZM203.769 24.1299C204.486 23.679 205.137 23.2196 205.808 22.8742C205.685 23.1417 204.38 23.7754 205.392 23.4337C204.951 23.712 204.504 23.9949 204.054 24.2802C204.288 24.0153 203.862 24.1908 203.771 24.1292C203.771 24.1294 203.77 24.1297 203.769 24.1299ZM218.901 38.4485C219.992 37.2439 220.156 36.959 221.094 35.6216C221.309 35.5035 220.235 37.1395 219.5 38.1259C219.299 38.2337 219.108 38.3304 218.901 38.4485ZM42.5111 87.213C42.537 86.5777 44.804 84.8125 46.0508 84.0649C45.9559 84.2258 45.8613 84.3879 45.7675 84.5496C44.6774 85.44 43.6041 86.3188 42.5111 87.213ZM140.258 64.9918C140.442 64.8822 140.617 64.7767 140.781 64.6759C140.603 64.7947 140.427 64.9028 140.258 64.9918ZM115.403 57.3918C115.401 58.162 116.415 56.3726 115.189 58.5447C115.189 58.5448 115.189 58.545 115.19 58.5451C114.391 59.9446 114.19 60.288 113.483 61.604C113.348 60.9281 114.6 58.1346 112.599 61.8467C112.574 61.8955 112.851 61.9175 112.51 62.4974C112.406 62.6737 111.912 63.168 111.383 64.0372C111.214 64.3132 110.008 66.4442 111.57 63.4951C111.259 63.4444 111.076 63.1431 110.816 63.015C111.343 61.8239 112.333 61.1849 112.936 59.9645C113.85 58.1069 113.75 56.9239 114.641 56.9054C114.051 58.565 112.723 61.1807 112.12 61.3219C111.349 62.8055 111.472 63.3877 112.255 62.2977C114.666 57.0505 113.511 61.1556 115.478 56.4847C115.405 56.383 115.389 56.1446 115.282 56.1277C116.305 54.9071 115.401 57.1277 115.403 57.3918ZM109.08 67.7204C109.362 66.7432 109.636 65.7618 109.903 64.7786C110.226 64.9568 110.269 65.5891 109.693 67.0731C109.488 67.2899 109.282 67.508 109.08 67.7204ZM94.1117 48.0044C94.1389 48.2877 93.96 48.6945 93.8694 49.0493C93.4823 49.0706 87.5603 53.1139 90.4025 50.8002C90.8226 50.4596 93.694 48.9214 94.1117 48.0044ZM216.972 45.8123C216.105 45.9829 215.344 46.3655 214.285 46.0161C215.866 46.2973 216.948 45.5775 218.201 45.1855C217.819 45.3935 217.371 45.6175 216.972 45.8123ZM163.788 49.0679C164.091 48.8787 163.199 49.6866 164.366 48.8974C163.551 49.5713 162.782 50.1944 161.984 50.8519C161.675 50.9404 161.364 51.0307 161.055 51.1187C160.886 51.2992 160.713 51.4822 160.544 51.663C160.591 51.4698 160.626 51.288 160.679 51.0889C162.291 50.3979 162.445 49.9041 163.788 49.0679ZM206.996 21.1838C207.382 21.2217 205.343 22.6332 207.437 21.3958C207.126 21.7662 206.54 22.2199 205.304 22.9984C205.08 23.0667 204.855 23.1358 204.628 23.2054C204.684 23.3587 204.406 23.6 203.769 24.1299C203.768 24.1301 203.768 24.1303 203.767 24.1306C201.917 25.2943 202.003 25.1791 201.409 25.2333C203.459 24.136 203.394 23.8905 204.662 22.9424C205.516 22.3022 206.782 21.5798 206.996 21.1838ZM100.33 43.549C99.2316 44.8469 100.682 44.2957 98.036 45.636C98.1286 45.4375 98.2221 45.2398 98.3139 45.0424C98.9964 44.5347 99.6468 44.0525 100.33 43.549ZM214.339 17.6715C214.003 17.4674 212.525 18.029 212.602 18.6513C213.928 17.9897 213.158 18.0764 214.339 17.6715ZM143.326 61.774C145.781 60.2266 145.609 60.9928 144.768 61.8688C144.561 61.8818 144.349 61.8979 144.143 61.9106C143.739 62.226 143.336 62.5406 142.935 62.8538C143.064 62.4938 143.194 62.1334 143.326 61.774ZM233.008 20.3002C234.122 18.3869 231.552 22.1963 232.346 20.8658C232.98 19.805 234.059 18.571 233.805 19.1455C233.562 19.5012 233.291 19.8933 233.011 20.2967C233.01 20.2979 233.009 20.299 233.008 20.3002ZM240.077 9.63771C239.701 9.82822 240.037 9.42415 239.128 10.9107C238.87 11.3443 236.631 14.6083 237.688 13.3151C238.471 12.1264 239.286 10.8763 240.077 9.63771ZM115.414 80.2522C115.275 80.1213 117.671 78.1489 118.046 78.0312C118.046 78.0309 118.046 78.0307 118.045 78.0305C119.082 77.7017 116.398 79.4345 117.765 79.0185C116.601 79.5875 115.827 80.1428 115.355 80.484C114.647 80.9899 114.443 81.1308 114.222 80.5408C114.644 80.2636 114.91 80.1063 115.073 80.0307C115.477 79.847 115.218 80.1932 115.414 80.2522ZM11.1653 108.584C11.1642 108.585 11.163 108.586 11.1619 108.587C11.35 108.47 12.976 107.871 12.911 108.118C11.1955 109.193 11.316 108.722 10.0607 110.257C9.88192 110.183 9.72314 110.1 9.53436 110.032C10.0599 109.534 10.3246 109.1 11.1653 108.584ZM87.4996 52.1251C88.0718 51.6254 89.3237 51.0733 90.0131 50.5539C88.4754 53.0222 85.2334 54.1112 87.4996 52.1251ZM276.837 17.1525C276.835 17.1535 276.833 17.1545 276.831 17.1555C276.832 17.1551 276.832 17.1547 276.833 17.1543C276.834 17.1537 276.835 17.1531 276.837 17.1525ZM123.24 37.0418C123.333 36.977 123.403 36.9473 123.454 36.9472C123.459 36.9488 123.463 36.9505 123.467 36.9522C123.394 36.9781 123.319 37.0068 123.24 37.0418ZM110.036 83.643C108.817 84.0793 112.197 81.5298 113.431 80.8786C113.413 81.0288 113.461 81.1248 113.342 81.3583C112.21 81.7001 110.248 83.5655 110.036 83.643ZM191.43 31.5011C188.592 33.2914 191.899 30.343 192.358 30.7361C192.359 30.7483 191.504 31.4527 191.43 31.5011ZM132.333 69.4476C132.898 68.7437 131.411 69.6055 133.752 68.1657C133.925 68.1427 134.099 68.1196 134.273 68.096C133.634 68.541 132.981 68.9961 132.333 69.4476ZM172.367 42.4368C168.877 44.8135 165.615 47.1965 168.293 46.2846C168.551 46.0932 168.812 45.9002 169.069 45.7092C168.932 45.4051 170.017 44.9228 171.476 43.9991C171.614 43.757 172.403 43.2159 172.495 43.0275C172.674 42.6632 171.668 43.1282 172.367 42.4368ZM256.76 27.0212C256.707 27.0644 256.656 27.1071 256.602 27.1502C256.002 27.4667 255.405 27.7819 254.816 28.0933C254.899 28.0185 254.982 27.9437 255.066 27.869C255.625 27.5892 256.199 27.3021 256.757 27.0229C256.758 27.0224 256.759 27.0217 256.76 27.0212ZM107.926 71.7831C107.351 71.0122 106.839 72.2584 105.834 74.822C106.535 73.8159 107.229 72.8096 107.926 71.7831ZM230.547 7.65238C230.681 7.72584 230.808 7.80222 230.948 7.87241C232.19 7.12157 231.881 7.11899 231.195 7.26456C230.981 7.39164 230.752 7.52731 230.547 7.65238ZM239.676 11.2525C240.023 10.761 239.78 10.9706 239.816 10.9186C240.326 10.1822 240.587 9.82303 240.913 9.31525C241.142 8.95767 241.388 8.55515 241.75 7.88075C241.842 7.67679 241.937 7.45673 242.022 7.24985C241.523 7.76178 241.296 8.2377 240.663 9.15586C240.5 9.39085 240.312 9.65377 240.089 9.95099C240.331 9.71967 240.574 9.48824 240.818 9.25456C240.819 9.25306 240.821 9.25156 240.823 9.25007C240.821 9.25181 240.82 9.25356 240.819 9.25531C240.257 10.1056 239.707 10.9289 239.137 11.7718C239.092 11.8856 239.047 11.9992 239.002 12.1126C239.224 11.8295 239.457 11.5371 239.676 11.2525ZM263.69 23.6276C264.557 23.1997 265.438 22.7645 266.324 22.3258C266.347 22.2911 266.369 22.257 266.392 22.2224C265.482 22.695 264.579 23.1645 263.69 23.6276ZM116.923 53.7157C116.913 53.6243 116.902 53.5344 116.886 53.4518C116.938 53.4835 116.944 53.5812 116.923 53.7157ZM8.4265 109.21C7.45121 109.735 6.19513 110.736 5.17185 111.408C5.52456 111.782 8.01391 109.861 9.06126 109.478C9.15921 109.298 8.85088 108.979 8.4265 109.21ZM146.711 59.6271C146.88 59.3693 147.047 59.1135 147.21 58.8606C147.783 58.5095 148.36 58.1569 148.94 57.8011C148.902 57.7047 148.863 57.6077 148.825 57.5114C146.376 59.2343 146.803 58.6125 145.39 59.1645C145.832 59.3189 146.269 59.4746 146.711 59.6271ZM291.832 10.0182C289.853 10.8666 289.133 11.1967 290.281 10.7395C290.978 10.4318 291.686 10.121 292.378 9.81985C292.197 9.88581 292.013 9.95252 291.832 10.0182ZM116.989 30.8275C115.54 31.9393 115.158 31.4456 113.885 32.6848C114.73 32.2729 115.622 31.8382 116.451 31.4521C116.632 31.2417 116.815 31.0309 116.989 30.8275ZM103.809 84.7077C103.062 84.9341 102.239 86.3605 100.094 86.804C99.7559 87.1819 99.5426 87.4826 99.2406 87.8248C98.9341 87.7582 98.6035 87.6951 98.329 87.6047C98.3279 87.6052 98.3268 87.6056 98.3257 87.6061C97.5534 87.9686 97.5362 88.0089 97.5907 88.1011C97.6544 88.1837 97.9096 88.216 97.9327 88.3158C97.9466 88.3573 97.6189 88.455 97.5075 88.4653C97.4457 88.474 97.5412 88.4481 97.7134 88.5191C97.8052 88.5567 97.8705 88.6089 97.8502 88.613C97.841 88.6221 97.7086 88.5765 97.627 88.5844C97.3096 88.6339 97.6473 88.7062 97.945 88.6183C98.2785 88.54 98.6401 88.406 99.0288 88.25C99.7713 87.9525 100.424 87.6627 100.515 87.834C99.5729 88.2129 97.8514 89.0436 98.4662 89.0652C99.1682 89.1115 100.632 87.8446 101.791 87.4685C99.9864 87.7521 103.163 86.2381 103.755 86.4208C105.369 85.0718 103.643 85.9223 101.805 86.9534C102.756 86.0172 101.188 87.1069 100.776 86.98C101.855 86.2249 105.886 84.0611 103.809 84.7077ZM187.153 32.9489C185.953 33.7238 183.964 34.8057 183.251 35.5107C182.834 35.9233 184.787 34.8004 183.582 35.7972C184.754 35.0304 184.977 34.7993 184.685 34.7812C184.94 34.596 185.208 34.4028 185.469 34.2147C185.612 34.1635 185.759 34.1098 185.902 34.0587C186.006 33.9096 186.112 33.7608 186.213 33.6144C186.508 33.445 186.805 33.2742 187.098 33.1065C187.112 33.0558 187.153 32.9941 187.153 32.9489ZM74.4951 60.7163C74.8124 60.4795 75.1333 60.2402 75.4534 60.0004C75.3681 59.9585 75.2739 59.9188 75.182 59.8789C75.1124 59.8452 75.0427 59.8114 74.973 59.7777C75.3062 59.8376 77.0833 59.0417 77.5733 58.3643C77.8221 58.023 76.8064 58.1902 78.1477 57.1178C77.15 57.8706 76.2721 58.586 75.3188 59.328C75.3249 59.1532 75.3267 58.9798 75.3329 58.8052C75.3322 58.8054 75.3315 58.8057 75.3308 58.8059C74.9888 59.0158 74.6415 59.2276 74.2984 59.4382C74.3615 59.8657 74.4294 60.2894 74.4951 60.7163ZM229.386 7.95267C228.209 8.66318 227.833 8.92618 228.486 8.77822C228.487 8.77764 228.489 8.77705 228.49 8.77647C228.896 8.48274 229.335 8.17605 229.743 7.88913C229.626 7.90916 229.509 7.92956 229.386 7.95267ZM122.825 43.4665C122.683 40.2733 120.901 46.6036 121.815 45.6438C121.856 45.6086 122.578 43.6622 122.825 43.4665ZM142.71 61.8024C143.375 61.3672 144.05 60.926 144.712 60.4927C144.492 60.4886 144.268 60.4868 144.048 60.4821C143.606 60.9182 143.153 61.3634 142.71 61.8024ZM283.16 13.7129C282.383 14.0583 280.448 14.9986 279.542 15.4985C280.033 15.2608 280.526 15.0217 281.021 14.7812C280.089 15.2498 279.19 15.7029 278.235 16.1835C278.211 16.2619 279.291 15.6857 280.913 14.8944C281.165 14.773 282.812 14.0227 283.356 13.6958C283.464 13.6313 281.73 14.4886 282.919 13.8624C282.392 14.1227 281.939 14.3486 281.445 14.5932C281.403 14.5994 281.362 14.6054 281.317 14.6133C281.929 14.3144 282.541 14.0157 283.16 13.7129ZM180.086 37.4398C178.397 38.4885 178.274 38.7203 178.048 39.137C178.808 38.6226 179.567 38.1104 180.333 37.5933C180.249 37.5434 180.17 37.4903 180.086 37.4398ZM267.338 21.5411C266.353 22.0178 266.793 21.8498 266.403 22.0521C264.924 22.8199 263.953 23.2632 262.473 24.0175C262.566 23.9612 262.652 23.9093 262.741 23.855C262.74 23.8556 262.739 23.8562 262.738 23.8569C255.824 27.2137 259.482 25.5449 263.623 23.4751C263.726 23.4437 263.826 23.414 263.929 23.3822C265.734 22.4531 267.459 21.5674 267.338 21.5411ZM111.618 66.7517C111.719 66.7045 111.727 67.5657 112.23 66.2344C112.227 64.9535 111.614 66.7238 111.192 66.9987C111.321 66.6418 111.456 66.2743 111.585 65.9134C110.355 67.8123 110.3 68.1941 111.1 67.6741C111.157 67.6335 111.52 66.7956 111.618 66.7517ZM118.701 53.5265C117.984 52.852 117.128 55.6295 117.435 55.6502C117.616 55.3036 117.605 54.9601 117.85 54.611C118.097 54.2569 118.342 54.2544 118.701 53.5265ZM131.046 68.4654C130.973 68.5081 130.101 68.694 130.302 68.8537C131.475 68.7891 133.072 67.3361 132.651 67.3704C132.064 67.7542 131.715 68.0773 131.046 68.4647C131.046 68.465 131.046 68.4652 131.046 68.4654ZM295.143 8.56575C295.112 8.57612 293.168 9.37287 292.919 9.48966C292.717 9.58765 292.61 9.64694 292.467 9.7209C293.544 9.25253 295.689 8.37063 295.139 8.56741C295.141 8.56686 295.142 8.5663 295.143 8.56575Z" fill="#C075E3"/>
</svg>
