<svg width="110" height="90" viewBox="0 0 110 90" fill="none" xmlns="http://www.w3.org/2000/svg">
<path d="M47.6511 20.3207C47.6482 20.3877 47.6863 20.4304 47.7375 20.4658C47.7749 20.4913 47.8048 20.5195 47.7656 20.5692C47.5582 20.8369 47.3546 21.1086 47.142 21.3721C46.6647 21.9639 46.1802 22.5494 45.7041 23.1415C45.6017 23.2694 45.4915 23.3854 45.3483 23.4669C45.2295 24.1143 44.8976 24.6997 44.7922 25.3502C44.8826 25.4874 44.8 25.6113 44.7583 25.7346C44.5311 26.4188 44.2995 27.1004 44.0699 27.7839C43.9691 28.082 43.868 28.3813 43.7685 28.6798C43.6979 28.8927 43.6253 29.1036 43.6047 29.3318C43.5898 29.4926 43.5174 29.6487 43.4646 29.8048C41.832 34.6566 40.1993 39.5085 38.5666 44.3603C38.4758 44.6291 38.3732 44.8939 38.349 45.1836C38.3376 45.33 38.2664 45.4708 38.2184 45.6128C36.5619 50.535 34.9039 55.4581 33.2482 60.3819C33.1764 60.5943 33.0818 60.8005 33.0837 61.0322C33.085 61.1763 32.9961 61.2838 32.9009 61.3826C32.7352 61.6669 32.7017 62.0267 32.4061 62.2363C32.6343 62.3934 32.6355 62.3938 32.5808 62.5792C32.5506 62.6802 32.5145 62.7792 32.4824 62.8782C32.0989 64.0171 31.7158 65.1548 31.3323 66.2937C31.2939 66.4076 31.2531 66.5206 31.2193 66.6361C31.1685 66.8098 31.1748 66.838 31.3275 66.9307C31.5708 67.0784 31.8196 67.2175 32.0676 67.3589C32.7192 67.7302 33.3632 68.116 34.0266 68.4678C34.8763 68.9181 35.6955 69.4198 36.5384 69.8784C37.3692 70.3303 38.1853 70.806 39.0089 71.2713C39.923 71.7876 40.8463 72.2886 41.7695 72.7896C41.8774 72.8478 41.8969 72.9496 41.9543 73.0328C42.3853 73.3057 42.8377 73.5427 43.2806 73.7961C43.3964 73.8621 43.5137 73.9391 43.6608 73.8967C44.032 74.0936 44.4061 74.2823 44.7734 74.487C45.5467 74.9185 46.3147 75.3574 47.0856 75.7919C47.686 76.1318 48.286 76.4728 48.8887 76.8096C49.7005 77.263 50.5155 77.711 51.3273 78.1645C51.6545 78.3479 51.9804 78.535 52.3017 78.7282C52.4863 78.8394 52.6809 78.9173 52.8925 78.9408C53.8938 79.0513 54.8951 79.154 55.8968 79.2633C56.9876 79.3814 58.0779 79.5046 59.1687 79.6226C59.7661 79.6873 60.3651 79.7472 60.9625 79.8119C62.3523 79.963 63.7414 80.1205 65.1309 80.269C66.118 80.3747 67.1052 80.4687 68.0927 80.5694C68.8399 80.646 69.5882 80.7231 70.3345 80.8061C70.4535 80.8196 70.5685 80.8645 70.6844 80.8953C71.0262 81.0275 71.3852 81.0545 71.7463 81.0599C71.8613 81.0617 71.9698 81.0365 72.0747 80.9905C72.656 81.0562 73.2372 81.1259 73.8192 81.1894C74.7894 81.2947 75.7612 81.3953 76.731 81.5018C78.1791 81.6594 79.6265 81.8232 81.0763 81.98C81.7789 82.0562 82.4811 82.1219 83.1834 82.1953C83.3181 82.2089 83.4525 82.2511 83.5837 82.2439C83.7323 82.236 83.74 82.3573 83.8076 82.4256C84.4682 82.416 85.1184 82.523 85.7705 82.6007C85.9666 82.5106 86.1669 82.5016 86.3808 82.5299C86.9766 82.607 87.5744 82.6705 88.1722 82.7379C88.2167 82.7423 88.2628 82.742 88.307 82.7397C88.4107 82.7364 88.4726 82.697 88.4756 82.5791C88.4821 82.2953 88.4993 82.0111 88.5097 81.7273C88.5297 81.1894 88.5486 80.6511 88.5658 80.1136C88.5692 80.0259 88.6039 79.9735 88.6883 79.9533C88.6707 79.3284 88.7488 78.7041 88.7001 78.078C88.6411 77.9878 88.6263 77.8915 88.6305 77.7819C88.658 76.8912 88.6748 76.001 88.6995 75.1107C88.7131 74.5916 88.7319 74.0729 88.7523 73.5534C88.7594 73.3612 88.744 73.1654 88.8256 72.9823C88.9392 72.362 88.9708 71.7392 88.8866 71.113C88.8087 70.8494 88.851 70.5801 88.8543 70.3135C88.8586 69.9701 88.868 69.6272 88.8813 69.2843C88.8846 69.1966 88.9116 69.1089 88.9267 69.0212C89.1298 68.5836 89.0496 68.105 89.0695 67.6532C89.0947 67.0609 89.1204 66.4635 89.1074 65.8676C89.0161 65.8189 88.9965 65.7444 88.9991 65.6434C89.0173 65.0605 89.0236 64.4776 89.0401 63.8954C89.055 63.3571 89.0707 62.8204 89.097 62.2833C89.109 62.0339 89.0096 61.8728 88.8081 61.7221C87.7247 60.913 86.6507 60.0914 85.5764 59.2709C85.0872 58.8976 84.6036 58.5157 84.1132 58.142C84.0243 58.0745 83.9468 58.0121 83.977 57.8876C83.4102 57.4871 82.847 57.0839 82.3399 56.608C82.1724 56.6018 82.0306 56.5584 81.889 56.4485C80.6663 55.499 79.4365 54.5588 78.2059 53.621C77.5723 53.1382 76.9292 52.6679 76.2956 52.185C75.1009 51.2735 73.9089 50.3577 72.7165 49.4431C72.6685 49.4062 72.6224 49.3673 72.5756 49.3308C72.5103 49.279 72.4836 49.21 72.5098 49.1326C72.5482 49.0187 72.5828 48.9009 72.6425 48.7981C72.9321 48.2913 73.1885 47.7695 73.4435 47.2446C73.6517 46.8152 73.8949 46.4026 74.1181 45.9795C74.2431 45.7417 74.3595 45.4984 74.4814 45.2583C74.8288 44.5801 75.1783 43.9039 75.5245 43.2253C75.6535 42.9719 75.7778 42.7168 75.9057 42.463C76.2298 41.8228 76.5523 41.1833 76.8784 40.545C77.007 40.2928 77.1553 40.0484 77.2769 39.7937C77.6264 39.0666 77.996 38.3501 78.3794 37.6395C78.6279 37.1804 78.8397 36.7012 79.0709 36.2311C79.1631 36.0437 79.2636 35.8592 79.3637 35.6757C79.406 35.5971 79.4876 35.6047 79.5629 35.6037C80.0199 34.71 80.4388 33.7971 80.9396 32.9258C80.9229 32.8314 80.856 32.7569 80.9264 32.638C81.121 32.3033 81.29 31.9548 81.4626 31.6075C81.6965 31.1409 81.9316 30.6747 82.1517 30.2022C82.2467 29.9988 82.3712 29.8131 82.4663 29.6097C82.7299 29.0433 83.0223 28.4891 83.3112 27.9338C83.5376 27.4973 83.7828 27.0711 84.0072 26.6326C84.2454 26.1688 84.4671 25.6955 84.6986 25.2281C84.7778 25.0678 84.868 24.9137 84.9495 24.7541C85.0639 24.5284 85.1995 24.3138 85.2922 24.0744C85.3505 23.9253 85.4662 23.7967 85.5942 23.6905C85.9231 23.1994 86.1158 22.629 86.4877 22.1627C86.3743 22.1053 86.3295 22.0159 86.4007 21.9065C86.5252 21.7168 86.6041 21.5067 86.7046 21.3065C86.9255 20.8669 87.1613 20.4336 87.3924 19.9987C87.4434 19.9021 87.4049 19.8292 87.3428 19.7562C87.0636 19.4229 86.7884 19.0856 86.5065 18.7527C85.8388 17.962 85.1684 17.1718 84.4992 16.3819C83.7042 15.443 82.9075 14.5049 82.1149 13.5629C81.3037 12.5978 80.4997 11.6271 79.6889 10.6608C79.2257 10.1094 78.7594 9.55958 78.2891 9.01365C78.1806 8.88736 78.0677 8.76616 78.0507 8.59073C77.7657 8.04125 77.2984 7.93773 76.7385 8.0658C76.6985 8.14911 76.6459 8.223 76.5489 8.24551C76.476 8.26298 76.4011 8.27457 76.3262 8.28617C75.178 8.46237 74.0311 8.63506 72.8833 8.814C71.3646 9.0521 69.8458 9.29411 68.3271 9.53612C67.7766 9.62427 67.2262 9.71634 66.6762 9.80332C65.1133 10.0515 63.5472 10.2856 61.9866 10.5502C61.3479 10.6586 60.7056 10.75 60.0653 10.8513C58.5166 11.0964 56.9683 11.3442 55.4196 11.5815C55.1033 11.6302 54.876 11.766 54.6761 12.0232C53.9837 12.9089 53.2642 13.7739 52.5561 14.6479C52.1226 15.1838 51.6919 15.7232 51.2592 16.2606C50.4309 17.2878 49.6015 18.3147 48.7721 19.3415C48.7444 19.3767 48.7148 19.4138 48.6769 19.4364C48.6121 19.4762 48.5693 19.4202 48.5233 19.3852C48.2618 19.4509 48.2136 19.7182 48.0686 19.8866C47.9472 20.0512 47.8137 20.1973 47.6511 20.3207Z" fill="#FF61B0"/>
<path d="M32.909 21.0743C32.9248 21.1395 32.9733 21.1702 33.0322 21.1902C33.0753 21.2046 33.1118 21.2236 33.0879 21.282C32.9625 21.596 32.842 21.9128 32.7104 22.2241C32.4151 22.9233 32.1113 23.6184 31.8173 24.3177C31.7542 24.4685 31.6804 24.6102 31.5652 24.7276C31.63 25.3825 31.4729 26.0359 31.5515 26.6902C31.6763 26.7974 31.6311 26.9392 31.6252 27.069C31.596 27.789 31.5618 28.5075 31.5301 29.2274C31.5158 29.5415 31.5013 29.8569 31.4882 30.1711C31.4792 30.395 31.4677 30.6176 31.5111 30.8426C31.5412 31.0014 31.5148 31.1712 31.5072 31.3357C31.2795 36.4464 31.0518 41.5571 30.824 46.6677C30.8111 46.951 30.7856 47.2336 30.8425 47.5188C30.872 47.6627 30.8425 47.8175 30.8357 47.9671C30.6045 53.152 30.3721 58.3381 30.1421 63.5242C30.1319 63.7481 30.0979 63.9721 30.1639 64.1945C30.2049 64.3327 30.1492 64.4603 30.085 64.5813C30.0043 64.8999 30.0716 65.2549 29.8454 65.5371C30.1083 65.6259 30.1096 65.6259 30.1082 65.8192C30.1071 65.9245 30.0998 66.0295 30.0963 66.1335C30.0426 67.3332 29.989 68.5317 29.9353 69.7315C29.9298 69.8514 29.9219 69.9713 29.9213 70.0915C29.9205 70.2724 29.9344 70.2978 30.1069 70.3453C30.3816 70.421 30.6593 70.4869 30.9369 70.5553C31.6661 70.7346 32.3921 70.93 33.1273 71.0873C34.0688 71.2887 34.9952 71.5477 35.9325 71.7588C36.8563 71.9668 37.7726 72.2018 38.6932 72.4245C39.7149 72.6717 40.7412 72.9017 41.7675 73.1318C41.8874 73.1583 41.9343 73.2509 42.0124 73.3152C42.5024 73.4601 43.0029 73.5647 43.4989 73.6876C43.6284 73.7195 43.7625 73.7615 43.8922 73.6807C44.3037 73.7687 44.7155 73.8482 45.1253 73.9449C45.9881 74.1489 46.848 74.3615 47.7094 74.5691C48.3807 74.7322 49.0519 74.8966 49.7246 75.056C50.6306 75.2707 51.5381 75.4792 52.4441 75.6939C52.8094 75.7811 53.1746 75.8721 53.5369 75.9703C53.7452 76.0269 53.9538 76.0487 54.1638 76.0136C55.1571 75.8468 56.1482 75.6725 57.1416 75.5044C58.2231 75.3206 59.3055 75.1417 60.387 74.9578C60.9792 74.8571 61.5717 74.7514 62.164 74.6506C63.5422 74.417 64.9213 74.1896 66.2984 73.9535C67.2767 73.786 68.2519 73.6072 69.2293 73.4347C69.9689 73.3047 70.7097 73.1748 71.4503 73.051C71.5684 73.0316 71.6914 73.0434 71.8113 73.0414C72.1766 73.0753 72.5292 73.0033 72.8778 72.9101C72.989 72.8805 73.0863 72.8266 73.1745 72.7538C73.7515 72.6585 74.3297 72.5671 74.9068 72.4693C75.8688 72.3061 76.831 72.1378 77.7929 71.9758C79.2289 71.7324 80.6659 71.4953 82.1032 71.2507C82.7998 71.1324 83.4932 71.004 84.1887 70.8832C84.322 70.8595 84.4628 70.8634 84.5871 70.8207C84.7278 70.7726 84.7687 70.8872 84.8526 70.9344C85.4852 70.745 86.1399 70.6706 86.7884 70.5675C86.952 70.4274 87.1421 70.3642 87.3556 70.333C87.9498 70.2447 88.5421 70.1427 89.1355 70.0445C89.1796 70.0366 89.2238 70.0237 89.2657 70.0095C89.3644 69.978 89.4131 69.9232 89.3834 69.8091C89.3111 69.5344 89.249 69.2564 89.1805 68.9807C89.051 68.458 88.9202 67.9352 88.7881 67.4137C88.7671 67.3284 88.786 67.2686 88.8616 67.2261C88.6718 66.6301 88.5742 66.0084 88.3541 65.4197C88.2725 65.349 88.2316 65.2604 88.2053 65.1539C87.9854 64.29 87.7553 63.4293 87.5327 62.5665C87.4023 62.0636 87.2769 61.5597 87.1528 61.0546C87.1064 60.8678 87.0375 60.6838 87.0653 60.4855C87.0029 59.858 86.8611 59.2505 86.6068 58.6713C86.459 58.4391 86.4252 58.1686 86.3547 57.9113C86.2638 57.58 86.1779 57.2477 86.0959 56.9143C86.0748 56.829 86.0765 56.7374 86.0668 56.649C86.1411 56.1727 85.9315 55.7344 85.8257 55.2945C85.6861 54.7181 85.5455 54.1367 85.3682 53.5672C85.2669 53.5452 85.2275 53.479 85.2021 53.3812C85.0583 52.8157 84.9031 52.2534 84.758 51.6891C84.6234 51.1674 84.49 50.647 84.3668 50.1234C84.3093 49.8803 84.1692 49.7525 83.9337 49.6625C82.6682 49.1799 81.4083 48.6827 80.1484 48.1868C79.5748 47.9612 79.0041 47.7258 78.4293 47.5002C78.3251 47.4595 78.2333 47.4206 78.2279 47.2927C77.5722 47.0622 76.9192 46.828 76.3 46.5086C76.1372 46.5483 75.9888 46.5453 75.8222 46.4783C74.384 45.8986 72.9415 45.3299 71.4988 44.7637C70.7561 44.4722 70.0077 44.1952 69.2649 43.9037C67.864 43.353 66.4646 42.7974 65.0651 42.2431C65.0087 42.2207 64.9537 42.1959 64.8986 42.1736C64.8214 42.1415 64.7767 42.0825 64.7805 42.0009C64.7859 41.8809 64.7866 41.7582 64.8155 41.6431C64.9538 41.0768 65.056 40.5051 65.156 39.9309C65.2373 39.4611 65.3571 38.9981 65.4546 38.5303C65.5091 38.2676 65.5537 38.0019 65.6045 37.7377C65.7509 36.9909 65.8999 36.2453 66.0451 35.4984C66.0991 35.2195 66.148 34.9404 66.2007 34.6615C66.3353 33.9574 66.4685 33.2546 66.6055 32.5519C66.6594 32.2742 66.7343 31.9988 66.7808 31.7208C66.9157 30.9263 67.0729 30.1365 67.245 29.3487C67.3569 28.8394 67.428 28.3209 67.5202 27.8058C67.5571 27.6005 67.6026 27.3956 67.6481 27.1919C67.6671 27.1048 67.7476 27.0899 67.8197 27.0684C68.012 26.0844 68.1622 25.0923 68.4027 24.1179C68.3605 24.0317 68.2756 23.9783 68.3104 23.8448C68.405 23.4698 68.4711 23.0886 68.5409 22.7076C68.6367 22.1951 68.7338 21.6827 68.8148 21.1684C68.8499 20.9469 68.9182 20.7343 68.9533 20.5128C69.0502 19.8963 69.178 19.2837 69.3022 18.6709C69.3991 18.1895 69.517 17.7127 69.6114 17.2299C69.7122 16.7189 69.7944 16.2034 69.8878 15.6908C69.9195 15.515 69.9636 15.3423 69.9979 15.1666C70.0454 14.9184 70.1164 14.675 70.1394 14.4195C70.1541 14.2603 70.2299 14.1051 70.3235 13.9681C70.5039 13.4062 70.5314 12.8051 70.76 12.2553C70.6351 12.231 70.5673 12.1573 70.6055 12.0326C70.6728 11.8163 70.6905 11.5928 70.7318 11.3728C70.8225 10.8899 70.9294 10.4089 71.0312 9.92768C71.0536 9.82088 70.9964 9.76127 70.9165 9.70807C70.5559 9.46365 70.198 9.21439 69.8348 8.9711C68.9742 8.39289 68.111 7.8158 67.249 7.23877C66.2249 6.55274 65.1994 5.8679 64.1767 5.17822C63.1298 4.47133 62.0882 3.75725 61.0414 3.04912C60.4435 2.64521 59.843 2.24365 59.2399 1.84692C59.1006 1.75508 58.9585 1.66931 58.8937 1.50525C58.4676 1.0546 57.9897 1.08247 57.4867 1.35831C57.4714 1.44932 57.4412 1.53471 57.3542 1.58281C57.2889 1.6195 57.2201 1.65108 57.1512 1.68266C56.0961 2.16517 55.041 2.64398 53.987 3.12903C52.5926 3.77212 51.1992 4.41899 49.8059 5.06585C49.301 5.30071 48.7973 5.53933 48.2925 5.77295C46.8584 6.43779 45.4174 7.08993 43.9901 7.76996C43.4059 8.0483 42.8137 8.31142 42.226 8.58341C40.8047 9.2414 39.3845 9.90192 37.9611 10.5524C37.6705 10.6854 37.4895 10.878 37.3684 11.1798C36.9477 12.2204 36.4951 13.2483 36.056 14.2818C35.7875 14.9153 35.5225 15.5515 35.2552 16.1863C34.7429 17.3999 34.2295 18.6134 33.716 19.827C33.6991 19.8684 33.6809 19.9122 33.6507 19.9443C33.5995 20.0002 33.5428 19.9579 33.4889 19.9369C33.2557 20.0713 33.2832 20.3415 33.1904 20.543C33.1192 20.7344 33.0313 20.9113 32.909 21.0743Z" fill="#7DC5E4"/>
<path d="M21.033 55.6517C21.4454 56.3133 22.5536 56.0189 23.1255 56.7987C23.6828 57.5797 23.3941 58.0198 24.1717 58.7599C24.9522 59.5124 25.2814 60.6003 25.7155 60.882C26.1543 61.1718 25.6436 61.5526 26.1035 62.0574C26.5613 62.5727 26.6792 62.9872 26.7395 63.6059C26.8231 64.2242 27.2611 65.9318 27.6467 66.5065C28.0623 67.0802 27.7629 67.9146 27.7144 68.3569C27.7006 68.4976 27.669 68.6104 27.6322 68.6979C27.6165 68.7349 27.5772 68.7556 27.5366 68.7602C27.5366 68.7602 27.5366 68.7603 27.5366 68.7603C27.4861 68.766 27.4337 68.747 27.4223 68.7038C27.3666 68.494 27.2429 68.1853 26.9966 67.8551C26.529 67.2471 26.8938 67.0937 26.4685 66.2443C26.0242 65.4077 25.5127 65.0439 25.2626 63.9825C24.9726 62.9067 24.0511 63.1736 23.6712 61.6358C23.2202 60.0787 22.3111 60.5523 21.2302 59.5467C20.1406 58.5442 19.0694 56.8773 18.3072 56.3344C17.558 55.7897 16.4985 55.1439 15.4752 54.3105C14.4477 53.4693 12.878 52.9218 11.7013 52.036C10.5256 51.1361 8.75848 49.9988 7.93553 49.4483C7.11353 48.8937 6.90528 48.7642 5.98772 48.5541C5.45845 48.4346 4.79512 48.137 4.26412 47.7052C4.00796 47.4919 4.12368 47.3387 4.45285 47.3505C4.9478 47.3731 5.27619 47.5732 5.58652 47.4423C6.19349 47.1778 6.46461 47.0912 6.94424 47.5508C7.4304 48.0152 7.91311 47.5707 8.22802 47.7726C8.54261 47.9819 8.39863 48.2737 10.181 48.7841C11.9563 49.309 12.8866 49.7412 13.5304 50.0154C14.1844 50.2951 15.2898 51.2819 16.3069 51.8075C17.339 52.3175 19.1704 53.7584 20.0099 54.224C20.8589 54.6823 20.6095 54.99 21.033 55.6517Z" fill="#7DC5E4"/>
<path d="M20.7314 63.2436C21.1832 63.5709 21.8431 62.7463 22.4409 63.0897C23.0315 63.4418 22.9225 63.9464 23.6382 64.1345C24.3643 64.3333 24.8336 65.003 25.2107 64.9852C25.5979 64.974 25.2959 65.5332 25.7442 65.6602C26.1955 65.7936 26.3821 66.0331 26.5607 66.4312C26.7574 66.8313 27.5211 67.7284 27.9962 67.85C28.4933 67.9772 28.5086 68.6355 28.6264 68.9221C28.6638 69.0118 28.6786 69.0954 28.6805 69.1675C28.6813 69.198 28.6576 69.2333 28.627 69.2602C28.627 69.2602 28.627 69.2602 28.6269 69.2602C28.5889 69.2936 28.5404 69.314 28.5158 69.2959C28.3965 69.2084 28.1906 69.1029 27.8879 69.0502C27.3297 68.9635 27.557 68.65 26.9903 68.3561C26.4115 68.0625 25.9237 68.1044 25.5018 67.4966C25.0523 66.8872 24.4084 67.5819 23.8538 66.6329C23.2384 65.6839 22.6825 66.5226 21.786 66.3095C20.8944 66.1008 19.8613 65.3127 19.2656 65.2819C18.6823 65.2429 17.9145 65.2939 17.0923 65.181C16.2548 65.0641 15.2853 65.5056 14.3523 65.4686C13.4032 65.4178 12.0433 65.5589 11.3852 65.6268C10.7315 65.6868 10.5599 65.7173 10.0771 66.1005C9.79478 66.326 9.36481 66.495 8.87518 66.509C8.63509 66.5129 8.56717 66.341 8.69903 66.1521C8.90268 65.8706 9.16193 65.8175 9.197 65.5388C9.25645 64.9901 9.31891 64.7594 9.81652 64.8038C10.306 64.8552 10.244 64.2347 10.5001 64.1981C10.7636 64.1684 10.8705 64.4654 11.9662 63.8001C13.0785 63.1521 13.7777 62.9531 14.2394 62.797C14.7127 62.638 15.7624 62.7961 16.5445 62.6538C17.338 62.4828 18.9614 62.6676 19.6416 62.6059C20.3244 62.5294 20.2707 62.9217 20.7314 63.2436Z" fill="#FF61B0"/>
</svg>
