<svg width="31" height="33" viewBox="0 0 31 33" fill="none" xmlns="http://www.w3.org/2000/svg">
<g clip-path="url(#clip0_676_100)">
<path d="M7.4823 2.58266C3.59803 2.2718 1.62939 11.1804 1.62939 11.1804L4.27089 20.9693L12.8827 31.2927L21.2075 25.9414L28.4586 17.8617C28.4586 17.8617 32.0969 8.62814 26.0243 4.39538C21.4403 1.20019 14.9573 10.7959 14.9573 10.7959C14.9573 10.7959 11.3666 2.89351 7.4823 2.58266Z" fill="#D3D3D3"/>
<path d="M26.4433 20.2389C26.5931 20.1951 26.8292 20.1919 27.0088 20.1556C27.7843 20.0016 28.0769 19.9792 28.786 19.8794C29.4163 19.8137 30.6004 19.5335 31.8498 19.7579L31.9077 19.7745C32.1301 19.8641 32.2293 19.9233 32.3421 19.9682C32.4516 20.014 32.5606 20.0505 32.6571 20.0844C32.8498 20.1514 32.9804 20.2102 32.9758 20.2825C32.9758 20.2825 32.9758 20.2825 32.9758 20.2825C32.9756 20.2859 32.9751 20.2892 32.9743 20.2925C32.9596 20.3574 32.7047 20.4056 32.6576 20.4712C32.607 20.5336 32.5923 21.0261 32.158 20.9578C31.9895 20.9308 31.7299 20.8227 31.5716 20.7558L31.6154 20.7683C31.1992 20.6679 30.4029 20.6846 30.2174 20.7058C30.0272 20.7279 29.7937 20.7981 29.5528 20.8389C28.768 20.975 28.3509 21.0229 27.6632 21.2807C27.3722 21.2784 27.0733 21.281 26.7768 21.2859C26.4088 21.3982 25.8414 21.4542 25.6124 21.5172C25.4336 21.5662 25.3357 21.6413 25.145 21.6935C24.9345 21.7514 24.5932 21.7881 24.2034 21.9044C23.5728 22.0937 23.4946 22.2493 23.1196 22.3756C23.0009 22.4159 22.8577 22.4552 22.7002 22.497L22.8025 22.4522C22.4884 22.6239 22.1224 22.8184 21.8368 23.0367C21.7901 23.0829 21.7424 23.13 21.6959 23.1766C21.7516 23.178 21.8081 23.179 21.8637 23.1807C21.6541 23.3326 21.526 23.34 21.3302 23.4717C21.1002 23.6278 21.0236 23.7594 20.8774 23.8685C20.7576 23.9582 20.5687 24.0441 20.4275 24.1701C20.2247 24.3541 20.3192 24.3669 20.2262 24.4743C20.2099 24.494 20.0165 24.6977 19.8979 24.8918C19.7713 25.0914 19.7582 25.2294 19.7572 25.2377C19.7564 25.2424 19.7557 25.2469 19.755 25.2512C19.7745 25.1772 19.7178 25.0035 19.6285 24.9387C19.5429 24.8689 19.4834 24.8718 19.4598 24.8778C19.4129 24.8941 19.4499 24.9356 19.5535 24.9022C19.5803 24.8936 19.6088 24.8826 19.6393 24.8688C20.6073 24.4238 21.5332 23.8618 22.3306 23.3308C22.7039 23.0831 23.0907 22.8279 23.4491 22.5741C23.0396 23.1984 24.3914 22.3948 23.6915 22.452C24.1074 22.1872 24.2926 21.8777 24.6107 21.5651C24.8134 21.36 24.9892 21.244 25.2208 20.9089C25.6477 20.302 25.6917 19.558 25.9872 19.4106C26.0117 19.206 26.0254 19.0099 26.0256 18.8217C26.0102 18.5184 25.9324 18.5268 25.8279 18.5517C25.6968 18.5594 25.5886 18.5849 25.5057 18.6345C25.2796 18.6179 24.7187 18.4423 24.4622 18.4374C24.2711 18.4035 23.0498 18.5156 22.4534 18.7595C22.2981 18.8133 22.1758 18.8566 22.1153 18.8789C21.8145 18.9894 21.2879 19.1896 21.0435 19.3097C20.7381 19.4596 20.6125 19.7802 19.9432 19.7387C19.3056 20.0328 19.074 20.1244 18.4685 20.3643C18.359 20.4082 18.3281 20.3744 18.2658 20.4036C18.1379 20.4636 17.9329 20.5971 17.7102 20.7124C17.3419 20.9031 17.0914 20.935 17.1981 21.0373C16.9698 21.1851 16.7431 21.3383 16.5261 21.4942C16.4313 21.5187 16.3353 21.5451 16.2418 21.5711C16.1372 21.6708 16.0303 21.775 15.9319 21.8771C15.9475 21.6094 15.2144 22.2934 15.5448 22.1954C15.1275 22.4629 14.7272 22.7744 14.4932 23.1267C14.4254 23.06 14.3229 23.1868 14.2964 23.3571C14.2659 23.5281 14.343 23.7011 14.4233 23.7617C14.4529 23.7629 14.481 23.7534 14.5023 23.7397C14.5048 23.7451 14.5127 23.7586 14.5281 23.776C14.5808 23.8879 14.7919 24.0065 15.0075 24.0647C15.2544 24.1354 15.4582 24.1854 15.6489 24.1823C15.845 24.1758 15.9382 24.1253 16.0076 24.1119C16.1009 24.0814 16.1461 24.0911 16.2612 24.0819C16.3875 23.9926 16.5092 23.9048 16.6335 23.8136C17.1251 23.1182 17.3122 23.6251 18.2725 22.6099C18.7344 22.4875 19.5169 21.7203 20.0059 21.1937C20.0634 21.1327 20.0405 21.1054 20.1144 21.0224C20.298 20.8211 20.8237 20.3716 20.7243 20.3057C20.9168 20.1608 21.107 20.0128 21.2933 19.8626C21.4126 19.7047 21.5258 19.549 21.6389 19.3882C21.6113 19.3653 21.5837 19.3424 21.556 19.3194C21.9065 19.1101 22.2506 18.6018 22.443 18.3766C22.4821 18.3314 22.5314 18.3497 22.6453 18.206C22.7823 18.035 22.9785 17.6865 23.1024 17.4703C23.099 17.3557 23.0891 17.2479 23.0758 17.1406C23.2104 16.7396 23.373 16.6448 23.4193 16.4064C23.421 16.3956 23.4313 16.3103 23.4294 16.2105C23.4402 15.9412 23.3052 15.7325 23.2783 15.7198C23.2573 15.6994 23.2359 15.6836 23.2148 15.6707C23.05 15.59 22.9642 15.5338 22.5163 15.444C22.4238 15.4347 22.3234 15.4233 22.2123 15.4111C22.0141 15.3893 21.8575 15.3376 21.6791 15.3318C21.3588 15.3006 20.4422 15.5031 20.399 15.6201C20.0738 15.5745 19.349 15.8242 18.9855 16.0009C18.9143 16.0329 18.8538 16.0586 18.8083 16.0752C18.7177 16.108 18.6666 16.0533 18.395 16.1684C18.1742 16.2617 17.6477 16.5842 17.3736 16.7117C17.0823 16.8463 16.953 16.8454 16.8231 16.907C16.7009 16.9652 16.611 17.0659 16.4475 17.1508C15.9357 17.4159 15.4406 17.5973 15.0443 17.8215C14.4721 18.1451 14.0512 18.5711 13.6383 18.9232C13.5223 18.9896 13.3957 19.0389 13.2808 19.1192C12.2144 19.8726 10.9672 20.8811 10.773 22.0365C10.7251 22.2422 10.8336 22.4441 10.8125 22.4096C10.8126 22.4105 10.8064 22.4157 10.8378 22.4147C10.8754 22.4143 10.9837 22.3843 11.1121 22.3023C11.898 21.803 12.9829 21.0213 12.4614 21.1004C12.6567 20.8919 14.295 19.6244 14.5593 19.333C14.8391 19.0578 15.0089 18.7946 15.2135 18.568C15.8127 17.8838 16.2915 17.3994 16.7145 16.4446C16.8177 16.1982 16.8354 15.9206 16.865 15.7893C16.9028 15.6322 16.9941 15.4652 16.9828 15.2738C16.9811 15.2476 16.9784 15.2207 16.9746 15.1934C16.9466 14.9423 16.8373 14.6806 16.7665 14.6577C16.4943 14.4749 16.0278 14.3544 15.7491 14.3077C15.6513 14.2908 15.6238 14.2271 15.4792 14.1957C14.9098 14.0651 14.2499 14.2091 14.4024 14.3704C14.0306 14.383 13.6812 14.4946 13.3631 14.6517C13.028 14.8156 12.7082 14.9927 12.3826 15.1561C10.9533 15.8226 8.50602 17.3592 7.76809 18.4412C7.30605 19.1016 7.3254 19.1046 6.81423 20.0901C6.74891 20.236 6.68988 20.3833 6.63823 20.5485C6.61363 20.6241 6.59334 20.7043 6.58072 20.7854C6.56592 20.8772 6.56054 20.9655 6.55972 21.015C6.54555 21.0747 6.6064 21.0266 6.35795 20.911C6.12899 20.868 6.17173 20.941 6.22577 20.9031C6.28345 20.8788 6.36345 20.8246 6.43476 20.7626C6.58136 20.6355 6.7101 20.4721 6.79792 20.2907C6.88265 20.211 6.96387 20.1296 7.04231 20.048C7.55258 19.5155 7.94155 19.043 8.4132 18.681C8.43305 18.5959 8.45328 18.5099 8.47268 18.4246C8.54112 18.3378 8.60862 18.2513 8.67622 18.164C8.72626 18.1595 8.77629 18.1548 8.82633 18.1501C9.32591 17.5324 9.79355 16.6329 10.1608 16.0814C10.8084 15.1903 12.2752 12.6549 12.2548 11.7504C12.2796 11.2885 12.1785 11.3365 12.2386 11.0785C12.188 11.014 12.1304 10.9642 12.0636 10.924C12.0556 10.9235 12.0475 10.9231 12.0394 10.9229C11.9832 10.918 11.9665 10.9487 11.9646 10.9797C12.0182 10.952 11.5798 11.0442 11.2773 11.2087C10.9491 11.3682 10.6217 11.5637 10.3392 11.7551C10.0851 11.9276 9.80502 12.1349 9.51393 12.3609C8.62578 13.0508 7.6244 13.9143 6.85091 14.486C6.59339 14.6762 6.23787 14.8758 5.99712 15.0771C5.64672 15.3704 5.63839 15.5339 5.19642 15.9088C4.43436 16.5533 2.9301 17.6633 2.22983 18.2962C2.02019 18.4847 1.95317 18.6039 1.81084 18.7364C1.47909 19.0461 1.17755 19.3217 0.88718 19.6042C0.656985 19.8281 0.433602 20.0562 0.207575 20.3124C-0.463849 20.7961 -0.511824 20.6471 -0.798107 20.7271C-0.904695 20.7587 -1.1082 20.8371 -1.29653 20.9367C-1.3903 20.9904 -1.48546 21.0377 -1.55969 21.1553C-1.65638 21.2859 -1.55472 21.526 -1.56508 21.536C-1.57285 21.5755 -1.61596 21.6148 -1.73435 21.4833C-1.84487 21.3464 -1.87576 21.1452 -1.89604 21.373C-1.93871 21.0081 -1.83008 20.9226 -1.79511 20.8259C-1.7482 20.7379 -1.70445 20.6741 -1.66565 20.6192C-1.58502 20.5069 -1.51255 20.4214 -1.44195 20.342C-1.30059 20.1844 -1.16962 20.0598 -1.04082 19.9467C-0.782966 19.7214 -0.523404 19.5348 -0.186233 19.2948C-0.0425491 19.1606 0.096859 19.0318 0.243487 18.8975C1.21588 18.0086 2.20807 17.1378 3.20364 16.2769C3.33583 16.2186 3.46625 16.162 3.59845 16.104C3.59851 16.1041 3.59857 16.1042 3.59863 16.1043C4.07059 15.7645 4.18848 15.5236 4.41148 15.303C5.46134 14.2705 7.1045 12.8629 8.9035 11.5379C9.40261 11.1751 9.90881 10.8241 10.4526 10.5081C10.7267 10.3511 11.0029 10.2023 11.3289 10.0831C11.4936 10.0255 11.6688 9.97085 11.8967 9.95999C12.115 9.93592 12.4582 10.0552 12.6027 10.1911C13.2149 10.6718 13.2596 11.4328 13.2056 11.9318C13.1485 12.4594 13.0006 12.9064 12.8554 13.2985C12.6396 14.0274 11.5055 16.1 11.1544 16.4606C11.069 16.5581 10.9964 16.5506 10.9184 16.6618C10.274 17.6878 9.56942 18.6734 8.82608 19.6288C8.49305 19.9981 8.15679 20.3691 7.817 20.7389C7.61372 20.9595 7.40657 21.1781 7.17066 21.3904C7.05173 21.4961 6.9269 21.6013 6.77155 21.7002C6.613 21.7814 6.42679 21.9573 6.01365 21.8427C5.73954 21.7324 5.6523 21.5279 5.59773 21.3925C5.54518 21.2483 5.52704 21.1202 5.51772 20.9967C5.5015 20.7508 5.528 20.524 5.57617 20.3028C5.81993 19.1929 6.44953 18.2305 7.17899 17.4531C8.82188 15.7401 10.8791 14.6393 12.9294 13.6875C14.2993 13.0788 15.9179 12.9213 17.3809 13.7707C17.8845 14.1342 17.9767 14.6548 18.0435 15.0291C17.8662 18.4407 15.2467 20.014 13.3 21.8229C12.8125 22.221 12.2532 22.6694 11.6785 23.0914C11.4094 23.2812 10.9094 23.5937 10.3136 23.2803C9.68364 22.8425 9.73078 22.2892 9.76738 21.9003C9.78801 21.7595 9.82009 21.6225 9.85915 21.4959C10.0691 20.8983 10.277 20.735 10.6715 20.0949C10.6981 20.1064 10.7247 20.1181 10.7512 20.1298C11.1363 19.6179 11.3924 19.2936 11.9298 18.8448C12.3765 18.4535 13.655 17.6086 14.1015 17.3694C14.3312 17.2398 14.272 17.3351 14.4841 17.2117C14.8448 16.9998 15.5932 16.5083 16.1044 16.2452C16.5664 16.0039 17.3765 15.6674 17.7304 15.4853C17.9948 15.3486 18.2638 15.2083 18.5352 15.0665C19.6413 14.4734 21.0368 14.2007 22.3079 14.3527C22.4104 14.3632 22.519 14.379 22.6223 14.3962C23.1252 14.4681 23.474 14.761 23.5761 14.831C23.6863 14.9079 23.7658 14.9618 23.8363 15.0079C23.946 15.0845 24.0403 15.151 24.1345 15.2925C24.3185 15.5672 24.3801 15.9214 24.3786 16.2053C24.3583 17.3062 23.7107 18.1835 23.3223 18.767C21.5954 21.1552 19.2585 23.087 16.8943 24.67C16.7754 24.7478 16.6472 24.8304 16.5167 24.9129C16.0236 25.2778 15.184 25.2178 14.7295 25.0504C14.3141 24.9025 13.8028 24.7879 13.4954 24.0597C13.1991 23.0959 13.8216 22.3322 14.2447 21.9081C14.7105 21.4511 15.1743 21.1479 15.5645 20.9088C15.8801 20.7211 15.8338 20.8356 16.0948 20.6797C16.3846 20.5099 16.5187 20.3827 16.6564 20.3036C17.5869 19.7464 19.7424 18.7665 20.6963 18.4543C20.8792 18.3921 21.0273 18.3949 21.1342 18.353C21.1887 18.3318 21.2967 18.2483 21.4641 18.1796C21.6962 18.0844 21.919 17.9951 22.1319 17.9113C23.3814 17.4279 24.5638 17.3504 25.9205 17.5553C25.9356 17.5575 25.9504 17.5596 25.9649 17.5618C26.2449 17.5965 26.5617 17.7632 26.7407 18.0282C26.9231 18.2905 26.9692 18.5814 26.9674 18.8291C26.8665 22.1126 23.6702 24.0029 21.3012 25.2337C20.678 25.5463 20.2002 25.6468 20.1137 25.6903C20.0904 25.7017 20.0687 25.7136 20.0478 25.726C19.9547 25.7783 19.8695 25.8353 19.7301 25.89C19.5886 25.9285 19.3989 26.0446 18.9926 25.8622C18.7204 25.7393 18.5511 25.335 18.6091 25.0761C19.1743 23.2026 20.9415 22.6237 21.9392 21.8746C22.0573 21.7988 22.1833 21.7151 22.3149 21.6268L22.4246 21.5788C22.991 21.3721 23.6386 21.1202 24.1421 20.965C24.6496 20.8044 25.8734 20.5328 26.097 20.44C26.2287 20.3827 26.2769 20.2878 26.4433 20.2389ZM25.5012 20.5749C25.5908 20.7175 25.8592 19.8619 25.6607 20.139C25.6227 20.2011 25.4863 20.54 25.5012 20.5749ZM11.3958 20.4493C11.4296 20.467 11.4632 20.4849 11.4968 20.5029C11.5631 20.4037 11.6379 20.3008 11.7116 20.2041C11.648 20.2368 11.583 20.2725 11.5194 20.3085C11.4769 20.3555 11.4372 20.4006 11.3958 20.4493Z" fill="#FFE2D2"/>
</g>
<defs>
<clipPath id="clip0_676_100">
<rect width="30.1431" height="32.9341" fill="white" transform="translate(0.0688477)"/>
</clipPath>
</defs>
</svg>
