<svg width="71" height="43" viewBox="0 0 71 43" fill="none" xmlns="http://www.w3.org/2000/svg">
<g clip-path="url(#clip0_761_93)">
<path d="M8.30234 41.2861L1.44525 5.56847L68.6369 2.09106L58.3828 31.3817L8.30234 41.2861Z" fill="#C075E3"/>
<path d="M7.25954 18.5719L14.3091 18.009L14.383 18.9341L7.3334 19.4969L7.25954 18.5719ZM9.00522 25.1578L13.8538 24.7707L13.9226 25.632L9.07399 26.0191L9.00522 25.1578ZM9.18477 27.4067L13.9695 27.0246L14.0447 27.9657L9.2599 28.3477L9.18477 27.4067ZM10.2367 15.6537L11.2575 15.5722L11.7885 22.223L10.7677 22.3045L10.2367 15.6537ZM10.8933 23.2736L11.7545 23.2048L12.1111 27.6706L11.2498 27.7394L10.8933 23.2736ZM13.243 14.3061L13.9644 15.0992C13.4128 15.2931 12.7637 15.4733 12.0173 15.6399C11.2815 15.8057 10.5174 15.9523 9.72503 16.0797C8.93266 16.2072 8.17049 16.3108 7.43852 16.3907C7.40877 16.2861 7.36052 16.1508 7.29377 15.9849C7.22702 15.819 7.15708 15.6802 7.08395 15.5683C7.61304 15.494 8.16298 15.4126 8.73375 15.3242C9.30368 15.2252 9.86255 15.1217 10.4104 15.0138C10.9688 14.905 11.4892 14.7886 11.9715 14.6645C12.4645 14.5395 12.8883 14.42 13.243 14.3061ZM7.99541 16.7315L8.79099 16.4432C8.93981 16.6989 9.09564 16.9753 9.25848 17.2726C9.42133 17.57 9.5374 17.8175 9.60669 18.0153L8.7843 18.3699C8.70353 18.1623 8.58661 17.9041 8.43355 17.5953C8.29112 17.2857 8.14507 16.9977 7.99541 16.7315ZM12.7407 15.855L13.6912 16.1001C13.5313 16.5088 13.3725 16.9335 13.2151 17.3741C13.0568 17.804 12.8996 18.1804 12.7435 18.5032L11.9416 18.3104C12.0854 17.9672 12.2352 17.5647 12.3909 17.1028C12.5458 16.6303 12.6624 16.2144 12.7407 15.855ZM10.2299 18.7841L10.9954 19.1243C10.7563 19.6142 10.4599 20.1247 10.1064 20.6559C9.7627 21.1756 9.38984 21.6655 8.98785 22.1256C8.59649 22.5848 8.19919 22.9697 7.79595 23.2801C7.74153 23.1346 7.6531 22.9651 7.53064 22.7716C7.41797 22.5666 7.314 22.4037 7.21875 22.2829C7.58286 22.0184 7.95825 21.6941 8.34491 21.3102C8.73073 20.9155 9.09316 20.496 9.4322 20.0516C9.77124 19.6072 10.0371 19.1847 10.2299 18.7841ZM8.2834 22.9523L14.3601 22.4671L14.8465 28.5597L13.8736 28.6374L13.4623 23.4858L9.29954 23.8181L9.72484 29.1452L8.78384 29.2203L8.2834 22.9523ZM14.2471 14.8198L16.8787 14.6097L16.9602 15.6305L14.3286 15.8406L14.2471 14.8198ZM16.48 14.6416L17.4848 14.5614L18.4729 26.938C18.4967 27.2357 18.4839 27.4775 18.4345 27.6633C18.386 27.8598 18.2646 28.014 18.0702 28.1258C17.8864 28.2368 17.6306 28.316 17.3027 28.3636C16.9854 28.4104 16.5981 28.452 16.1409 28.4885C16.1184 28.3405 16.061 28.1578 15.9688 27.9404C15.8871 27.7222 15.8032 27.5417 15.7169 27.3988C16.058 27.3822 16.3667 27.3629 16.6432 27.3409C16.9303 27.3179 17.127 27.3022 17.2333 27.2938C17.4026 27.2695 17.4804 27.1724 17.4669 27.0022L16.48 14.6416ZM17.8516 14.5321L20.6109 14.3118L20.6923 15.3325L17.9331 15.5528L17.8516 14.5321ZM20.0686 14.3551L21.1053 14.2723L22.0921 26.633C22.1168 26.9413 22.0937 27.1893 22.0231 27.3768C21.9631 27.5635 21.8412 27.7124 21.6575 27.8233C21.4631 27.9352 21.202 28.0149 20.874 28.0624C20.5461 28.11 20.1376 28.1533 19.6485 28.1924C19.626 28.0444 19.5739 27.8613 19.4923 27.6431C19.4115 27.4355 19.328 27.2603 19.2416 27.1174C19.5934 27.1 19.9181 27.0794 20.2158 27.0556C20.5242 27.031 20.7262 27.0149 20.8219 27.0072C20.9167 26.989 20.9788 26.9626 21.0082 26.9282C21.0473 26.8822 21.0631 26.8114 21.0554 26.7157L20.0686 14.3551ZM14.3978 17.713L15.1896 17.3769C15.3648 17.6947 15.5372 18.0447 15.7068 18.4271C15.8871 18.8086 16.0501 19.1755 16.196 19.5277C16.3418 19.8799 16.4572 20.1863 16.5422 20.447L15.6943 20.8839C15.6191 20.6117 15.5081 20.2942 15.3614 19.9314C15.2139 19.5579 15.0553 19.18 14.8857 18.7976C14.7258 18.4038 14.5632 18.0422 14.3978 17.713ZM18.0674 17.4361L18.8949 17.1453C19.0595 17.4639 19.2208 17.8095 19.379 18.1821C19.5469 18.5432 19.7034 18.8945 19.8483 19.2361C20.0039 19.5768 20.1234 19.8669 20.2067 20.1063L19.339 20.4966C19.2647 20.235 19.155 19.9335 19.01 19.5919C18.8642 19.2397 18.7122 18.8774 18.554 18.5048C18.395 18.1215 18.2328 17.7653 18.0674 17.4361ZM18.3056 24.2387C18.5247 23.9002 18.7959 23.4773 19.1192 22.97C19.4531 22.4618 19.7903 21.9266 20.1306 21.3644L20.7857 22.1307C20.5147 22.6231 20.2224 23.1173 19.9089 23.6131C19.5953 24.109 19.2907 24.5827 18.9951 25.0344L18.3056 24.2387ZM14.6417 24.7881C14.8599 24.4389 15.1356 24.0049 15.4687 23.4861C15.8116 22.9558 16.1528 22.4042 16.4922 21.8314L17.1486 22.6137C16.8678 23.1176 16.5711 23.6228 16.2584 24.1293C15.9457 24.6358 15.6362 25.1153 15.3299 25.5678L14.6417 24.7881ZM11.0119 19.3316L11.6838 18.7002C12.0699 18.9796 12.459 19.2963 12.8511 19.6503C13.253 19.9927 13.6282 20.3373 13.9769 20.6839C14.3248 21.02 14.601 21.3297 14.8055 21.613L14.0921 22.328C13.8983 22.0439 13.6323 21.728 13.2942 21.3805C12.9553 21.0223 12.5845 20.6667 12.1818 20.3136C11.7888 19.9491 11.3989 19.6218 11.0119 19.3316ZM24.8037 17.1712L31.8533 16.6083L31.9271 17.5334L24.8776 18.0962L24.8037 17.1712ZM26.5494 23.7571L31.398 23.37L31.4667 24.2313L26.6182 24.6184L26.5494 23.7571ZM26.7289 26.006L31.5137 25.6239L31.5888 26.565L26.8041 26.947L26.7289 26.006ZM27.7809 14.253L28.8017 14.1715L29.3327 20.8223L28.3119 20.9038L27.7809 14.253ZM28.4374 21.8729L29.2987 21.8041L29.6552 26.2699L28.794 26.3387L28.4374 21.8729ZM30.7872 12.9054L31.5086 13.6985C30.957 13.8924 30.3079 14.0726 29.5615 14.2392C28.8257 14.405 28.0616 14.5516 27.2692 14.679C26.4768 14.8065 25.7147 14.9101 24.9827 14.99C24.9529 14.8854 24.9047 14.7501 24.8379 14.5842C24.7712 14.4183 24.7013 14.2795 24.6281 14.1676C25.1572 14.0933 25.7072 14.0119 26.2779 13.9235C26.8479 13.8245 27.4067 13.721 27.9545 13.6131C28.513 13.5043 29.0334 13.3879 29.5157 13.2638C30.0086 13.1388 30.4325 13.0193 30.7872 12.9054ZM25.5396 15.3308L26.3352 15.0425C26.484 15.2982 26.6398 15.5746 26.8027 15.8719C26.9655 16.1693 27.0816 16.4168 27.1509 16.6146L26.3285 16.9692C26.2477 16.7616 26.1308 16.5034 25.9777 16.1946C25.8353 15.885 25.6892 15.597 25.5396 15.3308ZM30.2849 14.4543L31.2354 14.6994C31.0754 15.1081 30.9167 15.5328 30.7593 15.9734C30.601 16.4033 30.4438 16.7797 30.2876 17.1025L29.4858 16.9097C29.6296 16.5665 29.7793 16.164 29.9351 15.7021C30.09 15.2296 30.2066 14.8137 30.2849 14.4543ZM27.774 17.3834L28.5395 17.7236C28.3004 18.2135 28.0041 18.724 27.6506 19.2552C27.3069 19.7749 26.934 20.2648 26.532 20.7249C26.1407 21.1841 25.7434 21.569 25.3401 21.8794C25.2857 21.7339 25.1973 21.5644 25.0748 21.3709C24.9621 21.1659 24.8582 21.003 24.7629 20.8822C25.127 20.6177 25.5024 20.2934 25.8891 19.9095C26.2749 19.5148 26.6373 19.0953 26.9764 18.6509C27.3154 18.2065 27.5813 17.784 27.774 17.3834ZM25.8276 21.5516L31.9042 21.0664L32.3907 27.159L31.4178 27.2367L31.0065 22.0851L26.8437 22.4174L27.269 27.7445L26.328 27.8196L25.8276 21.5516ZM31.7913 13.4191L34.4229 13.209L34.5044 14.2298L31.8728 14.4399L31.7913 13.4191ZM34.0242 13.2409L35.029 13.1607L36.0171 25.5373C36.0409 25.835 36.0281 26.0768 35.9787 26.2626C35.9302 26.4591 35.8087 26.6133 35.6144 26.7251C35.4306 26.8361 35.1748 26.9153 34.8469 26.9629C34.5296 27.0097 34.1423 27.0513 33.6851 27.0878C33.6626 26.9398 33.6052 26.7571 33.5129 26.5397C33.4313 26.3215 33.3473 26.141 33.261 25.9981C33.6021 25.9815 33.9109 25.9622 34.1874 25.9402C34.4745 25.9172 34.6712 25.9015 34.7775 25.8931C34.9468 25.8688 35.0246 25.7717 35.011 25.6015L34.0242 13.2409ZM35.3958 13.1314L38.155 12.9111L38.2365 13.9318L35.4773 14.1521L35.3958 13.1314ZM37.6128 12.9544L38.6495 12.8716L39.6363 25.2323C39.6609 25.5406 39.6379 25.7886 39.5673 25.9761C39.5073 26.1628 39.3854 26.3117 39.2017 26.4226C39.0073 26.5345 38.7461 26.6142 38.4182 26.6617C38.0903 26.7093 37.6818 26.7526 37.1927 26.7917C37.1701 26.6437 37.1181 26.4606 37.0365 26.2424C36.9557 26.0348 36.8721 25.8596 36.7858 25.7167C37.1376 25.6993 37.4623 25.6787 37.76 25.6549C38.0683 25.6303 38.2704 25.6142 38.3661 25.6065C38.4609 25.5883 38.523 25.5619 38.5524 25.5275C38.5915 25.4815 38.6072 25.4107 38.5996 25.315L37.6128 12.9544ZM31.942 16.3123L32.7338 15.9762C32.9089 16.294 33.0814 16.644 33.251 17.0264C33.4313 17.4079 33.5943 17.7748 33.7401 18.127C33.886 18.4792 34.0014 18.7856 34.0864 19.0463L33.2385 19.4832C33.1632 19.211 33.0523 18.8935 32.9056 18.5307C32.7581 18.1572 32.5995 17.7793 32.4299 17.3969C32.27 17.0031 32.1074 16.6415 31.942 16.3123ZM35.6116 16.0354L36.4391 15.7446C36.6036 16.0632 36.765 16.4088 36.9231 16.7814C37.0911 17.1425 37.2475 17.4938 37.3925 17.8354C37.5481 18.1761 37.6676 18.4662 37.7509 18.7056L36.8832 19.0959C36.8088 18.8343 36.6991 18.5328 36.5542 18.1912C36.4083 17.839 36.2564 17.4767 36.0982 17.1041C35.9392 16.7208 35.777 16.3646 35.6116 16.0354ZM35.8498 22.838C36.0688 22.4995 36.34 22.0766 36.6634 21.5693C36.9973 21.0611 37.3344 20.5259 37.6748 19.9637L38.3298 20.73C38.0588 21.2224 37.7666 21.7166 37.4531 22.2124C37.1395 22.7083 36.8349 23.182 36.5393 23.6337L35.8498 22.838ZM32.1859 23.3874C32.4041 23.0382 32.6798 22.6042 33.0129 22.0854C33.3557 21.5551 33.6969 21.0035 34.0364 20.4307L34.6928 21.213C34.412 21.7169 34.1152 22.2221 33.8026 22.7286C33.4899 23.2351 33.1804 23.7146 32.8741 24.1671L32.1859 23.3874ZM28.5561 17.9309L29.228 17.2995C29.6141 17.5789 30.0032 17.8956 30.3953 18.2496C30.7971 18.592 31.1724 18.9366 31.5211 19.2832C31.869 19.6193 32.1452 19.929 32.3497 20.2123L31.6363 20.9273C31.4424 20.6432 31.1764 20.3273 30.8384 19.9798C30.4995 19.6216 30.1287 19.266 29.7259 18.9129C29.333 18.5484 28.9431 18.2211 28.5561 17.9309ZM45.964 18.6438L55.2624 17.9014L55.8698 25.5092L54.6736 25.6047L54.1427 18.9539L47.1888 19.509L47.7198 26.1599L46.5714 26.2516L45.964 18.6438ZM42.5902 16.7944L56.6574 15.6713L56.7363 16.6602L42.6691 17.7833L42.5902 16.7944ZM43.5825 14.5483L55.5604 13.592L55.6368 14.549L43.6589 15.5053L43.5825 14.5483ZM46.8926 20.6242L54.7237 19.9989L54.7912 20.8442L46.9601 21.4695L46.8926 20.6242ZM47.0492 22.5859L54.8803 21.9607L54.9465 22.7901L47.1154 23.4153L47.0492 22.5859ZM47.098 24.6044L55.0407 23.9703L55.1171 24.9273L47.1744 25.5614L47.098 24.6044ZM54.4349 10.9532L55.2692 11.7534C54.5368 11.9617 53.7016 12.1567 52.7638 12.3386C51.826 12.5205 50.8333 12.6854 49.7857 12.8332C48.7382 12.981 47.6791 13.1191 46.6086 13.2474C45.5372 13.365 44.5071 13.4633 43.5183 13.5422C43.4975 13.4155 43.4532 13.2639 43.3856 13.0874C43.3287 12.91 43.2685 12.7596 43.2052 12.6363C44.1719 12.5484 45.1803 12.4465 46.2304 12.3305C47.2912 12.2138 48.3294 12.0827 49.345 11.9374C50.3607 11.7921 51.306 11.6364 52.1808 11.4703C53.0557 11.3041 53.8071 11.1318 54.4349 10.9532ZM47.9822 12.5599L49.2479 12.7317C48.9883 14.0365 48.6198 15.3179 48.1424 16.5759C47.6748 17.8224 47.056 18.9846 46.286 20.0627C45.516 21.1407 44.564 22.0834 43.43 22.8909C43.3701 22.8101 43.2876 22.715 43.1825 22.6057C43.0873 22.4849 42.9876 22.3752 42.8834 22.2765C42.7792 22.1778 42.6812 22.0893 42.5893 22.011C43.6752 21.2716 44.5792 20.3969 45.3011 19.3869C46.0336 18.3761 46.6154 17.2863 47.0464 16.1176C47.4774 14.9489 47.7894 13.763 47.9822 12.5599Z" fill="white"/>
</g>
<defs>
<clipPath id="clip0_761_93">
<rect width="71" height="43" fill="white"/>
</clipPath>
</defs>
</svg>
