<svg width="338" height="271" viewBox="0 0 338 271" fill="none" xmlns="http://www.w3.org/2000/svg">
<path d="M222.206 90.6963L332.832 89.5625L298.713 227.534L179.691 252.81L68.1381 173.092L123.507 38.5508L222.206 90.6963Z" fill="#FF61B0"/>
<path d="M116.309 22.0944L215.008 74.2398L325.634 73.1067L291.515 211.078L172.492 236.354L60.9394 156.636L116.309 22.0944Z" fill="#7DC5E4"/>
<path d="M110.073 144.231C114.173 146.252 118.321 148.194 123.022 149.128C123.105 149.209 123.209 149.273 123.322 149.319C125.141 150.545 127.295 151.157 129.53 151.616C130.701 151.856 131.885 152.489 132.97 151.236C135.046 150.379 134.495 148.918 134.359 147.549C134.229 147.177 134.092 146.809 133.962 146.437C134.289 145.072 133.242 144.166 132.764 143.07C132.382 142.53 132.002 141.986 131.616 141.445C131.422 140.691 131.031 140.067 130.251 139.689C129.689 138.431 128.776 137.412 127.624 136.558C127.572 135.705 126.887 135.367 126.115 135.098C126.036 134.988 125.927 134.912 125.784 134.87C125.692 134.674 125.599 134.478 125.506 134.282C125.271 133.584 124.671 133.171 124.045 132.774C124.103 132.219 123.542 132.457 123.263 132.329C123.278 132.067 123.158 131.911 122.847 131.903C122.641 131.62 122.437 131.333 122.231 131.049C121.719 130.669 121.199 130.29 120.687 129.909L120.787 129.744C121.806 129.867 122.671 130.271 123.504 130.735C123.688 130.732 123.877 130.731 124.059 130.732C124.827 131.01 125.592 131.292 126.36 131.57C128.536 132.579 130.713 133.583 132.889 134.591C133.578 135.624 134.999 135.627 136.031 136.184C136.916 136.54 137.809 136.894 138.695 137.251L138.699 137.252C139.029 138.162 140.132 138.119 140.866 138.531C143.949 139.641 146.854 141.08 150.113 141.856C152.342 142.389 154.345 144.153 156.997 142.381C157.305 142.201 157.617 142.023 157.925 141.844C159.044 140.896 160.09 139.928 159.215 138.504C159.017 139.143 158.819 139.783 158.62 140.422C158.093 140.405 157.568 140.383 157.036 140.364C156.82 141.229 155.999 140.386 155.632 140.837C154.168 140.823 152.696 140.812 151.231 140.798C150.852 139.713 149.893 139.38 148.686 139.37C148.379 139.262 148.068 139.152 147.764 139.04C146.684 138.653 145.598 138.268 144.519 137.88C143.974 137.528 143.505 137.067 142.74 137.048C142.687 136.912 142.581 136.863 142.415 136.893L142.397 136.886C141.152 135.786 139.448 135.426 137.85 134.893C137.767 134.772 137.652 134.689 137.495 134.641C136.957 133.695 135.783 133.656 134.828 133.305C133.084 132.45 131.557 131.266 129.527 130.857C129.122 130.359 128.477 130.222 127.84 130.069C126.344 128.769 124.384 128.189 122.42 127.627C121.688 127.282 121.278 126.357 120.13 126.758C119.311 126.421 118.504 126.114 117.564 126.01C115.937 125.835 115.184 126.579 115.483 127.811C115.776 129.035 116.172 130.414 118.02 130.61C118.104 131.656 119.187 131.803 119.928 132.252C120.546 132.47 121.162 132.692 121.775 132.908C121.157 132.69 120.541 132.468 119.928 132.252C120.038 133.526 121.595 133.402 122.284 134.121C124.505 136.45 126.729 138.775 128.95 141.104C129.161 141.379 129.376 141.655 129.586 141.93C129.835 142.501 130.081 143.077 130.329 143.649C130.355 143.785 130.443 143.857 130.604 143.866C130.797 143.857 130.989 143.841 131.154 143.811C130.986 143.845 130.797 143.857 130.604 143.866C130.842 144.222 131.079 144.572 131.317 144.927C131.604 145.407 131.889 145.891 132.177 146.371C131.935 147.202 131.83 148.007 132.496 148.676C132.313 149.043 132.132 149.406 131.954 149.775C130.183 149.315 128.415 148.851 126.645 148.391C125.239 147.575 123.619 147.165 122.026 146.704C121.11 146.352 120.195 145.999 119.279 145.647C117.558 144.882 116.087 143.668 113.966 143.609C112.609 142.255 110.444 142.225 108.746 141.418C108.236 141.175 107.514 140.641 107.04 141.492C106.669 142.154 106.474 142.87 107.296 143.496C107.988 144.024 108.865 143.827 109.587 144.128C109.751 144.153 109.912 144.192 110.073 144.231ZM121.523 129.298C121.546 129.256 121.573 129.215 121.598 129.169C121.571 129.209 121.546 129.256 121.523 129.298C121.44 129.287 121.357 129.267 121.285 129.236C121.357 129.267 121.435 129.286 121.523 129.298ZM125.452 136.021C126.742 137.294 127.919 138.642 128.951 140.104C127.917 138.647 126.735 137.297 125.452 136.021ZM129.318 150.305C129.512 150.326 129.703 150.361 129.881 150.411C129.701 150.355 129.512 150.326 129.318 150.305ZM126.66 149.361L126.774 149.161C126.77 149.159 126.66 149.361 126.66 149.361ZM127.798 150.321C127.072 150.569 126.689 150.499 126.58 150.181C126.694 150.501 127.069 150.573 127.798 150.321Z" fill="white"/>
<path d="M156.781 139.28C157.167 137.833 157.45 136.407 156.24 135.229C155.908 134.563 156.249 133.559 155.105 133.297C154.87 132.8 154.817 132.21 154.213 131.914C154.065 131.558 153.917 131.201 153.769 130.845C153.441 130.061 152.714 129.59 152.004 129.111C151.797 128.842 151.588 128.577 151.382 128.308C151.307 127.518 150.687 127.181 149.941 126.946C149.698 126.684 149.458 126.417 149.22 126.156C147.903 124.756 146.618 123.318 144.593 122.618C144.004 121.218 142.355 120.755 141.309 119.756C140.492 119.302 139.677 118.844 138.86 118.39C140.205 118.023 141.075 118.819 142.1 119.23C143.015 119.255 143.713 119.957 144.714 119.706C144.985 119.776 145.259 119.842 145.53 119.912C146.735 120.791 148.364 120.742 149.782 121.159C151.221 121.926 152.833 122.287 154.546 122.392C155.87 123.042 157.429 123.022 158.876 123.316C159.627 123.622 160.382 123.771 161.174 123.255C161.303 123.308 161.434 123.326 161.581 123.306C161.737 123.368 161.893 123.431 162.044 123.491C162.792 123.435 163.54 123.378 164.288 123.321C165.172 123.671 165.806 123.375 166.251 122.608C166.749 122.122 167.245 121.641 167.743 121.156C168.988 118.97 169.138 116.763 168.494 114.535C168.255 113.17 167.977 111.825 166.75 110.879C166.697 110.686 166.643 110.498 166.586 110.303C166.753 108.969 165.166 108.613 164.786 107.587C164.796 107.14 164.801 106.691 164.164 106.586C164.066 106.485 163.953 106.404 163.822 106.336C163.704 105.397 162.974 104.821 162.311 104.206C162.181 104.054 162.054 103.899 161.925 103.747C160.313 101.922 158.694 100.108 156.481 98.7989C156.415 98.6707 156.306 98.5911 156.15 98.5585C154.998 96.9859 153.372 95.8632 151.598 94.8838C150.89 93.9997 149.993 93.3233 148.815 92.9444C147.879 91.8821 146.681 91.1198 145.265 90.599C145.397 90.316 145.528 90.0371 145.66 89.7541C145.821 89.7884 145.983 89.8186 146.139 89.8512C148.733 90.4536 151.188 91.4703 154.001 91.4305C154.329 91.8436 154.804 91.9489 155.371 91.8753C157.937 92.9278 160.738 93.3787 163.53 93.8461C164.308 94.1422 165.075 94.4589 165.994 94.3069C166.148 94.3535 166.306 94.4019 166.46 94.4485C168.354 95.6157 170.754 95.4684 172.906 95.963C173.295 96.0962 173.682 96.2335 174.067 96.3651C174.163 96.2075 174.26 96.05 174.357 95.8925C174.499 95.9399 174.646 95.9891 174.791 96.0324C175.324 96.0701 175.855 96.1021 176.389 96.1398C176.569 95.8297 176.753 95.5212 176.956 95.3285C176.753 95.5212 176.571 95.8256 176.389 96.1398C175.855 96.1021 175.324 96.0701 174.791 96.0324C174.648 95.9849 174.499 95.9399 174.357 95.8925C174.26 96.05 174.163 96.2075 174.067 96.3651C175.795 96.9412 177.507 97.5661 179.463 97.4737C180.101 97.6389 180.736 97.7984 181.374 97.9636C182.405 98.1646 183.441 98.3473 184.467 98.5665C185.573 98.7998 186.68 98.8308 187.368 97.7967C188.041 96.7816 187.528 95.9889 186.595 95.3983C186.594 94.8432 186.026 94.7583 185.653 94.507C184.886 93.5914 184.223 92.595 183.056 92.0071C181.839 90.7128 180.392 89.6409 178.836 88.6679C178.2 88.2309 177.566 87.7997 176.93 87.3627C176.731 87.3688 176.535 87.3707 176.336 87.3768C176.219 87.5814 176.097 87.7843 175.978 87.993C176.095 87.7884 176.212 87.5838 176.336 87.3768C176.532 87.3749 176.731 87.3688 176.928 87.3668C176.526 86.6297 175.657 86.4193 174.931 86.0481C174.205 84.9889 172.834 84.6532 171.784 83.9599C170.663 83.0177 169.512 82.1193 167.95 81.7278C167.157 80.4808 165.248 80.5361 164.337 79.4285C163.778 79.1784 163.214 78.9266 162.656 78.6765C161.968 77.6958 160.655 77.604 159.601 77.1469C159.354 77.0017 159.107 76.8565 158.863 76.7071L158.856 76.6997C158.232 75.891 157.185 75.6892 156.202 75.3917C155.923 75.2646 155.65 75.1391 155.371 75.012C154.469 74.0762 153.155 73.7465 151.891 73.3458C151.742 73.281 151.592 73.2162 151.443 73.1514C151.361 73.0421 151.242 72.9732 151.097 72.9398C150.249 71.9149 148.834 71.7113 147.61 71.2265C146.972 71.0117 146.681 70.2708 145.822 70.3908C145.714 70.3509 145.601 70.339 145.481 70.3495C144.581 69.3699 143.224 69.0689 141.935 68.6641C141.343 68.4263 140.752 68.1943 140.159 67.9565C140.132 67.8275 140.046 67.7761 139.897 67.8005C139.239 67.0041 138.19 66.7767 137.197 66.456C136.84 66.3048 136.502 66.0866 136.12 66.0105C135.56 65.9033 134.9 65.1804 134.419 65.9441C133.917 66.7448 134.729 67.0584 135.448 67.2734C136.083 68.002 136.833 68.5202 138.029 68.2276C138.057 68.307 138.116 68.3584 138.202 68.39C138.322 68.5481 138.442 68.7062 138.562 68.8643C138.851 69.5201 139.602 69.5981 140.226 69.8376C140.287 69.7262 140.343 69.6132 140.403 69.5019C140.304 69.4355 140.2 69.3774 140.084 69.33C140.2 69.3774 140.304 69.4355 140.399 69.5002C140.338 69.6116 140.282 69.7246 140.221 69.8359C141.945 70.3212 143.218 71.6016 145.135 71.752C146.096 72.8483 147.521 73.2832 148.97 73.6827C149.005 73.7992 149.093 73.8565 149.235 73.8444C149.642 74.7021 150.718 74.662 151.476 75.0448C151.623 75.1137 151.763 75.1851 151.91 75.2541C154.162 76.4239 156.256 77.8229 158.713 78.7066C159.876 79.4812 160.941 80.3877 162.447 80.7039L162.449 80.6998C162.684 81.4546 163.504 81.4642 164.169 81.6691C164.255 81.5322 164.34 81.3953 164.43 81.2601C164.345 81.397 164.259 81.5339 164.169 81.6691C165.404 82.8908 167.232 83.3945 168.667 84.378C169.041 85.4165 170.407 85.2111 171.132 85.8044L171.13 85.7986C172.461 86.9124 173.856 87.9502 175.69 88.4317C175.731 88.5458 175.82 88.6129 175.955 88.6331C177.205 90.8353 179.698 91.9306 181.598 93.5555L181.58 93.5786C181.787 93.8377 182 94.0943 182.206 94.3534C182.777 94.682 183.352 95.0123 183.922 95.3409C184.022 95.437 184.137 95.5141 184.268 95.5723C184.087 95.9658 183.807 96.2592 183.299 96.3149C182.579 95.9908 181.858 95.661 181.138 95.3369C180.98 95.3084 180.819 95.294 180.65 95.296C178.923 95.2254 177.454 94.3236 175.674 94.4214C174.7 94.1768 173.943 93.3835 172.748 93.7017C171.735 93.5768 170.88 92.9847 169.775 93.1281C169.483 93.0554 169.187 92.9811 168.896 92.9085C167.866 92.406 166.818 91.9366 165.524 92.129C165.219 92.0315 164.909 91.9324 164.606 91.8308C163.463 91.1579 162.037 91.2128 160.751 90.9129C160.138 90.6428 159.554 90.2894 158.766 90.5294C154.895 89.1406 150.79 88.3533 146.675 87.5925C146.555 87.5236 146.429 87.5167 146.286 87.5684C145.457 86.907 144.317 87.1758 143.327 86.9997C143.033 86.9015 142.737 86.7974 142.443 86.6992C141.885 86.2071 141.285 86.412 140.673 86.7268C140.151 86.7081 139.671 86.3235 139.098 86.6673C138.339 86.7248 137.578 86.727 137.506 87.7056C137.452 88.4729 137.533 89.0819 138.334 89.545C139.927 90.4677 141.595 91.2544 143.362 91.9091C143.374 92.8541 144.257 92.8077 144.974 92.9575C145.094 93.0462 145.225 93.1242 145.368 93.1914C149.124 95.9149 152.881 98.6383 156.637 101.362C156.984 101.762 157.324 102.164 157.671 102.564C157.953 103.801 159.23 104.118 160.233 104.689C160.306 104.855 160.381 105.026 160.454 105.191C161.072 106.469 161.875 107.625 162.986 108.598C163 108.272 163.02 107.947 163.035 107.621C162.448 107.311 162.212 106.868 162.195 106.322C162.212 106.868 162.453 107.313 163.035 107.621C163.02 107.947 163 108.272 162.986 108.598L163.015 108.574C163.172 109.112 163.249 109.7 164.022 109.836C164.201 110.125 164.381 110.413 164.564 110.704C165.059 111.49 165.559 112.278 166.054 113.064C166.268 115.242 167.106 117.362 166.279 119.637C166.214 119.777 166.151 119.922 166.086 120.061C165.852 120.401 165.613 120.739 165.379 121.079C164.756 121.206 164.075 121.099 163.532 121.558C163.351 121.581 163.166 121.602 162.988 121.62C160.311 121.21 157.635 120.8 154.958 120.39C153.732 119.969 152.547 119.453 151.146 119.483C150.838 119.389 150.531 119.296 150.228 119.204C149.589 118.871 148.974 118.476 148.116 118.784C148.048 118.72 147.969 118.666 147.878 118.623C147.44 118.001 146.872 117.648 145.958 118.03C145.541 117.481 145.018 117.135 144.173 117.379C143.673 116.912 142.918 117.001 142.285 116.828C141.991 116.71 141.692 116.59 141.398 116.472C139.073 115.617 136.885 114.47 134.267 114.23C134.26 114.114 134.192 114.059 134.059 114.065C133.445 113.408 132.617 113.202 131.639 113.293C130.409 112.91 129.333 112.133 127.852 112.41C127.182 112.134 126.721 112.302 126.601 112.99C126.464 113.771 126.651 114.593 127.499 114.801C129.797 115.368 131.417 116.94 133.644 117.586C135.987 118.957 138.328 120.333 140.67 121.705C140.941 122.364 141.703 122.461 142.294 122.752C142.648 123.526 143.56 123.787 144.174 124.325C144.553 124.915 145.691 124.66 145.876 125.466C146.646 126.665 147.812 127.505 149.12 128.214C149.358 128.445 149.596 128.676 149.829 128.906C149.893 129.008 149.99 129.079 150.124 129.103C150.101 129.773 150.752 130.042 151.111 130.481C151.112 130.907 151.402 131.103 151.836 131.173C152.154 131.835 152.186 132.644 152.98 133.06C153.168 133.114 153.353 133.172 153.541 133.226C153.355 133.168 153.168 133.114 152.98 133.06C153.173 134.18 154.084 134.882 154.836 135.673C154.981 137.47 155.633 139.244 154.617 141.079C155.134 141.096 155.65 141.117 156.172 141.135C156.391 140.533 156.586 139.907 156.781 139.28ZM181.823 93.1728C182.07 93.1891 182.262 93.1657 182.413 93.1074C182.262 93.1657 182.067 93.1933 181.823 93.1728ZM185.298 94.4309C185.056 94.3964 184.814 94.3817 184.575 94.4521C184.812 94.3858 185.056 94.3964 185.298 94.4309ZM163.294 92.893C162.978 92.8955 162.663 92.8443 162.345 92.8212C162.663 92.8443 162.973 92.8938 163.294 92.893ZM163.82 93.3933C164.545 93.3581 165.268 93.3269 165.993 93.2916C166.059 93.3703 166.107 93.4522 166.134 93.5316C166.109 93.4481 166.059 93.3703 165.993 93.2916C165.268 93.3269 164.545 93.3581 163.82 93.3933ZM140.218 87.792C140.274 87.6691 140.328 87.5503 140.384 87.4274C140.33 87.5462 140.274 87.6691 140.218 87.792ZM143.56 89.5215C143.707 89.5607 143.848 89.6024 143.992 89.6457C144.233 89.4026 144.354 89.0015 144.668 88.8445C144.354 89.0015 144.233 89.4026 143.997 89.6474C143.848 89.6024 143.701 89.5631 143.56 89.5215ZM141.57 90.2349C141.669 90.3013 141.771 90.3536 141.87 90.3902C141.766 90.3519 141.665 90.2996 141.57 90.2349ZM150.853 96.1697C150.672 95.9247 150.337 95.7024 150.192 95.441C150.337 95.7024 150.67 95.9288 150.853 96.1697C152.032 96.5982 152.814 97.3858 153.569 98.2031C152.814 97.3858 152.027 96.5965 150.853 96.1697ZM156.306 100.146C156.478 100.209 156.634 100.281 156.752 100.384C156.632 100.285 156.478 100.209 156.306 100.146ZM164.778 108.777C165.098 109.296 165.797 109.647 166.054 110.192C165.797 109.647 165.1 109.292 164.778 108.777ZM155.097 120.565C155.097 120.565 155.081 120.544 155.058 120.516L155.097 120.565ZM132.827 114.691C132.977 114.875 133.183 115.005 133.524 115.026C133.721 115.282 134 115.508 134.175 115.776C133.998 115.512 133.719 115.286 133.524 115.026C133.18 115.009 132.972 114.873 132.827 114.691ZM136.449 117.602C136.494 117.569 136.541 117.542 136.588 117.515C136.541 117.542 136.498 117.571 136.449 117.602ZM138.652 118.452C138.652 118.452 138.69 118.442 138.731 118.427L138.652 118.452Z" fill="white"/>
<path d="M263.151 179.013C258.347 178.433 253.566 177.77 249.121 176.082C248.992 176.1 248.861 176.094 248.736 176.072C246.351 176.058 244.174 175.42 242.048 174.629C240.936 174.214 239.511 174.083 239.613 172.608C238.625 170.924 240.184 170.122 241.344 169.178C241.733 168.97 242.125 168.766 242.514 168.558C243.304 167.383 244.83 167.242 246.051 166.674C246.769 166.468 247.488 166.258 248.21 166.053C248.943 165.594 249.733 165.33 250.642 165.445C252.054 164.799 253.561 164.508 255.131 164.459C255.827 163.855 256.63 163.951 257.45 164.143C257.596 164.102 257.74 164.101 257.886 164.142C258.111 164.044 258.335 163.946 258.559 163.848C259.282 163.451 260.075 163.449 260.876 163.472C261.256 163.032 261.519 163.492 261.838 163.539C262.028 163.337 262.243 163.283 262.496 163.434C262.876 163.329 263.259 163.22 263.639 163.114C264.339 163.092 265.041 163.075 265.74 163.053L265.787 162.88C264.886 162.455 263.889 162.317 262.872 162.238C262.728 162.143 262.579 162.046 262.434 161.955C261.612 161.772 260.788 161.593 259.966 161.41C257.466 161.055 254.967 160.696 252.467 160.342C251.127 160.756 249.998 160.039 248.752 159.929C247.776 159.745 246.796 159.555 245.82 159.37L245.815 159.369C244.854 159.875 244.013 159.285 243.114 159.218C239.816 158.479 236.408 158.074 233.227 156.999C231.05 156.265 228.106 156.556 227.366 153.904C227.259 153.615 227.148 153.326 227.042 153.037C226.883 151.771 226.797 150.525 228.586 149.915C228.252 150.488 227.917 151.061 227.583 151.634C228.015 151.888 228.448 152.138 228.884 152.393C228.391 153.142 229.689 152.934 229.633 153.453C230.806 154.184 231.981 154.92 233.154 155.65C234.288 155.04 235.305 155.279 236.269 155.882C236.595 155.958 236.926 156.034 237.254 156.105C238.407 156.365 239.564 156.63 240.718 156.889C241.42 156.904 242.147 156.801 242.767 157.174C242.914 157.1 243.036 157.118 243.145 157.224L243.164 157.228C244.997 157.044 246.624 157.64 248.301 158.054C248.461 158.006 248.616 158.004 248.777 158.048C249.93 157.62 250.891 158.186 251.918 158.409C253.958 158.659 256.078 158.556 258.003 159.281C258.706 159.118 259.323 159.343 259.945 159.551C262.131 159.348 264.131 159.91 266.12 160.489C266.965 160.603 268.001 160.128 268.603 161.005C269.511 161.17 270.388 161.351 271.213 161.75C272.637 162.443 272.663 163.374 271.479 164.134C270.306 164.891 268.932 165.71 267.317 164.92C266.446 165.651 265.475 165.212 264.542 165.169C263.884 165.018 263.226 164.87 262.574 164.719C263.231 164.871 263.889 165.019 264.542 165.169C263.475 166.055 262.336 165.176 261.238 165.359C257.687 165.957 254.137 166.552 250.586 167.15C250.208 167.247 249.825 167.342 249.447 167.439C248.811 167.735 248.173 168.037 247.537 168.334C247.412 168.421 247.287 168.43 247.152 168.355C247.006 168.25 246.866 168.142 246.758 168.036C246.865 168.147 247.006 168.25 247.152 168.355C246.689 168.498 246.233 168.637 245.771 168.779C245.175 168.989 244.577 169.202 243.98 169.412C243.533 170.148 242.998 170.797 241.956 170.955C241.819 171.319 241.683 171.679 241.541 172.042C243.299 172.597 245.057 173.149 246.815 173.704C248.556 173.812 250.156 174.328 251.773 174.794C252.77 174.997 253.767 175.199 254.763 175.402C256.716 175.707 258.816 175.553 260.543 176.583C262.659 176.268 264.398 177.342 266.365 177.604C266.956 177.682 267.94 177.653 267.661 178.522C267.447 179.199 267.051 179.827 265.918 179.874C264.963 179.914 264.42 179.325 263.616 179.182C263.467 179.118 263.309 179.065 263.151 179.013ZM265.547 162.178C265.562 162.135 265.571 162.091 265.586 162.044C265.577 162.088 265.562 162.135 265.547 162.178C265.621 162.212 265.703 162.239 265.783 162.252C265.703 162.239 265.626 162.213 265.547 162.178ZM257.265 165.161C255.264 165.45 253.295 165.851 251.353 166.41C253.294 165.856 255.268 165.455 257.265 165.161ZM243.223 173.767C243.054 173.685 242.875 173.614 242.696 173.561C242.882 173.61 243.054 173.685 243.223 173.767ZM246.057 174.414L246.12 174.208C246.125 174.209 246.057 174.414 246.057 174.414ZM244.416 174.548C244.802 175.099 245.16 175.241 245.491 175.061C245.155 175.239 244.801 175.103 244.416 174.548Z" fill="white"/>
<path d="M227.445 149.905C228.265 148.619 229.15 147.402 231.04 147.137C231.827 146.806 232.337 145.877 233.459 146.266C234.035 146.012 234.538 145.597 235.254 145.684C235.651 145.492 236.047 145.299 236.444 145.107C237.319 144.686 238.269 144.705 239.213 144.709C239.588 144.612 239.962 144.52 240.338 144.424C241.014 143.868 241.775 143.932 242.556 144.138C242.956 144.065 243.357 143.988 243.751 143.914C245.9 143.536 248.054 143.114 250.223 143.625C251.789 142.875 253.472 143.372 255.091 143.157C256.101 143.235 257.112 143.308 258.122 143.385C257.328 142.42 256.01 142.572 254.867 142.356C254.114 141.906 253.006 142.076 252.399 141.374C252.127 141.288 251.856 141.197 251.584 141.111C249.932 141.154 248.664 140.282 247.201 139.869C245.448 139.708 243.873 139.153 242.417 138.354C240.848 138.164 239.614 137.349 238.223 136.829C237.382 136.674 236.66 136.399 236.428 135.605C236.284 135.579 236.164 135.525 236.062 135.435C235.888 135.402 235.715 135.369 235.546 135.337C234.99 134.911 234.435 134.485 233.879 134.059C232.897 133.869 232.619 133.321 232.861 132.516C232.84 131.896 232.818 131.28 232.798 130.66C233.505 128.378 235.108 126.642 237.362 125.297C238.619 124.393 239.891 123.524 241.614 123.442C241.807 123.324 241.998 123.21 242.195 123.093C243.102 122.004 244.653 122.55 245.759 121.973C246.1 121.632 246.445 121.292 247.039 121.54C247.195 121.514 247.35 121.511 247.508 121.527C248.336 120.881 249.37 120.823 250.383 120.7C250.604 120.653 250.828 120.601 251.05 120.553C253.767 120.007 256.481 119.473 259.278 119.623C259.431 119.561 259.58 119.556 259.731 119.612C261.882 119.02 264.062 119.01 266.25 119.183C267.507 118.881 268.754 118.832 269.995 119.151C271.575 118.832 273.131 118.873 274.673 119.207C274.787 118.926 274.9 118.65 275.015 118.369C274.86 118.313 274.705 118.252 274.555 118.197C272.005 117.32 269.243 116.826 267.017 115.355C266.431 115.497 265.968 115.332 265.571 114.986C262.692 114.463 260.094 113.366 257.49 112.286C256.635 112.11 255.772 111.955 255.154 111.37C254.994 111.326 254.829 111.281 254.67 111.237C252.239 111.144 250.43 109.803 248.317 109.072C247.901 108.972 247.484 108.877 247.073 108.779C247.118 108.611 247.164 108.443 247.209 108.275C247.058 108.238 246.901 108.199 246.752 108.158C246.294 107.913 245.843 107.664 245.386 107.419C245.484 107.094 245.577 106.768 245.565 106.519C245.577 106.768 245.485 107.09 245.386 107.419C245.843 107.664 246.294 107.913 246.752 108.158C246.903 108.195 247.058 108.238 247.209 108.275C247.164 108.443 247.118 108.611 247.073 108.779C245.237 108.326 243.376 107.919 241.879 106.846C241.239 106.644 240.605 106.438 239.964 106.235C238.981 105.858 238.008 105.464 237.013 105.103C235.944 104.712 235.032 104.167 235.287 103.037C235.54 101.929 236.57 101.596 237.779 101.63C238.213 101.214 238.735 101.441 239.23 101.443C240.56 101.148 241.869 100.738 243.264 100.895C245.25 100.545 247.248 100.481 249.254 100.547C250.106 100.544 250.951 100.545 251.802 100.543C251.957 100.649 252.113 100.751 252.267 100.858C252.202 101.072 252.141 101.286 252.073 101.504C252.139 101.291 252.205 101.077 252.267 100.858C252.111 100.756 251.957 100.649 251.8 100.547C252.698 100.199 253.559 100.486 254.431 100.579C255.84 100.155 257.201 100.605 258.585 100.622C260.219 100.489 261.843 100.403 263.402 100.909C265.011 100.378 266.499 101.398 268.094 101.033C268.738 101.131 269.386 101.23 270.029 101.329C271.346 100.944 272.471 101.548 273.673 101.745C273.984 101.762 274.296 101.779 274.608 101.792L274.619 101.79C275.751 101.502 276.748 101.887 277.769 102.167C278.091 102.214 278.409 102.26 278.731 102.308C280.185 102.066 281.496 102.492 282.823 102.839C282.993 102.866 283.164 102.894 283.334 102.922C283.485 102.882 283.635 102.892 283.777 102.941C285.257 102.605 286.551 103.177 287.911 103.44C288.59 103.605 289.402 103.198 289.996 103.728C290.115 103.753 290.215 103.802 290.302 103.872C291.789 103.596 293.112 104.066 294.461 104.422C295.122 104.547 295.777 104.675 296.438 104.8C296.561 104.717 296.67 104.723 296.77 104.818C297.919 104.556 298.938 104.923 299.985 105.19C300.39 105.26 300.83 105.269 301.196 105.407C301.73 105.614 302.823 105.409 302.613 106.23C302.39 107.089 301.494 106.908 300.749 106.701C299.672 106.924 298.666 106.929 297.935 106.096C297.851 106.142 297.764 106.15 297.67 106.13C297.45 106.187 297.23 106.244 297.01 106.301C296.267 106.646 295.604 106.32 294.917 106.18C294.955 106.066 294.998 105.952 295.036 105.837C295.168 105.838 295.297 105.848 295.426 105.871C295.297 105.848 295.168 105.838 295.041 105.838C295.003 105.953 294.96 106.067 294.922 106.181C293.161 105.663 291.14 105.973 289.485 105.104C287.859 105.435 286.377 105.032 284.902 104.589C284.784 104.659 284.669 104.657 284.564 104.575C283.568 105.011 282.737 104.43 281.83 104.329C281.658 104.305 281.49 104.287 281.318 104.264C278.599 103.989 275.828 103.967 273.168 103.373C271.63 103.358 270.069 103.494 268.614 102.96L268.616 102.956C267.838 103.403 267.173 102.99 266.48 102.803C266.518 102.656 266.556 102.51 266.59 102.362C266.551 102.508 266.513 102.655 266.48 102.803C264.536 103.088 262.677 102.531 260.758 102.534C259.648 103.123 258.713 102.269 257.668 102.343L257.675 102.34C255.737 102.495 253.808 102.56 251.962 101.982C251.84 102.047 251.717 102.052 251.592 101.998C248.872 103.013 246.017 102.558 243.225 102.806L243.221 102.832C242.853 102.922 242.482 103.005 242.114 103.094C241.4 103.049 240.682 103.003 239.968 102.957C239.813 102.978 239.66 102.977 239.509 102.954C239.348 103.343 239.343 103.707 239.707 104.009C240.537 104.134 241.374 104.256 242.204 104.381C242.353 104.441 242.493 104.512 242.627 104.601C244.067 105.433 245.949 105.508 247.3 106.494C248.273 106.809 249.499 106.601 250.209 107.452C251.118 107.878 252.267 107.871 253.041 108.545C253.332 108.64 253.627 108.736 253.918 108.831C255.136 108.981 256.342 109.165 257.23 109.973C257.551 110.056 257.877 110.14 258.199 110.219C259.641 110.299 260.742 111.071 262.008 111.505C262.71 111.617 263.454 111.65 263.899 112.234C268.087 113.174 271.994 114.687 275.888 116.224C276.038 116.234 276.145 116.293 276.219 116.405C277.4 116.333 278.104 117.119 279.036 117.494C279.348 117.571 279.667 117.645 279.98 117.722C280.811 117.637 281.132 118.099 281.377 118.649C281.81 118.903 282.496 118.86 282.687 119.412C283.251 119.844 283.86 120.236 283.154 121.009C282.598 121.613 282.058 122.03 281.054 121.967C279.056 121.844 277.105 121.581 275.177 121.168C274.43 121.872 273.757 121.384 273.066 121.13C272.9 121.135 272.734 121.126 272.567 121.104C267.429 121.226 262.291 121.348 257.152 121.47C256.562 121.593 255.975 121.721 255.385 121.844C254.193 122.63 252.922 122.213 251.671 122.129C251.484 122.216 251.29 122.306 251.103 122.393C249.61 123.036 248.063 123.494 246.413 123.657C246.656 123.404 246.894 123.15 247.137 122.897C247.848 122.964 248.384 122.752 248.824 122.351C248.384 122.752 247.843 122.963 247.137 122.897C246.894 123.15 246.656 123.404 246.413 123.657L246.409 123.624C245.862 123.948 245.343 124.35 244.616 124.056C244.247 124.181 243.878 124.306 243.504 124.43C242.493 124.768 241.478 125.104 240.468 125.441C238.596 126.969 236.27 128.134 235.157 130.268C235.101 130.407 235.038 130.548 234.981 130.686C234.904 131.062 234.831 131.438 234.754 131.813C235.154 132.229 235.783 132.497 235.861 133.12C235.988 133.23 236.12 133.341 236.249 133.446C238.716 134.51 241.183 135.573 243.649 136.637C244.961 136.949 246.314 137.169 247.415 137.909C247.734 137.997 248.054 138.084 248.368 138.171C249.141 138.247 249.943 138.266 250.39 138.937C250.495 138.923 250.601 138.923 250.707 138.937C251.543 138.695 252.274 138.721 252.709 139.476C253.473 139.277 254.162 139.285 254.649 139.901C255.415 139.807 255.95 140.261 256.593 140.455C256.921 140.517 257.254 140.58 257.582 140.642C260.115 141.191 262.765 141.451 265.051 142.612C265.148 142.528 265.245 142.522 265.348 142.594C266.353 142.415 267.177 142.685 267.89 143.255C269.176 143.597 270.645 143.564 271.617 144.532C272.37 144.668 272.608 145.03 272.167 145.609C271.668 146.267 270.876 146.788 270.034 146.51C267.748 145.759 265.223 146.11 262.932 145.454C259.983 145.284 257.032 145.119 254.082 144.949C253.351 145.306 252.664 144.989 251.963 144.905C251.074 145.305 250.14 145.034 249.228 145.124C248.463 145.373 247.749 144.598 246.972 145.109C245.419 145.616 243.828 145.65 242.226 145.512C241.855 145.564 241.483 145.616 241.117 145.669C240.986 145.713 240.853 145.716 240.727 145.666C240.223 146.182 239.49 146.05 238.86 146.196C238.526 146.516 238.141 146.515 237.738 146.345C236.966 146.68 236.31 147.271 235.348 147.177C235.155 147.122 234.961 147.07 234.768 147.015C234.962 147.066 235.155 147.122 235.348 147.177C234.319 147.921 233.041 147.981 231.82 148.191C230.301 149.467 228.394 150.467 227.777 152.367C227.349 152.114 226.919 151.866 226.486 151.613C226.78 151.047 227.113 150.476 227.445 149.905ZM243.343 102.403C243.133 102.289 242.997 102.173 242.921 102.052C242.997 102.173 243.131 102.293 243.343 102.403ZM239.575 101.568C239.796 101.666 240.001 101.779 240.138 101.954C239.999 101.783 239.796 101.666 239.575 101.568ZM258.422 111.69C258.674 111.854 258.966 111.977 259.24 112.123C258.966 111.977 258.679 111.856 258.422 111.69ZM257.61 111.797C257.056 111.399 256.501 111.005 255.947 110.607C255.832 110.632 255.73 110.669 255.646 110.715C255.732 110.665 255.832 110.632 255.947 110.607C256.501 111.005 257.056 111.399 257.61 111.797ZM280.911 119.684C280.962 119.563 281.012 119.446 281.063 119.324C281.013 119.441 280.962 119.563 280.911 119.684ZM276.881 119.271C276.732 119.225 276.587 119.184 276.437 119.143C276.434 118.836 276.65 118.473 276.521 118.194C276.65 118.473 276.434 118.836 276.432 119.142C276.587 119.184 276.736 119.23 276.881 119.271ZM277.921 120.828C277.789 120.826 277.667 120.814 277.558 120.79C277.671 120.815 277.794 120.828 277.921 120.828ZM265.843 120.531C266.18 120.44 266.622 120.444 266.943 120.322C266.622 120.444 266.178 120.444 265.843 120.531C264.563 120.249 263.322 120.44 262.078 120.668C263.322 120.44 264.568 120.25 265.843 120.531ZM258.367 120.725C258.18 120.685 257.998 120.659 257.823 120.676C257.997 120.663 258.18 120.685 258.367 120.725ZM244.836 122.872C244.175 123.098 243.34 123.004 242.708 123.282C243.34 123.004 244.176 123.094 244.836 122.872ZM243.402 136.697C243.402 136.697 243.431 136.69 243.471 136.68L243.402 136.697ZM265.847 143.696C265.583 143.758 265.317 143.75 265.026 143.591C264.668 143.682 264.268 143.71 263.919 143.821C264.267 143.714 264.667 143.687 265.026 143.591C265.315 143.754 265.588 143.759 265.847 143.696ZM260.67 144.029C260.66 143.981 260.643 143.936 260.626 143.892C260.643 143.936 260.655 143.98 260.67 144.029ZM258.24 143.539C258.24 143.539 258.217 143.511 258.196 143.479L258.24 143.539Z" fill="white"/>
<path d="M62.2588 110.64C61.7733 111.218 61.2508 111.777 60.7031 112.307C59.6731 112.542 58.8861 111.301 59.6523 110.979C60.5556 110.583 61.3921 111.245 62.2588 110.64ZM6.5625 15.8135C7.05504 17.2616 8.00013 18.3939 8.83984 19.7383C8.96705 19.7976 9.0933 19.8553 9.21582 19.9131C9.41963 19.5994 9.62509 19.2881 9.8291 18.9746C10.0132 19.0677 10.2081 19.1707 10.3916 19.2637C9.15093 19.8339 9.81099 20.3485 10.1113 21.5625C9.42833 21.5584 9.08097 20.938 8.6084 21.5869C10.4243 22.2703 11.5147 24.3115 13.3252 24.9238C13.7755 25.0759 14.4414 24.2854 15.1748 25.0244C15.0746 25.0889 14.9369 25.242 14.8232 25.3418C15.5023 25.6521 16.0719 25.9099 16.583 26.2031L16.5615 26.1865C17.3516 26.6147 18.012 27.1506 18.7051 28.0879C18.8515 27.7293 19.0015 27.3715 19.1475 27.0127C18.713 26.9049 18.2857 26.8071 17.8594 26.708C18.029 26.0612 18.5075 26.088 17.5576 25.3574C17.466 25.2871 17.3902 25.2338 17.3271 25.1943L17.375 25.2324C16.9134 24.9261 17.0858 25.3652 16.8076 25.3447C16.3775 25.3118 16.4515 24.7386 15.9814 24.708C15.6172 24.6811 15.5399 25.2773 15.0293 24.6826C15.6882 24.3783 16.3682 24.0625 17.0293 23.748C17.0785 23.9814 17.1236 24.2152 17.1709 24.4482C16.9149 24.4644 16.6618 24.479 16.4033 24.4922C16.8484 24.6067 17.2767 24.714 17.7119 24.8184L17.6543 24.7725C17.9181 24.8286 18.2084 24.9033 18.4854 24.9639C17.7203 25.5704 18.5164 25.7422 18.8936 25.8965C19.4895 26.1427 18.67 26.3277 19.0518 26.4902C19.4383 26.654 20.2339 26.3548 20.7012 26.9268C20.1345 27.0152 20.3109 27.6395 19.9883 27.8809C19.6627 28.1198 19.0208 27.7201 19.3223 28.5039C20.6296 29.1336 20.362 27.0196 21.2539 27.4238C22.3319 27.9165 21.0354 29.9797 20.4385 30.1689C19.9715 30.3187 19.2995 29.6754 18.8398 29.8301C19.6633 31.4312 20.5885 30.3147 20.9844 30.2666C22.4421 30.1118 20.1594 31.8193 21.7383 31.8105C21.3961 32.1981 21.0905 32.5487 20.7617 32.9199C20.9812 32.9762 21.1674 32.9655 21.4121 33.0674C21.4645 31.816 21.91 32.2309 22.1592 32.4307C22.5462 32.7398 22.2607 31.8768 22.4414 31.8594C22.9342 31.8223 23.2642 32.2875 23.2793 31.7295C23.2685 31.9861 23.2683 32.2522 23.2637 32.5117C23.8697 32.6709 26.2962 31.8644 25.0088 31.3799C25.6061 30.834 25.6948 31.4008 25.8672 31.6982C26.0436 31.9983 26.3612 31.5999 26.5273 31.8564C27.1705 32.8658 26.0422 33.0733 25.4717 33.4912C26.9383 34.0771 25.9901 32.9024 27.875 34.0312C28.3894 33.7313 27.9916 32.638 28.8398 32.9141C28.3462 33.7612 28.3832 34.6901 29.1133 35.7012C29.3448 35.6028 29.5749 35.5004 29.8057 35.4014C29.744 36.5048 28.9084 37.0219 30.54 36.9238C28.747 38.0926 29.9184 37.365 30.2344 38.6953C30.2972 38.963 29.6385 38.9709 29.7393 39.3301C29.7855 39.4926 30.2497 39.4593 30.3604 39.8682C30.4123 40.0685 30.5128 41.1656 31.1689 41.2197C31.4909 40.2069 32.8104 40.1991 32.6504 39.0127C33.7761 40.193 34.9578 40.5466 32.6963 40.4385C32.829 40.9331 32.9561 41.4221 33.0869 41.9131C33.4575 41.9118 33.8353 41.9184 34.2031 41.917C33.7242 42.5738 33.5408 42.7189 34.5117 43.3281C34.0072 43.1633 33.5064 43.006 33.0049 42.8457C32.8881 42.9617 32.7274 43.0501 32.6396 43.1836C33.3017 43.322 34.7016 44.292 35.1602 44.3877C35.6174 44.4825 35.0361 43.9306 35.2607 43.8438C37.1232 43.1345 36.2493 44.0648 36.9883 44.2871C37.423 44.4157 36.7731 43.6374 36.9922 43.7197C37.8109 44.0348 37.5162 44.9804 38.0811 45.457C38.2081 44.8875 38.3424 44.3137 38.4795 43.7461C39.0589 44.2551 39.7131 44.7943 40.377 45.1201C40.6338 45.2456 40.7158 44.8153 40.7676 44.8213C41.0246 44.8593 41.8723 45.2793 41.9521 45.3418C42.5242 45.8048 42.1976 46.2311 42.7354 46.708C42.4882 46.565 42.2578 46.4297 42.0186 46.291C41.3716 46.8874 40.7219 47.4822 40.0742 48.0801C40.5712 48.5674 41.0859 49.0668 41.585 49.5557C41.3735 49.0079 41.1531 48.4549 40.9395 47.9053C42.0096 47.8702 43.0713 47.8251 44.1445 47.79C44.1468 47.8155 44.1491 47.8417 44.1514 47.8672L44.3271 48.0361C44.2868 48.6125 44.2442 49.1864 44.2002 49.7598C45.0354 50.528 46.2017 49.2009 45.4072 50.6221C45.7269 50.7874 46.0449 50.9499 46.3633 51.1172C46.1671 51.226 45.9702 51.3359 45.7744 51.4453C46.1437 51.6603 46.5126 51.8761 46.8809 52.0889C47.1854 51.2587 47.521 50.4037 47.8066 49.5879C48.4626 50.0775 47.9775 50.5238 47.9326 50.7217C47.8148 51.2462 48.6641 51.3256 48.5293 51.7822C48.4805 51.9364 47.639 51.6354 47.4395 52.167C47.3986 52.2742 46.7084 54.2689 47.458 54.4863C47.7013 54.2585 47.9767 53.9523 48.2324 53.6943C48.974 54.2401 47.955 55.7223 47.5088 55.9512C48.0754 56.0847 48.5527 56.595 49.0205 56.3223C49.1889 56.4985 49.3554 56.6733 49.5225 56.8486C48.3722 57.5004 49.2076 58.1136 50.1016 57.4424C49.8502 57.1044 49.6019 56.7691 49.3516 56.4346C50.5959 55.7854 50.3979 54.2776 51.1533 57.1182C50.9383 57.9643 50.6447 56.3706 50.5059 57.0293C50.7341 57.776 51.3644 58.1203 51.4238 58.9609C51.4918 60.006 50.3673 59.5861 52.2334 60.5947C50.9606 55.998 53.6479 60.1843 55.415 61.3994C54.9461 62.0767 54.7671 62.7604 54.8457 63.4346C54.8613 63.4527 54.877 63.471 54.8926 63.4893C55.1187 63.2373 55.3461 62.9888 55.5732 62.7393C55.8004 62.8702 56.0259 63.0026 56.2471 63.1338C56.0856 62.6288 55.9153 62.0757 55.8896 61.6826C56.4185 61.843 58.4163 63.1824 56.791 62.5459C56.8255 62.6949 56.8556 62.8368 56.8809 62.9736C57.3445 62.8735 58.0549 62.9941 58.4697 62.7715C58.9109 63.4463 58.6836 65.3755 59.8994 65.1758C59.9291 64.6936 59.959 64.2127 59.9883 63.7305C60.2481 63.8644 60.5087 63.9993 60.7715 64.1348C60.7678 64.293 60.7626 64.4512 60.7588 64.6094C60.6252 64.5429 60.4934 64.4759 60.3604 64.4082C60.4476 64.688 60.5325 64.9674 60.6172 65.2471C61.0838 64.9094 61.556 64.574 62.0332 64.2402C61.5012 63.8666 60.9699 63.4947 60.4404 63.126C61.1978 62.8655 61.6519 63.2813 62.332 62.9756C62.789 63.7104 62.5339 64.0628 62.2158 64.749C62.4267 64.7155 62.6365 64.6841 62.8418 64.6504C62.6083 65.3483 62.8991 65.8223 61.7305 65.6045C61.7834 65.8196 61.8402 66.0252 61.8896 66.248C62.0847 66.2421 62.19 66.4327 62.4053 66.3828C62.9956 66.2446 63.6102 65.0493 63.6348 64.6025C63.6459 64.3688 63.0244 64.7302 63.0928 64.4072C63.2593 63.6193 64.4998 64.1563 62.751 63.0967C63.4378 62.6754 63.5241 63.0777 64.1875 63.3223C64.172 63.0493 64.1583 62.7776 64.1445 62.5049C64.4458 62.6728 64.7487 62.8405 65.0508 63.0098C64.4096 64.306 66.6746 65.167 64.3926 66.0459C64.9999 66.1972 65.6242 66.3526 66.2178 66.5098C66.0704 66.6301 65.923 66.7504 65.7764 66.8711C65.512 66.7552 65.2415 66.6392 64.9736 66.5254C65.2629 66.8297 65.5607 67.1353 65.8408 67.4395C66.6529 67.2402 67.0319 66.8011 67.4805 66.2568C66.6509 65.6773 66.8498 66.3213 66.1357 66.333C66.2184 65.9565 66.239 65.601 66.3613 65.2109C66.6 66.0533 67.8718 65.6671 68.1553 65.6738C69.0124 65.6928 68.2303 66.3581 68.7881 66.4658C69.3521 66.5742 70.0753 66.2234 70.4023 67.0664C70.4669 66.6359 70.5066 66.1854 70.54 65.7891C71.4324 65.7958 71.1742 66.2729 71.252 66.3545C72.5059 67.6827 73.4349 66.9082 75.0977 67.0996C74.9137 66.9285 74.7248 66.7695 74.5371 66.6064C75.9436 65.9251 75.0574 66.0488 74.0352 65.5537C75.0268 65.8269 75.7499 65.1612 76.5107 65.0654C77.2703 64.9696 78.4155 65.601 78.8027 65.998C77.6833 66.2965 76.6511 65.7594 75.4834 65.6855C75.5321 66.1456 75.5889 66.5391 75.6328 67.043C76.4947 66.2568 76.7792 66.943 76.9814 67.1074C77.577 67.5894 77.7077 66.8017 77.9463 67.7227C77.9861 67.4293 78.0216 67.1824 78.0576 66.9082C79.4106 67.2949 80.786 68.1034 81.8965 67.2158C81.8362 67.9284 81.7599 68.6126 81.708 69.3418C82.3937 68.9367 82.7792 69.5738 83.291 69.5537C83.8016 69.5327 83.7357 68.9318 84.3525 68.8359C84.4667 68.8195 84.6121 69.2161 84.9268 69.0127C85.2437 68.8069 86.6322 67.0817 86.3828 68.7969C86.8701 68.9107 87.3192 69.0737 87.793 69.208C87.3039 69.2001 86.8171 69.1908 86.332 69.1855C86.641 69.6814 86.9451 70.1761 87.2529 70.6729C87.3838 70.319 87.5165 69.9579 87.6445 69.6084C88.8156 69.4006 89.4602 70.1716 90.5674 70.2754C90.753 70.2926 90.4915 69.4736 91.2529 69.8408C92.0144 70.2094 92.2963 71.6899 93.7705 71.4902C93.8451 71.4771 94.4918 70.5478 94.8115 71.375C94.8839 71.5626 94.3602 71.6895 94.5645 71.9619C94.7701 72.2343 95.8614 72.6817 95.8271 73.207C95.8583 73.0258 95.8331 72.8236 95.8428 72.6338C96.0562 72.5953 96.2716 72.5577 96.4863 72.5215C96.4279 72.84 96.3706 73.1597 96.3125 73.4766C97.5865 73.0133 98.4801 71.9683 100.021 72.7744C99.6746 72.2029 99.3255 71.6287 98.9746 71.0576C98.7673 71.3459 98.5594 71.6368 98.3545 71.9258C97.6159 71.6073 96.8965 71.2969 96.1641 70.9844C95.9507 71.3188 95.7393 71.6526 95.5264 71.9873C95.3362 71.8914 95.1469 71.7979 94.9561 71.7021C95.0698 71.4503 95.1848 71.1995 95.3008 70.9482C94.8846 70.917 94.4624 70.8875 94.0498 70.8584C95.235 69.4916 96.2879 71.5332 96.4961 70.2051C96.6271 70.4507 96.758 70.699 96.8877 70.9463C97.1207 70.3344 97.4383 70.6031 98.0586 70.8613C97.9854 70.5137 97.8999 70.1674 97.8418 69.8203C98.3599 70.4118 99.4936 70.6484 100.097 70.9795C100.362 71.125 99.9643 71.5109 100.035 71.5859C100.399 71.9751 101.417 71.386 101.582 71.4951C102.534 72.1381 102.814 73.8202 104.191 73.1201C103.1 72.5717 103.701 72.8403 103.433 72.1807C103.349 71.9739 101.934 71.2212 103.779 71.8721C103.988 71.9451 107.147 73.9013 105.805 74.3965C106.424 74.2901 106.933 74.1122 107.506 73.9785C108.171 76.4146 108.286 74.3298 108.218 73.1445C108.425 73.1961 108.624 73.2379 108.834 73.2959C108.081 74.313 110.308 75.0063 111.232 74.6514C111.547 74.5344 110.923 73.9638 111.574 73.9629C111.838 74.124 112.132 74.3194 112.405 74.4941C112.177 73.6511 113.109 73.6187 113.308 72.8848C113.665 73.693 113.669 75.1912 113.158 75.8535C113.684 75.6782 114.226 75.5091 114.771 75.3398C114.611 75.1048 114.448 74.8692 114.286 74.6338C115.652 75.5304 117.799 75.0496 117.66 76.6787C117.858 76.7278 118.057 76.7793 118.253 76.8281C118.392 76.5892 118.53 76.3492 118.67 76.1104C119.458 76.6005 120.277 77.1054 121.074 77.6094C120.254 77.5205 119.924 77.8187 119.217 77.2686C119.423 77.6585 119.666 78.063 119.88 78.457C121.376 78.0608 121.658 77.5701 123.457 78.4355C123.546 78.476 124.654 79.5949 124.704 79.6885C124.821 80.0598 124.339 80.3716 124.385 80.5547C124.53 81.0705 125.72 82.6752 125.619 82.8193C124.586 84.602 119.268 82.8188 117.737 82.4717C102.259 78.8147 87.2986 73.7305 71.6201 71.1768C71.4592 71.1534 71.4766 71.4621 71.4062 71.4639C70.9671 71.4641 70.6298 70.9276 70.4756 70.8809C70.1464 70.7836 70.2567 71.2456 70.0117 71.2041C67.7872 70.8209 65.6873 70.2831 63.4766 69.9668C63.6256 70.3023 63.6903 70.6055 63.46 70.9697C64.0624 71.2853 64.1625 71.7482 64.5332 72.2676C64.7356 72.5516 65.1249 72.211 65.1572 72.4346C65.3592 73.9307 64.1032 73.1851 66.5732 74.7266C66.7092 74.2685 66.8488 73.8048 66.9775 73.3359C67.2547 73.5197 67.5299 73.7023 67.8037 73.8867C67.8551 74.092 67.9041 74.2959 67.9561 74.5049C67.2931 74.9063 66.6277 75.3083 65.9648 75.71C66.0425 75.9174 66.1209 76.1245 66.1953 76.3301C65.941 76.0556 65.6775 75.771 65.4209 75.5029C65.2877 75.5464 65.1555 75.592 65.0225 75.6357C65.1284 76.2051 65.2319 76.7862 65.3223 77.3555C65.5594 77.2269 65.7979 77.0962 66.0352 76.9678C66.3373 78.2243 66.1453 78.3497 67.3613 79.0205C67.784 79.815 69.1228 79.9637 69.79 80.2461C69.741 80.4887 69.6876 80.7304 69.6348 80.9707C69.8905 80.9862 70.1457 81.0017 70.4033 81.0234C70.2272 81.3842 70.0467 81.743 69.8623 82.0918C70.5618 81.9264 70.8061 81.9113 70.6182 80.9102C71.5679 80.8436 71.9223 82.6163 71.8975 83.4043C71.8805 83.9885 70.9807 83.693 70.9219 83.79C70.8605 83.8853 70.8686 84.0165 70.9082 84.1582C70.9996 84.4834 71.2613 84.8682 71.2705 84.998C71.3256 85.7796 71.5284 86.2712 71.5801 86.9717C71.5889 87.1097 71.256 87.5954 71.248 87.6318C71.243 87.8844 71.1944 88.5187 71.2051 88.5898C71.7613 92.0682 72.8019 87.8974 73.3623 91.207C73.6018 91.0534 73.8406 90.9061 74.0791 90.751C74.1503 90.9982 74.2203 91.2527 74.2881 91.5059C74.1341 91.8733 73.6618 91.5622 74.1045 92.1367C73.7743 92.156 73.444 92.1756 73.1152 92.1943C73.3405 92.4297 73.5613 92.6663 73.7842 92.9209C72.7477 93.5582 72.6973 95.1677 71.3486 95.2051C70.8948 95.2088 70.294 94.2314 69.8857 94.8457C69.848 95.2978 70.3485 94.9317 70.3994 95.1094C70.7475 96.4243 69.9619 96.407 70.2031 96.9238C70.5339 96.9881 70.8714 97.0581 71.2051 97.1309C71.1198 97.3474 71.0311 97.5608 70.9404 97.7705C71.161 97.813 71.3823 97.8585 71.6025 97.9033C71.6136 97.7055 71.6203 97.4796 71.627 97.2939C72.5171 97.4971 72.8528 99.9719 72.1484 99.0146C71.8677 98.6396 71.9864 97.9698 70.9844 98.3916C71.1286 99.0015 71.2478 99.7014 71.3271 100.37C71.1102 100.369 70.8927 100.367 70.6758 100.364C70.7212 101.215 71.6671 100.56 72.1279 100.595C72.119 100.803 72.1038 101.016 72.0869 101.229C71.8671 101.288 71.6381 101.339 71.4238 101.396C71.7499 101.455 72.5075 101.692 72.0977 102.277C71.8291 102.632 71.1433 101.852 71.0918 102.593C71.6051 102.666 72.3078 102.521 72.2334 103.438C71.6872 103.375 71.1786 103.341 70.6152 103.232C70.7865 104.364 69.8708 104.448 69.7881 105.724C69.7832 106.502 69.791 108.447 68.0752 107.102C67.6389 107.364 68.0624 107.691 67.9941 107.883C67.6022 108.806 66.5943 108.126 66.4727 108.107C65.5575 108.041 65.2361 108.437 64.498 108.056C64.5757 108.438 64.6374 108.801 64.7139 109.174C65.3268 108.504 65.6313 108.493 66.5547 108.295C66.2944 108.478 66.0036 108.651 65.7109 108.802C65.8357 109.096 65.966 109.389 66.0996 109.678C67.5291 108.63 67.992 108.376 68.1191 108.79C68.2221 109.168 67.6534 110.272 66.1299 110.854C65.7353 110.348 65.361 109.825 65.0596 109.278C64.4955 109.73 63.9801 109.838 63.4795 109.797C62.7993 109.735 62.1477 109.402 61.1816 109.204C60.9818 109.166 60.2263 109.419 59.9043 109.39C59.909 109.392 59.9143 109.396 59.9189 109.398C59.6503 109.917 59.8783 110.205 59.8496 110.697C59.662 110.735 59.4808 110.772 59.292 110.806C58.9554 110.373 59.1401 110.095 58.3682 110.05C58.4042 110.436 58.442 110.823 58.4834 111.209C57.6187 111.071 57.1464 110.557 56.3291 110.546C56.494 110.44 56.6552 110.331 56.8154 110.223C55.223 109.472 57.0811 107.667 55.5908 108.409C55.5627 108.203 55.5414 107.996 55.5176 107.79C56.0211 107.881 56.5245 107.963 57.0264 108.032C57.0981 107.771 57.1699 107.51 57.2393 107.248C56.7057 107.207 56.1662 107.154 55.6309 107.088C56.0536 107.018 56.476 106.94 56.8936 106.855C56.3325 106.584 55.7824 106.298 55.2422 106C55.5757 107.14 54.7379 107.018 54.6016 108.008C53.7479 106.884 53.3322 105.611 51.501 105.626C51.1426 105.628 51.0333 106.336 50.4824 105.185C50.264 106.291 48.9244 106.259 48.6309 107.271C48.9726 107.372 49.3222 107.492 49.6602 107.57C49.445 107.082 49.7989 106.15 50.4355 106.102C51.2483 106.043 51.9817 107.064 52.3379 106.015C52.5865 106.165 52.8233 106.285 53.0713 106.42C52.8717 106.64 52.6707 106.861 52.4678 107.079C53.3739 106.952 53.788 107.233 53.9551 108.014C52.9827 107.87 52.0122 107.689 51.0439 107.473C51.1609 107.57 51.2802 107.668 51.3975 107.762C50.4474 108.146 50.9172 109.064 49.5381 108.657C49.672 108.363 49.8042 108.067 49.9385 107.771C49.1321 108.376 47.8245 107.773 47.8262 108.867C47.5519 108.404 47.5646 108.195 47.1084 108.571C46.3894 107.388 46.2144 106.208 47.083 105.375C46.6383 105.353 46.1937 105.326 45.7471 105.292C45.8067 105.68 45.8693 106.066 45.9355 106.453C45.3078 106.1 44.6744 105.727 44.0635 105.352C44.4644 104.522 45.4034 105.789 45.4434 104.865C45.4528 104.681 44.9461 104.802 44.9033 104.67C44.4996 103.274 45.5621 104.724 45.6758 103.896C44.8876 103.271 45.3276 102.837 45.1035 102.576C44.9806 102.43 44.6614 102.343 43.8203 102.271C43.9158 102.017 44.0123 101.756 44.1123 101.506C43.5201 101.105 43.2378 101.637 42.6553 101.38C42.2866 101.213 42.5072 100.075 41.7402 100.402C41.5963 100.457 41.4283 101.957 40.2061 100.956C39.273 100.162 40.2459 99.7672 39.96 99.1113C39.6906 98.4754 37.7372 98.3918 38.4453 97.0605C38.5438 97.4265 38.777 97.7926 38.9434 98.1572C39.243 98.0535 39.5356 97.9458 39.8281 97.835C38.967 97.5504 38.66 96.65 37.7959 96.709C37.7703 95.5508 36.912 95.1262 36.1846 95.4121C35.9733 95.4968 35.7768 95.6481 35.626 95.8711C35.6236 95.8747 35.6215 95.8792 35.6191 95.8828C35.9901 96.0692 36.1087 95.4318 36.2021 96.0361C36.0333 96.2511 35.8687 96.4693 35.7021 96.6865C35.5439 96.4901 35.3998 96.3089 35.293 96.1465C35.0151 95.7226 34.9845 95.4325 35.6299 95.2861C35.5569 95.1664 35.4853 95.0484 35.4121 94.9277C34.938 95.2819 34.4638 95.6395 33.9893 95.9932C33.8313 95.9047 33.6728 95.8161 33.5156 95.7275C33.4985 95.4996 33.4838 95.2702 33.4688 95.041C34.3587 94.6534 34.645 94.9667 34.1729 93.5332C33.9169 93.7305 33.6603 93.9258 33.4043 94.123C32.9893 92.9297 33.5855 92.4278 32.6699 91.2637C34.2451 91.4914 33.0541 93.1922 34.8301 91.8086C34.8876 92.1234 34.9447 92.4389 35.0059 92.7549C35.2886 92.5861 35.5714 92.416 35.8525 92.2451C34.7845 91.1889 31.5387 90.4324 32.1191 88.7646C31.9069 88.7644 31.7146 88.7526 31.4893 88.7549C31.6394 87.4577 29.7897 88.1631 30.1836 86.707C30.2336 86.5577 31.8604 85.7697 31.1738 84.7451C30.9861 84.8909 30.6522 85.1061 30.4092 85.2793C30.3946 84.9699 30.3912 84.6585 30.3916 84.3555C30.1783 84.4198 29.9622 84.4807 29.7461 84.543C29.8962 84.9907 30.0598 85.4441 30.2324 85.8926C29.9656 85.596 29.6994 85.2891 29.4414 84.9814C29.3853 85.6064 29.5053 85.8136 28.8525 85.8262C28.592 85.4433 28.3386 85.0601 28.0947 84.666C27.9434 84.6914 27.7903 84.718 27.6387 84.7422C27.3546 85.1418 27.0887 85.5499 26.8125 85.9668C26.5244 84.6949 26.0656 83.6467 26.5332 82.4521C26.6178 82.2513 27.3287 82.5886 26.4961 81.7383C26.7763 81.6296 26.9999 81.5281 27.2588 81.4268C26.7334 81.0096 26.4821 80.6406 26.4014 80.2617C26.3013 79.7812 26.437 79.2706 26.6592 78.4814C26.2335 79.4323 26.475 78.6061 26.1436 78.4268C25.9136 78.3041 26.0328 78.8969 25.8066 78.8633C25.58 78.8369 24.5928 78.1547 24.5898 78.8623C25.4495 79.4605 25.5922 79.9177 25.5625 80.4229C25.5302 81.1332 25.2341 82.0353 26.1807 83.0605C25.8364 82.8273 25.4958 82.5792 25.1611 82.3105C25.0667 82.524 24.9804 82.7121 24.8887 82.9473C24.7836 81.5681 24.7844 82.2653 24.3516 81.8008C24.141 81.566 23.9126 81.1936 23.7275 80.7764C23.556 80.4328 23.4081 80.0584 23.3174 79.75C23.2619 79.5585 23.6931 79.6994 23.6592 79.25C23.6355 78.9526 22.9261 78.1824 23.6064 77.9023C24.0521 77.7376 25.4526 78.854 25.2539 77.0928C25.6705 76.7209 25.6138 77.5714 25.6729 77.583C26.2196 77.6634 26.507 76.5907 26.0771 76.1348C26.0393 76.0952 25.6457 76.5136 25.4561 76.0967C25.0109 75.0956 25.506 74.4604 26.1885 73.8721C25.4353 73.7778 24.5666 72.7902 25.0684 71.709C24.8663 71.6096 24.6617 71.5104 24.46 71.4053C24.5341 71.6094 24.6115 71.809 24.6943 72.0049C24.5265 72.1736 24.3967 72.3642 24.2119 72.5352C24.1963 71.3479 23.2413 70.9395 23.0322 70.209C22.4836 67.6065 24.6545 69.9009 25.0176 70.3252C24.7581 70.509 24.4832 70.6919 24.2236 70.8955C24.4878 70.9311 24.7541 70.9683 25.0186 71.0098C25.862 68.3008 26.758 71.0929 27.6562 70.0977C26.5627 69.3334 26.9468 68.2007 28.3477 67.8076C28.4239 67.7043 28.5097 67.602 28.5889 67.502C28.462 67.3588 28.246 67.1638 28.1787 67.0518C29.1174 65.7642 30.5959 67.2961 30.7705 67.3779C31.6491 67.7789 31.362 66.6108 31.5117 66.5127C31.9321 66.2502 32.2595 66.3937 32.5967 66.3154C32.7142 66.2911 32.8347 66.2354 32.9736 66.1172C33.541 65.6547 32.9662 65.4411 33.0586 65.0312C33.143 64.7006 33.7318 64.4674 33.8867 64.126C33.8526 64.3831 33.8115 64.6387 33.7881 64.8955C34.5886 65.0066 35.3488 65.1642 36.1846 65.0996C36.9274 63.1928 38.1989 66.0332 37.5498 63.6934C36.6706 63.6361 36.1065 63.4539 35.5381 62.9355C36.0904 62.755 36.715 62.5849 37.2861 62.4355C37.486 62.6759 37.6358 62.916 37.8633 63.1602C38.2164 62.5552 39.3304 62.6982 39.6797 62.5137C41.4688 61.6378 40.976 60.7103 42.6797 62.2705C41.4768 62.4529 41.4707 63.2295 40.2646 63.1855C40.554 63.7245 41.1585 63.5819 40.7959 64.2656C41.9498 64.0504 41.5743 63.475 41.998 62.9326C42.3673 62.4658 43.1673 62.4283 43.1172 61.8379C43.2034 62.1623 43.2711 62.4775 43.3555 62.8018C44.1401 62.7928 44.8791 62.7981 45.6406 62.8105C45.3087 63.1433 44.9844 63.4795 44.667 63.8145C44.9031 63.9449 45.1401 64.0765 45.3779 64.209C46.4212 63.6484 47.7996 64.0133 48.7891 64.043C48.6806 63.7669 48.5684 63.5026 48.3994 63.3027C47.7486 62.5318 46.9144 62.2553 46.2754 61.499C45.0229 60.0203 44.0663 58.5514 42.7598 57.0352C41.6907 55.7945 40.7118 54.7495 39.5166 53.4033C39.4475 53.3255 39.3782 53.2477 39.3086 53.1699C33.3852 48.4551 26.8528 44.2757 21.3105 39.0869C21.1635 38.9479 21.4099 38.7753 21.3545 38.7461C20.8239 38.4759 20.5291 38.7393 20.8838 37.9746C20.2068 37.6324 19.6321 37.9559 18.9561 37.3516C18.5953 37.0296 19.4822 36.5229 18.5332 36.3857C17.6864 36.2723 17.9821 37.1803 16.623 35.4014C16.5911 35.3569 16.7247 34.7202 16.2812 34.5576C15.8393 34.3953 15.978 35.0368 15.0547 34.459C14.0388 33.822 13.0165 32.9665 11.9951 32.0996L11.8594 31.9912C10.5599 30.8373 9.35094 29.6677 8.07422 28.7109C7.92565 28.5981 6.3497 27.6917 5.9873 27.5801C5.28605 27.3628 5.121 27.7846 4.37012 27.3066C3.79066 26.9376 3.65644 26.1993 2.9707 25.7705C2.88547 25.7185 2.45617 26.0161 2.02148 25.5811C1.59322 25.1507 0.286809 24.5623 0.00683594 23.6895C-0.0659566 23.4706 0.459095 21.8104 0.591797 21.6396C1.05624 21.0849 1.72393 21.4872 1.36621 20.6025C1.59141 20.7746 1.81291 20.9163 2.04004 21.0801C2.30309 20.6687 2.56418 20.2573 2.82812 19.8486C2.52562 19.7018 2.20602 19.5409 1.90039 19.3945C1.98722 19.2584 2.07435 19.1216 2.16113 18.9854C3.11474 19.7359 2.93975 18.8053 3.79004 18.7412C3.52125 18.1544 3.24373 17.5639 2.96387 16.9707C3.21112 17.2112 3.49549 17.4695 3.7041 17.6885C4.24314 17.0642 3.57537 16.7867 3.57227 16.5898C3.57625 15.4918 6.01876 17.9814 6.9873 17.2246C6.64156 16.7777 6.26609 16.3117 5.90039 15.8535C6.11677 15.8366 6.344 15.8285 6.5625 15.8135ZM53.1709 108.137C53.7882 109.209 54.283 108.386 55.0654 108.68C55.2456 108.746 54.4813 109.109 55.2324 109.229C54.5958 109.422 53.9884 109.555 53.3525 109.703C53.2716 109.401 53.19 109.098 53.1182 108.797C52.9426 108.916 52.7627 109.033 52.583 109.149C52.7827 108.813 52.9694 108.48 53.1709 108.137ZM61.0059 107.025C58.9514 107.21 56.7443 107.381 57.7461 109.622C57.9284 109.594 58.11 109.566 58.2871 109.535C58.4928 108.595 58.9991 109.23 59.9004 109.387C60.0845 109.028 60.5853 109.001 60.7158 108.688C60.9576 108.085 60.4674 107.584 61.0059 107.025ZM45.1348 107.258C45.5606 106.86 45.4939 107.433 45.5117 107.452L45.5098 107.454C47.2436 107.771 45.1637 107.63 46.5625 108.429C46.2884 108.448 46.0086 108.471 45.7334 108.487C45.529 108.085 45.3265 107.639 45.1348 107.258ZM65.083 106.772C64.3404 106.862 64.2585 107.234 64.126 107.955C64.5443 107.849 64.9349 107.716 65.3066 107.551C65.2295 107.293 65.1564 107.033 65.083 106.772ZM67.5742 105.294C67.2504 105.737 66.4351 105.757 66.4336 106.5C66.396 106.968 67.3849 106.775 67.084 107.645C67.6319 107.278 67.5817 106.98 67.1982 106.595C67.2669 106.47 67.3316 106.344 67.3877 106.219C67.4976 106.266 67.6104 106.309 67.7246 106.351C67.6324 106.137 67.5342 105.927 67.4268 105.724C67.5462 105.673 67.6664 105.616 67.7861 105.555C67.7147 105.468 67.6593 105.383 67.5742 105.294ZM70.5098 105.381C70.3774 104.889 70.4866 104.34 71.376 104.648C71.4144 104.667 71.5743 105.407 71.5469 105.464C71.0841 106.334 70.6409 105.865 70.5098 105.381ZM40.8574 103.775C41.4349 104.123 42.4982 103.942 42.6289 104.077L42.6279 104.079C43.4326 104.913 42.1579 104.964 41.707 105.169C41.7995 104.431 41.3998 104.243 40.8574 103.775ZM44.0205 102.568C44.4139 102.836 44.5862 103.124 44.6094 103.408C44.6444 103.828 44.3493 104.236 43.9531 104.514C43.7721 104.641 43.5701 104.741 43.3711 104.803C43.4227 104.525 43.4756 104.246 43.5312 103.972C43.2376 103.933 42.9422 103.89 42.6475 103.843C43.1099 103.423 43.5686 102.997 44.0205 102.568ZM46.8398 100.94C46.4778 101.848 46.124 102.76 45.7783 103.677C46.0678 103.46 46.3536 103.241 46.6357 103.019C46.9179 103.216 47.2056 103.414 47.4932 103.605C47.6285 103.37 47.7644 103.132 47.8994 102.896C46.4094 102.5 47.0892 101.968 46.8398 100.94ZM43.8818 68.0459C42.7023 68.0583 41.9086 68.7294 40.8506 68.8037C39.5216 68.9022 38.2933 68.583 37.0518 68.751C36.857 68.7787 36.9779 69.2309 36.7988 69.2744C36.1531 69.4297 35.3475 69.7106 34.877 69.7959C34.5143 69.8621 34.2425 69.6376 33.9844 69.5645C33.8344 69.534 33.6883 69.5468 33.5664 69.6602C33.4586 69.7616 33.6966 70.3053 33.5732 70.4648C33.3795 70.7143 32.8437 70.4597 32.6523 70.5479C32.4089 70.6626 32.9702 70.9648 32.707 71.1143C32.695 71.1175 32.3488 70.8583 32.3164 70.9258C32.2292 71.1213 32.5095 71.308 32.335 71.5078C32.3143 71.5129 31.7672 71.6557 31.7422 71.7129C31.621 71.9266 31.2933 72.471 31.3369 72.6982C31.4918 73.4823 32.2478 72.9699 30.7461 73.4248C31.0484 73.7816 31.3737 74.12 31.6973 74.4678C31.3881 74.2141 30.9166 75.173 30.9561 75.2646C31.2141 75.8627 31.7411 75.4667 31.7061 76.2393C30.3562 75.2957 31.6224 77.2798 31.7568 77.7715C31.8577 78.2316 31.9526 78.6979 32.0449 79.1758C32.2098 80.0957 32.7537 81.8262 33.7695 83.499C34.1928 84.2066 35.0441 85.0244 35.5654 85.7871C35.688 85.9651 35.3482 86.0027 35.4512 86.1631C35.5563 86.3214 35.7126 85.9558 35.8223 86.1436C36.5035 87.3152 36.6587 88.581 38.0752 89.1104C38.0227 89.2303 37.9499 89.2856 37.9141 89.4453C38.9539 89.7853 39.4924 91.4563 39.8896 92.3584C39.9358 92.4821 39.9812 92.5888 40.0254 92.6689C40.5405 93.5785 41.0828 93.438 41.5371 94.0322C42.1303 94.8186 42.7123 96.5287 43.1982 94.9043C43.747 95.31 44.2708 95.7074 44.751 96.2432C44.8036 96.3034 44.5262 96.5899 44.5469 96.6152C44.6766 96.7797 44.9376 96.532 45.0566 96.5977C45.382 96.7763 44.6446 96.7719 45.1436 96.9814C45.4103 97.0897 45.711 96.9309 46.3613 97.3506C46.7986 97.6314 47.2492 97.9082 47.7109 98.1816C51.4806 100.426 55.7171 102.274 59.7637 103.029C60.0705 103.085 59.9356 102.676 60.3145 102.762C61.167 102.956 62.443 103.381 63.5078 103.554C63.9027 103.65 64.1926 103.669 64.3604 103.604C64.7852 103.41 64.4809 102.895 64.4658 102.652C64.4558 102.607 64.5905 102.888 64.6094 102.891C64.6623 102.878 64.7723 102.965 64.9297 103.007C65.0839 103.052 65.2813 103.044 65.3877 102.958C65.5298 102.837 65.098 102.58 65.126 102.458C65.168 102.28 65.7381 102.232 65.8105 102.079C66.1353 101.375 65.8639 100.649 66.1582 99.7227C66.0452 99.7512 65.941 99.7671 65.8301 99.7881C65.9533 98.6713 65.9423 97.4023 65.8203 96.082C65.7267 96.1549 65.631 96.224 65.5352 96.2949C65.4213 94.7614 66.4913 94.7543 64.2383 95.2314C64.1421 95.1335 64.0312 95.0329 63.9414 94.9424C65.1215 94.8119 65.8425 93.7197 65.8496 92.3838C65.8515 92.2823 64.5792 91.9385 65.9238 91.6826C65.5592 91.6007 65.3115 91.5603 64.9922 91.498C65.3264 91.1327 65.6495 90.7537 65.9727 90.375C65.8729 90.2459 65.7733 90.1142 65.6719 89.9854C65.4082 90.0382 65.145 90.1319 64.8789 90.1592C64.6552 89.5118 64.524 88.0472 64.2998 87.5332C64.1902 87.2768 64.0523 87.0273 63.9053 86.7832C63.3565 85.9023 62.648 85.13 62.8506 84.1064C62.5556 83.6807 62.3059 84.365 62.0293 83.6572C62.2292 83.4617 62.4208 83.2741 62.624 83.0684C61.273 83.0439 61.8675 82.612 61.6592 81.7129C61.5203 81.1131 61.069 80.9097 60.8301 80.3896C60.7692 80.2565 61.0793 80.0967 61.0186 80.0156C60.8177 79.7435 59.9065 79.1716 59.7705 78.9814C58.5255 77.225 57.5075 75.6345 56.3887 73.8486C56.2677 73.658 56.1574 74.0961 56.0332 73.8984C55.832 73.5793 56.3908 73.4484 56.2832 73.2549C55.9751 72.7129 55.5293 73.0472 54.9961 72.374C54.0875 71.2282 53.1923 69.9112 52.2783 68.5811C52.2179 68.5716 52.1501 68.5636 52.0752 68.5605C51.5563 68.54 50.381 68.7416 49.7598 68.7881C48.2832 68.2686 46.4359 68.36 45.0732 68.4814C44.2847 68.5536 44.2198 68.0451 43.8818 68.0459ZM34.6963 97.3877C35.0993 97.456 35.5007 97.5139 35.8984 97.5615C36.0727 97.74 36.2463 97.9168 36.4248 98.0908C36.4251 98.0924 36.4255 98.0941 36.4258 98.0957C36.1287 98.11 35.8318 98.1229 35.5312 98.1279C35.6369 98.3926 35.7626 98.6381 35.8662 98.9141C37.0539 98.7295 36.4824 99.3834 37.2002 99.9727C39.4538 101.713 39.7509 99.9848 40.4658 103.28C38.8727 101.984 38.8907 103.289 37.374 103.111C37.5625 102.479 39.3869 102.178 38.9189 101.435C37.4125 101.045 35.9523 100.546 34.4961 99.6211C34.4531 99.729 34.4093 99.8369 34.3672 99.9453C34.6001 100.093 34.8333 100.235 35.0684 100.375C34.6659 100.373 34.267 100.366 33.8535 100.347C34.5759 100.176 33.6594 99.7284 34.2891 99.3193C34.5688 99.1389 35.1801 99.1252 35.5684 99.0742C35.2684 98.5194 34.9656 97.9561 34.6963 97.3877ZM45.5342 101.358C45.0995 101.493 44.658 101.622 44.2148 101.743C44.5594 101.936 44.9068 102.128 45.2588 102.312C45.2665 102.317 45.2745 102.321 45.2822 102.325C45.2898 102.295 45.2981 102.265 45.3057 102.235C45.3807 101.942 45.4553 101.65 45.5342 101.358ZM37.6074 99.3652C38.4279 99.1463 37.8812 98.4037 38.873 99.4551C38.8145 99.6495 38.7564 99.8454 38.7002 100.041C38.3333 99.8237 37.9682 99.5988 37.6074 99.3652ZM72.4297 95.2236C73.0003 95.4138 73.3337 95.786 73.4355 96.5811C73.2349 96.7212 73.0347 96.8584 72.832 96.9922C73.3919 96.9786 73.6139 97.175 74.0264 97.6191L74.0244 97.6201C74.0881 98.8573 73.8804 98.7964 72.957 99.0557C73.4998 97.7949 72.6414 97.747 72.1055 96.9424C71.7334 96.3985 71.8174 95.6441 70.9912 95.5215C71.8039 95.2646 72.4291 96.5386 72.4297 95.2236ZM73.9756 96.2705C74.5624 96.3551 74.0878 97.2299 74.9062 96.5762C74.9394 96.877 74.9676 97.1913 74.9932 97.498C74.6332 97.3151 74.3768 97.5841 74.0283 97.6172L74.0264 97.6191C73.9955 97.1479 73.8022 96.6992 73.9756 96.2705ZM39.9834 96.4229C39.9574 96.388 40.2064 95.565 39.8174 96.0205C39.1825 97.3906 40.5803 97.4192 40.7686 96.9229C40.5071 96.7226 40.1999 96.7296 39.9844 96.4209L39.9834 96.4229ZM32.3867 95.2324C32.8438 95.5961 33.2223 95.9966 33.6396 96.375L33.6377 96.376C33.1471 96.5538 31.5377 97.4531 31.3047 96.2764C31.2867 96.1657 32.5931 95.8099 32.3867 95.2324ZM75.207 92.5225C75.1183 93.6937 75.3747 94.6127 75.7783 95.7148C74.9045 95.732 74.0408 94.7385 73.292 95.4941C73.2596 95.2831 73.2188 95.0604 73.1875 94.8535L73.1855 94.8525C73.3401 94.6673 73.6691 94.9357 73.7881 94.6611C73.9047 94.3852 73.5143 93.9522 74.0195 93.9951C74.1351 94.3389 74.2574 94.6922 74.3672 95.0537C75.1283 93.7709 74.1224 92.7253 75.207 92.5225ZM31.042 90.2637C31.6869 90.9742 31.0105 90.906 30.6709 91.2773C31.0104 91.0212 32.7152 91.7385 32.6543 92.04L32.6357 92.1104C32.4108 92.7901 31.3774 91.6101 31.124 92.6914C30.7669 90.9235 28.9688 91.6061 31.042 90.2637ZM73.0967 90.8193C71.8638 91.2101 71.0447 92.1935 73.1299 91.9287C73.3835 91.0308 72.3039 91.6746 73.0967 90.8193ZM28.6494 88.5771C28.7864 87.6966 30.794 89.0261 31.0254 89.7246C30.7736 89.841 30.5662 89.9776 30.2422 90.0615C30.4867 89.1892 28.6291 88.7351 28.6494 88.5771ZM23.7383 83.2607C24.0687 83.4298 24.3963 83.5743 24.7266 83.7148C24.5971 84.0828 24.4787 84.4575 24.3662 84.8359L24.3672 84.8379C24.639 84.7806 24.9117 84.7235 25.1807 84.6592C25.3406 85.2704 25.521 85.8699 25.7148 86.4609C24.2691 85.6259 23.8332 85.2358 23.7383 83.2607ZM72.3223 84.7734C72.7023 85.3217 73.0752 85.8812 73.4385 86.4512C73.2468 86.4154 73.054 86.3799 72.8623 86.3457C72.398 85.785 71.9211 85.2289 71.4414 84.6992C71.6084 84.5445 71.7746 84.388 71.9404 84.2314L72.3223 84.7734ZM29.2021 80.9834C29.0169 81.0298 29.1394 80.3625 28.8047 80.6582C28.2108 81.1773 29.0797 82.307 28.3145 82.6465C28.3651 82.0843 27.8401 81.2778 27.3965 81.7246C26.9142 82.2517 28.2277 82.7402 28.0146 83.4883C28.8944 82.1584 29.2342 83.8796 28.4258 84.5518C29.6346 85.103 29.4389 84.0992 28.9639 83.1885C29.9563 83.4084 29.1652 82.761 29.7168 82.3574C30.3024 82.7482 31.0526 84.7984 31.5098 83.4053C31.6917 82.942 29.7408 83.1342 30.5801 81.7246C30.1273 81.6799 29.724 81.7007 29.2881 81.6582C29.641 81.3965 30.0014 81.1329 30.3633 80.8965V80.8945C29.9798 80.2239 29.6327 80.8472 29.2021 80.9834ZM65.9912 83.4219C66.6528 83.8531 66.9466 83.9879 67.4443 83.4111V83.4082C67.0639 83.2975 66.6814 83.1905 66.2988 83.0869C66.1964 83.1982 66.0937 83.3101 65.9912 83.4219ZM67.9951 81.6787C67.185 81.2302 66.7217 81.6267 66.2637 82.2363C66.3976 82.3121 66.531 82.3856 66.6641 82.4619C67.1089 82.2023 67.5527 81.9431 67.9951 81.6787ZM70.627 79.0576C71.0249 79.931 71.705 79.8896 71.5254 80.876C71.0937 80.3382 70.6573 79.8198 70.2168 79.3203H70.2178C70.3543 79.2339 70.4906 79.1443 70.627 79.0576ZM122.064 78.2373C121.946 78.324 121.778 78.8827 121.996 79.0371C122.505 79.4 123.336 79.5514 123.904 79.7881C124.083 79.1454 122.504 78.8038 122.064 78.2373ZM67.3301 77.7383C66.281 76.9443 66.5967 73.8673 68.876 76.2402C68.6156 76.3353 68.3566 76.4314 68.0967 76.5273C68.9667 77.8668 69.2507 79.7039 67.4941 78.8945C67.4191 78.3304 67.7854 78.2808 67.9365 77.8604L67.9346 77.8623C67.9737 77.7523 67.8619 77.3984 67.8027 77.2686C67.6411 77.4207 67.489 77.5842 67.3301 77.7383ZM120.601 76.1436C121.569 76.6502 121.258 76.9848 122.395 76.6406C122.376 76.8654 122.353 77.0821 122.338 77.3096C121.934 77.3137 121.65 77.4979 121.18 77.2412L121.183 77.2422C121.089 77.1891 120.433 76.3186 120.601 76.1436ZM61.1426 72.7432C61.1288 72.98 61.1027 73.2315 61.0957 73.457C61.1803 73.7695 61.4341 73.4073 61.4453 73.4385C61.6999 74.2009 61.6073 74.4014 62.3896 75.0225C62.5449 75.0612 62.7037 75.0955 62.8613 75.1328C63.5176 74.1701 62.8575 74.2266 62.8506 73.085C62.6413 73.4343 62.4292 73.7826 62.2148 74.1289C61.988 73.649 61.7625 73.1809 61.5283 72.7041C61.3995 72.7174 61.2714 72.7296 61.1426 72.7432ZM63.5684 71.7559C63.3798 71.5603 62.4811 69.6412 62.3193 70.8281C62.7454 71.433 63.1834 72.0934 63.6064 72.7393C64.3151 72.031 64.2317 72.4138 63.5684 71.7559ZM27.2402 70.8457C25.6078 70.064 25.6018 70.9461 26.2793 72.459C26.5609 71.881 26.8824 71.3352 27.2402 70.8457ZM102.664 69.8359C102.283 70.4689 100.803 70.1863 100.127 69.8018C100.239 69.7217 100.351 69.6402 100.464 69.5586C101.195 69.6485 101.923 69.7393 102.664 69.8359ZM80.1748 68.9863C80.1334 68.5877 79.2846 67.7719 78.7969 68.0928C78.5533 68.2545 78.8781 69.0578 77.9863 69.0137C78.6224 69.099 79.2264 69.1174 79.8496 69.1787C79.7527 69.3795 79.6575 69.5833 79.5605 69.7842L79.5625 69.7852C79.7553 69.8732 79.9501 69.9644 80.1426 70.0527C80.3616 69.4854 80.5788 68.9186 80.7988 68.3516C80.5945 68.317 80.3921 68.2816 80.1875 68.249C80.1841 68.3827 80.1835 68.5232 80.1826 68.6611C80.18 68.7695 80.1774 68.878 80.1748 68.9863ZM61.335 70.0039C61.3368 69.9943 61.338 69.9844 61.3398 69.9746C61.3283 69.9744 61.3159 69.9758 61.3047 69.9746C61.3012 69.9742 61.2975 69.9731 61.2939 69.9727C61.3077 69.983 61.3212 69.9936 61.335 70.0039ZM59.4492 69.6572C59.5039 69.7123 59.5629 69.7787 59.624 69.8604C59.617 69.8017 59.6071 69.7439 59.5996 69.6865C59.5497 69.6766 59.4993 69.6671 59.4492 69.6572ZM57.5967 69.3643C57.7107 69.4778 57.8304 69.6921 58.1133 69.7324C58.3671 69.7707 58.5585 69.6261 58.75 69.5264C58.4838 69.4807 58.207 69.4393 57.9131 69.4062C57.8137 69.3951 57.7078 69.3783 57.5967 69.3643ZM29.2783 68.4736C28.3924 69.0242 28.6056 69.3306 29.5303 69.5469C29.5897 69.5633 29.6481 69.1845 29.7764 69.2383C29.9 69.2997 30.4143 70.0072 30.3965 69.3984C29.7209 68.2888 29.7485 69.1908 29.2656 69.0625C29.2604 68.8686 29.2672 68.6716 29.2783 68.4736ZM56.7822 69.2578C56.8862 69.3799 56.9887 69.4955 57.0898 69.6367C57.203 69.4744 57.2898 69.3812 57.3594 69.334C57.1743 69.3096 56.979 69.2844 56.7822 69.2578ZM26.2461 65.7617C26.8145 66.2509 27.0638 66.9394 26.9287 67.8896C26.7135 67.9384 26.4964 67.9982 26.2822 68.0635C26.1834 67.3346 26.167 66.558 26.2461 65.7617ZM35.04 66.8887C34.7404 65.0771 33.6733 66.2187 33.8994 66.7539C34.0732 66.7217 34.1254 66.3845 34.332 66.4678C34.5463 66.5503 34.6964 66.9482 35.04 66.8887ZM29.5547 64.1729C30.4403 63.5855 30.6392 62.489 31.2646 63.1963C31.3369 63.2834 31.4152 63.398 31.501 63.543C31.4807 63.5632 31.4587 63.5834 31.4375 63.6035C30.6523 64.2883 29.3716 65.0883 28.6436 64.5215C27.8041 65.1446 28.1577 65.8913 28.9619 65.7051C31.1668 63.644 30.3607 65.8043 31.9014 64.6865C32.0108 64.6156 32.1357 64.5296 32.2832 64.4287C32.2336 64.2165 32.255 63.9606 32.1689 63.7764C33.1942 64.2128 32.12 64.9221 32.1396 65.1875C32.1388 65.2079 32.14 65.2281 32.1406 65.2471C32.1422 65.4566 32.2337 65.5844 32.3203 65.6689C32.4436 65.7962 32.5564 65.83 32.4072 65.8721C32.3243 65.897 32.1671 65.9265 31.9092 65.9844V65.9863C31.1513 66.1722 30.9768 66.2218 30.3613 66.5762C30.0539 65.7416 31.3022 64.5544 29.3232 65.6719C29.3027 65.692 29.6486 66.06 29.335 66.2207C29.241 66.2698 28.6953 66.1642 28.2139 66.4697C28.0587 66.5684 27.0192 67.4674 28.3154 66.127C27.8646 65.73 27.5286 65.2149 27.1328 64.791C27.6761 64.0668 28.9 64.6132 29.5547 64.1729ZM71.5801 65.1562C73.2891 63.6398 74.6552 65.5778 73.0508 65.7432C72.6467 65.7849 72.0227 65.2043 71.5801 65.1562ZM40.0342 65.4912C41.3201 62.7938 38.1291 64.6208 38.8467 65.4639C38.8831 65.4967 39.8945 65.2101 40.0342 65.4912ZM55.001 64.082C55.0761 64.2887 55.1747 64.494 55.2969 64.6973C55.4674 64.7823 55.6775 64.7975 56.0146 64.6211C55.68 64.441 55.3391 64.2609 55.001 64.082ZM69.8018 63.1318C69.9001 63.4886 73.5561 64.4498 71.6104 64.4541C71.3254 64.453 69.7855 63.4691 69.1934 64.208C69.3334 63.821 69.5929 63.4876 69.8018 63.1318ZM65.2295 63.5996C66.1839 63.0312 65.5331 62.2671 66.918 63.2354C66.7939 63.3971 66.6694 63.5578 66.5459 63.7197C66.1159 63.6816 65.6677 63.64 65.2295 63.5996ZM43.0234 61.5078C43.0759 61.6228 43.1059 61.7234 43.1172 61.8115C43.1173 61.8196 43.1181 61.8279 43.1182 61.8359C43.0894 61.728 43.0581 61.6188 43.0234 61.5078ZM53.6797 56.6201C53.709 57.7152 54.0331 57.6475 54.9512 58.0107C54.6023 58.4599 53.2266 58.263 52.6602 57.9092C53.0009 57.481 53.3414 57.0509 53.6797 56.6201ZM49.6084 54.0469C49.0344 53.6461 48.4566 53.2496 47.8799 52.8555C48.372 52.7411 48.8635 52.6248 49.3555 52.5107C49.4382 53.0193 49.527 53.5378 49.6084 54.0469ZM48.0645 46.2217C47.3483 46.6579 47.9938 46.8124 48.1094 47.334C48.2236 47.8575 47.4814 48.2307 47.2578 47.6514L47.2559 47.6523C47.1639 47.4113 47.9541 47.3439 46.8955 47.123C47.1525 46.6569 47.3769 46.2223 47.6221 45.7676C47.7706 45.9221 47.9109 46.0587 48.0645 46.2217ZM44.8936 44.2402C44.8326 44.0898 45.0118 43.361 45.3535 43.6748C45.905 44.1858 45.5112 45.2419 46.2773 44.9316C46.2973 45.0142 46.3203 45.0969 46.3438 45.1787L46.916 45.7266C46.9331 45.8645 46.9523 46.0032 46.9678 46.1445C46.825 46.1419 46.6907 46.1034 46.5664 46.0381L46.0469 45.541C45.5344 45.3682 45.1116 44.7811 44.8945 44.2412L44.8936 44.2402ZM40.3398 42.4531C40.3747 42.2783 40.4073 42.1033 40.4424 41.9287C40.8676 42.1712 41.2834 42.4053 41.7061 42.6455C41.2976 42.8824 40.8895 43.1203 40.4824 43.3604C40.6449 43.6125 40.8107 43.8637 40.9746 44.1191C40.0078 43.7261 39.3498 43.3628 38.9229 42.3848L38.9219 42.3818C38.8985 42.3241 39.315 42.2307 39.3145 42.1201C39.1327 42.0367 38.9218 41.9643 38.7295 41.8848C38.879 41.659 39.0293 41.4335 39.1777 41.209C39.5694 41.6276 39.948 42.0345 40.3398 42.4531ZM35.5205 40.5713C36.3727 38.9627 35.7917 39.8274 36.8506 40.1729C37.2177 40.2925 37.1449 39.8308 37.3486 39.9297C38.4528 40.4652 37.7783 41.4576 37.1738 41.7676C36.6186 41.3684 36.0635 40.9658 35.5215 40.5732L35.5205 40.5713ZM38.5381 39.8818C38.4309 40.0393 38.314 40.1872 38.209 40.3486C37.9914 40.2001 37.9802 40.1756 37.7627 39.9287L37.7637 39.9297C37.6783 39.8336 36.9776 38.9788 37.2539 38.832C37.6749 39.1699 38.1117 39.5334 38.5381 39.8818ZM26.4971 37.1973C25.426 36.8039 24.4355 36.4594 23.833 37.2764C24.1942 37.7188 24.3706 37.1238 24.6152 37.1826C25.5372 37.4059 25.7322 38.0925 26.5488 38.4277C26.4353 38.4776 26.3294 38.5254 26.2197 38.5742L26.2217 38.5762C29.0204 41.4836 28.208 39.1435 26.2207 37.7949C26.3121 37.5949 26.4065 37.3959 26.4971 37.1973ZM31.8711 39.0439C31.6286 39.2523 31.3859 39.4615 31.1436 39.6699C30.8725 39.4925 30.5948 39.311 30.3203 39.1309L30.3184 39.1289C30.4495 39.0242 30.5817 38.9178 30.7119 38.8145C31.1003 38.8925 31.4859 38.9685 31.8711 39.0439ZM33.0684 35.7344C33.9221 35.8452 33.4894 36.5439 34.1475 36.7842C34.8106 37.0259 35.4007 36.9273 35.1328 38.1514C34.8642 38.148 34.538 38.1914 34.249 38.207C33.8154 37.2757 33.3422 37.4311 32.4893 37.3027C32.8029 36.9422 33.1141 36.5832 33.4277 36.2227L33.4268 36.2207C33.3016 36.0618 33.214 35.8746 33.0684 35.7344ZM25.8477 35.7393C26.4016 35.9034 26.9528 36.0654 27.5049 36.2285C27.1353 35.8726 26.7651 35.5136 26.3945 35.1572C26.2126 35.3507 26.0296 35.5458 25.8477 35.7393ZM18.5225 31.3457C18.434 31.2148 18.4715 29.6656 17.6436 30.1963C17.471 30.3036 18.1682 31.0268 17.2803 31.0312C17.4885 31.2532 17.7012 31.4103 17.9062 31.6055C17.7742 31.8035 17.6411 32.0018 17.5107 32.2012C17.2922 31.9163 17.0679 31.6264 16.8496 31.3428C16.7424 32.1707 17.4446 33.0649 18.3564 32.8008C18.1861 32.5472 18.0302 32.3041 17.8594 32.0508C18.3349 32.3172 18.8144 32.5762 19.291 32.8516C19.9374 32.0937 19.0847 32.1479 18.5225 31.3457ZM30.5879 31.9658C30.1518 32.1174 29.7198 32.2713 29.2871 32.4258C29.8111 31.8954 29.5779 31.7101 29.4961 30.9795C29.8666 31.3128 30.2197 31.6341 30.5879 31.9658ZM23.1289 26.4258C24.0347 26.4595 24.6198 26.7422 25.4473 27.2812C25.4803 27.1053 25.5136 26.9301 25.5439 26.752C25.7568 27.2686 25.9821 27.7967 26.1904 28.3105C25.6973 28.2498 25.1309 28.1681 24.6738 28.1143C24.5051 29.3209 25.7533 29.5837 26.334 29.7744C27.1434 30.0489 26.682 30.3136 27.2715 30.5254C27.3653 30.5598 27.6193 30.2649 27.7695 30.3779C28.5102 30.9401 29.7946 32.253 28.3936 32.2832C27.2739 31.2204 25.7942 30.9577 24.7881 29.7998C24.437 30.8671 23.5929 30.6437 22.457 30.3252C23.4535 29.6937 24.5593 30.2034 24.2139 28.5986C23.8935 28.8327 23.5677 29.0629 23.2471 29.2969C23.0873 28.7859 22.9207 28.2697 22.7607 27.7617C22.548 27.7781 22.3248 27.7865 22.1094 27.7988C22.3648 27.1496 22.6319 26.5067 22.8848 25.8535C22.9709 26.0474 23.0463 26.2345 23.1289 26.4258ZM22.457 30.3252L22.4541 30.3262L22.4531 30.3232C22.4544 30.3235 22.4558 30.325 22.457 30.3252ZM13.0068 27.6279C12.3421 27.4742 11.5597 26.5095 11.2461 27.3604L11.2451 27.3594C11.2332 27.4171 11.8686 28.3502 12.1631 28.2256C12.4596 28.0545 12.7247 27.826 13.0068 27.6279ZM13.7305 27.3398C14.7206 27.9261 15.2513 27.9122 15.2764 26.8799C14.8505 26.7707 14.4222 26.658 13.9971 26.5459C13.9088 26.8108 13.8189 27.0753 13.7305 27.3398ZM27.7051 26.3076C27.5186 26.6604 27.3336 27.0141 27.1475 27.3672C26.7573 27.1994 26.3654 27.0296 25.9727 26.8604L25.9736 26.8584C25.9045 25.8929 27.3353 27.6461 26.8545 25.8975C27.1365 26.0336 27.4265 26.1738 27.7051 26.3076ZM21.5 25.874C21.3204 26.2104 21.1414 26.548 20.9648 26.8848C20.6922 26.6609 20.4235 26.4397 20.1504 26.2168C20.1674 26.0645 20.1872 25.9143 20.2051 25.7627C20.6303 25.793 21.0733 25.8411 21.5 25.874ZM18.5928 23.5566C19.0776 23.4567 19.68 23.906 20.2998 23.8301C20.8186 24.5481 20.8455 25.1709 20.46 25.7402C20.4355 25.5261 20.4078 25.3068 20.377 25.0879L20.376 25.0859C20.1746 25.0758 19.9765 25.069 19.7793 25.0605C19.865 24.7912 19.9522 24.5242 20.0391 24.2559C19.4978 24.1162 18.9323 23.9592 18.3867 23.8232L18.4717 23.8896C18.4163 23.8754 18.3594 23.8612 18.3037 23.8467C18.4256 23.7205 18.5535 23.6545 18.6846 23.6279L18.5928 23.5566ZM12.626 21.1797C12.5026 21.13 12.3849 21.0819 12.2637 21.0342C12.2529 21.2193 12.2368 21.4024 12.2275 21.5889C12.6633 21.301 12.5787 21.6089 12.8115 22.0205C13.0616 21.533 13.3078 21.0411 13.5566 20.5527C13.8501 21.0036 14.142 21.4559 14.4307 21.9053C14.3491 22.0125 14.2661 22.1194 14.1846 22.2266C14.4418 22.2173 14.7022 22.2077 14.959 22.1982C14.8951 22.3546 14.8303 22.5087 14.7676 22.666C15.0233 22.7218 15.2797 22.7782 15.5332 22.8301C15.3369 23.1738 14.8402 22.9759 15.5938 23.4795C15.1253 23.6082 14.6593 23.7383 14.1865 23.8633C13.1734 22.9696 12.1466 22.0671 11.1201 21.1777L11.1182 21.1768C11.3704 20.8203 11.8239 21.0408 11.6611 20.3721C11.9841 20.6401 12.3041 20.9106 12.626 21.1797ZM7.4082 15.4229C6.8576 15.2646 6.30109 15.102 5.74219 14.9414C5.74538 14.5482 5.7517 14.1576 5.75098 13.7617C6.30021 14.3112 6.86325 14.8724 7.4082 15.4229Z" fill="#FF61B0"/>
</svg>
