<svg width="196" height="125" viewBox="0 0 196 125" fill="none" xmlns="http://www.w3.org/2000/svg">
<path d="M127.887 90.6336C144.481 90.7196 168.168 97.4785 188.796 99.3326C188.435 90.4737 185.202 64.258 187.387 49.8854C189.449 36.3206 191.16 32.869 191.87 32.7652L191.986 32.7808C191.951 32.7647 191.912 32.759 191.87 32.7652L179.452 31.09C171.971 32.3255 152.608 30.7132 141.398 29.5274C130.187 28.3416 85.2631 31.09 78.1691 31.09H47.3084V84.4067V96.6403C53.6627 95.848 66.2997 95.4495 67.1171 95.4136C76.6419 94.9995 82.8087 95.4128 92.1645 93.6448C99.3564 92.2858 111.293 90.5475 127.887 90.6336Z" fill="white"/>
<path d="M189.385 64.449C189.676 65.3791 189.526 62.262 189.949 64.3288C189.987 63.899 190.028 63.4607 190.071 63.0324C189.902 62.9243 189.734 62.8134 189.565 62.705C189.5 63.2799 189.44 63.8675 189.384 64.449C189.384 64.449 189.384 64.449 189.385 64.449ZM187.273 65.278C187.743 64.7283 187.879 63.0322 188.322 64.8607C188.157 65.0092 187.993 65.1618 187.829 65.3115C187.962 65.9533 188.094 66.5888 188.228 67.227C188.169 67.4589 188.111 67.6919 188.055 67.923C188.339 68.2071 188.622 68.488 188.904 68.771C188.859 68.5127 188.815 68.2511 188.771 67.9932C188.986 66.9591 189.045 66.0489 189.098 64.6593C189.165 64.7799 189.232 64.9008 189.299 65.0214C189.189 64.3225 189.08 63.6165 188.975 62.9188C188.849 63.5245 188.716 64.2138 188.609 64.7771C188.158 63.88 188.423 62.2775 188.542 61.4479C188.703 60.3287 188.475 60.5714 188.596 59.7388C188.615 59.6061 188.791 59.5943 188.804 59.3332C188.865 58.001 188.943 55.4363 188.429 56.9178C188.354 59.1017 187.979 60.9739 188.08 63.1393C187.625 62.5669 187.454 63.7156 187.273 65.278ZM184.994 29.1092C185.622 29.495 186.996 29.579 187.942 29.5214C187.944 29.5215 187.945 29.5217 187.946 29.5218C188.154 29.5087 188.663 29.2044 188 29.1193C186.919 28.9808 186.318 29.4985 185.807 29.0092C185.544 29.0465 185.269 29.074 184.994 29.1092ZM182.656 28.7243C181.975 28.7746 182.213 29.2774 183.058 29.2746C183.058 29.275 183.058 29.2754 183.058 29.2757C183.411 29.2747 182.781 28.8155 183.971 29.3627C184.262 29.1167 184.546 28.8967 184.832 28.6615C184.53 28.6111 184.254 28.5618 183.937 28.51C184.088 29.008 183.337 28.6757 182.656 28.7243ZM188.711 55.8273C189.063 55.7476 189.027 56.1671 189.216 56.9095C189.25 56.2221 189.291 55.5327 189.34 54.8535C189.127 55.1726 188.918 55.4952 188.711 55.8273ZM188.59 72.2479C188.59 72.249 188.59 72.25 188.59 72.2511C188.55 72.4837 188.511 72.717 188.473 72.9466C188.583 73.0788 188.693 73.2101 188.802 73.3424C188.731 74.162 188.665 74.9848 188.603 75.8065C188.911 75.689 188.802 74.2297 189.001 73.4135C188.868 72.2222 188.664 71.6555 188.384 71.5899C188.453 71.8086 188.522 72.0266 188.59 72.2479ZM46.5528 42.5849C46.382 42.8588 46.2112 43.1292 46.0405 43.403C45.9623 43.0389 45.9026 42.6777 45.812 42.3106C46.5547 41.3504 45.8973 41.2602 45.9424 40.0022C46.082 36.1461 47.2394 37.1692 45.5444 33.6866C45.6257 36.4827 44.8293 35.4081 44.2175 37.0938C44.6841 37.443 45.7356 35.7727 45.9544 36.9046C45.4613 38.8549 45.0029 40.7305 44.6869 42.8945C44.6063 42.8313 44.5255 42.7684 44.4449 42.7052C44.4953 42.362 44.5461 42.0217 44.5965 41.6785C44.3813 42.0488 44.168 42.4107 43.9506 42.787C44.4391 42.3114 44.1673 43.5235 44.729 43.3613C44.979 43.2891 45.3256 42.7534 45.5645 42.4373C45.695 43.2529 45.8146 44.0895 45.9413 44.9141C46.1402 44.4868 46.3394 44.0599 46.5385 43.6356C46.5446 43.2866 46.5489 42.9403 46.555 42.5913C46.5543 42.5892 46.5536 42.587 46.5528 42.5849ZM167.743 97.9983C166.767 97.5531 164.919 97.1898 163.879 97.3572C165.167 97.574 166.453 97.7884 167.743 97.9983ZM188.153 71.5221C188.21 71.6364 188.265 71.7471 188.321 71.8613C188.401 71.3419 188.484 70.8197 188.57 70.3016C188.414 70.2093 188.258 70.1145 188.102 70.0188C188.117 70.5184 188.135 71.0221 188.153 71.5221ZM191.321 39.1414C191.219 39.4922 191.218 39.5221 191.134 39.9811C191.134 39.9806 191.134 39.9801 191.134 39.9795C191.1 40.1482 190.866 41.67 191.05 41.5393C191.222 40.7891 191.406 40.0076 191.596 39.2693C191.505 39.2226 191.411 39.1942 191.321 39.1414ZM189.575 47.9598C189.575 47.9609 189.575 47.9619 189.575 47.963C189.548 48.2394 189.546 48.509 189.504 48.8016C189.905 47.7992 189.535 47.581 189.816 46.6715C190.101 45.758 190.437 45.2273 190.034 44.3493C189.895 44.6191 189.716 44.9127 189.561 45.2053C189.537 46.5529 189.265 46.882 188.868 47.9075C189.104 47.9247 189.339 47.9424 189.575 47.9598ZM52.9794 28.6051C53.2367 29.0273 53.5197 28.6132 53.5511 28.6082C53.5505 28.6077 53.55 28.6072 53.5495 28.6067C55.8461 28.9984 53.2484 28.3729 55.4191 28.308C55.1075 28.2024 54.7723 28.0908 54.459 27.984C53.9834 28.1873 53.4456 28.4178 52.9794 28.6051ZM127.417 26.9689C127.436 26.8563 127.459 26.7434 127.478 26.6309C126.192 26.6705 125.807 26.2315 124.753 26.6521C125.62 26.7575 126.547 26.8625 127.417 26.9702C127.417 26.9698 127.417 26.9693 127.417 26.9689ZM191.8 34.0851C192.338 34.0893 192.431 33.9055 192.483 33.8744C192.525 33.8263 192.505 33.825 192.483 33.839C192.432 33.8711 192.355 33.9572 192.284 34.0547C192.139 34.2543 192.008 34.4958 191.894 34.7565C191.672 35.2682 191.521 35.8415 191.446 36.5104C191.446 36.5115 191.446 36.5126 191.446 36.5137C191.438 36.5894 191.72 36.2956 191.733 36.4029C191.625 36.6501 191.503 36.9064 191.392 37.1684C191.519 37.2442 191.645 37.3204 191.771 37.3938C191.952 36.642 192.154 35.8879 192.383 35.2118C192.421 35.3431 192.462 35.4667 192.502 35.6C192.631 35.3232 192.768 35.0506 192.9 34.8253C193.024 34.6096 193.199 34.375 193.204 34.4222C193.032 34.2425 192.715 34.2808 192.425 34.3229C192.474 34.1755 192.535 34.0278 192.566 33.9472C192.58 33.9073 192.593 33.8821 192.548 33.9083C192.496 33.908 192.412 34.1066 191.8 34.0851ZM105.763 28.837C105.986 28.7001 105.555 28.5018 105.904 28.3779C106.254 28.2555 106.918 28.4692 106.75 28.1142C106.269 28.0837 105.77 28.0469 105.276 28.0147C106.816 27.3034 108.411 27.8363 108.402 27.0342C106.899 27.2945 105.663 27.2438 104.19 27.0747C104.276 27.7134 105.761 28.2094 104.866 28.8459C105.161 28.8424 105.474 28.8422 105.76 28.8357C105.761 28.8361 105.762 28.8366 105.763 28.837ZM185.875 92.7932C185.998 93.6881 186.12 95.7101 186.385 96.8024C186.454 97.0818 187.018 97.9411 187.078 97.9423C187.287 97.9002 187.224 96.7746 187.461 97.9723C187.43 97.5534 187.407 97.1904 187.375 96.7804C187.526 96.8434 187.676 96.9057 187.825 96.965C187.842 97.4395 187.858 97.9545 187.869 98.4198C187.917 98.4401 187.965 98.4603 188.014 98.4805C187.893 96.7386 188.147 97.7611 188.253 96.8427C188.4 97.6487 188.543 98.5336 188.661 99.3381C188.632 98.8836 188.591 98.2874 188.552 97.8719C188.791 97.8025 188.79 98.8195 188.84 98.9956C189.153 99.969 188.728 94.9561 189.053 94.5256C189.148 95.3125 189.241 96.1396 189.327 96.9791C189.358 96.7447 189.388 96.4864 189.419 96.2533C189.062 94.4201 188.814 92.3459 188.482 90.1987C188.478 90.0001 188.474 89.8006 188.47 89.6123C188.597 89.6587 188.722 89.7019 188.848 89.748C188.842 89.4576 188.835 89.1601 188.829 88.8631C188.486 89.7668 188.406 88.5557 188.039 87.1303C187.954 87.9194 188.118 88.8542 187.847 88.8147C187.836 86.1413 187.282 83.0791 187.35 80.4773C187.368 79.8285 187.751 79.8141 187.622 78.3069C187.583 78.3605 187.506 78.3742 187.452 78.4108C187.475 75.7976 187.515 74.2168 187.196 71.5221C187.353 71.6715 187.51 71.8181 187.665 71.9671C187.613 72.5437 187.563 73.1209 187.517 73.6962C187.778 74.0736 187.856 73.4912 187.934 75.2011C188.001 76.6031 187.855 75.7747 187.805 76.1598C187.736 76.6787 187.948 77.1248 187.874 77.6854C187.818 78.1199 187.598 77.6651 187.715 78.7839C187.933 78.3126 188.164 77.8434 188.394 77.3732C188.324 77.104 188.253 76.8354 188.181 76.5655C188.128 76.846 188.076 77.1228 188.024 77.4031C188.091 76.4189 188.161 75.4994 188.246 74.4864C187.889 74.8335 187.981 73.7888 188.003 73.2218C188.038 72.3402 187.808 73.1055 187.828 72.5278C187.849 71.9498 188.121 71.3154 188.028 70.2789C187.872 70.8432 187.694 70.0914 187.539 70.2443C187.383 70.3975 187.391 71.5019 187.177 70.4497C187.239 68.4093 187.921 70.5932 187.982 69.2168C188.067 67.5669 187.043 67.2023 186.836 67.7024C186.674 68.0936 186.755 69.4304 186.603 69.8275C186.204 67.4424 186.821 67.4034 186.93 66.9911C187.339 65.4976 186.18 66.5205 186.575 64.7492C186.353 64.7854 186.153 64.8152 185.94 64.8516C185.975 64.5456 186.025 64.3467 186.052 63.9753C186.505 65.0544 186.471 64.1706 186.468 63.7115C186.463 62.9927 186.686 64.1012 186.74 63.9105C186.882 63.3945 186.815 62.5904 187.01 63.0838C186.919 62.8622 186.828 62.6231 186.738 62.3951C186.845 61.5443 187.846 59.6194 187.619 61.4659C187.977 61.2937 187.817 60.6998 187.774 60.2244C187.732 59.7537 187.961 59.767 187.932 59.3574C187.82 57.7166 187.383 58.7722 187.067 59.0319C187.361 56.8551 187.399 58.9946 187.713 55.8844C187.991 55.6033 188.173 57.0319 188.4 55.8639C187.97 55.6121 187.69 54.7223 187.705 52.9922C187.826 52.8399 187.95 52.6827 188.074 52.5264C187.761 51.5479 187.24 51.9747 188.012 50.3174C187.161 50.9192 187.384 50.7327 187.457 49.896C187.481 49.6343 187.492 49.3145 187.455 48.9448C187.422 48.6197 187.107 49.3109 187.07 48.8574C187.053 48.6581 187.284 48.1853 187.242 47.6809C187.219 47.4419 187.012 46.2601 187.327 45.5113C187.716 46.163 188.386 44.7685 188.567 46.0964C188.878 43.7667 189.429 42.2043 188.275 44.6629C188.232 44.0541 188.195 43.4271 188.156 42.8238C188.355 42.4206 188.548 42.0607 188.753 41.6572C188.36 41.5088 188.219 41.5557 188.64 39.9558C188.39 40.6302 188.149 41.305 187.913 41.9957C187.827 42.0024 187.722 42.0823 187.647 42.0431C187.961 41.2074 188.553 38.7922 188.817 38.2351C189.07 37.6778 188.823 38.8212 188.972 38.6769C190.195 37.4984 189.523 37.447 189.954 36.4958C190.21 35.9492 189.909 37.3528 190.037 37.0541C190.503 35.9569 190.196 35.2837 190.587 34.2711C190.699 34.7404 190.847 35.1651 190.994 35.6039C191.154 35.1149 191.334 34.6197 191.56 34.1557C191.667 33.9356 191.794 33.7112 191.919 33.549C191.98 33.4683 192.048 33.3995 192.081 33.3809C192.096 33.3718 192.104 33.3792 192.054 33.4059C192.015 33.4315 191.845 33.4696 191.699 33.4029L192.077 32.1019C192.019 32.0892 191.961 32.0763 191.904 32.0631C191.507 31.972 191.839 31.8046 191.775 31.7814C191.459 31.664 190.152 31.3623 190.012 31.3415C188.957 31.1904 188.887 31.4811 187.86 31.3544C188.259 31.4357 188.635 31.511 189.025 31.5899C189.139 32.0926 189.257 32.5945 189.372 33.0953C188.362 32.998 187.351 32.9005 186.337 32.8038C187.096 32.7385 187.858 32.6761 188.616 32.6145C187.517 32.0743 186.418 31.5259 185.321 30.9704C184.689 31.1287 184.059 31.2895 183.426 31.4523C181.807 31.1679 182.27 30.2109 181.379 30.9815C180.909 30.8417 180.439 30.7014 179.969 30.5614C180.021 30.697 180.072 30.8326 180.123 30.9679C179.913 30.91 179.702 30.8522 179.492 30.7941L179.403 30.7955C179.058 30.8022 178.666 30.8047 178.316 30.7937C178.632 30.4823 178.971 30.1528 179.244 29.8297L179.622 29.824C179.885 29.6776 180.146 29.5338 180.408 29.3965C180.097 29.3245 179.867 29.301 179.692 29.3064L179.158 29.3143C178.782 29.4509 178.757 29.6734 178.65 29.7577C178.262 30.0672 177.367 29.8037 177.029 30.0626C176.922 30.1554 178.027 30.3167 177.684 30.6408C177.634 30.7059 176.199 31.9075 175.212 31.6917C175.223 31.4934 175.289 31.2482 175.319 31.032C174.039 30.9597 173.395 32.0003 173.572 32.2908C172.864 32.1034 171.855 32.0905 171.717 31.7687C171.368 31.761 171.012 31.7521 170.659 31.7412C171.022 32.53 169.544 32.3755 169.46 31.6919C170.073 31.6857 170.665 31.6748 171.282 31.6605C170.831 30.8256 172.657 30.3644 168.846 31.063C168.108 31.481 170.139 31.0316 169.54 31.3435C168.51 31.5139 167.534 31.3269 166.544 31.5976C165.302 31.9326 166.796 32.3669 163.959 31.7583C170.303 30.7873 163.129 30.9286 160.212 30.3301C159.33 31.5054 156.797 31.7585 153.394 31.1182C153.78 30.7964 154.845 31.0597 155.475 30.9903C156.105 30.9215 155.448 30.6657 156.234 30.5607C157.02 30.4563 158.678 30.3525 159.475 30.1616C158.824 29.9279 155.591 29.2203 157.712 29.9363C156.076 30.1604 155.288 30.4592 153.28 30.364C152.724 29.7676 152.796 29.4328 150.851 29.2437C151.943 30.1105 149.675 30.4493 150.095 31.285C151.501 31.2163 150.79 30.3828 151.62 30.0836C151.705 30.0546 152.979 30.3541 153.28 30.364C151.927 30.9439 151.445 31.1658 152.186 32.0472C151.263 31.9037 150.685 31.9605 150.632 31.5609C150.424 31.7153 150.215 31.8701 150.011 32.0253C149.712 31.9966 149.443 31.9585 149.122 31.9349C149.615 31.377 148.73 31.6721 148.152 31.3491C147.569 31.0242 148.424 30.6272 146.768 30.4683C147.341 30.38 147.843 30.305 148.397 30.2221C147.336 29.971 146.295 29.7156 145.235 29.4543C146.026 29.1612 147.693 28.7751 147.691 28.2902C147.187 28.4249 145.537 27.9344 145.356 27.9011C144.657 27.7781 145.011 28.1238 144.957 28.1258C143.819 28.158 142.917 27.9545 142.445 28.3752C142.12 28.257 141.828 28.1929 141.543 28.1526C141.117 28.0914 140.578 28.0869 140.052 28.0434C139.56 28.0038 139.673 27.6639 139.367 27.7116C137.401 28.0606 139.207 28.5656 135.502 27.6087C135.935 27.3724 136.435 27.1344 136.884 26.9025C136.471 26.7975 136.015 26.6931 135.603 26.5915C135.326 26.6297 135.047 26.6691 134.761 26.7089C134.762 27.2405 134.763 27.7732 134.764 28.3048C134.457 28.3298 134.126 28.3547 133.824 28.3814C134.355 28.438 134.905 28.4965 135.418 28.5572C135.463 28.6513 135.506 28.7454 135.551 28.8394C134.795 28.9715 133.959 29.1111 133.208 29.256C133.193 29.0703 133.179 28.8833 133.164 28.6975C131.361 28.9528 131.373 29.1148 129.664 28.6121C128.388 28.6297 127.302 27.8589 126.555 27.5365C126.287 27.646 126.018 27.7573 125.745 27.8678C125.565 27.7135 125.389 27.5597 125.217 27.405C124.884 27.6296 124.545 27.8551 124.208 28.0803C124.004 27.5862 123.91 27.4302 125.227 27.2339C124.77 26.6214 122.417 26.9351 121.471 27.1675C120.747 27.343 121.57 27.8448 121.48 27.91C121.178 28.1321 119.987 27.9766 119.738 28.0191C118.683 28.1962 117.939 28.1916 116.99 28.3362C116.805 28.3649 116.294 28.7142 116.25 28.7262C115.905 28.794 115.068 28.984 114.971 28.992C110.007 29.4137 115.269 27.7754 110.649 28.0878C110.78 27.8902 110.9 27.6946 111.029 27.4975C110.679 27.4975 110.325 27.4984 109.975 27.4988C109.538 27.6754 110.085 27.9499 109.196 27.7443C109.263 27.9803 109.33 28.2163 109.399 28.4509C109.012 28.3365 108.638 28.2225 108.242 28.1082C107.657 28.9575 105.428 29.2353 105.627 30.2052C105.696 30.5352 107.293 30.8081 106.47 31.1977C105.793 31.2968 106.237 30.8808 105.959 30.8718C103.939 30.8132 104.082 31.3658 103.259 31.2533C103.118 31.02 102.971 30.7821 102.828 30.5462C102.519 30.63 102.211 30.7139 101.902 30.798C101.823 30.6401 101.741 30.4822 101.662 30.3243C101.952 30.3009 102.281 30.2758 102.549 30.2535C102.148 29.6467 98.7048 29.5117 100.038 29.9889C100.587 30.1819 101.55 30.0478 100.97 30.8123C100.042 30.747 99.0019 30.6843 98.0312 30.6207C98.0078 30.7816 97.9866 30.9427 97.9633 31.1036C96.6501 31.0597 97.8109 30.3674 97.7941 30.0259C97.4936 30.0295 97.1916 30.0343 96.8945 30.0378C96.7756 30.1981 96.6635 30.3655 96.5391 30.5214C96.5114 30.2758 96.3407 29.709 95.4454 29.9616C94.8775 30.1258 95.8066 30.7084 94.7129 30.671C94.7784 30.2817 95.1429 29.7957 93.9379 29.724C93.8372 30.1319 93.6917 30.5081 93.6135 30.936C92.0726 30.6174 91.4157 31.2724 89.6422 30.8995C88.4861 30.6653 86.9204 29.711 86.2594 31.3131C85.46 31.3891 85.6955 30.9867 85.4438 30.9092C84.26 30.5415 83.4566 31.3209 83.2348 31.374C81.9118 31.7083 81.2651 31.4729 80.1638 31.8607C80.2129 31.5662 80.2364 31.2881 80.2746 31.0014C81.3262 31.4079 81.8457 31.3681 83.2448 31.2192C82.7682 31.1794 82.2974 31.1374 81.8012 31.0966C81.8712 30.8566 81.9411 30.6165 82.0095 30.3779C86.4513 31.1385 85.4045 29.7105 81.6599 29.5245C81.3558 29.9745 81.0774 30.4223 80.7452 30.8741C79.735 30.5826 78.9025 30.5738 78.1691 30.6451C77.3314 30.7194 76.4657 30.9079 75.2189 30.9794C74.9194 30.9953 73.8759 30.7406 73.4326 30.7279C73.44 30.7262 73.4474 30.7245 73.4548 30.7228C73.1771 30.3052 73.5535 30.1131 73.5972 29.74C73.3577 29.693 73.1135 29.6462 72.8654 29.5991C72.3149 29.8832 72.5218 30.1173 71.4389 30.0488C71.5781 29.7652 71.7292 29.4816 71.8737 29.1982C70.7 29.1868 69.9316 29.4945 68.8361 29.3602C69.0182 29.4678 69.1989 29.5757 69.385 29.6833C67.0095 29.9558 68.8927 31.6281 67.1019 30.7958C66.9873 30.9417 66.8755 31.0889 66.7605 31.2348C67.5027 31.2706 68.2461 31.3053 68.9794 31.341C68.9944 31.5472 69.0105 31.7525 69.0224 31.9587C68.2352 31.8974 67.4376 31.8339 66.6427 31.7724C67.2265 31.9107 67.7981 32.0491 68.3829 32.1871C67.4607 32.2865 66.5449 32.3861 65.6264 32.4856C66.6024 31.7256 65.3372 31.6333 65.575 30.881C63.9495 31.5068 62.6689 32.3342 60.1514 31.8056C59.6504 31.7002 59.9203 31.1732 58.5031 31.8147C58.844 30.9763 57.0739 30.5826 57.2979 29.785C57.798 29.8236 58.298 29.8479 58.7848 29.8951C58.2343 30.1716 58.1468 30.9327 58.9762 31.1584C60.031 31.4461 61.5758 30.919 61.5117 31.7628C61.9316 31.7231 62.3245 31.6996 62.7345 31.6661C62.5661 31.4569 62.4002 31.2464 62.2346 31.0371C63.4004 31.3652 64.1319 31.2582 64.6923 30.7313C63.3029 30.6097 61.9203 30.4893 60.5301 30.3688C60.7341 30.3329 60.9416 30.2968 61.1469 30.2622C60.0928 29.7226 61.1836 29.2123 59.2187 29.0959C59.2307 29.3426 59.2403 29.5895 59.2523 29.8375C58.5404 29.1774 56.5826 29.18 57.2074 28.4209C56.6126 28.6538 56.5066 28.8014 56.1639 28.3918C54.6105 28.9681 53.609 29.6983 54.1634 30.5699C53.5725 30.4295 53.0107 30.289 52.426 30.1487C52.7574 29.9103 53.105 29.6731 53.4296 29.4349C52.418 29.4496 51.425 29.4641 50.411 29.4777C50.3022 30.183 52.3474 29.6918 51.7572 30.3222C51.6295 30.4487 51.12 30.1777 50.9582 30.2489C49.4579 31.02 51.8165 30.463 51.3696 31.0538C49.8032 31.1821 50.1989 31.7094 49.5411 31.7224C49.2278 31.728 48.763 31.6416 47.8469 31.3943C47.7546 31.598 47.6686 31.8057 47.6049 32.0081C47.473 32.0093 47.4059 32.0054 47.3084 31.9971L48.2155 31.09C48.1457 31.8488 47.7695 31.8661 47.6918 32.6872C47.6377 33.2621 48.445 33.9837 47.8952 34.6186C47.7939 34.7318 46.807 33.6637 46.8507 35.9084C46.8845 37.6504 47.5814 36.9254 47.8282 37.8671C48.0747 38.8093 47.1092 40.9648 48.2032 41.5999C48.0585 41.1064 47.9804 40.4777 47.8616 39.93C48.0748 39.7073 48.2858 39.4904 48.4979 39.2707C48.2223 40.523 48.5459 41.8174 48.0378 42.6603C48.8136 44.331 48.0922 46.1995 47.2169 45.6938C47.3432 45.1439 47.7251 45.7421 47.4818 44.9783C47.2776 44.9 47.0744 44.8176 46.8702 44.7393C46.8953 46.0398 46.8896 46.9429 47.5116 46.3499C47.5264 46.5516 47.5411 46.7513 47.556 46.953C47.106 46.9891 46.6544 47.0212 46.2045 47.0573C46.1539 47.2981 46.1038 47.54 46.0533 47.7808C46.1523 48.0485 46.2524 48.3169 46.3525 48.5877C47.0636 48.2234 47.0876 47.603 47.485 49.656C47.2394 49.6621 46.9947 49.6709 46.7491 49.6769C47.0619 51.3957 47.656 51.4411 47.6334 53.5991C48.4851 51.9435 46.9757 51.0376 48.6849 51.0436C48.573 50.6282 48.4595 50.2094 48.3475 49.794C48.5956 49.7308 48.8441 49.6681 49.0922 49.6079C48.9575 51.8384 47.3297 55.5434 48.4059 57.0368C48.2744 57.2174 48.1601 57.3986 48.0189 57.5822C48.6665 59.0452 47.2109 59.677 48.0477 61.1611C48.1353 61.3142 49.5015 60.9938 49.4483 62.9257C49.2713 62.8776 48.9731 62.8525 48.7497 62.8134C48.8578 63.2317 48.9708 63.6478 49.0811 64.063C48.9175 64.1383 48.754 64.2172 48.5893 64.2924C48.5268 63.579 48.4631 62.8675 48.4003 62.1541C48.3434 62.7469 48.2866 63.3435 48.23 63.9363C47.9635 63.1629 47.9606 62.814 47.5321 63.2802C47.5063 63.9515 47.479 64.6237 47.4533 65.295C47.3437 65.3642 47.2329 65.4328 47.1235 65.502C46.7969 65.1769 46.4772 64.8485 46.1451 64.5234C46.414 66.2723 46.4305 67.7929 47.0705 69.1354C47.1786 69.3642 47.602 68.5551 47.2202 70.1139C47.4443 70.138 47.6263 70.1799 47.8334 70.207C47.2047 72.1155 47.3939 72.7425 47.8432 74.7323C47.4232 73.4439 47.6961 74.5935 47.4708 74.9216C47.3156 75.1465 47.3386 74.2689 47.1759 74.3682C47.014 74.4675 46.3636 75.6078 46.284 74.6329C47.62 72.2427 46.0177 71.5915 46.66 68.521C46.4867 68.9936 46.3134 69.4697 46.1407 69.9423C46.0229 69.7197 45.9159 69.5204 45.7906 69.2798C46.0567 70.9923 45.8842 70.1594 45.6785 70.8631C45.4727 71.5675 45.3003 72.8477 45.246 73.7057C45.2289 73.9759 45.5283 73.6909 45.5576 74.3008C45.5776 74.7162 45.1369 75.8514 45.6605 76.1135C46.0005 76.2851 46.9371 74.4613 46.9362 76.983C47.2695 77.4576 47.1658 76.2486 47.206 76.2226C47.6032 76.0028 47.9 77.5531 47.5973 78.2695C47.5713 78.3275 47.2628 77.7618 47.142 78.377C46.8536 79.837 47.2078 80.6802 47.6831 81.6254C47.1339 81.726 46.4824 82.9143 46.6573 84.4067C46.6604 84.4329 46.6637 84.4592 46.6673 84.4856C46.5083 84.5639 46.348 84.6384 46.188 84.7166C46.2244 84.6133 46.2607 84.51 46.2969 84.4067C46.3439 84.2726 46.3909 84.1385 46.4383 84.0044C46.3381 83.7455 46.2649 83.4712 46.1467 83.2184C46.1008 83.7444 45.981 84.1159 45.8323 84.4067C45.5463 84.9659 45.153 85.226 44.9709 85.7112C44.0278 88.2349 46.0373 86.7054 46.3857 86.2502C46.2443 85.9221 46.0862 85.6048 45.9372 85.2797C46.1306 85.3158 46.3255 85.3525 46.52 85.3856C46.5187 89.1634 47.7736 85.9609 48.1305 87.8784C47.1823 88.3721 47.0946 89.7804 47.6906 91.5744C47.6858 91.7731 47.6844 91.9725 47.6784 92.1712C47.5414 92.2042 47.332 92.2038 47.2418 92.2578C47.0842 94.4192 48.5235 94.8043 48.6589 95.009C49.1215 95.7077 48.7327 96.2877 48.5257 96.6403L47.1578 95.4323C47.2701 95.4811 47.3613 95.5165 47.4239 95.5107C48.5669 95.4089 48.8638 95.0122 49.9618 95.0729C51.1406 95.1442 50.3709 95.4926 50.7429 95.7146C51.0394 95.8904 51.9559 95.8541 52.3472 96.0333C52.187 95.8754 52.0059 95.7224 51.8433 95.5641C53.0252 95.2434 53.9928 94.955 55.3532 94.8188C56.9631 95.9534 58.1537 93.8249 57.7145 95.5241C56.4335 95.7076 55.7247 95.9424 55.064 96.4142C55.9112 96.4152 56.756 96.4184 57.6036 96.4255C57.8373 96.2283 58.0065 96.0398 58.2869 95.8378C58.9389 96.1927 60.3937 95.9527 60.9724 96.0399C63.6908 96.4485 62.8718 97.1352 65.2919 95.9366C63.5189 95.9007 63.489 95.3652 61.7426 95.5149C62.0994 95.1143 63.0029 95.157 62.4042 94.7217C64.1085 94.7664 63.5747 95.1979 64.2548 95.5336C64.836 95.8229 65.9928 95.7958 65.9331 96.2029C66.0423 95.9761 66.1341 95.7573 66.2362 95.5316C66.5364 95.521 66.8385 95.5111 67.1208 95.5001L67.1208 95.5001C67.9306 95.4657 68.7277 95.4363 69.5356 95.4114C69.0597 95.1971 68.5834 94.9828 68.1016 94.7708C68.4577 94.6705 68.8036 94.572 69.161 94.4738C71.8978 95.0954 76.5321 93.7231 75.8297 95.4967C77.138 95.5183 77.2957 95.2915 77.995 94.9385C78.0775 95.0687 78.1571 95.1766 78.2402 95.3215C79.078 95.1538 79.7457 95.6226 80.486 95.4558C81.2252 95.2896 81.3811 94.8126 81.5357 95.5877C82.0066 95.3341 82.4739 95.1164 82.9352 94.8742C83.2363 95.0295 83.5386 95.1806 83.8393 95.331C84.286 95.2001 84.7296 95.0667 85.1702 94.9299C85.4495 95.2767 87.2085 94.9189 88.0207 95.0487C88.7082 94.5518 88.5096 93.3452 90.2539 93.2908C90.2595 93.5986 90.2651 93.9055 90.2699 94.2136C90.6577 94.0847 91.0398 93.9544 91.427 93.8203C91.4329 93.7187 91.4357 93.6176 91.4416 93.516C91.2495 93.5816 91.0521 93.6474 90.8568 93.7133C91.002 93.5179 91.1482 93.3228 91.2864 93.1282C91.5539 93.1869 91.8247 93.2435 92.099 93.2981L92.099 93.2981C92.4665 93.375 92.8525 93.4491 93.222 93.5268C92.8931 93.6681 92.5485 93.8139 92.2236 93.9576L92.2236 93.9576C91.7716 94.1525 91.3291 94.3424 90.8755 94.5307C91.428 94.5507 91.8681 94.4658 92.3046 94.3859L92.3046 94.3859C92.6995 94.3136 93.0945 94.249 93.5446 94.2878C94.2399 93.7384 93.9133 93.5567 93.5242 93.168C93.8124 93.1555 94.1166 93.1396 94.4091 93.1278C94.1453 92.7189 94.5799 92.3667 92.9005 92.7014C92.9923 92.554 93.089 92.4122 93.1797 92.2605C93.4679 92.2303 93.6177 92.0942 93.936 92.09C94.79 92.0823 95.5563 92.754 95.5441 93.0345C95.5372 93.1814 94.6789 93.0465 94.7448 93.2431C94.9172 93.7211 96.728 93.1756 94.1363 94.1393C95.0795 94.2937 95.2322 94.0224 96.2009 93.7676C96.151 93.9435 96.1059 94.1178 96.0579 94.2938C96.4924 94.1425 96.9422 93.9916 97.3813 93.8445C96.6125 93.1042 99.9507 92.2806 96.7886 92.0112C97.6919 91.8337 98.5774 91.6671 99.4784 91.5043C99.283 91.4442 99.0835 91.3857 98.8837 91.3265C98.4818 91.4282 98.0826 91.5306 97.6819 91.6347C98.1392 91.4076 98.5929 91.1852 99.0575 90.9633C100.22 91.003 100.705 91.2435 101.274 91.5404C99.9871 91.9766 100.371 91.5577 99.3354 91.6239C99.4036 91.8508 99.3869 92.0705 99.5098 92.3016C99.9724 91.7452 101.744 91.87 102.152 91.8445C103.377 91.7671 102.363 91.4161 103.185 91.3098C103.997 91.2067 104.999 91.3761 105.619 90.852C105.634 91.1093 105.609 91.3798 105.585 91.618C106.867 91.5708 106.584 91.2975 106.711 91.2451C108.758 90.4066 109.956 90.8533 112.379 90.7504C112.074 90.8479 111.768 90.9391 111.466 91.034C113.326 91.4366 112.082 91.3526 110.522 91.6534C111.997 91.4837 112.869 91.8774 113.921 91.9403C114.968 92.0023 116.739 91.6762 117.387 91.4724C115.881 91.2583 114.274 91.5357 112.61 91.5725C112.78 91.3063 112.949 91.0802 113.127 90.7905C114.179 91.2555 114.737 90.8698 115.071 90.7826C116.034 90.528 116.037 90.978 116.601 90.4694C116.585 90.6359 116.574 90.7758 116.557 90.9315C118.574 90.7629 120.754 90.4186 122.087 90.9848C122.198 90.5962 122.281 90.2229 122.412 89.8278C123.282 90.1045 124.006 89.8021 124.739 89.8666C125.459 89.9311 125.185 90.2381 126.035 90.3537C126.193 90.3749 126.518 90.1846 126.903 90.3259C127.082 90.3915 127.485 90.6507 127.886 90.8202C128.341 91.0174 128.794 91.0989 128.897 90.6154C129.636 90.6269 130.302 90.6187 131.025 90.6395C130.323 90.5543 129.653 90.48 128.95 90.4129C129.557 90.208 130.138 90.013 130.751 89.8275C130.819 90.0241 130.886 90.2241 130.95 90.4177C132.52 90.7326 133.705 90.5106 135.296 90.7357C135.563 90.7743 134.894 91.0792 136.094 91.1032C137.276 91.129 138.241 90.5539 140.226 91.0811C140.326 91.1089 140.852 91.6915 141.623 91.4452C141.799 91.39 141.122 91.1752 141.515 91.1254C141.901 91.0726 143.601 91.2423 143.764 91.0227C143.734 91.1056 143.616 91.1781 143.553 91.2577C143.832 91.3427 144.114 91.4285 144.397 91.514C144.447 91.3681 144.499 91.2225 144.548 91.0777C146.147 91.6968 146.898 92.3848 149.361 92.6193C148.645 92.7104 147.92 92.8066 147.21 92.9102C147.05 92.731 146.884 92.5494 146.723 92.3693C145.593 92.2463 144.454 92.1299 143.329 92.0266C143.169 91.8235 143.012 91.6209 142.852 91.4168C142.55 91.3951 142.251 91.374 141.95 91.3543C142.007 91.4935 142.064 91.6319 142.123 91.7711C141.543 91.6565 140.948 91.5414 140.366 91.4315C141.464 92.3505 143.717 91.8391 143.47 92.446C143.748 92.3872 144.027 92.329 144.306 92.2719C144.374 92.591 144.934 92.5844 145.882 92.6851C145.643 92.7976 145.381 92.906 145.16 93.0251C146.108 92.9542 147.74 93.2349 148.707 93.3151C149.133 93.3505 148.749 93.0707 148.878 93.0668C149.535 93.0448 150.694 93.6166 150.954 93.6312C152.504 93.719 153.615 93.2351 155.2 93.974C153.464 93.7711 154.405 93.8942 153.751 94.0285C153.546 94.0701 151.306 93.8447 154.09 94.2582C154.42 94.298 159.532 94.7666 157.94 94.1269C158.736 94.3877 159.349 94.6299 160.075 94.8801C162.059 94.3493 161.277 95.0461 160.665 95.3998C160.964 95.4557 161.247 95.5114 161.555 95.5668C160.987 94.9758 164.325 95.5676 165.416 95.9979C165.781 96.1412 164.694 96.097 165.559 96.3208C165.983 96.363 166.465 96.406 166.913 96.449C166.222 96.6184 167.46 96.945 167.393 97.2244C168.244 97.1051 168.951 96.6846 168.561 96.3194C169.204 96.5539 169.852 96.7853 170.497 97.0127C170.177 97.0255 169.853 97.0373 169.532 97.0507C171.734 97.2538 174.475 98.0765 175.018 97.5967C175.306 97.6467 175.597 97.6962 175.885 97.7452C175.96 97.8508 176.032 97.9558 176.107 98.0607C177.427 98.1801 178.743 98.2935 180.065 98.4007C178.905 98.1832 178.649 98.015 177.413 97.9345C177.899 97.9024 178.393 97.8714 178.868 97.8387C180.666 98.3815 180.894 98.5937 183.68 98.8613C183.807 98.8747 185.93 98.9066 186.003 98.8927C186.342 98.8367 185.858 98.6457 186.01 98.6153C186.428 98.5323 188.925 98.4797 188.876 98.4248C188.321 97.8374 180.117 96.6387 177.909 96.1709C161.347 93.0943 145.312 88.4144 127.902 87.8252C121.354 87.7354 114.792 87.912 108.197 88.3606C107.953 88.3766 108.043 88.1923 107.939 88.1924C107.296 88.1953 106.681 88.5241 106.448 88.5555C105.948 88.6218 106.197 88.3423 105.824 88.3741C101.988 88.7095 98.3776 89.295 94.5545 89.843C94.3034 89.8793 94.5939 90.0525 94.1491 90.0844C93.923 90.0991 93.1596 89.8846 92.6458 89.9657C92.2565 90.027 91.8695 90.0957 91.507 90.165L91.507 90.165C90.2784 90.3988 89.1332 90.6411 87.7587 90.8108C86.794 90.9312 85.3484 91.111 84.2607 91.19C83.7815 91.2261 83.268 91.1032 82.7921 91.1271C82.1183 91.1601 82.2765 91.473 82.1739 91.4992C81.7212 91.6118 81.6354 91.2606 81.2009 91.289C80.3914 91.3406 80.3601 91.5812 79.3214 91.5941C78.5796 91.6038 76.8626 91.4477 75.9078 91.4024C73.694 91.7114 70.833 91.6274 68.701 91.5881C67.5667 91.5665 67.3714 91.8501 66.9651 91.9188L66.9638 91.9188C66.9544 91.925 66.8851 91.9307 66.8481 91.9315C65.0808 91.9718 63.6801 91.565 61.9956 91.6058C59.7614 91.6615 57.7869 92.041 55.6128 92.1737C55.2601 92.1953 55.3213 91.8638 54.9736 91.8735C53.6864 91.9095 52.0368 91.9491 50.8799 92.0812C49.5898 92.2289 49.163 92.7465 47.8678 92.7755C47.5124 92.7843 47.3404 92.4176 46.779 92.3942L51.5873 96.6403C51.5925 96.6107 51.5968 96.5797 51.6 96.5473C51.6946 95.5812 51.3277 94.5218 51.2906 93.8475C51.2417 92.9234 51.671 93.7271 51.6229 92.4808C51.6208 92.4296 51.3102 92.2431 51.3271 91.9755C51.3751 91.1958 51.6209 91.2732 51.6065 90.1323C51.6043 90.0228 51.3166 88.5101 51.3162 88.3597C51.3179 87.4747 51.2247 85.6929 51.2921 85.169C51.339 84.803 51.3947 84.5648 51.4461 84.4067C51.6579 83.7558 51.7998 84.4594 50.9752 83.1783C51.2327 82.477 51.4945 81.7816 51.7466 81.0383C51.5132 81.5344 51.1928 79.5211 51.2149 79.3796C51.3953 78.2093 51.797 78.9064 51.7393 77.4225C50.7892 79.3822 51.6291 75.5081 51.6589 74.6441C51.8004 70.4841 51.583 66.7026 51.6061 62.5214C51.6143 61.1217 51.8242 59.246 51.8249 57.7651C51.8259 57.4199 51.5978 57.6807 51.594 57.3769C51.5917 57.0738 51.8455 57.41 51.8333 57.0641C51.753 54.9118 51.2747 53.2255 51.8843 51.2538C51.7972 51.1578 51.7282 51.1609 51.6327 51.0019C52.179 49.3884 51.4577 46.281 51.3591 45.1131C51.2065 43.2863 51.5746 42.8196 51.5025 41.4925C51.4062 39.7375 50.6897 37.1026 51.8754 38.2793C51.914 37.0754 51.9255 35.9164 51.816 34.7004C51.8035 34.5651 51.5016 34.6584 51.4954 34.6042C51.4523 34.2611 51.7227 34.1494 51.7352 33.9176C51.769 33.2892 51.4447 34.3147 51.5356 33.4187C51.5843 32.9461 51.8203 32.6777 51.8258 31.3654C51.8261 31.2737 51.8264 31.1819 51.8267 31.09L47.3084 35.6083C48.0357 35.6107 48.783 35.6121 49.5411 35.6125C56.729 35.6168 64.3877 35.5346 71.6444 35.4791C72.2072 35.4751 71.8417 35.7662 72.5342 35.7456C74.0094 35.7019 76.2103 35.4979 78.1691 35.3591C79.5484 35.2644 80.6702 35.157 81.5203 35.1523C83.6678 35.1327 83.1606 35.5722 84.5028 35.6885C84.7524 35.7112 84.5384 35.4815 84.7644 35.4675C86.345 35.373 88.1132 34.914 89.3818 34.7962C90.2117 34.718 90.1456 35.0957 90.7208 35.0938C91.5878 35.0892 92.433 34.6691 92.8883 34.6343C95.0338 34.4742 96.4923 34.7028 98.4961 34.4482C98.4207 34.5336 98.3719 34.6115 98.3087 34.6951C100.655 34.5634 103.025 34.4316 105.373 34.3042C105.265 34.3832 105.16 34.4627 105.052 34.5429C107.816 34.3668 107.466 33.589 107.292 35.2787C107.495 35.3278 107.711 35.3857 107.905 35.4304C107.794 34.5701 109.437 33.8573 111.558 33.5443C111.714 33.5212 112.79 34.3093 112.64 33.3281C112.922 33.5574 113.09 33.7165 113.328 33.918C113.767 33.5998 114.214 33.2857 114.653 32.9707C114.898 33.0049 115.145 33.0374 115.389 33.0717C115.432 33.2624 115.411 33.4632 115.495 33.6487C116.625 33.6289 118.923 33.2998 119.818 33.2913C122.026 33.2701 124.296 33.7024 125.989 33.1037C126.831 33.1361 126.01 33.5275 127.245 33.4467C127.381 33.2567 127.508 33.0749 127.649 32.8796C128.682 33.6858 128.887 33.173 130.265 32.9746C131.228 32.8407 131.788 33.0335 132.712 32.9851C132.939 32.9729 132.907 32.7325 133.061 32.7391C133.559 32.7588 135.057 33.0864 135.396 33.0977C137.446 33.1625 139.355 33.2043 140.996 33.3249C142.134 33.4176 143.282 33.4965 144.479 33.5687C144.821 33.5895 144.356 33.7799 144.711 33.8005C145.285 33.8342 144.982 33.4548 145.317 33.4662C146.247 33.4989 146.227 33.8696 147.513 33.9918C151.776 34.3937 156.701 34.4482 161.183 34.6215C161.323 34.6276 161.303 34.8327 161.455 34.8411C162.449 34.8926 163.471 34.6536 164.37 34.6852C165.87 34.7361 166.992 35.0445 168.482 35.0577C171.401 35.0743 174.019 34.9208 177.143 34.6559C178.101 34.5687 179.012 34.4665 179.982 34.298L179.017 34.3122C180.451 34.4885 181.885 34.6685 183.538 34.8634C186.206 35.1783 188.883 35.5253 191.567 35.8822L193.296 29.9388C192.581 29.5959 191.709 29.5754 191.137 29.7221C190.87 29.7846 190.636 29.8729 190.434 29.9693C190.261 30.0523 190.118 30.1366 189.987 30.2237C189.503 30.5575 189.311 30.7918 189.119 31.0115C188.79 31.4123 188.631 31.6914 188.475 31.9663C188.185 32.4939 188.003 32.9288 187.834 33.3517C187.499 34.2041 187.256 34.9803 187.027 35.764C186.579 37.3225 186.228 38.8356 185.908 40.3625C185.277 43.3922 184.793 46.4018 184.387 49.4294C183.98 52.498 183.881 55.5207 183.919 58.4957C183.924 58.7999 184.056 58.6798 184.05 58.7724C183.989 59.644 183.817 59.7168 184.185 60.0344C184.118 61.1513 183.85 61.4902 183.902 62.8326C183.932 63.5445 184.33 63.0083 184.154 64.2181C184.003 65.3008 183.72 64.115 184.1 67.3331C184.111 67.4185 184.375 67.8322 184.347 68.5011C184.324 69.1745 184.103 68.4035 184.151 70.0224C184.274 73.8224 184.887 78.5901 185.273 82.9609C185.295 83.2306 185.462 85.8745 185.471 86.4005C185.485 87.398 185.317 87.226 185.429 88.5168C185.518 89.5347 185.774 90.3557 185.874 91.5248C185.886 91.6636 185.753 91.9231 185.875 92.7932ZM45.8137 46.9498C45.4388 47.1967 44.06 47.6422 44.4822 49.1347C44.5219 49.2762 45.4689 48.5124 45.6205 49.3368C45.7197 48.5301 45.7515 47.7445 45.8151 46.9498C45.8146 46.9498 45.8141 46.9498 45.8137 46.9498ZM189.869 99.0091C189.81 97.8747 189.724 96.7379 189.634 95.6324C189.611 96.4026 189.588 97.1707 189.56 97.9678C189.666 98.3021 189.77 98.6637 189.869 99.0091ZM120.401 27.3697C120.403 27.3697 120.404 27.3697 120.405 27.3696C119.232 27.2317 118.036 27.0958 116.859 26.9607C116.987 27.0804 117.115 27.2006 117.243 27.3202C118.171 27.4883 119.118 27.656 120.045 27.8251C120.164 27.6731 120.283 27.5214 120.401 27.3697ZM129.728 28.489C130.475 28.341 130.299 28.103 130.713 27.868C130.713 27.8684 130.713 27.8688 130.713 27.8693C130.823 27.8081 131.332 27.7538 131.525 27.7448C131.454 27.8943 131.362 28.0421 131.285 28.1907C133.043 28.5412 136.482 27.3031 132.012 26.7496C132.082 26.9383 132.148 27.1261 132.217 27.3147C130.007 27.2527 127.557 27.6965 129.728 28.489ZM45.2442 64.6437C44.5777 66.5222 44.4406 67.1245 44.9045 69.4033C45.0927 69.0814 45.2811 68.7595 45.4697 68.4376C45.2758 68.0613 45.083 67.6878 44.8887 67.3115C44.8887 67.3104 44.8887 67.3093 44.8887 67.3083C45.0915 67.233 45.2948 67.1575 45.4978 67.0853C45.4134 66.2726 45.3289 65.4564 45.2442 64.6437ZM189.746 41.6124C190.539 42.3038 190.037 42.0507 190.565 40.6581C190.752 40.1733 190.797 40.6965 190.896 40.3907C191.437 38.7751 190.878 38.4969 190.463 38.7881C190.204 39.7231 189.967 40.6753 189.747 41.6093C189.747 41.6103 189.746 41.6113 189.746 41.6124ZM188.3 86.3348C188.3 86.3359 188.301 86.3369 188.301 86.338C188.453 86.371 188.444 85.672 188.641 86.4451C188.599 85.8532 188.555 85.2358 188.515 84.6438C188.512 84.821 188.511 85.0008 188.509 85.1768C188.446 85.0265 188.383 84.8757 188.32 84.7245C188.48 84.4986 188.365 84.3109 188.262 83.6799C188.463 83.8413 188.664 84.0011 188.863 84.161C188.76 83.4236 188.659 82.7088 188.556 81.9727C188.507 81.9672 188.457 81.9615 188.408 81.956C188.453 81.6735 188.5 81.4007 188.546 81.12C188.483 81.0493 188.421 80.9813 188.357 80.9105C188.382 80.5753 188.406 80.2323 188.433 79.8998C188.283 79.8084 188.264 80.5451 188.225 79.2451C188.099 79.6555 187.975 80.0561 187.855 80.4741C187.994 82.4229 188.145 84.381 188.3 86.3348ZM188.019 30.9616C190.15 31.3053 189.569 31.067 189.14 30.5102C188.767 30.6597 188.391 30.8098 188.019 30.9616ZM76.8773 29.9571C76.2497 29.5006 75.6251 29.0481 74.9778 28.6064C73.704 28.349 72.4249 29.1804 73.3864 29.5081C74.5455 29.9008 75.7496 29.4643 76.8773 29.9571ZM47.7851 29.74C49.3511 29.5262 47.8913 28.9788 47.5284 28.6598C47.4414 28.7449 47.3827 28.8146 47.3084 28.872L45.0904 31.09C45.379 31.502 45.3559 32.055 45.4058 32.8621C45.428 32.2522 45.6856 31.5584 45.8422 31.09L47.3084 29.6238C47.4176 29.6621 47.5095 29.6944 47.6023 29.7157C47.6729 29.7369 47.7399 29.7472 47.7851 29.7414C47.7851 29.7409 47.7851 29.7404 47.7851 29.74ZM101.905 28.5277C102.531 28.5157 103.168 28.6135 103.715 28.4417C103.531 28.0264 102.425 28.4546 103.201 27.7971C102.8 27.802 102.394 27.8075 101.997 27.8112C102.261 28.0609 101.929 28.2685 101.907 28.5262C101.906 28.5267 101.906 28.5272 101.905 28.5277ZM167.094 29.6281C165.868 29.9976 165.639 29.8093 164.425 29.4519C164.234 29.789 165.671 30.44 166.593 30.5993C166.76 30.2752 166.926 29.9513 167.094 29.6281ZM151.705 94.6C151.47 94.2444 149.335 93.8441 148.253 93.7696C148.372 93.8369 148.492 93.9049 148.611 93.9728C149.638 94.1782 150.679 94.3893 151.705 94.6ZM45.4425 33.3225C45.4266 33.1605 45.4148 33.007 45.4058 32.8621C45.3999 33.0232 45.4092 33.1787 45.4425 33.3225ZM49.3255 95.9683C48.7669 95.5452 50.2824 95.2361 48.4371 95.6053C48.4371 95.6048 48.437 95.6044 48.437 95.6039C47.8886 95.7159 47.5303 95.7951 47.2113 95.8617L48.093 96.6403C48.0595 96.2311 48.0408 95.8665 48.021 95.2351C47.4049 95.6448 47.1877 97.9532 47.0593 94.7715C47.0587 94.7296 47.4249 94.8131 47.3749 94.3047C47.3593 94.1478 47.0584 93.6456 46.97 92.8818C46.9419 92.635 46.8471 90.78 46.8435 93.3085C46.4132 93.2333 45.978 93.3691 45.5607 93.3631C45.4434 94.3501 46.2858 95.1086 46.2668 96.1527C46.2636 96.3245 46.2504 96.4869 46.2309 96.6403L47.4417 97.7095C48.6531 97.7191 49.3567 98.2154 49.5195 97.2106C48.9026 97.1427 48.0924 97.158 47.3879 97.2782L46.6655 96.6403C46.6295 95.8172 46.4637 95.1113 46.107 94.956C46.0954 93.6949 46.646 93.3327 46.9187 94.3496C46.8154 95.6671 46.8495 96.297 46.9346 96.6403L47.3546 97.0113C48.1011 96.7295 47.338 96.3195 50.0128 96.3685C50.0709 96.5174 50.2404 96.668 50.2296 96.8138C51.3438 96.1741 49.5245 96.1175 49.3255 95.9683ZM46.5695 89.6061C46.2397 90.3587 45.9087 91.1088 45.5806 91.8584C46.1174 91.8584 46.5979 91.4451 46.9004 90.259C46.7898 90.0425 46.6792 89.8227 46.5695 89.6061ZM103.397 92.6658C103.531 92.8933 103.839 93.0788 104.074 93.2818C104.268 93.0326 109.618 92.2905 106.867 92.3728C106.465 92.3791 104.097 93.0713 103.397 92.6658ZM175.501 30.0618C174.878 30.2475 174.254 30.4248 173.639 30.5963C174.606 30.6843 175.578 30.7578 176.55 30.8002C176.19 30.5594 175.848 30.3124 175.501 30.0618ZM66.4808 30.4901C66.7503 30.4787 65.8541 30.0547 66.9185 30.122C66.1257 29.8508 65.3831 29.6209 64.6105 29.3653C64.3786 29.5657 64.144 29.7653 63.912 29.9658C63.7313 29.837 63.547 29.7089 63.3663 29.5799C63.4747 29.8723 63.5712 30.1578 63.6857 30.455C64.99 29.8289 65.2907 30.5394 66.4808 30.4901ZM105.234 30.5069C105.444 29.889 103.538 29.6042 105.395 29.4309C105.025 29.0456 104.446 28.8582 103.363 28.8662C103.197 29.0265 103.028 29.186 102.859 29.3467C102.818 28.9371 102.529 28.7961 101.905 28.5277C101.905 28.5282 101.904 28.5287 101.904 28.5291C100.258 28.5662 100.356 28.6999 99.9875 29.3947C101.728 28.938 101.792 29.5559 103.009 29.8715C103.837 30.0889 104.898 29.9306 105.234 30.5069ZM97.7024 93.4484C98.9783 93.6893 97.9455 94.2439 100.036 93.4766C99.8818 93.3891 99.7276 93.3025 99.5746 93.2148C98.9468 93.2886 98.3206 93.3669 97.7024 93.4484ZM111.256 28.1948C111.149 29.131 110.013 29.9031 109.755 28.3899C110.879 28.0398 110.357 28.9194 111.256 28.1948ZM48.3292 31.2838C48.8777 31.2718 49.2685 31.1882 49.5411 31.0612C50.1118 30.7658 49.96 30.2357 49.5411 29.8264C49.434 29.7327 49.3145 29.6453 49.1912 29.5685C49.0477 29.771 48.9405 29.9738 48.7831 30.1749C48.3883 30.0831 48.0353 29.991 47.6342 29.9004C47.8646 30.3611 48.0741 30.823 48.3292 31.2838ZM149.774 29.8588C148.164 29.1061 151.592 29.6856 150.465 29.2058C149.572 28.8221 148.296 29.3141 148.723 29.7388C149.04 29.7787 149.397 29.8186 149.771 29.8585C149.772 29.8586 149.773 29.8587 149.774 29.8588ZM140.179 28.7513C140.473 28.1097 140.129 28.2624 141.428 28.5075C141.447 28.5113 141.473 28.5151 141.504 28.5189C142.085 28.5907 144.722 28.6699 143.483 29.0606C142.825 28.9925 142.14 28.924 141.469 28.8559C141.076 28.816 140.611 28.7792 140.179 28.7513ZM46.4104 55.2931C46.7344 55.3132 47.4471 53.0107 47.2689 52.7152C47.2694 52.7152 47.2698 52.7152 47.2703 52.7152C46.7834 51.9175 46.7153 54.3462 46.0474 53.2927C46.6359 55.6256 45.2186 56.3235 47.0864 56.1609C47.1681 54.7867 46.7829 55.4373 46.4104 55.2931ZM180.03 98.5219C180.031 98.5221 180.032 98.5222 180.033 98.5224C179.88 98.5079 178.584 98.5358 178.728 98.6291C180.261 98.7771 180.003 98.6104 181.393 99.0104C181.48 98.9509 181.556 98.8922 181.649 98.8332C181.091 98.7195 180.791 98.5941 180.03 98.5219ZM109.155 91.5572C108.591 91.5393 107.593 91.9038 106.953 91.9521C109.072 92.7876 111.416 91.6268 109.155 91.5572ZM187.273 65.2828C187.273 65.2812 187.273 65.2796 187.273 65.278C187.273 65.2785 187.273 65.2791 187.272 65.2796C187.272 65.2807 187.272 65.2817 187.273 65.2828ZM65.8176 96.4343C65.8861 96.3523 65.922 96.2821 65.9338 96.2212C65.9336 96.2155 65.9333 96.2098 65.9331 96.2042C65.8988 96.2797 65.8614 96.3562 65.8176 96.4343ZM46.3164 60.0783C46.7671 61.0373 47.4833 57.8422 47.3124 56.809C47.1062 56.8812 46.9192 56.8925 46.6824 57.0609C47.2164 57.8948 46.2398 59.9188 46.3164 60.0783ZM91.1107 29.7872C88.5696 29.9114 91.9743 31.5224 92.0224 30.1152C92.0177 30.0883 91.1831 29.7866 91.1107 29.7872ZM46.493 40.161C47.0381 39.5176 47.183 40.8107 47.0887 38.7429C46.9474 38.6226 46.8057 38.5023 46.6644 38.382C46.6075 38.9749 46.5498 39.5681 46.493 40.161ZM74.6246 32.6068C71.4466 32.3092 68.4073 31.7751 70.4733 30.2781C70.7172 30.3263 70.9621 30.3729 71.2009 30.4211C71.2341 31.1511 72.1205 30.7527 73.4262 30.7294C73.6018 31.0188 74.3385 31.0857 74.4682 31.3314C74.7272 31.8063 73.9068 32.141 74.6246 32.6068ZM187.394 48.4394C187.482 48.4003 187.57 48.3627 187.657 48.3239C187.827 47.8312 187.995 47.3708 188.171 46.8771C188.004 46.9317 187.836 46.9872 187.669 47.0432C187.574 47.517 187.486 47.9575 187.394 48.4361C187.394 48.4372 187.394 48.4383 187.394 48.4394ZM48.0431 86.5085C46.8792 86.764 46.9333 86.0033 47.424 84.4067C47.4879 84.1989 47.5592 83.977 47.6363 83.7413C47.669 83.9629 47.7018 84.1847 47.7345 84.4067C47.8377 85.1072 47.9406 85.809 48.0431 86.5085ZM125.685 30.2001C125.745 29.8386 125.804 29.4785 125.867 29.1173C126.971 29.4715 126.771 29.8856 126.259 30.3724C126.067 30.3151 125.878 30.2574 125.685 30.2001ZM141.214 30.516C140.798 30.5486 141.031 30.2908 140.989 30.2923C139.834 30.3436 139.703 30.4675 138.332 30.1976C138.167 30.1175 138.002 30.0338 137.83 29.952C138.502 29.2459 138.972 29.6523 140.333 29.3178C140.065 29.5479 139.828 29.7829 139.566 30.0191C140.135 30.0087 140.803 30.0157 141.344 30.0306C141.494 30.0357 141.646 30.0408 141.799 30.0461C141.881 30.1314 141.963 30.2159 142.046 30.3012C141.795 30.3634 141.539 30.435 141.295 30.4939C141.268 30.5015 141.241 30.5088 141.214 30.516ZM186.92 54.2451C186.885 54.9703 186.858 55.7351 186.842 56.4634C186.718 56.4844 186.594 56.5043 186.471 56.5256C186.608 55.7718 186.759 54.9881 186.92 54.2451ZM52.3472 96.0333C52.4105 96.0952 52.4724 96.1576 52.528 96.2216C52.517 96.1394 52.4483 96.0797 52.3472 96.0333ZM182.029 98.3232C182.864 98.3776 184.064 98.5704 184.974 98.666C184.881 98.8614 182.563 98.5198 181.734 98.5341C181.608 98.4791 181.674 98.3 182.029 98.3232ZM51.3429 31.2391C51.5489 31.4924 51.761 31.7445 51.976 31.9978C52.47 31.9704 53.0051 31.9415 53.5014 31.9142C53.5164 32.1215 53.5312 32.3307 53.5463 32.538C51.2916 32.2689 51.819 32.8668 50.6929 33.4567C50.9071 32.7179 51.1396 31.9791 51.3429 31.2391ZM186.566 77.8303C186.519 76.194 186.622 75.6152 186.991 76.5102C186.955 77.0885 186.922 77.6734 186.891 78.2491C186.783 78.1088 186.674 77.9681 186.566 77.8303ZM81.9551 94.3971C83.3232 94.5048 83.2879 93.7989 84.6376 94.0764C83.9464 94.2704 83.2471 94.4582 82.5508 94.6372C82.353 94.5581 82.1512 94.4778 81.9551 94.3971ZM50.1598 64.5331C50.4425 65.108 49.0866 66.1828 50.0802 67.7991C49.7814 68.1843 49.4966 68.4258 49.2045 68.7568C49.521 68.9495 49.8411 69.1683 50.1547 69.352C50.1547 69.353 50.1547 69.3541 50.1547 69.3552C50.0431 70.8212 49.6496 69.8707 49.3135 69.9038C49.1743 69.9193 49.4043 71.0074 49.1024 70.6674C48.5839 70.0804 48.8867 67.887 48.2512 67.8809C48.4579 68.6516 48.2827 70.1564 47.8602 69.7113C47.3957 69.2237 48.1758 67.8055 47.7902 66.9024C48.8054 68.1965 48.4953 65.5237 47.7127 65.2196C48.3147 63.6513 48.5591 65.0928 48.5287 66.7003C49.1289 65.7189 48.8033 67.1634 49.2999 67.4013C49.6025 66.3894 49.3601 62.9167 50.1598 64.5331ZM87.9197 32.49C86.827 32.5013 85.1403 32.92 84.3872 32.4446C83.948 32.1676 85.6164 31.8683 84.4392 31.4539C85.4831 31.4556 85.7672 31.6238 85.5912 32.0378C85.8461 32.0755 86.0696 32.1132 86.3127 32.15C86.4192 32.066 86.5294 31.983 86.6374 31.899C86.7711 32.0601 86.9065 32.2197 87.0391 32.3806C87.2951 32.3362 87.5718 32.2908 87.8116 32.2458C87.8446 32.3282 87.8979 32.3987 87.9197 32.49ZM120.838 90.2886C120.539 90.2923 120.239 90.2967 119.936 90.3008C119.967 90.2274 120.005 90.1508 120.041 90.0754C120.066 90.0158 120.092 89.9563 120.118 89.8968C119.946 90.1093 118.523 90.5055 117.912 90.3035C117.602 90.2012 118.286 89.7701 116.983 89.7481C117.926 89.7324 118.797 89.7594 119.702 89.7694C119.616 89.6526 119.534 89.5343 119.449 89.4172C119.449 89.417 119.45 89.4168 119.45 89.4166C119.751 89.382 120.057 89.3468 120.362 89.3136C120.524 89.6394 120.679 89.9641 120.838 90.2886ZM124.826 30.9336C123.8 30.6617 123.443 30.5155 123.921 30.02C123.922 30.0197 123.923 30.0195 123.924 30.0192C124.313 30.2236 124.699 30.4279 125.081 30.6321C124.997 30.7324 124.913 30.833 124.826 30.9336ZM61.1105 93.9591C63.377 95.6639 58.4085 94.7797 59.3108 94.1214C59.356 94.0905 60.9086 94.166 61.1105 93.9591ZM47.9263 31.896C48.476 31.9105 48.973 31.9237 49.5411 31.9379C49.6023 31.9395 49.6612 31.9412 49.7228 31.9429C49.6616 32.0538 49.6025 32.1645 49.5411 32.2751C49.4589 32.4087 49.3785 32.5422 49.3012 32.676C48.8569 32.4165 48.3751 32.1556 47.9263 31.896ZM185.653 70.7559C185.328 70.1368 185.132 68.5093 185.427 67.7065C185.483 68.1224 185.539 68.538 185.596 68.9542C185.597 68.1645 185.607 67.3826 185.616 66.5865C186.037 66.5329 185.819 67.4586 185.991 68.8293C186.02 69.0433 186.584 70.3832 186.227 70.8687C186.153 70.9667 186.03 69.5203 185.851 70.5364C185.811 70.0964 185.797 69.7173 185.767 69.3001C185.668 69.2734 185.568 69.247 185.469 69.2172C185.529 69.733 185.591 70.2418 185.653 70.7559ZM81.5872 32.7011C80.0755 32.7969 79.9214 32.4972 79.564 31.9763C79.9505 31.9965 80.254 32.0171 80.6117 32.0354C80.7873 32.0447 80.9741 32.0533 81.1564 32.0619C81.3196 32.0712 81.4872 32.0801 81.659 32.0889C81.6335 32.2926 81.6125 32.4961 81.5872 32.7011ZM185.306 57.346C185.279 56.5098 185.531 56.8788 185.593 56.5481C185.833 55.3135 185.691 54.4455 185.91 53.2042C185.851 53.2816 185.796 53.353 185.74 53.4282C185.74 53.4271 185.74 53.426 185.74 53.425C186.115 47.4997 186.343 50.68 185.971 54.1798C186.065 54.2682 186.16 54.3532 186.253 54.4413C185.972 55.9944 185.769 57.4291 185.306 57.346ZM49.1417 91.1654C49.2376 91.2316 49.8517 90.6687 49.5609 91.7252C48.6659 92.5619 49.1136 91.1897 48.7709 90.8462C48.6844 91.1321 48.6003 91.4246 48.5141 91.7076C48.2653 89.9977 48.4786 89.7482 49.1306 90.3713C49.1743 90.4158 49.046 91.099 49.1417 91.1654ZM52.8881 93.8979C53.2135 95.1619 51.0084 94.742 51.0487 94.3391C51.3534 94.2996 51.5963 94.5005 51.9104 94.3809C52.2266 94.2615 52.2825 93.9556 52.8881 93.8979ZM49.3694 40.5797C49.3756 40.6429 49.959 41.278 49.502 41.2149C48.4206 40.4292 49.1177 38.8462 49.4947 39.1231C49.4757 39.6467 49.3131 39.9959 49.3709 40.5797C49.3704 40.5797 49.3699 40.5797 49.3694 40.5797ZM186.176 80.5988C186.154 80.5649 185.908 78.998 185.999 78.7818C186.107 78.6046 186.23 78.5112 186.346 78.3777C186.295 79.263 186.525 81.017 186.176 80.5956C186.176 80.5967 186.176 80.5977 186.176 80.5988Z" fill="#FF61B0"/>
</svg>
