<svg width="207" height="194" viewBox="0 0 207 194" fill="none" xmlns="http://www.w3.org/2000/svg">
<path d="M129.739 72.0997C121.767 51.5154 105.311 9.89056 103.264 8.06476L34.6291 60.4078C37.2354 81.7148 43.2732 126.471 46.5733 135.038C49.8733 143.605 96.305 164.151 119.108 173.353L180.899 124.047C167.932 122.327 141.389 88.6987 129.739 72.0997Z" fill="#FF8457"/>
<mask id="mask0_103_146" style="mask-type:alpha" maskUnits="userSpaceOnUse" x="34" y="7" width="148" height="166">
<path d="M129.935 71.233C121.963 50.6487 105.507 9.02386 103.46 7.19806L34.8251 59.5411C37.4315 80.8481 43.4692 125.604 46.7693 134.171C50.0694 142.738 96.5011 163.284 119.304 172.486L181.095 123.181C168.128 121.46 141.585 87.832 129.935 71.233Z" fill="#C075E3"/>
</mask>
<g mask="url(#mask0_103_146)">
<path d="M136.72 120.191C137.803 119.707 135.749 122.277 137.71 120.953C137.532 121.369 137.383 121.776 137.262 122.16C136.883 122.079 136.502 122.007 136.12 121.939C136.264 121.386 136.467 120.797 136.719 120.19C136.719 120.191 136.72 120.191 136.72 120.191ZM133.354 116.787C133.788 118.015 132.956 119.94 135 118.525C134.793 118.172 134.597 117.809 134.405 117.442C135.114 116.918 135.848 116.424 136.594 115.96C136.676 115.641 136.765 115.319 136.859 114.999C137.595 115.121 138.32 115.268 139.043 115.424C138.749 115.606 138.458 115.789 138.169 115.978C137.713 117.299 137.113 118.26 136.316 119.656C136.519 119.618 136.72 119.585 136.922 119.554C136.261 120.078 135.637 120.623 135.07 121.181C135.137 120.484 135.298 119.657 135.479 118.955C134.009 119.336 133.587 121.356 133.534 122.22C133.448 123.395 133.073 123.032 133.123 123.832C133.138 123.955 133.502 124.017 133.488 124.224C133.456 124.668 133.459 125.174 133.453 125.547C133.437 125.769 133.384 125.891 133.267 125.994C133.148 126.085 132.971 126.198 132.645 126.052C132.621 125.963 132.596 125.868 132.571 125.763C132.198 124.341 132.096 122.158 133.45 120.072C132.246 120.258 132.503 118.802 133.354 116.787ZM139.774 101.022C140.647 101.34 141.465 102.907 141.789 104.128C141.789 104.129 141.79 104.13 141.791 104.132C141.865 104.401 141.61 105.245 141.194 104.489C140.52 103.279 140.998 102.174 140.031 101.998C139.959 101.673 139.864 101.349 139.774 101.022ZM138.026 99.165C137.715 98.5674 138.417 98.1215 138.936 98.9137C138.936 98.9132 138.937 98.9128 138.937 98.9124C139.144 99.2564 138.182 99.0942 139.578 99.7152C139.409 100.252 139.252 100.747 139.062 101.257C138.844 100.992 138.642 100.769 138.415 100.522C139.158 100.174 138.329 99.7673 138.026 99.165ZM133.224 126.236C133.784 125.8 133.768 125.797 134.181 125.506C134.216 125.631 134.098 125.461 133.985 125.428C133.821 125.77 133.567 126.065 133.224 126.236ZM141.616 111.614C141.617 111.613 141.619 111.612 141.62 111.611C141.774 111.324 141.931 111.037 142.09 110.755C142.395 110.827 142.696 110.902 142.998 110.978C143.297 110.587 143.604 110.198 143.917 109.812C144.146 109.461 144.41 109.128 144.717 108.814C144.895 109.284 144.481 109.649 144.166 110.124C143.853 110.494 143.547 110.885 143.384 111.272C142.038 112.102 141.188 112.297 140.664 111.885C140.98 111.791 141.297 111.703 141.616 111.614ZM66.667 57.4849C66.2359 57.5833 65.8103 57.6849 65.3814 57.7869C65.8483 58.0195 66.3159 58.231 66.7794 58.4842C67.0379 58.3984 67.251 58.3503 67.434 58.3315C68.3071 58.2339 68.4476 58.8555 69.7475 59.3309C74.4259 61.3538 74.1494 59.6228 76.7556 64.0745C73.7792 61.7619 74.3581 63.4281 72.1365 62.9388C72.0284 62.1888 74.6109 62.2175 73.4571 61.1952C71.2824 60.5047 69.1851 60.0644 66.9969 59.8094C66.5394 59.748 66.0755 59.6828 65.6037 59.6131C65.6604 59.7342 65.7166 59.8556 65.773 59.9769C66.1486 60.0326 66.5221 60.089 66.897 60.1474C66.9842 60.1592 67.0717 60.1717 67.1596 60.1849C67.0599 60.2092 66.9613 60.2344 66.8636 60.2604C66.4073 60.3516 65.956 60.4454 65.4929 60.5412C66.2956 60.1332 64.5862 60.0013 64.9928 59.3856C65.1741 59.1105 66.0124 58.8959 66.5219 58.7325C65.4694 58.257 64.3781 57.7982 63.2989 57.3485C63.9428 57.2607 64.5897 57.1774 65.2337 57.0973C65.7107 57.2221 66.1833 57.3504 66.6591 57.4798C66.6617 57.4815 66.6644 57.4832 66.667 57.4849ZM102.4 169.456C100.835 169.933 98.2129 169.58 97.0137 168.518C98.797 168.85 100.588 169.16 102.4 169.456ZM140.221 111.559C140.42 111.543 140.615 111.531 140.814 111.517C140.458 112.152 140.118 112.789 139.799 113.429C139.455 113.266 139.107 113.106 138.757 112.952C139.231 112.48 139.724 112.014 140.221 111.559ZM144.058 114.876C143.862 115.311 143.836 115.337 143.502 115.841C143.502 115.84 143.503 115.84 143.503 115.84C143.39 116.039 142.155 117.666 142.035 117.322C142.57 116.468 143.103 115.561 143.538 114.697C143.714 114.752 143.877 114.827 144.058 114.876ZM136.974 124.874C136.973 124.875 136.972 124.876 136.97 124.877C136.69 125.161 136.388 125.402 136.119 125.714C136.703 124.288 137.458 124.592 138.105 123.409C138.746 122.224 138.884 121.332 140.399 121.075C140.284 121.502 140.201 121.996 140.09 122.452C138.612 123.691 138.611 124.331 137.988 125.794C137.65 125.486 137.313 125.182 136.974 124.874ZM84.2416 72.4954C84.8719 72.4136 84.7412 73.0556 84.7627 73.0903C84.7617 73.0901 84.7608 73.0899 84.7599 73.0898C87.1637 75.183 84.2845 72.9504 86.1129 75.2965C85.73 75.0334 85.3467 74.7867 84.967 74.5399C84.7378 73.8678 84.4966 73.1417 84.2416 72.4954ZM89.5747 122.957C89.7135 122.887 89.8519 122.815 89.9917 122.748C90.0101 122.811 90.03 122.869 90.0511 122.925C90.5566 124.22 91.2013 124.378 91.3017 125.736C90.6863 124.884 90.126 123.993 89.637 123.072C89.6154 123.034 89.5941 122.996 89.5729 122.957C89.5735 122.957 89.5741 122.957 89.5747 122.957ZM146.447 108.1C147.117 109.399 147.14 110.801 146.254 112.265C146.253 112.266 146.252 112.267 146.252 112.268C146.2 112.349 146.008 111.83 145.897 111.928C145.862 112.255 145.831 112.608 145.77 112.959C145.511 112.92 145.254 112.875 144.998 112.831C145.381 111.976 145.664 111.127 145.803 110.333C145.643 110.438 145.482 110.542 145.317 110.637C145.328 109.966 145.237 109.385 145.065 108.9C145.513 108.996 145.96 109.151 146.399 109.361C146.46 108.941 146.476 108.522 146.447 108.1ZM107.807 135.927C107.49 135.984 107.679 135.443 107.273 135.607C106.882 135.767 106.424 136.467 106.302 135.973C106.723 135.604 107.111 135.188 107.42 134.778C105.741 135.305 104.466 136.697 103.985 135.767C105.584 135.31 106.663 134.299 107.04 133.244C107.797 133.695 107.269 135.375 108.537 135.137C108.318 135.408 108.066 135.685 107.809 135.923C107.809 135.925 107.808 135.926 107.807 135.927ZM170.332 103.507C171.138 104.23 172.602 105.546 173.696 107.098C174.603 108.388 174.991 109.216 175.019 109.62C175.029 109.864 174.12 111.203 174.005 111.373C173.506 111.861 172.821 111.204 173.129 112.244C172.897 112.005 172.677 111.77 172.431 111.432C172.09 111.756 171.755 112.084 171.424 112.417C171.801 112.823 172.17 113.137 172.585 113.423C172.499 113.553 172.414 113.683 172.33 113.815C171.004 112.459 171.353 113.691 170.218 113.135C170.6 114.177 171.166 115.15 171.95 116.051C171.426 115.64 170.858 115.107 170.5 114.658C169.848 115.145 171.048 116.031 171.172 116.276C171.48 116.952 170.412 116.44 169.257 115.315C168.094 114.178 167.119 112.572 166.391 112.309C166.247 112.246 166.116 112.224 166.004 112.25C166.049 112.329 166.093 112.41 166.136 112.49C166.564 113.277 166.971 114.291 167.626 115.375C167.278 115.142 166.941 114.894 166.624 114.661C166.382 113.892 166.192 113.223 165.949 112.623C165.292 110.958 163.947 109.461 162.224 108.145C161.975 108.05 161.726 107.961 161.478 107.877C161.393 108.23 161.303 108.58 161.21 108.93C161.076 108.881 160.942 108.835 160.805 108.788L161.004 108.869C160.753 108.809 160.501 108.748 160.251 108.69C161.777 107.987 160.203 107.424 158.454 106.139C159.623 106.064 160.831 106.742 160.989 105.986C157.259 105.323 153.044 103.306 149.249 103.991C148.334 104.189 148.364 105.082 146.403 105.318C146.448 105.198 146.423 105.003 146.441 104.855C144.471 105.516 143.202 106.389 141.984 107.391C141.011 108.204 139.96 109 138.641 109.944C139.043 110.056 139.442 110.174 139.84 110.293C140.305 109.632 140.79 108.973 141.288 108.33C141.94 108.419 141.747 108.907 142.674 108.255C142.845 108.14 143.056 107.988 143.346 107.797C144.713 106.985 143.779 107.242 144.093 106.874C144.564 106.386 145.239 106.63 145.814 106.2C146.285 105.882 145.583 105.502 147.054 105.369C146.56 106.075 146.153 106.832 145.876 107.58C145.556 107.53 145.233 107.493 144.903 107.476C145.116 107.205 145.351 106.944 145.613 106.69C144.607 107.312 143.844 108.033 143.227 108.918C143.14 108.648 143.028 108.534 142.892 108.528C142.519 108.55 141.964 109.251 141.601 109.661C140.801 110.569 141.17 109.426 140.644 110.022C140.12 110.628 139.964 111.701 138.868 112.575C139.121 111.758 138.135 112.223 138.013 111.821C137.888 111.415 138.94 110.282 137.594 111.023C135.824 113.258 138.969 112.069 137.841 113.569C136.565 115.344 134.474 114.325 134.532 113.466C134.579 112.788 135.924 111.434 136.044 110.769C133.149 112.792 134.252 113.804 134.093 114.396C133.613 116.638 132.308 113.92 131.66 116.558C131.272 116.25 130.922 115.973 130.553 115.672C130.377 116.108 130.319 116.422 130.098 116.935C131.757 116.066 131.022 117.161 130.706 117.724C130.204 118.629 131.392 117.469 131.363 117.774C131.272 118.556 130.652 119.483 131.337 119.066C131.022 119.247 130.698 119.459 130.387 119.672C130.042 120.946 131.406 123.808 131.672 121.523C132.318 121.979 131.753 122.515 131.529 123.021C131.309 123.525 131.794 123.594 131.656 124.01C131.235 125.673 130.427 124.67 129.788 124.231C129.921 125.311 130.157 125.521 130.297 125.635C130.453 125.741 130.562 125.748 130.786 126.201C130.933 126.468 131.122 126.924 131.554 127.411C131.841 127.352 131.925 127.004 132.086 126.786C132.24 126.55 132.436 126.482 132.711 126.607C132.068 127.132 131.777 128.323 133.476 128.994C133.552 129.019 133.631 129.043 133.712 129.064C133.937 128.876 134.143 128.676 134.325 128.468C134.809 128.903 134.994 129.313 135.275 129.476C135.526 129.628 136.077 129.542 136.609 128.636C136.661 129.693 136.507 129.945 136.818 129.856C137.108 129.753 137.66 129.394 138.571 128.786C138.628 128.748 138.688 128.71 138.749 128.672C139.158 128.418 138.817 129.489 139.373 129.123C139.625 128.957 139.824 128.221 140.447 127.818C140.751 127.624 142.343 126.826 142.745 125.715C141.5 125.786 142.146 123.63 140.43 124.577C142.605 122.078 143.57 119.897 142.414 123.669C143.151 123.162 143.882 122.642 144.608 122.103C144.766 121.485 144.92 120.863 145.062 120.24C145.75 120.584 145.924 120.808 147.033 118.691C146.669 119.678 146.27 120.649 145.84 121.616C145.95 121.733 146.003 121.944 146.149 122.001C146.652 120.801 148.404 117.586 148.561 116.663C148.761 115.77 147.964 117.289 147.895 116.966C147.312 114.382 148.321 115.061 148.557 113.545C148.665 112.682 147.842 114.557 147.92 114.096C148.22 112.457 149.264 111.906 149.399 110.314C148.872 110.843 148.298 111.281 147.712 111.651C148.038 110.246 147.989 108.632 147.417 107.514C147.195 107.081 146.972 107.554 146.922 107.488C146.824 107.369 146.65 107.101 146.439 106.827C146.049 106.278 145.636 105.669 145.578 105.564C144.862 104.262 145.292 103.974 144.59 102.717C144.915 103.18 145.213 103.622 145.521 104.087C146.371 103.901 147.225 103.727 148.081 103.554C147.432 102.247 146.752 100.942 145.992 99.6542C146.351 100.722 146.661 101.789 146.944 102.851C145.541 101.737 144.103 100.673 142.639 99.794C142.496 98.8915 142.312 97.9883 142.052 97.0837C140.352 95.47 139.627 97.1807 139.722 95.37C139.171 95.1083 138.611 94.9016 138.053 94.7644C137.998 94.7498 137.943 94.7352 137.888 94.7206C137.99 94.6353 138.092 94.5497 138.194 94.4641C138.266 94.3999 138.34 94.3365 138.415 94.2741C138.376 94.2624 138.338 94.251 138.299 94.2399C137.536 94.0166 136.773 93.7989 136.01 93.6053C136.464 94.5376 136.853 95.4984 137.27 96.4301C137.29 96.5099 137.307 96.5895 137.324 96.6687C137.273 96.652 137.226 96.6356 137.181 96.6194C135.901 96.1116 136.113 95.5838 135.969 95.3539C135.566 94.7135 134.229 94.766 133.92 94.2412C133.808 94.0507 135.386 94.2363 135.077 93.5967C135.042 93.4742 133.658 91.04 132.17 91.0536C132.108 91.3667 132.1 91.7708 132.054 92.1181C130.31 91.8121 129.704 90.0512 130.031 89.6314C128.964 89.7411 127.492 89.5993 127.242 90.0933C126.734 90.0573 126.232 90.0359 125.724 90.0293C126.241 88.9722 124.644 88.9448 124.144 89.6856C124.068 89.7992 124.017 89.9292 124.002 90.0738C124.052 90.0742 124.102 90.0746 124.152 90.0751C124.971 90.082 125.79 90.1279 126.603 90.2109C125.925 91.4133 128.032 92.1856 124.178 91.2651C123.87 91.2053 123.523 91.1372 123.132 91.0609C122.343 90.576 123.756 90.836 124.168 90.8045C124.301 90.7943 124.335 90.7534 124.165 90.6471C124.151 90.6387 124.137 90.6298 124.12 90.6205C122.642 90.3569 121.273 90.6461 119.853 90.2339C118.08 89.7325 120.196 89.025 116.165 90.0365C125.23 91.4512 114.979 91.2114 110.97 92.4321C109.631 90.764 105.822 90.5552 101.237 92.701C101.891 93.0129 103.29 92.2937 104.202 92.2385C105.106 92.1827 104.255 92.7126 105.376 92.6866C106.497 92.6542 108.828 92.5496 109.964 92.7595C109.065 93.1479 104.809 94.7496 107.558 93.3307C105.267 93.2812 104.076 92.988 101.369 93.817C100.866 94.8856 101.061 95.2436 98.7425 96.3987C99.6537 94.6721 96.5495 95.3991 96.5746 94.0837C98.5406 93.3421 98.0257 94.8905 99.2742 94.8895C99.3948 94.8781 100.952 93.9284 101.369 93.817C99.3016 93.4968 98.4698 93.4957 99.1317 91.8946C97.8675 92.5287 97.0078 92.8195 97.1566 93.3878C96.7802 93.301 96.4003 93.2215 96.016 93.1512C95.6016 93.3923 95.2508 93.6293 94.8183 93.9026C95.8734 94.2634 94.4405 94.5175 93.9236 95.4194C93.4505 96.3189 94.7622 96.0261 92.966 97.6859C93.692 97.258 94.3657 96.9194 95.0907 96.6181C94.001 97.707 93.0756 98.9288 92.395 100.23C93.4132 99.6673 95.4686 98.8338 95.8759 99.4344C95.2094 99.6038 94.2347 101.402 94.1744 101.586C93.7678 102.285 93.6578 101.682 93.613 101.724C92.8819 102.501 92.5626 103.348 92.0621 103.794C91.9242 103.932 91.7733 104.037 91.6011 104.102C91.4514 105.32 90.9747 106.092 90.5675 107.275C90.3454 107.927 90.8537 107.962 90.6343 108.309C89.2349 110.615 89.272 108.068 89.0893 113.261C89.5664 112.757 90.0588 112.275 90.5563 111.795C90.5246 112.369 90.5057 112.932 90.4974 113.495C90.3485 113.833 90.2044 114.169 90.0655 114.51C89.3442 114.343 88.6218 114.173 87.9007 114.005C87.7701 114.408 87.6468 114.815 87.531 115.222C87.5899 114.499 87.6746 113.769 87.7787 113.039C87.668 112.944 87.5566 112.851 87.4466 112.754C86.9844 113.771 86.5563 114.805 86.1843 115.875C86.4355 115.936 86.6887 115.996 86.9401 116.056C86.2746 118.41 86.028 118.573 86.8427 120.808C86.9343 122.034 87.7059 122.962 88.4058 123.509C88.7139 123.779 89.007 124.011 89.239 124.225C89.2342 124.598 89.2387 124.978 89.2555 125.362C89.5444 125.479 89.8336 125.591 90.1234 125.695C90.0482 126.219 89.9948 126.76 89.9566 127.301C90.6813 127.191 90.8773 127.195 90.324 125.576C91.2967 125.741 92.4273 128.423 92.9755 129.565C93.3625 130.439 92.1791 130.032 92.1787 130.172C92.1755 130.676 93.3726 131.762 93.5608 132.034C94.3419 133.228 95.0735 133.91 95.9224 134.886C96.084 135.076 96.3312 135.873 96.372 135.923C96.6775 136.287 97.4715 137.172 97.5793 137.254C97.7971 137.432 97.9991 137.589 98.1888 137.73C100.431 139.301 100.401 138.567 100.425 138.204C100.439 137.992 100.485 137.799 100.768 137.771C101.064 137.726 101.504 137.902 102.38 137.874C102.239 137.633 102.136 137.384 102.06 137.129C102.259 137.115 102.479 137.072 102.744 136.985C103.089 137.071 102.914 137.442 103.252 137.231C103.33 137.184 103.436 137.111 103.574 137.003C103.625 137.32 103.674 137.637 103.713 137.956C104.102 137.628 104.457 137.29 104.808 136.927C106.004 137.66 108.504 136.08 109.203 137.064C109.506 137.452 107.793 139.315 109.127 138.891C110.05 138.27 109.136 138.339 109.457 138.034C111.591 135.708 111.906 135.994 112.387 134.655C112.228 134.396 112.056 134.143 111.874 133.903C111.824 133.844 111.773 133.785 111.723 133.726C111.951 133.338 112.179 132.946 112.406 132.548C112.239 132.384 112.073 132.217 111.906 132.054C111.764 132.445 111.603 132.886 111.468 133.243C110.912 132.475 111.919 127.766 112.071 129.716C112.14 130.517 111.602 131.815 112.782 131.257C113.042 129.954 113.306 128.463 113.448 127.071C113.659 127.07 113.87 127.071 114.081 127.068C114.3 125.167 113.173 126.733 112.739 126.627C112.808 126.214 112.87 125.796 112.921 125.38C113.145 125.234 113.376 125.098 113.594 124.935C113.276 124.871 112.596 124.553 112.973 123.355C113.205 122.566 113.935 123.898 113.904 122.33C113.396 122.438 112.802 122.932 112.66 121.275C113.178 121.11 113.649 120.867 114.19 120.716C113.605 118.58 114.29 117.471 113.162 115.087C112.435 113.568 110.52 112.038 111.985 110.342C111.584 109.226 111.263 109.772 111.024 109.495C110.259 108.64 110.143 107.709 110.107 107.068C110.093 106.763 110.104 106.534 110.075 106.437C109.504 104.548 108.807 103.927 108.466 102.32C108.178 102.569 107.889 102.774 107.602 103.004C108.767 104.023 109.087 104.688 109.911 106.547C109.533 105.975 109.152 105.406 108.772 104.837C108.557 105.075 108.34 105.311 108.124 105.544C108.698 106.275 109.138 106.893 109.462 107.399C110.861 109.673 110 109.631 108.537 107.874C108.058 107.307 107.511 106.563 106.943 105.654C107.228 104.995 107.503 104.322 107.788 103.665C105.624 101.374 105.602 99.777 104.086 96.6842C103.907 96.3203 102.895 95.1751 102.566 94.6325C102.57 94.6427 102.573 94.653 102.577 94.6632C101.923 94.58 101.978 95.1655 101.601 95.4531C101.38 95.1836 101.159 94.9146 100.935 94.644C100.862 93.7986 101.253 93.8819 100.418 92.6194C100.213 92.9759 100.006 93.3285 99.799 93.6835C98.9562 92.2612 98.7389 91.1367 97.7953 89.9041C98.0448 90.0546 98.2931 90.2033 98.5428 90.356C97.0952 87.3137 100.278 88.4923 98.0466 86.8716C98.116 86.6371 98.1888 86.4051 98.2576 86.1704C98.8543 87.0354 99.4484 87.9158 100.029 88.7873C100.262 88.6713 100.495 88.5574 100.725 88.4378C100.075 87.5134 99.4056 86.5816 98.7402 85.6704C99.3245 86.2721 99.9148 86.8935 100.493 87.506C99.9117 86.3174 99.3234 85.142 98.7132 83.9595C98.663 85.6514 97.5895 84.1868 96.9789 84.9843C96.3915 82.6272 96.2465 80.4977 93.6115 77.9373C93.0853 77.4352 92.7848 78.1267 92.2311 76.0278C91.6831 77.0412 89.7681 75.3225 89.174 76.1959C89.63 76.7101 90.0938 77.2758 90.5366 77.7754C90.3618 76.9601 91.0449 76.28 91.9697 77.0547C93.1608 78.0566 93.8719 80.2313 94.69 79.5591C94.9924 80.0817 95.2826 80.557 95.5771 81.0666C95.2246 81.0137 94.8741 80.9676 94.5251 80.9218C95.8024 82.0632 96.2591 83.0061 96.143 84.037C94.9372 82.4658 93.7213 80.9383 92.459 79.4196C92.5889 79.6804 92.7205 79.9456 92.8509 80.2076C91.4423 79.3865 91.8145 80.9942 90.0913 78.8586C90.3504 78.6897 90.6078 78.5181 90.8683 78.3485C89.6219 78.0265 87.9717 75.8715 87.7459 77.1381C87.4824 76.3196 87.5165 76.0669 86.8311 76.0255C86.0693 73.9046 85.8442 72.2616 87.179 72.1454C86.5179 71.6329 85.8521 71.1328 85.1865 70.651C85.2779 71.2007 85.3571 71.7407 85.4358 72.288C84.5416 71.2233 83.6162 70.1759 82.6602 69.1609C83.21 68.4434 84.6925 70.9396 84.716 69.8073C84.7205 69.5765 83.9626 69.2583 83.8862 69.0491C83.1242 66.8512 84.9116 69.7427 85.0182 68.786C82.9844 66.3397 85.6748 67.2399 81.7662 64.9329C81.8532 64.6669 81.936 64.3905 82.026 64.1302C80.8888 63.0873 80.5924 63.596 79.5182 62.8419C78.8401 62.3711 78.6284 60.9272 77.468 60.9382C77.2622 60.9626 77.779 62.7867 75.2148 60.9729C73.1714 59.6358 74.4917 59.4394 73.4496 58.4917C72.3741 57.5068 69.0854 57.4402 68.6074 55.903C69.2533 56.2946 70.0866 56.7031 70.7672 57.1525C71.1738 57.0338 71.5691 56.9194 71.9785 56.8155C70.6371 56.4724 69.3677 55.8439 68.2224 55.6655C67.8201 55.6042 67.4378 55.5926 67.0801 55.667C65.0463 54.0615 62.2022 54.2771 62.637 55.522C63.4333 55.5643 62.7308 54.8856 63.7058 55.457C63.748 55.7331 63.7958 56.0095 63.8368 56.2856C62.0654 55.7812 60.8162 55.4918 61.823 54.9345C61.5486 54.8469 61.2765 54.7608 61.0017 54.675C60.8185 55.212 60.641 55.7526 60.459 56.2899C60.1154 56.2725 59.7691 56.2552 59.4254 56.2404C59.0871 56.0342 58.7483 55.828 58.4028 55.622C59.0967 54.8657 59.9776 55.0161 57.226 53.91C57.154 54.2106 57.0784 54.5091 57.0065 54.8097C54.7067 53.9414 54.7768 53.1775 51.7316 52.7052C54.2517 52.0203 55.1785 54.1547 55.5737 52.0361C56.1364 52.2883 56.6992 52.5474 57.2551 52.8077C57.4078 52.5208 57.5606 52.2336 57.7104 51.9463C54.4844 51.4005 48.9437 52.6324 46.966 51.0918C46.689 51.2298 46.4147 51.3473 46.1356 51.4999C44.0981 50.4901 43.0792 52.2683 41.0011 51.132C40.7793 51.0231 41.3164 49.2646 38.4502 49.3174C38.5226 49.5422 38.5614 49.921 38.619 50.2048C38.0055 50.0684 37.3965 49.9336 36.7795 49.8107C36.6748 50.0218 36.5658 50.2333 36.4635 50.4465C37.5081 50.4908 38.5425 50.5617 39.5758 50.6536C38.716 50.7156 37.8503 50.7934 36.9956 50.888C38.1218 51.1998 38.6171 51.2077 37.9557 51.7571C36.9992 51.8019 36.0416 51.8694 35.0858 51.9576C34.9955 52.1026 34.9067 52.2494 34.8178 52.3948C35.3024 52.7811 35.7862 53.1637 36.252 53.5675C33.8068 53.3265 31.7099 53.5335 29.7165 53.0202C29.3763 52.94 30.4175 52.2013 28.3186 53.067C28.2324 52.7911 28.1304 52.5731 28.0426 52.3197C25.671 53.5604 24.7695 53.627 22.275 53.8975C22.1024 53.9177 21.9219 53.9392 21.7326 53.9627C21.9723 53.9534 22.1554 53.9492 22.2921 53.9491C22.8292 53.9489 22.6577 54.005 22.3479 54.1183C22.102 54.2087 21.7662 54.3382 21.6299 54.5039C21.3914 54.7951 22.5646 54.3693 22.496 54.6143C22.4243 54.8545 21.1768 56.1654 22.5055 55.822C22.6091 55.7156 22.7112 55.6162 22.8119 55.5234C25.3121 53.3086 26.7525 54.8194 30.6489 53.4113C30.0246 53.7234 29.408 54.0478 28.8053 54.383C29.1348 54.4761 29.4272 54.5642 29.7773 54.6692C27.4108 54.7396 28.5694 54.7636 27.6823 55.208C26.797 55.658 25.1836 56.2929 24.116 56.7041C23.7784 56.8334 24.0276 56.3468 23.236 56.5643C23.2131 56.5707 23.1889 56.5787 23.1635 56.5881C22.5709 56.8029 21.3668 57.75 20.8227 57.2633C20.4379 56.9385 22.4545 54.9099 19.1098 56.1433C18.3276 55.9789 19.9798 55.4979 19.9977 55.4407C20.1213 54.8466 17.8943 55.2587 17.0956 56.0176C17.0328 56.0795 17.9277 56.1465 17.1771 56.6213C15.4099 57.7566 14.1614 57.8402 12.6691 57.8813C12.8501 58.6048 11.6989 60.1233 9.72523 60.9667C9.73572 61.2013 9.75273 61.4346 9.76641 61.67C9.9922 61.4084 10.2239 61.1485 10.4572 60.8896C10.8348 60.8251 11.214 60.7235 11.5956 60.6916C9.81254 61.877 10.0871 62.9111 9.44185 63.738C7.32041 66.6161 7.52872 63.3157 7.82507 62.5732C8.30846 62.4796 8.78916 62.4206 9.27093 62.353C9.09633 62.1632 8.91966 61.9725 8.7469 61.78C4.33171 64.6662 7.16175 60.8116 4.62446 61.9845C4.75967 63.4231 3.26155 64.6416 0.822452 65.7806C0.6154 65.9761 0.40585 66.1713 0.202699 66.3727C0.292343 66.5376 0.482944 66.7392 0.509156 66.8789C-1.53207 69.1385 -3.26346 68.3329 -3.61934 68.4333C-5.12613 68.9221 -4.92232 70.4712 -5.14983 70.7795C-6.12408 72.1175 -6.81068 72.2345 -7.51084 73.6821C-8.23386 75.2476 -7.28569 74.4631 -7.26971 75.0777C-7.25584 75.5605 -7.87815 76.7213 -7.88473 77.3281C-7.98295 77.0306 -8.06291 76.7128 -8.1567 76.4124C-8.78469 77.1691 -9.3424 77.8628 -9.87223 78.6484C-10.3047 79.2978 -10.6855 80.0775 -10.9851 80.9189C-10.0542 83.5556 -13.0729 84.8011 -10.7013 84.5003C-10.1901 82.7162 -9.62834 81.7594 -8.77769 81.0627C-9.08231 82.1834 -9.29672 83.3365 -9.45858 84.5197C-9.77017 84.7976 -10.0564 84.9912 -10.3807 85.362C-10.0184 86.3235 -10.4985 88.3462 -10.4002 89.1646C-9.91395 93.0063 -8.95268 91.7785 -10.451 95.2458C-10.6432 92.7568 -11.3884 92.7437 -11.1579 90.2403C-11.7252 90.731 -11.6661 92.0487 -12.2673 91.1764C-12.195 93.6503 -11.5872 92.8694 -11.092 93.8109C-10.662 94.6134 -10.5759 96.2352 -10.0121 96.1145C-10.3152 96.2922 -10.6093 96.4351 -10.9104 96.6185C-10.8242 98.1795 -10.6771 99.7338 -10.4619 101.287C-10.8727 100.677 -11.2764 100.034 -11.6647 99.4002C-11.7357 99.9179 -11.7986 100.444 -11.8541 100.975C-10.4921 104.697 -10.3477 111.67 -8.2063 109.888C-7.57261 111.625 -7.78503 111.921 -7.88205 113.049C-7.66285 113.085 -7.47502 113.129 -7.23563 113.155C-6.99439 114.341 -5.96944 114.903 -5.71026 115.921C-5.44047 116.948 -5.9274 117.483 -4.83428 117.109C-4.8322 117.853 -4.75661 118.587 -4.69901 119.325C-4.27363 119.557 -3.84886 119.783 -3.42283 119.998C-3.21849 120.616 -3.00694 121.221 -2.77685 121.832C-2.14376 121.832 -0.938987 124.014 0.0350972 124.64C0.205855 125.8 -1.27496 126.999 0.664807 128.688C0.962532 128.33 1.26136 127.975 1.56195 127.62C1.8693 128.107 2.18701 128.589 2.51265 129.064C2.42813 129.193 2.34069 129.319 2.25668 129.449C2.0863 129.206 1.92178 128.966 1.75917 128.722C1.74479 129.079 1.73257 129.435 1.72495 129.793C2.60946 130.167 3.51249 130.522 4.39994 130.829C3.7448 129.834 3.1041 128.79 2.54026 127.762C3.75889 128.573 4.25446 129.53 5.42229 130.091C5.80198 131.292 5.27275 131.307 4.46624 131.511C4.81539 131.747 5.17584 131.989 5.52937 132.214C4.87849 132.553 5.11895 133.359 3.31754 131.639C3.30743 131.899 3.30855 132.156 3.29486 132.421C3.62065 132.676 3.71051 132.98 4.10565 133.224C5.17862 133.884 6.66939 133.51 6.86754 133.126C6.97014 132.927 5.79497 132.513 6.03564 132.299C6.62693 131.788 8.40185 133.736 6.01338 130.704C7.2835 131.16 7.23383 131.602 8.25093 132.579C8.32098 132.31 8.39428 132.044 8.47113 131.779C8.56432 131.885 8.65838 131.991 8.75328 132.096C9.10722 132.485 9.45948 132.87 9.80931 133.249C8.28001 133.749 11.8773 137.055 7.68079 135.349C8.67295 136.176 9.7031 137.011 10.7076 137.808C10.4143 137.764 10.1204 137.717 9.82455 137.669C9.39289 137.267 8.95361 136.856 8.52324 136.449C8.93266 137.061 9.3568 137.677 9.77033 138.28C11.2786 138.991 12.091 138.978 13.0221 138.917C11.7241 137.498 11.8856 138.316 10.6158 137.55C10.872 137.282 11.0152 136.968 11.3438 136.729C11.5217 137.802 13.8713 138.763 14.3773 139.053C15.8886 139.932 14.3285 139.789 15.3027 140.455C16.2874 141.124 17.6851 141.485 18.1144 142.623C18.3188 142.26 18.4805 141.854 18.6224 141.497C20.2311 142.329 19.6848 142.562 19.8097 142.714C21.8712 145.163 23.7531 145.216 26.8598 146.712C26.5245 146.394 26.1922 146.089 25.8584 145.776C28.5628 146.188 26.8828 145.64 25.0479 144.315C26.8588 145.396 28.2714 145.268 29.6865 145.723C31.096 146.179 33.2205 147.599 33.9431 148.252C31.8056 147.815 29.8744 146.541 27.7215 145.586C27.7671 146.086 27.8372 146.524 27.8754 147.065C29.5647 146.921 30.0467 147.81 30.4287 148.124C31.5471 149.041 31.8228 148.324 32.2489 149.427C32.3359 149.156 32.4126 148.93 32.4922 148.676C35.0509 149.992 37.7265 151.669 39.856 151.423C39.7535 152.115 39.6226 152.769 39.5407 153.484C40.8674 153.48 41.639 154.359 42.6368 154.634C43.6302 154.907 43.4779 154.254 44.6699 154.507C44.8904 154.554 45.1918 155.046 45.7964 155.016C46.4013 154.985 49.0069 153.995 48.6105 155.618C49.5654 156.012 50.4421 156.433 51.3698 156.843C50.4198 156.555 49.4794 156.27 48.5342 155.989C49.1619 156.674 49.7826 157.357 50.4044 158.044C50.6385 157.754 50.8755 157.458 51.1044 157.171C53.3521 157.623 54.6561 158.8 56.7884 159.569C57.1458 159.699 56.6096 158.694 58.0804 159.531C59.5627 160.38 60.162 162.081 62.9694 162.83C63.1188 162.871 64.3022 162.311 64.9372 163.392C65.0801 163.636 64.0881 163.42 64.4836 163.84C64.8954 164.264 66.9385 165.458 66.8964 165.994C66.9517 165.825 66.8979 165.596 66.912 165.403C67.0001 165.427 67.0886 165.451 67.1772 165.475C67.4981 165.561 67.8233 165.647 68.1506 165.732C68.0534 166.027 67.9595 166.325 67.8643 166.62C70.4347 167.015 71.9495 166.398 75.1502 167.963C74.3658 167.211 73.5799 166.438 72.8568 165.67C72.495 165.866 72.1176 166.057 71.7505 166.247C70.4261 165.584 69.0959 164.866 67.8546 164.118C67.7315 164.044 67.6087 163.971 67.4861 163.898C67.0867 164.1 66.6942 164.305 66.2991 164.51C65.9371 164.28 65.5838 164.058 65.2222 163.831C65.4338 163.645 65.6389 163.458 65.8517 163.273C65.0627 162.961 64.2601 162.649 63.4836 162.354C65.6844 161.691 67.7309 164.555 68.102 163.313C68.1326 163.355 68.1632 163.397 68.1938 163.438C68.4049 163.739 68.6233 164.042 68.8484 164.344C69.257 163.85 69.8972 164.359 71.0817 164.972C70.9171 164.569 70.7384 164.162 70.6037 163.764C71.592 164.687 73.7772 165.514 75.0067 166.127C75.5512 166.401 74.8296 166.62 74.9813 166.731C75.7474 167.305 77.6628 167.118 77.9953 167.287C79.9381 168.299 80.924 170.142 83.5132 169.829C81.1803 168.939 82.4558 169.393 81.757 168.631C81.5369 168.393 78.6004 167.166 82.3661 168.42C82.7924 168.608 89.5836 171.355 87.0841 171.548C88.2937 171.581 89.2617 171.506 90.3726 171.481C92.5124 174.077 92.0292 171.97 91.5105 170.76C91.9317 170.847 92.3352 170.922 92.7695 171.014C91.6049 171.929 96.3295 172.976 98.0383 172.697C98.6132 172.611 97.1685 171.976 98.4482 172.039C99.0276 172.226 99.6807 172.448 100.287 172.645C99.5096 171.782 101.328 171.823 101.431 171.103C102.46 171.937 103.102 173.433 102.354 174.062C103.335 173.922 104.359 173.783 105.343 173.632C104.933 173.393 104.516 173.153 104.102 172.911C107.107 173.867 111.25 173.401 111.68 174.997C112.1 175.044 112.519 175.091 112.928 175.135C113.089 174.897 113.244 174.657 113.403 174.418C115.249 174.889 117.064 175.344 118.909 175.79C117.219 175.747 116.759 176.06 115.083 175.546C115.702 175.925 116.36 176.308 116.988 176.684C119.711 176.213 120.106 175.732 124.054 176.422C124.226 176.451 127.128 177.464 127.22 177.563C127.573 177.921 126.896 178.252 127.055 178.429C127.118 178.493 127.185 178.566 127.293 178.657C127.352 178.702 127.407 178.759 127.29 178.762C127.271 178.761 127.262 178.763 127.221 178.752C127.147 178.72 127.041 178.7 126.782 178.495C126.656 178.386 126.466 178.217 126.308 177.854C126.143 177.503 126.13 176.909 126.315 176.52C126.716 175.738 127.073 175.717 127.209 175.625C127.249 175.608 127.281 175.596 127.309 175.586C127.32 175.582 127.321 175.581 127.326 175.578C127.336 175.574 127.345 175.57 127.353 175.566C127.386 175.551 127.411 175.54 127.432 175.53C127.51 175.492 127.517 175.474 127.5 175.455C127.351 175.388 127.225 175.309 126.956 175.232C126.7 175.154 126.546 175.07 126.294 174.989C125.738 174.827 125.423 174.667 125.061 174.54C124.722 174.412 124.48 174.316 124.5 174.276C124.769 173.784 125.669 173.421 126.803 173.116C126.977 173.077 127.117 173.037 127.194 173.001C127.219 172.984 127.295 172.961 127.213 172.953C127.167 172.952 127.089 172.95 126.871 172.99C126.816 173 126.751 173.014 126.669 173.035C126.629 173.046 126.584 173.058 126.534 173.073C126.572 173.07 126.248 173.12 125.623 173.484C125.31 173.681 124.864 173.968 124.361 174.643C123.862 175.286 123.397 176.539 123.56 177.71C124.001 180.135 125.2 180.569 125.558 180.881C125.788 181.024 125.951 181.102 126.08 181.161C126.145 181.19 126.201 181.213 126.25 181.233C126.282 181.245 126.274 181.243 126.286 181.247C126.319 181.261 126.349 181.273 126.376 181.284C126.788 181.436 126.785 181.426 126.766 181.442C126.733 181.45 126.693 181.457 126.626 181.461C126.501 181.469 126.274 181.463 126.129 181.469C125.961 181.472 125.765 181.471 125.542 181.466C125.341 181.464 125.168 181.465 124.957 181.461C124.754 181.458 124.513 181.449 124.302 181.443C124.104 181.439 123.897 181.432 123.679 181.424C120.164 181.294 116.385 180.872 114.748 180.71C98.1064 178.918 81.5991 176.592 65.4692 168.896C51.1803 161.301 35.0718 156.594 19.7091 147.851C19.3993 147.677 19.3888 148.005 19.2509 147.939C18.385 147.523 17.8395 146.67 17.5474 146.471C16.9291 146.053 17.063 146.622 16.596 146.337C12.2568 143.672 8.4252 140.745 4.43831 137.695C3.99807 137.358 3.56276 137.017 3.13167 136.671C2.83015 136.428 3.34504 136.423 2.78963 136.035C2.5098 135.844 1.32406 135.496 0.731311 134.956C-1.34049 133.07 -2.8359 131.235 -4.67783 128.93C-5.68282 127.68 -7.05298 125.667 -7.99587 124.138C-8.41182 123.473 -9.04154 122.863 -9.42927 122.182C-9.97522 121.214 -9.44434 121.182 -9.49969 121.019C-9.73456 120.297 -10.2447 120.443 -10.5513 119.799C-11.1057 118.598 -10.8317 118.379 -11.5175 116.868C-12.0209 115.779 -13.2333 113.324 -13.7484 111.899C-14.4425 108.422 -15.4757 104.18 -15.9739 100.943C-16.269 99.0411 -15.7794 98.8059 -15.8428 98.0346C-16.0398 95.298 -16.6804 93.1995 -16.5738 90.5626C-16.4014 87.0774 -15.6089 84.0333 -14.6084 80.5494C-14.4295 79.9554 -14.898 79.9604 -14.7239 79.3814C-14.4843 78.6082 -14.1779 77.7158 -13.7331 76.7639C-13.1172 75.4291 -12.4134 74.11 -11.7715 73.1166C-10.6595 71.4183 -9.71084 71.1648 -8.66983 69.5066C-8.35943 69.0244 -8.71419 68.5432 -8.16474 67.7296C-7.28138 66.4281 -5.76704 65.4881 -4.98324 64.7532C-3.90285 63.7519 -5.22358 64.2479 -3.73945 62.9034C-3.67696 62.8483 -3.1758 62.9405 -2.87766 62.637C-2.0002 61.7623 -2.31429 61.5868 -0.895316 60.4381C-0.763258 60.3168 1.37273 59.1478 1.56863 59.0227C2.68775 58.1795 5.09916 56.7673 5.75879 56.2864C8.11599 54.5495 5.84185 55.1423 8.64891 55.1246C9.43981 54.3214 10.2492 53.5332 11.1495 52.7471C10.5874 53.3378 13.5785 52.4222 13.7637 52.33C15.3192 51.4248 14.1341 51.3384 16.2771 50.5787C13.9455 52.7991 19.0407 49.6576 20.2903 49.2621C20.4261 49.213 20.5614 49.1645 20.6964 49.1168C26.8877 46.9683 32.8055 46.5837 39.0565 46.5769C41.2033 46.5731 44.0791 46.4608 46.3182 46.6813C46.8385 46.7307 46.4184 46.9792 46.8745 47.0299C47.3299 47.0799 46.856 46.7075 47.376 46.7781C50.615 47.2357 52.9961 48.2265 56.0272 48.0217C56.1475 48.1565 56.1268 48.2409 56.3366 48.4044C58.8469 48.1728 63.1434 50.1303 64.7574 50.7032C67.0304 51.4871 67.8924 51.3803 69.3656 51.8C69.5742 51.8604 69.7928 51.9312 70.0248 52.0164C72.9495 53.0205 76.27 55.956 75.2568 53.7161C77.0869 54.6166 78.7105 55.6254 80.2331 56.887C80.4007 57.0269 80.058 57.2454 80.1238 57.3025C80.5346 57.6677 80.8796 57.505 81.1884 57.719C82.0081 58.2949 80.475 57.6246 81.6627 58.4006C82.2828 58.8192 82.8212 58.8409 84.386 60.2022C93.6736 68.486 100.532 79.2474 106.469 89.4259C106.872 90.1259 106.921 89.4814 107.409 90.3734C109.122 93.4741 111.575 99.2846 113.034 101.92C114.162 103.945 114.512 103.914 115.1 104.507C115.291 104.714 115.506 104.985 115.765 105.401C115.981 105.749 115.56 105.575 115.718 105.915C116.781 108.182 117.375 111.201 117.813 113.233C118.102 114.576 118.537 114.375 118.764 115.324C119.096 116.757 118.777 118.318 118.814 119.093C118.985 122.726 119.091 125.35 118.219 128.542C118.35 128.439 118.463 128.376 118.587 128.289C118.033 130.887 117.233 133.291 116.485 135.463C115.834 137.381 114.732 139.015 113.536 140.277C113.78 140.158 114.019 140.036 114.265 139.897C112.061 142.324 110.792 142.551 110.416 142.867C110.023 143.129 110.402 143.232 111.226 144.009C110.903 144.314 110.561 144.628 110.241 144.893C109.931 144.154 108.267 144.456 105.994 144.837C104.782 145.079 103.073 145.367 101.163 145.099C100.72 145.155 97.57 145.364 98.3793 144.209C97.6472 144.264 97.2105 144.295 96.6196 144.303C95.9671 143.542 95.5066 142.803 95.1265 142.093C95.0983 142.037 95.0704 141.982 95.0428 141.926C94.6851 141.745 94.3263 141.552 93.9742 141.358C93.7719 141.526 93.6476 141.766 93.391 141.886C91.8231 140.8 89.2553 137.897 88.298 136.777C85.8207 134.106 83.186 131.142 82.6663 128.115C82.0305 126.821 82.1016 128.362 81.3698 126.295C81.4265 126.176 81.4832 126.061 81.5407 125.947C81.6277 125.719 81.7195 125.495 81.8197 125.263C80.1561 123.565 80.6941 122.83 80.7904 120.248C80.9086 118.518 80.7189 117.423 80.9602 115.905C81.025 115.523 81.3491 115.622 81.3754 115.365C81.4477 114.494 81.4971 112.029 81.6416 111.459C82.5473 107.477 83.7707 104.258 85.0835 101.058C85.6247 99.7311 86.3221 98.451 87.1816 97.2453C87.5776 96.6985 86.8015 97.23 87.2221 96.6607C87.9189 95.7617 87.9195 96.604 88.3352 96.1171C89.5335 94.8276 89.1373 94.3982 90.9855 92.7784C97.3405 87.6045 105.367 86.6038 111.943 85.8476C112.152 85.8243 112.105 85.5148 112.332 85.4872C113.812 85.3126 115.329 85.6139 116.647 85.5234C118.833 85.3771 120.45 84.8738 122.579 84.8143C123.071 84.8009 123.561 84.7923 124.036 84.7876C128.276 84.738 132.258 85.6599 136.225 87.1494C137.881 87.7695 139.356 88.4337 140.727 89.0697C143.363 90.3139 145.275 92.1079 146.916 94.0631C149.527 97.2444 151.232 100.415 152.901 103.39C156.586 110.516 153.314 117.03 151.127 121.124C148.673 125.469 145.862 129.038 143.16 132.473C140.35 136.177 135.269 136.878 132.379 136.31C128.339 136.011 123.98 131.678 123.467 127.994C123.228 126.957 123.123 125.918 123.125 124.919C123.134 124.226 123.415 124.513 123.405 124.305C123.377 122.375 123.125 122.153 123.993 121.672C124.331 119.479 124.017 118.615 125.101 116.392C125.713 115.258 126.044 116.502 126.682 114.477C127.331 112.744 125.698 113.925 129.357 110.026C129.457 109.926 130.309 109.755 130.907 108.868C131.523 107.986 130.371 108.607 132.07 106.665C133.594 104.962 135.439 103.298 137.466 101.728C142.415 97.7706 148.935 97.7029 153.401 98.3076C153.916 98.3075 158.266 98.9466 159.066 99.0849C160.68 99.2756 160.494 98.7824 162.47 99.3193C163.078 99.4887 163.609 99.7317 164.132 99.9932L164.785 100.26C165.726 100.822 166.666 101.471 167.918 102.226C168.154 102.386 168.851 102.19 170.332 103.507ZM60.4902 56.8024C60.0395 57.1803 59.0445 58.7093 57.1522 57.7549C56.9693 57.6643 58.2631 56.7257 57.1797 56.297C58.3072 56.4102 59.3895 56.6165 60.4906 56.8006C60.4905 56.8012 60.4903 56.8018 60.4902 56.8024ZM169.163 119.032C167.544 117.752 166.154 115.665 165.473 114.323C166.198 115.102 167.171 116.247 168.307 117.088C168.538 117.749 168.831 118.403 169.163 119.032ZM93.6321 130.799C93.6312 130.798 93.6303 130.797 93.6295 130.796C94.7643 131.832 95.9729 132.766 97.2315 133.586C97.0058 133.605 96.7774 133.622 96.5491 133.635C95.4954 133.019 94.4665 132.322 93.4802 131.556C93.5274 131.302 93.5778 131.049 93.6321 130.799ZM87.0037 120.707C87.1393 119.701 87.4911 119.937 87.8065 119.404C87.8059 119.404 87.8053 119.404 87.8047 119.404C87.8861 119.266 87.978 118.621 88.0094 118.367C87.7975 118.448 87.5874 118.559 87.378 118.654C86.9913 116.174 89.5815 112.205 89.43 117.851C89.1777 117.747 88.9272 117.644 88.6765 117.533C88.3957 120.277 88.4941 123.302 87.0037 120.707ZM36.1347 54.7205C33.6248 55.7119 32.894 55.9315 29.7964 55.8155C30.1796 55.5066 30.5751 55.2017 30.973 54.9023C31.5123 55.0769 32.0446 55.2585 32.572 55.4496C32.5734 55.4495 32.5749 55.4493 32.5763 55.4492C32.6488 55.1806 32.7232 54.9116 32.7949 54.6437C33.9077 54.6358 35.0235 54.6626 36.1347 54.7205ZM143.749 118.975C141.921 118.64 142.908 119.009 143.618 117.107C143.848 116.455 143.255 116.874 143.425 116.486C144.277 114.423 145.306 114.744 145.638 115.46C145.099 116.649 144.44 117.839 143.751 118.971C143.751 118.972 143.75 118.973 143.749 118.975ZM157.162 106.69C157.163 106.691 157.164 106.691 157.166 106.691C157.109 107.107 156.159 106.955 157.09 107.629C156.302 107.399 155.515 107.188 154.724 107.005C154.965 107.021 155.211 107.042 155.453 107.062C155.282 106.872 155.109 106.682 154.933 106.495C154.543 106.897 154.349 106.561 153.54 106.242C153.676 106.787 153.801 107.334 153.916 107.88C153.017 107.535 152.113 107.229 151.206 106.983C151.208 106.854 151.209 106.724 151.211 106.595C150.841 106.723 150.483 106.862 150.136 107.01C150.051 106.852 149.968 106.696 149.879 106.539C149.458 106.641 149.046 106.758 148.653 106.892C148.514 106.533 149.4 106.302 147.82 106.51C148.262 106.083 148.758 105.678 149.294 105.296C151.909 105.334 154.56 105.918 157.162 106.69ZM144.056 103.199C145.601 105.744 144.933 105.158 143.867 104.965C143.937 104.379 144 103.788 144.056 103.199ZM104.092 99.3681C103.162 98.8678 102.232 98.3637 101.309 97.851C100.153 96.4397 100.17 94.3686 101.198 95.3364C102.435 96.5091 102.783 98.2687 104.092 99.3681ZM80.3068 66.4003C81.7047 68.077 79.7458 67.1675 79.135 67.1586C79.1412 66.3004 78.4824 65.7804 77.5204 64.9005C78.4952 65.6316 80.0759 66.1227 80.3081 66.399C80.3076 66.3994 80.3072 66.3999 80.3068 66.4003ZM109.56 131.762C109.433 132.174 109.336 132.598 109.218 133.005C109.138 133.301 109.002 133.581 108.775 133.784C108.403 133.37 109.205 132.673 108.198 133.001C108.237 132.899 108.271 132.797 108.301 132.695C108.412 132.338 108.522 131.982 108.627 131.632C108.837 132.072 109.226 131.704 109.557 131.763C109.558 131.763 109.559 131.762 109.56 131.762ZM120.667 93.2899C118.928 92.7101 118.602 93.0044 116.921 93.5654C116.639 93.0504 118.64 92.0286 119.941 91.7815C120.184 92.2837 120.422 92.7869 120.667 93.2899ZM79.7439 165.962C79.1558 166.497 76.231 165.641 74.8918 164.916C75.095 164.885 75.2994 164.851 75.5034 164.817C76.8945 165.228 78.3344 165.616 79.7439 165.962ZM77.0628 64.4756C77.2217 64.6262 77.3746 64.7677 77.5204 64.9005C77.3458 64.7682 77.189 64.6281 77.0628 64.4756ZM-6.00289 73.4388C-6.10109 72.4625 -7.55914 74.1719 -5.79186 72.0924C-5.79235 72.0921 -5.79285 72.0917 -5.79334 72.0914C-4.5966 70.7474 -4.31064 70.4671 -3.20002 69.2438C-2.97995 70.2386 -4.84035 72.9042 -1.79905 69.5939C-1.75825 69.551 -2.20336 69.3101 -1.66462 68.8227C-1.49428 68.6706 -0.723557 68.4221 0.124731 67.7503C0.397713 67.5336 2.3571 65.8162 -0.181225 68.2933C0.298526 68.6206 0.577098 69.1612 0.978484 69.5436C0.174192 70.5947 -1.34747 70.6076 -2.2472 71.7447C-3.56853 73.4446 -3.20729 74.9755 -4.66999 74.4758C-3.98512 72.7555 -1.96522 70.3138 -1.02289 70.6299C0.132015 69.3633 -0.0134747 68.4892 -1.26208 69.2814C-4.85905 74.2224 -3.33046 69.7889 -5.9992 74.5516C-5.86153 74.718 -5.79448 75.0239 -5.61294 75.1004C-7.10781 76.101 -5.9861 73.7891 -6.00289 73.4388ZM3.90291 65.1062C3.35673 66.1 2.86062 67.1046 2.41363 68.111C1.9348 67.5924 1.89778 66.7242 2.92003 65.3446C3.24766 65.2619 3.57611 65.1824 3.90291 65.1062ZM16.5697 138.666C16.9113 138.428 17.4464 138.355 17.8928 138.206C17.9411 138.69 24.2938 142.877 20.8173 141.165C20.2846 140.913 17.774 138.533 16.5697 138.666ZM131.902 93.6916C131.174 93.1979 130.423 92.7366 129.637 92.3124C130.956 92.4121 132.29 92.6171 133.617 92.9127C133.027 93.1549 132.458 93.4158 131.902 93.6916ZM97.2565 86.3347C97.4464 86.6634 96.3256 85.8811 97.1924 87.1012C96.3131 86.3384 95.5043 85.6073 94.6449 84.8755C94.6768 84.4643 94.7049 84.0509 94.7345 83.6399C94.4595 83.5167 94.1828 83.3904 93.9084 83.2704C94.2971 83.1927 94.67 83.1069 95.0696 83.0352C95.4315 85.0073 96.3987 84.8668 97.2565 86.3347ZM109.892 136.902C109.144 136.57 110.403 134.382 108.689 136.136C108.635 135.431 108.948 134.776 109.429 133.678C109.69 133.588 109.949 133.476 110.206 133.339C110.207 133.338 110.208 133.338 110.209 133.337C109.712 133.134 109.654 132.691 109.56 131.762C109.56 131.761 109.561 131.761 109.562 131.76C110.234 129.566 110.332 129.764 111.337 129.473C110.219 131.584 110.837 131.944 110.813 133.544C110.813 133.602 110.81 133.661 110.806 133.722C110.746 134.932 109.663 136.053 109.892 136.902ZM9.91176 133.99C11.7064 134.483 10.8271 133.074 12.8917 135.444C12.6276 135.466 12.3679 135.488 12.1087 135.512C11.3837 135.023 10.6272 134.497 9.91176 133.99ZM101.888 138.055C101.78 139.366 103.723 140.071 103.299 138.035C102.669 138.013 102.604 138.176 102.496 138.316C102.409 138.444 102.265 138.529 101.888 138.055ZM82.1724 65.5012C84.3747 67.7109 82.9276 68.2797 81.5633 67.892C81.6043 67.5775 81.6441 67.2622 81.6834 66.9507C81.2261 66.6689 80.7505 66.3798 80.2855 66.1089C80.9072 65.8966 81.5372 65.6935 82.1724 65.5012ZM97.0375 96.164C95.582 98.0724 99.374 95.3843 98.2942 96.6414C97.4479 97.5798 95.6845 97.7889 95.8464 96.9851C96.192 96.72 96.6031 96.4358 97.0337 96.1663C97.035 96.1655 97.0362 96.1647 97.0375 96.164ZM89.7241 106.707C90.7419 106.665 90.284 107.093 90.7745 105.3C90.833 105.088 91.1829 104.307 91.483 103.567C91.8642 102.627 92.2734 101.783 91.4219 102.432C91.2743 102.735 91.1346 103.051 91.0043 103.38C90.5721 104.47 90.1338 105.593 89.7241 106.707ZM49.1346 53.8879C49.1529 53.4647 52.5181 53.0548 52.8995 53.3623C52.8996 53.3617 52.8997 53.3611 52.8998 53.3604C53.9084 54.1495 50.513 53.6787 51.8433 54.7478C48.7172 53.5045 47.5175 55.2143 48.0259 52.8887C49.9736 53.0256 48.9932 53.3972 49.1346 53.8879ZM118.927 175.423C118.929 175.423 118.93 175.424 118.932 175.424C118.69 175.376 117.002 174.564 117.238 174.383C119.334 174.82 118.942 175.17 121.03 174.761C121.118 174.982 121.189 175.195 121.283 175.418C120.459 175.447 119.995 175.646 118.927 175.423ZM23.1993 143.684C22.4593 143.391 21.4108 142.269 20.6298 141.829C23.9532 141.843 26.1902 144.852 23.1993 143.684ZM133.356 116.78C133.356 116.782 133.355 116.784 133.354 116.787C133.354 116.786 133.353 116.784 133.353 116.783C133.354 116.782 133.355 116.781 133.356 116.78ZM-9.70339 95.9227C-9.80975 96.0276 -9.90316 96.0891 -9.98653 96.1133C-9.99446 96.1137 -10.0024 96.114 -10.0103 96.1144C-9.90927 96.0551 -9.80712 95.9925 -9.70339 95.9227ZM42.4461 53.3886C41.116 52.7387 45.695 52.0882 47.1448 52.5011C47.0145 52.7492 46.9729 52.9823 46.7054 53.2553C45.5966 52.4458 42.6519 53.4842 42.4461 53.3886ZM112.267 117.439C111.641 113.99 114.73 118.148 112.9 118.602C112.87 118.593 112.291 117.524 112.267 117.439ZM69.8106 58.6116C70.8887 58.3366 69.3226 57.4107 71.9134 58.7383C71.9891 58.9727 72.059 59.2063 72.125 59.439C71.3594 59.1263 70.5957 58.8532 69.8106 58.6116ZM105.466 94.9473C102.906 91.1502 100.08 87.8128 99.9732 91.2932C100.199 91.555 100.425 91.8232 100.65 92.0875C101.469 91.6697 101.675 93.0039 102.564 94.6237C103.01 94.6701 103.588 95.5203 103.953 95.5372C104.658 95.5697 104.444 94.3296 105.466 94.9473ZM139.399 128.292C139.322 128.137 139.244 127.983 139.168 127.829C139.476 127.16 139.784 126.49 140.086 125.821C140.252 126.097 140.416 126.374 140.581 126.652C140.189 127.2 139.797 127.744 139.403 128.289C139.401 128.29 139.4 128.291 139.399 128.292ZM6.32907 60.9548C6.95492 62.626 7.8918 61.5411 10.013 59.3442C8.77295 59.8326 7.54191 60.3688 6.32907 60.9548ZM86.4338 126.823C86.837 126.527 87.2423 126.238 87.6493 125.948C86.5722 124.75 86.1577 125.172 85.8605 126.155C86.049 126.383 86.2395 126.603 86.4338 126.823ZM88.0892 104.297C87.7649 104.868 88.2524 104.697 88.221 104.758C87.4588 106.221 87.1977 106.382 86.8404 108.397C86.8619 108.665 86.8917 108.93 86.9192 109.198C88.1809 108.627 87.8501 107.811 89.0809 106.182C88.63 106.39 88.1793 106.602 87.7279 106.819C88.161 105.812 88.6084 104.82 89.0682 103.832C89.013 103.672 88.9591 103.513 88.9044 103.353C88.6344 103.664 88.3443 103.982 88.0892 104.297ZM131.764 129.922C130.832 129.436 130.108 128.617 129.712 127.673C129.467 127.748 129.22 127.819 128.971 127.884C129.656 128.915 130.693 129.655 131.764 129.922ZM-7.88473 77.3281C-7.84623 77.4448 -7.80584 77.5597 -7.75943 77.6672C-7.85458 77.6078 -7.88806 77.4856 -7.88473 77.3281ZM121.52 177.125C122.718 177.442 124.387 177.512 125.707 177.707C125.689 177.061 122.352 176.858 121.24 176.342C121.04 176.433 121.04 176.995 121.52 177.125ZM85.1616 68.6001C85.5964 68.6027 86.0322 68.6111 86.4683 68.6203C86.9409 69.1914 87.3945 69.7596 87.8507 70.3418C88.0613 70.1891 88.2736 70.0348 88.4845 69.8825C86.0772 67.6421 87.1281 67.7318 86.5338 66.014C86.0871 66.8836 85.6326 67.7482 85.1616 68.6001ZM145.052 102.981C142.548 103.889 142.05 104.763 143.596 104.833C144.296 104.332 145.073 103.902 145.889 103.549C145.62 103.352 145.339 103.163 145.052 102.981ZM-6.04216 118.5C-4.86878 120.1 -5.75621 120.649 -4.24852 122.004C-4.62824 121.032 -4.98183 120.032 -5.28963 119.052C-5.54046 118.872 -5.7941 118.685 -6.04216 118.5ZM36.0321 48.462C35.1313 48.1394 33.6745 49.9209 31.1257 48.9422C30.5909 49.3907 30.2817 49.7996 29.8483 50.2394C29.505 49.8804 29.1157 49.5258 28.7745 49.1745C28.7729 49.1748 28.7713 49.175 28.7697 49.1753C26.5899 49.6947 28.1145 49.9445 28.1358 50.3752C28.1442 50.5486 26.4917 50.5723 27.0673 50.8535C28.0481 51.3029 31.1774 50.4518 31.2883 51.2761C30.1382 51.1365 28.0052 51.735 28.7403 52.1581C29.52 52.6163 31.4037 51.3335 32.7589 51.7068C30.7505 50.6014 34.6942 50.6186 35.1746 51.6215C37.3935 50.7601 35.3058 50.4913 32.9615 50.7413C34.3253 49.8547 32.2556 50.448 31.8331 49.8648C33.2894 49.2581 38.4826 49.3931 36.0321 48.462ZM114.296 112.021C113.757 110.469 113.143 107.942 112.063 107.227C111.454 106.819 112.258 109.194 110.992 107.897C111.701 109.255 112.03 109.499 112.403 109.048C112.604 109.354 112.794 109.651 112.986 109.967C112.955 110.16 112.925 110.355 112.89 110.544C113.156 110.642 113.417 110.737 113.683 110.842C113.779 111.223 113.866 111.596 113.947 111.977C114.063 111.987 114.176 112.032 114.296 112.021ZM37.7515 151.918C37.3539 151.757 36.9601 151.595 36.5631 151.433C36.5568 151.568 36.5569 151.71 36.5558 151.851C36.5513 151.96 36.5468 152.069 36.5424 152.178C36.4544 151.746 34.8225 150.376 33.8779 150.377C33.4014 150.377 34.0188 151.421 32.2863 150.768C33.5194 151.292 34.6939 151.707 35.9099 152.168C35.7212 152.311 35.5355 152.458 35.3461 152.601C35.3467 152.602 35.3473 152.602 35.3479 152.603C35.7266 152.818 36.1088 153.035 36.4883 153.247C36.9119 152.805 37.3306 152.362 37.7515 151.918ZM86.1526 128.446C87.2473 129.646 87.706 129.939 87.9047 128.998C87.9042 128.996 87.9037 128.995 87.9032 128.993C87.3713 128.653 86.8454 128.291 86.3255 127.904C86.2655 128.082 86.207 128.262 86.1526 128.446ZM-13.2781 89.2639C-11.0607 92.6409 -11.9419 85.4001 -12.8818 86.6182C-12.9419 86.6767 -12.9947 88.9876 -13.2781 89.2639ZM82.2717 64.5462C82.9304 65.1289 83.5519 65.7053 84.1882 66.317C84.2628 65.9581 84.331 65.5957 84.4011 65.235C83.6907 64.9892 82.9865 64.766 82.2717 64.5462ZM135.332 108.211C134.176 108.361 132.257 110.017 132.053 111.435C132.528 111.008 133.012 110.594 133.502 110.191C132.761 111.12 132.068 112.074 131.393 113.074C132.108 113.713 132.495 112.266 134.068 110.937C134.315 110.716 136.526 110.125 136.401 109.024C136.372 108.788 134.771 110.204 135.449 108.78C134.955 109.208 134.566 109.618 134.123 110.054C133.927 109.931 133.731 109.808 133.531 109.69C134.125 109.177 134.722 108.69 135.332 108.211ZM110.387 103.556C109.445 101.644 108.982 101.592 108.182 101.516C108.714 102.355 109.239 103.191 109.764 104.033C109.97 103.873 110.179 103.717 110.387 103.556ZM126.257 127.136C126.266 127.195 126.276 127.251 126.286 127.303C126.631 128.735 126.947 127.947 127.266 128.508C128.607 130.624 130.149 132.227 132.605 132.502C132.428 132.574 132.258 132.637 132.076 132.696C132.078 132.697 132.08 132.697 132.082 132.698C132.361 132.781 132.631 132.844 132.891 132.893C134.969 133.298 136.625 132.92 137.491 132.538C138.37 132.144 138.538 131.888 138.28 131.938C137.777 132.069 135.362 132.759 132.984 132.273C132.313 132.164 131.607 131.971 130.913 131.659C130.856 131.406 130.82 131.156 130.793 130.907C128.477 129.979 127.462 127.615 126.721 127.197C126.565 127.105 126.41 127.078 126.257 127.136ZM-0.00580253 63.9482C-0.164411 63.9216 -0.0642406 62.7411 -1.00685 64.0967C-1.13256 65.8181 -0.0150704 63.9873 0.675616 64.0064C0.429574 64.3683 0.1774 64.7393 -0.0534103 65.1031C2.03752 63.6801 2.18082 63.27 0.908259 63.1876C0.81699 63.1848 0.150667 63.9757 -0.00580253 63.9482ZM-10.8601 76.896C-9.49382 77.9946 -8.64644 74.8413 -9.13847 74.6605C-9.38689 75.0356 -9.30829 75.4878 -9.65135 75.8332C-9.99572 76.1859 -10.4202 76.1043 -10.8601 76.896ZM70.5574 55.0349C70.4794 54.9918 69.7657 53.9631 69.6739 54.5403C70.4024 56.1864 72.8702 56.3681 72.7085 55.7788C71.9614 55.4573 71.3785 55.426 70.558 55.0332C70.5578 55.0337 70.5576 55.0343 70.5574 55.0349ZM149.307 100.932C149.283 100.843 146.547 100.713 146.221 101.095C145.979 101.445 145.899 101.795 145.754 102.148C147.143 101.507 150.029 101.74 149.302 100.932C149.304 100.932 149.306 100.932 149.307 100.932Z" fill="white"/>
</g>
</svg>
