<svg width="73" height="85" viewBox="0 0 73 85" fill="none" xmlns="http://www.w3.org/2000/svg">
<path d="M67.8349 22.4529C67.817 22.5258 67.7591 22.5612 67.6885 22.5849C67.6371 22.6019 67.5934 22.624 67.6229 22.6884C67.7782 23.0347 67.9276 23.3842 68.0902 23.7273C68.4551 24.4981 68.8302 25.2641 69.1936 26.0349C69.2715 26.2012 69.3623 26.3569 69.5024 26.4848C69.4339 27.215 69.6322 27.9382 69.5471 28.668C69.3987 28.7905 69.455 28.947 69.464 29.0914C69.5095 29.8917 69.5608 30.6903 69.6093 31.4905C69.6311 31.8397 69.653 32.1902 69.6733 32.5395C69.6873 32.7884 69.7043 33.0357 69.6554 33.2872C69.6215 33.4646 69.6558 33.6529 69.6672 33.8357C70.0144 39.5164 70.3616 45.1971 70.7088 50.8777C70.7285 51.1925 70.7631 51.5064 70.6989 51.8251C70.6654 51.9859 70.7032 52.1574 70.7135 52.3237C71.0659 58.0869 71.4199 63.8513 71.7708 69.616C71.7864 69.8648 71.8304 70.1132 71.7544 70.3622C71.707 70.517 71.7758 70.6576 71.8547 70.7907C71.9563 71.1431 71.8804 71.5398 72.1564 71.8483C71.8417 71.9535 71.8402 71.9536 71.8446 72.1686C71.8475 72.2857 71.8577 72.4024 71.8635 72.518C71.9452 73.8515 72.0269 75.1837 72.1087 76.5172C72.117 76.6505 72.1283 76.7837 72.1307 76.9174C72.1342 77.1187 72.118 77.1473 71.9114 77.2044C71.5823 77.2953 71.2495 77.3754 70.9169 77.4583C70.0432 77.6757 69.1736 77.9108 68.2924 78.1038C67.1639 78.3509 66.0544 78.6617 64.931 78.9196C63.8239 79.1736 62.7262 79.4574 61.6231 79.7278C60.3988 80.0278 59.1688 80.3089 57.9388 80.5899C57.7952 80.6224 57.7401 80.7265 57.6471 80.8C57.0605 80.9732 56.4605 81.1018 55.8663 81.2507C55.711 81.2893 55.5505 81.3394 55.3935 81.2526C54.9003 81.3607 54.4065 81.4591 53.9154 81.5767C52.8816 81.8248 51.8512 82.0824 50.8191 82.3345C50.0148 82.5324 49.2105 82.7317 48.4044 82.9255C47.3188 83.1865 46.2312 83.4408 45.1456 83.7018C44.7078 83.8078 44.2703 83.9179 43.8364 84.0361C43.5869 84.1041 43.3365 84.1335 43.0837 84.0996C41.8876 83.9383 40.694 83.7686 39.4978 83.6059C38.1956 83.4278 36.8923 83.2552 35.59 83.0771C34.8768 82.9795 34.1633 82.8764 33.4501 82.7788C31.7906 82.5526 30.13 82.3333 28.4718 82.1043C27.2937 81.9419 26.1193 81.7668 24.9423 81.5988C24.0516 81.4722 23.1595 81.3458 22.2678 81.2262C22.1255 81.2075 21.9779 81.2236 21.8338 81.2243C21.3953 81.271 20.9705 81.1996 20.5502 81.1044C20.4162 81.0741 20.2985 81.0166 20.1915 80.9377C19.4967 80.8458 18.8006 80.7582 18.1056 80.6636C16.9473 80.5054 15.7886 80.3418 14.6303 80.185C12.9012 79.9494 11.1709 79.7207 9.4402 79.4838C8.60133 79.3692 7.76627 79.2433 6.92873 79.1258C6.76816 79.1027 6.599 79.1105 6.4491 79.0661C6.27933 79.016 6.23181 79.1445 6.13163 79.1991C5.3688 79.0038 4.58097 78.9371 3.80014 78.8382C3.6015 78.6864 3.3722 78.6206 3.11514 78.5911C2.39982 78.5075 1.68654 78.4085 0.972019 78.3137C0.918992 78.306 0.865622 78.2928 0.815157 78.278C0.696023 78.2454 0.636744 78.1856 0.670804 78.0579C0.753695 77.7505 0.824364 77.4397 0.902682 77.1312C1.05083 76.5465 1.20046 75.9616 1.35168 75.3781C1.37576 75.2828 1.35211 75.2166 1.2607 75.1713C1.48022 74.5034 1.58851 73.8094 1.84452 73.1489C1.94157 73.0683 1.9894 72.9687 2.01949 72.8496C2.2714 71.883 2.53553 70.9198 2.79051 69.9544C2.94003 69.3916 3.08348 68.8279 3.22534 68.2629C3.27835 68.0539 3.35854 67.8474 3.32229 67.6275C3.38819 66.9279 3.54994 66.2484 3.8471 65.5978C4.02139 65.3358 4.05809 65.034 4.1392 64.746C4.24365 64.3752 4.34203 64.0033 4.43584 63.6304C4.45991 63.535 4.45655 63.4331 4.46691 63.3345C4.37088 62.8064 4.61634 62.3136 4.73725 61.8216C4.89665 61.1768 5.05721 60.5265 5.26208 59.8885C5.38351 59.8616 5.42989 59.787 5.45908 59.6775C5.62375 59.0448 5.80213 58.4154 5.96838 57.784C6.12259 57.2003 6.27539 56.618 6.41597 56.0324C6.48157 55.7606 6.64812 55.6149 6.92975 55.509C8.4436 54.9411 9.95044 54.3571 11.4574 53.7745C12.1434 53.5094 12.8258 53.2336 13.5133 52.9685C13.6379 52.9207 13.7477 52.8752 13.7523 52.7328C14.537 52.4602 15.3184 52.1837 16.0579 51.8132C16.2541 51.8534 16.4323 51.8464 16.6315 51.7677C18.3516 51.0876 20.0769 50.4196 21.8023 49.7543C22.6907 49.4117 23.5861 49.0853 24.4745 48.7428C26.15 48.0958 27.8237 47.4434 29.4975 46.7924C29.5649 46.7661 29.6307 46.7372 29.6966 46.711C29.7889 46.6735 29.8417 46.6067 29.8361 46.516C29.8277 46.3826 29.8252 46.2462 29.7887 46.1187C29.6145 45.492 29.4834 44.8585 29.355 44.222C29.2505 43.7014 29.0999 43.1891 28.9759 42.671C28.9067 42.38 28.8493 42.0855 28.7845 41.7929C28.5977 40.9655 28.408 40.1396 28.2227 39.3121C28.1539 39.0031 28.0911 38.6938 28.0237 38.3847C27.8519 37.6047 27.6817 36.8259 27.5069 36.0475C27.4382 35.7399 27.3441 35.4352 27.2843 35.1271C27.1107 34.2464 26.9105 33.3715 26.6924 32.4992C26.5506 31.9353 26.4576 31.3601 26.3394 30.7892C26.2922 30.5617 26.2345 30.3349 26.1768 30.1094C26.1528 30.0129 26.0558 29.9982 25.9688 29.9761C25.7236 28.886 25.5288 27.7858 25.2258 26.7076C25.2753 26.6107 25.3765 26.5491 25.3328 26.4014C25.2138 25.9866 25.1289 25.5641 25.0394 25.1418C24.9169 24.574 24.7929 24.0063 24.6882 23.4359C24.6429 23.1904 24.5576 22.9556 24.5123 22.71C24.387 22.0264 24.2245 21.3479 24.0666 20.6691C23.9432 20.1358 23.7946 19.6083 23.6742 19.0734C23.5457 18.5074 23.4395 17.9358 23.32 17.3677C23.2793 17.1729 23.2238 16.9818 23.1801 16.7872C23.1194 16.5122 23.0305 16.2431 22.9993 15.9594C22.9793 15.7826 22.886 15.6118 22.7716 15.4616C22.5466 14.8409 22.5049 14.1728 22.2224 13.5666C22.3721 13.5366 22.4525 13.4529 22.4048 13.3151C22.3208 13.0761 22.2963 12.8278 22.2436 12.5841C22.1276 12.049 21.9923 11.5164 21.8629 10.9835C21.8345 10.8652 21.9023 10.7975 21.9976 10.7364C22.4274 10.4556 22.854 10.1695 23.2869 9.88994C24.3128 9.22556 25.3418 8.56236 26.3693 7.89926C27.5901 7.11092 28.8126 6.32386 30.0317 5.53149C31.2796 4.71938 32.5209 3.8994 33.7687 3.08591C34.4814 2.62188 35.1972 2.16041 35.9164 1.70424C36.0824 1.59865 36.2519 1.49975 36.3275 1.31562C36.833 0.803798 37.4076 0.823112 38.016 1.11771C38.0359 1.2186 38.0733 1.31287 38.1786 1.36426C38.2576 1.40348 38.3407 1.43693 38.4239 1.47038C39.6989 1.98143 40.9736 2.48835 42.2472 3.00224C43.9321 3.68365 45.6159 4.36928 47.2996 5.05491C47.9096 5.30387 48.5184 5.55704 49.1284 5.80462C50.8613 6.50926 52.6024 7.19959 54.3273 7.92128C55.0334 8.21669 55.7488 8.49495 56.4589 8.7832C58.1764 9.48052 59.8925 10.1807 61.6125 10.8696C61.9636 11.0105 62.1838 11.2203 62.3337 11.5532C62.8543 12.7006 63.4129 13.8333 63.9554 14.9724C64.2873 15.6707 64.6148 16.372 64.9452 17.0718C65.5782 18.4096 66.2127 19.7472 66.8472 21.0849C66.8681 21.1305 66.8906 21.1788 66.9273 21.2137C66.9897 21.2747 67.0572 21.2263 67.1218 21.2016C67.404 21.3454 67.3747 21.6467 67.4892 21.8687C67.5774 22.0798 67.6857 22.2746 67.8349 22.4529Z" fill="#FFA8B5"/>
</svg>
