<svg width="590" height="195" viewBox="0 0 590 195" fill="none" xmlns="http://www.w3.org/2000/svg">
<path d="M283.798 186.744L375.49 174.301V14.4958L44.0614 0.13121L0.227631 17.3565L6.54272 178.378L283.798 186.744Z" fill="#FF61B0"/>
<rect width="219.832" height="84.916" transform="translate(77.6096 50.6641)" fill="white"/>
<path d="M128.015 92.9215H143.262V95.8766H128.015V92.9215ZM127.575 98.2658H143.797V101.347H127.575V98.2658ZM136.975 93.8332H140.307V107.854H136.975V93.8332ZM130.845 93.9904H134.083V99.9948C134.083 100.519 134.02 101.137 133.894 101.85C133.768 102.562 133.548 103.327 133.234 104.145C132.941 104.941 132.521 105.706 131.976 106.439C131.432 107.194 130.75 107.854 129.933 108.42C129.661 108.085 129.283 107.697 128.801 107.257C128.319 106.838 127.89 106.502 127.512 106.251C128.393 105.706 129.074 105.046 129.556 104.27C130.059 103.495 130.394 102.719 130.562 101.944C130.75 101.168 130.845 100.519 130.845 99.9948V93.9904ZM124.306 84.4021H132.197V86.8542H124.306V84.4021ZM138.893 84.4021H146.815V86.8542H138.893V84.4021ZM145.337 80.1267H149.047V104.05C149.047 105.014 148.942 105.769 148.732 106.314C148.544 106.88 148.156 107.32 147.569 107.634C147.003 107.948 146.301 108.148 145.463 108.231C144.625 108.315 143.598 108.347 142.382 108.326C142.34 107.99 142.256 107.592 142.131 107.131C142.026 106.691 141.9 106.24 141.753 105.779C141.607 105.318 141.439 104.93 141.25 104.616C141.963 104.637 142.655 104.658 143.325 104.679C143.996 104.679 144.457 104.668 144.708 104.648C144.939 104.648 145.096 104.595 145.18 104.49C145.285 104.386 145.337 104.228 145.337 104.019V80.1267ZM124.652 80.1267H134.586V91.2868H124.652V88.5832H131.065V82.7988H124.652V80.1267ZM147.286 80.1267V82.7988H140.213V88.6775H147.286V91.3811H136.629V80.1267H147.286ZM122.42 80.1267H126.098V108.451H122.42V80.1267ZM171.776 103.799H181.804V107.225H171.776V103.799ZM169.889 95.2479H183.816V108.326H180.075V98.6745H173.442V108.451H169.889V95.2479ZM167.846 89.3063C169.104 89.2434 170.539 89.17 172.153 89.0862C173.788 89.0024 175.496 88.9081 177.277 88.8033C179.08 88.6985 180.861 88.5832 182.621 88.4575L182.59 91.8527C180.913 91.9784 179.216 92.1146 177.497 92.2613C175.8 92.3871 174.154 92.5024 172.562 92.6071C170.99 92.7119 169.544 92.8167 168.223 92.9215L167.846 89.3063ZM177.749 85.3452L180.767 83.8362C181.416 84.6955 182.056 85.6386 182.684 86.6656C183.334 87.6925 183.91 88.6985 184.413 89.6835C184.937 90.6685 185.325 91.5697 185.577 92.3871L182.307 94.1161C182.098 93.3197 181.752 92.4185 181.27 91.4125C180.788 90.3856 180.243 89.3482 179.635 88.3003C179.048 87.2314 178.419 86.2464 177.749 85.3452ZM173.316 78.8692L177.529 79.6551C177.089 80.9964 176.617 82.3692 176.114 83.7734C175.611 85.1775 175.098 86.5293 174.574 87.8287C174.071 89.1072 173.578 90.2389 173.096 91.2239L169.952 90.438C170.267 89.6416 170.581 88.7718 170.895 87.8287C171.231 86.8647 171.545 85.8692 171.839 84.8422C172.153 83.7943 172.436 82.7674 172.687 81.7614C172.939 80.7344 173.148 79.7704 173.316 78.8692ZM155.743 85.188H165.897V88.6775H155.743V85.188ZM159.987 78.8692L163.508 79.2779C163.172 80.9335 162.806 82.6835 162.407 84.5278C162.03 86.3721 161.622 88.2164 161.181 90.0608C160.762 91.9051 160.343 93.6865 159.924 95.405C159.505 97.1026 159.096 98.6535 158.698 100.058L155.649 98.423C156.005 97.1865 156.372 95.7718 156.749 94.179C157.147 92.5862 157.535 90.9096 157.912 89.1491C158.31 87.3676 158.687 85.6072 159.044 83.8677C159.4 82.1072 159.714 80.441 159.987 78.8692ZM157.503 97.92L159.578 95.2793C160.668 95.9709 161.81 96.7464 163.005 97.6056C164.199 98.4649 165.321 99.3347 166.369 100.215C167.416 101.095 168.234 101.933 168.821 102.73L166.557 105.779C165.97 104.983 165.174 104.113 164.168 103.17C163.183 102.227 162.104 101.294 160.93 100.372C159.756 99.4499 158.614 98.6326 157.503 97.92ZM164.545 85.188H165.174L165.803 85.0937L168.066 85.4709C167.836 89.5578 167.322 93.0892 166.526 96.0652C165.75 99.0413 164.671 101.546 163.288 103.579C161.904 105.612 160.165 107.278 158.069 108.577C157.797 108.116 157.44 107.582 157 106.974C156.581 106.387 156.172 105.915 155.774 105.559C157.556 104.616 159.065 103.233 160.301 101.41C161.538 99.5862 162.502 97.3751 163.193 94.7763C163.885 92.1566 164.336 89.191 164.545 85.8796V85.188ZM196.957 91.161V102.761H193.436V94.6506H190.229V91.161H196.957ZM196.957 101.284C197.585 102.353 198.466 103.139 199.597 103.642C200.75 104.145 202.133 104.427 203.747 104.49C204.732 104.532 205.906 104.564 207.268 104.585C208.651 104.585 210.097 104.574 211.606 104.553C213.136 104.532 214.614 104.501 216.039 104.459C217.485 104.396 218.774 104.312 219.906 104.207C219.78 104.501 219.633 104.857 219.466 105.276C219.298 105.674 219.151 106.094 219.026 106.534C218.921 106.995 218.826 107.404 218.743 107.76C217.737 107.802 216.584 107.833 215.285 107.854C213.985 107.896 212.633 107.917 211.229 107.917C209.846 107.938 208.505 107.938 207.205 107.917C205.906 107.896 204.764 107.865 203.779 107.823C201.85 107.739 200.216 107.435 198.874 106.911C197.533 106.387 196.391 105.507 195.448 104.27C194.861 104.899 194.253 105.528 193.624 106.156C192.996 106.785 192.315 107.445 191.581 108.137L189.789 104.553C190.418 104.092 191.078 103.579 191.77 103.013C192.482 102.447 193.163 101.871 193.813 101.284H196.957ZM190.009 81.4785L192.996 79.5922C193.541 80.1162 194.096 80.6925 194.662 81.3213C195.228 81.929 195.741 82.5368 196.202 83.1446C196.684 83.7524 197.051 84.3183 197.303 84.8422L194.096 86.9485C193.865 86.4455 193.53 85.8692 193.09 85.2195C192.65 84.5698 192.157 83.9201 191.612 83.2704C191.088 82.6207 190.554 82.0234 190.009 81.4785ZM197.837 83.0189H208.463V86.0997H197.837V83.0189ZM202.144 88.3946H206.419V91.4754H202.144V88.3946ZM201.578 78.9006H205.036V84.685H201.578V78.9006ZM205.13 88.3946H208.305C208.305 88.3946 208.295 88.5623 208.274 88.8976C208.274 89.2329 208.274 89.5054 208.274 89.7149C208.232 91.8107 208.19 93.6131 208.148 95.1221C208.106 96.6101 208.044 97.8467 207.96 98.8317C207.876 99.7957 207.771 100.561 207.645 101.127C207.541 101.671 207.394 102.07 207.205 102.321C206.954 102.677 206.681 102.939 206.388 103.107C206.115 103.275 205.78 103.39 205.382 103.453C205.047 103.537 204.638 103.589 204.156 103.61C203.674 103.61 203.16 103.6 202.615 103.579C202.594 103.139 202.511 102.625 202.364 102.038C202.238 101.451 202.06 100.959 201.829 100.561C202.228 100.603 202.584 100.634 202.898 100.655C203.213 100.655 203.464 100.655 203.653 100.655C203.82 100.655 203.967 100.634 204.093 100.592C204.219 100.529 204.334 100.414 204.439 100.246C204.564 100.037 204.669 99.5547 204.753 98.8002C204.837 98.0458 204.91 96.8826 204.973 95.3107C205.036 93.7389 205.088 91.6326 205.13 88.9919V88.3946ZM210.066 82.0443H219.151V85.1251H210.066V82.0443ZM208.966 93.2988H219.34V96.2538H208.966V93.2988ZM209.783 87.0428H216.762V89.8093H209.783V87.0428ZM210.726 78.7434L213.87 79.4665C213.493 81.0802 212.958 82.6521 212.267 84.182C211.575 85.712 210.81 87.0009 209.972 88.0488C209.804 87.8602 209.563 87.6401 209.249 87.3886C208.934 87.1162 208.609 86.8542 208.274 86.6027C207.96 86.3512 207.677 86.1521 207.425 86.0054C208.201 85.1042 208.871 84.0144 209.437 82.7359C210.003 81.4365 210.433 80.1057 210.726 78.7434ZM212.455 91.3811H215.662V100.058C215.662 100.77 215.578 101.368 215.41 101.85C215.264 102.311 214.928 102.667 214.404 102.918C213.922 103.17 213.346 103.327 212.675 103.39C212.026 103.432 211.25 103.453 210.349 103.453C210.307 103.013 210.181 102.499 209.972 101.913C209.762 101.326 209.542 100.812 209.311 100.372C209.898 100.393 210.443 100.404 210.946 100.404C211.47 100.404 211.816 100.393 211.984 100.372C212.298 100.372 212.455 100.246 212.455 99.9948V91.3811ZM215.819 87.0428H216.542L217.202 86.8542L219.151 88.3317C218.564 89.2748 217.873 90.2599 217.076 91.2868C216.301 92.2928 215.546 93.1521 214.813 93.8646C214.603 93.5503 214.31 93.2149 213.933 92.8586C213.576 92.4814 213.273 92.188 213.021 91.9784C213.566 91.3706 214.1 90.6476 214.624 89.8093C215.148 88.9709 215.546 88.2374 215.819 87.6087V87.0428ZM200.289 84.4335H203.338V89.9664C203.338 90.9724 203.297 92.0622 203.213 93.2359C203.129 94.4095 202.951 95.5937 202.678 96.7883C202.427 97.9829 202.05 99.1356 201.547 100.246C201.044 101.357 200.373 102.374 199.535 103.296C199.304 102.96 198.958 102.573 198.497 102.133C198.057 101.671 197.669 101.326 197.334 101.095C198.214 100.047 198.864 98.8736 199.283 97.5742C199.702 96.2538 199.975 94.923 200.1 93.5817C200.226 92.2404 200.289 91.0248 200.289 89.935V84.4335ZM227.482 84.0563H240.78V86.4769H227.482V84.0563ZM233.612 80.5039H242.069V82.8931H233.612V80.5039ZM229.337 93.6131H242.446V95.8452H229.337V93.6131ZM231.915 78.9006H235.404V84.968H231.915V78.9006ZM226.067 84.0563H229.148V92.6386C229.148 93.7494 229.117 94.9754 229.054 96.3167C228.991 97.658 228.865 99.0413 228.677 100.466C228.509 101.871 228.268 103.233 227.954 104.553C227.639 105.874 227.22 107.068 226.696 108.137C226.528 107.948 226.287 107.718 225.973 107.445C225.659 107.173 225.334 106.911 224.999 106.659C224.663 106.408 224.38 106.23 224.15 106.125C224.737 104.826 225.156 103.39 225.407 101.818C225.68 100.225 225.858 98.6326 225.942 97.0398C226.025 95.426 226.067 93.9589 226.067 92.6386V84.0563ZM229.494 88.3003L239.145 87.4515L239.365 89.3691L229.746 90.2494L229.494 88.3003ZM239.868 84.0563H240.308L240.811 83.962L243.012 84.3392C242.844 85.1985 242.645 86.0892 242.415 87.0114C242.205 87.9335 241.985 88.709 241.754 89.3377L239.082 88.8976C239.229 88.3108 239.376 87.6087 239.522 86.7913C239.669 85.953 239.784 85.1671 239.868 84.4335V84.0563ZM232.103 86.1311H234.744V90.1865C234.744 90.5009 234.796 90.7105 234.901 90.8152C235.027 90.8991 235.289 90.941 235.687 90.941C235.771 90.941 235.928 90.941 236.159 90.941C236.389 90.941 236.651 90.941 236.945 90.941C237.238 90.941 237.51 90.941 237.762 90.941C238.013 90.941 238.192 90.941 238.296 90.941C238.611 90.941 238.82 90.8781 238.925 90.7524C239.03 90.6057 239.103 90.3227 239.145 89.9036C239.397 90.0712 239.732 90.2284 240.151 90.3751C240.57 90.5009 240.948 90.5847 241.283 90.6266C241.178 91.4649 240.927 92.0413 240.528 92.3557C240.13 92.67 239.512 92.8272 238.674 92.8272C238.527 92.8272 238.296 92.8272 237.982 92.8272C237.689 92.8272 237.353 92.8272 236.976 92.8272C236.62 92.8272 236.284 92.8272 235.97 92.8272C235.656 92.8272 235.436 92.8272 235.31 92.8272C234.451 92.8272 233.78 92.7539 233.298 92.6071C232.837 92.4395 232.522 92.167 232.355 91.7898C232.187 91.3916 232.103 90.8467 232.103 90.1551V86.1311ZM228.74 105.339C229.892 105.234 231.202 105.109 232.669 104.962C234.136 104.815 235.687 104.658 237.322 104.49C238.978 104.323 240.623 104.145 242.257 103.956L242.352 106.534C240.78 106.722 239.208 106.911 237.636 107.1C236.064 107.288 234.555 107.466 233.109 107.634C231.663 107.802 230.343 107.948 229.148 108.074L228.74 105.339ZM231.255 102.007L233.801 101.535C234.031 101.975 234.231 102.468 234.398 103.013C234.587 103.558 234.713 104.04 234.775 104.459L232.103 104.993C232.061 104.595 231.957 104.113 231.789 103.547C231.642 102.981 231.464 102.468 231.255 102.007ZM237.196 101.472L240.245 101.881C239.994 102.489 239.753 103.055 239.522 103.579C239.313 104.082 239.124 104.532 238.957 104.93L236.347 104.49C236.494 104.05 236.651 103.547 236.819 102.981C236.987 102.395 237.112 101.892 237.196 101.472ZM233.078 98.4544V99.8691H238.422V98.4544H233.078ZM230.28 96.7254H241.377V101.598H230.28V96.7254ZM241.409 87.9545L253.543 86.3512L253.983 89.6521L241.849 91.2868L241.409 87.9545ZM248.199 80.724L250.934 79.3407C251.332 79.8647 251.72 80.4305 252.097 81.0383C252.495 81.6252 252.852 82.212 253.166 82.7988C253.48 83.3856 253.721 83.9201 253.889 84.4021L250.997 85.9739C250.871 85.4919 250.651 84.9575 250.337 84.3707C250.043 83.7629 249.708 83.1446 249.331 82.5159C248.974 81.8662 248.597 81.2689 248.199 80.724ZM250.903 90.941L253.701 92.45C253.072 94.5458 252.223 96.6101 251.154 98.6431C250.085 100.655 248.849 102.499 247.445 104.176C246.061 105.832 244.542 107.183 242.886 108.231C242.572 107.812 242.163 107.362 241.66 106.88C241.178 106.418 240.696 106.031 240.214 105.716C241.492 105.025 242.677 104.155 243.766 103.107C244.877 102.059 245.883 100.886 246.784 99.5862C247.707 98.2658 248.513 96.8721 249.205 95.405C249.897 93.938 250.463 92.45 250.903 90.941ZM244.018 79.0578H247.476C247.497 81.7195 247.56 84.2763 247.665 86.7284C247.79 89.1805 247.958 91.444 248.168 93.5188C248.398 95.5937 248.66 97.4065 248.954 98.9574C249.247 100.487 249.572 101.692 249.928 102.573C250.284 103.432 250.672 103.883 251.091 103.924C251.343 103.924 251.542 103.568 251.689 102.856C251.856 102.143 251.982 101.116 252.066 99.7748C252.254 100.026 252.506 100.299 252.82 100.592C253.156 100.886 253.491 101.148 253.826 101.378C254.183 101.588 254.455 101.755 254.644 101.881C254.392 103.642 254.057 104.983 253.638 105.905C253.239 106.848 252.81 107.477 252.349 107.791C251.909 108.127 251.479 108.294 251.06 108.294C249.991 108.252 249.069 107.77 248.293 106.848C247.539 105.926 246.9 104.616 246.376 102.918C245.873 101.2 245.454 99.146 245.118 96.7568C244.804 94.3676 244.552 91.685 244.364 88.709C244.196 85.712 244.081 82.4949 244.018 79.0578Z" fill="#64503C"/>
<path d="M532.539 7.67388C521.885 5.73678 509.414 5.97892 504.572 5.97892C494.16 5.85786 484.959 8.03709 474.91 11.0638C463.893 14.3327 443.916 24.0182 434.836 36.8515C425.756 49.6848 420.671 64.092 418.492 73.0511C417.16 78.4992 416.918 83.9473 416.191 89.5165C415.223 98.1124 413.891 116.394 418.128 129.348C422.366 142.303 430.841 152.351 435.32 155.499C443.674 161.189 451.422 166.516 460.503 170.754C464.74 172.691 468.977 174.87 473.336 176.444C478.542 178.26 483.99 179.229 489.317 180.439C504.572 183.95 545.614 175.597 552.878 172.086C560.142 168.575 572.249 155.62 574.913 150.535C578.666 143.271 587.383 108.403 587.504 104.408C587.625 98.2335 585.93 72.809 583.751 66.5134C578.061 50.1691 565.712 32.2509 561.353 26.9239C557.116 21.4758 543.314 9.61099 532.539 7.67388Z" fill="#FF61B0"/>
<path d="M459.252 102.818L543.458 102.818L510.632 70.0713" stroke="white" stroke-width="6.08506" stroke-linecap="square"/>
</svg>
