<svg width="196" height="180" viewBox="0 0 196 180" fill="none" xmlns="http://www.w3.org/2000/svg">
<path d="M61.4752 32.1144C50.6794 43.3862 46.6746 49.0473 44.9958 66.4939C42.953 67.1788 41.9518 67.8437 40.9354 68.3473C39.9191 68.8509 38.9179 69.1833 37.9016 69.5208L37.9014 69.5208C32.4757 71.2081 25.0431 73.7172 19.0202 75.5647C14.6361 76.9094 9.61775 76.6414 4.6949 78.7578C3.51166 79.2665 2.45308 80.1764 3.38524 80.2638C6.9299 80.5962 12.3771 80.714 18.8988 81.7747C26.1449 82.9533 34.9263 80.634 38.0885 84.9729C38.5841 85.6529 37.9066 86.5954 37.9115 87.6625C37.9368 93.0667 44.9062 101.274 45.8403 106.973C46.6948 112.185 47.4778 118.344 51.2457 122.752C55.1292 127.295 58.916 134.818 64.226 139.876C68.2763 143.734 75.2851 152.46 83.618 158.179C92.9524 164.586 105.462 174.933 123.004 174.78C142.537 174.608 156.855 174.142 160.645 172.251C163.259 170.947 164.792 169.198 166.404 167.36L166.536 167.21C170.075 163.175 174.502 158.922 177.827 142.324C179.167 135.636 180.864 123.401 185.928 109.239C188.613 101.73 191.577 91.9832 189.098 78.6622C185.892 61.4372 180.162 42.8515 169.838 33.026C154.177 18.1229 144.637 14.4354 137.845 11.9229C131.949 9.74208 127.046 5.29325 119.636 4.20188C111.702 3.0334 103.314 4.32547 96.3605 7.75265C82.6774 14.4966 69.3122 23.9318 61.4752 32.1144Z" fill="white"/>
<path d="M5.6966 77.7014C4.45008 77.3349 8.66992 77.7378 5.88859 77.1477C6.47333 77.1442 7.06917 77.1382 7.66533 77.134C7.80465 77.3117 7.94844 77.4899 8.08682 77.6688C7.28604 77.6796 6.48581 77.6928 5.69654 77.7022C5.69656 77.7019 5.69658 77.7017 5.6966 77.7014ZM4.47363 79.7412C5.23031 79.32 7.53221 79.3192 5.08663 78.7292C4.88161 78.8819 4.66578 79.0328 4.45858 79.183C4.14009 79.1121 3.8193 79.0397 3.50703 78.9651L3.50703 78.9651C3.5105 78.9579 3.5276 78.942 3.64611 78.9731C3.70524 78.9912 3.79276 79.0191 3.92636 79.1157C4.05317 79.2052 4.23439 79.4015 4.32244 79.6506C4.49314 80.1871 4.32631 80.4423 4.30259 80.534C4.25934 80.6347 4.2479 80.6531 4.252 80.6641C4.2801 80.6811 4.46404 80.5719 4.63738 80.5062C4.78769 80.332 4.97695 80.1569 5.17341 80.0006C5.19524 80.0076 5.21692 80.0148 5.23841 80.0221L5.23841 80.0221C5.66204 80.123 6.07155 80.2393 6.4755 80.3648C6.1664 80.4401 5.856 80.5235 5.55122 80.6145C5.5362 80.6247 5.52121 80.6349 5.50624 80.6451L5.50624 80.6451C5.27876 80.8236 5.0382 81.0297 4.90802 81.1868C4.85765 81.2401 4.78597 81.3933 5.01328 81.1287C5.07424 81.0385 5.17724 80.9214 5.28392 80.5479C5.40858 80.2277 5.37988 79.2438 4.87637 78.6774C4.41164 78.1314 4.06502 78.0608 3.90616 77.9934C3.72969 77.9363 3.6565 77.9285 3.60519 77.9184L3.60519 77.9184C4.13238 77.9309 4.71913 77.9488 5.39824 77.9701C5.23853 77.8933 5.08159 77.8172 4.92378 77.7404C5.85154 77.9083 6.8037 78.0703 7.75465 78.2381C6.91231 78.3092 5.98001 78.389 5.21397 78.4495C6.3933 78.971 8.59473 78.8372 9.74184 78.8142C11.3071 78.7841 10.9365 78.9819 12.1012 78.9777C12.2891 78.9782 12.3228 78.8046 12.6905 78.8319C14.5399 78.9523 18.1142 79.4917 15.9655 79.6545C12.9433 79.2508 10.3295 79.3997 7.39857 79.112C8.14515 79.6139 6.58106 79.6891 4.47363 79.7412ZM47.3917 102.814C46.7421 101.984 45.9841 100.193 45.5411 98.9717C45.5404 98.9704 45.5396 98.9691 45.5389 98.9678C45.4436 98.6986 45.468 97.9555 45.8985 98.7787C46.5999 100.133 46.3922 101.074 47.1164 101.655C47.2067 102.028 47.3046 102.412 47.3917 102.814ZM48.5563 106.404C48.5586 106.447 48.5597 106.488 48.5599 106.527L48.5599 106.527C48.5384 107.106 48.2728 107.079 48.1044 106.601L48.1044 106.601C48.0347 106.383 47.9668 106.077 47.9147 105.73C47.9144 105.73 47.914 105.73 47.9136 105.73C47.8153 105.192 48.4879 106.093 47.5485 104.338C47.6906 103.874 47.7985 103.427 47.9067 102.963C48.0895 103.4 48.2516 103.807 48.4188 104.295C47.8562 104.114 48.4958 105.216 48.5563 106.404ZM17.5314 79.6382C17.7235 79.3168 17.1252 79.2347 16.1264 78.8819C17.0969 79.0033 18.0635 79.1399 19.0274 79.2917C18.5261 79.4047 18.029 79.52 17.5314 79.6382ZM10.5764 78.8315C10.5778 78.8313 10.5792 78.831 10.5805 78.8308C10.8672 78.7272 11.1577 78.6263 11.4462 78.5292C11.6428 78.6022 11.8356 78.6756 12.0321 78.7491C13.08 78.4715 14.1669 78.2131 15.2633 77.9285C15.1741 78.2677 13.1773 78.5289 12.1683 78.9256C10.5955 79.0938 9.85167 79.0753 9.69295 78.8235C9.98593 78.8232 10.2788 78.8269 10.5764 78.8315ZM180.008 127.213C179.921 126.818 179.836 126.419 179.753 126.02C179.566 126.486 179.401 126.947 179.205 127.416C179.652 128.844 178.982 128.825 178.681 130.504C177.797 135.65 179.214 134.509 176.696 138.816C177.456 135.118 176.407 136.413 176.227 134.046C176.772 133.672 177.39 136.08 177.886 134.622C177.89 131.94 177.939 129.35 178.279 126.396C178.182 126.463 178.084 126.529 177.987 126.595C177.935 127.058 177.882 127.534 177.834 127.995C177.729 127.463 177.629 126.922 177.529 126.378C177.862 127.12 177.963 125.439 178.462 125.782C178.683 125.934 178.859 126.727 179 127.193C179.367 126.144 179.74 125.059 180.126 124.002C180.182 124.616 180.244 125.22 180.309 125.826C180.21 126.282 180.108 126.749 180.012 127.205C180.011 127.208 180.01 127.211 180.008 127.213ZM55.501 41.3007C56.1161 40.0669 57.7301 38.1444 58.8745 37.4107C57.7039 38.6839 56.5694 39.9733 55.501 41.3007ZM9.5474 78.6211C9.70667 78.6402 9.86113 78.6605 10.0196 78.6813C9.38113 78.9117 8.75475 79.1596 8.1545 79.4303C7.99498 79.3155 7.83048 79.2026 7.66383 79.0918C8.27908 78.9129 8.91068 78.7579 9.5474 78.6211ZM39.9284 86.9809C39.9835 86.7353 40.0275 86.5555 40.0736 86.3282C40.1016 86.0826 40.2375 85.8507 40.1121 84.9653C40.1124 84.9673 40.1126 84.9694 40.1129 84.9714C40.0852 84.8245 39.9898 84.3375 39.6394 83.8427L39.6394 83.8427C39.1575 83.0188 37.8323 81.9491 38.0975 82.0129C38.7343 82.4471 39.3516 83.0236 39.844 83.6935L39.844 83.6935C40.3706 84.3731 40.4936 85.3389 40.4387 85.8547C40.3946 86.4012 40.2954 86.7239 40.2365 86.9779C40.1323 86.9853 40.0351 86.9676 39.9284 86.9809ZM28.1476 80.2981C28.1461 80.2978 28.1447 80.2975 28.1432 80.2972C27.7571 80.2782 27.3908 80.2386 26.9981 80.2358C28.4223 79.9958 28.6513 80.3904 29.9815 80.2966C31.3161 80.2128 32.2265 80.0352 33.3393 80.7588C32.8863 80.7784 32.4038 80.8478 31.9545 80.9095C30.0499 80.5532 29.5431 80.7915 28.0602 81.0032C28.0895 80.7677 28.118 80.5338 28.1476 80.2981ZM173.596 149.304C173.91 149.741 173.404 149.987 173.387 150.023C173.387 150.023 173.387 150.022 173.387 150.021C172.87 152.973 173.299 149.6 172.364 152.22C172.401 151.789 172.42 151.379 172.445 150.954C172.832 150.414 173.246 149.841 173.596 149.304ZM92.1073 161.294C92.1475 161.185 92.1832 161.074 92.2234 160.965C93.6389 161.949 94.2461 161.814 95.2208 162.918C94.1797 162.398 93.143 161.855 92.1066 161.295C92.1068 161.295 92.1071 161.294 92.1073 161.294ZM41.4803 94.2649C40.4722 92.6593 39.7895 91.3859 39.5548 89.682C39.5548 89.6806 39.5548 89.6793 39.5548 89.678C39.5423 89.5811 39.8481 89.9813 39.8552 89.8465C39.728 89.5243 39.5993 89.1971 39.5016 88.8778C39.6325 88.8055 39.7646 88.7377 39.8961 88.6707C40.0244 89.5529 40.3117 90.4965 40.6732 91.4557C40.6918 91.2828 40.7111 91.1098 40.7353 90.9433C41.0918 91.7138 41.5041 92.4859 41.9454 93.2617C41.5922 93.0942 41.2377 92.9152 40.8902 92.7412C41.0737 93.2453 41.2751 93.7561 41.4803 94.2649ZM117.508 173.347C117.227 173.184 117.8 173.037 117.356 172.872C116.918 172.711 116.036 172.82 116.289 172.492C116.912 172.537 117.553 172.563 118.186 172.577C116.267 171.732 114.218 171.908 114.347 171.116C116.17 171.691 117.755 171.806 119.593 171.716C119.479 172.36 117.553 172.733 118.676 173.444C118.295 173.417 117.884 173.386 117.512 173.346C117.511 173.347 117.509 173.347 117.508 173.347ZM35.8529 67.5767C36.1883 67.4865 36.6565 67.3464 37.1773 67.1922L37.133 67.2065C38.111 66.9005 39.1336 66.5603 39.8965 66.2509L39.8965 66.2509C40.1285 66.159 40.3759 66.0549 40.6115 65.9646C40.9483 65.8284 42.414 65.6672 42.43 65.7391C42.4726 65.9445 41.0205 66.6569 42.6579 66.0531C42.1225 66.2881 41.6148 66.5526 41.1318 66.8078C41.2871 66.8907 41.4429 66.9725 41.5945 67.0563C42.1824 66.7253 42.8068 66.4054 43.4422 66.13C43.4921 66.1605 43.5402 66.1919 43.5892 66.2228C41.3209 67.2045 42.7299 66.7904 41.6868 67.5001C42.7383 67.0335 43.847 66.6422 44.9531 66.3664C44.3252 66.5627 43.5998 66.8388 43.0665 67.0702C43.094 67.3117 44.333 66.7282 44.5747 66.7031C45.4605 66.5534 42.8531 67.4838 41.0809 68.641L41.0809 68.641C40.2003 69.1291 39.4366 69.4616 39.3086 69.6377C39.9338 69.4358 40.5804 69.1987 41.2124 68.9063C41.6393 68.7086 42.0383 68.4998 42.4291 68.3096C42.1765 68.4941 41.9201 68.6876 41.6532 68.881C41.5304 68.9323 41.405 68.9842 41.2765 69.0357L41.2765 69.0357C40.2509 69.4498 39.1635 69.7536 38.0778 70.0519L38.0676 70.0552C36.6426 70.4204 35.1623 70.8298 33.6464 71.2292C33.4009 71.3211 33.1521 71.4145 32.91 71.5051C33.0207 71.5979 33.1269 71.6914 33.2381 71.7835C32.8664 71.9219 32.4889 72.0624 32.1167 72.2017C33.1019 71.4463 31.5663 71.9631 29.6264 72.3297C30.5711 71.8674 31.821 71.554 31.6533 71.3273C28.317 72.6267 24.2432 73.6324 21.0009 74.9103C20.3203 75.1792 20.2986 75.4838 19.128 75.9162L19.128 75.9162C18.9108 75.9959 18.6532 76.0763 18.3444 76.1527C18.4013 76.093 18.3929 76.015 18.4217 75.9488C15.0242 77.0103 12.8646 77.1635 9.29625 77.6965C9.53109 77.8006 9.76066 77.9076 9.99136 78.0147C10.722 77.794 11.4664 77.5938 12.213 77.404C12.77 77.5644 12.0075 77.7889 14.2976 77.4361C16.1848 77.1323 15.0451 77.2075 15.5473 77.0537C16.226 76.8401 16.8738 76.9094 17.6026 76.6331C18.1613 76.4098 17.4989 76.4057 18.9978 76.0336C18.4725 76.4496 17.9083 76.8567 17.338 77.2422C16.9509 77.27 16.5699 77.2878 16.1878 77.3006C16.552 77.1641 16.9088 77.0254 17.27 76.878C15.9742 77.283 14.7384 77.5858 13.4157 77.9207C13.7988 77.4859 12.43 77.832 11.6984 77.9999C10.559 78.265 11.5017 77.8377 10.7555 78.0133C10.0109 78.1964 9.26479 78.6313 7.95993 78.9233C8.61152 78.567 7.624 78.6746 7.76452 78.4711C7.90345 78.2598 9.31953 77.8741 7.91236 78.0487C5.36527 78.9329 8.31249 78.676 6.65226 79.3104C6.00242 79.5776 5.49692 79.6984 5.10678 79.7159L5.10678 79.7159C4.41943 79.7281 4.054 79.3837 4.37476 79.0397C4.44595 78.9669 4.56245 78.8816 4.71105 78.7954L4.71105 78.7954C5.35386 78.4116 6.55456 77.9997 6.93124 77.7536C5.7607 77.9878 5.04981 78.2902 4.60474 78.5481L4.60474 78.5481C3.82021 79.0283 3.87515 79.3716 3.65475 79.62C3.53147 79.7713 3.44264 79.8972 3.39471 79.9842C3.33482 80.0744 3.38848 80.1039 3.34283 79.974C3.27103 79.8781 3.27297 79.9437 3.30273 79.969C3.32949 80.0021 3.3654 80.0392 3.40272 80.0774L3.40272 80.0774C3.64513 80.3014 3.71899 80.6337 5.14623 80.4829C5.08536 80.7018 5.03464 80.8988 4.97446 81.1082C5.38735 81.0992 5.66312 81.065 6.15843 81.0678C4.73415 80.5291 5.92366 80.6337 6.53362 80.6735C7.49705 80.7371 6.02502 80.4237 6.28243 80.3861C6.9813 80.2845 8.06299 80.4222 7.4085 80.1851C7.70251 80.2946 8.02167 80.4067 8.32152 80.5176C9.44908 80.4824 12.1844 79.723 9.64032 79.7325C9.90095 79.394 10.7093 79.6208 11.3437 79.7266C11.9788 79.8325 11.9884 79.6033 12.5463 79.6939C14.7685 80.0708 13.2608 80.33 12.8798 80.6022C15.8396 80.7003 12.9753 80.2133 17.2355 80.599C17.6845 80.3962 15.7519 79.8666 17.4139 79.9328C17.565 80.2423 18.0922 80.5486 19.0454 80.8734L19.0454 80.8734C19.5584 81.054 20.2233 81.2171 21.0476 81.3363C21.2771 81.2482 21.505 81.1562 21.7326 81.0627C22.9528 81.5414 22.3092 81.9902 24.6606 81.4806C23.3893 82.453 24.2587 81.8437 26.3757 82.2396C26.8054 82.3205 25.8134 82.5288 26.4137 82.6328C26.6848 82.6803 27.3472 82.5214 28.007 82.6453C28.3358 82.7052 29.8267 83.1054 30.8567 82.9842C30.1133 82.4504 32.1413 82.1343 30.4355 81.6414C33.6493 81.8687 35.8923 82.2364 32.2425 82.305C33.025 82.5396 33.791 82.8187 34.4915 83.1729C35.0408 83.2031 35.5932 83.2773 36.1445 83.4277C36.084 83.6322 36.0267 83.7484 36.2028 83.9328C36.3662 84.1273 36.8118 84.3422 37.4795 85.0645C36.8604 84.4679 36.0908 84.0857 35.2627 83.8531C35.2042 83.9195 35.0632 83.9574 35.0602 84.0437C35.6558 84.1615 36.7594 84.6834 37.3779 85.4908L37.3779 85.4908C37.3914 85.4979 37.4061 85.4819 37.4191 85.5689C37.4303 85.65 37.4182 85.7911 37.3956 85.934C37.3483 86.2245 37.2851 86.5251 37.2691 86.711C37.2324 87.1725 37.3084 86.9603 37.4051 86.6923C37.5053 86.4237 37.6224 86.1289 37.6466 86.2503C37.7604 86.9078 37.8148 87.3569 37.8693 87.6627L37.8693 87.6627C37.9943 88.3224 37.7275 88.5881 38.0326 89.5103C38.2979 90.2819 37.9979 88.369 38.1297 88.7889C38.5563 90.3072 38.3846 91.1574 38.9231 92.4968C38.9819 91.9192 39.0605 91.3449 39.1683 90.8049C39.6338 92.1739 40.3545 93.6593 41.0701 94.8387C41.3519 95.3018 41.3506 94.8421 41.404 94.9139C41.6666 95.2676 42.6228 96.782 42.7173 96.9486C43.4082 98.2042 43.171 98.3806 43.8197 99.6255C43.5373 99.1497 43.2708 98.7068 42.9924 98.2476C42.4514 98.2631 41.9102 98.2757 41.3714 98.2915C41.9892 99.5099 42.6065 100.724 43.1702 101.949C42.8811 100.992 42.5553 100.031 42.2231 99.0745C43.3068 100.266 44.3896 101.458 45.4126 102.764C45.5312 103.628 45.6141 104.496 45.6249 105.356C45.9032 106.171 46.1464 106.606 46.3409 106.89L46.3409 106.89C46.643 107.325 46.8259 107.38 46.3931 108.102C46.5716 108.733 46.7512 109.364 46.9358 109.99C46.7946 109.921 46.6533 109.851 46.5123 109.781C46.721 110.542 46.9372 111.299 47.1708 112.047C47.4527 111.154 47.7779 110.287 48.0693 109.42C48.4322 110.901 48.0692 110.989 48.0164 111.232C47.8787 111.871 48.4667 112.953 48.3513 113.46C48.3055 113.639 47.7277 112.251 47.5541 112.811C47.5143 112.909 46.9125 115.148 47.5734 116.333C47.7537 116.249 47.9538 116.079 48.1429 115.965C48.7763 117.538 48.218 118.741 47.8515 118.651C48.4024 119.46 49.0938 120.677 49.4759 120.673C49.7276 121.082 49.9946 121.479 50.2807 121.865C49.5551 121.891 50.1787 122.868 50.8219 123.114L50.8219 123.114C51.0018 123.18 51.1801 123.194 51.3187 123.117C51.2506 123.032 51.1824 122.948 51.1143 122.864L51.1143 122.864C50.662 122.312 50.2506 121.728 49.8791 121.122C50.8446 121.15 50.0413 119.353 51.7073 122.357L51.7073 122.357C51.8945 122.65 52.1038 122.992 52.3336 123.39C52.6155 124.431 51.2601 121.981 51.5217 122.815C52.2761 124.008 53.1726 124.97 53.686 126.232C54.3072 127.806 52.8651 126.329 55.4119 129.239C51.659 121.529 56.7361 129.78 59.3186 132.784C58.975 134.295 60.4222 137.314 63.8761 140.244L63.8761 140.244C63.9791 140.328 64.0854 140.416 64.1951 140.507C64.1738 140.383 64.1051 140.245 64.008 140.105L64.008 140.105C63.6208 139.563 62.8221 138.871 62.4442 138.314C61.9688 137.61 62.7229 138.152 62.1612 137.263C61.5953 136.378 60.4151 134.512 60.0004 133.521C60.6578 134.156 63.7467 137.196 61.512 135.333C62.4981 137.049 62.9098 138.049 64.4256 139.667L64.4256 139.667C64.5646 139.812 64.7239 139.977 64.8816 140.14C65.845 140.329 66.07 140.042 67.9105 141.955C66.2802 141.348 67.9468 143.895 66.9128 143.959C65.774 142.47 67.0474 142.701 66.5712 141.663C66.5198 141.552 65.1697 140.434 64.8816 140.14C65.6487 141.877 65.8463 142.49 64.5219 142.287C65.4211 143.119 65.8713 143.761 66.2345 143.571C66.2885 143.879 66.3383 144.183 66.387 144.487C66.669 144.785 66.9236 145.036 67.2145 145.354C67.2511 144.516 67.7581 145.603 68.5155 146.017C69.2693 146.423 68.8667 145.309 70.4081 146.929C69.9955 146.29 69.6155 145.711 69.2189 145.094C70.3213 146.044 71.4254 146.982 72.5443 147.904C72.1001 146.925 70.9879 144.967 71.3823 144.68C71.7055 145.289 73.5029 146.683 73.688 146.846C74.3911 147.487 73.8085 147.334 73.8534 147.39C74.801 148.561 75.757 149.338 75.843 150.069C76.8033 150.694 77.3371 151.356 78.2308 152.141C78.7242 152.571 78.8591 152.226 79.102 152.526C80.7441 154.48 78.5787 153.383 82.952 155.683C82.6281 155.138 82.3243 154.591 82.0214 154.039C82.5042 154.302 82.9866 154.555 83.4727 154.8C83.7338 155.049 83.9955 155.294 84.2612 155.538C83.9452 155.965 83.627 156.392 83.3106 156.819C83.5736 157.037 83.8405 157.253 84.1078 157.465L84.1078 157.465C84.1596 157.506 84.2115 157.548 84.2635 157.589C84.2061 157.555 84.1488 157.522 84.0916 157.489L84.0916 157.489C83.5438 157.172 82.9992 156.841 82.4608 156.501C82.3537 156.538 82.2499 156.577 82.1424 156.613C82.6468 157.112 83.1605 157.601 83.6855 158.081L83.6855 158.081C83.9398 158.313 84.1966 158.55 84.4564 158.789C84.5793 158.648 84.7029 158.507 84.8253 158.366C86.6231 159.935 86.5791 160.111 88.7193 160.981C90.1378 161.983 91.7499 162.13 92.7578 162.401C92.9955 162.687 93.2351 162.974 93.4767 163.258C93.7539 163.252 94.0329 163.246 94.3107 163.238C94.5691 163.666 94.8344 164.095 95.1033 164.522C95.5839 164.232 95.7668 164.175 94.3877 163.085C95.224 162.901 97.6771 164.741 98.6612 165.525C99.4066 166.13 98.2334 166.064 98.3041 166.176C98.5422 166.565 100.01 167.161 100.284 167.341C101.448 168.123 102.334 168.53 103.43 169.162C103.64 169.285 104.133 169.868 104.184 169.901C104.575 170.138 105.555 170.719 105.673 170.769C111.791 173.251 105.638 169.638 111.342 171.568C111.221 171.335 111.112 171.106 110.998 170.874C111.435 170.985 111.87 171.089 112.307 171.187C112.819 171.478 112.085 171.607 113.236 171.633C113.111 171.849 112.985 172.064 112.855 172.277C113.368 172.264 113.87 172.242 114.388 172.213C114.997 173.207 117.914 173.801 117.603 174.729C117.499 175.064 115.287 175.093 116.384 175.608C117.309 175.805 116.728 175.326 117.11 175.355C119.865 175.52 119.676 176.01 120.819 175.928C121.007 175.696 121.204 175.459 121.391 175.222C121.807 175.304 122.229 175.381 122.659 175.451C122.758 175.29 122.861 175.128 122.958 174.966C122.56 174.959 122.115 174.945 121.755 174.927C121.906 174.746 122.409 174.602 123.001 174.484L123.001 174.484C124.429 174.202 126.363 174.15 125.121 174.54C124.405 174.765 123.093 174.684 123.93 175.415C125.158 175.298 126.566 175.175 127.867 175.053C127.909 175.212 127.949 175.372 127.991 175.531C129.747 175.406 128.134 174.787 128.139 174.445C128.536 174.43 128.949 174.416 129.347 174.401C129.519 174.553 129.682 174.713 129.861 174.861C129.872 174.614 130.094 174.038 131.29 174.232C132.058 174.358 130.855 175.001 132.325 174.891C132.206 174.506 131.677 174.047 133.298 173.892C133.464 174.292 133.7 174.657 133.834 175.079C135.851 174.652 136.799 175.257 139.168 174.74C140.677 174.412 142.699 173.318 143.737 174.848C144.85 174.844 144.48 174.466 144.803 174.364C146.326 173.879 147.512 174.558 147.798 174.586C149.652 174.759 150.462 174.442 151.99 174.668C151.884 174.383 151.816 174.111 151.728 173.832C150.399 174.382 149.692 174.414 147.767 174.434C148.42 174.337 149.048 174.238 149.692 174.134C149.571 173.905 149.451 173.675 149.334 173.446C143.459 174.72 144.791 173.188 149.695 172.554C150.139 172.963 150.633 173.366 151.08 173.772C153.885 172.85 155.277 173.363 158.487 172.842C158.837 172.784 159.985 172.254 160.486 171.933L160.486 171.933C160.531 171.907 160.573 171.883 160.611 171.862C160.602 171.865 160.592 171.868 160.583 171.871C160.689 171.439 160.369 171.392 160.132 171.224L160.132 171.224C160.082 171.18 160.034 171.129 159.995 171.066C160.009 171.055 160.024 171.044 160.037 171.033L160.037 171.033C160.264 170.872 160.482 170.705 160.694 170.532C161.395 170.431 161.357 170.781 162.386 169.925C162.069 169.813 161.761 169.69 161.459 169.558C162.546 168.746 163.417 168.297 164.27 167.161C164.191 167.41 164.113 167.654 164.03 167.899C165.927 166.149 165.975 167.858 166.485 167.165L166.485 167.165C166.588 167.022 166.714 166.774 166.88 166.376C167.092 166.356 167.3 166.343 167.512 166.324C167.235 166.661 166.954 166.999 166.68 167.336L166.68 167.336C166.326 167.769 165.972 168.204 165.609 168.633C165.748 168.787 165.885 168.942 166.026 169.093C166.4 168.634 166.758 168.172 167.113 167.716L167.113 167.716C167.411 167.333 167.716 166.948 168.02 166.562C167.76 166.987 167.498 167.411 167.244 167.831L167.244 167.831C167.092 168.083 166.939 168.336 166.783 168.59C166.995 168.385 167.205 168.181 167.413 167.979L167.413 167.979C168.084 167.331 168.783 166.671 169.469 165.98C168.021 166.502 169.078 165.127 168.29 164.889C170.14 163.642 171.991 162.652 173.157 159.316C173.372 158.649 172.756 158.774 174.143 157.285C173.201 157.366 173.77 155.02 172.903 155.008C172.695 155.628 172.455 156.251 172.241 156.834C172.78 156.308 173.54 156.483 173.28 157.597C172.952 159.029 171.451 160.58 172.214 160.931C171.885 161.408 171.576 161.855 171.239 162.3C171.193 161.992 171.137 161.692 171.082 161.389C170.512 162.89 169.796 163.628 168.924 163.883C169.986 162.359 170.889 160.767 171.649 159.096C171.488 159.318 171.324 159.54 171.163 159.752C171.346 158.29 170.269 159.297 171.278 157.008C171.494 157.128 171.712 157.245 171.929 157.366C171.752 156.256 172.681 153.937 171.678 154.395C172.169 153.787 172.362 153.684 172.125 153.145C173.348 151.467 174.408 150.401 175.029 151.359C175.124 150.589 175.206 149.813 175.279 149.027C174.927 149.403 174.58 149.752 174.226 150.106C174.616 148.848 174.975 147.564 175.305 146.268C176.027 146.323 174.874 148.811 175.679 148.219C175.844 148.094 175.761 147.334 175.876 147.168C177.113 145.392 175.804 148.332 176.52 147.897C177.164 145.878 177.529 146.557 177.758 145.65C177.852 145.268 177.917 144.609 177.927 143.355C178.148 143.29 178.376 143.217 178.595 143.157C178.651 142.896 178.68 142.681 178.692 142.497L178.692 142.497C178.739 141.704 178.448 141.528 178.563 140.527C178.652 139.757 179.621 138.946 179.234 138.003C179.164 137.83 177.93 139.079 178.521 136.107C178.984 133.807 179.49 134.898 179.97 133.695C180.445 132.508 180.083 129.462 181.337 128.862C181.055 129.482 180.805 130.289 180.542 130.985C180.69 131.324 180.84 131.647 180.99 131.977C181.049 130.277 181.728 128.653 181.48 127.439C182.72 125.427 182.629 122.839 181.616 123.282C181.561 124.033 182.123 123.342 181.644 124.279C181.421 124.334 181.197 124.395 180.974 124.451C181.408 122.749 181.713 121.57 182.116 122.498C182.197 122.24 182.28 121.977 182.361 121.722C181.938 121.563 181.512 121.407 181.089 121.247C181.121 120.92 181.157 120.587 181.193 120.258C181.382 119.935 181.573 119.61 181.768 119.28C182.325 119.95 182.119 120.747 183.246 118.196C183.012 118.121 182.78 118.043 182.546 117.968C183.494 115.823 184.07 115.938 184.931 113.169C185.06 115.536 183.28 116.268 184.918 116.749C184.653 117.245 184.386 117.755 184.126 118.256C184.342 118.405 184.558 118.553 184.775 118.697C185.378 116.067 185.42 111.474 186.754 109.534L186.754 109.534C186.877 109.352 187.012 109.191 187.157 109.057C187.116 108.78 187.088 108.515 187.037 108.232C188.297 106.56 187.181 105.301 188.546 103.614C188.68 103.432 189.907 104.255 190.527 101.63C190.339 101.652 190.041 101.614 189.811 101.612C190.056 101.078 190.298 100.545 190.53 100.005C190.392 99.8679 190.256 99.7268 190.116 99.591C189.849 100.538 189.559 101.471 189.247 102.401C189.401 101.599 189.539 100.798 189.661 99.9901C189.168 100.965 189.046 101.417 188.78 100.702C188.966 99.8157 189.13 98.922 189.273 98.0246C189.183 97.9129 189.091 97.8025 189 97.6917C188.6 98.0592 188.202 98.4295 187.79 98.7799C188.524 96.5736 188.808 94.5862 189.602 92.8589C189.731 92.5625 190.081 93.6813 189.848 91.5604C190.074 91.5417 190.259 91.4958 190.468 91.4709C189.963 88.8509 190.155 88.0467 190.465 85.3191C190.139 87.0883 190.334 85.512 190.077 85.0868C189.904 84.796 189.999 85.9703 189.827 85.8462C189.662 85.7178 188.913 84.2537 188.917 85.5454C190.385 88.6721 188.832 89.5577 189.115 93.6363C189.008 92.9899 188.888 92.3493 188.756 91.7202C188.619 92.0031 188.494 92.2564 188.343 92.5601C188.769 90.3466 188.516 91.4152 188.359 90.4922C188.196 89.5658 188.036 87.9097 187.937 86.8031C187.906 86.4554 188.223 86.8156 188.215 86.0187C188.214 85.4749 187.661 84.0482 188.144 83.6547C188.456 83.3877 189.638 85.7343 189.289 82.3759C189.546 81.7038 189.631 83.3332 189.668 83.3609C190.098 83.6238 190.17 81.4897 189.713 80.5751C189.676 80.503 189.483 81.2979 189.241 80.5003C189.032 79.8156 188.911 79.2472 188.849 78.7084L188.849 78.7084C188.741 77.7564 188.846 76.959 188.986 76.0979C188.41 76.0694 187.44 74.5841 187.201 72.5398C187.024 72.4715 186.845 72.4084 186.666 72.3412C186.817 72.6332 186.966 72.9263 187.116 73.2194C187.091 73.5798 187.096 73.9529 187.051 74.3094C186.491 72.3242 185.674 72.2103 185.186 71.3174C183.5 68.2786 185.92 69.7785 186.401 70.2964C186.364 70.7561 186.306 71.2057 186.257 71.6622C186.435 71.5723 186.614 71.4812 186.793 71.3947C185.63 66.4645 187.846 70.3546 187.581 67.7553C186.497 67.3342 185.958 65.5321 185.866 63.0413C185.788 62.7847 185.712 62.5268 185.631 62.2711C185.487 62.2666 185.286 62.326 185.179 62.2815C184.203 59.5443 185.386 58.6164 185.434 58.3051C185.621 56.9389 184.508 56.29 184.382 55.9529C183.841 54.516 184.03 53.9668 183.353 52.6576C182.614 51.2512 182.749 52.3595 182.337 52.0086C182.012 51.7297 181.507 50.5999 181.115 50.2181C181.35 50.3362 181.591 50.4781 181.826 50.5988C181.407 49.0144 181.064 47.7007 180.291 46.0059C178.275 44.69 179.206 42.1719 178.093 43.605C178.833 45.1894 179.088 46.1489 179.106 47.1675C178.564 46.1708 178.003 45.1907 177.413 44.2246C177.416 43.847 177.46 43.5565 177.429 43.1231C176.676 42.5682 175.804 40.8196 175.274 40.2376C172.79 37.5686 172.977 38.9057 171.748 35.6871C173.345 37.4183 173.771 37.104 175.086 39.0821C175.113 38.4385 174.33 37.5024 175.166 37.8703C173.685 36.0596 173.8 36.9254 172.965 36.4483C172.247 36.0436 171.217 34.9127 170.972 35.2521C171.032 34.9872 171.108 34.7522 171.163 34.4857C170.717 34.0096 170.25 33.5377 169.778 33.0891L169.778 33.0891C169.165 32.5071 168.584 31.9624 167.968 31.3936C168.601 31.6666 169.2 31.9102 169.826 32.1854C169.534 31.7906 169.245 31.4017 168.957 31.0165C165.818 29.0136 161.783 24.0011 161.442 26.0195C160.038 24.9461 160.004 24.6464 159.458 23.7984C159.293 23.839 159.148 23.8663 158.972 23.9166C158.152 23.1077 157.161 22.9861 156.438 22.2992C155.699 21.6045 155.776 21.0946 155.201 21.6453C154.797 21.0854 154.383 20.5738 153.959 20.0396C153.542 19.9729 153.119 19.902 152.703 19.84C152.257 19.4381 151.78 19.0261 151.323 18.6353C150.851 18.7669 148.9 17.4174 147.86 17.1407C147.186 16.3336 147.78 15.2176 145.545 14.3745C145.467 14.6751 145.389 14.9746 145.31 15.2751C144.858 14.9849 144.4 14.6999 143.926 14.4152C143.937 14.3116 143.952 14.2098 143.964 14.1063C144.203 14.2478 144.442 14.3912 144.675 14.535C144.531 14.2827 144.386 14.0321 144.237 13.7812C143.382 13.6669 142.519 13.5649 141.663 13.4792C142.621 14.0754 143.561 14.6938 144.478 15.3356C143.134 14.949 142.339 14.3641 141.133 14.1336C140.32 13.3546 140.757 13.2764 141.332 13.021C140.946 12.9067 140.57 12.798 140.185 12.6899C140.59 12.3702 140.066 11.8576 142.207 12.7631C142.107 12.5825 142.002 12.4072 141.909 12.2252C141.553 12.1036 141.352 11.9071 140.949 11.8035C139.833 11.516 138.743 11.9537 138.72 12.2378C138.709 12.3866 139.845 12.5211 139.732 12.6981C139.443 13.1245 137.173 12.0041 140.392 13.7904C139.153 13.6425 138.988 13.3238 137.764 12.7678C137.805 12.9594 137.843 13.1493 137.88 13.3401C137.723 13.2578 137.566 13.1762 137.411 13.0952L137.411 13.0952C136.988 12.8789 136.575 12.6523 136.171 12.418C137.273 11.9912 133.268 9.84323 137.286 10.8229C136.202 10.3383 135.146 9.78031 134.098 9.18895C134.358 9.22761 134.616 9.26474 134.875 9.29878C135.335 9.582 135.795 9.85531 136.262 10.118C135.757 9.71316 135.261 9.29561 134.771 8.86895C133.352 8.35823 132.68 8.3205 131.889 8.30991C133.324 9.39408 132.988 8.80081 134.239 9.37405C134.088 9.55948 134.045 9.77998 133.824 9.94187C133.414 9.18853 131.2 8.37497 130.709 8.13478C129.217 7.41137 130.586 7.61217 129.606 7.08232C128.62 6.55262 127.321 6.2251 126.663 5.43856C126.574 5.68083 126.534 5.95401 126.497 6.19462C124.883 5.58643 125.302 5.4611 125.151 5.35234C123.261 4.10576 121.737 3.91093 119.703 3.74829L119.703 3.74829C119.082 3.70417 118.408 3.66097 117.641 3.60469C118.049 3.72012 118.459 3.83519 118.865 3.95983C116.577 4.20076 117.786 4.20002 119.582 4.56987L119.582 4.56987C119.75 4.60583 119.923 4.64626 120.096 4.69165C119.918 4.65583 119.745 4.62751 119.577 4.60558L119.577 4.60558C117.926 4.39768 116.847 4.6972 115.597 4.75232C114.219 4.79974 111.859 4.62683 110.974 4.52742C112.947 4.10673 115.12 4.29464 117.329 4.41552C117.1 4.14022 116.87 3.90687 116.625 3.61159C115.225 4.05052 114.459 3.69659 114.002 3.62375C112.671 3.42483 112.729 3.88273 111.906 3.43328C111.947 3.59714 111.977 3.73518 112.016 3.88833C109.301 3.92084 106.302 4.13613 104.715 5.12356C104.471 4.78346 104.266 4.45007 103.989 4.11333C102.917 4.67617 101.875 4.67537 100.95 5.05278C100.037 5.43497 100.488 5.59667 99.4534 6.10657C99.2634 6.2018 98.7792 6.18489 98.3492 6.51646C98.0045 6.77466 97.1307 7.87649 96.5002 8.03604L96.5002 8.03604C96.3158 8.08189 96.1473 8.04796 96.0115 7.89034C95.1346 8.32101 94.2959 8.71173 93.4405 9.14144C94.2441 8.66504 95.0532 8.19706 95.8629 7.73682C95.0532 7.89578 94.2497 8.06262 93.4412 8.24146C93.4396 8.46011 93.4399 8.68147 93.4413 8.89526C91.6519 10.0966 90.1397 10.5693 88.2957 11.7096C87.9891 11.9007 88.9092 11.795 87.4772 12.5144C86.0494 13.2387 84.6692 13.2653 82.4917 14.9493C82.3827 15.0354 81.9711 15.8968 80.9614 16.1345C80.731 16.1896 81.4548 15.5786 80.9686 15.7701C80.478 15.9587 78.529 17.1599 78.2456 17.0631C78.3143 17.121 78.4831 17.1146 78.5898 17.149C78.2884 17.4037 77.9852 17.6611 77.6838 17.918C77.568 17.8135 77.4497 17.7106 77.3343 17.607C75.6882 19.1927 75.0624 20.3059 72.3024 22.1602C73.1728 21.7629 74.0506 21.3786 74.9275 21.0097C75.0445 20.7382 75.1626 20.4648 75.2788 20.1939C76.5553 19.3502 77.8499 18.5258 79.154 17.7258C79.2633 17.4387 79.3702 17.1536 79.4815 16.8649C79.8335 16.6577 80.1806 16.4549 80.5332 16.2515C80.5191 16.4159 80.5041 16.5799 80.487 16.746C81.1412 16.279 81.7982 15.8165 82.4573 15.3604C81.4955 16.8716 78.619 17.7906 79.1485 18.2045C78.7941 18.3239 78.4401 18.4444 78.0879 18.5661C78.1311 18.9068 77.4742 19.2436 76.3913 19.9478C76.7183 19.8988 77.0715 19.8315 77.3787 19.8024C76.2267 20.3385 74.4333 21.651 73.3497 22.366C72.8722 22.68 73.2001 22.1682 73.0492 22.2499C72.2757 22.6645 71.1816 23.9779 70.8929 24.1697C69.1578 25.3161 67.6734 25.6652 66.2485 27.502C68.0908 26.0455 67.1003 26.8465 67.892 26.4954C68.1434 26.3818 70.5645 24.5826 67.6191 26.9454C67.2346 27.1659 61.8924 31.5293 63.3061 29.7349C62.5906 30.5762 62.0553 31.2888 61.4468 32.0872L61.4468 32.0872C61.4391 32.0972 61.4315 32.1072 61.4238 32.1173C59.0577 33.3207 60.2639 33.2569 61.0865 33.0557C60.8099 33.3476 60.5401 33.6374 60.2507 33.9427C60.5154 32.9576 57.3724 36.2732 56.5448 37.6084C56.2626 38.0479 57.3249 37.0574 56.5909 38.0008C56.1952 38.4059 55.7441 38.8708 55.3322 39.3126C56.1121 38.822 55.1001 40.2104 55.3478 40.3681C54.4608 41.0447 53.5338 41.3935 53.6672 40.7343C53.2063 41.531 52.7678 42.3318 52.3527 43.1469C52.6435 42.8378 52.9424 42.5284 53.2415 42.2307C51.3149 44.4951 49.9306 48.0334 49.2004 48.3722C49.0403 48.7311 48.8845 49.0958 48.737 49.4588C48.7758 49.6066 48.8169 49.7501 48.8567 49.8969C48.1146 51.4991 47.4981 53.1552 46.9785 54.8552C47.3343 53.3184 47.3158 52.9101 47.9527 51.3729C47.6399 51.9455 47.342 52.5302 47.0629 53.1107C46.6555 55.6057 46.7038 55.959 45.9544 59.6418C45.9076 59.8077 45.2818 62.5916 45.2619 62.6854C45.1127 63.1184 45.0641 62.4252 44.9921 62.6172C44.7717 63.1592 44.1203 66.4544 44.0887 66.4056C43.4539 65.533 44.8341 54.1077 46.1323 51.0725C48.5673 42.8346 54.3873 36.3122 59.7662 30.4776L59.7662 30.4776C70.004 19.7863 82.1984 11.8454 95.1218 5.2393L95.1218 5.2393C102.814 1.42646 111.542 0.0976938 120.075 1.21826L120.075 1.21826C121.298 1.38317 122.509 1.63655 123.687 1.96478C124.036 2.06205 123.936 1.84948 124.087 1.88581C125.03 2.11639 125.812 2.69945 126.131 2.83382C126.814 3.12259 126.531 2.73617 127.035 2.93837C131.712 4.86085 135.281 7.52778 138.989 8.83006L138.989 8.83006C139.466 9.00038 139.959 9.17512 140.456 9.35283C140.776 9.46781 140.37 9.54772 140.95 9.72313C141.241 9.80882 142.284 9.84761 142.945 10.1066C145.263 11.0159 147.145 11.9873 149.486 13.2066C150.767 13.8698 152.627 14.9645 153.989 15.8081C154.601 16.1847 155.3 16.4423 155.887 16.8206C156.716 17.3573 156.369 17.5184 156.485 17.619C156.982 18.0599 157.258 17.8183 157.781 18.1899C158.726 18.8701 158.648 19.1034 159.858 19.9616C160.718 20.5679 162.768 21.8998 163.837 22.6936C166.089 24.8491 169.111 27.3416 171.284 29.2214C171.871 29.7267 172.17 30.0865 172.367 30.3685L172.367 30.3685C172.62 30.7227 172.718 30.9602 173.009 31.2479C174.875 33.1179 176.479 34.3807 177.934 36.3595C179.844 38.9983 181.01 41.5938 182.384 44.3196C182.604 44.7609 182.847 44.5138 183.072 44.9466C183.906 46.5463 184.899 48.617 185.462 50.1068C186.088 51.7646 185.872 52.5439 186.56 54.1176C186.761 54.5803 187.213 54.5785 187.547 55.357C188.08 56.6074 188.184 58.1257 188.426 59.0297C188.757 60.2726 188.844 59.0763 189.295 60.7514C189.314 60.8203 189.089 61.1573 189.209 61.5081C189.553 62.5325 189.764 62.3638 190.168 63.8932C190.209 64.041 190.462 66.1383 190.509 66.3395C190.817 67.5237 191.291 69.9349 191.512 70.6244C192.305 73.0882 192.33 71.012 191.787 73.3665C192.237 74.2556 192.684 75.1419 193.127 76.0962C192.853 75.6198 192.915 77.1212 192.975 77.9406L192.975 77.9406C192.997 78.2128 193.018 78.4138 193.032 78.4607C193.487 80.0832 193.739 79.0351 193.98 81.1773C192.66 78.4878 194.247 83.9312 194.281 85.2128C194.775 91.273 193.951 96.8859 192.479 102.712C191.993 104.666 191.396 107.289 190.715 109.241C190.558 109.697 190.462 109.279 190.319 109.676C190.178 110.071 190.572 109.715 190.401 110.164C190.323 110.367 190.245 110.564 190.167 110.755L190.167 110.755C189.206 113.091 188.212 114.947 188.062 117.401C187.943 117.496 187.878 117.472 187.727 117.644C187.638 119.804 185.901 123.546 185.454 125.02C184.743 127.323 184.974 128.003 184.532 129.697C183.947 131.926 182.588 135.236 184.047 133.928C183.781 135.499 183.512 137.016 183.111 138.602C183.066 138.777 182.791 138.6 182.772 138.67C182.647 139.118 182.885 139.316 182.842 139.622C182.721 140.471 182.653 139.043 182.524 140.252C182.452 140.901 182.63 141.281 182.282 143.086C182.273 143.128 182.265 143.17 182.257 143.212L182.257 143.212C182.037 144.323 181.804 145.419 181.548 146.526C179.859 154.384 176.128 164.113 169.859 170.125L169.859 170.125C168.714 171.413 167.295 173.048 165.451 174.418C164.651 174.993 165.361 174.866 164.294 175.537C163.821 175.823 163.284 176.109 162.703 176.376L162.703 176.376C157.456 178.339 153.254 177.748 150.561 178.126C147.677 178.382 148.363 178.753 146.565 179.021C146.223 179.072 146.493 178.82 146.181 178.83C144.071 178.906 141.55 178.614 139.86 178.602C138.747 178.594 138.84 178.965 138.065 179.009C136.912 179.074 135.717 178.718 135.093 178.717C132.204 178.712 130.219 179.034 127.521 178.902C127.627 178.982 127.698 179.057 127.788 179.137C126.195 179.142 124.632 179.144 123.042 179.144L123.042 179.144C121.273 179.145 119.51 179.048 117.76 178.855C117.916 178.946 118.067 179.036 118.224 179.126C114.134 178.619 114.748 177.786 114.832 179.532C114.522 179.54 114.196 179.552 113.897 179.552C114.155 178.714 111.813 177.687 108.911 176.581C108.703 176.508 106.984 176.83 107.452 175.941C107 176.045 106.726 176.126 106.335 176.212C105.81 175.709 105.297 175.202 104.801 174.688C104.459 174.601 104.119 174.509 103.778 174.415C103.657 174.573 103.618 174.773 103.441 174.904C101.905 174.317 99.016 172.64 97.9001 172.045C95.0959 170.612 92.1229 169.325 90.4339 167.528C89.437 166.923 90.185 167.879 88.7831 166.863C88.7257 166.597 88.6749 166.345 88.6166 166.071C86.9935 165.954 87.0341 165.363 85.585 164.117C84.6089 163.276 83.8152 162.952 82.86 162.223C82.6183 162.039 82.7915 161.867 82.6189 161.754C82.3993 161.611 81.99 161.388 81.5653 161.17L81.5653 161.17C80.8014 160.766 79.9643 160.3 79.6989 160.105C75.8052 157.242 72.911 154.388 69.8997 151.162C69.5783 150.816 69.8386 151.417 69.507 151.058C68.9703 150.476 69.5447 150.566 69.2435 150.226C68.4035 149.273 68.1282 149.523 66.9178 148.245C65.1729 146.409 63.3776 144.313 61.6716 142.558L61.6716 142.558C58.9174 139.787 56.8108 136.684 54.9065 133.851C54.7996 133.693 54.6367 133.819 54.519 133.647C53.7572 132.528 53.2518 131.246 52.5952 130.256C51.5064 128.616 50.4726 127.566 49.3956 126.129C49.1133 125.755 48.8293 125.39 48.5543 125.053L48.5543 125.053C45.9876 121.918 44.8192 118.441 43.9672 114.852C43.3591 112.233 43.0392 109.931 42.6636 107.493L42.6636 107.493C42.5919 107.009 42.438 106.42 42.2135 105.77C40.5437 100.503 35.822 96.2354 34.7858 87.6771L34.7858 87.6771C34.7873 86.6361 35.0413 85.8916 35.121 85.5435C35.1672 85.3774 35.1599 85.3049 35.1466 85.519C35.1212 85.7035 35.2261 86.3855 35.5644 86.8126L35.5644 86.8126C35.0818 85.7977 31.984 85.2389 28.8321 85.2421C25.6295 85.1712 22.1361 85.3218 18.4298 84.6582L18.4298 84.6582C16.6802 84.3308 14.9228 84.0517 13.1476 83.8068C12.7643 83.7539 12.935 83.6425 12.8163 83.6342C11.6914 83.5615 11.5767 83.7284 11.2097 83.3208C9.77042 83.2489 9.29735 83.4788 7.55054 83.308C6.61442 83.2181 7.34618 82.864 5.73437 82.944C4.49059 82.996 5.45727 83.2837 3.13223 82.9618L3.13223 82.9618C2.96371 82.9419 2.77558 82.9167 2.49327 82.8355C2.20701 82.7342 1.77604 82.6507 1.13828 82.0234C0.432252 81.402 0.210648 79.9298 0.429501 79.3639C0.598405 78.7327 0.804201 78.477 0.958813 78.2546C1.57458 77.4923 1.93962 77.3294 2.38674 77.0441C2.50799 76.9761 3.00779 76.8228 3.74682 76.5526L3.74682 76.5526C3.92534 76.4906 4.11793 76.4152 4.32431 76.3216C5.24628 75.9338 4.07828 76.0956 6.3707 75.3565C10.2104 74.1639 14.7288 74.2456 18.3195 73.2803L18.3195 73.2803C19.9903 72.8151 21.6643 72.3241 23.2906 71.8215C23.6413 71.7141 27.0028 70.5879 27.6598 70.3387C28.9292 69.8568 28.6125 69.7984 30.2916 69.2606C31.5917 68.8459 32.7194 68.6772 34.2526 68.192C34.4303 68.1359 34.6816 67.8926 35.8529 67.5767ZM180.674 121.289C180.396 120.875 179.208 119.928 180.164 118.064C180.254 117.889 180.886 119.146 181.334 118.105C181.133 119.186 180.884 120.23 180.675 121.289C180.675 121.289 180.674 121.289 180.674 121.289ZM44.9962 67.6434C43.7564 68.0625 42.7105 68.6291 41.4079 69.3009L41.4079 69.3009C41.2685 69.3689 41.1283 69.4345 40.9876 69.4977C41.1234 69.4237 41.2583 69.3476 41.3922 69.2692C42.2245 68.7727 42.9058 68.2978 43.6624 67.8991C44.1073 67.7965 44.5479 67.7143 44.9962 67.6434ZM99.7949 166.36C99.7936 166.359 99.7924 166.359 99.7912 166.358C101.219 166.947 102.658 167.483 104.105 167.954C103.909 168.001 103.714 168.047 103.515 168.091C102.341 167.761 101.172 167.389 100.009 166.983C99.9373 166.776 99.8655 166.568 99.7949 166.36ZM88.7178 160.831C87.9705 160.133 88.3139 160.081 87.9949 159.573C87.9947 159.573 87.9944 159.573 87.9942 159.574C87.9074 159.439 87.3793 159.003 87.1708 158.846C87.1642 159.024 87.1807 159.216 87.181 159.398C86.1148 158.867 84.8151 157.679 84.4237 157.005L84.4237 157.005C84.2272 156.652 84.2869 156.438 84.7561 156.521L84.7561 156.521C85.1848 156.602 85.9681 156.94 87.1922 157.645C87.0103 157.748 86.8326 157.853 86.6513 157.956C89.1186 159.622 91.5714 161.826 88.7178 160.831ZM186.939 98.4427C186.748 95.9243 186.745 95.1952 187.472 92.3284C187.627 92.7554 187.776 93.185 187.92 93.6211C187.676 94.0819 187.426 94.5428 187.169 94.9929C187.169 94.9943 187.168 94.9957 187.168 94.997C187.356 95.1206 187.544 95.2454 187.732 95.3669C187.5 96.4005 187.234 97.4277 186.939 98.4427ZM36.9185 82.7544C36.7929 82.1545 36.6789 82.0002 36.9183 82.1126C37.1497 82.2433 37.7386 82.5707 38.7324 83.4188C39.3953 84.0431 38.9284 83.2704 39.324 83.6928C39.394 83.7715 39.4598 83.8502 39.5217 83.9285L39.5217 83.9285C40.0075 84.5543 40.0827 85.3228 40.0509 85.7222C40.0215 86.1482 39.9415 86.3883 39.8779 86.5732C39.7449 86.9299 39.6311 87.059 39.5234 87.139C39.3121 87.2818 39.0967 87.1853 38.9966 86.9247C39.0539 86.6582 39.143 86.3606 39.1961 85.9537C39.2529 85.5709 39.2238 84.9078 38.8446 84.4219L38.8446 84.4219C38.3216 83.7243 37.6403 83.1588 36.9228 82.7569C36.9214 82.7561 36.92 82.7552 36.9185 82.7544ZM28.7362 72.9595C28.7375 72.959 28.7389 72.9586 28.7403 72.9581C28.8442 73.0809 27.9608 73.4176 29.015 73.2163C28.2462 73.4719 27.4769 73.7268 26.7034 73.9828C26.9258 73.894 27.1533 73.8043 27.3757 73.7155C27.1595 73.7324 26.9424 73.7485 26.7259 73.7647C26.5067 74.0218 26.2215 74.0096 25.394 74.2189C25.6757 74.3262 25.9565 74.4325 26.2375 74.5373C25.2812 74.7984 24.3216 75.0573 23.3623 75.312C23.3359 75.2693 23.3092 75.2267 23.2828 75.184C22.9469 75.3595 22.6137 75.5352 22.2788 75.7108C22.1642 75.6863 22.0532 75.6611 21.9389 75.6362C21.5251 75.8173 21.1079 75.9993 20.6914 76.1813C20.5173 76.0848 21.4462 75.724 19.7783 76.2936C20.2483 75.988 20.7202 75.6829 21.1929 75.3779C23.7141 74.5879 26.2263 73.7747 28.7362 72.9595ZM44.1159 99.3077C42.681 96.7525 43.2087 97.4116 43.9663 97.7668C44.0175 98.2768 44.0701 98.7939 44.1159 99.3077ZM156.147 172.24C156.887 171.665 157.603 171.075 158.218 170.467C158.787 170.216 159.318 170.114 159.595 170.147L159.595 170.147C160.207 170.078 160.605 170.265 160.105 170.751C160.058 170.795 160.01 170.838 159.96 170.879L159.96 170.879C159.102 171.631 157.412 171.57 156.147 172.24ZM176.323 142.944C175.683 144.922 175.557 142.905 175.334 142.388C175.509 142.258 175.644 142.099 175.755 141.909L175.755 141.909C176.03 141.448 176.148 140.78 176.359 139.876C176.247 140.587 176.295 141.407 176.329 142.024L176.329 142.024C176.35 142.469 176.367 142.809 176.324 142.944C176.323 142.944 176.323 142.944 176.323 142.944ZM122.525 173.183C121.715 173.196 120.898 173.294 120.183 173.104C120.422 172.7 121.847 173.133 120.842 172.471C121.357 172.481 121.863 172.481 122.371 172.47C122.046 172.729 122.479 172.925 122.523 173.182C122.524 173.182 122.525 173.183 122.525 173.183ZM54.9254 124.543C55.5643 126.158 55.8819 126.319 57.0707 127.538C56.9157 127.927 55.3203 126.594 54.4933 125.642C54.6406 125.278 54.7851 124.912 54.9254 124.543ZM70.4558 25.5732C70.5659 25.0784 72.8347 23.2589 74.0631 22.4862C73.954 22.6257 73.8422 22.7683 73.733 22.9092C72.6286 23.7779 71.5307 24.6688 70.4558 25.5732ZM176.508 139.276C176.452 139.49 176.403 139.69 176.359 139.876C176.392 139.666 176.439 139.463 176.508 139.276ZM182.92 53.8557C183.61 54.3425 183.033 52.3396 183.739 54.7696C183.74 54.7695 183.74 54.7693 183.741 54.7691C184.194 56.3807 184.28 56.7375 184.732 58.2112C183.973 57.8748 182.784 55.0053 184.011 59.1041C184.027 59.1577 184.343 58.9394 184.503 59.6061C184.551 59.8116 184.47 60.5485 184.68 61.5541C184.748 61.8801 185.365 64.2935 184.393 61.0431C184.011 61.2647 183.541 61.2182 183.145 61.3481C182.649 60.1309 183.143 58.9139 182.677 57.5975C181.978 55.6461 180.815 54.9682 181.71 54.2044C182.59 55.7329 183.555 58.5857 183.029 59.1621C183.532 60.7636 184.197 61.0705 184.05 59.6864C181.881 54.2523 184.366 57.876 182.178 53.2088C182.013 53.2078 181.783 53.0713 181.66 53.1538C181.589 51.4978 182.678 53.6788 182.92 53.8557ZM185.489 65.8914C184.911 65.0012 184.325 64.1245 183.733 63.2584C184.247 63.1094 184.869 63.5032 185.581 64.9596C185.55 65.2692 185.52 65.5828 185.489 65.8914ZM128.907 8.26402C128.667 8.41069 128.224 8.42841 127.875 8.5069C127.756 8.03785 121.266 5.28985 124.683 6.39078C125.205 6.51912 127.916 8.26162 128.907 8.26402ZM48.9729 115.398C49.0624 116.226 49.1853 117.049 49.3568 117.865C48.7679 116.745 48.2723 115.553 47.8445 114.327C48.214 114.699 48.5896 115.055 48.9729 115.398ZM167.202 165.55C166.955 165.813 167.428 164.636 166.539 165.745C167.041 164.77 167.506 163.886 167.921 162.95C168.26 162.843 168.606 162.722 168.944 162.604C168.981 162.338 169.017 162.072 169.045 161.809C169.203 162.092 169.363 162.358 169.514 162.655C167.991 163.649 168.29 164.373 167.202 165.55ZM118.119 175.072C117.875 174.44 120.404 174.311 117.956 173.981C118.467 173.631 119.224 173.506 120.643 173.538C120.864 173.701 121.088 173.862 121.316 174.023C121.363 173.612 121.729 173.475 122.525 173.183C122.526 173.184 122.527 173.184 122.528 173.184C122.694 173.182 122.848 173.18 122.99 173.178L122.99 173.178C124.73 173.158 124.64 173.324 125.148 173.944C124.079 173.782 123.485 173.821 122.996 173.947L122.996 173.947C122.419 174.098 122.009 174.375 121.129 174.548C120.018 174.768 118.593 174.532 118.119 175.072ZM135.83 11.8945C134.116 11.5588 135.274 12.6033 132.815 10.8074C133.036 10.8027 133.257 10.7984 133.478 10.7916C134.249 11.1767 135.03 11.5501 135.83 11.8945ZM110.553 171.48C110.456 172.429 111.793 173.545 112.412 172.122C111.054 171.459 111.531 172.473 110.553 171.48ZM177.687 143.955C177.511 144.716 177.317 145.187 177.114 145.501C176.644 146.215 176.177 145.885 175.911 145.224C175.85 145.07 175.799 144.902 175.76 144.729C175.997 144.597 176.235 144.463 176.47 144.329C176.492 143.805 176.507 143.293 176.521 142.776C176.91 143.169 177.301 143.557 177.687 143.955ZM68.34 143.446C70.3206 144.672 66.9248 141.451 68.2737 142.335C69.3548 143.043 70.0377 144.659 69.3318 144.468C69.0271 144.159 68.6938 143.814 68.3429 143.449C68.3419 143.448 68.341 143.447 68.34 143.446ZM77.5877 152.501C77.7649 151.761 78.0181 152.268 76.6493 151.163C76.2464 150.86 73.5748 147.888 74.3847 149.45C75.4029 150.455 76.4907 151.503 77.5877 152.501ZM184.494 110.615C184.8 110.698 184.501 113.866 184.221 114.191C184.222 114.191 184.222 114.192 184.223 114.192C183.431 115.073 184.367 111.92 183.294 113.077C184.829 110.252 183.835 108.904 185.518 109.729C184.986 111.502 184.911 110.553 184.494 110.615ZM47.1053 54.8635C47.105 54.8649 47.1046 54.8663 47.1042 54.8677C47.1535 54.667 47.8266 53.0851 47.8407 53.3104C47.2092 55.2503 47.1813 54.8708 46.9558 56.7751C46.8648 56.8605 46.7793 56.9327 46.6867 57.0275C46.8081 56.2852 46.817 55.8526 47.1053 54.8635ZM121.903 4.86378C122.654 4.97848 123.878 5.6514 124.672 5.94702C121.841 5.93895 118.953 4.50242 121.903 4.86378ZM4.46706 79.7416C4.46925 79.7415 4.47144 79.7413 4.47363 79.7412C4.47296 79.7416 4.47204 79.7419 4.47137 79.7423C4.46993 79.7421 4.4685 79.7418 4.46706 79.7416ZM170.918 35.5302C170.913 35.406 170.927 35.3196 170.959 35.2645C170.963 35.2607 170.967 35.2568 170.971 35.253C170.951 35.3414 170.933 35.4327 170.918 35.5302ZM186.471 104.513C187.292 103.416 186.681 107.729 186.024 108.982C185.862 108.821 185.691 108.745 185.543 108.452C186.432 107.572 186.347 104.689 186.471 104.513ZM137.095 173.748C140.491 173.672 136.105 175.547 135.898 174.145C135.905 174.118 137.004 173.753 137.095 173.748ZM179.264 130.404C179.625 131.365 180.108 129.688 179.469 132.399C179.3 132.528 179.129 132.662 178.959 132.795C179.057 131.999 179.157 131.205 179.264 130.404ZM159.691 174.214C160.222 174.026 160.735 173.818 161.271 173.507L161.271 173.507C164.813 171.306 166.036 168.464 163.464 169.304C163.271 169.549 163.066 169.791 162.857 170.024C163.283 170.606 162.136 171.11 160.62 171.86C160.607 171.915 160.578 171.973 160.536 172.033L160.536 172.033C160.325 172.37 159.646 172.685 159.557 172.924C159.324 173.491 160.605 173.451 159.691 174.214ZM27.0416 82.3757C27.1101 82.2952 27.1771 82.2141 27.2456 82.1342C27.9237 82.0415 28.6012 81.9504 29.2834 81.869C29.1715 82.0235 29.0598 82.178 28.9486 82.3325C28.3136 82.3413 27.6815 82.3583 27.0459 82.3762C27.0444 82.3761 27.043 82.3759 27.0416 82.3757ZM187.934 69.5769C186.562 69.5063 187.125 70.7559 188.361 73.312C188.233 72.0686 188.091 70.8198 187.934 69.5769ZM92.313 165.283C92.4357 164.932 92.5598 164.584 92.6806 164.233C91.256 163.737 91.248 164.221 91.5737 165.014C91.8233 165.107 92.0642 165.192 92.313 165.283ZM75.2757 152.644C75.6745 153.118 75.6363 152.699 75.6793 152.747C76.7177 153.906 76.7924 154.159 78.3762 155.244C78.6023 155.339 78.8275 155.428 79.0554 155.518C78.854 154.394 78.1052 154.292 77.023 152.737C77.1004 153.144 77.1805 153.552 77.2645 153.962C76.5274 153.235 75.8082 152.499 75.0992 151.751C74.9579 151.721 74.817 151.691 74.676 151.662C74.8728 151.987 75.0718 152.329 75.2757 152.644ZM19.229 81.8121C19.1197 81.7937 19.0107 81.7746 18.9021 81.7547L18.9021 81.7547C18.0289 81.5948 17.1501 81.4477 16.2731 81.3144C16.2208 81.4309 16.17 81.5483 16.1181 81.6647C17.0414 81.6951 17.9692 81.738 18.8956 81.7944L18.8956 81.7944C19.0066 81.8011 19.1178 81.807 19.229 81.8121ZM181.115 50.2181C181.023 50.1716 180.932 50.128 180.842 50.0915C180.921 50.0651 181.014 50.1186 181.115 50.2181ZM46.0575 57.3209C45.771 58.4174 45.5308 60.0518 45.3464 61.2703C45.5468 61.2055 45.9955 58.0757 46.3733 57.022C46.3734 56.8418 46.1784 56.854 46.0575 57.3209ZM176.708 147.909C176.884 148.243 177.051 148.595 177.223 148.931C177.02 149.579 176.798 150.255 176.573 150.91C176.766 150.99 176.96 151.069 177.153 151.149C177.758 148.099 178.116 148.948 179.074 147.602C178.284 147.717 177.497 147.816 176.708 147.909ZM17.391 75.3329C15.311 75.8397 14.5378 76.0439 15.8106 76.1642C16.5582 75.962 17.3033 75.741 18.0243 75.486C17.8106 75.4386 17.5979 75.3877 17.391 75.3329ZM155.323 20.3122C153.69 19.4354 154.053 18.8275 152.31 18.1889C153.07 18.8181 153.796 19.4508 154.519 20.0989C154.79 20.1715 155.057 20.241 155.323 20.3122ZM191.722 99.586C192.164 98.8324 191.136 97.1295 192.402 95.0073C192.172 94.4249 191.924 94.062 191.679 93.5701C192.021 93.3301 192.366 93.0564 192.7 92.8199C192.7 92.8183 192.7 92.8168 192.7 92.8153C192.739 90.728 192.249 92.0546 191.919 91.9812C191.786 91.9515 192.093 90.4435 191.768 90.9041C191.239 91.6977 191.25 94.7401 190.6 94.6725C190.945 93.6472 190.917 91.5635 190.451 92.145C189.948 92.7678 190.537 94.7659 189.966 95.9349C191.227 94.3188 190.384 97.93 189.509 98.1739C189.67 100.381 190.348 98.5229 190.656 96.3162C191.038 97.752 191.028 95.7312 191.557 95.4622C191.726 96.9226 190.47 101.645 191.722 99.586ZM141.625 176.176C143.086 176.091 145.394 176.339 146.376 175.781C146.943 175.458 144.645 175.34 146.2 174.801C144.771 174.916 144.465 175.107 144.724 175.503C144.404 175.565 144.065 175.627 143.747 175.687C143.595 175.614 143.439 175.542 143.286 175.469C143.122 175.642 142.956 175.814 142.793 175.986C142.439 175.966 142.101 175.945 141.751 175.923C141.713 176.008 141.646 176.083 141.625 176.176ZM106.19 4.07421C106.592 3.99452 106.991 3.92142 107.394 3.85268C107.339 3.78814 107.274 3.72217 107.21 3.65705C107.164 3.60498 107.118 3.55301 107.071 3.50115C107.346 3.65709 109.318 3.73383 110.115 3.44697C110.52 3.29995 109.533 2.96475 111.302 2.76165C110.016 2.86671 108.835 3.0528 107.606 3.27544C107.699 3.14066 107.788 3.00542 107.883 2.87092C107.883 2.87085 107.882 2.87079 107.881 2.87072C107.464 2.90503 107.041 2.94535 106.624 2.99252C106.473 3.35365 106.331 3.71346 106.19 4.07421ZM92.931 166.537C94.2757 167.047 94.7511 167.149 94.4494 166.393C94.4483 166.393 94.4472 166.392 94.4461 166.391C93.8972 166.299 93.3379 166.195 92.7885 166.093C92.8344 166.24 92.8805 166.387 92.931 166.537ZM176.826 38.8285C173.674 37.3451 178.274 42.3438 178.099 40.9779C178.099 40.9051 176.83 39.1694 176.826 38.8285ZM178.397 143.557C178.265 144.257 178.117 144.991 177.968 145.699C177.95 145.784 177.932 145.869 177.914 145.954C178.042 145.895 178.169 145.835 178.297 145.775C178.451 145.702 178.605 145.625 178.758 145.558C178.641 144.905 178.527 144.201 178.397 143.557ZM7.85432 76.4791C7.04844 76.398 5.20092 76.8122 4.14576 77.4805L4.14576 77.4805C3.96418 77.5874 3.80847 77.7003 3.68015 77.8134C3.85081 77.7378 4.02327 77.6689 4.19967 77.6059L4.19967 77.6059C4.60953 77.4635 5.01916 77.3358 5.43239 77.2196C5.03205 77.3754 4.63976 77.5421 4.24982 77.7226L4.24982 77.7226C3.53285 78.1021 2.98678 78.2635 2.19673 79.2707C2.48366 79.3733 3.10155 78.5399 4.37825 78.0213L4.37825 78.0213C4.69145 77.8909 5.04002 77.7619 5.42234 77.6487C5.71517 77.5442 7.63989 77.4832 8.17325 76.986C8.28356 76.8684 6.32707 77.3273 7.62002 76.752C7.02079 76.8852 6.51073 77.0362 5.95202 77.2081C5.88051 77.1282 5.80881 77.0484 5.73209 76.9703C6.43928 76.773 7.14528 76.6131 7.85432 76.4791ZM150.168 175.701C152.198 175.595 152.425 175.26 152.798 174.695C151.86 174.843 150.94 174.976 149.998 175.102C150.057 175.301 150.109 175.5 150.168 175.701ZM14.8414 82.6409C15.907 82.8335 15.4821 82.513 15.9197 82.5213C16.9928 82.5457 17.8281 82.711 18.7206 82.8705L18.7206 82.8705C19.2368 82.9622 19.7765 83.0323 20.3806 83.052C20.2627 83.0924 20.1544 83.1296 20.039 83.1672C20.0405 83.1674 20.042 83.1676 20.0435 83.1677C28.0639 83.8347 23.8773 83.2013 19.0813 82.7518C18.9834 82.6356 18.8915 82.5196 18.7967 82.4035C18.7967 82.4035 18.7966 82.4035 18.7966 82.4035L18.7966 82.4035C16.7184 82.2323 14.8052 82.1701 14.8414 82.6409ZM187.414 63.1796C187.481 63.0664 188.283 63.6409 187.608 62.329C186.431 61.4802 187.381 63.1545 187.174 63.6986C186.986 63.3468 186.797 62.9866 186.608 62.6412C187.003 64.9416 187.282 65.2164 187.692 64.2262C187.719 64.1557 187.347 63.2928 187.414 63.1796ZM182.656 48.5195C181.36 48.7434 183.05 51.2204 183.373 50.9799C183.232 50.5953 182.907 50.3833 182.826 49.9472C182.743 49.5073 182.977 49.2853 182.656 48.5195ZM182.194 130.439C182.217 130.355 182.962 129.652 182.498 129.639C181.219 130.44 181.486 132.656 181.929 132.367C182.047 131.679 181.981 131.187 182.195 130.44C182.195 130.44 182.194 130.44 182.194 130.439ZM20.697 73.7691C20.6616 73.7646 19.2693 74.1008 18.6376 74.3173L18.6376 74.3173C18.5068 74.3628 18.4099 74.4023 18.3702 74.4335C18.1989 74.6062 18.1297 74.7583 18.0035 74.9203C18.2172 74.8419 18.4755 74.7568 18.7441 74.6645L18.7441 74.6645C19.8654 74.2816 21.2258 73.8703 20.6928 73.7704C20.6942 73.77 20.6956 73.7695 20.697 73.7691Z" fill="#FF61B0"/>
</svg>
