<svg width="590" height="188" viewBox="0 0 590 188" fill="none" xmlns="http://www.w3.org/2000/svg">
<path d="M283.798 187.545L375.49 175.101V15.2961L44.0614 0.931503L0.227631 18.1568L6.54272 179.179L283.798 187.545Z" fill="#E4E4E4"/>
<rect width="219.832" height="95.395" transform="translate(77.6096 46.2249)" fill="white"/>
<path d="M139.616 79.7009H143.451V92.0242H139.616V79.7009ZM136.755 104.505H146.972V107.868H136.755V104.505ZM132.951 83.7877H150.399V87.2144H132.951V83.7877ZM133.831 90.641H149.644V94.0676H133.831V90.641ZM134.837 96.7398H148.952V109.189H145.306V100.104H138.295V109.22H134.837V96.7398ZM125.595 79.7323L128.927 80.8955C128.508 81.7129 128.068 82.5512 127.607 83.4105C127.146 84.2488 126.695 85.0662 126.255 85.8626C125.815 86.638 125.385 87.3191 124.966 87.906L122.42 86.8685C122.797 86.2188 123.185 85.4853 123.583 84.668C123.981 83.8296 124.358 82.9808 124.714 82.1216C125.071 81.2623 125.364 80.4659 125.595 79.7323ZM129.367 83.4733L132.574 84.7937C131.798 85.9883 130.96 87.2458 130.059 88.5661C129.158 89.8655 128.246 91.1125 127.324 92.3071C126.402 93.5018 125.542 94.5497 124.746 95.4508L122.451 94.2877C123.059 93.5751 123.677 92.7682 124.306 91.867C124.935 90.9658 125.553 90.0332 126.161 89.0691C126.789 88.1051 127.376 87.141 127.921 86.1769C128.487 85.1919 128.969 84.2907 129.367 83.4733ZM120.753 87.1829L122.545 84.6051C123.09 85.0662 123.656 85.5901 124.243 86.1769C124.83 86.7428 125.364 87.3087 125.846 87.8745C126.349 88.4404 126.726 88.9643 126.978 89.4464L125.06 92.37C124.809 91.888 124.442 91.3431 123.96 90.7353C123.499 90.1066 122.985 89.4883 122.42 88.8805C121.854 88.2518 121.298 87.6859 120.753 87.1829ZM128.613 91.0497L131.285 89.8865C131.704 90.5781 132.113 91.3221 132.511 92.1185C132.909 92.9149 133.255 93.7009 133.548 94.4763C133.842 95.2308 134.062 95.9119 134.208 96.5197L131.316 97.8401C131.191 97.2532 130.991 96.5721 130.719 95.7967C130.447 95.0003 130.122 94.1934 129.744 93.376C129.388 92.5377 129.011 91.7622 128.613 91.0497ZM120.753 93.5646C122.2 93.5227 123.939 93.4598 125.972 93.376C128.005 93.2922 130.069 93.1979 132.165 93.0931L132.134 96.0796C130.164 96.2263 128.204 96.373 126.255 96.5197C124.327 96.6455 122.598 96.7502 121.068 96.8341L120.753 93.5646ZM129.147 98.9089L131.914 97.9972C132.354 98.9404 132.762 99.9673 133.14 101.078C133.517 102.189 133.789 103.153 133.957 103.97L131.033 105.039C130.887 104.201 130.635 103.216 130.279 102.084C129.923 100.931 129.545 99.873 129.147 98.9089ZM122.105 98.1859L125.217 98.7517C125.05 100.261 124.798 101.749 124.463 103.216C124.128 104.683 123.74 105.919 123.3 106.925C123.09 106.779 122.807 106.611 122.451 106.422C122.095 106.255 121.728 106.087 121.351 105.919C120.994 105.752 120.68 105.626 120.408 105.542C120.869 104.599 121.235 103.478 121.508 102.178C121.78 100.858 121.979 99.5272 122.105 98.1859ZM125.752 95.2308H129.084V109.252H125.752V95.2308ZM156.749 82.656H183.785V86.1141H156.749V82.656ZM168.223 79.7323H172.153V109.252H168.223V79.7323ZM167.972 96.7083L171.147 98.0601C170.392 99.1919 169.523 100.271 168.538 101.298C167.553 102.304 166.484 103.258 165.331 104.159C164.199 105.06 163.015 105.877 161.779 106.611C160.542 107.345 159.306 107.973 158.069 108.497C157.881 108.183 157.629 107.827 157.315 107.428C157.021 107.03 156.707 106.642 156.372 106.265C156.057 105.888 155.753 105.574 155.46 105.322C156.675 104.903 157.891 104.389 159.107 103.782C160.322 103.153 161.475 102.461 162.565 101.707C163.675 100.952 164.692 100.156 165.614 99.3176C166.536 98.4583 167.322 97.5886 167.972 96.7083ZM172.719 96.897C173.578 98.0496 174.668 99.1604 175.988 100.229C177.309 101.277 178.755 102.241 180.327 103.121C181.919 103.981 183.512 104.683 185.105 105.228C184.812 105.479 184.487 105.804 184.13 106.202C183.795 106.601 183.47 106.999 183.156 107.397C182.862 107.816 182.611 108.204 182.401 108.56C180.767 107.868 179.163 106.999 177.592 105.951C176.02 104.882 174.542 103.698 173.159 102.398C171.797 101.078 170.613 99.6948 169.607 98.2487L172.719 96.897ZM162.47 91.9299V95.4194H178.063V91.9299H162.47ZM158.824 88.5976H181.93V98.7517H158.824V88.5976ZM196.957 91.9613V103.562H193.436V95.4508H190.229V91.9613H196.957ZM196.957 102.084C197.585 103.153 198.466 103.939 199.597 104.442C200.75 104.945 202.133 105.228 203.747 105.291C204.732 105.333 205.906 105.364 207.268 105.385C208.651 105.385 210.097 105.374 211.606 105.354C213.136 105.333 214.614 105.301 216.039 105.259C217.485 105.196 218.774 105.112 219.906 105.008C219.78 105.301 219.633 105.657 219.466 106.077C219.298 106.475 219.151 106.894 219.026 107.334C218.921 107.795 218.826 108.204 218.743 108.56C217.737 108.602 216.584 108.633 215.285 108.654C213.985 108.696 212.633 108.717 211.229 108.717C209.846 108.738 208.505 108.738 207.205 108.717C205.906 108.696 204.764 108.665 203.779 108.623C201.85 108.539 200.216 108.235 198.874 107.711C197.533 107.187 196.391 106.307 195.448 105.071C194.861 105.699 194.253 106.328 193.624 106.957C192.996 107.586 192.315 108.246 191.581 108.937L189.789 105.354C190.418 104.892 191.078 104.379 191.77 103.813C192.482 103.247 193.163 102.671 193.813 102.084H196.957ZM190.009 82.2787L192.996 80.3925C193.541 80.9165 194.096 81.4928 194.662 82.1216C195.228 82.7293 195.741 83.3371 196.202 83.9449C196.684 84.5527 197.051 85.1186 197.303 85.6425L194.096 87.7488C193.865 87.2458 193.53 86.6694 193.09 86.0197C192.65 85.37 192.157 84.7204 191.612 84.0707C191.088 83.421 190.554 82.8237 190.009 82.2787ZM197.837 83.8192H208.463V86.9H197.837V83.8192ZM202.144 89.1949H206.419V92.2757H202.144V89.1949ZM201.578 79.7009H205.036V85.4853H201.578V79.7009ZM205.13 89.1949H208.305C208.305 89.1949 208.295 89.3625 208.274 89.6979C208.274 90.0332 208.274 90.3057 208.274 90.5152C208.232 92.611 208.19 94.4134 208.148 95.9224C208.106 97.4104 208.044 98.6469 207.96 99.632C207.876 100.596 207.771 101.361 207.645 101.927C207.541 102.472 207.394 102.87 207.205 103.121C206.954 103.478 206.681 103.74 206.388 103.907C206.115 104.075 205.78 104.19 205.382 104.253C205.047 104.337 204.638 104.389 204.156 104.41C203.674 104.41 203.16 104.4 202.615 104.379C202.594 103.939 202.511 103.425 202.364 102.839C202.238 102.252 202.06 101.759 201.829 101.361C202.228 101.403 202.584 101.434 202.898 101.455C203.213 101.455 203.464 101.455 203.653 101.455C203.82 101.455 203.967 101.434 204.093 101.392C204.219 101.33 204.334 101.214 204.439 101.047C204.564 100.837 204.669 100.355 204.753 99.6005C204.837 98.846 204.91 97.6829 204.973 96.111C205.036 94.5392 205.088 92.4329 205.13 89.7922V89.1949ZM210.066 82.8446H219.151V85.9254H210.066V82.8446ZM208.966 94.0991H219.34V97.0541H208.966V94.0991ZM209.783 87.8431H216.762V90.6095H209.783V87.8431ZM210.726 79.5437L213.87 80.2668C213.493 81.8805 212.958 83.4524 212.267 84.9823C211.575 86.5123 210.81 87.8012 209.972 88.8491C209.804 88.6605 209.563 88.4404 209.249 88.1889C208.934 87.9164 208.609 87.6545 208.274 87.403C207.96 87.1515 207.677 86.9524 207.425 86.8057C208.201 85.9045 208.871 84.8147 209.437 83.5362C210.003 82.2368 210.433 80.906 210.726 79.5437ZM212.455 92.1814H215.662V100.858C215.662 101.571 215.578 102.168 215.41 102.65C215.264 103.111 214.928 103.467 214.404 103.719C213.922 103.97 213.346 104.127 212.675 104.19C212.026 104.232 211.25 104.253 210.349 104.253C210.307 103.813 210.181 103.3 209.972 102.713C209.762 102.126 209.542 101.613 209.311 101.172C209.898 101.193 210.443 101.204 210.946 101.204C211.47 101.204 211.816 101.193 211.984 101.172C212.298 101.172 212.455 101.047 212.455 100.795V92.1814ZM215.819 87.8431H216.542L217.202 87.6545L219.151 89.132C218.564 90.0751 217.873 91.0601 217.076 92.0871C216.301 93.0931 215.546 93.9524 214.813 94.6649C214.603 94.3506 214.31 94.0152 213.933 93.6589C213.576 93.2817 213.273 92.9883 213.021 92.7787C213.566 92.1709 214.1 91.4479 214.624 90.6095C215.148 89.7712 215.546 89.0377 215.819 88.409V87.8431ZM200.289 85.2338H203.338V90.7667C203.338 91.7727 203.297 92.8625 203.213 94.0362C203.129 95.2098 202.951 96.394 202.678 97.5886C202.427 98.7832 202.05 99.9359 201.547 101.047C201.044 102.157 200.373 103.174 199.535 104.096C199.304 103.761 198.958 103.373 198.497 102.933C198.057 102.472 197.669 102.126 197.334 101.895C198.214 100.848 198.864 99.6739 199.283 98.3745C199.702 97.0541 199.975 95.7233 200.1 94.382C200.226 93.0407 200.289 91.8251 200.289 90.7353V85.2338ZM227.482 84.8566H240.78V87.2772H227.482V84.8566ZM233.612 81.3042H242.069V83.6934H233.612V81.3042ZM229.337 94.4134H242.446V96.6455H229.337V94.4134ZM231.915 79.7009H235.404V85.7683H231.915V79.7009ZM226.067 84.8566H229.148V93.4389C229.148 94.5497 229.117 95.7757 229.054 97.117C228.991 98.4583 228.865 99.8416 228.677 101.267C228.509 102.671 228.268 104.033 227.954 105.354C227.639 106.674 227.22 107.868 226.696 108.937C226.528 108.749 226.287 108.518 225.973 108.246C225.659 107.973 225.334 107.711 224.999 107.46C224.663 107.208 224.38 107.03 224.15 106.925C224.737 105.626 225.156 104.19 225.407 102.618C225.68 101.026 225.858 99.4329 225.942 97.8401C226.025 96.2263 226.067 94.7592 226.067 93.4389V84.8566ZM229.494 89.1006L239.145 88.2518L239.365 90.1694L229.746 91.0497L229.494 89.1006ZM239.868 84.8566H240.308L240.811 84.7623L243.012 85.1395C242.844 85.9988 242.645 86.8895 242.415 87.8117C242.205 88.7338 241.985 89.5093 241.754 90.138L239.082 89.6979C239.229 89.1111 239.376 88.409 239.522 87.5916C239.669 86.7533 239.784 85.9674 239.868 85.2338V84.8566ZM232.103 86.9314H234.744V90.9868C234.744 91.3012 234.796 91.5107 234.901 91.6155C235.027 91.6994 235.289 91.7413 235.687 91.7413C235.771 91.7413 235.928 91.7413 236.159 91.7413C236.389 91.7413 236.651 91.7413 236.945 91.7413C237.238 91.7413 237.51 91.7413 237.762 91.7413C238.013 91.7413 238.192 91.7413 238.296 91.7413C238.611 91.7413 238.82 91.6784 238.925 91.5527C239.03 91.406 239.103 91.123 239.145 90.7039C239.397 90.8715 239.732 91.0287 240.151 91.1754C240.57 91.3012 240.948 91.385 241.283 91.4269C241.178 92.2652 240.927 92.8416 240.528 93.1559C240.13 93.4703 239.512 93.6275 238.674 93.6275C238.527 93.6275 238.296 93.6275 237.982 93.6275C237.689 93.6275 237.353 93.6275 236.976 93.6275C236.62 93.6275 236.284 93.6275 235.97 93.6275C235.656 93.6275 235.436 93.6275 235.31 93.6275C234.451 93.6275 233.78 93.5541 233.298 93.4074C232.837 93.2398 232.522 92.9673 232.355 92.5901C232.187 92.1919 232.103 91.647 232.103 90.9554V86.9314ZM228.74 106.139C229.892 106.035 231.202 105.909 232.669 105.762C234.136 105.615 235.687 105.458 237.322 105.291C238.978 105.123 240.623 104.945 242.257 104.756L242.352 107.334C240.78 107.523 239.208 107.711 237.636 107.9C236.064 108.089 234.555 108.267 233.109 108.434C231.663 108.602 230.343 108.749 229.148 108.874L228.74 106.139ZM231.255 102.807L233.801 102.336C234.031 102.776 234.231 103.268 234.398 103.813C234.587 104.358 234.713 104.84 234.775 105.259L232.103 105.794C232.061 105.395 231.957 104.913 231.789 104.348C231.642 103.782 231.464 103.268 231.255 102.807ZM237.196 102.273L240.245 102.681C239.994 103.289 239.753 103.855 239.522 104.379C239.313 104.882 239.124 105.333 238.957 105.731L236.347 105.291C236.494 104.851 236.651 104.348 236.819 103.782C236.987 103.195 237.112 102.692 237.196 102.273ZM233.078 99.2547V100.669H238.422V99.2547H233.078ZM230.28 97.5257H241.377V102.398H230.28V97.5257ZM241.409 88.7548L253.543 87.1515L253.983 90.4524L241.849 92.0871L241.409 88.7548ZM248.199 81.5243L250.934 80.141C251.332 80.665 251.72 81.2308 252.097 81.8386C252.495 82.4254 252.852 83.0123 253.166 83.5991C253.48 84.1859 253.721 84.7204 253.889 85.2024L250.997 86.7742C250.871 86.2922 250.651 85.7578 250.337 85.1709C250.043 84.5632 249.708 83.9449 249.331 83.3162C248.974 82.6665 248.597 82.0692 248.199 81.5243ZM250.903 91.7413L253.701 93.2503C253.072 95.3461 252.223 97.4104 251.154 99.4433C250.085 101.455 248.849 103.3 247.445 104.976C246.061 106.632 244.542 107.984 242.886 109.032C242.572 108.612 242.163 108.162 241.66 107.68C241.178 107.219 240.696 106.831 240.214 106.517C241.492 105.825 242.677 104.955 243.766 103.907C244.877 102.86 245.883 101.686 246.784 100.386C247.707 99.0661 248.513 97.6724 249.205 96.2053C249.897 94.7383 250.463 93.2503 250.903 91.7413ZM244.018 79.8581H247.476C247.497 82.5198 247.56 85.0766 247.665 87.5287C247.79 89.9808 247.958 92.2443 248.168 94.3191C248.398 96.394 248.66 98.2068 248.954 99.7577C249.247 101.288 249.572 102.493 249.928 103.373C250.284 104.232 250.672 104.683 251.091 104.725C251.343 104.725 251.542 104.368 251.689 103.656C251.856 102.943 251.982 101.916 252.066 100.575C252.254 100.827 252.506 101.099 252.82 101.392C253.156 101.686 253.491 101.948 253.826 102.178C254.183 102.388 254.455 102.556 254.644 102.681C254.392 104.442 254.057 105.783 253.638 106.705C253.239 107.648 252.81 108.277 252.349 108.592C251.909 108.927 251.479 109.095 251.06 109.095C249.991 109.053 249.069 108.571 248.293 107.648C247.539 106.726 246.9 105.416 246.376 103.719C245.873 102 245.454 99.9463 245.118 97.5571C244.804 95.1679 244.552 92.4853 244.364 89.5093C244.196 86.5123 244.081 83.2952 244.018 79.8581Z" fill="#64503C"/>
<path d="M532.539 8.47418C521.885 6.53707 509.414 6.77922 504.572 6.77922C494.16 6.65815 484.959 8.83739 474.91 11.8641C463.893 15.133 443.916 24.8185 434.836 37.6518C425.756 50.4851 420.671 64.8923 418.492 73.8514C417.16 79.2995 416.918 84.7476 416.191 90.3168C415.223 98.9127 413.891 117.194 418.128 130.148C422.366 143.103 430.841 153.152 435.32 156.299C443.674 161.99 451.422 167.317 460.503 171.554C464.74 173.491 468.977 175.67 473.336 177.244C478.542 179.06 483.99 180.029 489.317 181.24C504.572 184.751 545.614 176.397 552.878 172.886C560.142 169.375 572.249 156.42 574.913 151.336C578.666 144.071 587.383 109.204 587.504 105.208C587.625 99.0338 585.93 73.6093 583.751 67.3137C578.061 50.9694 565.712 33.0512 561.353 27.7242C557.116 22.276 543.314 10.4113 532.539 8.47418Z" fill="#E4E4E4"/>
<path d="M481.344 64.4675L478.195 125.074" stroke="#64503C" stroke-width="6.35289" stroke-linecap="square" stroke-linejoin="bevel"/>
<path d="M523.847 63.6821C523.847 73.8121 523.847 83.9422 523.588 93.1867C523.328 102.431 522.808 110.483 522.273 118.779" stroke="#64503C" stroke-width="6.35289" stroke-linecap="square" stroke-linejoin="bevel"/>
</svg>
