<svg width="314" height="1030" viewBox="0 0 314 1030" fill="none" xmlns="http://www.w3.org/2000/svg">
<path d="M300.522 1024.22C296.04 1019.97 290.266 1013.7 286.268 1009.07C284.976 1007.58 285.952 1008.03 285.069 1006.99C283.345 1004.94 281.435 1003.2 279.842 1001.22C279.303 1000.56 280.491 1000.9 279.916 1000.21C276.795 996.466 273.259 992.874 270.08 989.195C253.812 970.401 237.948 951.743 222.122 932.163C216.889 925.693 210.96 917.494 205.447 910.986C204.803 910.227 204.741 911.035 204.587 910.916C202.187 909.023 203.676 909.101 202.581 907.485C198.192 901.018 192.994 894.282 188.261 888.476C186.247 886.007 187.322 889.21 185.857 886.287C185.754 886.084 186.712 886.37 186.23 885.637C185.141 883.986 182.815 881.104 181.93 879.859C180.232 877.463 179.934 877.078 178.264 874.847C175.979 871.785 173.505 867.978 170.987 864.793C170.447 864.112 170.646 865.396 169.741 864.341C168.834 863.286 166.696 860.288 166.078 859.199C165.459 858.111 166.153 858.26 166.111 858.018C165.783 856.02 162.245 853.301 161.909 852.887C155.657 845.146 151.261 837.682 145.942 830.013C141.882 824.162 137.407 818.012 133.671 812.367C129.214 805.627 125.747 799.747 121.458 793.185C121.006 792.492 120.935 793.69 120.382 792.843C114.51 783.848 108.938 774.761 103.822 765.356C103.311 764.412 104.555 765.275 104.076 764.314C101.12 758.44 96.9545 748.896 92.6761 746.86C90.5474 742.953 87.9985 738.224 86.5367 734.474C85.597 732.061 87.3966 733.911 85.619 731.296C85.2195 730.706 85.1469 731.801 84.5871 730.893C82.2302 727.069 80.0725 722.681 77.7245 718.917C77.2434 718.147 76.8905 718.615 76.6857 718.433C74.9878 716.889 74.4569 713.117 74.1811 712.384C72.0492 706.784 69.8716 703.105 67.4011 698.109C66.8322 696.955 66.8702 698.635 66.3001 697.535C63.3458 691.809 60.5599 685.875 58.1751 679.998C57.6506 678.699 58.7438 679.61 58.5218 678.976C57.5406 676.186 56.2261 676.072 55.2855 673.403C55.0866 672.841 55.6986 672.931 55.7059 672.809C55.8247 670.898 54.0671 670.079 53.8637 669.692C51.2837 664.844 51.0629 661.004 48.8233 656.187C48.5541 655.609 48.505 657.189 47.7857 655.548C42.9979 644.623 38.5974 632.761 35.1788 621.361C34.6508 619.599 35.5493 620.676 35.5686 620.546C35.8505 618.458 34.254 617.726 34.0156 617.175C32.1819 612.864 31.8159 608.246 29.4104 605.645C23.9234 586.353 18.2794 567.135 16.5027 547.17C16.4793 546.92 17.1698 547.266 17.1206 546.768C17.0387 545.925 16.956 545.227 16.8679 544.64C16.3333 541.048 15.5316 541.544 14.026 538.289C13.5851 537.335 14.5868 534.086 14.6552 533.801C14.9052 532.764 15.9721 533.657 16.0014 533.317C16.2149 530.511 13.2088 531.369 12.7164 527.668C12.7066 527.553 13.3337 527.956 13.3496 527.644C13.4008 526.674 13.0538 525.762 13.128 524.807C13.3037 522.618 14.6961 521.676 13.4237 518.511C13.2607 518.109 11.5951 518.963 11.2788 515.659C11.1507 514.34 10.4413 508.513 10.3791 506.907C10.3109 505.28 10.9968 506.326 11.0082 506.208C11.2675 501.773 11.7594 503.389 12.6217 501.085C13.4828 498.78 10.9344 499.665 10.5476 498.801C10.1608 497.937 10.4401 494.65 10.5736 493.833C10.7064 493.018 11.1641 493.971 11.2133 493.254C11.5372 488.545 9.7114 491.354 9.14466 489.871C7.80848 486.376 9.48414 483.38 9.37237 480.052C9.34226 479.151 8.96645 479.923 8.85277 479.128C8.40972 475.974 8.8479 474.008 7.99133 470.492C7.85116 469.917 6.44223 467.117 7.14924 465.167C7.25156 464.891 7.79631 465.609 7.79712 464.254C7.79861 462.232 7.62383 458.592 7.30068 456.429C7.06225 454.84 6.39898 456.725 6.49954 454.708C6.54525 453.812 7.13268 455.423 7.17987 453.743C7.22664 452.073 6.90669 447.82 6.78152 446.196C6.65515 444.577 6.10949 445.505 6.05976 445.376C5.77163 444.6 5.2738 441.501 5.25725 441.224C4.28578 427.363 4.63705 414.523 3.71984 401.009C3.649 399.946 3.03931 400.682 3.02191 400.52C2.60174 396.896 4.42192 399.689 4.88731 397.135C3.60407 397.554 3.77707 396.052 3.53537 393.503C3.41809 392.274 2.94126 392.964 2.88544 392.854C2.0515 391.056 2.99125 389.746 3.18094 389.411C3.87865 388.173 2.95444 386.887 3.42168 386.044C3.88536 385.203 4.68149 387.073 4.58675 384.62C4.09816 383.947 2.94605 385.813 2.68505 383.954C1.6896 376.942 2.2837 363.797 2.26518 358.141C2.23989 352.501 2.12249 350.68 2.23063 347.39C2.43257 341.447 1.56842 343.638 1.09907 339.955C0.633297 336.261 2.87829 338.029 3.34765 337.491C3.81728 336.963 3.31885 336.4 3.57253 335.748C3.82623 335.098 4.16853 336.493 4.24744 334.972C4.32542 333.45 3.43117 329.301 2.9277 328.766C1.85997 327.637 0.76787 329.523 1.12031 325.491C1.14139 325.259 1.73149 326.006 1.78265 325.118C2.17002 318.07 2.16477 310.738 2.55843 303.717C2.61351 302.752 3.26301 303.615 3.30246 303.053C3.71887 297.179 2.62455 299.279 1.41414 296.058C3.0312 296.784 4.02179 295.006 4.0495 290.561C4.06774 287.89 3.3593 288.347 2.87057 286.617C2.72318 286.098 3.22009 284.214 2.89018 283.87C1.81199 282.728 0.581488 284.507 1.1009 279.908C1.12553 279.707 1.71501 280.354 1.75663 279.657C2.03062 275.155 0.899176 274.605 0.815686 269.747C0.749688 265.958 1.53699 259.151 1.72315 254.82C3.54004 254.94 3.19311 250.843 1.97043 249.164C2.07315 246.371 2.06313 243.305 2.29443 240.581C2.37351 239.644 2.88695 240.272 2.94636 240.155C3.87767 238.36 2.68528 237.109 2.65112 236.501C2.33515 229.917 3.39711 224.576 2.67122 218.251C2.64506 218.027 1.39189 217.629 2.36271 215.977C2.42948 215.871 2.94389 217.959 3.07421 215.01C3.20416 212.068 4.05286 206.526 3.60585 202.378C3.49789 201.377 2.55748 198.827 3.42887 196.845C3.54699 196.581 3.89893 196.886 4.114 196.507C4.80002 195.281 3.54774 194.554 4.68477 193.129C5.82132 191.721 6.74528 188.66 6.15775 184.481C6.14112 184.348 5.1675 183.327 5.23479 182.026C5.34288 179.949 5.67243 177.02 5.75543 174.87C5.79477 173.84 5.13929 174.473 5.13525 174.294C5.0771 167.277 5.85927 162.295 6.45258 154.9C6.56386 153.514 5.89947 149.501 6.70918 146.885C7.59658 144.018 10.5257 147.139 10.1325 140.465C9.97556 137.817 6.25191 134.067 8.54353 129.349C8.55436 120.037 10.1127 111.282 9.99477 101.814C9.99018 101.384 8.98583 99.9644 9.0651 98.9665C9.18485 97.4851 9.74725 96.7089 9.84957 95.6601C10.2879 91.3205 10.1313 87.1542 10.4961 82.8877C10.6335 81.2713 11.1208 81.8715 11.2852 79.9545C11.4508 78.0238 10.8413 76.7874 11.3701 74.1322C11.7713 72.1392 13.335 70.2458 13.6955 67.6433C12.3049 67.4413 12.4676 65.6361 12.3386 62.4664C12.3132 61.8577 11.7771 62.4673 11.74 62.1774C11.5759 61.0267 12.0696 59.8844 11.8846 58.732C11.8407 58.4489 11.3644 58.3986 11.3016 58.1654C10.749 56.1748 12.0715 53.1283 12.3012 52.6125C13.1751 50.6224 12.6312 49.6274 13.0368 48.1045C13.4447 46.5585 13.5997 48.96 13.9227 47.1018C14.5959 43.1961 14.9309 38.3206 15.2849 34.5209C15.4297 32.9302 14.6982 33.9601 14.7042 33.7311C14.8303 30.4272 15.7977 27.2686 14.6889 25.4117C18.1672 23.5275 14.5363 23.5427 15.6321 18.9167C15.7196 18.5574 17.3129 18.2384 17.4085 19.6615C17.5041 21.0821 16.8163 23.2243 17.0037 25.0895C17.0463 25.5377 18.2657 28.2434 18.3219 28.6096C18.7604 31.4514 16.4079 31.6632 16.2675 31.798C14.7413 33.3981 16.0308 36.7144 16.0705 37.5265C16.2423 41.3371 15.6412 44.6029 15.7255 47.9241C15.7871 49.9898 17.2895 50.317 17.112 51.9386C16.5272 57.3115 14.2408 59.3019 15.6958 64.4627C16.0051 65.5888 17.7474 64.61 16.1463 68.4616C16.0453 68.7014 14.6318 71.5652 15.262 73.3507C15.3415 73.5745 15.8261 73.6028 15.8459 73.8919C15.9679 75.855 15.4955 77.0345 15.5357 79.0835C15.5763 81.1286 15.6793 83.6125 15.3527 85.9672C15.1566 87.3847 14.1295 89.1667 13.8622 89.8425C13.0951 91.7389 14.007 93.7909 13.1584 94.9271C12.306 96.0644 11.2821 93.6606 10.5775 96.7498C11.8282 96.9476 13.1024 97.2978 14.3557 97.5662C13.8616 104.491 13.0425 111.139 12.6909 118.086C12.6486 118.948 13.3769 118.106 13.349 119.032C13.2255 123.003 12.5596 126.212 12.5299 130.255C12.5112 133.353 13.0414 136.877 13.0545 140.106C11.5112 141.988 11.7559 146.805 11.4527 150.319C11.3469 151.549 10.9661 151.448 10.798 152.321C10.1738 155.618 11.5224 154.124 11.6792 155.045C12.3524 158.943 9.45478 159.112 9.31962 163.676C9.31128 163.916 10.7166 166.944 10.7947 167.358C11.3053 169.983 10.2408 167.764 10.0565 169.387C9.72013 172.366 9.26693 174.389 9.5764 177.854C9.66863 178.866 10.5294 181.322 9.71159 183.26C9.60444 183.515 9.10193 183.352 9.06405 183.559C8.42171 187.315 10.0155 187.48 10.4751 189.665C10.9345 191.859 9.71532 195.09 9.37385 195.761C8.48991 197.494 9.07027 194.398 8.99331 194.301C8.07371 193.148 8.15222 195.563 8.00703 197.408C6.43185 197.621 6.43704 200.214 7.8631 199.323C8.01894 199.221 7.9225 197.777 8.00703 197.408C9.48663 199.084 9.58599 201.932 8.04797 205.045C7.32783 206.5 6.58606 205.086 6.73244 209.58C6.79974 211.6 7.90182 210.854 8.14181 212.644C8.68934 216.735 7.53421 222.027 7.58362 226.277C7.60155 227.819 8.23031 226.335 8.26306 227.388C8.35305 230.15 7.85102 232.579 8.0139 235.37C8.02942 235.623 8.66144 235.02 8.64953 235.886C8.57225 242.464 8.06254 248.194 7.93772 255.038C7.87675 258.343 8.13123 264.329 8.02243 267.732C7.83322 273.659 6.87031 281.008 7.06038 286.089C7.18164 289.4 7.80454 288.678 8.21901 290.098C9.02213 292.839 7.54896 297.691 7.3224 298.347C7.31456 298.367 7.17431 295.51 6.854 297.033C6.19109 297.919 7.31959 298.315 7.3224 298.347C7.17404 298.776 7.03204 304.49 7.15335 305.615C7.21874 306.229 7.80401 305.885 7.82707 306.205C8.36259 313.814 8.55523 321.466 8.36138 329.187C8.35096 329.324 7.69369 329.125 7.67739 329.446C7.43367 333.924 8.27307 336.781 8.80335 340.463C9.33414 344.146 9.22664 347.072 8.14272 349.277C8.33546 352.058 7.92142 356.061 7.67225 358.365C7.42277 360.669 8.70631 360.959 8.73613 361.161C9.69553 367.453 9.06483 371.116 9.15292 377.651C9.19152 380.751 9.5876 386.935 9.85469 390.289C10.0666 392.942 9.8307 394.554 10.1207 396.991C10.1597 397.32 10.7135 396.963 10.7394 397.063C11.5301 399.761 10.0896 398.508 9.86511 399.082C9.05061 401.172 8.6238 402.464 9.20534 405.952C9.3387 406.757 11.4438 409.017 11.631 410.48C11.8708 412.383 11.1202 411.697 11.3917 413.687C11.4144 413.857 11.8538 413.8 11.8959 415.033C12.0974 420.751 12.1863 427.067 12.5886 432.993C12.642 433.804 13.2788 432.722 13.3677 433.892C13.7837 439.373 14.1602 445.473 14.2143 450.834C14.2257 452.156 13.6771 451.366 13.5521 451.662C12.7982 453.483 14.2597 455.864 14.3161 456.287C15.6758 466.126 15.1398 473.642 16.6297 483.637C16.7121 484.181 18.479 488.219 17.4924 490.184C17.4268 490.318 16.4098 492.27 17.399 493.84C17.4608 493.936 17.9593 492.716 18.1037 494.742C18.2484 496.768 19.002 499.96 18.6266 502.782C18.5086 503.675 17.5404 505.867 18.7884 508.339C18.8704 508.481 21.4934 512.281 20.1826 513.892C19.9668 514.153 18.3637 514.103 19.5485 517.115C19.7774 517.689 19.9952 516.57 20.4063 518.104C21.0384 520.453 21.0183 523.659 22.1003 526.468C22.2909 526.962 23.6479 529.023 23.0799 530.884C22.9909 531.176 22.396 530.726 22.4644 531.66C22.7518 535.612 23.5806 539.62 23.9741 543.572C24.0223 544.059 24.0647 544.547 24.0992 545.035C24.2131 546.595 23.2443 545.939 23.2777 547.589C23.3095 549.239 23.6551 552.545 24.353 554.177C25.0498 555.805 26.0427 553.705 26.6253 556.222C29.1645 567.086 30.9593 578.063 33.8516 588.883C34.2853 590.495 34.3769 589.031 35.058 591.397C37.5007 600.05 42.7846 614.745 44.5023 622.457C45.8695 628.688 42.5665 621.409 43.9 626.08C44.5548 628.349 46.9137 630.138 47.156 630.64C49.5483 635.56 50.2846 639.363 52.3367 643.89C52.7618 644.825 52.98 643.652 53.3355 644.449C54.5505 647.155 55.4621 650.109 56.6098 652.699C57.1259 653.858 57.486 653.452 57.9074 654.541C58.9234 657.147 59.7184 659.503 60.4015 662.2C60.464 662.446 59.2268 661.146 60.0451 663.063C61.3557 666.127 62.6448 670.103 64.6862 673.419C65.2944 674.402 66.3258 673.972 66.6654 676.535C66.7386 677.072 65.2375 677.043 67.5138 679.158C67.8999 679.533 71.361 683.177 71.4813 685.738C71.512 686.413 71.2157 688.325 71.9769 689.488C72.0838 689.644 72.2952 688.708 72.8495 689.708C74.7907 693.228 76.6383 697.073 78.6659 700.643C79.2111 701.6 79.0217 699.858 79.8169 701.293C82.0037 705.237 84.4744 710.318 86.3893 714.327C87.0921 715.802 86.107 715.049 86.1135 715.181C86.204 717.29 87.8243 717.702 88.1865 718.224C90.4288 721.481 91.3591 724.39 93.2525 727.5C93.7741 728.359 93.9432 727.452 94.0858 727.601C95.5374 729.165 93.8667 728.327 94.4024 729.53C95.9068 732.914 97.9476 736.436 99.8578 739.624C100.56 740.793 100.389 739.125 101.012 740.178C104.716 746.404 108.475 752.924 111.798 759.175C112.423 760.352 111.542 759.905 111.583 760.205C111.853 762.278 114.288 764.085 114.717 764.579C116.67 766.826 116.87 768.037 118.305 770.198C125.308 780.745 133.506 794.049 139.985 804.107C148.421 817.205 154.882 827.429 163.623 839.496C164.178 840.262 164.192 839.081 164.678 839.735C170.896 848.163 176.823 856.742 183.26 865.026C183.793 865.714 183.572 864.314 184.445 865.404C186.238 867.635 188.381 870.542 189.946 872.957C190.711 874.135 189.124 872.981 189.904 874.159C191.718 876.904 193.8 879.708 195.969 882.353C196.887 883.47 196.093 881.33 197.245 882.813C205.067 892.857 212.893 902.574 220.337 913.155C220.848 913.881 220.271 915.352 221.66 916.641C222.045 916.51 222.388 916.221 222.743 916.011C234.64 930.273 246.023 944.509 258.278 958.624C258.786 959.209 258.452 957.722 259.439 958.851C265.276 965.525 270.973 971.611 276.578 978.854C277.124 979.558 275.873 980.089 277.772 981.883C278.12 982.214 280.829 984.917 281.784 985.542C281.911 985.617 281.853 984.672 282.746 985.615C287.896 991.069 293.066 996.782 297.898 1002.36C298.666 1003.25 297.342 1002.79 297.885 1003.43C301.818 1008.03 306.68 1012.33 310.389 1016.89C312.866 1019.93 311.064 1019.68 311.745 1021.89C311.843 1022.21 313.49 1023.88 313.129 1024.41C312.233 1025.76 310.205 1026.19 309.345 1027.72C309.162 1028.05 311.651 1029.96 309.722 1029.29C309.592 1029.24 307.769 1027.84 307.152 1027.65C306.726 1027.52 306.779 1028.48 306.019 1028.09C305.258 1027.7 305.006 1026.69 303.819 1025.94C302.626 1025.18 302.544 1026.14 300.522 1024.22ZM6.5813 368.754C6.02745 370.901 8.27861 371.152 7.67877 368.865C7.64714 368.755 6.60836 368.644 6.5813 368.754ZM11.3606 111.039C10.2052 113.745 11.5444 115.744 12.4243 113.826C13.3036 111.912 11.7112 110.216 11.3606 111.039ZM12.5219 82.1454C11.5176 85.3406 14.6557 86.0737 14.2559 82.5477C14.2337 82.3433 12.5803 81.9591 12.5219 82.1454ZM304.785 1015.31C304.785 1015.35 305.938 1016.57 305.986 1016.57C307.118 1016.71 304.815 1014.28 304.785 1015.31ZM13.8739 53.4829C13.3644 54.454 13.6282 57.4324 14.2615 56.2065C14.7708 55.2156 14.5077 52.2683 13.8739 53.4829ZM10.4547 479.864C10.4243 479.9 10.5072 481.137 10.6932 481.095C11.2913 480.956 10.9637 479.254 10.4547 479.864ZM18.2054 4.9232C17.355 12.1207 14.3158 16.3045 15.3908 8.40271C15.5883 6.95983 15.914 11.6127 16.3332 9.78719C17.0981 6.45299 15.6784 4.10756 16.8948 0.965396C17.1169 0.38826 18.2597 4.50307 18.2077 4.93619C18.207 4.93172 18.2062 4.92767 18.2054 4.9232ZM3.92159 370.055C3.89296 370.099 3.91295 371.81 3.94367 371.851C4.68162 372.756 4.64165 369.31 3.92159 370.055ZM17.851 551.586C17.7988 551.688 18.4375 555.625 18.5241 555.745C20.0325 557.576 18.7455 549.643 17.851 551.586ZM1.7728 254.753C1.0873 252.873 1.04239 250.64 1.96936 249.173C1.88752 251.022 1.84781 252.887 1.7728 254.753Z" fill="#69C9A0"/>
</svg>
