<svg width="113" height="101" viewBox="0 0 113 101" fill="none" xmlns="http://www.w3.org/2000/svg">
<path d="M3.36458 0.721159C4.75189 1.23328 6.65146 2.1256 7.96087 2.80837C8.38565 3.02815 8.11327 3.05278 8.40875 3.21244C8.989 3.52593 9.56793 3.71379 10.1208 4.03096C10.3035 4.13661 9.97898 4.22021 10.1722 4.32653C11.2054 4.89613 12.324 5.35332 13.4002 5.91084C18.7662 8.69553 24.0574 11.5343 29.1871 15.0028C30.8913 16.1539 32.7851 17.7319 34.5008 18.986C34.7003 19.1311 34.6995 18.8956 34.7457 18.9128C35.4661 19.1901 35.0423 19.328 35.3794 19.6657C36.7523 21.0372 38.2894 22.4468 39.6488 23.713C40.2192 24.2458 39.9323 23.4318 40.3343 24.1374C40.3621 24.1861 40.0847 24.1808 40.2176 24.3481C40.5269 24.7327 41.1812 25.3853 41.4193 25.6752C41.8784 26.2333 41.9634 26.3281 42.4076 26.8508C43.0109 27.5661 43.6377 28.5019 44.2751 29.2765C44.4124 29.4426 44.4016 29.0936 44.6352 29.3491C44.8704 29.6041 45.3902 30.354 45.5258 30.6335C45.6628 30.9123 45.4582 30.895 45.4596 30.9601C45.4635 31.4954 46.3925 32.1297 46.4748 32.2408C47.9674 34.2138 48.7944 36.1777 49.8407 38.2253C50.6296 39.7703 51.4941 41.4421 52.1414 42.9521C52.9224 44.7773 53.4419 46.3453 54.1553 48.1212C54.2307 48.3102 54.364 48.0023 54.4567 48.2335C55.4249 50.6529 56.2859 53.0922 57.0094 55.6008C57.0134 55.6146 57.0163 55.6269 57.0181 55.6379C57.0521 55.8352 56.7763 55.6151 56.8362 55.8658C57.2453 57.4849 57.4768 59.9601 58.5431 60.7678C58.7327 61.8461 58.8964 63.2183 58.795 64.2191C58.7289 64.8755 58.461 64.2689 58.606 65.0425C58.6365 65.2161 58.8225 64.9782 58.8524 65.2406C58.9777 66.361 58.8826 67.6035 58.8467 68.7345C58.8402 68.9613 59.0228 68.9228 59.0461 68.991C59.2328 69.5992 58.6241 70.4396 58.5449 70.6127C57.9462 72.0601 57.6187 73.1331 56.8239 74.3715C56.6285 74.6612 57.0588 74.4491 56.8716 74.7358C55.9192 76.202 54.3133 77.4375 52.5958 77.8372C52.2167 77.9253 52.5012 77.6301 52.32 77.6599C51.5273 77.7668 51.434 78.1653 50.6328 78.1464C50.4739 78.1379 50.5547 77.9599 50.5252 77.9423C50.0817 77.6648 49.6907 78.0669 49.5638 78.0687C48.0764 78.083 47.2584 77.3879 46.0084 76.969C45.8549 76.9149 46.1142 77.2591 45.6837 77.0905C42.781 75.9167 40.3605 73.8502 38.4234 71.6585C38.1245 71.3173 38.4692 71.432 38.4635 71.3974C38.367 70.8466 37.8507 70.9174 37.7338 70.8166C36.8698 70.0651 36.4153 68.9792 35.5375 68.7032C32.6019 64.8188 29.8127 60.7448 27.9948 56.2604C27.9857 56.2383 27.9766 56.2162 27.9676 56.1941C27.942 56.1329 28.1824 56.1423 28.1308 56.0209C27.5287 54.5721 27.3807 54.9936 26.5913 54.2659C26.3922 54.0808 26.5242 53.2118 26.5328 53.1422C26.5567 52.8774 26.9393 52.9697 26.9306 52.8887C26.8475 52.2103 25.9776 52.8056 25.5972 51.8966C25.5872 51.8679 25.8113 51.9135 25.7976 51.8309C25.7558 51.5747 25.5935 51.3736 25.5662 51.1258C25.508 50.5596 25.9063 50.2072 25.371 49.5673C25.3047 49.4877 24.794 49.8179 24.5762 49.0728C24.5078 48.861 24.0368 47.2838 24.0006 46.9142C23.9439 46.5124 24.1916 46.7395 24.1926 46.7092C24.2046 45.6224 24.3966 45.9952 24.6643 45.4376C24.936 44.8536 24.0955 45.1225 23.9635 44.9065C23.8263 44.6782 23.9452 43.8402 24.0103 43.653C24.0697 43.459 24.2037 43.6868 24.234 43.5178C24.4575 42.4337 23.7831 43.0586 23.639 42.6897C23.3255 41.6488 24.0694 41.0203 24.3388 40.2704C24.4209 40.0477 24.2238 40.1917 24.273 39.9841C24.5024 39.1539 24.8433 38.8684 25.2634 37.9825C25.3138 37.8491 25.5718 36.9658 26.1638 36.8765C26.2434 36.8672 26.1927 37.1091 26.4842 36.9315C26.9023 36.6651 27.7871 36.2412 28.2429 36.0318C28.5995 35.8632 28.0799 35.7576 28.5899 35.677C28.8175 35.6464 28.4641 35.9153 28.8833 35.85C29.0921 35.8191 29.4594 35.7387 29.844 35.6746C30.1969 35.6149 30.5366 35.5705 30.7356 35.5473C31.1292 35.5035 30.8966 35.3232 30.9267 35.3063C31.1108 35.2052 31.9167 35.0722 31.9946 35.0761C35.5216 35.0415 38.4671 36.1505 41.6817 37.0512C41.9246 37.1215 41.8311 36.8665 41.8688 36.8751C42.7269 37.0661 41.8928 37.3853 42.4093 37.7614C42.4665 37.3236 42.7819 37.5119 43.3944 37.6824C43.6903 37.7651 43.5911 37.5507 43.6232 37.5441C44.1408 37.4617 44.3302 37.8862 44.3833 37.9783C44.5819 38.3186 44.9624 38.153 45.0882 38.3805C45.2098 38.6053 44.7022 38.6658 45.2444 38.8779C45.4549 38.7952 45.1997 38.2564 45.6396 38.362C47.3434 38.763 50.1087 40.3798 51.3502 41.0448C52.5987 41.7024 52.9527 41.8593 53.6428 42.2837C54.8728 43.0517 54.5463 42.5382 55.4141 42.8536C56.2884 43.1782 55.5371 43.6094 55.5758 43.8122C55.6151 44.0159 55.8077 43.9359 55.9005 44.088C55.9915 44.2393 55.6491 44.1711 55.9476 44.3762C56.245 44.5796 57.2513 44.8303 57.4488 44.7536C57.865 44.5883 57.6552 44.0366 58.4397 44.6462C58.4846 44.6816 58.2275 44.756 58.4046 44.883C59.8421 45.9031 61.3023 46.8157 62.6852 47.8624C62.8743 48.0062 62.5791 48.0734 62.6877 48.1591C63.8156 49.0553 63.5984 48.4806 64.4649 48.5658C64.0237 48.9214 64.1946 49.4259 65.0795 50.0264C65.612 50.3893 65.6525 50.1327 66.0928 50.2324C66.2252 50.2622 66.513 50.6567 66.6448 50.6134C67.0782 50.4737 66.9498 49.8885 67.7832 50.6675C67.8194 50.7022 67.5764 50.774 67.7097 50.8821C68.5775 51.5894 68.8826 51.3414 69.8683 51.9969C70.6378 52.5083 71.8322 53.6815 72.6605 54.3616C72.2764 54.8305 73.1408 55.3165 73.7151 55.2337C74.2431 55.6642 74.8393 56.1024 75.3232 56.5613C75.4898 56.719 75.2629 56.7628 75.2736 56.7956C75.4332 57.3032 75.9205 57.1734 76.0467 57.2545C77.4074 58.153 78.1886 59.2016 79.5554 59.9678C79.6037 59.9948 79.9446 59.7313 80.057 60.2323C80.0632 60.2657 79.5537 60.0812 80.0923 60.5626C80.6355 61.0477 81.503 62.1041 82.3738 62.6212C82.5846 62.7461 83.2687 62.9001 83.4533 63.4287C83.4774 63.4996 83.3432 63.5409 83.3679 63.6541C83.4494 64.0176 83.8598 63.8156 83.8801 64.325C83.8987 64.833 84.2688 65.541 85.1639 66.0413C85.192 66.0577 85.5959 65.9744 85.821 66.1954C86.1801 66.5478 86.6476 67.0934 87.0271 67.4585C87.2089 67.6333 87.239 67.3706 87.2731 67.3983C88.5729 68.4997 89.3011 69.4898 90.5059 70.8453C90.7265 71.0938 91.5973 71.5868 91.8769 72.2121C92.1825 72.898 90.9389 73.0707 92.2211 74.0886C92.7331 74.4975 94.2612 74.231 94.5447 75.5626C96.1921 77.1566 97.3008 78.9883 98.9289 80.6117C99.002 80.6847 99.4904 80.709 99.6387 80.9015C99.8582 81.1875 99.8482 81.4482 99.9992 81.6561C100.628 82.5299 101.349 83.2231 101.958 84.0653C102.189 84.3851 101.966 84.3808 102.24 84.7625C102.512 85.1441 102.886 85.2577 103.171 85.8373C103.386 86.2761 103.281 86.9393 103.606 87.4909C104 87.24 104.248 87.6024 104.795 88.1719C104.9 88.2814 104.942 88.0565 104.999 88.1035C105.233 88.2933 105.274 88.59 105.504 88.7646C105.56 88.8073 105.693 88.7198 105.746 88.7497C106.203 89.0012 106.332 89.8376 106.352 89.9808C106.432 90.53 106.734 90.6111 106.866 90.9841C106.997 91.3563 106.587 90.9402 106.783 91.3458C107.193 92.1915 107.853 93.1899 108.337 93.999C108.532 94.3213 108.58 93.9914 108.612 94.0349C109.064 94.6734 109.268 95.4642 109.851 95.6229C109.172 96.6391 110.182 95.9741 110.544 97.0599C110.571 97.1458 110.173 97.4965 109.942 97.2406C109.711 96.9859 109.596 96.457 109.261 96.1175C109.182 96.0358 108.445 95.7408 108.376 95.683C107.837 95.2257 108.451 94.7456 108.469 94.6927C108.654 94.1077 107.802 93.7202 107.664 93.5679C107.034 92.8659 106.698 92.1381 106.176 91.552C105.835 91.1699 105.383 91.4083 105.178 91.0699C104.493 89.9483 104.813 89.1622 103.594 88.4897C103.333 88.346 103.034 88.8826 102.837 87.8503C102.824 87.7852 102.735 86.9742 102.289 86.7919C102.233 86.769 102.103 86.8656 102.052 86.8189C101.714 86.5043 101.639 86.1841 101.294 85.8236C100.949 85.4634 100.517 85.0439 100.217 84.5615C100.037 84.271 100.007 83.7402 99.965 83.5654C99.8491 83.0692 99.2677 82.8938 99.2926 82.5107C99.3157 82.1235 99.9763 82.3232 99.6336 81.6236C99.2874 81.8635 98.9099 82.0822 98.5517 82.311C97.5317 81.011 96.5953 79.6692 95.4969 78.4196C95.3604 78.2651 95.3266 78.5721 95.1759 78.4106C94.541 77.7296 94.125 77.0119 93.433 76.3347C92.8965 75.8112 92.1689 75.3667 91.5959 74.8359C91.6259 74.1586 90.7111 73.4191 90.1601 72.7804C89.9669 72.5564 90.0733 72.4818 89.9578 72.3012C89.5187 71.6224 89.471 72.1856 89.2721 72.0761C88.4196 71.6092 89.0517 70.8786 88.2591 70.1143C88.2174 70.0732 87.3484 69.9302 87.2564 69.8845C86.6663 69.5931 87.3087 69.6848 87.0571 69.383C86.5972 68.8328 86.3269 68.3977 85.6205 67.9263C85.4138 67.7891 84.7721 67.6176 84.5995 67.1145C84.5767 67.0483 84.7181 66.9487 84.6885 66.9072C84.1436 66.1662 83.7605 66.539 83.2572 66.3171C82.7541 66.0956 82.4121 65.2843 82.3621 65.096C82.2308 64.6058 82.6831 65.2299 82.7182 65.226C83.1351 65.1738 82.6654 64.8178 82.3518 64.4975C82.6546 64.0667 82.1675 63.6697 82.025 64.1673C82.0102 64.2222 82.3012 64.4193 82.3518 64.4975C81.7163 64.6129 81.1663 64.2055 80.9181 63.3462C80.8017 62.9443 81.2263 62.9673 80.3547 62.3307C79.9566 62.0407 79.8623 62.4353 79.4701 62.2248C78.5738 61.7437 77.8126 60.6577 76.9982 60.0504C76.7031 59.8303 76.8529 60.2104 76.647 60.0656C76.0992 59.6812 75.7467 59.2018 75.1675 58.8305C75.1153 58.7975 75.1023 59.0518 74.937 58.9217C73.6817 57.9401 72.681 56.987 71.3831 55.9938C70.74 55.5005 69.5218 54.7338 68.8701 54.2315C67.7497 53.3637 66.4724 52.0951 65.4144 51.4593C64.7285 51.0464 64.7575 51.3168 64.3973 51.242C63.7004 51.0976 63.0235 50.0651 62.9218 49.909C62.9236 49.9069 63.5167 50.24 63.2733 49.9526C63.2201 49.6535 62.9276 49.9118 62.9218 49.909C62.8601 49.8082 61.7202 49.0128 61.4692 48.9016C61.3323 48.8398 61.2974 49.0492 61.2282 49.014C59.5969 48.1822 58.006 47.2709 56.4437 46.2629C56.4175 46.2432 56.5691 46.0785 56.5062 46.0347C55.6246 45.4151 54.927 45.3312 54.0478 45.0302C53.1844 44.739 52.5962 44.3689 52.3099 43.7968C51.7013 43.532 50.9533 42.9675 50.4767 42.6212C50.0167 42.2828 49.7624 42.6335 49.7147 42.6195C48.2171 42.1985 47.6217 41.6553 46.142 40.9773C45.4457 40.6567 44.1259 40.1905 43.3395 39.9488C42.719 39.7569 42.3919 39.5341 41.8266 39.4063C41.7504 39.3891 41.7631 39.5936 41.7384 39.5928C41.0644 39.6028 41.5016 39.2632 41.4033 39.1427C41.0369 38.7056 40.8586 38.475 39.972 38.3561C39.7708 38.3293 39.0467 38.8141 38.7121 38.7653C38.2745 38.7 38.4939 38.5101 38.0392 38.4547C38.0008 38.4502 37.9719 38.594 37.7065 38.5231C36.3945 38.1801 35.0918 37.85 33.6987 37.7463C33.5169 37.7331 33.7292 37.984 33.4702 37.9703C32.3098 37.9084 30.9923 37.9405 29.9899 38.0547C29.7289 38.0852 29.8513 37.89 29.7844 37.8555C29.3547 37.6516 29.0426 38.2139 28.9927 38.245C27.5028 39.0727 26.573 39.6776 26.4017 41.6127C26.3885 41.7035 26.7727 42.5718 26.3983 42.9243C26.3719 42.9432 25.9766 43.3195 26.2788 43.6463C26.2981 43.6659 26.4834 43.4117 26.4981 43.8292C26.5106 44.2375 26.7646 45.0038 26.6533 45.5658C26.6197 45.7563 26.3221 46.2866 26.7889 46.7966C26.8132 46.8179 27.784 47.5834 27.3997 47.999C27.3384 48.0723 26.8124 48.1783 27.2911 48.7462C27.3842 48.8546 27.4157 48.5883 27.6007 48.8947C27.8849 49.3624 28.0173 50.1124 28.516 50.7032C28.5593 50.7535 28.7173 50.8741 28.853 51.0385C28.9786 51.1793 29.083 51.3669 29.0367 51.5992C29.0223 51.6722 28.814 51.6364 28.8795 51.8337C29.1923 52.7747 29.7719 53.7175 30.1803 54.7852C30.2554 54.9811 30.1997 55.0621 30.1452 55.1511C30.0935 55.2325 30.0431 55.3213 30.1014 55.5135C30.2221 55.9128 30.5384 56.665 30.8504 56.9653C31.162 57.2654 31.3453 56.6556 31.6712 57.1738C33.1144 59.4627 34.2592 61.8409 35.7768 64.0502C36.0006 64.3738 35.9437 64.0172 36.2816 64.4794C37.5319 66.2346 40.0036 68.8871 41.0801 70.3299C41.9801 71.5445 40.4636 70.4284 41.2257 71.282C41.6008 71.6947 42.3605 71.6419 42.4768 71.7157C43.5604 72.3843 44.122 73.0643 45.0684 73.5507C45.2739 73.6545 45.1884 73.3566 45.3608 73.4451C45.949 73.7421 46.468 74.1054 47.0338 74.3167C47.2784 74.4054 47.2926 74.2356 47.5024 74.3262C48.036 74.5463 48.4485 74.7312 48.9604 74.9777C49.0079 74.9998 48.6421 75.1435 49.0484 75.2198C49.6716 75.3358 50.5196 75.5068 51.1788 75.2163C51.3707 75.1274 51.2898 74.7755 51.7589 74.8996C51.8541 74.9202 51.9134 75.3926 52.237 74.838C52.3214 74.7427 52.7158 73.939 53.2104 73.935C53.3429 73.941 53.8067 74.0191 53.9474 73.7823C53.9638 73.7507 53.7249 73.7149 53.8516 73.5476C54.2832 72.9745 54.7299 72.2817 54.9855 71.5091C55.0529 71.3013 54.7394 71.5207 54.842 71.2159C55.1214 70.3844 55.4306 69.2756 55.6022 68.3402C55.6653 68.0035 55.8092 68.2567 55.8307 68.2347C56.178 67.8585 55.7845 67.5665 55.7694 67.4284C55.6758 66.5895 55.861 65.8956 55.7666 65.1148C55.7397 64.8938 55.5538 65.0633 55.5337 65.0203C55.3325 64.5756 55.7072 64.8923 55.7234 64.5952C55.7671 63.7627 55.6253 62.8403 55.449 62.0232C55.3838 61.724 55.224 62.1035 55.1673 61.8355C54.8152 60.2068 54.3823 58.589 53.9551 56.9839C53.8734 56.6787 54.1038 56.8074 54.1196 56.732C54.1243 56.7096 54.1278 56.6871 54.1301 56.6648C54.175 56.1493 53.6315 55.6708 53.5483 55.542C53.1509 54.9259 53.2078 54.6289 52.964 54.0426C51.7851 51.2119 50.5305 47.653 49.4567 45.0038C48.0543 41.5494 46.9463 38.8855 45.131 35.8864C45.0145 35.6955 44.93 36.0079 44.8272 35.8457C43.5143 33.7595 42.2123 31.714 40.6135 29.8486C40.4823 29.6953 40.4947 30.0594 40.2785 29.8192C39.8379 29.3326 39.3027 28.6893 38.9083 28.1456C38.7167 27.8819 39.1488 28.079 38.9519 27.8155C38.4937 27.2028 37.9276 26.5835 37.3509 26.0551C37.1028 25.8287 37.301 26.3454 36.9912 26.04C34.8705 23.9659 32.6049 22.1267 30.3207 20.1013C30.1631 19.962 30.2821 19.4817 29.8603 19.2895C29.7588 19.3733 29.6738 19.4965 29.5835 19.599C25.9827 17.1369 22.2676 14.7741 18.3172 12.6656C18.1493 12.5762 18.3219 12.941 18.0054 12.7741C16.1623 11.8045 14.3018 10.9533 12.4269 9.79129C12.2466 9.67939 12.5299 9.34058 11.9359 9.13088C11.8324 9.09443 10.9456 8.74119 10.6788 8.7201C10.6422 8.71853 10.7177 8.9733 10.4337 8.84784C8.78238 8.11498 7.09747 7.3091 5.51535 6.48452C5.26178 6.35185 5.62549 6.27911 5.44535 6.18285C4.16528 5.50073 2.60626 5.01068 1.41637 4.30275C0.603126 3.82143 1.06376 3.6167 0.73905 3.09008C0.69338 3.01575 0.151569 2.78229 0.203038 2.57629C0.332227 2.05789 0.819172 1.63325 0.92564 1.06774C0.94979 0.946249 0.160108 0.761629 0.71005 0.671477C0.748557 0.666041 1.32004 0.797255 1.48854 0.759692C1.60603 0.734045 1.52382 0.468463 1.74351 0.464441C1.96306 0.460497 2.09787 0.71065 2.44285 0.742801C2.78753 0.773642 2.74922 0.493609 3.36458 0.721159ZM48.4232 41.1453C48.051 40.7507 47.6764 41.402 48.241 41.4629C48.2688 41.4652 48.4425 41.1652 48.4232 41.1453ZM97.0256 79.3196C96.8446 78.5911 96.1754 78.5548 96.2882 79.0808C96.3995 79.6058 97.0803 79.5407 97.0256 79.3196ZM101.563 84.6316C101.295 83.8456 100.377 84.3912 101.055 84.9304C101.094 84.9619 101.579 84.6775 101.563 84.6316ZM2.90358 3.88732C2.90127 3.87549 2.52602 3.70621 2.51285 3.7114C2.21872 3.84483 2.96879 4.18296 2.90358 3.88732ZM105.798 90.1335C105.781 89.8488 105.246 89.3545 105.27 89.7077C105.289 89.9911 105.819 90.4867 105.798 90.1335ZM24.6965 40.3466C24.6815 40.3526 24.5953 40.6482 24.6613 40.6489C24.8565 40.6916 24.9133 40.2638 24.6965 40.3466ZM111.825 100.272C111.06 98.7164 111.31 97.3597 112.13 99.0928C112.276 99.4062 111.534 98.5664 111.671 98.9917C111.92 99.7666 112.654 99.9873 112.762 100.851C112.78 101.006 111.868 100.36 111.823 100.27C111.823 100.27 111.824 100.271 111.825 100.272ZM48.5323 40.2077C48.527 40.1942 48.1622 40.0191 48.1496 40.0245C47.8534 40.1512 48.5858 40.5027 48.5323 40.2077ZM28.679 57.1143C28.6712 57.1471 29.1129 58.0112 29.1451 58.027C29.7244 58.285 28.8365 56.5471 28.679 57.1143ZM72.6638 54.3844C73.1659 54.4663 73.6124 54.7743 73.7136 55.2322C73.3682 54.9445 73.0121 54.668 72.6638 54.3844Z" fill="#69C9A0"/>
</svg>
