<svg width="195" height="178" viewBox="0 0 195 178" fill="none" xmlns="http://www.w3.org/2000/svg">
<path d="M61.4464 32.1144C50.6506 43.3862 46.6458 49.0473 44.967 66.4939C42.9241 67.1788 41.923 67.8437 40.9066 68.3473C39.8903 68.8509 38.8891 69.1833 37.8728 69.5208L37.8726 69.5208C32.4469 71.2081 25.0143 73.7172 18.9914 75.5647C14.6073 76.9094 9.58894 76.6414 4.66609 78.7578C3.48285 79.2665 2.42427 80.1764 3.35643 80.2638C6.90109 80.5962 12.3483 80.714 18.87 81.7747C26.1161 82.9533 34.8975 80.634 38.0597 84.9729C38.5553 85.6529 37.8777 86.5954 37.8827 87.6625C37.908 93.0667 44.8773 101.274 45.8115 106.973C46.666 112.185 47.449 118.344 51.2169 122.752C55.1004 127.295 58.8872 134.818 64.1972 139.876C68.2475 143.734 75.2563 152.46 83.5892 158.179C92.9236 164.586 105.433 174.933 122.975 174.78C142.508 174.608 156.826 174.142 160.616 172.251C163.23 170.947 164.763 169.198 166.375 167.36L166.507 167.21C170.047 163.175 174.473 158.922 177.798 142.324C179.138 135.636 180.835 123.401 185.899 109.239C188.584 101.73 191.549 91.9832 189.069 78.6622C185.863 61.4372 180.133 42.8515 169.809 33.026C154.149 18.1229 144.609 14.4354 137.816 11.9229C131.92 9.74208 127.017 5.29325 119.607 4.20188C111.673 3.0334 103.285 4.32547 96.3317 7.75265C82.6486 14.4966 69.2834 23.9318 61.4464 32.1144Z" fill="white"/>
<path d="M156.489 97.9582C156.7 98.2921 155.822 97.9794 156.336 98.5039C156.201 98.5192 156.064 98.5345 155.927 98.548C155.933 98.3769 155.939 98.2057 155.947 98.0337C156.128 98.0095 156.309 97.9841 156.489 97.9574C156.489 97.9577 156.489 97.9579 156.489 97.9582ZM157.144 95.9262C156.91 96.3689 156.414 96.419 156.822 96.937C156.897 96.7817 156.971 96.627 157.043 96.4726C157.189 96.6258 157.339 96.7759 157.491 96.9214C157.565 96.8691 157.638 96.8166 157.711 96.7652C157.742 97.0502 157.774 97.3336 157.81 97.6149C157.744 97.5681 157.678 97.52 157.612 97.4722C157.286 97.6645 157.013 97.6991 156.608 97.6883C156.629 97.7595 156.65 97.8298 156.671 97.9006C156.492 97.7623 156.315 97.6196 156.143 97.4732C156.342 97.3889 156.561 97.2943 156.741 97.2143C156.584 96.7368 156.095 96.9025 155.839 96.9522C155.492 97.0194 155.619 96.8186 155.364 96.86C155.323 96.8662 155.273 97.0344 155.198 97.0217C154.82 96.9595 154.142 96.6898 154.677 96.3933C155.257 96.5932 155.849 96.3907 156.406 96.6147C156.356 96.1371 156.698 96.0465 157.144 95.9262ZM146.628 94.9795C146.861 94.7265 147.168 94.9006 147.348 95.1326C147.348 95.1326 147.348 95.1327 147.348 95.1327C147.387 95.1841 147.409 95.5693 147.254 95.5278C146.999 95.4595 147.004 94.8518 146.774 95.2263C146.729 95.1418 146.678 95.0645 146.628 94.9795ZM146.042 94.9196C145.911 94.7467 146.085 94.3071 146.261 94.4642C146.261 94.4639 146.261 94.4635 146.261 94.4632C146.335 94.5289 146.088 94.8538 146.478 94.5481C146.479 94.838 146.483 95.1012 146.483 95.3794C146.408 95.3724 146.339 95.3691 146.259 95.3604C146.416 94.9105 146.169 95.0899 146.042 94.9196ZM154.314 96.5163C154.181 96.8372 154.299 96.8665 154.434 97.1417C154.243 97.0855 154.054 97.0265 153.866 96.9666C154.017 96.8159 154.166 96.6661 154.314 96.5163ZM158.825 97.3048C158.825 97.3048 158.825 97.3048 158.826 97.3049C158.832 97.301 158.838 97.2972 158.845 97.2933C158.907 97.2551 158.97 97.2168 159.031 97.1793C159.055 97.2868 159.079 97.3932 159.104 97.4997C159.338 97.414 159.571 97.3281 159.799 97.2418C159.74 97.5525 159.351 97.4851 159.102 97.6961C158.979 97.6529 158.883 97.5961 158.814 97.5269C158.703 97.4173 158.658 97.2764 158.669 97.107C158.72 97.1732 158.771 97.2396 158.825 97.3048ZM109.25 89.6413C109.182 89.813 109.116 89.9849 109.048 90.1566C109.142 90.2334 109.235 90.2917 109.33 90.381C109.565 89.635 109.596 90.2921 109.915 90.2433C110.791 90.11 110.676 89.1831 111.268 90.1659C111.343 90.2886 111.429 90.4412 111.528 90.6289C111.423 90.6173 111.339 90.6248 111.271 90.6479H111.271C110.884 90.7817 111.032 91.4366 110.673 91.9609C110.58 91.495 110.996 90.4403 110.707 90.2237C110.214 90.7207 109.74 91.1843 109.198 91.5081C109.215 91.5885 109.232 91.6691 109.249 91.7494C109.335 91.6978 109.421 91.6458 109.507 91.5942C109.416 91.8107 109.327 92.0252 109.235 92.244C109.349 91.7537 109.046 92.03 109.078 91.4678C109.093 91.2175 109.224 90.869 109.301 90.629C109.092 90.5013 108.877 90.385 108.663 90.2619C108.769 90.0612 108.876 89.8602 108.981 89.6595C109.07 89.6521 109.159 89.6464 109.248 89.6391C109.249 89.6398 109.249 89.6405 109.25 89.6413ZM64.4474 93.4715C64.6882 93.1804 65.1665 93.1085 65.4506 93.4361C65.1161 93.4482 64.7822 93.4603 64.4474 93.4715ZM158.679 96.8787C158.704 96.9336 158.726 96.9877 158.751 97.0422C158.599 97.1266 158.444 97.2104 158.288 97.2951C158.284 97.1409 158.28 96.9861 158.276 96.8315C158.41 96.848 158.545 96.8642 158.679 96.8787ZM150.164 95.0579C150.258 95.0695 150.265 95.0778 150.366 95.1326C150.366 95.1324 150.366 95.1322 150.366 95.132C150.408 95.1533 150.739 95.3578 150.652 95.4887C150.47 95.4433 150.28 95.3929 150.091 95.3469C150.115 95.2503 150.142 95.1557 150.164 95.0579ZM152.284 95.7519C152.284 95.7523 152.284 95.7527 152.284 95.7531C152.345 95.7948 152.394 95.8561 152.463 95.886C152.129 96.0159 152.23 95.6266 151.965 95.6634C151.699 95.7015 151.489 95.8791 151.485 95.2903C151.582 95.2307 151.701 95.1413 151.806 95.0717C152.05 95.3831 152.208 95.2121 152.545 95.0964C152.458 95.3153 152.371 95.5328 152.284 95.7519ZM113.628 91.3523C113.696 90.9305 113.766 91.3452 113.773 91.3502C113.773 91.3507 113.773 91.3512 113.773 91.3517C114.354 90.9646 113.693 91.5846 114.243 91.6544C114.16 91.7592 114.078 91.87 113.996 91.9762C113.874 91.7718 113.748 91.5404 113.628 91.3523ZM132.459 92.2556C132.452 92.3678 132.445 92.4803 132.438 92.5924C132.11 92.5371 131.984 92.973 131.756 92.5474C131.992 92.4481 132.22 92.3499 132.459 92.2543C132.459 92.2547 132.459 92.2552 132.459 92.2556ZM148.76 94.0804C149.156 93.9995 149.431 93.9952 149.697 94.3293C149.698 94.3296 149.698 94.33 149.698 94.3304C149.713 94.3504 149.572 94.5 149.584 94.5496C149.66 94.5404 149.74 94.5178 149.82 94.5051C149.79 94.6447 149.759 94.7839 149.729 94.9224C149.546 94.8368 149.362 94.752 149.179 94.6682C149.185 94.7565 149.193 94.844 149.199 94.9318C149.021 94.9366 148.847 94.9436 148.667 94.9508C148.787 94.7314 148.906 94.513 149.025 94.2948C148.939 94.2237 148.845 94.1521 148.76 94.0804ZM127.101 90.5558C127.148 90.6876 127.024 90.8943 127.105 91.0105C127.186 91.1251 127.37 90.8986 127.302 91.2559C127.178 91.296 127.048 91.3431 126.921 91.3859C127.261 92.0612 127.709 91.5008 127.648 92.3004C127.282 92.0688 126.967 92.1454 126.582 92.347C126.646 91.7081 127.058 91.1812 126.872 90.5663C126.948 90.5632 127.027 90.5567 127.1 90.5572C127.1 90.5567 127.1 90.5563 127.101 90.5558ZM164.362 93.5666C164.585 93.6274 165.106 93.615 165.385 93.8194C165.453 93.8713 165.667 94.3895 165.663 94.4507C165.647 94.6606 165.358 94.6551 165.66 94.8312C165.557 94.8202 165.455 94.8162 165.353 94.8078C165.365 94.955 165.377 95.1012 165.388 95.2468C165.514 95.2368 165.641 95.2271 165.767 95.2176C165.771 95.265 165.775 95.3124 165.78 95.3596C165.328 95.3208 165.587 95.5258 165.345 95.6806C165.557 95.7822 165.771 95.8802 165.982 95.9751C165.858 95.9584 165.712 95.943 165.603 95.9247C165.578 96.1658 165.842 96.119 165.885 96.165C166.127 96.4219 164.847 96.251 164.724 96.6193C164.928 96.6631 165.143 96.7044 165.351 96.7445C165.289 96.7881 165.226 96.8322 165.164 96.8767C164.697 96.6286 164.165 96.5261 163.617 96.3404C163.567 96.3498 163.516 96.3596 163.466 96.3687C163.474 96.4917 163.481 96.6139 163.49 96.7363C163.413 96.7497 163.335 96.763 163.258 96.7765C163.504 96.374 163.193 96.3768 162.834 96.1043C163.041 95.9686 163.28 96.0694 163.278 95.8014C162.586 95.971 161.812 95.61 161.134 95.8051C160.966 95.8543 160.934 96.2385 160.548 96.1751C160.565 96.1333 160.574 96.0563 160.588 96.0009C159.978 96.1165 159.572 96.1973 159.015 96.0127C158.946 95.9895 158.875 95.9622 158.801 95.9299C158.821 96.0842 158.84 96.2383 158.86 96.3912C158.897 96.378 158.934 96.3648 158.97 96.3516C159.094 96.3065 159.217 96.2611 159.339 96.2164C159.412 96.467 159.247 96.5618 159.698 96.5945C160.066 96.6195 159.858 96.4989 159.965 96.4365C160.109 96.3517 160.209 96.5464 160.364 96.4505C160.484 96.3775 160.381 96.1783 160.666 96.2473C160.528 96.4847 160.385 96.7332 160.24 96.9796C160.173 96.9201 160.108 96.8592 160.041 96.7978C160.121 96.7349 160.199 96.6732 160.277 96.6111C160.011 96.715 159.757 96.8141 159.475 96.9235C159.604 96.5599 159.314 96.6773 159.159 96.7088C158.916 96.7578 159.149 96.5169 158.991 96.5457C158.975 96.5487 158.959 96.5541 158.942 96.5615C158.791 96.6259 158.6 96.8425 158.357 96.7594C158.532 96.6048 158.353 96.429 158.416 96.2753C158.479 96.1219 158.77 96.1251 158.521 95.9168C157.973 95.9752 158.455 96.6559 158.075 96.709C157.608 96.7766 157.691 95.753 157.856 95.5603C157.985 95.4091 158.316 95.5 158.441 95.3496C157.892 94.9452 157.784 95.5372 157.655 95.6388C157.192 96.0016 157.673 94.8963 157.148 95.2223C157.203 95.0063 157.251 94.8119 157.303 94.605C157.221 94.6272 157.161 94.6684 157.065 94.6784C157.236 95.1666 157.024 95.0977 156.91 95.0726C156.732 95.0329 156.96 95.3046 156.901 95.3472C156.74 95.4631 156.549 95.3515 156.632 95.5686C156.595 95.4682 156.555 95.366 156.519 95.2648C156.289 95.323 155.533 96.136 156.071 96.0585C155.938 96.3931 155.819 96.1933 155.71 96.1115C155.6 96.0299 155.542 96.2518 155.444 96.1851C155.056 95.9154 155.452 95.6025 155.599 95.3233C154.989 95.3779 155.491 95.6667 154.645 95.5796C154.487 95.8048 154.784 96.1704 154.422 96.2271C154.499 95.7829 154.369 95.4112 153.986 95.1259C153.91 95.2121 153.833 95.2993 153.755 95.3856C153.674 94.9839 153.854 94.6513 153.552 94.7621L153.552 94.7621C153.494 94.7834 153.418 94.821 153.319 94.8778C153.89 94.0339 153.511 94.5725 153.275 94.0526C153.227 93.9467 153.476 93.821 153.406 93.6817C153.375 93.6187 153.201 93.7196 153.126 93.5606C153.088 93.4826 152.953 93.0098 152.699 93.111C152.668 93.6253 152.17 93.8939 152.335 94.3846C151.809 94.0968 151.329 94.1884 152.19 93.7637C152.095 93.5705 152 93.377 151.903 93.1826C151.76 93.2595 151.625 93.3394 151.482 93.4188C151.596 93.018 151.651 92.9102 151.223 92.8458C151.427 92.8085 151.632 92.7724 151.842 92.7423C151.875 92.6647 151.927 92.5909 151.947 92.5116C151.679 92.5816 151.046 92.4415 150.863 92.5036C150.684 92.5653 150.958 92.6853 150.885 92.7769C150.271 93.5355 150.493 92.9061 150.193 92.98C150.017 93.0263 150.347 93.2264 150.256 93.2412C149.921 93.2972 149.918 92.7887 149.656 92.708C149.678 93.0051 149.691 93.3027 149.706 93.5975C149.442 93.5125 149.133 93.4311 148.859 93.4585C148.751 93.4689 148.773 93.6919 148.753 93.7017C148.652 93.7519 148.3 93.7909 148.263 93.784C148 93.7279 148.066 93.4377 147.812 93.3645C147.916 93.3614 148.02 93.3616 148.123 93.3599C148.282 92.9016 148.442 92.4451 148.602 91.9892C148.36 91.8894 148.112 91.7904 147.861 91.6908C148.016 91.8978 148.158 92.0999 148.31 92.3041C147.924 92.6098 147.546 92.9283 147.17 93.2563C147.071 92.9858 146.981 92.7159 146.881 92.4417C146.453 92.4137 146.327 93.4209 146.317 92.5153C146.175 92.5621 146.046 92.6124 145.907 92.6607C145.951 92.5396 145.995 92.4185 146.038 92.2977C145.877 92.3439 145.709 92.3894 145.551 92.4393C145.608 92.9136 145.666 93.4084 145.725 93.862C145.42 93.9082 145.489 93.5311 145.468 93.4298C145.409 93.1606 145.114 93.4569 145.069 93.2087C145.055 93.123 145.39 92.9264 145.352 92.6209C145.343 92.5633 145.184 91.4259 144.889 91.6203C144.855 91.8151 144.826 92.0564 144.794 92.269C144.443 92.326 144.482 91.2749 144.58 90.9969C144.364 91.1601 144.108 91.1259 144.012 91.4346C143.922 91.4249 143.833 91.415 143.741 91.4053C143.871 90.9982 143.814 90.8304 143.708 90.8658V90.8658C143.622 90.8966 143.501 91.0756 143.433 91.3804C143.489 91.3977 143.545 91.4151 143.601 91.4324C143.696 91.4614 143.79 91.4903 143.882 91.5188C143.65 92.1958 143.891 92.7142 143.443 92.2669V92.2669C143.371 92.1924 143.28 92.0906 143.162 91.9568C143.057 91.4965 143.477 92.074 143.387 91.7278C143.164 91.4939 142.884 91.6044 142.694 91.2595C142.454 90.8272 142.894 90.5323 142.09 90.8795C143.465 92.3719 141.725 91.6493 140.915 91.9167C140.917 90.6725 140.35 90.1615 139.414 90.3863C139.446 90.7475 139.755 90.6145 139.894 90.754C140.033 90.8931 139.83 91.0698 139.999 91.2614C140.164 91.4521 140.554 91.7364 140.706 92.0055C140.512 92.1706 139.598 92.5062 140.243 92.0381C139.887 91.6378 139.755 91.2566 139.255 91.1132C139.018 91.6321 138.979 91.9721 138.478 91.9193C138.887 91.2025 138.406 90.5913 138.649 89.8225C138.971 90.0629 138.66 90.7939 138.808 91.1892C138.824 91.2285 139.182 91.0878 139.255 91.1132C139.033 90.3835 138.954 90.1056 139.286 89.3304C139.039 89.3601 138.903 89.2317 138.824 89.6179C138.802 89.4408 138.779 89.2631 138.756 89.0855C138.68 89.0764 138.608 89.0802 138.527 89.063C138.55 89.6725 138.388 89.272 138.192 89.5149C137.997 89.7592 138.131 90.2588 137.712 90.2017C137.832 90.3623 137.941 90.5006 138.06 90.6524C137.76 90.7636 137.474 90.8802 137.176 90.9964C137.318 91.3896 137.647 91.9833 137.565 92.4587C137.469 92.2628 136.998 92.5291 136.948 92.5372C136.759 92.5651 136.902 92.2727 136.889 92.2636C136.627 92.0813 136.381 92.1584 136.336 91.6806C136.092 91.8639 135.948 91.7253 135.721 91.7105C135.596 91.7023 135.574 92.0494 135.51 91.9757C135.082 91.4847 135.599 91.0842 134.557 91.835C134.64 92.0901 134.72 92.3496 134.8 92.605C134.684 92.6856 134.568 92.7671 134.451 92.8483C134.386 92.7973 134.321 92.746 134.256 92.6948C134.323 92.1675 134.391 91.6392 134.459 91.112C134.384 91.0741 134.308 91.0371 134.235 90.9996C134.372 90.9623 134.517 90.9266 134.657 90.8906C134.681 90.7994 134.704 90.7082 134.728 90.6171C134.547 90.4493 134.365 90.2796 134.186 90.1099C134.159 90.2937 134.133 90.4789 134.106 90.6627C133.693 90.3545 133.69 90.1925 133.21 90.6577C132.885 90.6154 132.524 91.3686 132.3 91.6817C132.245 91.5702 132.189 91.4572 132.133 91.3452C132.072 91.4974 132.012 91.6491 131.951 91.8016C131.889 91.576 131.826 91.3497 131.762 91.1241C131.66 91.615 131.62 91.7683 131.936 91.9719C131.755 92.5762 131.193 92.2561 130.978 92.0276C130.812 91.8541 131.067 91.3535 131.051 91.2888C130.997 91.068 130.676 91.2254 130.616 91.1844C130.359 91.0119 130.175 91.0221 129.943 90.8855C129.898 90.8584 129.797 90.5151 129.787 90.5036C129.705 90.4392 129.501 90.2581 129.479 90.2515C128.241 89.8942 129.459 91.4545 128.298 91.2111C128.316 91.4058 128.331 91.5988 128.349 91.7931C128.26 91.7986 128.171 91.8036 128.082 91.8093C127.985 91.6409 128.145 91.3577 127.903 91.5782C127.937 91.3419 127.972 91.1055 128.007 90.8705C127.9 90.9913 127.795 91.1117 127.685 91.2329C127.596 90.3967 127.042 90.1654 127.159 89.1947C127.199 88.8641 127.631 88.5596 127.445 88.1879C127.276 88.103 127.363 88.5086 127.29 88.5233C126.764 88.6244 126.835 88.0713 126.611 88.2018C126.56 88.4377 126.506 88.6783 126.454 88.9168C126.378 88.8404 126.306 88.7643 126.231 88.6879C126.201 88.8472 126.17 89.0067 126.14 89.1661C126.213 89.1823 126.296 89.1994 126.363 89.2152C126.224 89.8288 125.329 90.0509 125.7 89.5411C125.852 89.3343 126.095 89.4445 125.99 88.6963C125.748 88.7846 125.47 88.8737 125.214 88.9631C125.218 88.8033 125.221 88.6431 125.224 88.4833C124.885 88.5628 125.145 89.2219 125.121 89.5629C125.045 89.5676 124.968 89.571 124.891 89.5757C124.869 89.419 124.849 89.2551 124.825 89.103C124.806 89.3489 124.727 89.9186 124.513 89.6921C124.376 89.5444 124.646 88.9368 124.361 89.0051C124.357 89.3917 124.429 89.8662 124.11 89.9722C124.103 89.5681 124.083 89.1967 124.085 88.7722C123.679 89.1355 123.539 88.5014 123.056 88.9266C122.75 89.1953 122.311 90.1955 122.203 88.6156C121.993 88.5631 122.041 88.958 121.974 89.0429C121.656 89.4449 121.478 88.6888 121.424 88.6419C121.088 88.3432 120.919 88.5951 120.646 88.2285C120.649 88.5219 120.646 88.7992 120.647 89.085C120.928 88.658 121.061 88.6849 121.421 88.7961C121.296 88.8489 121.171 88.9032 121.045 88.9563C121.055 89.1943 121.064 89.4323 121.073 89.6689C122.24 88.7878 121.906 90.2446 120.953 90.5299C120.892 90.0879 120.826 89.6466 120.764 89.2027C120.184 89.8458 119.961 89.2584 119.34 89.0967C119.264 89.078 118.992 89.3234 118.876 89.3324C118.878 89.3342 118.88 89.3359 118.882 89.3377C118.797 89.7528 118.887 89.9479 118.886 90.3211C118.823 90.3661 118.759 90.4109 118.696 90.4559C118.566 90.1675 118.623 89.935 118.347 89.9951C118.375 90.2796 118.403 90.5642 118.431 90.8486C118.132 90.8508 117.942 90.5374 117.663 90.6643C117.713 90.558 117.761 90.4513 117.811 90.3451C117.216 90.0565 117.74 88.3974 117.259 89.2177C117.233 89.0712 117.208 88.9233 117.182 88.7767C117.374 88.7456 117.564 88.7158 117.754 88.6852C117.763 88.4792 117.773 88.274 117.781 88.068C117.577 88.1238 117.371 88.182 117.165 88.2386C117.318 88.1039 117.471 87.9694 117.623 87.8353C117.39 87.7297 117.155 87.6243 116.918 87.5194C117.154 88.285 116.824 88.3697 116.869 89.1233C116.464 88.4883 116.156 87.6541 115.493 88.1722C115.361 88.2756 115.424 88.8034 115.071 88.157C115.147 88.9964 114.688 89.3842 114.737 90.1826C114.863 90.1455 114.994 90.1229 115.116 90.0773C114.981 89.799 114.968 89.0376 115.182 88.8148C115.454 88.5309 115.847 89.0647 115.844 88.2208C115.952 88.2624 116.053 88.2877 116.157 88.3232C116.11 88.5315 116.064 88.7413 116.018 88.9497C116.322 88.6272 116.507 88.7381 116.638 89.268C116.283 89.3819 115.927 89.4956 115.568 89.6104C115.62 89.6471 115.673 89.6841 115.725 89.7196C115.447 90.2547 115.714 90.7691 115.215 90.8781C115.221 90.6314 115.227 90.3845 115.234 90.1366C115.044 90.7938 114.549 90.7854 114.698 91.5463C114.551 91.3116 114.522 91.1638 114.433 91.5725C114.043 90.992 113.794 90.2603 113.942 89.3898C113.794 89.5289 113.646 89.6684 113.498 89.8079C113.582 90.0468 113.666 90.2845 113.748 90.5234C113.494 90.5069 113.237 90.491 112.98 90.4766C112.958 89.7711 113.475 90.2645 113.329 89.6335C113.299 89.5068 113.159 89.7773 113.123 89.7059C112.741 88.9334 113.343 89.4927 113.232 88.9014C112.829 88.7715 112.937 88.2448 112.761 88.2313C112.685 88.2256 112.562 88.3117 112.328 88.5589C112.307 88.3553 112.285 88.1476 112.265 87.9452C111.991 87.9332 112.014 88.3931 111.778 88.4806C111.63 88.5351 111.44 87.7285 111.278 88.2792C111.257 88.3517 111.395 88.8761 111.263 89.1543C111.211 89.2652 111.117 89.337 110.954 89.3256C110.509 89.2949 110.689 88.5968 110.445 88.352C110.199 88.1075 109.655 89.0793 109.479 87.9876C109.608 88.1307 109.769 88.2068 109.912 88.324C109.967 88.1101 110.021 87.8986 110.076 87.6859C109.752 87.9649 109.42 87.6455 109.209 88.1567C108.768 87.387 108.294 88.117 108.441 88.9899C108.581 88.8612 108.42 88.482 108.621 88.7219C108.645 88.9257 108.669 89.1285 108.693 89.3323C108.356 89.3129 108.128 89.3229 108.268 88.6983C108.216 88.6844 108.165 88.6705 108.113 88.6567C108.112 89.1068 108.112 89.5585 108.112 90.0085C108.051 90.0601 107.991 90.1114 107.93 90.1631C107.86 90.0655 107.79 89.9668 107.719 89.8681C107.797 89.1553 107.957 89.1278 107.421 88.7416C107.425 88.9872 107.428 89.2318 107.431 89.4774C106.983 89.1744 106.957 88.5805 106.405 88.6168C106.809 87.7547 107.076 89.2586 107.036 87.5499C107.146 87.6593 107.257 87.7703 107.367 87.8801C107.378 87.6317 107.389 87.3829 107.399 87.1344C106.817 87.2812 105.918 88.9327 105.499 87.8683C105.456 88.001 105.412 88.1166 105.37 88.2591C104.976 87.6227 104.858 89.0826 104.45 88.2582C104.408 88.172 104.448 86.8035 103.948 86.8733C103.966 87.0498 103.983 87.3475 104 87.5705C103.888 87.4661 103.779 87.3567 103.668 87.2502C103.654 87.4143 103.64 87.5784 103.626 87.7437C103.811 87.7998 103.996 87.8574 104.183 87.9141C104.031 87.976 103.879 88.0379 103.73 88.0997C103.937 88.3592 104.026 88.3593 103.921 88.7915C103.751 88.8231 103.58 88.8563 103.409 88.888C103.395 88.9981 103.381 89.1095 103.367 89.2195C103.462 89.5429 103.557 89.8595 103.651 90.1885C103.197 89.9352 102.806 89.9331 102.436 89.3068C102.374 89.2011 102.564 88.77 102.181 89.1669C102.166 88.9432 102.148 88.7618 102.133 88.5551C101.669 89.2026 101.502 89.02 100.97 88.5928C101.32 88.9984 101.012 88.7382 100.937 88.967C100.885 89.1245 101.111 89.0919 101.092 89.2556C101.073 89.4183 100.808 90.0806 101.061 90.1495C101.62 88.789 101.851 90.3829 102.61 89.711C102.494 89.8888 102.38 90.0667 102.267 90.244C102.328 90.3595 102.383 90.4644 102.449 90.5872C102.003 90.3382 102.221 90.5024 102.05 90.715C101.879 90.9276 101.56 91.1131 101.343 91.1766C101.274 91.1966 101.335 90.8944 101.177 90.8717C101.069 90.8562 100.8 91.3088 100.711 90.7887C100.652 90.4509 101.077 89.4949 100.433 89.5239C100.297 89.1962 100.611 89.2862 100.616 89.2458C100.655 88.8465 100.245 88.5674 100.075 88.8781C100.061 88.9047 100.22 89.2064 100.067 89.3342C99.7066 89.6391 99.4714 89.2956 99.2083 88.8321C99.2083 89.3917 98.9272 90.0702 98.5257 89.882C98.5134 90.0417 98.5022 90.2028 98.4901 90.3636C98.5467 90.277 98.6034 90.1915 98.66 90.1047C98.7311 90.2015 98.8047 90.2712 98.8749 90.3862C98.4887 90.5394 98.4705 91.306 98.296 91.5918C97.6983 92.5661 97.9876 90.5395 98.0873 90.1857C98.1786 90.3227 98.2678 90.4765 98.3584 90.6212C98.3395 90.4285 98.3205 90.2343 98.3024 90.0405C97.3329 90.0905 98.0906 88.7958 97.5817 88.4643C97.5037 89.4177 97.1497 89.5236 96.657 88.9531C96.6062 88.9607 96.555 88.9648 96.5043 88.9735C96.5031 89.1108 96.5145 89.3198 96.5054 89.4107C95.9585 89.598 95.7835 88.1665 95.7228 88.0342C95.4562 87.4467 95.3208 88.2931 95.2525 88.3042C94.9642 88.3519 94.8587 87.9894 94.5908 88.1665C94.3048 88.3571 94.5235 88.6249 94.4482 88.8828C94.3878 89.0875 94.1568 89.1374 94.0726 89.3499C94.1009 89.1786 94.1337 89.0101 94.1619 88.8378C93.8418 88.6268 93.5773 88.4203 93.224 88.3894C92.9026 89.6421 92.4448 87.6017 92.6825 89.2639C93.0181 89.3571 93.2157 89.5366 93.4183 89.955C93.2045 90.022 92.9905 90.0873 92.7785 90.1537C92.7042 89.9738 92.6485 89.7977 92.5623 89.6158C92.4249 90.0144 92.0395 89.8698 91.8991 89.9922C91.2408 90.5648 91.4989 91.2004 90.7989 90.1408C91.2456 90.007 91.2075 89.4723 91.6647 89.5165C91.543 89.1394 91.3182 89.2352 91.4376 88.766C91.0092 88.9107 91.1767 89.3087 91.0309 89.6819C90.9053 90.0032 90.6124 90.0384 90.6554 90.4408C90.6108 90.2207 90.5734 90.0074 90.5289 89.788C90.2472 89.8084 89.9635 89.8271 89.682 89.848C89.786 89.6108 89.8921 89.3722 89.9972 89.1343C89.9003 89.0541 89.8031 88.9744 89.7062 88.8947C89.0639 89.6548 87.7739 88.4586 88.0887 90.2027C87.7593 90.2804 87.702 90.063 87.4972 89.7458C87.4865 89.8797 87.4748 89.9913 87.4652 90.14C87.2398 90.0166 87.1093 90.5228 86.9097 90.4065C86.71 90.2915 86.6293 89.8309 86.6575 90.6133C86.5176 90.3972 86.3823 90.22 86.2451 90.0217C86.1841 90.2034 86.1231 90.3827 86.0628 90.5623C85.9407 90.4776 85.8184 90.3938 85.6962 90.31C85.6614 90.682 85.1952 90.554 85.0125 90.8118C84.7926 90.4312 84.7069 89.1991 84.2767 89.458C84.311 89.7608 84.345 90.0628 84.3793 90.3659C84.2723 90.3097 84.165 90.2541 84.0571 90.1987C84.0435 90.1004 84.0307 90.0021 84.0172 89.9039C84.0718 89.9303 84.1257 89.9567 84.1804 89.9843C84.1224 89.8204 84.0655 89.6575 84.0082 89.4942C83.8706 89.7551 83.7326 90.0143 83.5939 90.2718C83.82 90.442 84.046 90.6143 84.2716 90.7884C84.0229 91.0277 83.8212 90.8187 83.6084 91.0793C83.3757 90.6779 83.4319 90.4362 83.4796 89.9802C83.4077 90.0245 83.3348 90.0674 83.2629 90.1115C83.2781 89.6595 83.1314 89.4036 83.5714 89.4013C83.5316 89.2755 83.4917 89.1559 83.4523 89.0253C83.3821 89.0522 83.3273 88.9484 83.2524 89.0053C83.0478 89.1615 82.9442 89.9587 82.9797 90.2316C82.9986 90.375 83.1883 90.0834 83.1956 90.2878C83.2124 90.7877 82.711 90.5947 83.4484 91.0492C83.2401 91.381 83.1701 91.1442 82.908 91.0697C82.9407 91.2333 82.9726 91.396 83.0045 91.5599C82.8803 91.4905 82.756 91.4217 82.6317 91.3532C82.7315 90.4957 81.8336 90.2536 82.5631 89.4499C82.328 89.4331 82.0934 89.4165 81.8583 89.3987C81.8995 89.3086 81.9407 89.2192 81.9818 89.1286C82.09 89.1639 82.1976 89.1986 82.3057 89.2334C82.1704 89.0873 82.0349 88.9432 81.8995 88.7991C81.6233 89.0234 81.5321 89.3315 81.4272 89.709C81.7875 89.9462 81.6481 89.5911 81.9067 89.4937C81.9156 89.7279 81.9445 89.9416 81.9404 90.1886C81.7665 89.7167 81.3474 90.106 81.247 90.1368C80.9392 90.2336 81.1482 89.7447 80.9377 89.7535C80.727 89.7634 80.501 90.0601 80.2929 89.6178C80.3163 89.8742 80.3512 90.1386 80.3821 90.3715C80.0613 90.4819 80.1025 90.1747 80.0655 90.1384C79.472 89.5454 79.2251 90.1149 78.6113 90.2308C78.6961 90.3008 78.7811 90.3636 78.8662 90.4297C78.4425 90.9966 78.7438 90.8076 79.1628 90.9542C78.7791 90.9293 78.5979 91.3947 78.3402 91.5434C78.0816 91.692 77.6053 91.4924 77.4226 91.3295C77.7834 91.02 78.2127 91.1767 78.6337 91.0675C78.5647 90.8181 78.5001 90.6081 78.4275 90.3353C78.211 90.8858 78.031 90.5439 77.9404 90.4824C77.6734 90.3008 77.7179 90.7471 77.5271 90.28C77.5468 90.4445 77.5626 90.583 77.5814 90.7367C77.0584 90.7074 76.4746 90.4745 76.1871 91.093C76.1243 90.7107 76.0703 90.3424 76.0023 89.9541C75.8075 90.2647 75.5954 89.9884 75.4165 90.0746C75.2383 90.1599 75.3339 90.4585 75.1274 90.5952C75.0892 90.6202 74.9899 90.4384 74.903 90.5871C74.8154 90.7394 74.5352 91.7999 74.4155 90.9026C74.2299 90.9141 74.0518 90.8965 73.869 90.8973C74.0417 90.8318 74.2144 90.7674 74.3861 90.7008C74.2171 90.4963 74.0491 90.2949 73.8802 90.0953C73.8773 90.2896 73.8747 90.4871 73.8723 90.6783C73.4861 90.9479 73.1642 90.6637 72.7604 90.7758C72.693 90.7942 72.886 91.1488 72.5744 91.081C72.2626 91.0114 71.9793 90.3596 71.484 90.6721C71.4591 90.689 71.3495 91.2099 71.1336 90.8773C71.0845 90.8025 71.2521 90.6673 71.1462 90.5732C71.0401 90.479 70.6015 90.4411 70.5465 90.202C70.5586 90.2878 70.5933 90.3742 70.614 90.4607C70.5439 90.5101 70.473 90.5594 70.402 90.6076C70.3819 90.4572 70.3613 90.3066 70.3413 90.1571C69.9485 90.5612 69.7772 91.1414 69.1325 91.0185C69.3275 91.212 69.5233 91.4099 69.7186 91.6105C69.754 91.4559 69.7893 91.2997 69.8238 91.1438C70.1192 91.1773 70.4152 91.2119 70.7105 91.2487C70.7428 91.0677 70.7743 90.8865 70.8065 90.704C70.8853 90.7192 70.9632 90.7339 71.042 90.7495C71.034 90.8806 71.0258 91.0109 71.017 91.1417C71.1661 91.0965 71.3164 91.0502 71.4652 91.0042C71.2223 91.7993 70.5983 91.0163 70.693 91.6459C70.616 91.5532 70.5389 91.4605 70.462 91.3683C70.4584 91.6747 70.3115 91.5973 70.0618 91.5696C70.1309 91.713 70.2058 91.8547 70.2705 92.0014C70.0134 91.8077 69.591 91.8593 69.337 91.7987C69.2255 91.7724 69.3153 91.5518 69.2809 91.5293C69.1042 91.4138 68.8202 91.8067 68.7514 91.7818C68.3404 91.6373 68.0242 90.9909 67.6313 91.4724C68.0867 91.5415 67.8401 91.5168 68.0205 91.7499C68.0769 91.8225 68.6677 91.9432 67.9395 91.9239C67.853 91.9152 66.5061 91.5731 66.9054 91.1937C66.7038 91.3251 66.5493 91.4665 66.3655 91.598C65.8134 90.7623 66.0506 91.5714 66.2289 92.0159C66.1513 92.0237 66.0776 92.0339 65.9975 92.0398C66.1249 91.5478 65.2574 91.6036 64.9838 91.8593C64.8921 91.9436 65.1808 92.0686 64.9589 92.1547C64.8475 92.1307 64.7206 92.0989 64.6028 92.0726C64.7946 92.3453 64.4776 92.4771 64.5077 92.7628C64.2754 92.5157 64.0683 91.9957 64.1569 91.6947C63.9953 91.8288 63.8325 91.9603 63.6705 92.0898C63.7564 92.1493 63.8434 92.2088 63.9294 92.2697C63.3504 92.1395 62.6591 92.5721 62.4916 92.0275C62.4172 92.038 62.3422 92.0479 62.2679 92.0583C62.2531 92.1527 62.2391 92.2469 62.2242 92.3406C61.879 92.2855 61.5348 92.2338 61.1902 92.1866C61.4861 92.1071 61.5461 91.9718 61.8707 92.0476C61.7399 91.9542 61.6069 91.8624 61.4787 91.7726C61.0293 92.0969 60.9795 92.2711 60.2578 92.2546C60.225 92.2522 59.6661 92.0894 59.6459 92.0726C59.5531 91.9884 59.6692 91.8398 59.6273 91.7967C59.5108 91.6732 58.8486 91.4368 58.8568 91.3902C58.9596 90.7911 61.0789 90.3781 61.6501 90.2421C67.5637 88.7203 73.4546 88.3528 79.4034 87.4491C79.4643 87.4384 79.4235 87.2655 79.449 87.2543C79.6077 87.1867 79.7895 87.4411 79.8504 87.4447C79.9806 87.451 79.8895 87.204 79.9832 87.1908C80.9501 87.058 81.8778 87.0913 82.8414 86.9213C82.9042 86.9102 82.8562 87.1343 82.9645 87.0821C83.0203 87.0542 83.1746 86.6988 83.3037 86.6766C83.7545 86.6003 84.1409 86.6598 84.6164 86.5954C84.8775 86.5596 85.2711 86.5404 85.562 86.4998C85.6905 86.482 85.8129 86.3075 85.9395 86.2866C86.1191 86.257 86.1055 86.5837 86.1346 86.6004C86.2623 86.6736 86.2543 86.3175 86.3708 86.3119C86.5879 86.3028 86.6165 86.5391 86.8885 86.4874C87.083 86.4501 87.5163 86.2094 87.758 86.1247C88.3548 86.338 89.0735 86.1485 89.6042 85.9951C89.9201 85.9042 89.9724 86.2474 90.1025 86.2329C90.5606 86.1794 90.8768 85.6975 91.3072 85.6373C91.8796 85.5582 92.4025 85.8067 92.9578 85.7762C93.0481 85.771 93.0076 85.4457 93.0955 85.4287C93.421 85.366 93.835 85.2658 94.1279 85.2856C94.4534 85.3068 94.6028 85.7777 94.9148 85.6519C95.0064 85.6146 95.0097 85.1885 95.1628 85.1198C95.4074 85.0112 95.701 85.3625 95.8765 85.3901C96.1173 85.4259 95.8861 85.0085 96.2122 85.039C96.2256 85.0404 96.2907 85.348 96.3592 85.3274C96.5587 85.2686 96.5257 85.0242 96.8218 85.023C96.8504 85.0236 97.2561 85.2907 97.2947 85.2891C97.5217 85.2756 97.9897 85.3455 98.122 85.2715C98.5951 85.0078 98.1912 84.5592 98.6525 85.5628C98.8212 85.2968 98.9883 85.0269 99.1682 84.766C99.05 85.0052 99.5888 85.3008 99.6242 85.2772C99.9196 85.0832 99.7208 84.69 100.108 84.7305C99.6432 85.7021 100.608 84.8185 100.831 84.7796C101.908 84.5924 102.898 84.7722 103.982 84.7132C104.347 84.6928 104.829 84.4678 105.213 84.4561C105.302 84.4525 105.241 84.6825 105.32 84.684C105.398 84.6841 105.304 84.4328 105.395 84.4425C105.961 84.5068 106.41 84.9739 106.908 84.3526C106.935 84.439 106.936 84.5081 106.98 84.6026C107.393 84.0464 108.213 84.7519 108.521 84.8457C109.002 84.9904 109.118 84.6207 109.464 84.6882C109.92 84.7783 110.621 85.4888 110.301 84.306C110.616 84.2644 110.919 84.2507 111.236 84.3586C111.237 84.3588 111.237 84.3592 111.238 84.3597C111.271 84.3832 111.249 84.673 111.263 84.679C111.354 84.7217 111.382 84.4512 111.443 84.4383C111.609 84.4039 111.34 84.7292 111.575 84.6374C111.699 84.5883 111.77 84.3519 112.113 84.346C112.331 84.3428 112.546 84.3412 112.769 84.3412C114.657 84.3405 116.663 84.4545 118.566 84.5689C118.712 84.5774 118.625 84.2835 118.808 84.3099C119.439 84.401 120.559 84.9454 121.113 84.9121C121.664 84.8786 121.559 84.4514 121.909 84.2981C121.977 84.2683 121.911 84.5037 121.971 84.5113C122.378 84.5602 122.838 84.9657 123.158 85.0449C123.373 85.0982 123.377 84.7234 123.529 84.7083C123.756 84.6869 123.963 85.0817 124.08 85.103C124.632 85.2001 125.044 84.9323 125.55 85.1327C125.535 85.0496 125.526 84.9731 125.515 84.8915C126.139 84.9618 126.749 85.0353 127.369 85.1138C127.346 85.0373 127.324 84.9603 127.3 84.8825C128.02 85.0007 127.875 85.7855 127.945 84.1039C128.004 84.0511 128.066 83.9894 128.121 83.9413C128.031 84.8011 128.42 85.4798 128.954 85.7604C128.994 85.781 129.344 84.9812 129.226 85.9609C129.319 85.7287 129.376 85.5681 129.456 85.3644C129.547 85.6759 129.639 85.9835 129.728 86.2924C129.795 86.2557 129.862 86.2206 129.93 86.1842C129.957 85.9938 129.969 85.794 130.007 85.6085C130.311 85.6168 130.886 85.9297 131.123 85.9366C131.711 85.9509 132.354 85.5288 132.743 86.1411C132.967 86.1174 132.79 85.7187 133.111 85.814C133.127 86.0047 133.142 86.1872 133.159 86.3834C133.52 85.5975 133.52 86.1096 133.861 86.336C134.092 86.4899 134.282 86.3158 134.511 86.3921C134.569 86.4116 134.531 86.6492 134.572 86.6478C134.709 86.6439 135.139 86.3795 135.237 86.3874C136.112 86.446 136.866 86.6186 137.674 86.8568C137.763 86.8821 137.679 86.633 137.77 86.6602C137.917 86.7037 137.78 87.0357 137.863 87.0689C138.096 87.1593 138.15 86.7929 138.484 86.8389C139.591 86.9928 140.809 87.5268 141.941 87.8041C141.977 87.812 142.009 87.6088 142.048 87.6156C142.295 87.6626 142.513 87.9953 142.737 88.044C143.117 88.1273 143.447 87.9156 143.826 88.0098C143.964 88.044 144.097 88.0824 144.226 88.1234C144.799 88.3035 145.321 88.5336 145.928 88.7005C146.544 88.8709 147.085 88.9929 147.761 89.1897C150.008 89.8247 152.697 90.44 154.754 91.4673C155.304 91.7253 155.834 91.9853 156.36 92.253C156.42 92.2841 156.359 92.4001 156.38 92.4021C156.578 92.4178 156.638 92.2548 156.608 92.6332C156.863 92.6486 157.002 92.4118 157.277 92.5295C157.425 92.5911 157.22 92.9582 157.525 92.8337C157.802 92.7192 157.582 92.4255 158.236 92.8599C158.254 92.8717 158.303 93.1382 158.463 93.1162C158.623 93.0954 158.479 92.8783 158.845 92.9253C159.026 92.948 159.215 92.9862 159.412 93.0329C160.153 93.2114 161.034 93.4978 161.887 93.6045C161.954 93.6129 162.612 93.6189 162.745 93.5932C163.001 93.5423 162.956 93.3865 163.284 93.4121C163.537 93.4329 163.737 93.6314 164.037 93.652C164.072 93.6542 164.139 93.5036 164.362 93.5666ZM108.146 90.3987C108.09 90.7747 108.005 92.1551 107.618 91.7408C107.581 91.702 107.756 90.7511 107.542 90.6039C107.746 90.5004 107.946 90.4647 108.146 90.3972C108.146 90.3977 108.146 90.3982 108.146 90.3987ZM165.856 97.192C165.57 97.1725 165.283 97.1517 164.996 97.1288C165.197 97.0592 165.399 96.9917 165.599 96.9259C165.685 97.016 165.77 97.1048 165.856 97.192ZM130.726 91.8286C130.726 91.8286 130.726 91.8286 130.727 91.8287C130.409 91.9686 130.102 92.1119 129.789 92.2561C129.832 92.1358 129.875 92.0152 129.918 91.8951C130.171 91.7206 130.419 91.5473 130.677 91.3764C130.693 91.5272 130.71 91.6779 130.726 91.8286ZM133.213 90.7812C133.385 90.9431 133.31 91.1758 133.387 91.4183C133.387 91.4179 133.387 91.4175 133.387 91.417C133.408 91.4802 133.531 91.5464 133.58 91.5606C133.579 91.4103 133.573 91.2612 133.57 91.1116C134.063 90.806 134.758 92.1588 133.587 92.5622C133.626 92.3766 133.665 92.192 133.704 92.0066C133.136 92.0037 132.573 91.5323 133.213 90.7812ZM103.652 91.0899C103.198 91.7728 103.05 91.9153 102.451 91.4739C102.525 91.2827 102.601 91.0913 102.676 90.8997C102.78 91.0898 102.883 91.2789 102.986 91.4695C102.986 91.4695 102.986 91.4695 102.987 91.4695C102.998 91.2661 103.01 91.0623 103.021 90.8588C103.232 90.9354 103.443 91.0125 103.652 91.0899ZM151.124 94.3155C150.961 95.2238 151.093 94.7046 150.675 94.8034C150.531 94.8391 150.601 95.0259 150.517 95.0312C150.065 95.0666 150.211 94.4579 150.397 94.1704C150.644 94.2156 150.883 94.2638 151.123 94.3153C151.123 94.3153 151.123 94.3154 151.124 94.3155ZM162.616 96.4157C162.617 96.4157 162.617 96.4158 162.617 96.4158C162.62 96.5651 162.436 96.6013 162.632 96.7477C162.477 96.7439 162.321 96.7391 162.164 96.7344C162.211 96.7214 162.259 96.7091 162.306 96.6962C162.269 96.6431 162.231 96.589 162.194 96.5353C162.128 96.7085 162.083 96.6058 161.923 96.5402C161.955 96.7313 161.988 96.9213 162.021 97.1101C161.833 97.0519 161.645 96.9914 161.458 96.9287C161.459 96.88 161.46 96.8312 161.461 96.7824C161.385 96.8422 161.308 96.9031 161.231 96.9638C161.216 96.9046 161.202 96.8458 161.187 96.7863C161.096 96.8275 161.005 96.8691 160.914 96.9115C160.899 96.7662 161.096 96.7129 160.753 96.7339C160.87 96.5901 160.987 96.4483 161.102 96.3077C161.607 96.3501 162.112 96.3853 162.616 96.4157ZM147.741 93.7697C148.286 93.8442 148.093 93.9613 147.858 94.4123C147.821 94.1996 147.78 93.9848 147.741 93.7697ZM119.729 90.134C119.552 90.584 119.374 91.0304 119.195 91.4661C118.866 91.712 118.57 90.8708 118.824 90.5512C119.129 90.1683 119.423 90.6155 119.729 90.134ZM112.314 90.2133C112.709 90.4272 112.337 90.9744 112.248 91.2935C112.139 90.7806 111.986 90.8259 111.739 90.7667C111.971 90.733 112.248 90.177 112.314 90.2118C112.314 90.2123 112.314 90.2128 112.314 90.2133ZM126.091 90.9517C126.248 90.9483 126.418 90.8359 126.549 90.9948C126.474 91.413 126.218 91.0119 126.375 91.6493C126.272 91.6537 126.169 91.6579 126.069 91.664C126.152 91.4085 126.081 91.2096 126.091 90.9532C126.091 90.9527 126.091 90.9522 126.091 90.9517ZM142.458 93.2364C142.23 92.7769 142.128 92.9403 141.774 93.1851C141.79 92.8374 142.262 92.3269 142.518 92.2434C142.498 92.5749 142.478 92.9061 142.458 93.2364ZM68.5912 92.6239C68.6395 92.3099 69.1928 92.2329 69.4777 92.3118C69.4489 92.3613 69.42 92.4112 69.3913 92.4611C69.1252 92.5164 68.8577 92.5708 68.5912 92.6239ZM111.622 90.7304C111.663 90.7461 111.702 90.7579 111.739 90.7667C111.698 90.7727 111.659 90.7636 111.622 90.7304ZM94.8218 88.9872C94.9269 88.5043 94.5243 88.3703 95.0127 88.5253C95.0127 88.5248 95.0126 88.5244 95.0126 88.5239C95.3352 88.6264 95.4066 88.6551 95.7001 88.6744C95.6291 89.2953 95.0511 89.5451 95.8719 89.628C95.8826 89.628 95.8411 89.2636 95.9737 89.3063C96.015 89.3196 96.1583 89.6131 96.3597 89.6907C96.4247 89.7154 96.9063 89.7843 96.2569 89.823C96.2995 90.2517 96.2884 90.6881 96.3127 91.1046C96.0685 91.2355 95.8289 90.405 95.563 90.4388C95.1683 90.4911 95.0141 91.3412 94.8743 90.2414C95.1937 89.9533 95.7661 89.9154 95.8773 90.5815C96.1993 90.5753 96.2616 90.0206 95.9873 89.7624C94.8929 90.1642 95.6372 88.9674 94.6824 89.4583C94.6797 89.6122 94.6488 89.7793 94.6634 89.923C94.335 89.4008 94.7835 89.1602 94.8218 88.9872ZM97.2206 90.046C97.0455 90.3854 96.8711 90.7261 96.6969 91.064C96.6682 90.528 96.7484 90.0424 97.0363 89.7243C97.0975 89.8318 97.1595 89.9394 97.2206 90.046ZM81.0323 91.1217C81.0236 91.3648 80.9671 91.5901 80.9313 91.8219C80.8574 91.6198 79.4534 91.5132 80.1443 91.2733C80.2447 91.2364 80.9034 91.623 81.0323 91.1217ZM144.662 93.2229C144.531 93.0368 144.407 92.8508 144.279 92.6631C144.54 92.6054 144.812 92.5492 145.074 92.494C144.937 92.7356 144.8 92.9788 144.662 93.2229ZM117.093 89.5195C117.161 89.5326 116.922 89.9509 117.195 89.8902C116.987 90.1564 116.79 90.3818 116.588 90.6331C116.534 90.4315 116.479 90.2307 116.424 90.0291C116.376 90.157 116.327 90.2841 116.278 90.4121C116.312 90.1203 116.342 89.8354 116.377 89.5388C116.694 90.1716 116.788 89.463 117.093 89.5195ZM127.078 88.9024C127.09 89.5137 126.581 89.8392 127.047 89.9716C126.926 90.3636 126.766 90.5629 126.486 90.5796C126.453 90.4235 126.419 90.2685 126.386 90.1121C126.349 90.5216 126.265 90.6689 126.091 90.9517C126.091 90.9513 126.091 90.9508 126.09 90.9503C125.672 90.9537 125.705 90.8186 125.652 90.135C126.071 90.5462 126.124 89.9289 126.458 89.5853C126.688 89.3494 126.953 89.4841 127.078 88.9024ZM82.5091 91.0192C82.2259 91.4692 82.541 91.8494 81.9439 91.4286C81.9717 91.3182 81.9997 91.2086 82.0276 91.0979C82.1881 91.0707 82.3487 91.0446 82.5091 91.0192ZM128.461 91.0948C128.505 90.1634 128.274 89.4126 128.094 90.9251C128.354 91.2549 128.286 90.3871 128.461 91.0948ZM112.45 88.6695C112.594 88.6815 112.694 88.7654 112.759 88.8925C112.911 89.1883 112.87 89.7183 112.757 90.1273C112.731 90.221 112.701 90.3083 112.67 90.385C112.634 90.1825 112.6 89.9797 112.566 89.7785C112.469 89.8702 112.372 89.9623 112.275 90.0529C112.333 89.5922 112.391 89.1302 112.45 88.6695ZM138.328 91.1825C137.818 91.721 138.729 91.5779 138.381 91.9092C138.104 92.1762 137.882 91.5311 138.057 91.1683C138.14 91.1694 138.232 91.1751 138.327 91.1824C138.328 91.1825 138.328 91.1825 138.328 91.1825ZM135.859 91.0247C135.839 91.6925 135.766 91.4875 136.113 91.4102C136.216 91.3888 136.935 91.7297 136.695 91.1489C136.427 91.1136 136.134 91.0662 135.859 91.0247ZM106.003 89.8507C105.989 89.5268 106.561 88.7991 106.64 88.9756C106.64 88.9751 106.64 88.9747 106.64 88.9742C106.856 89.4559 106.238 89.5393 106.523 90.2003C105.913 89.627 105.771 91.0493 105.762 89.181C106.113 89.0897 105.956 89.4793 106.003 89.8507ZM61.2059 92.3106C61.2056 92.3106 61.2053 92.3106 61.205 92.3106C61.2451 92.3132 61.5897 92.4958 61.5566 92.5712C61.1586 92.5341 61.2168 92.3993 60.8709 92.6403C60.8446 92.5718 60.8214 92.5054 60.7936 92.4369C60.9347 92.3852 61.0074 92.294 61.2059 92.3106ZM79.4928 90.72C79.6311 90.6436 79.9157 90.8946 80.0789 90.867C79.6386 91.9442 78.9394 91.0177 79.4928 90.72ZM157.146 95.9257C157.145 95.9259 157.145 95.9261 157.144 95.9262C157.144 95.9259 157.145 95.9255 157.145 95.9251C157.145 95.9253 157.145 95.9255 157.146 95.9257ZM90.703 90.6652C90.6793 90.5872 90.6643 90.5192 90.6566 90.4591C90.6562 90.4535 90.6559 90.4478 90.6555 90.4421C90.6704 90.5155 90.6859 90.5898 90.703 90.6652ZM104.782 89.98C104.523 89.537 105.318 88.796 105.588 88.9597C105.576 89.1663 105.578 89.3533 105.541 89.5912C105.313 89.0634 104.826 90.0551 104.782 89.98ZM123.388 89.9927C122.741 89.9452 123.686 88.2347 123.638 89.6382C123.636 89.6651 123.405 89.991 123.388 89.9927ZM109.868 89.6932C110.027 89.1463 109.693 89.0048 110.226 89.0936C110.259 89.2346 110.291 89.3759 110.323 89.5169C110.172 89.5753 110.02 89.6346 109.868 89.6932ZM119.245 87.465C118.419 87.7338 117.614 88.2471 118.105 89.7584C118.169 89.712 118.233 89.6673 118.296 89.621C118.327 88.8916 118.544 89.2967 118.875 89.3309C118.932 89.0431 119.117 88.9825 119.16 88.7381C119.244 88.2659 119.043 87.9241 119.245 87.465ZM153.205 93.8787C153.164 93.9494 153.124 94.0207 153.084 94.0908C152.931 94.1309 152.778 94.1717 152.626 94.2144C152.699 94.075 152.773 93.9358 152.847 93.7969C152.965 93.8233 153.084 93.8503 153.204 93.878C153.204 93.8782 153.204 93.8785 153.205 93.8787ZM97.9377 88.5337C97.9296 89.8509 98.1769 89.5984 98.6691 88.9048C98.4264 88.7802 98.1819 88.6565 97.9377 88.5337ZM132.362 89.0257C132.339 89.3856 132.316 89.7442 132.294 90.1038C132.61 89.7613 132.606 89.3485 132.526 88.8593C132.471 88.9145 132.417 88.9703 132.362 89.0257ZM136.383 89.4086C136.278 89.3201 136.299 89.6054 136.288 89.5981C136.019 89.4111 135.995 89.2765 135.608 89.4353C135.554 89.5024 135.5 89.5734 135.446 89.6429C135.518 90.3902 135.692 90.012 135.982 90.4821C135.952 90.2269 135.923 89.971 135.893 89.7136C136.082 89.7934 136.262 89.8713 136.453 89.9515C136.487 89.8791 136.52 89.8074 136.554 89.7351C136.498 89.6277 136.441 89.5077 136.383 89.4086ZM154.529 94.5964C154.703 94.6755 154.878 94.7536 155.055 94.8284C155.098 94.7136 155.141 94.5981 155.183 94.4834C154.968 94.5222 154.749 94.5597 154.529 94.5964ZM94.0726 89.3499C94.0615 89.4171 94.0508 89.4847 94.0418 89.5533C94.0382 89.4706 94.0508 89.4051 94.0726 89.3499ZM60.6647 91.8908C60.4452 91.8548 60.1399 91.9257 59.9037 91.9384C59.9403 92.1373 60.533 92.0232 60.7546 92.1315C60.7849 92.0907 60.7576 91.9059 60.6647 91.8908ZM113.226 88.7161C113.282 88.4631 113.337 88.2112 113.392 87.9582C113.523 87.9863 113.653 88.0159 113.784 88.0442C113.79 87.8369 113.795 87.6278 113.8 87.4205C113.219 87.6858 113.356 87.089 113.068 86.4979C113.122 87.2369 113.174 87.9759 113.226 88.7161ZM160.504 95.143C160.088 95.1614 159.928 95.2772 160.128 95.6159C160.282 95.5601 160.435 95.5047 160.587 95.4499C160.559 95.3481 160.53 95.2457 160.504 95.143ZM86.4482 89.4626C86.1144 89.6864 86.0576 88.9819 85.7455 89.4031C85.9374 89.5178 86.1292 89.6349 86.3199 89.7517C86.3622 89.6558 86.4056 89.5589 86.4482 89.4626ZM103.51 86.1763C103.351 85.8989 103.123 87.2636 102.668 86.2862C102.579 86.5886 102.527 86.8756 102.452 87.1707C102.39 86.8564 102.322 86.5386 102.262 86.2271C102.262 86.2271 102.262 86.2271 102.262 86.2271C101.889 86.3533 102.149 86.7369 102.153 87.0731C102.155 87.2123 101.866 86.9935 101.965 87.2918C102.136 87.8038 102.689 87.4797 102.715 88.1148C102.507 87.9156 102.128 88.1057 102.259 88.5235C102.4 88.9828 102.738 88.1892 102.984 88.5661C102.613 87.5639 103.314 87.8485 103.419 88.628C103.8 88.0124 103.422 87.7807 103.009 87.8263C103.24 87.2173 102.88 87.5561 102.8 87.0622C103.051 86.7498 103.954 86.9611 103.51 86.1763ZM122.68 87.3909C122.4 87.4128 121.975 87.0446 121.758 87.5404C121.632 87.8296 122.06 88.0807 121.735 88.5281C122.01 88.4967 122.082 88.3197 122.055 87.9117C122.12 87.8664 122.185 87.8225 122.25 87.7786C122.275 87.8592 122.3 87.9388 122.325 88.0194C122.366 87.8547 122.407 87.6913 122.448 87.5266C122.512 87.5633 122.577 87.6 122.641 87.6379C122.653 87.5547 122.67 87.4827 122.68 87.3909ZM76.4417 90.3438C76.5184 90.3332 76.5944 90.3226 76.671 90.3111C76.6566 90.2396 76.6402 90.1653 76.6244 90.0921C76.6125 90.0341 76.6007 89.9762 76.5889 89.9182C76.6508 90.1221 77.0465 90.4393 77.1822 90.1993C77.2505 90.078 77.0408 89.6932 77.3637 89.588C77.1272 89.6339 76.9109 89.712 76.6821 89.7699C76.6931 89.649 76.7031 89.5269 76.714 89.4058C76.7139 89.4056 76.7137 89.4054 76.7136 89.4053C76.6345 89.3871 76.5543 89.3678 76.4751 89.3499C76.4638 89.6822 76.453 90.0131 76.4417 90.3438ZM132.213 88.2899C131.916 88.5538 131.81 88.699 131.884 89.1936C131.884 89.1938 131.885 89.1941 131.885 89.1944C132.006 88.9927 132.128 88.7918 132.249 88.5915C132.237 88.4911 132.226 88.3904 132.213 88.2899ZM91.7084 87.9278C91.2619 89.767 92.4537 88.575 92.1751 87.9749C92.1626 87.9476 91.7737 88.1222 91.7084 87.9278ZM112.347 88.0573C112.485 88.0428 112.62 88.0297 112.761 88.0158C112.778 88.0142 112.794 88.0126 112.811 88.0109C112.795 87.9 112.778 87.7893 112.762 87.6786C112.742 87.545 112.723 87.4114 112.703 87.2776C112.583 87.5369 112.466 87.7977 112.347 88.0573ZM158.809 94.4074C158.698 94.0906 158.34 93.8951 158.095 94.1725C158.187 94.2328 158.279 94.2922 158.373 94.3506C158.179 94.3471 157.986 94.3465 157.79 94.3377C157.701 94.7501 157.965 94.5606 158.28 94.7404C158.326 94.771 158.586 95.3324 158.76 94.9745C158.793 94.9022 158.448 94.7842 158.727 94.6044C158.624 94.5664 158.531 94.5523 158.432 94.522C158.44 94.4237 158.449 94.3252 158.457 94.2265C158.574 94.2881 158.691 94.3485 158.809 94.4074ZM121.046 87.3589C120.661 87.2982 120.598 87.5961 120.498 88.1228C120.679 88.0707 120.862 88.02 121.043 87.9687C121.044 87.7658 121.045 87.563 121.046 87.3589ZM155.716 93.4673C155.545 93.3508 155.548 93.6308 155.457 93.6523C155.113 93.7325 154.976 93.4793 154.655 93.486C154.691 93.4437 154.724 93.4041 154.758 93.3631C154.758 93.363 154.758 93.3629 154.757 93.3628C154.479 93.2016 154.288 93.1128 154.166 93.0798C153.951 93.0208 153.952 93.1354 154.091 93.2854V93.2854C154.229 93.4347 154.505 93.6166 154.832 93.6949C154.819 93.7967 154.806 93.8982 154.794 93.999C155.216 93.9635 155.599 93.9174 155.716 93.4673ZM96.6851 87.4984C96.6629 87.4036 96.7756 86.7826 96.5184 87.0876C96.3504 87.9928 96.6805 87.5268 96.7869 87.8644C96.7179 87.9547 96.6471 88.0426 96.5788 88.1327C97.0321 88.3577 97.0846 88.1414 96.8902 87.4988C96.8764 87.4557 96.7073 87.5931 96.6851 87.4984ZM93.7722 87.2736C93.7883 88.561 94.307 87.9452 94.2636 87.5457C94.1863 87.5356 94.1398 87.7579 94.0531 87.6676C93.9656 87.5773 93.927 87.2787 93.7722 87.2736ZM109.727 86.8182C109.711 86.8122 109.54 86.2309 109.562 86.6877C109.776 87.7663 110.179 87.0649 110.104 86.6887C109.968 86.7091 109.877 86.8728 109.727 86.8167C109.727 86.8172 109.727 86.8177 109.727 86.8182ZM161.239 94.6298C161.232 94.6111 160.848 94.4404 160.789 94.5395C160.737 94.6539 160.704 94.7804 160.661 94.9015C160.889 94.8148 161.324 94.9572 161.238 94.6297C161.238 94.6298 161.238 94.6298 161.239 94.6298Z" fill="#FF61B0"/>
</svg>
