<svg width="458" height="143" viewBox="0 0 458 143" fill="none" xmlns="http://www.w3.org/2000/svg">
<path d="M216.498 142.973L286.498 133.473V11.4727L33.4748 0.506271L0.0107422 13.6566L4.83188 136.586L216.498 142.973Z" fill="#FF61B0"/>
<rect width="168" height="65" transform="translate(59 39)" fill="white"/>
<path d="M415.394 6.26622C407.26 4.78738 397.74 4.97224 394.043 4.97224C386.094 4.87981 379.069 6.54351 371.398 8.85421C362.987 11.3498 347.736 18.744 340.804 28.5413C333.872 38.3387 329.99 49.3376 328.326 56.1773C327.31 60.3365 327.125 64.4958 326.57 68.7475C325.831 75.3098 324.814 89.2665 328.049 99.1562C331.284 109.046 337.754 116.718 341.174 119.121C347.551 123.465 353.467 127.532 360.399 130.767C363.634 132.245 366.869 133.909 370.196 135.111C374.171 136.497 378.33 137.237 382.397 138.161C394.043 140.841 425.376 134.464 430.921 131.783C436.467 129.103 445.71 119.213 447.743 115.331C450.609 109.785 457.263 83.1662 457.356 80.1161C457.448 75.4023 456.154 55.9924 454.491 51.1862C450.146 38.7084 440.719 25.0291 437.391 20.9623C434.156 16.803 423.62 7.74507 415.394 6.26622Z" fill="#FF61B0"/>
<path d="M359.444 78.9023L423.73 78.9023L398.67 53.9023" stroke="white" stroke-width="4.64553" stroke-linecap="square"/>
</svg>
