<svg width="142" height="167" viewBox="0 0 142 167" fill="none" xmlns="http://www.w3.org/2000/svg">
<path d="M32.4595 72.0243C34.7552 71.8552 37.0509 71.6742 39.3521 71.5112C42.9674 71.2577 46.5828 71.0222 50.1927 70.7566C54.5987 70.4307 59.0048 70.0625 63.4108 69.7365C64.6595 69.646 65.9192 69.652 67.1734 69.5675C69.6763 69.4045 72.1793 69.2415 74.6768 69.0061C75.3856 68.9397 75.9527 69.0423 76.4708 69.5976C78.2648 71.5232 80.0698 73.4368 81.8747 75.3503C82.0656 75.5495 82.251 75.7728 82.4746 75.9177C83.8378 76.799 84.1977 78.0847 84.056 79.793C83.7506 83.5053 83.5761 87.2297 83.3689 90.9541C83.1835 94.2379 82.9762 97.5216 82.8726 100.811C82.8345 101.916 82.4964 102.508 81.5585 102.912C76.2036 105.218 70.8923 107.638 65.5266 109.914C54.9804 114.387 44.4016 118.757 33.8609 123.23C29.8529 124.932 25.905 126.81 22.0606 128.929C21.8261 129.061 21.5807 129.182 21.3517 129.321C20.8827 129.611 20.4956 129.538 20.1248 129.079C18.8924 127.552 17.6328 126.061 16.4058 124.534C12.7687 120.007 9.12603 115.48 5.51068 110.928C3.47125 108.357 3.73301 109.268 4.06565 105.659C4.74728 98.3003 6.35591 91.1231 7.67008 83.8916C8.03544 81.8876 8.38989 79.8775 8.69525 77.8614C8.86975 76.7265 9.13148 75.7124 10.2439 75.2899C10.3639 75.2416 10.4893 75.1631 10.582 75.0665C12.0761 73.5273 13.8702 73.1591 15.8605 73.0927C19.1541 72.984 22.4423 72.5917 25.7359 72.3925C27.9771 72.2657 30.2237 72.2416 32.4595 72.0243Z" fill="#7DC5E4"/>
<path d="M74.5652 69.9922L65 59.3539L131 19.9922L142 30.2759L74.5652 69.9922Z" fill="#69C9A0"/>
<path d="M27.2863 52.2336C29.3504 53.247 31.4108 54.2691 33.4818 55.2804C36.7362 56.8673 39.996 58.4413 43.2417 60.0348C47.2027 61.981 51.151 63.9574 55.112 65.9036C56.2352 66.4538 57.3975 66.9393 58.5276 67.4873C60.7844 68.577 63.0412 69.6667 65.2712 70.8061C65.9042 71.1292 66.4577 71.2763 67.1026 71.0805C69.3368 70.4005 71.5774 69.7334 73.818 69.0663C74.0539 68.998 74.2922 68.9103 74.5419 68.8936C76.0639 68.7932 76.7836 68.0134 77.1687 66.7362C78.008 63.9619 78.9715 61.2298 79.9048 58.485C80.7253 56.0638 81.5256 53.6342 82.4232 51.2406C82.7215 50.4356 82.5886 49.881 81.8466 49.227C77.609 45.4956 73.4463 41.6991 69.1897 37.985C60.8234 30.6851 52.3961 23.4459 44.0349 16.1482C40.8561 13.3722 37.7854 10.4944 34.8831 7.48408C34.7071 7.29792 34.5175 7.11613 34.3484 6.92778C34.0038 6.53818 33.6252 6.43949 33.1451 6.6235C31.5486 7.23684 29.938 7.81369 28.3466 8.42915C23.629 10.2536 18.9063 12.076 14.2014 13.9262C11.5462 14.9728 12.0625 14.4226 11.2794 17.1341C9.68614 22.6629 9.00166 28.4225 8.02949 34.1065C7.76115 35.6821 7.48093 37.2578 7.15367 38.8188C6.97187 39.6984 6.90688 40.5256 7.80423 41.2604C7.90018 41.3416 7.99204 41.4465 8.0483 41.5516C8.96023 43.2336 10.502 44.1945 12.3157 45.0158C15.3174 46.3741 18.2285 47.9331 21.2028 49.3562C23.2294 50.3182 25.292 51.2089 27.2863 52.2336Z" fill="#9D47B9"/>
<path d="M40.6563 111.867C41.7307 109.986 42.7952 108.098 43.8774 106.216C45.5798 103.26 47.2971 100.315 48.9867 97.3565C51.0475 93.7449 53.0735 90.1098 55.1343 86.4982C55.7199 85.4756 56.3906 84.4985 56.984 83.4751C58.1729 81.4359 59.3618 79.3966 60.4883 77.3212C60.8083 76.7323 61.1925 76.3482 61.9229 76.2551C64.4546 75.9338 66.9821 75.5973 69.5095 75.2608C69.7742 75.2235 70.0559 75.2039 70.2932 75.1108C71.7384 74.5417 72.9859 74.9795 74.3156 76.0437C77.2069 78.3542 80.1772 80.5697 83.1303 82.8106C85.7325 84.7884 88.3232 86.7833 90.9736 88.7008C91.8618 89.3474 92.1695 89.9408 92.0064 90.8967C91.0722 96.3523 90.2554 101.838 89.2906 107.285C87.3945 117.992 85.3967 128.666 83.5036 139.369C82.7849 143.439 82.2419 147.56 81.9522 151.735C81.9375 151.992 81.9071 152.251 81.9002 152.506C81.8906 153.033 81.6264 153.294 81.0532 153.326C79.146 153.433 77.2542 153.581 75.3499 153.683C69.7047 153.986 64.0567 154.294 58.4032 154.567C55.2108 154.718 56.0986 155.023 53.3062 152.749C47.6158 148.11 42.5642 142.85 37.3124 137.789C35.8576 136.386 34.392 134.988 32.8956 133.624C32.0546 132.855 31.3591 132.085 31.5996 130.983C31.6233 130.863 31.625 130.721 31.5946 130.595C31.1186 128.573 31.7641 126.971 32.7615 125.384C34.413 122.76 35.8283 119.981 37.4053 117.307C38.4857 115.491 39.6533 113.729 40.6563 111.867Z" fill="#FFD700"/>
<path d="M58.1951 115.829C58.1283 113.663 58.0495 111.497 57.9889 109.327C57.8963 105.917 57.8216 102.508 57.7168 99.1032C57.587 94.9471 57.4153 90.789 57.2855 86.6329C57.2506 85.4551 57.312 84.2715 57.2832 83.0888C57.2315 80.7289 57.1799 78.369 57.056 76.0108C57.0213 75.3414 57.1481 74.8132 57.7223 74.3522C59.7131 72.7556 61.6924 71.1481 63.6717 69.5407C63.8778 69.3706 64.1077 69.2067 64.2614 69.0034C65.1964 67.7631 66.4888 67.4846 68.1787 67.6972C71.8511 68.1568 75.5413 68.4939 79.23 68.8618C82.4822 69.1887 85.7334 69.5361 88.9952 69.7864C90.0903 69.8736 90.6627 70.2188 91.023 71.1191C93.0768 76.259 95.2464 81.3633 97.2698 86.512C101.247 96.6316 105.12 106.777 109.098 116.892C110.611 120.738 112.302 124.535 114.236 128.247C114.358 128.473 114.467 128.71 114.594 128.931C114.862 129.386 114.773 129.746 114.301 130.073C112.73 131.161 111.194 132.275 109.624 133.357C104.969 136.565 100.314 139.778 95.6359 142.964C92.993 144.762 93.9096 144.558 90.3402 144.078C83.0644 143.095 76.0092 141.25 68.8871 139.678C66.9134 139.242 64.9332 138.815 62.9449 138.434C61.8259 138.218 60.8305 137.925 60.4599 136.859C60.4173 136.744 60.3449 136.623 60.2531 136.531C58.7905 135.056 58.5039 133.352 58.5255 131.479C58.5626 128.378 58.3177 125.269 58.2648 122.165C58.2376 120.052 58.3125 117.94 58.1951 115.829Z" fill="#FF8457"/>
<path d="M67.0807 68.1092C66.6317 68.5266 65.8401 67.2958 65.3461 66.9493C65.2289 66.8617 64.8594 66.6539 64.8594 66.6539C64.8594 66.6539 65.0342 66.2369 65.1107 66.043C65.3691 65.3004 65.5873 64.5506 65.7616 63.768C66.0811 62.3636 66.2177 60.8682 65.8317 59.4613C65.3427 57.7035 63.9768 56.2031 62.2502 55.5513C61.2406 55.1617 60.1437 55.072 59.0541 55.0335C58.0158 54.9876 56.9739 55.0074 55.9579 55.2064C54.8944 55.4384 53.9006 55.8823 52.9143 56.3774C52.6951 56.4874 52.4872 56.7655 52.4872 56.7655C52.4872 56.7655 51.8944 56.4594 51.7262 56.3792C49.6259 55.2199 47.5256 54.0605 45.4107 52.8903C45.1143 52.7372 44.1886 52.2048 44.1886 52.2048C44.1886 52.2048 44.7756 51.2059 45.0784 50.7704C45.7642 49.8224 46.4501 48.8745 47.1652 47.9484C47.603 47.3628 48.0664 46.7735 48.5957 46.2791C49.2273 45.6786 49.9943 45.2022 50.7724 44.8025C53.0884 43.6582 55.7419 43.2227 58.3016 43.5844C61.1831 44.004 63.8357 45.3709 66.2621 46.9794C67.4625 47.7855 68.6483 48.672 69.4837 49.8443C70.0919 50.7098 70.5102 51.7072 70.8627 52.701C71.3547 54.0274 71.7882 55.4013 71.7977 56.8234C71.8143 58.114 71.4616 59.3794 71.0906 60.6084C70.276 63.3772 69.2055 66.1829 67.0807 68.1092Z" fill="#FFD700"/>
</svg>
