<svg width="82" height="81" viewBox="0 0 82 81" fill="none" xmlns="http://www.w3.org/2000/svg">
<path d="M4.89307 35.6329L64.8511 -0.000807812L65.6217 67.7619L4.89307 35.6329Z" fill="#69C9A0"/>
<mask id="mask0_1529_64086" style="mask-type:alpha" maskUnits="userSpaceOnUse" x="4" y="0" width="62" height="68">
<path d="M4.89307 35.6329L64.8511 -0.000807812L65.6217 67.7619L4.89307 35.6329Z" fill="#69C9A0"/>
</mask>
<g mask="url(#mask0_1529_64086)">
<path d="M33.956 42.2203C43.8751 37.3082 57.1575 32.7295 70.752 29.2651C76.7844 27.7278 79.4282 27.7608 80.2153 28.7692C81.0024 29.7776 79.9195 32.0498 77.7042 34.0301C67.5612 43.0971 49.5827 43.7135 33.956 42.2203C30.8372 41.9222 27.812 41.5402 24.9616 41.1245C14.1068 39.5415 8.11808 32.8823 6.69749 29.5237C6.00891 27.8957 6.56642 26.041 7.4798 24.1925C8.26654 22.6002 9.56773 21.1588 11.2676 19.8558C8.54488 19.5594 5.82034 19.2406 3.12072 18.9154C-6.91102 17.7067 -13.008 13.0572 -16.3237 10.5287L-16.3692 10.494C-17.9771 9.26785 -18.8561 7.46125 -19.2311 5.95336C-19.6062 4.44546 -19.3002 3.11519 -18.1507 1.46729C-16.4407 -0.983903 -13.2334 -3.13212 -9.03303 -4.97382C-15.5148 -7.1317 -19.7705 -10.494 -22.315 -12.5863C-23.7734 -13.7855 -24.1572 -15.6811 -22.6328 -17.8052C-19.9228 -21.5811 -16.1671 -24.2034 -11.7759 -25.9747C-0.252373 -30.623 15.6476 -29.4108 28.5091 -27.8073C31.8517 -27.3906 32.7056 -25.5893 31.5342 -24.373C27.9782 -20.6802 18.3909 -20.2448 5.68217 -20.7574C-0.931555 -22.5827 -6.72329 -24.3294 -11.7759 -25.9747C-16.1671 -24.2034 -19.9228 -21.5811 -22.6328 -17.8052C-24.1572 -15.6811 -23.7734 -13.7855 -22.315 -12.5863C-19.7705 -10.494 -15.5148 -7.1317 -9.03303 -4.97382C3.7348 -10.5721 25.6777 -13.3383 42.6281 -13.1734C45.9037 -13.1415 47.6499 -11.2582 49.1326 -9.64652C50.6153 -8.03488 51.6815 -5.9693 51.1974 -4.37224C47.97 6.27678 16.5242 0.53816 -4.54928 -3.77582C-6.14969 -4.10344 -7.64258 -4.51092 -9.03303 -4.97382C-13.2334 -3.13212 -16.4407 -0.983903 -18.1507 1.46729C-19.3002 3.11519 -19.6062 4.44546 -19.2311 5.95336C-18.8561 7.46125 -17.9771 9.26785 -16.3692 10.494L-16.3237 10.5287C-13.008 13.0572 -6.91102 17.7067 3.12072 18.9154C5.82034 19.2406 8.54488 19.5594 11.2676 19.8558C21.4025 12.0866 45.7088 9.23511 59.6386 8.6329C61.8845 8.53581 63.2061 9.16372 63.7594 10.2011C64.3127 11.2386 64.048 12.9985 62.4693 14.6942C54.5822 23.1655 32.9842 22.2201 11.2676 19.8558C9.56773 21.1588 8.26654 22.6002 7.4798 24.1925C6.56642 26.041 6.00891 27.8957 6.69749 29.5237C8.11808 32.8823 14.1068 39.5415 24.9616 41.1245C27.812 41.5402 30.8372 41.9222 33.956 42.2203Z" fill="#69C9A0"/>
<path d="M108.869 55.0508C106.082 55.644 102.765 56.1716 99.6101 56.6198C98.1687 56.8239 96.716 57.0168 95.4471 57.177C94.1623 57.3395 94.8081 57.1427 93.9303 57.2478C92.2122 57.4526 90.6374 57.7224 88.9395 57.9062C88.3808 57.966 89.0524 57.7106 88.4658 57.777C85.2438 58.1422 82.2024 58.5819 78.9471 58.9597C64.7781 60.5693 50.8431 62.161 36.4821 63.017C34.5474 63.1199 32.623 63.1965 30.6607 63.2247C28.4818 63.2508 26.146 63.2225 23.6952 62.9677C22.4741 62.832 21.2389 62.6553 19.9753 62.2555C18.7904 61.9241 17.1435 60.9418 16.7441 59.4618C16.2501 58.1304 16.2766 56.6508 16.6365 55.413C16.8558 54.6938 16.5878 55.0743 16.621 54.9334C17.3231 52.8108 17.3118 53.6384 18.0745 52.4924C21.4202 48.2006 26.3826 45.3556 30.6197 42.9409C32.4571 41.9375 30.4792 42.6562 32.4003 41.8391C32.5345 41.7827 32.1341 42.1569 32.6487 41.9126C33.8269 41.3466 36.0108 40.2787 36.9268 39.881C38.696 39.1085 38.9876 38.9822 40.6568 38.2769C42.9571 37.3122 45.7258 36.3114 48.2152 35.3679C48.7474 35.1659 47.9848 35.2775 48.8314 34.9427C49.6756 34.6057 51.9546 33.8248 52.7257 33.6062C53.5032 33.3823 53.2162 33.6082 53.3607 33.589C54.5571 33.4312 57.0884 32.2758 57.4303 32.1637C62.0343 30.6119 66.2451 29.5135 70.5473 28.4619C72.0164 28.1053 73.511 27.769 75.0714 27.5153C75.9347 27.3783 76.8278 27.2613 77.7691 27.2474C78.6866 27.2941 79.7986 27.1319 80.8624 28.2641C81.4503 29.0436 81.3251 29.8981 81.1732 30.498C81.0031 31.1245 80.7311 31.6542 80.43 32.1458C79.8199 33.1253 79.0733 33.9439 78.2732 34.6666C77.6186 35.2551 76.9414 35.7987 76.2572 36.2947C71.8307 39.437 67.4249 40.8963 62.41 42.0573C61.876 42.175 62.5401 42.2187 61.8884 42.3597C54.9392 43.8211 47.8838 43.9896 40.918 43.5597C40.2197 43.5143 41.1276 43.3973 40.4311 43.3415C36.1562 43.0339 29.4913 41.9717 26.8859 42.2981C26.2345 42.2035 25.529 42.098 24.8355 41.989C22.4167 41.6218 19.8985 40.8711 18.0518 40.005C16.5195 39.26 18.0927 39.7745 16.1767 38.9632C15.7505 38.7691 16.2307 39.1832 15.5896 38.8715C12.906 37.5553 10.2793 35.5294 8.26942 33.3117C7.86466 32.8617 7.86545 33.069 7.73547 32.9504C6.97449 32.2479 6.20147 30.8857 5.88672 29.8666C5.72945 29.3927 5.69116 29.0111 5.66627 28.8322C5.44406 26.7511 6.23114 25.244 6.87037 23.8913C7.75761 22.1439 9.03052 20.7484 10.6429 19.4721C11.3299 18.9446 10.3985 19.4221 11.0702 18.9103C14.5787 16.3326 18.7108 14.7448 22.6461 13.561C23.5258 13.3033 22.7684 13.7056 23.1915 13.5909C25.0501 13.1001 25.3811 12.7036 27.186 12.2966C27.5686 12.2122 27.3882 12.3969 27.4606 12.3935C28.5809 12.3466 29.4525 11.8088 29.7243 11.7388C33.2209 10.8451 35.5523 10.7648 38.9698 10.1668C39.3793 10.0966 38.4265 10.073 39.5808 9.88692C46.0955 8.85025 52.9781 8.2136 59.6117 8.01237C60.8643 7.98916 62.2365 8.08222 63.3978 8.94145C63.9574 9.40439 63.9446 9.56475 63.885 9.52397C63.817 9.49356 63.6357 9.35207 63.6599 9.39011C63.8168 9.62115 63.9393 9.8428 64.0386 10.0523C64.4335 10.9482 64.4972 11.626 64.4662 11.9815C64.2805 13.2349 63.5818 14.2483 62.8345 15.0343C61.5207 16.4052 60.0737 17.3194 58.9925 18.1934C46.6281 23.7633 33.0945 22.3134 20.3641 21.1814C20.201 21.1635 20.5076 21.0269 20.1821 20.9919C16.2638 20.5556 16.9973 20.8678 14.3672 20.9169C13.7061 20.9286 11.7551 20.3477 11.5835 20.3008C10.9541 20.1315 11.6441 19.9639 11.4318 19.9213C9.67592 19.5751 9.87585 20.4009 7.48314 20.1275C7.40838 20.1176 7.7397 20.008 7.54045 19.9704C6.92145 19.8529 6.29623 19.8387 5.69267 19.7168C4.67555 19.5103 4.16056 19.2147 3.10325 19.0603C2.71537 19.0036 2.27357 18.9626 1.69587 18.9323C1.42277 18.9083 1.76069 19.4663 -0.381467 19.0166C-1.24038 18.8795 -4.95953 17.8101 -5.94073 17.3391C-6.93554 16.9165 -6.19077 17.0529 -6.26044 17.0192C-8.85145 15.7201 -7.80261 16.061 -8.96818 15.1855C-10.1005 14.2797 -10.0685 15.0512 -10.6221 14.8339C-11.1843 14.6225 -12.9005 13.3688 -13.2889 13.0236C-13.6829 12.6901 -13.1005 12.9733 -13.462 12.6896C-15.8234 10.7728 -14.7469 12.1894 -15.6241 11.6839C-16.0215 11.4479 -16.3812 11.1999 -16.7149 10.9473C-18.2521 9.75088 -18.8299 8.10543 -19.3113 6.42173C-19.4344 5.95315 -19.441 6.19208 -19.52 6.02519C-19.538 5.98479 -19.5593 5.92277 -19.5829 5.82127C-19.9832 3.99483 -19.309 2.73203 -18.3906 1.29991C-18.2081 1.02158 -18.0007 0.72609 -17.756 0.40583C-17.5601 0.0914383 -16.3285 -1.54149 -15.1686 -2.06982C-15.004 -2.14753 -15.3463 -1.7547 -14.5918 -2.25194C-13.4929 -2.98676 -11.3991 -4.10983 -10.122 -4.73518C-9.18457 -5.19973 -10.3723 -4.89034 -9.12463 -5.37613C-8.57981 -5.58047 -9.51653 -5.04638 -8.50232 -5.43304C-7.47107 -5.84035 -4.87951 -6.79796 -3.8505 -7.12499C-2.85217 -7.4539 -3.44682 -7.42468 -3.36947 -7.46126C-2.90033 -7.68282 -0.963019 -8.33847 -0.789018 -8.38191C7.97451 -10.844 16.3096 -11.8194 25.0709 -12.7438C25.7599 -12.8132 25.2857 -12.9358 25.3907 -12.9481C27.7465 -13.2221 25.92 -12.6261 27.5816 -12.6143C27.3179 -12.9285 28.2928 -12.9507 29.9574 -13.0973C30.7593 -13.1671 30.3137 -13.2682 30.3862 -13.2863C31.5618 -13.5579 32.4119 -13.3453 32.6268 -13.3043C33.4234 -13.1534 34.2714 -13.4164 34.8156 -13.309C35.356 -13.2019 34.1327 -12.9693 35.7247 -13.0285C36.1671 -13.1631 34.9736 -13.4378 36.1829 -13.5277C37.9251 -13.6548 40.2368 -13.7061 42.6329 -13.6647C45.5689 -13.7568 48.056 -11.5769 49.4143 -9.90566C50.1344 -9.09764 50.6605 -8.28968 51.003 -7.60545C51.6306 -6.36106 51.8013 -5.19612 51.5153 -4.27592C51.0317 -2.79333 50.3195 -1.94136 49.2116 -1.08822C47.566 0.0509189 46.9242 0.191223 46.5601 0.435769C46.1855 0.640693 45.9485 0.844461 44.7953 1.2192C42.4164 1.90058 43.4683 1.04265 43.1012 1.00497C42.7366 0.9508 42.4016 1.13854 41.9774 1.13562C41.5528 1.13081 42.4389 0.916002 41.4578 1.033C40.4914 1.16793 37.8119 1.57023 37.4577 1.69714C36.7294 1.98968 37.9671 2.26467 35.3181 2.20308C35.1673 2.19775 35.6558 2.04539 35.0784 2.03225C30.4615 1.91878 25.714 1.47944 21.1703 0.813245C20.5488 0.720813 21.1271 0.624857 20.7656 0.568874C16.9949 -0.0365182 18.3101 0.417623 16.1913 0.428144C16.7184 0.0819001 15.6077 -0.326795 12.7521 -0.793983C11.0343 -1.07929 11.301 -0.85178 10.1685 -0.915128C9.82742 -0.934015 8.63509 -1.27053 8.40139 -1.22568C7.63024 -1.08053 8.70942 -0.561356 5.79455 -1.22277C5.66596 -1.25263 6.10678 -1.32691 5.66043 -1.41907C2.79372 -2.01785 2.38904 -1.79804 -0.721626 -2.37743C-1.78709 -2.57726 -3.19804 -2.88926 -4.66176 -3.22634C-6.62274 -3.67023 -8.65693 -4.33804 -10.1662 -4.9109C-9.96427 -5.31878 -12.4733 -6.18331 -13.5897 -6.39257C-15.2553 -7.20267 -17.0006 -8.19286 -18.4563 -9.22985C-18.9581 -9.58831 -18.546 -9.47318 -18.6023 -9.52899C-19.445 -10.3843 -20.2648 -10.6161 -20.5902 -10.8475C-21.2727 -11.3388 -21.9127 -11.8428 -22.5188 -12.3386C-24.3991 -13.7063 -24.1171 -16.4669 -22.8722 -17.9771C-22.1817 -18.9504 -21.4268 -19.884 -20.577 -20.8242C-20.4766 -20.9288 -20.5397 -21.3539 -19.5381 -21.9155C-19.4727 -21.9464 -20.4175 -20.9465 -18.9226 -22.2024C-17.4249 -23.4785 -14.1897 -25.217 -11.7202 -26.3039C-11.1375 -26.5822 -9.65732 -27.3976 -8.31636 -27.5584C-8.13972 -27.5796 -8.29879 -27.4374 -8.04119 -27.4562C-7.2108 -27.5143 -6.85273 -27.9471 -5.85226 -27.8896C-4.84625 -27.83 -2.88199 -28.0326 -0.237345 -28.5374C-0.150952 -28.5529 0.447051 -28.8879 1.29571 -28.963C2.64413 -29.0866 4.56749 -29.1484 5.97891 -29.1914C6.65495 -29.2126 6.21773 -29.3616 6.33506 -29.368C10.8923 -29.5625 14.1386 -29.2862 18.9924 -28.8512C19.8779 -28.7724 22.4634 -28.7596 24.165 -28.3956C26.0244 -27.9938 24.0118 -27.4381 28.3486 -27.1045C28.3726 -27.1026 28.3966 -27.1008 28.4208 -27.0992C29.1143 -27.0489 29.9223 -27.1107 30.7811 -26.8233C31.1997 -26.6749 31.6509 -26.4187 31.8865 -25.9437C32.1366 -25.4744 31.9818 -24.7946 31.5204 -24.3863C31.2295 -24.1128 30.8763 -23.8687 30.4869 -23.6816C25.2443 -20.4286 19.1344 -21.0138 13.0934 -20.6895C12.8158 -20.6814 11.9421 -20.4049 11.2869 -20.4188C10.3222 -20.4395 9.79608 -20.5839 9.10348 -20.6104C7.93214 -20.6574 6.80252 -20.6878 5.68057 -20.7178C4.0555 -21.1423 2.53975 -21.5317 0.932502 -22.0041C-0.0829917 -22.3033 0.338747 -22.3226 -0.894282 -22.6896C-2.11532 -23.0548 -2.94502 -23.112 -4.57366 -23.6937C-5.76592 -24.1232 -6.92498 -24.8614 -8.52658 -25.4101C-8.70891 -25.0895 -9.80305 -25.4369 -11.8408 -25.9997C-12.2287 -26.1067 -11.8581 -25.8534 -12.0435 -25.8979C-12.7945 -26.0749 -13.4387 -26.3976 -14.1659 -26.5664C-14.3412 -26.6071 -14.3883 -26.4927 -14.5332 -26.5194C-15.749 -26.7334 -17.6093 -27.6715 -17.9283 -27.8362C-19.1504 -28.4601 -19.7816 -28.5168 -20.7365 -28.9407C-21.6706 -29.3591 -20.2095 -28.9207 -21.3088 -29.3702C-23.6173 -30.3125 -26.6266 -31.4597 -28.9582 -32.4493C-29.8791 -32.8395 -29.3147 -32.4225 -29.4481 -32.4749C-31.3941 -33.2509 -33.2359 -34.2886 -34.4316 -34.5015C-35.37 -35.9116 -35.6046 -34.9369 -38.1796 -36.5294C-38.3708 -36.6531 -38.4378 -37.1474 -37.6289 -36.7662C-36.8174 -36.3854 -35.6615 -35.6451 -34.4863 -35.1795C-34.2276 -35.0734 -32.5289 -34.6914 -32.3065 -34.6188C-30.5977 -34.0387 -30.5856 -33.3918 -30.5173 -33.3234C-29.644 -32.5511 -27.5853 -32.1366 -27.0669 -31.9598C-24.6992 -31.1399 -22.751 -30.3126 -20.749 -29.6769C-19.4488 -29.2662 -19.1755 -29.5871 -18.1808 -29.2213C-14.8343 -28.0053 -13.8124 -27.0887 -10.4585 -26.5004C-9.74469 -26.3791 -10.3223 -27.0083 -7.93325 -25.9008C-7.80028 -25.8358 -6.04579 -24.9659 -4.93293 -24.8333C-4.79405 -24.8168 -4.76195 -24.9378 -4.58466 -24.895C-3.39432 -24.6056 -2.61764 -24.2694 -1.33217 -23.9407C-0.00943697 -23.6014 1.51605 -23.2346 3.00999 -22.7679C3.87231 -22.4971 4.95401 -21.9534 5.37136 -21.7787C5.54645 -21.7047 5.72675 -21.6394 5.90931 -21.5805L5.71658 -21.6105C6.79076 -21.5201 7.85248 -21.6547 8.50801 -21.4663C9.2813 -21.2449 7.74726 -20.9803 9.79033 -20.7991C9.87356 -21.1225 10.0541 -21.4523 10.1812 -21.7767C14.6299 -21.6858 19.0421 -21.584 23.3793 -22.2322C23.9141 -22.3182 23.342 -22.4032 23.9109 -22.5036C26.26 -22.9529 28.4514 -23.3634 30.1839 -24.7546C30.3537 -24.8979 30.5147 -25.0544 30.6578 -25.217C30.8001 -25.3892 30.7804 -25.4883 30.7549 -25.4958C30.7342 -25.5059 30.68 -25.6069 30.4771 -25.7442C30.0733 -26.0253 29.3114 -26.2323 28.5497 -26.3229C28.487 -26.3559 28.4158 -26.3874 28.3358 -26.417C26.9742 -26.8845 24.0888 -27.1141 21.9739 -27.3492C21.1786 -27.4381 21.2464 -27.5309 20.685 -27.615C18.5649 -27.9218 19.5376 -27.5046 18.9505 -27.5022C16.4368 -27.4716 16.2744 -28.2381 13.3132 -28.3534C13.1549 -28.3628 11.2309 -28.0254 10.9699 -28.0015C9.29872 -27.8668 10.6957 -28.1463 9.65057 -28.1867C7.74282 -28.2484 6.41084 -28.3279 4.18374 -28.0971C3.53544 -28.0297 2.00189 -27.6791 0.729887 -27.7355C0.562708 -27.7432 0.639912 -27.8832 0.506489 -27.8767C-1.91446 -27.7273 -1.92177 -27.2835 -3.24079 -26.9246C-4.5696 -26.5633 -6.66242 -26.3563 -7.10646 -26.3132C-8.25036 -26.226 -6.29024 -26.6244 -6.2382 -26.648C-5.59531 -27.0538 -7.10244 -26.6665 -8.23673 -26.3477C-8.52095 -26.695 -10.1013 -26.1561 -9.41503 -26.0014C-9.3401 -25.9876 -8.47379 -26.3006 -8.23673 -26.3477C-9.13108 -25.6716 -10.7911 -25.0875 -12.7514 -24.5945C-13.6622 -24.3352 -12.9962 -24.9855 -15.4525 -23.5238C-16.5404 -22.8181 -15.969 -22.852 -16.8532 -22.1565C-18.4971 -20.8434 -20.5016 -19.1582 -21.8813 -17.2659C-22.1553 -16.8974 -22.3663 -16.5193 -22.4947 -16.1511C-22.7084 -15.4058 -22.3614 -16.0764 -22.4625 -15.5901C-22.5904 -14.7247 -22.3302 -14.0179 -21.6317 -13.4173C-21.2329 -13.0829 -20.8232 -12.7522 -20.3862 -12.4306C-20.2555 -12.335 -20.4663 -12.7024 -20.0319 -12.3651C-16.7224 -9.82394 -13.63 -7.89316 -9.55014 -6.39287C-8.2406 -5.90988 -6.18216 -5.33494 -4.30266 -4.98052C-3.35654 -4.79734 -2.41918 -4.61308 -1.706 -4.4635C2.08792 -3.66525 6.72587 -2.54654 9.9969 -2.04049C12.1291 -1.71004 11.6886 -1.95004 12.6174 -1.90516C14.4077 -1.81745 17.4601 -0.980471 17.877 -0.866498C17.8884 -0.861303 16.0506 -1.09291 17.0159 -0.868396C17.5602 -0.616412 17.8566 -0.868758 17.877 -0.866498C18.149 -0.781555 21.8027 -0.259272 22.5436 -0.213566C22.9417 -0.183831 22.7375 -0.359726 22.9443 -0.341676C27.8647 0.0784889 32.7777 0.42813 37.7002 0.285198C37.7885 0.284039 37.6637 0.45929 37.8715 0.454178C40.7274 0.368734 42.5303 -0.0837443 44.6417 -0.798261C46.741 -1.53057 48.1125 -2.35734 49.0692 -3.01471C49.4575 -3.47137 49.829 -4.04669 50.0565 -4.71804C50.3183 -5.35187 50.0088 -6.46601 49.6713 -7.14492C49.0647 -8.33384 48.6048 -8.24632 48.5451 -8.33652C48.4144 -8.47813 48.2828 -8.61378 48.1512 -8.74369C46.1535 -10.7847 44.9136 -11.7322 42.6152 -11.8449C41.8713 -11.8672 41.0563 -11.8824 40.1709 -11.8827C38.1523 -11.8952 34.1589 -11.723 31.9857 -11.5566C30.2681 -11.4314 29.2233 -11.4371 27.6433 -11.265C27.4292 -11.2415 27.6575 -11.1127 27.5925 -11.1019C25.8398 -10.7835 26.6599 -11.2083 26.2893 -11.2418C24.9464 -11.3566 24.1129 -11.4098 21.8622 -11.0549C21.3417 -10.9736 19.8865 -10.2854 18.9456 -10.1331C17.7223 -9.93563 18.1624 -10.1812 16.8805 -9.9594C16.7712 -9.94004 16.809 -9.83178 16.0173 -9.7224C12.3433 -9.21155 8.3286 -8.55892 4.59352 -7.6798C4.0777 -7.55833 4.77874 -7.53719 4.03734 -7.35778C0.581233 -6.51851 -3.1582 -5.44417 -6.36641 -4.287C-7.14989 -4.00315 -6.71146 -4.31061 -6.8949 -4.27882C-8.03865 -4.07668 -9.35026 -3.11536 -9.56801 -2.99883C-12.6467 -1.41656 -15.2385 0.170736 -16.8642 2.36469C-17.6721 3.5001 -18.0449 4.429 -17.7384 5.5821C-17.5305 6.40198 -17.1619 7.2318 -16.6365 7.94655C-16.539 8.0836 -15.9633 8.6742 -15.3111 9.10652C-14.6927 9.54184 -14.0902 10.0106 -13.763 10.4061C-13.7103 10.4703 -12.9338 11.4225 -11.9475 11.8132C-11.8853 11.8363 -12.4078 11.3091 -11.3536 12.0105C-10.2939 12.7129 -8.48625 13.6187 -6.97869 14.4857C-6.50616 14.7609 -5.42064 15.583 -3.77665 15.8732C-3.66128 15.9139 -1.1104 16.0965 -0.31625 16.6418C-0.184795 16.7269 -0.431712 17.133 1.55224 17.2761C1.92803 17.2962 1.27024 17.1009 2.2555 17.1972C2.5898 17.2276 2.93802 17.2654 3.3147 17.3053C4.68372 17.4511 6.27172 17.6751 7.78729 17.707C8.12625 17.7138 9.58285 17.6019 10.7036 17.9367C10.8792 17.9891 10.5238 18.0871 11.1265 18.1686C13.9927 18.5563 17.0105 18.77 19.9199 19.1158C20.9511 19.237 20.4046 19.4123 21.4754 19.5594C22.5531 19.7079 24.725 19.9231 25.8553 19.8909C26.9933 19.8593 25.7823 19.437 27.4714 19.5058C34.7973 19.7652 42.105 20.0844 49.1879 18.9188C50.2307 18.7312 49.3615 18.7784 50.8679 18.4653C54.03 17.7869 58.5525 16.3188 61.1683 13.4829C62.1386 12.5409 62.4049 11.1922 62.2346 11.0143C62.171 10.6934 61.2962 10.3058 60.4288 10.2385C60.1443 10.2071 59.9029 10.1947 59.7057 10.1856C57.2937 10.1089 61.3385 9.7777 58.4739 9.83293C56.9579 9.86658 55.3462 10.385 54.9736 10.4247C51.4248 10.8102 48.9281 10.8713 45.7339 11.3011C45.0751 11.3916 45.7412 11.478 45.1831 11.5536C43.2672 11.8159 41.255 12.0208 39.4341 12.3204C38.6196 12.4558 38.7899 12.5565 38.0388 12.6703C36.2423 12.9478 34.656 13.1862 32.8974 13.4261C32.737 13.4482 33.772 13.0744 32.4541 13.3406C30.3228 13.7752 27.6642 14.2835 25.3043 15.0921C24.6058 15.3355 24.6615 15.6083 23.0945 15.8974C22.7695 15.9634 23.0575 15.4855 21.4105 16.3725C21.1304 16.5082 18.4074 17.9661 16.9768 18.3892C16.6039 18.488 15.5562 18.6867 14.8368 19.1448C14.7379 19.2093 15.2236 19.1109 14.6056 19.4804C12.4791 20.7659 10.3714 22.365 9.23715 24.3434C8.95144 24.8685 9.51436 24.1817 9.11687 24.9508C9.11034 24.9644 9.10384 24.9781 9.09738 24.9917C8.40883 26.3877 7.95575 27.9727 8.3607 28.8202C8.7596 29.7852 9.49529 30.8327 10.1899 31.6671C10.8218 32.4072 10.2769 31.994 10.3121 32.0565C10.9207 33.0753 11.6703 33.3069 11.9644 33.5465C13.841 35.0334 15.3226 36.1422 17.3489 37.091C17.9132 37.3465 17.5802 37.0215 17.6974 37.0618C18.8989 37.4583 17.9341 37.3278 18.6587 37.6695C20.6269 38.5785 22.9859 39.2059 25.198 39.5032C25.2971 39.5168 25.396 39.5304 25.4947 39.5438C26.3703 39.6619 25.4109 39.3476 26.1985 39.4549C30.8641 40.0842 35.7182 40.6104 40.2784 40.9413C41.138 41.003 40.5899 41.1108 40.7678 41.1505C41.9949 41.4294 43.8196 41.1831 44.2348 41.1601C46.1288 41.0616 46.8614 41.1772 48.5296 41.1217C56.6348 40.8971 66.7458 39.3409 73.052 35.3866C74.359 34.5993 75.5423 33.737 76.6066 32.8022C77.3129 32.1823 77.9363 31.4897 78.3741 30.7938C78.5909 30.4504 78.7577 30.097 78.8282 29.8352C78.8644 29.7074 78.8718 29.605 78.8713 29.5854C78.8702 29.5596 78.8806 29.653 78.9599 29.7491C79.0738 29.8672 79.0246 29.7716 78.7988 29.7218C78.5811 29.6657 78.2662 29.633 77.9346 29.6266C77.2651 29.6133 76.5109 29.6859 75.7593 29.7911C74.2465 30.0065 72.698 30.3511 71.1286 30.7429C68.9045 31.3008 66.6446 31.9059 64.2811 32.5884C63.6914 32.759 64.3357 32.7616 63.8287 32.9111C57.2767 34.8436 50.8618 36.8885 44.535 39.4477C44.0163 39.6584 44.8275 39.5183 44 39.8619C42.3044 40.5677 40.1482 41.4699 38.444 42.1821C37.6032 42.5345 38.6548 41.8962 37.8114 42.2543C35.8674 43.0819 33.8062 44.0755 31.9122 45.1275C31.1095 45.5765 32.4076 45.0687 31.3656 45.6396C28.3347 47.3247 25.4231 49.1596 22.9371 51.356C20.5027 53.4961 18.4511 56.2879 19.2914 58.5405C19.4407 58.9581 19.4579 58.9829 19.7089 59.2023C19.9506 59.3959 20.3772 59.6 20.8564 59.7597C21.3082 59.9055 21.6616 60.3721 22.8285 60.4716C22.9293 60.3862 22.9372 60.2704 22.9879 60.1711C27.2571 60.6599 31.8171 60.4514 36.3207 60.2273C43.758 59.8055 51.2625 59.1131 58.7754 58.3241C59.2857 58.2698 58.3835 58.1783 59.372 58.0721C65.0715 57.4568 70.598 56.7559 76.4443 56.2156C77.0201 56.1618 76.7721 56.5267 78.4663 56.2625C78.7615 56.2167 81.3187 55.8454 81.9788 55.6865C82.0672 55.6641 81.5806 55.5719 82.4048 55.4602C87.202 54.8117 92.2312 54.1617 97.0176 53.546C97.7804 53.448 96.9967 53.7309 97.5372 53.6628C98.0674 53.5953 98.6077 53.5214 99.1236 53.4476C102.561 52.9517 106.152 52.2948 109.308 51.7545C111.731 51.3093 110.917 51.7864 112.243 51.7086C112.447 51.7134 113.815 51.1971 113.904 51.2589C114.091 51.3791 114.118 51.6235 114.103 51.8823C114.099 52.1351 114.055 52.4042 114.338 52.5023C114.368 52.5106 114.532 52.445 114.767 52.2835C114.988 52.133 115.385 51.7844 115.514 51.2557C115.618 50.7494 115.55 50.5894 115.586 50.5676C115.597 50.5571 115.613 50.5651 115.639 50.6476C115.656 50.7299 115.736 50.9176 115.647 51.3761C115.638 51.4304 115.531 51.7871 115.288 52.0747C115.051 52.3657 114.77 52.5651 114.517 52.7237C114.002 53.0385 113.527 53.231 113.348 53.3357C113.09 53.4782 113.638 53.4721 113.099 53.7194C112.56 53.9599 111.928 53.9899 111.063 54.2777C110.19 54.56 110.626 54.6668 108.869 55.0508ZM45.5681 -11.7707C45.0421 -12.1282 44.651 -12.1244 44.5913 -12.0343C44.5289 -11.9354 44.762 -11.7755 45.3683 -11.5558C45.4265 -11.535 45.6214 -11.7342 45.5681 -11.7707ZM18.9991 -21.338C20.813 -21.1925 21.9972 -21.7123 20.7256 -21.7837C19.4585 -21.8685 18.4485 -21.3858 18.9991 -21.338ZM0.52458 -22.65C2.50051 -21.873 3.0509 -22.5697 0.824416 -23.0353C0.696119 -23.0625 0.410065 -22.6952 0.52458 -22.65ZM106.253 53.111C106.271 53.1165 107.372 52.9195 107.4 52.9052C107.953 52.6153 105.745 53.0119 106.253 53.111ZM-17.3251 -28.0725C-16.76 -27.7561 -14.8852 -27.2524 -15.6307 -27.6525C-16.2374 -27.9748 -18.0495 -28.4712 -17.3251 -28.0725ZM-19.0573 6.28498C-19.0679 6.31044 -18.8135 7.06954 -18.7669 7.03319C-18.6565 6.93012 -19.0234 5.90606 -19.0573 6.28498ZM-44.8897 -42.7441C-43.4659 -41.5198 -42.709 -40.1059 -42.2346 -39.3393C-41.5697 -38.5484 -41.488 -38.2661 -42.4894 -39.0752L-42.518 -39.1066C-42.8261 -39.4415 -43.1862 -39.9537 -43.6711 -40.5798C-44.2205 -41.3095 -42.3026 -39.1464 -42.9605 -40.1122C-44.1592 -41.9228 -45.5405 -42.5045 -47.1633 -43.9605C-47.4538 -44.241 -45.0767 -42.9664 -44.8827 -42.7391C-44.885 -42.7408 -44.8874 -42.7424 -44.8897 -42.7441ZM45.1579 -12.7133C45.1417 -12.7511 44.07 -13.0617 44.0363 -13.0387C43.7248 -13.0002 44.1192 -12.8918 44.5194 -12.7776C44.9215 -12.6668 45.3413 -12.5379 45.1579 -12.7133ZM23.3523 21.2586C23.4123 21.2827 25.9945 21.4725 26.081 21.4592C27.4459 21.2499 22.2289 20.8685 23.3523 21.2586ZM-10.2045 -4.93818C-11.4274 -5.18315 -12.8019 -5.75236 -13.5847 -6.38992C-12.4889 -5.85043 -11.3568 -5.37107 -10.2045 -4.93818Z" fill="#C075E3"/>
</g>
</svg>
