<svg width="82" height="81" viewBox="0 0 82 81" fill="none" xmlns="http://www.w3.org/2000/svg">
<path d="M77.0341 35.6329L17.0761 -0.000807812L16.3055 67.7619L77.0341 35.6329Z" fill="#69C9A0"/>
<mask id="mask0_1529_64090" style="mask-type:alpha" maskUnits="userSpaceOnUse" x="16" y="0" width="62" height="68">
<path d="M77.0341 35.6329L17.0761 -0.000807812L16.3055 67.7619L77.0341 35.6329Z" fill="#69C9A0"/>
</mask>
<g mask="url(#mask0_1529_64090)">
<path d="M47.9713 42.2203C38.0522 37.3082 24.7698 32.7295 11.1753 29.2651C5.14284 27.7278 2.49907 27.7608 1.71196 28.7692C0.924857 29.7776 2.00783 32.0498 4.22312 34.0301C14.366 43.0971 32.3446 43.7135 47.9713 42.2203C51.0901 41.9222 54.1152 41.5402 56.9657 41.1245C67.8205 39.5415 73.8092 32.8823 75.2298 29.5237C75.9184 27.8957 75.3609 26.041 74.4475 24.1925C73.6607 22.6002 72.3596 21.1588 70.6597 19.8558C73.3824 19.5594 76.107 19.2406 78.8066 18.9154C88.8383 17.7067 94.9353 13.0572 98.251 10.5286L98.2965 10.494C99.9044 9.26785 100.783 7.46125 101.158 5.95336C101.533 4.44547 101.228 3.11519 100.078 1.46729C98.368 -0.983903 95.1606 -3.13212 90.9603 -4.97382C97.442 -7.1317 101.698 -10.494 104.242 -12.5863C105.701 -13.7855 106.084 -15.6811 104.56 -17.8052C101.85 -21.5811 98.0944 -24.2034 93.7032 -25.9747C82.1797 -30.623 66.2797 -29.4108 53.4182 -27.8073C50.0755 -27.3906 49.2217 -25.5893 50.3931 -24.373C53.9491 -20.6802 63.5364 -20.2448 76.2451 -20.7574C82.8588 -22.5827 88.6506 -24.3294 93.7032 -25.9747C98.0944 -24.2034 101.85 -21.5811 104.56 -17.8052C106.084 -15.6811 105.701 -13.7855 104.242 -12.5863C101.698 -10.494 97.442 -7.1317 90.9603 -4.97382C78.1925 -10.5721 56.2496 -13.3383 39.2992 -13.1734C36.0236 -13.1415 34.2774 -11.2582 32.7947 -9.64652C31.312 -8.03487 30.2458 -5.9693 30.7298 -4.37224C33.9573 6.27678 65.4031 0.53816 86.4766 -3.77582C88.077 -4.10344 89.5699 -4.51092 90.9603 -4.97382C95.1606 -3.13212 98.368 -0.983903 100.078 1.46729C101.228 3.11519 101.533 4.44547 101.158 5.95336C100.783 7.46125 99.9044 9.26785 98.2965 10.494L98.251 10.5286C94.9353 13.0572 88.8383 17.7067 78.8066 18.9154C76.107 19.2406 73.3824 19.5594 70.6597 19.8558C60.5248 12.0866 36.2185 9.23511 22.2887 8.6329C20.0428 8.53581 18.7212 9.16372 18.1679 10.2011C17.6146 11.2386 17.8792 12.9985 19.458 14.6942C27.3451 23.1655 48.9431 22.2201 70.6597 19.8558C72.3596 21.1588 73.6607 22.6002 74.4475 24.1925C75.3609 26.041 75.9184 27.8957 75.2298 29.5237C73.8092 32.8823 67.8205 39.5415 56.9657 41.1245C54.1152 41.5402 51.0901 41.9222 47.9713 42.2203Z" fill="#69C9A0"/>
<path d="M-26.9413 55.0508C-24.1549 55.644 -20.8373 56.1716 -17.6828 56.6198C-16.2415 56.8239 -14.7887 57.0168 -13.5199 57.177C-12.235 57.3395 -12.8808 57.1427 -12.003 57.2478C-10.2849 57.4526 -8.71013 57.7224 -7.01218 57.9062C-6.45351 57.966 -7.12509 57.7106 -6.53848 57.777C-3.31654 58.1422 -0.275127 58.5819 2.98017 58.9597C17.1492 60.5693 31.0842 62.161 45.4452 63.017C47.3799 63.1199 49.3042 63.1965 51.2665 63.2247C53.4455 63.2508 55.7812 63.2225 58.2321 62.9677C59.4531 62.832 60.6884 62.6553 61.952 62.2555C62.5763 62.0511 63.2316 61.7865 63.8443 61.3298C64.4656 60.8942 64.9819 60.0984 65.1832 59.4618C65.6772 58.1304 65.6506 56.6508 65.2908 55.413C65.0715 54.6938 65.3395 55.0743 65.3062 54.9334C64.6042 52.8108 64.6155 53.6384 63.8528 52.4924C60.507 48.2006 55.5447 45.3556 51.3076 42.9409C49.4702 41.9375 51.4481 42.6562 49.527 41.8391C49.3928 41.7827 49.7932 42.1569 49.2786 41.9126C48.1004 41.3466 45.9165 40.2787 45.0005 39.881C43.2313 39.1085 42.9397 38.9822 41.2705 38.2769C38.9702 37.3122 36.2015 36.3114 33.7121 35.3679C33.18 35.1659 33.9425 35.2775 33.0959 34.9427C32.2517 34.6057 29.9726 33.8248 29.2016 33.6062C28.4241 33.3823 28.7111 33.6082 28.5666 33.589C27.3702 33.4312 24.8389 32.2758 24.497 32.1637C19.893 30.6119 15.6822 29.5135 11.38 28.4619C9.9109 28.1053 8.41633 27.769 6.85594 27.5153C5.99262 27.3783 5.09945 27.2613 4.15816 27.2474C3.24066 27.2941 2.12872 27.1319 1.06489 28.2641C0.476948 29.0436 0.602224 29.8981 0.754085 30.498C0.924188 31.1245 1.19615 31.6542 1.4973 32.1458C2.10735 33.1253 2.85397 33.9439 3.65412 34.6666C4.3087 35.2551 4.98591 35.7987 5.67005 36.2947C10.0966 39.437 14.5023 40.8963 19.5173 42.0573C20.0513 42.175 19.3871 42.2187 20.0389 42.3597C26.9881 43.8211 34.0435 43.9896 41.0093 43.5597C41.7075 43.5143 40.7997 43.3973 41.4962 43.3415C45.7711 43.0339 52.436 41.9717 55.0414 42.2981C55.6928 42.2035 56.3983 42.098 57.0918 41.989C59.5106 41.6218 62.0288 40.8711 63.8755 40.005C65.4078 39.26 63.8346 39.7745 65.7506 38.9632C66.1768 38.7691 65.6966 39.1832 66.3377 38.8715C69.0213 37.5553 71.648 35.5294 73.6579 33.3117C74.0626 32.8617 74.0618 33.069 74.1918 32.9504C74.9528 32.2479 75.7258 30.8857 76.0406 29.8666C76.1978 29.3927 76.2361 29.0111 76.261 28.8322C76.4832 26.7511 75.6961 25.244 75.0569 23.8913C74.1697 22.1439 72.8968 20.7484 71.2844 19.4721C70.5974 18.9446 71.5288 19.4221 70.8571 18.9103C67.3486 16.3326 63.2165 14.7448 59.2812 13.561C58.4014 13.3033 59.1589 13.7056 58.7358 13.5909C56.8772 13.1001 56.5462 12.7036 54.7413 12.2966C54.3587 12.2122 54.5391 12.3969 54.4666 12.3935C53.3464 12.3466 52.4748 11.8088 52.203 11.7388C48.7064 10.8451 46.375 10.7648 42.9575 10.1668C42.548 10.0966 43.5008 10.073 42.3464 9.88692C35.8318 8.85025 28.9492 8.2136 22.3155 8.01238C21.063 7.98916 19.6908 8.08222 18.5294 8.94145C17.9699 9.40439 17.9827 9.56475 18.0422 9.52397C18.1103 9.49356 18.2916 9.35207 18.2674 9.39011C18.1105 9.62115 17.988 9.8428 17.8887 10.0523C17.4938 10.9482 17.4301 11.626 17.461 11.9815C17.6467 13.2349 18.3455 14.2483 19.0928 15.0343C20.4066 16.4052 21.8536 17.3194 22.9348 18.1934C35.2992 23.7633 48.8328 22.3134 61.5632 21.1814C61.7263 21.1635 61.4197 21.0269 61.7452 20.9919C65.6635 20.5556 64.93 20.8678 67.56 20.9169C68.2212 20.9286 70.1722 20.3477 70.3438 20.3008C70.9732 20.1315 70.2832 19.9639 70.4955 19.9213C72.2514 19.5751 72.0514 20.4009 74.4441 20.1275C74.5189 20.1176 74.1876 20.008 74.3868 19.9704C75.0058 19.8529 75.6311 19.8387 76.2346 19.7168C77.2517 19.5103 77.7667 19.2147 78.824 19.0603C79.2119 19.0036 79.6537 18.9626 80.2314 18.9323C80.5045 18.9083 80.1666 19.4663 82.3088 19.0166C83.1677 18.8795 86.8868 17.8101 87.868 17.3391C88.8628 16.9165 88.1181 17.0529 88.1877 17.0192C90.7787 15.7201 89.7299 16.061 90.8955 15.1855C92.0278 14.2797 91.9958 15.0512 92.5494 14.8339C93.1115 14.6225 94.8278 13.3688 95.2162 13.0236C95.6102 12.6901 95.0278 12.9733 95.3893 12.6896C97.7507 10.7728 96.6742 12.1894 97.5514 11.6839C97.9488 11.4479 98.3085 11.1999 98.6421 10.9473C100.179 9.75088 100.757 8.10543 101.239 6.42173C101.362 5.95315 101.368 6.19207 101.447 6.02519C101.465 5.98479 101.487 5.92277 101.51 5.82127C101.91 3.99482 101.236 2.73203 100.318 1.2999C100.135 1.02158 99.928 0.72609 99.6833 0.405829C99.4874 0.0914381 98.2557 -1.54149 97.0959 -2.06982C96.9313 -2.14753 97.2736 -1.7547 96.5191 -2.25194C95.4201 -2.98676 93.3264 -4.10983 92.0493 -4.73518C91.1119 -5.19973 92.2996 -4.89034 91.0519 -5.37613C90.5071 -5.58047 91.4438 -5.04639 90.4296 -5.43304C89.3984 -5.84035 86.8068 -6.79796 85.7778 -7.12499C84.7795 -7.4539 85.3741 -7.42468 85.2967 -7.46126C84.8276 -7.68281 82.8903 -8.33847 82.7163 -8.38191C73.9528 -10.844 65.6177 -11.8194 56.8564 -12.7438C56.1674 -12.8132 56.6416 -12.9358 56.5366 -12.9481C54.1808 -13.2221 56.0073 -12.6261 54.3456 -12.6143C54.6094 -12.9285 53.6345 -12.9507 51.9699 -13.0973C51.168 -13.1671 51.6136 -13.2682 51.5411 -13.2863C50.3655 -13.5579 49.5153 -13.3453 49.3005 -13.3043C48.5039 -13.1534 47.6559 -13.4164 47.1117 -13.309C46.5713 -13.2019 47.7946 -12.9693 46.2025 -13.0285C45.7602 -13.1631 46.9537 -13.4378 45.7444 -13.5277C44.0022 -13.6548 41.6905 -13.7061 39.2944 -13.6647C36.3584 -13.7568 33.8713 -11.5769 32.513 -9.90566C31.7928 -9.09764 31.2668 -8.28968 30.9243 -7.60545C30.2967 -6.36106 30.126 -5.19612 30.412 -4.27592C30.8956 -2.79333 31.6078 -1.94136 32.7157 -1.08822C34.3613 0.0509189 35.0031 0.191224 35.3671 0.435769C35.7418 0.640694 35.9788 0.844462 37.132 1.21919C39.5109 1.90058 38.459 1.04266 38.8261 1.00496C39.1907 0.9508 39.5257 1.13854 39.9499 1.13562C40.3745 1.13081 39.4884 0.916003 40.4695 1.033C41.4359 1.16793 44.1154 1.57023 44.4696 1.69714C45.1979 1.98968 43.9602 2.26467 46.6092 2.20308C46.76 2.19775 46.2715 2.0454 46.8489 2.03225C51.4657 1.91878 56.2133 1.47944 60.757 0.813245C61.3785 0.72081 60.8002 0.624857 61.1617 0.568871C64.9324 -0.0365182 63.6172 0.417623 65.736 0.428141C65.2089 0.0819001 66.3196 -0.326795 69.1752 -0.793982C70.893 -1.0793 70.6263 -0.85178 71.7588 -0.915127C72.0999 -0.934023 73.2922 -1.27053 73.5259 -1.22568C74.2971 -1.08054 73.2179 -0.561356 76.1327 -1.22277C76.2613 -1.25263 75.8205 -1.32691 76.2669 -1.41907C79.1336 -2.01786 79.5383 -1.79804 82.6489 -2.37743C83.7144 -2.57727 85.1253 -2.88926 86.589 -3.22634C88.55 -3.67024 90.5842 -4.33804 92.0935 -4.9109C91.8916 -5.31879 94.4006 -6.18331 95.517 -6.39258C97.1826 -7.20267 98.9279 -8.19287 100.384 -9.22985C100.885 -9.58831 100.473 -9.47319 100.53 -9.52899C101.372 -10.3843 102.192 -10.6161 102.518 -10.8475C103.2 -11.3388 103.84 -11.8428 104.446 -12.3386C106.326 -13.7063 106.044 -16.4669 104.799 -17.9771C104.109 -18.9504 103.354 -19.884 102.504 -20.8242C102.404 -20.9288 102.467 -21.3539 101.465 -21.9155C101.4 -21.9464 102.345 -20.9466 100.85 -22.2024C99.3522 -23.4785 96.117 -25.217 93.6475 -26.3039C93.0647 -26.5822 91.5846 -27.3976 90.2436 -27.5584C90.067 -27.5796 90.2261 -27.4374 89.9685 -27.4562C89.1381 -27.5143 88.78 -27.9471 87.7795 -27.8896C86.7735 -27.83 84.8093 -28.0326 82.1646 -28.5374C82.0782 -28.5529 81.4802 -28.8879 80.6316 -28.963C79.2832 -29.0866 77.3598 -29.1484 75.9484 -29.1914C75.2723 -29.2126 75.7096 -29.3616 75.5922 -29.368C71.035 -29.5625 67.7886 -29.2861 62.9349 -28.8512C62.0493 -28.7724 59.4639 -28.7596 57.7623 -28.3956C55.9029 -27.9938 57.9155 -27.4381 53.5787 -27.1045C53.5547 -27.1026 53.5306 -27.1008 53.5064 -27.0992C52.813 -27.0489 52.005 -27.1107 51.1462 -26.8233C50.7276 -26.6749 50.2764 -26.4187 50.0408 -25.9437C49.7907 -25.4744 49.9455 -24.7946 50.4069 -24.3863C50.6978 -24.1128 51.051 -23.8687 51.4404 -23.6816C56.683 -20.4286 62.7929 -21.0137 68.8339 -20.6895C69.1115 -20.6814 69.9852 -20.4049 70.6404 -20.4188C71.6051 -20.4395 72.1312 -20.5839 72.8238 -20.6104C73.9951 -20.6574 75.1248 -20.6878 76.2467 -20.7178C77.8718 -21.1423 79.3875 -21.5317 80.9948 -22.0041C82.0103 -22.3033 81.5885 -22.3225 82.8216 -22.6896C84.0426 -23.0548 84.8723 -23.112 86.5009 -23.6937C87.6932 -24.1232 88.8523 -24.8614 90.4539 -25.4101C90.6362 -25.0895 91.7303 -25.4369 93.7681 -25.9997C94.156 -26.1067 93.7853 -25.8534 93.9708 -25.8979C94.7218 -26.0749 95.366 -26.3976 96.0932 -26.5664C96.2685 -26.6071 96.3156 -26.4927 96.4605 -26.5194C97.6763 -26.7334 99.5366 -27.6714 99.8556 -27.8362C101.078 -28.4601 101.709 -28.5168 102.664 -28.9407C103.598 -29.3591 102.137 -28.9207 103.236 -29.3702C105.545 -30.3125 108.554 -31.4597 110.885 -32.4493C111.806 -32.8395 111.242 -32.4225 111.375 -32.4749C113.321 -33.2509 115.163 -34.2886 116.359 -34.5015C117.297 -35.9116 117.532 -34.9369 120.107 -36.5294C120.298 -36.6531 120.365 -37.1474 119.556 -36.7662C118.745 -36.3854 117.589 -35.6451 116.414 -35.1795C116.155 -35.0734 114.456 -34.6914 114.234 -34.6188C112.525 -34.0387 112.513 -33.3918 112.445 -33.3234C111.571 -32.5511 109.513 -32.1366 108.994 -31.9598C106.626 -31.1399 104.678 -30.3126 102.676 -29.6769C101.376 -29.2662 101.103 -29.5871 100.108 -29.2213C96.7616 -28.0053 95.7397 -27.0887 92.3858 -26.5004C91.672 -26.3791 92.2496 -27.0083 89.8605 -25.9008C89.7276 -25.8358 87.9731 -24.9659 86.8602 -24.8333C86.7213 -24.8168 86.6892 -24.9378 86.512 -24.895C85.3216 -24.6056 84.5449 -24.2694 83.2595 -23.9407C81.9367 -23.6014 80.4112 -23.2346 78.9173 -22.7679C78.055 -22.4971 76.9733 -21.9534 76.5559 -21.7787C76.3808 -21.7047 76.2005 -21.6394 76.018 -21.5805L76.2107 -21.6105C75.1365 -21.5201 74.0748 -21.6547 73.4193 -21.4663C72.646 -21.2449 74.18 -20.9803 72.137 -20.7991C72.0537 -21.1224 71.8732 -21.4523 71.7461 -21.7767C67.2974 -21.6858 62.8852 -21.584 58.548 -22.2322C58.0132 -22.3182 58.5853 -22.4032 58.0164 -22.5036C55.6673 -22.9529 53.4759 -23.3634 51.7434 -24.7546C51.5736 -24.8979 51.4126 -25.0544 51.2695 -25.217C51.1271 -25.3892 51.1469 -25.4883 51.1724 -25.4958C51.1931 -25.5059 51.2473 -25.6069 51.4502 -25.7442C51.8539 -26.0253 52.6159 -26.2323 53.3775 -26.3229C53.4403 -26.3559 53.5115 -26.3874 53.5915 -26.417C54.9531 -26.8845 57.8385 -27.1141 59.9533 -27.3492C60.7487 -27.4381 60.6809 -27.5309 61.2423 -27.615C63.3624 -27.9218 62.3897 -27.5046 62.9768 -27.5022C65.4904 -27.4716 65.6529 -28.2381 68.6141 -28.3534C68.7724 -28.3629 70.6964 -28.0254 70.9574 -28.0015C72.6286 -27.8668 71.2315 -28.1463 72.2767 -28.1867C74.1845 -28.2484 75.5164 -28.3279 77.7435 -28.0971C78.3919 -28.0297 79.9254 -27.6791 81.1974 -27.7355C81.3646 -27.7432 81.2874 -27.8832 81.4208 -27.8767C83.8417 -27.7273 83.849 -27.2835 85.1681 -26.9246C86.4969 -26.5633 88.5897 -26.3563 89.0337 -26.3132C90.1776 -26.226 88.2175 -26.6244 88.1655 -26.648C87.5226 -27.0538 89.0297 -26.6665 90.164 -26.3477C90.4482 -26.695 92.0286 -26.1561 91.3423 -26.0014C91.2674 -25.9876 90.4011 -26.3006 90.164 -26.3477C91.0584 -25.6716 92.7184 -25.0875 94.6787 -24.5945C95.5895 -24.3352 94.9235 -24.9855 97.3798 -23.5238C98.4677 -22.8181 97.8963 -22.852 98.7805 -22.1565C100.424 -20.8434 102.429 -19.1582 103.809 -17.2659C104.083 -16.8974 104.294 -16.5193 104.422 -16.1512C104.636 -15.4058 104.289 -16.0764 104.39 -15.5901C104.518 -14.7247 104.258 -14.0179 103.559 -13.4173C103.16 -13.0829 102.751 -12.7522 102.314 -12.4306C102.183 -12.335 102.394 -12.7024 101.959 -12.3651C98.6497 -9.82394 95.5573 -7.89316 91.4774 -6.39288C90.1679 -5.90988 88.1095 -5.33494 86.2299 -4.98052C85.2838 -4.79734 84.3465 -4.61308 83.6333 -4.4635C79.8394 -3.66525 75.2014 -2.54655 71.9304 -2.04049C69.7981 -1.71004 70.2387 -1.95004 69.3099 -1.90516C67.5196 -1.81745 64.4672 -0.980477 64.0503 -0.866505C64.0389 -0.861302 65.8767 -1.09292 64.9113 -0.868396C64.3671 -0.616418 64.0707 -0.868765 64.0503 -0.866505C63.7783 -0.781554 60.1245 -0.259272 59.3837 -0.213566C58.9856 -0.183834 59.1898 -0.35973 58.983 -0.341679C54.0625 0.0784889 49.1496 0.428131 44.2271 0.285198C44.1388 0.284036 44.2636 0.45929 44.0558 0.454178C41.1999 0.368734 39.397 -0.0837443 37.2856 -0.79826C35.1863 -1.53057 33.8148 -2.35733 32.8581 -3.01471C32.4698 -3.47137 32.0983 -4.04669 31.8708 -4.71804C31.609 -5.35187 31.9185 -6.46601 32.256 -7.14492C32.8625 -8.33384 33.3225 -8.24632 33.3822 -8.33651C33.5129 -8.47813 33.6445 -8.61378 33.7761 -8.74369C35.7738 -10.7847 37.0137 -11.7322 39.3121 -11.8449C40.056 -11.8672 40.871 -11.8824 41.7564 -11.8827C43.775 -11.8952 47.7684 -11.723 49.9415 -11.5566C51.6592 -11.4314 52.704 -11.4371 54.284 -11.265C54.4981 -11.2415 54.2697 -11.1127 54.3348 -11.1019C56.0875 -10.7835 55.2674 -11.2083 55.638 -11.2418C56.9809 -11.3566 57.8144 -11.4098 60.0651 -11.0549C60.5855 -10.9736 62.0408 -10.2854 62.9817 -10.1331C64.205 -9.93563 63.7649 -10.1812 65.0468 -9.9594C65.156 -9.94004 65.1183 -9.83178 65.91 -9.7224C69.584 -9.21155 73.5987 -8.55892 77.3338 -7.67981C77.8496 -7.55832 77.1485 -7.53719 77.8899 -7.35778C81.346 -6.51851 85.0855 -5.44417 88.2937 -4.287C89.0772 -4.00315 88.6387 -4.31061 88.8222 -4.27882C89.9659 -4.07668 91.2775 -3.11536 91.4953 -2.99883C94.574 -1.41656 97.1657 0.170736 98.7915 2.36469C99.5994 3.5001 99.9722 4.429 99.6657 5.58211C99.4578 6.40198 99.0892 7.2318 98.5638 7.94655C98.4663 8.0836 97.8906 8.6742 97.2384 9.10652C96.62 9.54184 96.0175 10.0106 95.6903 10.4061C95.6376 10.4703 94.8611 11.4225 93.8748 11.8132C93.8126 11.8363 94.3351 11.3091 93.2809 12.0105C92.2212 12.7129 90.4135 13.6187 88.906 14.4857C88.4335 14.7609 87.3479 15.583 85.7039 15.8732C85.5886 15.9139 83.0377 16.0965 82.2435 16.6418C82.1121 16.7269 82.359 17.133 80.375 17.2761C79.9993 17.2962 80.6571 17.1009 79.6718 17.1972C79.3375 17.2276 78.9893 17.2654 78.6126 17.3053C77.2436 17.4511 75.6556 17.6751 74.14 17.707C73.8011 17.7138 72.3445 17.6019 71.2237 17.9367C71.0481 17.9891 71.4035 18.0871 70.8008 18.1686C67.9346 18.5563 64.9168 18.77 62.0074 19.1158C60.9762 19.237 61.5226 19.4123 60.4519 19.5594C59.3742 19.7079 57.2023 19.9231 56.0719 19.8909C54.934 19.8593 56.145 19.437 54.4559 19.5058C47.13 19.7652 39.8223 20.0844 32.7394 18.9188C31.6966 18.7312 32.5658 18.7784 31.0594 18.4653C27.8973 17.7869 23.3748 16.3188 20.759 13.4829C19.7887 12.5409 19.5224 11.1922 19.6927 11.0143C19.7563 10.6934 20.6311 10.3058 21.4984 10.2385C21.783 10.2071 22.0244 10.1947 22.2216 10.1856C24.6336 10.1089 20.5888 9.7777 23.4534 9.83293C24.9694 9.86658 26.5811 10.385 26.9537 10.4247C30.5025 10.8102 32.9991 10.8713 36.1934 11.3011C36.8522 11.3916 36.1861 11.478 36.7441 11.5536C38.6601 11.8159 40.6722 12.0208 42.4931 12.3204C43.3077 12.4558 43.1374 12.5565 43.8885 12.6703C45.685 12.9478 47.2712 13.1862 49.0298 13.4261C49.1903 13.4482 48.1553 13.0744 49.4732 13.3406C51.6045 13.7752 54.2631 14.2835 56.623 15.0921C57.3215 15.3355 57.2658 15.6083 58.8328 15.8974C59.1578 15.9634 58.8698 15.4855 60.5168 16.3725C60.7969 16.5082 63.5199 17.9661 64.9505 18.3892C65.3234 18.488 66.3711 18.6867 67.0905 19.1448C67.1894 19.2093 66.7037 19.1109 67.3217 19.4804C69.4482 20.7659 71.5559 22.365 72.6901 24.3434C72.9759 24.8685 72.4129 24.1817 72.8104 24.9508C72.817 24.9644 72.8234 24.9781 72.8299 24.9917C73.5185 26.3877 73.9715 27.9727 73.5666 28.8202C73.1677 29.7852 72.432 30.8327 71.7374 31.6671C71.1055 32.4072 71.6504 31.994 71.6152 32.0565C71.0066 33.0753 70.2569 33.3069 69.9629 33.5465C68.0863 35.0334 66.6047 36.1422 64.5784 37.091C64.0141 37.3465 64.3471 37.0215 64.2299 37.0618C63.0284 37.4583 63.9932 37.3278 63.2685 37.6695C61.3004 38.5785 58.9414 39.2059 56.7293 39.5032C56.6302 39.5168 56.5313 39.5304 56.4326 39.5438C55.557 39.6619 56.5164 39.3476 55.7288 39.4549C51.0632 40.0842 46.2091 40.6104 41.6489 40.9413C40.7893 41.003 41.3373 41.1108 41.1595 41.1505C39.9324 41.4294 38.1077 41.1831 37.6924 41.1601C35.7985 41.0616 35.0659 41.1772 33.3976 41.1217C25.2925 40.8971 15.1815 39.3409 8.87529 35.3866C7.56832 34.5993 6.38501 33.737 5.32073 32.8022C4.61443 32.1823 3.99098 31.4897 3.55315 30.7938C3.3364 30.4504 3.1696 30.097 3.0991 29.8352C3.06292 29.7074 3.05549 29.605 3.05597 29.5854C3.05713 29.5596 3.04672 29.653 2.96738 29.7491C2.85346 29.8672 2.90268 29.7716 3.12848 29.7218C3.34617 29.6657 3.66113 29.633 3.99267 29.6266C4.66214 29.6133 5.41635 29.6859 6.16798 29.7911C7.68076 30.0065 9.22929 30.3511 10.7987 30.7429C13.0228 31.3008 15.2827 31.9059 17.6462 32.5884C18.2359 32.759 17.5915 32.7616 18.0986 32.9111C24.6506 34.8436 31.0655 36.8885 37.3923 39.4477C37.911 39.6584 37.0998 39.5183 37.9273 39.8619C39.6229 40.5677 41.7791 41.4699 43.4833 42.1821C44.324 42.5345 43.2725 41.8962 44.1159 42.2543C46.0599 43.0819 48.1211 44.0755 50.015 45.1275C50.8178 45.5765 49.5197 45.0687 50.5617 45.6396C53.5926 47.3247 56.5041 49.1596 58.9902 51.356C61.4246 53.4961 63.4762 56.2879 62.6359 58.5405C62.4866 58.9581 62.4694 58.9829 62.2184 59.2023C61.9767 59.3959 61.5501 59.6 61.0709 59.7597C60.6191 59.9055 60.2656 60.3721 59.0988 60.4716C58.998 60.3862 58.9901 60.2704 58.9394 60.1711C54.6702 60.6599 50.1102 60.4514 45.6066 60.2273C38.1693 59.8055 30.6647 59.1131 23.1519 58.3241C22.6416 58.2698 23.5438 58.1783 22.5553 58.0721C16.8557 57.4568 11.3293 56.7559 5.48296 56.2156C4.90717 56.1618 5.15519 56.5267 3.46103 56.2625C3.16574 56.2167 0.608543 55.8454 -0.0515265 55.6865C-0.139914 55.6641 0.346677 55.5719 -0.477533 55.4602C-5.27472 54.8117 -10.304 54.1617 -15.0903 53.546C-15.8531 53.448 -15.0694 53.7309 -15.6099 53.6628C-16.1401 53.5953 -16.6804 53.5214 -17.1964 53.4476C-20.6333 52.9517 -24.2247 52.2948 -27.3811 51.7545C-29.8037 51.3093 -28.9897 51.7864 -30.316 51.7086C-30.52 51.7134 -31.8879 51.1971 -31.9771 51.2588C-32.1632 51.3791 -32.1912 51.6235 -32.1758 51.8823C-32.1714 52.1351 -32.1272 52.4042 -32.4105 52.5023C-32.4412 52.5106 -32.6046 52.445 -32.8395 52.2835C-33.0603 52.133 -33.4582 51.7844 -33.5864 51.2557C-33.6909 50.7494 -33.623 50.5894 -33.6584 50.5676C-33.6693 50.5571 -33.6857 50.5651 -33.712 50.6476C-33.7288 50.7299 -33.8091 50.9176 -33.7196 51.3761C-33.7108 51.4304 -33.6038 51.7871 -33.3607 52.0747C-33.1233 52.3656 -32.8429 52.5651 -32.5895 52.7237C-32.0747 53.0385 -31.5992 53.231 -31.421 53.3357C-31.1626 53.4782 -31.7104 53.4721 -31.1717 53.7194C-30.6331 53.9599 -30.0012 53.9899 -29.1357 54.2777C-28.2632 54.56 -28.6983 54.6668 -26.9413 55.0508ZM36.3591 -11.7707C36.8852 -12.1282 37.2762 -12.1244 37.336 -12.0343C37.3984 -11.9354 37.1653 -11.7755 36.559 -11.5558C36.5008 -11.535 36.3059 -11.7342 36.3591 -11.7707ZM62.9282 -21.338C61.1143 -21.1925 59.9301 -21.7123 61.2017 -21.7837C62.4688 -21.8685 63.4788 -21.3858 62.9282 -21.338ZM81.4027 -22.65C79.4268 -21.873 78.8764 -22.5697 81.1029 -23.0353C81.2312 -23.0625 81.5172 -22.6952 81.4027 -22.65ZM-24.3255 53.111C-24.3439 53.1165 -25.4445 52.9195 -25.4725 52.9052C-26.0252 52.6153 -23.8177 53.0119 -24.3255 53.111ZM99.2524 -28.0725C98.6873 -27.7561 96.8125 -27.2524 97.558 -27.6525C98.1647 -27.9748 99.9768 -28.4712 99.2524 -28.0725ZM100.985 6.28498C100.995 6.31044 100.741 7.06954 100.694 7.03319C100.584 6.93012 100.951 5.90606 100.985 6.28498ZM126.817 -42.7441C125.393 -41.5198 124.636 -40.1059 124.162 -39.3393C123.497 -38.5484 123.415 -38.2661 124.417 -39.0752L124.445 -39.1066C124.753 -39.4415 125.114 -39.9537 125.598 -40.5798C126.148 -41.3095 124.23 -39.1464 124.888 -40.1122C126.086 -41.9228 127.468 -42.5045 129.091 -43.9605C129.381 -44.241 127.004 -42.9664 126.81 -42.7391C126.812 -42.7408 126.815 -42.7424 126.817 -42.7441ZM36.7694 -12.7133C36.7856 -12.7511 37.8572 -13.0617 37.891 -13.0387C38.2025 -13.0002 37.8081 -12.8918 37.4079 -12.7776C37.0058 -12.6668 36.5859 -12.5379 36.7694 -12.7133ZM58.575 21.2586C58.5151 21.2827 55.9327 21.4725 55.8463 21.4592C54.4813 21.2499 59.6984 20.8685 58.575 21.2586ZM92.1318 -4.93818C93.3546 -5.18315 94.7292 -5.75236 95.512 -6.38992C94.4162 -5.85043 93.2841 -5.37107 92.1318 -4.93818Z" fill="#C075E3"/>
</g>
</svg>
