<svg width="314" height="288" viewBox="0 0 314 288" fill="none" xmlns="http://www.w3.org/2000/svg">
<path d="M53.0433 284.761L152.991 287.564C152.991 287.564 242.791 284.41 266.636 284.41C275.261 284.41 284.14 284.41 292.765 284.41C295.301 284.41 307.478 284.761 307.478 284.761L310.268 195.569L313.312 123.024L304.941 4.39419L201.696 2.11624C201.696 2.11624 89.5723 2.64192 79.1716 1.06486C67.7564 -0.687428 4.08436 4.3942 4.08436 4.3942C4.08436 4.3942 1.54763 43.1199 1.54763 54.685C1.54763 87.9785 1.54763 121.447 1.54764 154.741C1.54764 182.427 1.54764 210.113 1.54764 237.799C1.54764 244.458 0.786621 281.256 0.786621 281.256L53.0433 284.761Z" fill="#FF8457"/>
</svg>
