<svg width="281" height="373" viewBox="0 0 281 373" fill="none" xmlns="http://www.w3.org/2000/svg">
<path d="M46.8919 369.355L136.578 373C136.578 373 217.16 368.899 238.557 368.899C246.296 368.899 254.263 368.899 262.003 368.899C264.279 368.899 275.205 369.355 275.205 369.355L277.709 253.383L280.441 159.056L272.929 4.80691L180.283 1.845C180.283 1.845 79.6707 2.52853 70.3378 0.477946C60.0944 -1.80048 2.9592 4.80693 2.9592 4.80693C2.9592 4.80693 0.682893 55.1601 0.682893 70.1977C0.682895 113.488 0.682897 157.006 0.682899 200.296C0.682901 236.295 0.682902 272.294 0.682904 308.293C0.682904 316.951 1.49003e-05 364.798 1.49003e-05 364.798L46.8919 369.355Z" fill="#7DC5E4"/>
</svg>
