<svg width="314" height="287" viewBox="0 0 314 287" fill="none" xmlns="http://www.w3.org/2000/svg">
<path d="M52.9483 284.13L152.896 286.934C152.896 286.934 242.696 283.779 266.541 283.779C275.166 283.779 284.045 283.779 292.67 283.779C295.206 283.779 307.383 284.13 307.383 284.13L310.173 194.938L313.217 122.393L304.846 3.76333L201.601 1.48538C201.601 1.48538 89.4772 2.01106 79.0766 0.434003C67.6613 -1.31829 3.98933 3.76334 3.98933 3.76334C3.98933 3.76334 1.4526 42.489 1.4526 54.0541C1.4526 87.3477 1.4526 120.816 1.4526 154.11C1.4526 181.796 1.45261 209.482 1.45261 237.169C1.45261 243.827 0.691589 280.625 0.691589 280.625L52.9483 284.13Z" fill="#7DC5E4"/>
</svg>
