<svg width="337" height="309" viewBox="0 0 337 309" fill="none" xmlns="http://www.w3.org/2000/svg">
<path d="M57.1356 305.593L164.591 308.607C164.591 308.607 261.137 305.216 286.773 305.216C296.046 305.216 305.591 305.216 314.864 305.216C317.591 305.216 330.682 305.593 330.682 305.593L333.682 209.702L336.955 131.707L327.955 4.16602L216.955 1.71696C216.955 1.71696 96.4085 2.28214 85.2266 0.586609C72.9538 -1.29731 4.49893 4.16604 4.49893 4.16604C4.49893 4.16604 1.77165 45.8007 1.77165 58.2346C1.77165 94.029 1.77165 130.012 1.77166 165.806C1.77166 195.572 1.77166 225.338 1.77166 255.104C1.77166 262.263 0.953476 301.825 0.953476 301.825L57.1356 305.593Z" fill="#7DC5E4"/>
</svg>
