<svg width="137" height="137" viewBox="0 0 137 137" fill="none" xmlns="http://www.w3.org/2000/svg">
<path d="M17 16H47.5143C58.56 16 67.5143 24.9543 67.5143 36V46.5143C67.5143 57.56 58.56 66.5143 47.5143 66.5143H37C25.9543 66.5143 17 57.56 17 46.5143V16Z" fill="#F47EDE"/>
<path d="M137 0H90C78.9543 0 70 8.9543 70 20V47C70 58.0457 78.9543 67 90 67H117C128.046 67 137 58.0457 137 47V0Z" fill="#F47EDE"/>
<path d="M0 137H48C59.0457 137 68 128.046 68 117V89C68 77.9543 59.0457 69 48 69H20C8.9543 69 0 77.9543 0 89V137Z" fill="#F47EDE"/>
<path d="M121 120H90.4857C79.44 120 70.4857 111.046 70.4857 100V89.4857C70.4857 78.44 79.44 69.4857 90.4857 69.4857H101C112.046 69.4857 121 78.44 121 89.4857V120Z" fill="#F47EDE"/>
</svg>
