<svg width="339" height="339" viewBox="0 0 339 339" fill="none" xmlns="http://www.w3.org/2000/svg">
<path d="M118.795 0C153.564 0 168.051 32.8376 170.949 49.2564C175.585 12.1692 203.786 0.965812 217.308 0H295.538C321.036 0 335.137 28.9744 339 43.4615V127.487C339 150.667 310.026 166.12 295.538 170.949C327.99 179.644 338.034 203.546 339 214.41V292.641C339 320.456 313.889 335.137 301.333 339H223.103C188.333 339 173.846 310.026 170.949 295.538C168.631 323.354 139.077 336.103 124.59 339H46.359C16.2256 339 2.89744 310.026 0 295.538V217.308C0 189.492 30.906 172.88 46.359 168.051C13.9077 168.051 1.93162 139.077 0 124.59V49.2564C0 21.441 28.9744 4.82906 43.4615 0H118.795Z" fill="white"/>
</svg>
