<svg width="17" height="22" viewBox="0 0 17 22" fill="none" xmlns="http://www.w3.org/2000/svg">
<g clip-path="url(#clip0_1452_20124)">
<path d="M6.48276 19.2852C5.33925 18.8472 4.44013 18.2651 4.31337 18.1812C3.29753 17.5663 3.19813 16.2324 3.20908 15.6229C3.11515 15.632 3.02214 15.6375 2.92913 15.6375C2.52242 15.6375 2.12758 15.5454 1.76464 15.3711C1.53758 15.7287 1.41174 15.9477 1.41174 15.9477C1.49564 17.2661 3.99056 18.4157 3.99056 18.4157C4.7757 18.8363 4.74743 19.7058 4.74743 19.7058C4.88786 20.3791 5.33651 20.7431 5.33651 20.7431C6.93414 21.8371 8.22629 20.0853 8.22629 20.0853C7.41927 20.1702 6.8238 19.6793 6.48276 19.2852Z" fill="#64503C" fill-opacity="0.7"/>
<path d="M12.7648 9.2998C14.0433 9.15199 14.367 7.85916 14.367 7.85916C12.2696 8.49965 12.5186 6.43678 12.5186 6.43678V4.09016C12.5186 1.32841 10.7285 0 8.51994 0C6.31135 0 4.50763 1.88222 4.8195 4.63667L5.23623 4.63211L5.3256 5.71418C5.3256 7.30809 6.55118 8.5991 8.06309 8.5991C8.19166 8.5991 8.31659 8.58906 8.43787 8.57081V9.32717C8.41872 9.32078 8.40778 9.31804 8.40778 9.31804C7.27157 9.41384 6.09797 10.2131 5.04382 11.2258C5.36846 11.6282 5.57181 12.1154 5.62743 12.6418C5.66391 12.9903 5.63199 13.3297 5.54354 13.6482C6.31135 13.5478 6.94146 13.9301 7.29437 14.2166C7.58617 14.1974 7.9336 14.1034 8.34668 13.8945C8.35398 13.9821 8.41964 14.5277 8.90385 14.9063C9.12635 15.0979 9.44369 15.2439 9.89142 15.264C9.97623 15.2713 10.0647 15.2767 10.1595 15.2767C10.1595 15.2767 10.3419 15.2795 10.6127 15.2129C10.9127 15.1517 11.3988 14.9811 11.8438 14.5103C12.2122 14.1381 12.5487 13.5861 12.7402 12.765C12.7402 12.765 14.17 14.858 14.5877 15.5559C14.5877 15.5559 11.624 18.033 10.8918 19.324C10.8918 19.324 9.9507 21.0685 8.31112 20.8942C8.31112 20.8942 9.81027 22.8823 11.7982 21.5219C11.7982 21.5219 12.3563 21.0685 12.5304 20.2309C12.5304 20.2309 12.4958 19.1498 13.4715 18.6261C13.4715 18.6261 16.5747 17.1955 16.6795 15.5559C16.6795 15.5577 16.2491 10.2414 12.7648 9.2998Z" fill="#64503C" fill-opacity="0.7"/>
<path d="M9.82667 16.7125C9.82667 16.7125 8.05578 15.9452 7.25514 14.8038C7.25514 14.8038 6.47365 13.896 5.46237 14.1268C5.46237 14.1268 5.20339 14.1597 4.93894 13.9562C5.13318 13.5794 5.22345 13.1442 5.17512 12.6908C5.04472 11.4527 3.93587 10.554 2.69752 10.6845C1.45918 10.8149 0.561878 11.9244 0.692278 13.1625C0.822678 14.4005 1.93153 15.2992 3.16988 15.1688C3.31122 15.1542 3.44801 15.1259 3.57932 15.0867C3.61762 15.1679 3.65227 15.2591 3.67963 15.364C3.67963 15.364 3.47354 17.1486 4.55686 17.7955C4.55686 17.7955 8.7634 20.601 10.6319 18.6203C10.631 18.6203 11.3659 17.5282 9.82667 16.7125Z" fill="#64503C" fill-opacity="0.7"/>
</g>
<defs>
<clipPath id="clip0_1452_20124">
<rect width="16" height="22" fill="white" transform="translate(0.679504)"/>
</clipPath>
</defs>
</svg>
