<svg width="19" height="18" viewBox="0 0 19 18" fill="none" xmlns="http://www.w3.org/2000/svg">
<path d="M8.93732 15H7.14044C7.08836 15 7.06232 14.974 7.06232 14.9219L7.09357 3.92969C7.09357 3.88802 7.1144 3.86719 7.15607 3.86719H10.2342C11.2134 3.86719 11.9868 4.16667 12.5545 4.76562C13.1274 5.35938 13.4139 6.16927 13.4139 7.19531C13.4139 7.94531 13.2654 8.59896 12.9686 9.15625C12.6665 9.70833 12.2759 10.1354 11.7967 10.4375C11.3175 10.7396 10.7967 10.8906 10.2342 10.8906H9.01544V14.9219C9.01544 14.974 8.9894 15 8.93732 15ZM10.2342 5.76562L9.01544 5.78125V8.95312H10.2342C10.5727 8.95312 10.867 8.79167 11.117 8.46875C11.367 8.14062 11.492 7.71615 11.492 7.19531C11.492 6.77865 11.38 6.4375 11.1561 6.17188C10.9321 5.90104 10.6248 5.76562 10.2342 5.76562Z" fill="#64503C" fill-opacity="0.7"/>
<circle cx="9.6795" cy="9" r="8" stroke="#64503C" stroke-opacity="0.7" stroke-width="2"/>
</svg>
