<svg width="19" height="22" viewBox="0 0 19 22" fill="none" xmlns="http://www.w3.org/2000/svg">
<path d="M18.6166 17.6976C18.3779 16.9043 17.5581 16.469 16.7527 16.7077C16.6888 16.7258 16.6261 16.7439 16.5622 16.7632C16.4043 16.8078 16.2415 16.8548 16.0788 16.9115C15.8027 16.3931 15.5254 15.8747 15.2469 15.3574C14.8201 14.5617 14.3788 13.7395 13.9508 12.9269C13.6313 12.3204 13.1286 12.013 12.4558 12.013C12.4522 12.013 12.4486 12.013 12.445 12.013C11.724 12.0166 11.0019 12.0166 10.2809 12.0166C9.58402 12.0166 8.88837 12.0166 8.19152 12.019C8.0818 11.5332 7.96486 11.0425 7.85273 10.5662L7.80089 10.3504H8.13003C8.79674 10.3492 9.46346 10.3492 10.1302 10.3516C10.1326 10.3516 10.135 10.3516 10.1386 10.3516C10.4943 10.3516 10.8017 10.2347 11.0513 10.0056C11.4347 9.65237 11.5685 9.09175 11.384 8.61311C11.1851 8.0983 10.7246 7.7764 10.182 7.77399C9.16085 7.76916 8.15294 7.76916 7.18843 7.77519C7.07992 7.27124 6.95453 6.74196 6.80383 6.15602C6.68206 5.681 6.37945 5.32052 5.99485 5.13606C6.46143 5.04804 6.89305 4.8238 7.24147 4.4814C7.69721 4.0341 7.94918 3.44214 7.95401 2.81762C7.95762 2.16537 7.70806 1.55049 7.24871 1.08633C6.79659 0.629389 6.19981 0.377411 5.56805 0.375C5.56564 0.375 5.56202 0.375 5.55961 0.375C4.23824 0.375 3.15678 1.43958 3.14714 2.75251C3.1387 3.85446 3.87655 4.79004 4.88325 5.0818C4.15143 5.33378 3.75719 6.05475 3.93924 6.85288C4.01881 7.20131 4.102 7.54853 4.18519 7.89696L4.68312 9.98512C4.97488 11.2076 5.26544 12.4302 5.55479 13.6527C5.77301 14.5774 6.27094 14.9716 7.21977 14.9716H9.92884C10.5172 14.9716 11.1067 14.9716 11.6951 14.9704C11.6963 14.9704 11.6963 14.9704 11.6975 14.9704C11.97 15.4888 12.2509 16.0121 12.5222 16.5185L12.826 17.0839C12.9465 17.3094 13.0671 17.536 13.1889 17.7615C13.4662 18.2799 13.7519 18.8176 14.0388 19.3433C14.3186 19.8557 14.79 20.139 15.3265 20.139C15.4784 20.139 15.6351 20.1161 15.7943 20.0703C16.3392 19.9123 16.8914 19.7459 17.4255 19.5856L17.6039 19.5326C17.9897 19.4168 18.3056 19.1648 18.4961 18.8236C18.6878 18.4776 18.7312 18.0773 18.6166 17.6976Z" fill="#64503C" fill-opacity="0.7"/>
<path d="M12.287 16.8757L12.2038 16.7238C12.0688 16.4754 11.8783 16.4381 11.7771 16.4381C11.6758 16.4381 11.4841 16.4754 11.3478 16.725C11.3261 16.7636 11.3056 16.8034 11.2852 16.842C11.2357 16.9336 11.1899 17.0204 11.1393 17.1024C9.83839 19.205 7.28244 19.9959 5.06287 18.9808C3.37256 18.2079 2.42614 16.8878 2.25132 15.0564C2.08856 13.3408 2.71067 11.9025 4.10318 10.78C4.27197 10.6438 4.36842 10.3749 4.32622 10.1555C4.27317 9.87097 4.20445 9.58885 4.13814 9.31518C4.11644 9.22355 4.09353 9.13312 4.07183 9.0415C4.0429 8.91732 3.98744 8.68463 3.76319 8.59421C3.53894 8.50378 3.34363 8.62796 3.22668 8.70271C0.778035 10.27 -0.456536 13.2335 0.154722 16.0752C0.846757 19.2918 3.73546 21.6247 7.02323 21.6247C7.02443 21.6247 7.02685 21.6247 7.02805 21.6247H7.03167C8.05164 21.6139 9.01735 21.4065 9.89988 21.0098C11.0802 20.4806 12.0519 19.6728 12.7886 18.6082C12.9019 18.4442 12.9634 18.1718 12.8621 17.9668C12.6813 17.5967 12.4811 17.2302 12.287 16.8757Z" fill="#64503C" fill-opacity="0.7"/>
</svg>
