<svg width="400" height="300" viewBox="0 0 400 300" fill="none" xmlns="http://www.w3.org/2000/svg">
<path d="M3.90165 50.1623L0 146.104C0 146.104 4.38935 232.305 4.38935 255.195C4.38935 263.474 4.38935 271.997 4.38935 280.276C4.38935 282.711 3.90165 294.399 3.90165 294.399L128.023 297.078L228.978 300L394.066 291.964L397.236 192.857C397.236 192.857 396.505 85.2273 398.7 75.2435C401.138 64.2857 394.066 3.16558 394.066 3.16558C394.066 3.16558 340.175 0.73052 324.081 0.73052C277.748 0.73052 231.173 0.73052 184.841 0.73052C146.312 0.73052 107.783 0.73052 69.2542 0.73052C59.9878 0.73052 8.77871 0 8.77871 0L3.90165 50.1623Z" fill="black" fill-opacity="0.5"/>
</svg>
