<svg width="128" height="38" viewBox="0 0 128 38" fill="none" xmlns="http://www.w3.org/2000/svg">
<path d="M32.6027 22.08H34.5867C34.64 23.072 34.7787 24.016 35.0027 24.912C35.2267 25.7973 35.504 26.592 35.8347 27.296C36.1653 27.9893 36.5173 28.5387 36.8907 28.944C37.264 29.3387 37.6267 29.536 37.9787 29.536C38.1813 29.536 38.3253 29.3547 38.4107 28.992C38.5067 28.6293 38.576 28.0427 38.6187 27.232C38.8427 27.424 39.1093 27.6107 39.4187 27.792C39.7387 27.9627 40.0267 28.0853 40.2827 28.16C40.1973 29.056 40.0533 29.7387 39.8507 30.208C39.6587 30.688 39.4027 31.0133 39.0827 31.184C38.7627 31.3653 38.3627 31.456 37.8827 31.456C37.168 31.456 36.5067 31.2 35.8987 30.688C35.2907 30.1867 34.752 29.504 34.2827 28.64C33.824 27.7653 33.4507 26.768 33.1627 25.648C32.8747 24.5173 32.688 23.328 32.6027 22.08ZM28.1387 24.016H39.9307V25.792H28.1387V24.016ZM25.4507 29.152C26.1227 29.088 26.8907 29.008 27.7547 28.912C28.6293 28.816 29.5467 28.7093 30.5067 28.592C31.4773 28.4747 32.4267 28.3573 33.3547 28.24L33.4347 30.144C32.5493 30.272 31.6533 30.3947 30.7467 30.512C29.8507 30.64 28.9867 30.7573 28.1547 30.864C27.3227 30.9707 26.5547 31.072 25.8507 31.168L25.4507 29.152ZM27.1307 17.136H29.1307V29.888H27.1307V17.136ZM28.1067 17.136H38.7947V22.416H28.1067V20.64H36.8427V18.912H28.1067V17.136ZM48.1227 17.472H57.7387V18.864H48.1227V17.472ZM50.2667 16.416H51.9787V19.488H50.2667V16.416ZM53.7707 16.416H55.4987V19.472H53.7707V16.416ZM54.6187 20.928V21.872H55.7227V20.928H54.6187ZM53.2267 19.76H57.1787V23.04H53.2267V19.76ZM50.1387 20.928V21.872H51.1947V20.928H50.1387ZM48.7467 19.76H52.6507V23.04H48.7467V19.76ZM50.1387 25.984H56.9387V27.216H50.1387V25.984ZM50.1387 27.776H56.9387V29.008H50.1387V27.776ZM50.0267 29.6H57.6427V30.944H50.0267V29.6ZM52.5227 24.816H54.2507V30.592H52.5227V24.816ZM50.9067 24.24H57.4507V25.424H50.9067V31.424H49.1467V25.984L50.8747 24.24H50.9067ZM52.9867 22.912L54.8107 23.216C54.6187 23.5787 54.4267 23.936 54.2347 24.288C54.0427 24.64 53.872 24.9333 53.7227 25.168L52.3947 24.848C52.512 24.56 52.624 24.2347 52.7307 23.872C52.848 23.5093 52.9333 23.1893 52.9867 22.912ZM49.9627 22.704L51.5627 23.184C51.3387 23.7067 51.0613 24.2293 50.7307 24.752C50.4107 25.2747 50.0693 25.7653 49.7067 26.224C49.344 26.672 48.976 27.072 48.6027 27.424C48.528 27.3173 48.416 27.1893 48.2667 27.04C48.1173 26.88 47.9627 26.7253 47.8027 26.576C47.6427 26.416 47.4987 26.288 47.3707 26.192C47.8933 25.776 48.384 25.2587 48.8427 24.64C49.312 24.0107 49.6853 23.3653 49.9627 22.704ZM43.0507 19.728H48.1867V21.504H43.0507V19.728ZM44.8907 16.4H46.6347V31.424H44.8907V16.4ZM44.8747 20.944L45.8987 21.296C45.8027 21.9253 45.6747 22.5813 45.5147 23.264C45.3547 23.936 45.168 24.5973 44.9547 25.248C44.752 25.8987 44.528 26.5067 44.2827 27.072C44.048 27.6267 43.792 28.112 43.5147 28.528C43.4293 28.2827 43.3013 28 43.1307 27.68C42.96 27.36 42.8053 27.0933 42.6667 26.88C42.912 26.528 43.1467 26.1173 43.3707 25.648C43.5947 25.1787 43.8027 24.6773 43.9947 24.144C44.1973 23.6107 44.3733 23.072 44.5227 22.528C44.672 21.9733 44.7893 21.4453 44.8747 20.944ZM46.5227 21.744C46.6187 21.8507 46.752 22.032 46.9227 22.288C47.0933 22.5333 47.2747 22.8107 47.4667 23.12C47.6693 23.4187 47.8507 23.696 48.0107 23.952C48.1813 24.208 48.2987 24.3893 48.3627 24.496L47.4347 25.84C47.36 25.616 47.248 25.3493 47.0987 25.04C46.96 24.7307 46.8107 24.416 46.6507 24.096C46.4907 23.7653 46.3307 23.456 46.1707 23.168C46.0213 22.88 45.8933 22.6507 45.7867 22.48L46.5227 21.744ZM62.5867 28.688H73.4347V30.464H62.5867V28.688ZM61.3547 20.864H74.5547V31.344H72.6027V22.64H63.2267V31.376H61.3547V20.864ZM68.5867 21.6H70.4267V24.48C70.4267 24.6827 70.4427 24.8107 70.4747 24.864C70.5173 24.9067 70.6187 24.928 70.7787 24.928C70.8107 24.928 70.88 24.928 70.9867 24.928C71.104 24.928 71.216 24.928 71.3227 24.928C71.44 24.928 71.5253 24.928 71.5787 24.928C71.6747 24.928 71.744 24.912 71.7867 24.88C71.84 24.8373 71.8773 24.7573 71.8987 24.64C71.9307 24.5227 71.952 24.3413 71.9627 24.096C72.0693 24.1813 72.2133 24.272 72.3947 24.368C72.5867 24.4533 72.784 24.5333 72.9867 24.608C73.2 24.672 73.392 24.72 73.5627 24.752C73.488 25.2427 73.3813 25.6213 73.2427 25.888C73.104 26.1547 72.9173 26.3413 72.6827 26.448C72.4587 26.5547 72.1653 26.608 71.8027 26.608C71.7173 26.608 71.616 26.608 71.4987 26.608C71.3813 26.608 71.2533 26.608 71.1147 26.608C70.9867 26.608 70.864 26.608 70.7467 26.608C70.6293 26.608 70.5333 26.608 70.4587 26.608C69.9467 26.608 69.552 26.544 69.2747 26.416C69.008 26.288 68.8267 26.0693 68.7307 25.76C68.6347 25.4507 68.5867 25.0293 68.5867 24.496V21.6ZM60.7147 17.28H75.0987V19.136H60.7147V17.28ZM65.0827 18.688H66.9707V21.888H65.0827V18.688ZM68.5867 18.688H70.5227V21.888H68.5867V18.688ZM65.1787 21.232H66.9707V22.816C66.9707 23.3493 66.9013 23.8987 66.7627 24.464C66.624 25.0293 66.3627 25.568 65.9787 26.08C65.5947 26.592 65.0347 27.04 64.2987 27.424C64.2133 27.3067 64.0853 27.168 63.9147 27.008C63.744 26.848 63.5627 26.6933 63.3707 26.544C63.1893 26.3947 63.0347 26.2827 62.9067 26.208C63.5787 25.8667 64.0747 25.504 64.3947 25.12C64.7253 24.736 64.9387 24.3413 65.0347 23.936C65.1307 23.5307 65.1787 23.1413 65.1787 22.768V21.232ZM86.2347 29.2H91.2747V30.848H86.2347V29.2ZM86.9227 17.92H90.9867V19.552H86.9227V17.92ZM85.4507 25.456H92.0747V31.344H90.2347V27.072H87.2107V31.392H85.4507V25.456ZM90.3147 17.92H90.6507L90.9867 17.856L92.2027 18.384C91.9147 19.376 91.536 20.288 91.0667 21.12C90.5973 21.9413 90.0533 22.6827 89.4347 23.344C88.816 23.9947 88.1387 24.5707 87.4027 25.072C86.6773 25.5627 85.904 25.9787 85.0827 26.32C84.976 26.1067 84.816 25.856 84.6027 25.568C84.3893 25.28 84.192 25.0507 84.0107 24.88C84.7253 24.6133 85.4133 24.2667 86.0747 23.84C86.7467 23.4027 87.36 22.9013 87.9147 22.336C88.4693 21.76 88.9493 21.1307 89.3547 20.448C89.7707 19.7547 90.0907 19.0187 90.3147 18.24V17.92ZM86.9867 16.384L88.8107 16.848C88.576 17.5627 88.2933 18.2613 87.9627 18.944C87.632 19.6267 87.264 20.2667 86.8587 20.864C86.464 21.4507 86.048 21.9627 85.6107 22.4C85.504 22.2827 85.36 22.144 85.1787 21.984C84.9973 21.824 84.8107 21.6693 84.6187 21.52C84.4373 21.36 84.272 21.2373 84.1227 21.152C84.752 20.5973 85.3173 19.8987 85.8187 19.056C86.32 18.2133 86.7093 17.3227 86.9867 16.384ZM87.0347 18.816C87.2587 19.36 87.5573 19.9147 87.9307 20.48C88.3147 21.0347 88.768 21.568 89.2907 22.08C89.8133 22.592 90.4107 23.056 91.0827 23.472C91.7547 23.888 92.496 24.224 93.3067 24.48C93.1787 24.5973 93.0347 24.7573 92.8747 24.96C92.7253 25.152 92.5813 25.3493 92.4427 25.552C92.3147 25.7547 92.2027 25.936 92.1067 26.096C91.2853 25.776 90.5333 25.376 89.8507 24.896C89.1787 24.4053 88.5813 23.872 88.0587 23.296C87.536 22.7093 87.0773 22.1067 86.6827 21.488C86.2987 20.8587 85.984 20.2507 85.7387 19.664L87.0347 18.816ZM78.6667 23.456H80.2187V29.28H78.6667V23.456ZM80.4427 18.64V20.688H82.5547V18.64H80.4427ZM78.7787 17.008H84.3147V22.32H78.7787V17.008ZM81.0187 21.664H82.7147V28.816H81.0187V21.664ZM77.9467 28.976C78.512 28.88 79.1573 28.7573 79.8827 28.608C80.6187 28.4587 81.392 28.2987 82.2027 28.128C83.0133 27.9467 83.8133 27.7653 84.6027 27.584L84.7947 29.28C83.664 29.5467 82.5227 29.8187 81.3707 30.096C80.2187 30.3733 79.1893 30.6187 78.2827 30.832L77.9467 28.976ZM81.7067 24.192H84.4747V25.872H81.7067V24.192ZM95.9947 19.376H102.187V21.168H95.9947V19.376ZM98.2667 16.64H100.059V20.272H98.2667V16.64ZM105.979 19.344H110.619V21.184H105.979V19.344ZM103.307 28.88H109.035V30.656H103.307V28.88ZM105.019 16.384H106.987V24.72H105.019V16.384ZM102.443 23.936H110.075V31.36H108.107V25.728H104.315V31.424H102.443V23.936ZM95.6427 28.112C96.1973 28.0053 96.832 27.8827 97.5467 27.744C98.2613 27.6053 99.0187 27.456 99.8187 27.296C100.619 27.1253 101.408 26.9547 102.187 26.784L102.363 28.56C101.637 28.7307 100.901 28.9067 100.155 29.088C99.408 29.2587 98.6827 29.424 97.9787 29.584C97.2747 29.7333 96.624 29.8773 96.0267 30.016L95.6427 28.112ZM96.3947 21.936L97.9307 21.632C98.0587 22.208 98.1707 22.8213 98.2667 23.472C98.3733 24.112 98.4533 24.7413 98.5067 25.36C98.5707 25.968 98.608 26.5227 98.6187 27.024L96.9707 27.328C96.9813 26.8373 96.96 26.2827 96.9067 25.664C96.864 25.0453 96.7947 24.4107 96.6987 23.76C96.6133 23.1093 96.512 22.5013 96.3947 21.936ZM99.9787 21.472L101.835 21.792C101.76 22.4747 101.664 23.1733 101.547 23.888C101.44 24.6027 101.328 25.2907 101.211 25.952C101.104 26.6027 100.992 27.1787 100.875 27.68L99.2587 27.344C99.344 26.96 99.424 26.528 99.4987 26.048C99.5733 25.5573 99.6427 25.0507 99.7067 24.528C99.7707 23.9947 99.824 23.4667 99.8667 22.944C99.92 22.4213 99.9573 21.9307 99.9787 21.472Z" fill="#64503C"/>
<rect x="8.93066" y="12" width="118" height="25" stroke="#D80000" stroke-width="2"/>
<path d="M127.931 38H69.1807V36H125.931V13H69.1807V11H127.931V38Z" fill="#FF9D00"/>
<path d="M31.9307 1L0.930667 28L0.930666 1L31.9307 1Z" fill="#FFD700"/>
<path d="M3.13066 8.544H8.77866V9.136H3.13066V8.544ZM5.57866 2.32H6.20266V8.888H5.57866V2.32ZM2.83466 6.32H3.43466V9.64H2.83466V6.32ZM8.45866 6.32H9.07466V9.624H8.45866V6.32ZM3.13866 3.04H3.73866V5.224H8.13066V3.04H8.75466V5.8H3.13866V3.04ZM11.7467 3.12H17.7467V9.408H17.0987V3.72H12.3707V9.44H11.7467V3.12ZM12.0267 8.144H17.5387V8.76H12.0267V8.144Z" fill="black"/>
<mask id="path-6-outside-1_2147_510" maskUnits="userSpaceOnUse" x="10.9307" y="9" width="10" height="20" fill="black">
<rect fill="white" x="10.9307" y="9" width="10" height="20"/>
<path d="M19.5467 28H16.9547V16.624C16.9547 16.224 16.9547 15.856 16.9547 15.52C16.9707 15.168 16.9787 14.832 16.9787 14.512C16.9947 14.176 17.0107 13.856 17.0267 13.552C16.8347 13.76 16.6347 13.968 16.4267 14.176C16.2187 14.368 15.9867 14.584 15.7307 14.824L14.0027 16.336L12.6347 14.704L17.3147 10.864H19.5467V28Z"/>
</mask>
<path d="M19.5467 28H16.9547V16.624C16.9547 16.224 16.9547 15.856 16.9547 15.52C16.9707 15.168 16.9787 14.832 16.9787 14.512C16.9947 14.176 17.0107 13.856 17.0267 13.552C16.8347 13.76 16.6347 13.968 16.4267 14.176C16.2187 14.368 15.9867 14.584 15.7307 14.824L14.0027 16.336L12.6347 14.704L17.3147 10.864H19.5467V28Z" fill="black"/>
<path d="M19.5467 28V29H20.5467V28H19.5467ZM16.9547 28H15.9547V29H16.9547V28ZM16.9547 15.52L15.9557 15.4746L15.9547 15.4973V15.52H16.9547ZM16.9787 14.512L15.9798 14.4644L15.9787 14.4882V14.512H16.9787ZM17.0267 13.552L18.0253 13.6046L18.1709 10.8381L16.2919 12.8737L17.0267 13.552ZM16.4267 14.176L17.1049 14.9108L17.1196 14.8972L17.1338 14.8831L16.4267 14.176ZM15.7307 14.824L16.3892 15.5766L16.4021 15.5653L16.4146 15.5535L15.7307 14.824ZM14.0027 16.336L13.2363 16.9784L13.8925 17.7612L14.6612 17.0886L14.0027 16.336ZM12.6347 14.704L12.0003 13.9309L11.2191 14.5719L11.8683 15.3464L12.6347 14.704ZM17.3147 10.864V9.864H16.9569L16.6803 10.0909L17.3147 10.864ZM19.5467 10.864H20.5467V9.864H19.5467V10.864ZM19.5467 28V27H16.9547V28V29H19.5467V28ZM16.9547 28H17.9547V16.624H16.9547H15.9547V28H16.9547ZM16.9547 16.624H17.9547C17.9547 16.6232 17.9547 16.6224 17.9547 16.6217C17.9547 16.6209 17.9547 16.6201 17.9547 16.6193C17.9547 16.6185 17.9547 16.6178 17.9547 16.617C17.9547 16.6162 17.9547 16.6154 17.9547 16.6146C17.9547 16.6138 17.9547 16.6131 17.9547 16.6123C17.9547 16.6115 17.9547 16.6107 17.9547 16.6099C17.9547 16.6092 17.9547 16.6084 17.9547 16.6076C17.9547 16.6068 17.9547 16.6061 17.9547 16.6053C17.9547 16.6045 17.9547 16.6037 17.9547 16.6029C17.9547 16.6022 17.9547 16.6014 17.9547 16.6006C17.9547 16.5998 17.9547 16.599 17.9547 16.5983C17.9547 16.5975 17.9547 16.5967 17.9547 16.5959C17.9547 16.5951 17.9547 16.5944 17.9547 16.5936C17.9547 16.5928 17.9547 16.592 17.9547 16.5913C17.9547 16.5905 17.9547 16.5897 17.9547 16.5889C17.9547 16.5881 17.9547 16.5874 17.9547 16.5866C17.9547 16.5858 17.9547 16.585 17.9547 16.5843C17.9547 16.5835 17.9547 16.5827 17.9547 16.5819C17.9547 16.5812 17.9547 16.5804 17.9547 16.5796C17.9547 16.5788 17.9547 16.578 17.9547 16.5773C17.9547 16.5765 17.9547 16.5757 17.9547 16.5749C17.9547 16.5742 17.9547 16.5734 17.9547 16.5726C17.9547 16.5718 17.9547 16.5711 17.9547 16.5703C17.9547 16.5695 17.9547 16.5687 17.9547 16.568C17.9547 16.5672 17.9547 16.5664 17.9547 16.5656C17.9547 16.5649 17.9547 16.5641 17.9547 16.5633C17.9547 16.5625 17.9547 16.5618 17.9547 16.561C17.9547 16.5602 17.9547 16.5594 17.9547 16.5587C17.9547 16.5579 17.9547 16.5571 17.9547 16.5563C17.9547 16.5556 17.9547 16.5548 17.9547 16.554C17.9547 16.5532 17.9547 16.5525 17.9547 16.5517C17.9547 16.5509 17.9547 16.5501 17.9547 16.5494C17.9547 16.5486 17.9547 16.5478 17.9547 16.5471C17.9547 16.5463 17.9547 16.5455 17.9547 16.5447C17.9547 16.544 17.9547 16.5432 17.9547 16.5424C17.9547 16.5416 17.9547 16.5409 17.9547 16.5401C17.9547 16.5393 17.9547 16.5386 17.9547 16.5378C17.9547 16.537 17.9547 16.5362 17.9547 16.5355C17.9547 16.5347 17.9547 16.5339 17.9547 16.5331C17.9547 16.5324 17.9547 16.5316 17.9547 16.5308C17.9547 16.5301 17.9547 16.5293 17.9547 16.5285C17.9547 16.5277 17.9547 16.527 17.9547 16.5262C17.9547 16.5254 17.9547 16.5247 17.9547 16.5239C17.9547 16.5231 17.9547 16.5224 17.9547 16.5216C17.9547 16.5208 17.9547 16.52 17.9547 16.5193C17.9547 16.5185 17.9547 16.5177 17.9547 16.517C17.9547 16.5162 17.9547 16.5154 17.9547 16.5147C17.9547 16.5139 17.9547 16.5131 17.9547 16.5123C17.9547 16.5116 17.9547 16.5108 17.9547 16.51C17.9547 16.5093 17.9547 16.5085 17.9547 16.5077C17.9547 16.507 17.9547 16.5062 17.9547 16.5054C17.9547 16.5047 17.9547 16.5039 17.9547 16.5031C17.9547 16.5023 17.9547 16.5016 17.9547 16.5008C17.9547 16.5 17.9547 16.4993 17.9547 16.4985C17.9547 16.4977 17.9547 16.497 17.9547 16.4962C17.9547 16.4954 17.9547 16.4947 17.9547 16.4939C17.9547 16.4931 17.9547 16.4924 17.9547 16.4916C17.9547 16.4908 17.9547 16.4901 17.9547 16.4893C17.9547 16.4885 17.9547 16.4878 17.9547 16.487C17.9547 16.4862 17.9547 16.4855 17.9547 16.4847C17.9547 16.4839 17.9547 16.4832 17.9547 16.4824C17.9547 16.4816 17.9547 16.4809 17.9547 16.4801C17.9547 16.4793 17.9547 16.4786 17.9547 16.4778C17.9547 16.477 17.9547 16.4763 17.9547 16.4755C17.9547 16.4747 17.9547 16.474 17.9547 16.4732C17.9547 16.4724 17.9547 16.4717 17.9547 16.4709C17.9547 16.4701 17.9547 16.4694 17.9547 16.4686C17.9547 16.4678 17.9547 16.4671 17.9547 16.4663C17.9547 16.4656 17.9547 16.4648 17.9547 16.464C17.9547 16.4633 17.9547 16.4625 17.9547 16.4617C17.9547 16.461 17.9547 16.4602 17.9547 16.4594C17.9547 16.4587 17.9547 16.4579 17.9547 16.4571C17.9547 16.4564 17.9547 16.4556 17.9547 16.4549C17.9547 16.4541 17.9547 16.4533 17.9547 16.4526C17.9547 16.4518 17.9547 16.451 17.9547 16.4503C17.9547 16.4495 17.9547 16.4488 17.9547 16.448C17.9547 16.4472 17.9547 16.4465 17.9547 16.4457C17.9547 16.4449 17.9547 16.4442 17.9547 16.4434C17.9547 16.4427 17.9547 16.4419 17.9547 16.4411C17.9547 16.4404 17.9547 16.4396 17.9547 16.4388C17.9547 16.4381 17.9547 16.4373 17.9547 16.4366C17.9547 16.4358 17.9547 16.435 17.9547 16.4343C17.9547 16.4335 17.9547 16.4328 17.9547 16.432C17.9547 16.4312 17.9547 16.4305 17.9547 16.4297C17.9547 16.4289 17.9547 16.4282 17.9547 16.4274C17.9547 16.4267 17.9547 16.4259 17.9547 16.4251C17.9547 16.4244 17.9547 16.4236 17.9547 16.4229C17.9547 16.4221 17.9547 16.4213 17.9547 16.4206C17.9547 16.4198 17.9547 16.4191 17.9547 16.4183C17.9547 16.4175 17.9547 16.4168 17.9547 16.416C17.9547 16.4153 17.9547 16.4145 17.9547 16.4138C17.9547 16.413 17.9547 16.4122 17.9547 16.4115C17.9547 16.4107 17.9547 16.41 17.9547 16.4092C17.9547 16.4084 17.9547 16.4077 17.9547 16.4069C17.9547 16.4062 17.9547 16.4054 17.9547 16.4046C17.9547 16.4039 17.9547 16.4031 17.9547 16.4024C17.9547 16.4016 17.9547 16.4009 17.9547 16.4001C17.9547 16.3993 17.9547 16.3986 17.9547 16.3978C17.9547 16.3971 17.9547 16.3963 17.9547 16.3956C17.9547 16.3948 17.9547 16.394 17.9547 16.3933C17.9547 16.3925 17.9547 16.3918 17.9547 16.391C17.9547 16.3903 17.9547 16.3895 17.9547 16.3887C17.9547 16.388 17.9547 16.3872 17.9547 16.3865C17.9547 16.3857 17.9547 16.385 17.9547 16.3842C17.9547 16.3835 17.9547 16.3827 17.9547 16.3819C17.9547 16.3812 17.9547 16.3804 17.9547 16.3797C17.9547 16.3789 17.9547 16.3782 17.9547 16.3774C17.9547 16.3767 17.9547 16.3759 17.9547 16.3751C17.9547 16.3744 17.9547 16.3736 17.9547 16.3729C17.9547 16.3721 17.9547 16.3714 17.9547 16.3706C17.9547 16.3699 17.9547 16.3691 17.9547 16.3684C17.9547 16.3676 17.9547 16.3668 17.9547 16.3661C17.9547 16.3653 17.9547 16.3646 17.9547 16.3638C17.9547 16.3631 17.9547 16.3623 17.9547 16.3616C17.9547 16.3608 17.9547 16.3601 17.9547 16.3593C17.9547 16.3586 17.9547 16.3578 17.9547 16.3571C17.9547 16.3563 17.9547 16.3555 17.9547 16.3548C17.9547 16.354 17.9547 16.3533 17.9547 16.3525C17.9547 16.3518 17.9547 16.351 17.9547 16.3503C17.9547 16.3495 17.9547 16.3488 17.9547 16.348C17.9547 16.3473 17.9547 16.3465 17.9547 16.3458C17.9547 16.345 17.9547 16.3443 17.9547 16.3435C17.9547 16.3428 17.9547 16.342 17.9547 16.3413C17.9547 16.3405 17.9547 16.3398 17.9547 16.339C17.9547 16.3383 17.9547 16.3375 17.9547 16.3368C17.9547 16.336 17.9547 16.3353 17.9547 16.3345C17.9547 16.3338 17.9547 16.333 17.9547 16.3322C17.9547 16.3315 17.9547 16.3307 17.9547 16.33C17.9547 16.3292 17.9547 16.3285 17.9547 16.3277C17.9547 16.327 17.9547 16.3263 17.9547 16.3255C17.9547 16.3248 17.9547 16.324 17.9547 16.3233C17.9547 16.3225 17.9547 16.3218 17.9547 16.321C17.9547 16.3203 17.9547 16.3195 17.9547 16.3188C17.9547 16.318 17.9547 16.3173 17.9547 16.3165C17.9547 16.3158 17.9547 16.315 17.9547 16.3143C17.9547 16.3135 17.9547 16.3128 17.9547 16.312C17.9547 16.3113 17.9547 16.3105 17.9547 16.3098C17.9547 16.309 17.9547 16.3083 17.9547 16.3075C17.9547 16.3068 17.9547 16.306 17.9547 16.3053C17.9547 16.3045 17.9547 16.3038 17.9547 16.3031C17.9547 16.3023 17.9547 16.3016 17.9547 16.3008C17.9547 16.3001 17.9547 16.2993 17.9547 16.2986C17.9547 16.2978 17.9547 16.2971 17.9547 16.2963C17.9547 16.2956 17.9547 16.2948 17.9547 16.2941C17.9547 16.2933 17.9547 16.2926 17.9547 16.2919C17.9547 16.2911 17.9547 16.2904 17.9547 16.2896C17.9547 16.2889 17.9547 16.2881 17.9547 16.2874C17.9547 16.2866 17.9547 16.2859 17.9547 16.2851C17.9547 16.2844 17.9547 16.2837 17.9547 16.2829C17.9547 16.2822 17.9547 16.2814 17.9547 16.2807C17.9547 16.2799 17.9547 16.2792 17.9547 16.2784C17.9547 16.2777 17.9547 16.277 17.9547 16.2762C17.9547 16.2755 17.9547 16.2747 17.9547 16.274C17.9547 16.2732 17.9547 16.2725 17.9547 16.2717C17.9547 16.271 17.9547 16.2703 17.9547 16.2695C17.9547 16.2688 17.9547 16.268 17.9547 16.2673C17.9547 16.2665 17.9547 16.2658 17.9547 16.2651C17.9547 16.2643 17.9547 16.2636 17.9547 16.2628C17.9547 16.2621 17.9547 16.2613 17.9547 16.2606C17.9547 16.2599 17.9547 16.2591 17.9547 16.2584C17.9547 16.2576 17.9547 16.2569 17.9547 16.2561C17.9547 16.2554 17.9547 16.2547 17.9547 16.2539C17.9547 16.2532 17.9547 16.2524 17.9547 16.2517C17.9547 16.251 17.9547 16.2502 17.9547 16.2495C17.9547 16.2487 17.9547 16.248 17.9547 16.2473C17.9547 16.2465 17.9547 16.2458 17.9547 16.245C17.9547 16.2443 17.9547 16.2435 17.9547 16.2428C17.9547 16.2421 17.9547 16.2413 17.9547 16.2406C17.9547 16.2398 17.9547 16.2391 17.9547 16.2384C17.9547 16.2376 17.9547 16.2369 17.9547 16.2361C17.9547 16.2354 17.9547 16.2347 17.9547 16.2339C17.9547 16.2332 17.9547 16.2324 17.9547 16.2317C17.9547 16.231 17.9547 16.2302 17.9547 16.2295C17.9547 16.2288 17.9547 16.228 17.9547 16.2273C17.9547 16.2265 17.9547 16.2258 17.9547 16.2251C17.9547 16.2243 17.9547 16.2236 17.9547 16.2228C17.9547 16.2221 17.9547 16.2214 17.9547 16.2206C17.9547 16.2199 17.9547 16.2192 17.9547 16.2184C17.9547 16.2177 17.9547 16.2169 17.9547 16.2162C17.9547 16.2155 17.9547 16.2147 17.9547 16.214C17.9547 16.2133 17.9547 16.2125 17.9547 16.2118C17.9547 16.211 17.9547 16.2103 17.9547 16.2096C17.9547 16.2088 17.9547 16.2081 17.9547 16.2074C17.9547 16.2066 17.9547 16.2059 17.9547 16.2051C17.9547 16.2044 17.9547 16.2037 17.9547 16.2029C17.9547 16.2022 17.9547 16.2015 17.9547 16.2007C17.9547 16.2 17.9547 16.1993 17.9547 16.1985C17.9547 16.1978 17.9547 16.1971 17.9547 16.1963C17.9547 16.1956 17.9547 16.1948 17.9547 16.1941C17.9547 16.1934 17.9547 16.1926 17.9547 16.1919C17.9547 16.1912 17.9547 16.1904 17.9547 16.1897C17.9547 16.189 17.9547 16.1882 17.9547 16.1875C17.9547 16.1868 17.9547 16.186 17.9547 16.1853C17.9547 16.1846 17.9547 16.1838 17.9547 16.1831C17.9547 16.1824 17.9547 16.1816 17.9547 16.1809C17.9547 16.1802 17.9547 16.1794 17.9547 16.1787C17.9547 16.178 17.9547 16.1772 17.9547 16.1765C17.9547 16.1758 17.9547 16.175 17.9547 16.1743C17.9547 16.1736 17.9547 16.1728 17.9547 16.1721C17.9547 16.1714 17.9547 16.1706 17.9547 16.1699C17.9547 16.1692 17.9547 16.1684 17.9547 16.1677C17.9547 16.167 17.9547 16.1662 17.9547 16.1655C17.9547 16.1648 17.9547 16.164 17.9547 16.1633C17.9547 16.1626 17.9547 16.1618 17.9547 16.1611C17.9547 16.1604 17.9547 16.1597 17.9547 16.1589C17.9547 16.1582 17.9547 16.1575 17.9547 16.1567C17.9547 16.156 17.9547 16.1553 17.9547 16.1545C17.9547 16.1538 17.9547 16.1531 17.9547 16.1523C17.9547 16.1516 17.9547 16.1509 17.9547 16.1502C17.9547 16.1494 17.9547 16.1487 17.9547 16.148C17.9547 16.1472 17.9547 16.1465 17.9547 16.1458C17.9547 16.145 17.9547 16.1443 17.9547 16.1436C17.9547 16.1429 17.9547 16.1421 17.9547 16.1414C17.9547 16.1407 17.9547 16.1399 17.9547 16.1392C17.9547 16.1385 17.9547 16.1377 17.9547 16.137C17.9547 16.1363 17.9547 16.1356 17.9547 16.1348C17.9547 16.1341 17.9547 16.1334 17.9547 16.1327C17.9547 16.1319 17.9547 16.1312 17.9547 16.1305C17.9547 16.1297 17.9547 16.129 17.9547 16.1283C17.9547 16.1276 17.9547 16.1268 17.9547 16.1261C17.9547 16.1254 17.9547 16.1246 17.9547 16.1239C17.9547 16.1232 17.9547 16.1225 17.9547 16.1217C17.9547 16.121 17.9547 16.1203 17.9547 16.1196C17.9547 16.1188 17.9547 16.1181 17.9547 16.1174C17.9547 16.1166 17.9547 16.1159 17.9547 16.1152C17.9547 16.1145 17.9547 16.1137 17.9547 16.113C17.9547 16.1123 17.9547 16.1116 17.9547 16.1108C17.9547 16.1101 17.9547 16.1094 17.9547 16.1087C17.9547 16.1079 17.9547 16.1072 17.9547 16.1065C17.9547 16.1058 17.9547 16.105 17.9547 16.1043C17.9547 16.1036 17.9547 16.1029 17.9547 16.1021C17.9547 16.1014 17.9547 16.1007 17.9547 16.1C17.9547 16.0992 17.9547 16.0985 17.9547 16.0978C17.9547 16.0971 17.9547 16.0963 17.9547 16.0956C17.9547 16.0949 17.9547 16.0942 17.9547 16.0934C17.9547 16.0927 17.9547 16.092 17.9547 16.0913C17.9547 16.0905 17.9547 16.0898 17.9547 16.0891C17.9547 16.0884 17.9547 16.0877 17.9547 16.0869C17.9547 16.0862 17.9547 16.0855 17.9547 16.0848C17.9547 16.084 17.9547 16.0833 17.9547 16.0826C17.9547 16.0819 17.9547 16.0811 17.9547 16.0804C17.9547 16.0797 17.9547 16.079 17.9547 16.0783C17.9547 16.0775 17.9547 16.0768 17.9547 16.0761C17.9547 16.0754 17.9547 16.0746 17.9547 16.0739C17.9547 16.0732 17.9547 16.0725 17.9547 16.0718C17.9547 16.071 17.9547 16.0703 17.9547 16.0696C17.9547 16.0689 17.9547 16.0682 17.9547 16.0674C17.9547 16.0667 17.9547 16.066 17.9547 16.0653C17.9547 16.0646 17.9547 16.0638 17.9547 16.0631C17.9547 16.0624 17.9547 16.0617 17.9547 16.061C17.9547 16.0602 17.9547 16.0595 17.9547 16.0588C17.9547 16.0581 17.9547 16.0573 17.9547 16.0566C17.9547 16.0559 17.9547 16.0552 17.9547 16.0545C17.9547 16.0538 17.9547 16.053 17.9547 16.0523C17.9547 16.0516 17.9547 16.0509 17.9547 16.0502C17.9547 16.0494 17.9547 16.0487 17.9547 16.048C17.9547 16.0473 17.9547 16.0466 17.9547 16.0458C17.9547 16.0451 17.9547 16.0444 17.9547 16.0437C17.9547 16.043 17.9547 16.0423 17.9547 16.0415C17.9547 16.0408 17.9547 16.0401 17.9547 16.0394C17.9547 16.0387 17.9547 16.0379 17.9547 16.0372C17.9547 16.0365 17.9547 16.0358 17.9547 16.0351C17.9547 16.0344 17.9547 16.0336 17.9547 16.0329C17.9547 16.0322 17.9547 16.0315 17.9547 16.0308C17.9547 16.0301 17.9547 16.0293 17.9547 16.0286C17.9547 16.0279 17.9547 16.0272 17.9547 16.0265C17.9547 16.0258 17.9547 16.025 17.9547 16.0243C17.9547 16.0236 17.9547 16.0229 17.9547 16.0222C17.9547 16.0215 17.9547 16.0207 17.9547 16.02C17.9547 16.0193 17.9547 16.0186 17.9547 16.0179C17.9547 16.0172 17.9547 16.0165 17.9547 16.0157C17.9547 16.015 17.9547 16.0143 17.9547 16.0136C17.9547 16.0129 17.9547 16.0122 17.9547 16.0114C17.9547 16.0107 17.9547 16.01 17.9547 16.0093C17.9547 16.0086 17.9547 16.0079 17.9547 16.0072C17.9547 16.0064 17.9547 16.0057 17.9547 16.005C17.9547 16.0043 17.9547 16.0036 17.9547 16.0029C17.9547 16.0022 17.9547 16.0015 17.9547 16.0007C17.9547 16 17.9547 15.9993 17.9547 15.9986C17.9547 15.9979 17.9547 15.9972 17.9547 15.9965C17.9547 15.9957 17.9547 15.995 17.9547 15.9943C17.9547 15.9936 17.9547 15.9929 17.9547 15.9922C17.9547 15.9915 17.9547 15.9908 17.9547 15.99C17.9547 15.9893 17.9547 15.9886 17.9547 15.9879C17.9547 15.9872 17.9547 15.9865 17.9547 15.9858C17.9547 15.9851 17.9547 15.9844 17.9547 15.9836C17.9547 15.9829 17.9547 15.9822 17.9547 15.9815C17.9547 15.9808 17.9547 15.9801 17.9547 15.9794C17.9547 15.9787 17.9547 15.978 17.9547 15.9772C17.9547 15.9765 17.9547 15.9758 17.9547 15.9751C17.9547 15.9744 17.9547 15.9737 17.9547 15.973C17.9547 15.9723 17.9547 15.9716 17.9547 15.9708C17.9547 15.9701 17.9547 15.9694 17.9547 15.9687C17.9547 15.968 17.9547 15.9673 17.9547 15.9666C17.9547 15.9659 17.9547 15.9652 17.9547 15.9645C17.9547 15.9638 17.9547 15.963 17.9547 15.9623C17.9547 15.9616 17.9547 15.9609 17.9547 15.9602C17.9547 15.9595 17.9547 15.9588 17.9547 15.9581C17.9547 15.9574 17.9547 15.9567 17.9547 15.956C17.9547 15.9552 17.9547 15.9545 17.9547 15.9538C17.9547 15.9531 17.9547 15.9524 17.9547 15.9517C17.9547 15.951 17.9547 15.9503 17.9547 15.9496C17.9547 15.9489 17.9547 15.9482 17.9547 15.9475C17.9547 15.9468 17.9547 15.9461 17.9547 15.9453C17.9547 15.9446 17.9547 15.9439 17.9547 15.9432C17.9547 15.9425 17.9547 15.9418 17.9547 15.9411C17.9547 15.9404 17.9547 15.9397 17.9547 15.939C17.9547 15.9383 17.9547 15.9376 17.9547 15.9369C17.9547 15.9362 17.9547 15.9355 17.9547 15.9347C17.9547 15.934 17.9547 15.9333 17.9547 15.9326C17.9547 15.9319 17.9547 15.9312 17.9547 15.9305C17.9547 15.9298 17.9547 15.9291 17.9547 15.9284C17.9547 15.9277 17.9547 15.927 17.9547 15.9263C17.9547 15.9256 17.9547 15.9249 17.9547 15.9242C17.9547 15.9235 17.9547 15.9228 17.9547 15.9221C17.9547 15.9214 17.9547 15.9206 17.9547 15.9199C17.9547 15.9192 17.9547 15.9185 17.9547 15.9178C17.9547 15.9171 17.9547 15.9164 17.9547 15.9157C17.9547 15.915 17.9547 15.9143 17.9547 15.9136C17.9547 15.9129 17.9547 15.9122 17.9547 15.9115C17.9547 15.9108 17.9547 15.9101 17.9547 15.9094C17.9547 15.9087 17.9547 15.908 17.9547 15.9073C17.9547 15.9066 17.9547 15.9059 17.9547 15.9052C17.9547 15.9045 17.9547 15.9038 17.9547 15.9031C17.9547 15.9024 17.9547 15.9017 17.9547 15.901C17.9547 15.9003 17.9547 15.8996 17.9547 15.8989C17.9547 15.8982 17.9547 15.8975 17.9547 15.8968C17.9547 15.8961 17.9547 15.8953 17.9547 15.8946C17.9547 15.8939 17.9547 15.8932 17.9547 15.8925C17.9547 15.8918 17.9547 15.8911 17.9547 15.8904C17.9547 15.8897 17.9547 15.889 17.9547 15.8883C17.9547 15.8876 17.9547 15.8869 17.9547 15.8862C17.9547 15.8855 17.9547 15.8848 17.9547 15.8841C17.9547 15.8834 17.9547 15.8827 17.9547 15.882C17.9547 15.8813 17.9547 15.8806 17.9547 15.8799C17.9547 15.8792 17.9547 15.8785 17.9547 15.8778C17.9547 15.8771 17.9547 15.8764 17.9547 15.8757C17.9547 15.875 17.9547 15.8743 17.9547 15.8736C17.9547 15.873 17.9547 15.8723 17.9547 15.8716C17.9547 15.8709 17.9547 15.8702 17.9547 15.8695C17.9547 15.8688 17.9547 15.8681 17.9547 15.8674C17.9547 15.8667 17.9547 15.866 17.9547 15.8653C17.9547 15.8646 17.9547 15.8639 17.9547 15.8632C17.9547 15.8625 17.9547 15.8618 17.9547 15.8611C17.9547 15.8604 17.9547 15.8597 17.9547 15.859C17.9547 15.8583 17.9547 15.8576 17.9547 15.8569C17.9547 15.8562 17.9547 15.8555 17.9547 15.8548C17.9547 15.8541 17.9547 15.8534 17.9547 15.8527C17.9547 15.852 17.9547 15.8513 17.9547 15.8506C17.9547 15.8499 17.9547 15.8492 17.9547 15.8485C17.9547 15.8479 17.9547 15.8472 17.9547 15.8465C17.9547 15.8458 17.9547 15.8451 17.9547 15.8444C17.9547 15.8437 17.9547 15.843 17.9547 15.8423C17.9547 15.8416 17.9547 15.8409 17.9547 15.8402C17.9547 15.8395 17.9547 15.8388 17.9547 15.8381C17.9547 15.8374 17.9547 15.8367 17.9547 15.836C17.9547 15.8353 17.9547 15.8346 17.9547 15.834C17.9547 15.8333 17.9547 15.8326 17.9547 15.8319C17.9547 15.8312 17.9547 15.8305 17.9547 15.8298C17.9547 15.8291 17.9547 15.8284 17.9547 15.8277C17.9547 15.827 17.9547 15.8263 17.9547 15.8256C17.9547 15.8249 17.9547 15.8242 17.9547 15.8236C17.9547 15.8229 17.9547 15.8222 17.9547 15.8215C17.9547 15.8208 17.9547 15.8201 17.9547 15.8194C17.9547 15.8187 17.9547 15.818 17.9547 15.8173C17.9547 15.8166 17.9547 15.8159 17.9547 15.8152C17.9547 15.8146 17.9547 15.8139 17.9547 15.8132C17.9547 15.8125 17.9547 15.8118 17.9547 15.8111C17.9547 15.8104 17.9547 15.8097 17.9547 15.809C17.9547 15.8083 17.9547 15.8076 17.9547 15.8069C17.9547 15.8063 17.9547 15.8056 17.9547 15.8049C17.9547 15.8042 17.9547 15.8035 17.9547 15.8028C17.9547 15.8021 17.9547 15.8014 17.9547 15.8007C17.9547 15.8 17.9547 15.7994 17.9547 15.7987C17.9547 15.798 17.9547 15.7973 17.9547 15.7966C17.9547 15.7959 17.9547 15.7952 17.9547 15.7945C17.9547 15.7938 17.9547 15.7931 17.9547 15.7925C17.9547 15.7918 17.9547 15.7911 17.9547 15.7904C17.9547 15.7897 17.9547 15.789 17.9547 15.7883C17.9547 15.7876 17.9547 15.7869 17.9547 15.7863C17.9547 15.7856 17.9547 15.7849 17.9547 15.7842C17.9547 15.7835 17.9547 15.7828 17.9547 15.7821C17.9547 15.7814 17.9547 15.7807 17.9547 15.7801C17.9547 15.7794 17.9547 15.7787 17.9547 15.778C17.9547 15.7773 17.9547 15.7766 17.9547 15.7759C17.9547 15.7752 17.9547 15.7746 17.9547 15.7739C17.9547 15.7732 17.9547 15.7725 17.9547 15.7718C17.9547 15.7711 17.9547 15.7704 17.9547 15.7698C17.9547 15.7691 17.9547 15.7684 17.9547 15.7677C17.9547 15.767 17.9547 15.7663 17.9547 15.7656C17.9547 15.765 17.9547 15.7643 17.9547 15.7636C17.9547 15.7629 17.9547 15.7622 17.9547 15.7615C17.9547 15.7608 17.9547 15.7602 17.9547 15.7595C17.9547 15.7588 17.9547 15.7581 17.9547 15.7574C17.9547 15.7567 17.9547 15.756 17.9547 15.7554C17.9547 15.7547 17.9547 15.754 17.9547 15.7533C17.9547 15.7526 17.9547 15.7519 17.9547 15.7512C17.9547 15.7506 17.9547 15.7499 17.9547 15.7492C17.9547 15.7485 17.9547 15.7478 17.9547 15.7471C17.9547 15.7465 17.9547 15.7458 17.9547 15.7451C17.9547 15.7444 17.9547 15.7437 17.9547 15.743C17.9547 15.7424 17.9547 15.7417 17.9547 15.741C17.9547 15.7403 17.9547 15.7396 17.9547 15.7389C17.9547 15.7383 17.9547 15.7376 17.9547 15.7369C17.9547 15.7362 17.9547 15.7355 17.9547 15.7348C17.9547 15.7342 17.9547 15.7335 17.9547 15.7328C17.9547 15.7321 17.9547 15.7314 17.9547 15.7308C17.9547 15.7301 17.9547 15.7294 17.9547 15.7287C17.9547 15.728 17.9547 15.7273 17.9547 15.7267C17.9547 15.726 17.9547 15.7253 17.9547 15.7246C17.9547 15.7239 17.9547 15.7233 17.9547 15.7226C17.9547 15.7219 17.9547 15.7212 17.9547 15.7205C17.9547 15.7199 17.9547 15.7192 17.9547 15.7185C17.9547 15.7178 17.9547 15.7171 17.9547 15.7165C17.9547 15.7158 17.9547 15.7151 17.9547 15.7144C17.9547 15.7137 17.9547 15.7131 17.9547 15.7124C17.9547 15.7117 17.9547 15.711 17.9547 15.7103C17.9547 15.7097 17.9547 15.709 17.9547 15.7083C17.9547 15.7076 17.9547 15.7069 17.9547 15.7063C17.9547 15.7056 17.9547 15.7049 17.9547 15.7042C17.9547 15.7035 17.9547 15.7029 17.9547 15.7022C17.9547 15.7015 17.9547 15.7008 17.9547 15.7002C17.9547 15.6995 17.9547 15.6988 17.9547 15.6981C17.9547 15.6974 17.9547 15.6968 17.9547 15.6961C17.9547 15.6954 17.9547 15.6947 17.9547 15.6941C17.9547 15.6934 17.9547 15.6927 17.9547 15.692C17.9547 15.6913 17.9547 15.6907 17.9547 15.69C17.9547 15.6893 17.9547 15.6886 17.9547 15.688C17.9547 15.6873 17.9547 15.6866 17.9547 15.6859C17.9547 15.6853 17.9547 15.6846 17.9547 15.6839C17.9547 15.6832 17.9547 15.6825 17.9547 15.6819C17.9547 15.6812 17.9547 15.6805 17.9547 15.6798C17.9547 15.6792 17.9547 15.6785 17.9547 15.6778C17.9547 15.6771 17.9547 15.6765 17.9547 15.6758C17.9547 15.6751 17.9547 15.6744 17.9547 15.6738C17.9547 15.6731 17.9547 15.6724 17.9547 15.6717C17.9547 15.6711 17.9547 15.6704 17.9547 15.6697C17.9547 15.669 17.9547 15.6684 17.9547 15.6677C17.9547 15.667 17.9547 15.6663 17.9547 15.6657C17.9547 15.665 17.9547 15.6643 17.9547 15.6636C17.9547 15.663 17.9547 15.6623 17.9547 15.6616C17.9547 15.661 17.9547 15.6603 17.9547 15.6596C17.9547 15.6589 17.9547 15.6583 17.9547 15.6576C17.9547 15.6569 17.9547 15.6562 17.9547 15.6556C17.9547 15.6549 17.9547 15.6542 17.9547 15.6535C17.9547 15.6529 17.9547 15.6522 17.9547 15.6515C17.9547 15.6509 17.9547 15.6502 17.9547 15.6495C17.9547 15.6488 17.9547 15.6482 17.9547 15.6475C17.9547 15.6468 17.9547 15.6462 17.9547 15.6455C17.9547 15.6448 17.9547 15.6441 17.9547 15.6435C17.9547 15.6428 17.9547 15.6421 17.9547 15.6415C17.9547 15.6408 17.9547 15.6401 17.9547 15.6394C17.9547 15.6388 17.9547 15.6381 17.9547 15.6374C17.9547 15.6368 17.9547 15.6361 17.9547 15.6354C17.9547 15.6347 17.9547 15.6341 17.9547 15.6334C17.9547 15.6327 17.9547 15.6321 17.9547 15.6314C17.9547 15.6307 17.9547 15.6301 17.9547 15.6294C17.9547 15.6287 17.9547 15.628 17.9547 15.6274C17.9547 15.6267 17.9547 15.626 17.9547 15.6254C17.9547 15.6247 17.9547 15.624 17.9547 15.6234C17.9547 15.6227 17.9547 15.622 17.9547 15.6214C17.9547 15.6207 17.9547 15.62 17.9547 15.6194C17.9547 15.6187 17.9547 15.618 17.9547 15.6173C17.9547 15.6167 17.9547 15.616 17.9547 15.6153C17.9547 15.6147 17.9547 15.614 17.9547 15.6133C17.9547 15.6127 17.9547 15.612 17.9547 15.6113C17.9547 15.6107 17.9547 15.61 17.9547 15.6093C17.9547 15.6087 17.9547 15.608 17.9547 15.6073C17.9547 15.6067 17.9547 15.606 17.9547 15.6053C17.9547 15.6047 17.9547 15.604 17.9547 15.6033C17.9547 15.6027 17.9547 15.602 17.9547 15.6013C17.9547 15.6007 17.9547 15.6 17.9547 15.5993C17.9547 15.5987 17.9547 15.598 17.9547 15.5973C17.9547 15.5967 17.9547 15.596 17.9547 15.5953C17.9547 15.5947 17.9547 15.594 17.9547 15.5933C17.9547 15.5927 17.9547 15.592 17.9547 15.5913C17.9547 15.5907 17.9547 15.59 17.9547 15.5894C17.9547 15.5887 17.9547 15.588 17.9547 15.5874C17.9547 15.5867 17.9547 15.586 17.9547 15.5854C17.9547 15.5847 17.9547 15.584 17.9547 15.5834C17.9547 15.5827 17.9547 15.582 17.9547 15.5814C17.9547 15.5807 17.9547 15.5801 17.9547 15.5794C17.9547 15.5787 17.9547 15.5781 17.9547 15.5774C17.9547 15.5767 17.9547 15.5761 17.9547 15.5754C17.9547 15.5747 17.9547 15.5741 17.9547 15.5734C17.9547 15.5728 17.9547 15.5721 17.9547 15.5714C17.9547 15.5708 17.9547 15.5701 17.9547 15.5694C17.9547 15.5688 17.9547 15.5681 17.9547 15.5675C17.9547 15.5668 17.9547 15.5661 17.9547 15.5655C17.9547 15.5648 17.9547 15.5642 17.9547 15.5635C17.9547 15.5628 17.9547 15.5622 17.9547 15.5615C17.9547 15.5608 17.9547 15.5602 17.9547 15.5595C17.9547 15.5589 17.9547 15.5582 17.9547 15.5575C17.9547 15.5569 17.9547 15.5562 17.9547 15.5556C17.9547 15.5549 17.9547 15.5542 17.9547 15.5536C17.9547 15.5529 17.9547 15.5523 17.9547 15.5516C17.9547 15.5509 17.9547 15.5503 17.9547 15.5496C17.9547 15.549 17.9547 15.5483 17.9547 15.5476C17.9547 15.547 17.9547 15.5463 17.9547 15.5457C17.9547 15.545 17.9547 15.5443 17.9547 15.5437C17.9547 15.543 17.9547 15.5424 17.9547 15.5417C17.9547 15.541 17.9547 15.5404 17.9547 15.5397C17.9547 15.5391 17.9547 15.5384 17.9547 15.5377C17.9547 15.5371 17.9547 15.5364 17.9547 15.5358C17.9547 15.5351 17.9547 15.5345 17.9547 15.5338C17.9547 15.5331 17.9547 15.5325 17.9547 15.5318C17.9547 15.5312 17.9547 15.5305 17.9547 15.5299C17.9547 15.5292 17.9547 15.5285 17.9547 15.5279C17.9547 15.5272 17.9547 15.5266 17.9547 15.5259C17.9547 15.5253 17.9547 15.5246 17.9547 15.5239C17.9547 15.5233 17.9547 15.5226 17.9547 15.522C17.9547 15.5213 17.9547 15.5207 17.9547 15.52H16.9547H15.9547C15.9547 15.5207 15.9547 15.5213 15.9547 15.522C15.9547 15.5226 15.9547 15.5233 15.9547 15.5239C15.9547 15.5246 15.9547 15.5253 15.9547 15.5259C15.9547 15.5266 15.9547 15.5272 15.9547 15.5279C15.9547 15.5285 15.9547 15.5292 15.9547 15.5299C15.9547 15.5305 15.9547 15.5312 15.9547 15.5318C15.9547 15.5325 15.9547 15.5331 15.9547 15.5338C15.9547 15.5345 15.9547 15.5351 15.9547 15.5358C15.9547 15.5364 15.9547 15.5371 15.9547 15.5377C15.9547 15.5384 15.9547 15.5391 15.9547 15.5397C15.9547 15.5404 15.9547 15.541 15.9547 15.5417C15.9547 15.5424 15.9547 15.543 15.9547 15.5437C15.9547 15.5443 15.9547 15.545 15.9547 15.5457C15.9547 15.5463 15.9547 15.547 15.9547 15.5476C15.9547 15.5483 15.9547 15.549 15.9547 15.5496C15.9547 15.5503 15.9547 15.5509 15.9547 15.5516C15.9547 15.5523 15.9547 15.5529 15.9547 15.5536C15.9547 15.5542 15.9547 15.5549 15.9547 15.5556C15.9547 15.5562 15.9547 15.5569 15.9547 15.5575C15.9547 15.5582 15.9547 15.5589 15.9547 15.5595C15.9547 15.5602 15.9547 15.5608 15.9547 15.5615C15.9547 15.5622 15.9547 15.5628 15.9547 15.5635C15.9547 15.5642 15.9547 15.5648 15.9547 15.5655C15.9547 15.5661 15.9547 15.5668 15.9547 15.5675C15.9547 15.5681 15.9547 15.5688 15.9547 15.5694C15.9547 15.5701 15.9547 15.5708 15.9547 15.5714C15.9547 15.5721 15.9547 15.5728 15.9547 15.5734C15.9547 15.5741 15.9547 15.5747 15.9547 15.5754C15.9547 15.5761 15.9547 15.5767 15.9547 15.5774C15.9547 15.5781 15.9547 15.5787 15.9547 15.5794C15.9547 15.5801 15.9547 15.5807 15.9547 15.5814C15.9547 15.582 15.9547 15.5827 15.9547 15.5834C15.9547 15.584 15.9547 15.5847 15.9547 15.5854C15.9547 15.586 15.9547 15.5867 15.9547 15.5874C15.9547 15.588 15.9547 15.5887 15.9547 15.5894C15.9547 15.59 15.9547 15.5907 15.9547 15.5913C15.9547 15.592 15.9547 15.5927 15.9547 15.5933C15.9547 15.594 15.9547 15.5947 15.9547 15.5953C15.9547 15.596 15.9547 15.5967 15.9547 15.5973C15.9547 15.598 15.9547 15.5987 15.9547 15.5993C15.9547 15.6 15.9547 15.6007 15.9547 15.6013C15.9547 15.602 15.9547 15.6027 15.9547 15.6033C15.9547 15.604 15.9547 15.6047 15.9547 15.6053C15.9547 15.606 15.9547 15.6067 15.9547 15.6073C15.9547 15.608 15.9547 15.6087 15.9547 15.6093C15.9547 15.61 15.9547 15.6107 15.9547 15.6113C15.9547 15.612 15.9547 15.6127 15.9547 15.6133C15.9547 15.614 15.9547 15.6147 15.9547 15.6153C15.9547 15.616 15.9547 15.6167 15.9547 15.6173C15.9547 15.618 15.9547 15.6187 15.9547 15.6194C15.9547 15.62 15.9547 15.6207 15.9547 15.6214C15.9547 15.622 15.9547 15.6227 15.9547 15.6234C15.9547 15.624 15.9547 15.6247 15.9547 15.6254C15.9547 15.626 15.9547 15.6267 15.9547 15.6274C15.9547 15.628 15.9547 15.6287 15.9547 15.6294C15.9547 15.6301 15.9547 15.6307 15.9547 15.6314C15.9547 15.6321 15.9547 15.6327 15.9547 15.6334C15.9547 15.6341 15.9547 15.6347 15.9547 15.6354C15.9547 15.6361 15.9547 15.6368 15.9547 15.6374C15.9547 15.6381 15.9547 15.6388 15.9547 15.6394C15.9547 15.6401 15.9547 15.6408 15.9547 15.6415C15.9547 15.6421 15.9547 15.6428 15.9547 15.6435C15.9547 15.6441 15.9547 15.6448 15.9547 15.6455C15.9547 15.6462 15.9547 15.6468 15.9547 15.6475C15.9547 15.6482 15.9547 15.6488 15.9547 15.6495C15.9547 15.6502 15.9547 15.6509 15.9547 15.6515C15.9547 15.6522 15.9547 15.6529 15.9547 15.6535C15.9547 15.6542 15.9547 15.6549 15.9547 15.6556C15.9547 15.6562 15.9547 15.6569 15.9547 15.6576C15.9547 15.6583 15.9547 15.6589 15.9547 15.6596C15.9547 15.6603 15.9547 15.661 15.9547 15.6616C15.9547 15.6623 15.9547 15.663 15.9547 15.6636C15.9547 15.6643 15.9547 15.665 15.9547 15.6657C15.9547 15.6663 15.9547 15.667 15.9547 15.6677C15.9547 15.6684 15.9547 15.669 15.9547 15.6697C15.9547 15.6704 15.9547 15.6711 15.9547 15.6717C15.9547 15.6724 15.9547 15.6731 15.9547 15.6738C15.9547 15.6744 15.9547 15.6751 15.9547 15.6758C15.9547 15.6765 15.9547 15.6771 15.9547 15.6778C15.9547 15.6785 15.9547 15.6792 15.9547 15.6798C15.9547 15.6805 15.9547 15.6812 15.9547 15.6819C15.9547 15.6825 15.9547 15.6832 15.9547 15.6839C15.9547 15.6846 15.9547 15.6853 15.9547 15.6859C15.9547 15.6866 15.9547 15.6873 15.9547 15.688C15.9547 15.6886 15.9547 15.6893 15.9547 15.69C15.9547 15.6907 15.9547 15.6913 15.9547 15.692C15.9547 15.6927 15.9547 15.6934 15.9547 15.6941C15.9547 15.6947 15.9547 15.6954 15.9547 15.6961C15.9547 15.6968 15.9547 15.6974 15.9547 15.6981C15.9547 15.6988 15.9547 15.6995 15.9547 15.7002C15.9547 15.7008 15.9547 15.7015 15.9547 15.7022C15.9547 15.7029 15.9547 15.7035 15.9547 15.7042C15.9547 15.7049 15.9547 15.7056 15.9547 15.7063C15.9547 15.7069 15.9547 15.7076 15.9547 15.7083C15.9547 15.709 15.9547 15.7097 15.9547 15.7103C15.9547 15.711 15.9547 15.7117 15.9547 15.7124C15.9547 15.7131 15.9547 15.7137 15.9547 15.7144C15.9547 15.7151 15.9547 15.7158 15.9547 15.7165C15.9547 15.7171 15.9547 15.7178 15.9547 15.7185C15.9547 15.7192 15.9547 15.7199 15.9547 15.7205C15.9547 15.7212 15.9547 15.7219 15.9547 15.7226C15.9547 15.7233 15.9547 15.7239 15.9547 15.7246C15.9547 15.7253 15.9547 15.726 15.9547 15.7267C15.9547 15.7273 15.9547 15.728 15.9547 15.7287C15.9547 15.7294 15.9547 15.7301 15.9547 15.7308C15.9547 15.7314 15.9547 15.7321 15.9547 15.7328C15.9547 15.7335 15.9547 15.7342 15.9547 15.7348C15.9547 15.7355 15.9547 15.7362 15.9547 15.7369C15.9547 15.7376 15.9547 15.7383 15.9547 15.7389C15.9547 15.7396 15.9547 15.7403 15.9547 15.741C15.9547 15.7417 15.9547 15.7424 15.9547 15.743C15.9547 15.7437 15.9547 15.7444 15.9547 15.7451C15.9547 15.7458 15.9547 15.7465 15.9547 15.7471C15.9547 15.7478 15.9547 15.7485 15.9547 15.7492C15.9547 15.7499 15.9547 15.7506 15.9547 15.7512C15.9547 15.7519 15.9547 15.7526 15.9547 15.7533C15.9547 15.754 15.9547 15.7547 15.9547 15.7554C15.9547 15.756 15.9547 15.7567 15.9547 15.7574C15.9547 15.7581 15.9547 15.7588 15.9547 15.7595C15.9547 15.7602 15.9547 15.7608 15.9547 15.7615C15.9547 15.7622 15.9547 15.7629 15.9547 15.7636C15.9547 15.7643 15.9547 15.765 15.9547 15.7656C15.9547 15.7663 15.9547 15.767 15.9547 15.7677C15.9547 15.7684 15.9547 15.7691 15.9547 15.7698C15.9547 15.7704 15.9547 15.7711 15.9547 15.7718C15.9547 15.7725 15.9547 15.7732 15.9547 15.7739C15.9547 15.7746 15.9547 15.7752 15.9547 15.7759C15.9547 15.7766 15.9547 15.7773 15.9547 15.778C15.9547 15.7787 15.9547 15.7794 15.9547 15.7801C15.9547 15.7807 15.9547 15.7814 15.9547 15.7821C15.9547 15.7828 15.9547 15.7835 15.9547 15.7842C15.9547 15.7849 15.9547 15.7856 15.9547 15.7863C15.9547 15.7869 15.9547 15.7876 15.9547 15.7883C15.9547 15.789 15.9547 15.7897 15.9547 15.7904C15.9547 15.7911 15.9547 15.7918 15.9547 15.7925C15.9547 15.7931 15.9547 15.7938 15.9547 15.7945C15.9547 15.7952 15.9547 15.7959 15.9547 15.7966C15.9547 15.7973 15.9547 15.798 15.9547 15.7987C15.9547 15.7994 15.9547 15.8 15.9547 15.8007C15.9547 15.8014 15.9547 15.8021 15.9547 15.8028C15.9547 15.8035 15.9547 15.8042 15.9547 15.8049C15.9547 15.8056 15.9547 15.8063 15.9547 15.8069C15.9547 15.8076 15.9547 15.8083 15.9547 15.809C15.9547 15.8097 15.9547 15.8104 15.9547 15.8111C15.9547 15.8118 15.9547 15.8125 15.9547 15.8132C15.9547 15.8139 15.9547 15.8146 15.9547 15.8152C15.9547 15.8159 15.9547 15.8166 15.9547 15.8173C15.9547 15.818 15.9547 15.8187 15.9547 15.8194C15.9547 15.8201 15.9547 15.8208 15.9547 15.8215C15.9547 15.8222 15.9547 15.8229 15.9547 15.8236C15.9547 15.8242 15.9547 15.8249 15.9547 15.8256C15.9547 15.8263 15.9547 15.827 15.9547 15.8277C15.9547 15.8284 15.9547 15.8291 15.9547 15.8298C15.9547 15.8305 15.9547 15.8312 15.9547 15.8319C15.9547 15.8326 15.9547 15.8333 15.9547 15.834C15.9547 15.8346 15.9547 15.8353 15.9547 15.836C15.9547 15.8367 15.9547 15.8374 15.9547 15.8381C15.9547 15.8388 15.9547 15.8395 15.9547 15.8402C15.9547 15.8409 15.9547 15.8416 15.9547 15.8423C15.9547 15.843 15.9547 15.8437 15.9547 15.8444C15.9547 15.8451 15.9547 15.8458 15.9547 15.8465C15.9547 15.8472 15.9547 15.8479 15.9547 15.8485C15.9547 15.8492 15.9547 15.8499 15.9547 15.8506C15.9547 15.8513 15.9547 15.852 15.9547 15.8527C15.9547 15.8534 15.9547 15.8541 15.9547 15.8548C15.9547 15.8555 15.9547 15.8562 15.9547 15.8569C15.9547 15.8576 15.9547 15.8583 15.9547 15.859C15.9547 15.8597 15.9547 15.8604 15.9547 15.8611C15.9547 15.8618 15.9547 15.8625 15.9547 15.8632C15.9547 15.8639 15.9547 15.8646 15.9547 15.8653C15.9547 15.866 15.9547 15.8667 15.9547 15.8674C15.9547 15.8681 15.9547 15.8688 15.9547 15.8695C15.9547 15.8702 15.9547 15.8709 15.9547 15.8716C15.9547 15.8723 15.9547 15.873 15.9547 15.8736C15.9547 15.8743 15.9547 15.875 15.9547 15.8757C15.9547 15.8764 15.9547 15.8771 15.9547 15.8778C15.9547 15.8785 15.9547 15.8792 15.9547 15.8799C15.9547 15.8806 15.9547 15.8813 15.9547 15.882C15.9547 15.8827 15.9547 15.8834 15.9547 15.8841C15.9547 15.8848 15.9547 15.8855 15.9547 15.8862C15.9547 15.8869 15.9547 15.8876 15.9547 15.8883C15.9547 15.889 15.9547 15.8897 15.9547 15.8904C15.9547 15.8911 15.9547 15.8918 15.9547 15.8925C15.9547 15.8932 15.9547 15.8939 15.9547 15.8946C15.9547 15.8953 15.9547 15.8961 15.9547 15.8968C15.9547 15.8975 15.9547 15.8982 15.9547 15.8989C15.9547 15.8996 15.9547 15.9003 15.9547 15.901C15.9547 15.9017 15.9547 15.9024 15.9547 15.9031C15.9547 15.9038 15.9547 15.9045 15.9547 15.9052C15.9547 15.9059 15.9547 15.9066 15.9547 15.9073C15.9547 15.908 15.9547 15.9087 15.9547 15.9094C15.9547 15.9101 15.9547 15.9108 15.9547 15.9115C15.9547 15.9122 15.9547 15.9129 15.9547 15.9136C15.9547 15.9143 15.9547 15.915 15.9547 15.9157C15.9547 15.9164 15.9547 15.9171 15.9547 15.9178C15.9547 15.9185 15.9547 15.9192 15.9547 15.9199C15.9547 15.9206 15.9547 15.9214 15.9547 15.9221C15.9547 15.9228 15.9547 15.9235 15.9547 15.9242C15.9547 15.9249 15.9547 15.9256 15.9547 15.9263C15.9547 15.927 15.9547 15.9277 15.9547 15.9284C15.9547 15.9291 15.9547 15.9298 15.9547 15.9305C15.9547 15.9312 15.9547 15.9319 15.9547 15.9326C15.9547 15.9333 15.9547 15.934 15.9547 15.9347C15.9547 15.9355 15.9547 15.9362 15.9547 15.9369C15.9547 15.9376 15.9547 15.9383 15.9547 15.939C15.9547 15.9397 15.9547 15.9404 15.9547 15.9411C15.9547 15.9418 15.9547 15.9425 15.9547 15.9432C15.9547 15.9439 15.9547 15.9446 15.9547 15.9453C15.9547 15.9461 15.9547 15.9468 15.9547 15.9475C15.9547 15.9482 15.9547 15.9489 15.9547 15.9496C15.9547 15.9503 15.9547 15.951 15.9547 15.9517C15.9547 15.9524 15.9547 15.9531 15.9547 15.9538C15.9547 15.9545 15.9547 15.9552 15.9547 15.956C15.9547 15.9567 15.9547 15.9574 15.9547 15.9581C15.9547 15.9588 15.9547 15.9595 15.9547 15.9602C15.9547 15.9609 15.9547 15.9616 15.9547 15.9623C15.9547 15.963 15.9547 15.9638 15.9547 15.9645C15.9547 15.9652 15.9547 15.9659 15.9547 15.9666C15.9547 15.9673 15.9547 15.968 15.9547 15.9687C15.9547 15.9694 15.9547 15.9701 15.9547 15.9708C15.9547 15.9716 15.9547 15.9723 15.9547 15.973C15.9547 15.9737 15.9547 15.9744 15.9547 15.9751C15.9547 15.9758 15.9547 15.9765 15.9547 15.9772C15.9547 15.978 15.9547 15.9787 15.9547 15.9794C15.9547 15.9801 15.9547 15.9808 15.9547 15.9815C15.9547 15.9822 15.9547 15.9829 15.9547 15.9836C15.9547 15.9844 15.9547 15.9851 15.9547 15.9858C15.9547 15.9865 15.9547 15.9872 15.9547 15.9879C15.9547 15.9886 15.9547 15.9893 15.9547 15.99C15.9547 15.9908 15.9547 15.9915 15.9547 15.9922C15.9547 15.9929 15.9547 15.9936 15.9547 15.9943C15.9547 15.995 15.9547 15.9957 15.9547 15.9965C15.9547 15.9972 15.9547 15.9979 15.9547 15.9986C15.9547 15.9993 15.9547 16 15.9547 16.0007C15.9547 16.0015 15.9547 16.0022 15.9547 16.0029C15.9547 16.0036 15.9547 16.0043 15.9547 16.005C15.9547 16.0057 15.9547 16.0064 15.9547 16.0072C15.9547 16.0079 15.9547 16.0086 15.9547 16.0093C15.9547 16.01 15.9547 16.0107 15.9547 16.0114C15.9547 16.0122 15.9547 16.0129 15.9547 16.0136C15.9547 16.0143 15.9547 16.015 15.9547 16.0157C15.9547 16.0165 15.9547 16.0172 15.9547 16.0179C15.9547 16.0186 15.9547 16.0193 15.9547 16.02C15.9547 16.0207 15.9547 16.0215 15.9547 16.0222C15.9547 16.0229 15.9547 16.0236 15.9547 16.0243C15.9547 16.025 15.9547 16.0258 15.9547 16.0265C15.9547 16.0272 15.9547 16.0279 15.9547 16.0286C15.9547 16.0293 15.9547 16.0301 15.9547 16.0308C15.9547 16.0315 15.9547 16.0322 15.9547 16.0329C15.9547 16.0336 15.9547 16.0344 15.9547 16.0351C15.9547 16.0358 15.9547 16.0365 15.9547 16.0372C15.9547 16.0379 15.9547 16.0387 15.9547 16.0394C15.9547 16.0401 15.9547 16.0408 15.9547 16.0415C15.9547 16.0423 15.9547 16.043 15.9547 16.0437C15.9547 16.0444 15.9547 16.0451 15.9547 16.0458C15.9547 16.0466 15.9547 16.0473 15.9547 16.048C15.9547 16.0487 15.9547 16.0494 15.9547 16.0502C15.9547 16.0509 15.9547 16.0516 15.9547 16.0523C15.9547 16.053 15.9547 16.0538 15.9547 16.0545C15.9547 16.0552 15.9547 16.0559 15.9547 16.0566C15.9547 16.0573 15.9547 16.0581 15.9547 16.0588C15.9547 16.0595 15.9547 16.0602 15.9547 16.061C15.9547 16.0617 15.9547 16.0624 15.9547 16.0631C15.9547 16.0638 15.9547 16.0646 15.9547 16.0653C15.9547 16.066 15.9547 16.0667 15.9547 16.0674C15.9547 16.0682 15.9547 16.0689 15.9547 16.0696C15.9547 16.0703 15.9547 16.071 15.9547 16.0718C15.9547 16.0725 15.9547 16.0732 15.9547 16.0739C15.9547 16.0746 15.9547 16.0754 15.9547 16.0761C15.9547 16.0768 15.9547 16.0775 15.9547 16.0783C15.9547 16.079 15.9547 16.0797 15.9547 16.0804C15.9547 16.0811 15.9547 16.0819 15.9547 16.0826C15.9547 16.0833 15.9547 16.084 15.9547 16.0848C15.9547 16.0855 15.9547 16.0862 15.9547 16.0869C15.9547 16.0877 15.9547 16.0884 15.9547 16.0891C15.9547 16.0898 15.9547 16.0905 15.9547 16.0913C15.9547 16.092 15.9547 16.0927 15.9547 16.0934C15.9547 16.0942 15.9547 16.0949 15.9547 16.0956C15.9547 16.0963 15.9547 16.0971 15.9547 16.0978C15.9547 16.0985 15.9547 16.0992 15.9547 16.1C15.9547 16.1007 15.9547 16.1014 15.9547 16.1021C15.9547 16.1029 15.9547 16.1036 15.9547 16.1043C15.9547 16.105 15.9547 16.1058 15.9547 16.1065C15.9547 16.1072 15.9547 16.1079 15.9547 16.1087C15.9547 16.1094 15.9547 16.1101 15.9547 16.1108C15.9547 16.1116 15.9547 16.1123 15.9547 16.113C15.9547 16.1137 15.9547 16.1145 15.9547 16.1152C15.9547 16.1159 15.9547 16.1166 15.9547 16.1174C15.9547 16.1181 15.9547 16.1188 15.9547 16.1196C15.9547 16.1203 15.9547 16.121 15.9547 16.1217C15.9547 16.1225 15.9547 16.1232 15.9547 16.1239C15.9547 16.1246 15.9547 16.1254 15.9547 16.1261C15.9547 16.1268 15.9547 16.1276 15.9547 16.1283C15.9547 16.129 15.9547 16.1297 15.9547 16.1305C15.9547 16.1312 15.9547 16.1319 15.9547 16.1327C15.9547 16.1334 15.9547 16.1341 15.9547 16.1348C15.9547 16.1356 15.9547 16.1363 15.9547 16.137C15.9547 16.1377 15.9547 16.1385 15.9547 16.1392C15.9547 16.1399 15.9547 16.1407 15.9547 16.1414C15.9547 16.1421 15.9547 16.1429 15.9547 16.1436C15.9547 16.1443 15.9547 16.145 15.9547 16.1458C15.9547 16.1465 15.9547 16.1472 15.9547 16.148C15.9547 16.1487 15.9547 16.1494 15.9547 16.1502C15.9547 16.1509 15.9547 16.1516 15.9547 16.1523C15.9547 16.1531 15.9547 16.1538 15.9547 16.1545C15.9547 16.1553 15.9547 16.156 15.9547 16.1567C15.9547 16.1575 15.9547 16.1582 15.9547 16.1589C15.9547 16.1597 15.9547 16.1604 15.9547 16.1611C15.9547 16.1618 15.9547 16.1626 15.9547 16.1633C15.9547 16.164 15.9547 16.1648 15.9547 16.1655C15.9547 16.1662 15.9547 16.167 15.9547 16.1677C15.9547 16.1684 15.9547 16.1692 15.9547 16.1699C15.9547 16.1706 15.9547 16.1714 15.9547 16.1721C15.9547 16.1728 15.9547 16.1736 15.9547 16.1743C15.9547 16.175 15.9547 16.1758 15.9547 16.1765C15.9547 16.1772 15.9547 16.178 15.9547 16.1787C15.9547 16.1794 15.9547 16.1802 15.9547 16.1809C15.9547 16.1816 15.9547 16.1824 15.9547 16.1831C15.9547 16.1838 15.9547 16.1846 15.9547 16.1853C15.9547 16.186 15.9547 16.1868 15.9547 16.1875C15.9547 16.1882 15.9547 16.189 15.9547 16.1897C15.9547 16.1904 15.9547 16.1912 15.9547 16.1919C15.9547 16.1926 15.9547 16.1934 15.9547 16.1941C15.9547 16.1948 15.9547 16.1956 15.9547 16.1963C15.9547 16.1971 15.9547 16.1978 15.9547 16.1985C15.9547 16.1993 15.9547 16.2 15.9547 16.2007C15.9547 16.2015 15.9547 16.2022 15.9547 16.2029C15.9547 16.2037 15.9547 16.2044 15.9547 16.2051C15.9547 16.2059 15.9547 16.2066 15.9547 16.2074C15.9547 16.2081 15.9547 16.2088 15.9547 16.2096C15.9547 16.2103 15.9547 16.211 15.9547 16.2118C15.9547 16.2125 15.9547 16.2133 15.9547 16.214C15.9547 16.2147 15.9547 16.2155 15.9547 16.2162C15.9547 16.2169 15.9547 16.2177 15.9547 16.2184C15.9547 16.2192 15.9547 16.2199 15.9547 16.2206C15.9547 16.2214 15.9547 16.2221 15.9547 16.2228C15.9547 16.2236 15.9547 16.2243 15.9547 16.2251C15.9547 16.2258 15.9547 16.2265 15.9547 16.2273C15.9547 16.228 15.9547 16.2288 15.9547 16.2295C15.9547 16.2302 15.9547 16.231 15.9547 16.2317C15.9547 16.2324 15.9547 16.2332 15.9547 16.2339C15.9547 16.2347 15.9547 16.2354 15.9547 16.2361C15.9547 16.2369 15.9547 16.2376 15.9547 16.2384C15.9547 16.2391 15.9547 16.2398 15.9547 16.2406C15.9547 16.2413 15.9547 16.2421 15.9547 16.2428C15.9547 16.2435 15.9547 16.2443 15.9547 16.245C15.9547 16.2458 15.9547 16.2465 15.9547 16.2473C15.9547 16.248 15.9547 16.2487 15.9547 16.2495C15.9547 16.2502 15.9547 16.251 15.9547 16.2517C15.9547 16.2524 15.9547 16.2532 15.9547 16.2539C15.9547 16.2547 15.9547 16.2554 15.9547 16.2561C15.9547 16.2569 15.9547 16.2576 15.9547 16.2584C15.9547 16.2591 15.9547 16.2599 15.9547 16.2606C15.9547 16.2613 15.9547 16.2621 15.9547 16.2628C15.9547 16.2636 15.9547 16.2643 15.9547 16.2651C15.9547 16.2658 15.9547 16.2665 15.9547 16.2673C15.9547 16.268 15.9547 16.2688 15.9547 16.2695C15.9547 16.2703 15.9547 16.271 15.9547 16.2717C15.9547 16.2725 15.9547 16.2732 15.9547 16.274C15.9547 16.2747 15.9547 16.2755 15.9547 16.2762C15.9547 16.277 15.9547 16.2777 15.9547 16.2784C15.9547 16.2792 15.9547 16.2799 15.9547 16.2807C15.9547 16.2814 15.9547 16.2822 15.9547 16.2829C15.9547 16.2837 15.9547 16.2844 15.9547 16.2851C15.9547 16.2859 15.9547 16.2866 15.9547 16.2874C15.9547 16.2881 15.9547 16.2889 15.9547 16.2896C15.9547 16.2904 15.9547 16.2911 15.9547 16.2919C15.9547 16.2926 15.9547 16.2933 15.9547 16.2941C15.9547 16.2948 15.9547 16.2956 15.9547 16.2963C15.9547 16.2971 15.9547 16.2978 15.9547 16.2986C15.9547 16.2993 15.9547 16.3001 15.9547 16.3008C15.9547 16.3016 15.9547 16.3023 15.9547 16.3031C15.9547 16.3038 15.9547 16.3045 15.9547 16.3053C15.9547 16.306 15.9547 16.3068 15.9547 16.3075C15.9547 16.3083 15.9547 16.309 15.9547 16.3098C15.9547 16.3105 15.9547 16.3113 15.9547 16.312C15.9547 16.3128 15.9547 16.3135 15.9547 16.3143C15.9547 16.315 15.9547 16.3158 15.9547 16.3165C15.9547 16.3173 15.9547 16.318 15.9547 16.3188C15.9547 16.3195 15.9547 16.3203 15.9547 16.321C15.9547 16.3218 15.9547 16.3225 15.9547 16.3233C15.9547 16.324 15.9547 16.3248 15.9547 16.3255C15.9547 16.3263 15.9547 16.327 15.9547 16.3277C15.9547 16.3285 15.9547 16.3292 15.9547 16.33C15.9547 16.3307 15.9547 16.3315 15.9547 16.3322C15.9547 16.333 15.9547 16.3338 15.9547 16.3345C15.9547 16.3353 15.9547 16.336 15.9547 16.3368C15.9547 16.3375 15.9547 16.3383 15.9547 16.339C15.9547 16.3398 15.9547 16.3405 15.9547 16.3413C15.9547 16.342 15.9547 16.3428 15.9547 16.3435C15.9547 16.3443 15.9547 16.345 15.9547 16.3458C15.9547 16.3465 15.9547 16.3473 15.9547 16.348C15.9547 16.3488 15.9547 16.3495 15.9547 16.3503C15.9547 16.351 15.9547 16.3518 15.9547 16.3525C15.9547 16.3533 15.9547 16.354 15.9547 16.3548C15.9547 16.3555 15.9547 16.3563 15.9547 16.3571C15.9547 16.3578 15.9547 16.3586 15.9547 16.3593C15.9547 16.3601 15.9547 16.3608 15.9547 16.3616C15.9547 16.3623 15.9547 16.3631 15.9547 16.3638C15.9547 16.3646 15.9547 16.3653 15.9547 16.3661C15.9547 16.3668 15.9547 16.3676 15.9547 16.3684C15.9547 16.3691 15.9547 16.3699 15.9547 16.3706C15.9547 16.3714 15.9547 16.3721 15.9547 16.3729C15.9547 16.3736 15.9547 16.3744 15.9547 16.3751C15.9547 16.3759 15.9547 16.3767 15.9547 16.3774C15.9547 16.3782 15.9547 16.3789 15.9547 16.3797C15.9547 16.3804 15.9547 16.3812 15.9547 16.3819C15.9547 16.3827 15.9547 16.3835 15.9547 16.3842C15.9547 16.385 15.9547 16.3857 15.9547 16.3865C15.9547 16.3872 15.9547 16.388 15.9547 16.3887C15.9547 16.3895 15.9547 16.3903 15.9547 16.391C15.9547 16.3918 15.9547 16.3925 15.9547 16.3933C15.9547 16.394 15.9547 16.3948 15.9547 16.3956C15.9547 16.3963 15.9547 16.3971 15.9547 16.3978C15.9547 16.3986 15.9547 16.3993 15.9547 16.4001C15.9547 16.4009 15.9547 16.4016 15.9547 16.4024C15.9547 16.4031 15.9547 16.4039 15.9547 16.4046C15.9547 16.4054 15.9547 16.4062 15.9547 16.4069C15.9547 16.4077 15.9547 16.4084 15.9547 16.4092C15.9547 16.41 15.9547 16.4107 15.9547 16.4115C15.9547 16.4122 15.9547 16.413 15.9547 16.4138C15.9547 16.4145 15.9547 16.4153 15.9547 16.416C15.9547 16.4168 15.9547 16.4175 15.9547 16.4183C15.9547 16.4191 15.9547 16.4198 15.9547 16.4206C15.9547 16.4213 15.9547 16.4221 15.9547 16.4229C15.9547 16.4236 15.9547 16.4244 15.9547 16.4251C15.9547 16.4259 15.9547 16.4267 15.9547 16.4274C15.9547 16.4282 15.9547 16.4289 15.9547 16.4297C15.9547 16.4305 15.9547 16.4312 15.9547 16.432C15.9547 16.4328 15.9547 16.4335 15.9547 16.4343C15.9547 16.435 15.9547 16.4358 15.9547 16.4366C15.9547 16.4373 15.9547 16.4381 15.9547 16.4388C15.9547 16.4396 15.9547 16.4404 15.9547 16.4411C15.9547 16.4419 15.9547 16.4427 15.9547 16.4434C15.9547 16.4442 15.9547 16.4449 15.9547 16.4457C15.9547 16.4465 15.9547 16.4472 15.9547 16.448C15.9547 16.4488 15.9547 16.4495 15.9547 16.4503C15.9547 16.451 15.9547 16.4518 15.9547 16.4526C15.9547 16.4533 15.9547 16.4541 15.9547 16.4549C15.9547 16.4556 15.9547 16.4564 15.9547 16.4571C15.9547 16.4579 15.9547 16.4587 15.9547 16.4594C15.9547 16.4602 15.9547 16.461 15.9547 16.4617C15.9547 16.4625 15.9547 16.4633 15.9547 16.464C15.9547 16.4648 15.9547 16.4656 15.9547 16.4663C15.9547 16.4671 15.9547 16.4678 15.9547 16.4686C15.9547 16.4694 15.9547 16.4701 15.9547 16.4709C15.9547 16.4717 15.9547 16.4724 15.9547 16.4732C15.9547 16.474 15.9547 16.4747 15.9547 16.4755C15.9547 16.4763 15.9547 16.477 15.9547 16.4778C15.9547 16.4786 15.9547 16.4793 15.9547 16.4801C15.9547 16.4809 15.9547 16.4816 15.9547 16.4824C15.9547 16.4832 15.9547 16.4839 15.9547 16.4847C15.9547 16.4855 15.9547 16.4862 15.9547 16.487C15.9547 16.4878 15.9547 16.4885 15.9547 16.4893C15.9547 16.4901 15.9547 16.4908 15.9547 16.4916C15.9547 16.4924 15.9547 16.4931 15.9547 16.4939C15.9547 16.4947 15.9547 16.4954 15.9547 16.4962C15.9547 16.497 15.9547 16.4977 15.9547 16.4985C15.9547 16.4993 15.9547 16.5 15.9547 16.5008C15.9547 16.5016 15.9547 16.5023 15.9547 16.5031C15.9547 16.5039 15.9547 16.5047 15.9547 16.5054C15.9547 16.5062 15.9547 16.507 15.9547 16.5077C15.9547 16.5085 15.9547 16.5093 15.9547 16.51C15.9547 16.5108 15.9547 16.5116 15.9547 16.5123C15.9547 16.5131 15.9547 16.5139 15.9547 16.5147C15.9547 16.5154 15.9547 16.5162 15.9547 16.517C15.9547 16.5177 15.9547 16.5185 15.9547 16.5193C15.9547 16.52 15.9547 16.5208 15.9547 16.5216C15.9547 16.5224 15.9547 16.5231 15.9547 16.5239C15.9547 16.5247 15.9547 16.5254 15.9547 16.5262C15.9547 16.527 15.9547 16.5277 15.9547 16.5285C15.9547 16.5293 15.9547 16.5301 15.9547 16.5308C15.9547 16.5316 15.9547 16.5324 15.9547 16.5331C15.9547 16.5339 15.9547 16.5347 15.9547 16.5355C15.9547 16.5362 15.9547 16.537 15.9547 16.5378C15.9547 16.5386 15.9547 16.5393 15.9547 16.5401C15.9547 16.5409 15.9547 16.5416 15.9547 16.5424C15.9547 16.5432 15.9547 16.544 15.9547 16.5447C15.9547 16.5455 15.9547 16.5463 15.9547 16.5471C15.9547 16.5478 15.9547 16.5486 15.9547 16.5494C15.9547 16.5501 15.9547 16.5509 15.9547 16.5517C15.9547 16.5525 15.9547 16.5532 15.9547 16.554C15.9547 16.5548 15.9547 16.5556 15.9547 16.5563C15.9547 16.5571 15.9547 16.5579 15.9547 16.5587C15.9547 16.5594 15.9547 16.5602 15.9547 16.561C15.9547 16.5618 15.9547 16.5625 15.9547 16.5633C15.9547 16.5641 15.9547 16.5649 15.9547 16.5656C15.9547 16.5664 15.9547 16.5672 15.9547 16.568C15.9547 16.5687 15.9547 16.5695 15.9547 16.5703C15.9547 16.5711 15.9547 16.5718 15.9547 16.5726C15.9547 16.5734 15.9547 16.5742 15.9547 16.5749C15.9547 16.5757 15.9547 16.5765 15.9547 16.5773C15.9547 16.578 15.9547 16.5788 15.9547 16.5796C15.9547 16.5804 15.9547 16.5812 15.9547 16.5819C15.9547 16.5827 15.9547 16.5835 15.9547 16.5843C15.9547 16.585 15.9547 16.5858 15.9547 16.5866C15.9547 16.5874 15.9547 16.5881 15.9547 16.5889C15.9547 16.5897 15.9547 16.5905 15.9547 16.5913C15.9547 16.592 15.9547 16.5928 15.9547 16.5936C15.9547 16.5944 15.9547 16.5951 15.9547 16.5959C15.9547 16.5967 15.9547 16.5975 15.9547 16.5983C15.9547 16.599 15.9547 16.5998 15.9547 16.6006C15.9547 16.6014 15.9547 16.6022 15.9547 16.6029C15.9547 16.6037 15.9547 16.6045 15.9547 16.6053C15.9547 16.6061 15.9547 16.6068 15.9547 16.6076C15.9547 16.6084 15.9547 16.6092 15.9547 16.6099C15.9547 16.6107 15.9547 16.6115 15.9547 16.6123C15.9547 16.6131 15.9547 16.6138 15.9547 16.6146C15.9547 16.6154 15.9547 16.6162 15.9547 16.617C15.9547 16.6178 15.9547 16.6185 15.9547 16.6193C15.9547 16.6201 15.9547 16.6209 15.9547 16.6217C15.9547 16.6224 15.9547 16.6232 15.9547 16.624H16.9547ZM16.9547 15.52L17.9536 15.5654C17.9703 15.1998 17.9787 14.8486 17.9787 14.512H16.9787H15.9787C15.9787 14.8154 15.9711 15.1362 15.9557 15.4746L16.9547 15.52ZM16.9787 14.512L17.9775 14.5596C17.9935 14.2251 18.0094 13.9067 18.0253 13.6046L17.0267 13.552L16.028 13.4994C16.012 13.8053 15.9959 14.1269 15.9798 14.4644L16.9787 14.512ZM17.0267 13.552L16.2919 12.8737C16.1092 13.0716 15.9185 13.27 15.7196 13.4689L16.4267 14.176L17.1338 14.8831C17.3508 14.666 17.5601 14.4484 17.7615 14.2303L17.0267 13.552ZM16.4267 14.176L15.7484 13.4412C15.5381 13.6353 15.3042 13.8531 15.0467 14.0945L15.7307 14.824L16.4146 15.5535C16.6691 15.3149 16.8992 15.1007 17.1049 14.9108L16.4267 14.176ZM15.7307 14.824L15.0722 14.0714L13.3442 15.5834L14.0027 16.336L14.6612 17.0886L16.3892 15.5766L15.7307 14.824ZM14.0027 16.336L14.769 15.6936L13.401 14.0616L12.6347 14.704L11.8683 15.3464L13.2363 16.9784L14.0027 16.336ZM12.6347 14.704L13.269 15.4771L17.949 11.6371L17.3147 10.864L16.6803 10.0909L12.0003 13.9309L12.6347 14.704ZM17.3147 10.864V11.864H19.5467V10.864V9.864H17.3147V10.864ZM19.5467 10.864H18.5467V28H19.5467H20.5467V10.864H19.5467Z" fill="#FFD700" mask="url(#path-6-outside-1_2147_510)"/>
</svg>
