<svg width="34" height="33" viewBox="0 0 34 33" fill="none" xmlns="http://www.w3.org/2000/svg">
<path d="M24.832 0.176758C29.8741 0.17699 33.9619 4.26448 33.9619 9.30664C33.9619 12.2295 32.586 14.8289 30.4492 16.5C32.5859 18.1711 33.9619 20.7705 33.9619 23.6934C33.9618 28.7354 29.8741 32.823 24.832 32.8232C21.7429 32.8232 19.0134 31.2875 17.3613 28.9395C15.7092 31.2873 12.9806 32.8232 9.8916 32.8232C4.84957 32.823 0.761832 28.7354 0.761719 23.6934C0.761719 20.7711 2.13647 18.1711 4.27246 16.5C2.13642 14.8289 0.761719 12.2289 0.761719 9.30664C0.76175 4.26451 4.84952 0.177025 9.8916 0.176758C12.9803 0.176758 15.7092 1.71207 17.3613 4.05957C19.0134 1.71185 21.7432 0.17683 24.832 0.176758Z" fill="#69C9A0"/>
<circle cx="17.3613" cy="16.5596" r="4.0957" fill="#FFD700"/>
</svg>
