<svg width="34" height="33" viewBox="0 0 34 33" fill="none" xmlns="http://www.w3.org/2000/svg">
<path d="M24.2686 0.0449219C29.3107 0.0451538 33.3984 4.13265 33.3984 9.1748C33.3984 12.0977 32.0225 14.6971 29.8857 16.3682C32.0225 18.0392 33.3984 20.6387 33.3984 23.5615C33.3983 28.6036 29.3106 32.6912 24.2686 32.6914C21.1795 32.6913 18.4499 31.1556 16.7979 28.8076C15.1457 31.1554 12.4171 32.6914 9.32812 32.6914C4.2861 32.6911 0.198356 28.6036 0.198242 23.5615C0.198242 20.6393 1.57299 18.0393 3.70898 16.3682C1.57295 14.6971 0.198242 12.0971 0.198242 9.1748C0.198273 4.13267 4.28604 0.045189 9.32812 0.0449219C12.4169 0.0449219 15.1457 1.58024 16.7979 3.92773C18.4499 1.58002 21.1797 0.0449943 24.2686 0.0449219Z" fill="#7DC5E4"/>
<circle cx="16.7988" cy="16.3682" r="4.0957" fill="#FFD700"/>
</svg>
