<svg width="34" height="33" viewBox="0 0 34 33" fill="none" xmlns="http://www.w3.org/2000/svg">
<path d="M24.2686 0.353516C29.3107 0.353748 33.3984 4.44124 33.3984 9.4834C33.3984 12.4063 32.0225 15.0057 29.8857 16.6768C32.0225 18.3478 33.3984 20.9473 33.3984 23.8701C33.3983 28.9122 29.3106 32.9998 24.2686 33C21.1795 32.9999 18.4499 31.4642 16.7979 29.1162C15.1457 31.464 12.4171 33 9.32812 33C4.2861 32.9997 0.198356 28.9122 0.198242 23.8701C0.198242 20.9479 1.57299 18.3479 3.70898 16.6768C1.57295 15.0057 0.198242 12.4057 0.198242 9.4834C0.198273 4.44126 4.28604 0.353783 9.32812 0.353516C12.4169 0.353516 15.1457 1.88883 16.7979 4.23633C18.4499 1.88861 21.1797 0.353588 24.2686 0.353516Z" fill="#FFA8B5"/>
<circle cx="16.7988" cy="16.6768" r="4.0957" fill="#FFD700"/>
</svg>
