<svg width="62" height="27" viewBox="0 0 62 27" fill="none" xmlns="http://www.w3.org/2000/svg">
<rect width="62" height="27" rx="13.5" fill="#69C9A0"/>
<path d="M26.3608 13.7875C26.3608 16.7487 23.9602 19.1493 20.9991 19.1493C18.0379 19.1493 15.6373 16.7487 15.6373 13.7875C15.6373 10.8264 18.0379 8.42578 20.9991 8.42578C23.9602 8.42578 26.3608 10.8264 26.3608 13.7875Z" fill="#D6F6DC"/>
<path d="M22.6661 7.37005C22.6232 7.37005 22.5787 7.35851 22.5391 7.33378C22.5276 7.32718 22.0824 7.07327 20.9975 7.07327C19.9044 7.07327 19.4609 7.33048 19.456 7.33378C19.362 7.38983 19.24 7.37664 19.1625 7.29915C19.085 7.22166 19.0668 7.10295 19.1213 7.00732L20.7898 4.12036C20.8327 4.04617 20.9118 4 20.9975 4C21.0833 4 21.1624 4.04617 21.2069 4.12036L22.8738 7.00897C22.9299 7.1046 22.9117 7.22661 22.8326 7.30245C22.7864 7.34697 22.7254 7.37005 22.6661 7.37005Z" fill="#D6F6DC"/>
<path d="M18.1501 7.80142C18.1172 7.82945 18.0759 7.84924 18.0298 7.85583C18.0149 7.85748 17.5121 7.94981 16.6827 8.64723C15.8452 9.3496 15.6704 9.83268 15.6688 9.83763C15.6325 9.9415 15.5303 10.0091 15.4214 10.0009C15.3126 9.99261 15.2219 9.91182 15.2038 9.80466L14.6251 6.52034C14.6103 6.43626 14.6416 6.34887 14.7075 6.29446C14.7735 6.23841 14.8642 6.22357 14.945 6.25324L18.0792 7.39418C18.1831 7.4321 18.2491 7.53597 18.2359 7.64644C18.2276 7.70579 18.1963 7.76185 18.1501 7.80142Z" fill="#D6F6DC"/>
<path d="M14.9679 11.0317C14.9596 11.0745 14.9415 11.1158 14.9102 11.1504C14.9019 11.1603 14.5738 11.5543 14.3875 12.6227C14.1979 13.701 14.3743 14.1808 14.376 14.1857C14.4155 14.288 14.3809 14.405 14.2919 14.4693C14.2028 14.5336 14.0825 14.5287 13.9984 14.4594L11.4428 12.316C11.3769 12.26 11.3456 12.1743 11.3604 12.0902C11.3752 12.0061 11.4346 11.9352 11.5154 11.9055L14.6497 10.7646C14.7535 10.7267 14.8706 10.7646 14.9316 10.8569C14.9662 10.908 14.9778 10.9707 14.9679 11.0317Z" fill="#D6F6DC"/>
<path d="M14.6067 15.5538C14.6282 15.5917 14.6397 15.6346 14.6397 15.6808C14.6397 15.6939 14.643 16.2067 15.1854 17.1448C15.7328 18.0929 16.1763 18.3468 16.1813 18.3501C16.2769 18.4028 16.3264 18.5166 16.2983 18.6221C16.2703 18.7276 16.1763 18.8035 16.0659 18.8035H12.7304C12.6447 18.8035 12.5656 18.7573 12.5227 18.6831C12.4798 18.6089 12.4798 18.5166 12.5227 18.4424L14.1896 15.5538C14.2457 15.4582 14.3594 15.412 14.4649 15.4433C14.5259 15.4598 14.5754 15.501 14.6067 15.5538Z" fill="#D6F6DC"/>
<path d="M17.2367 19.2485C17.2779 19.2633 17.3142 19.2897 17.3439 19.326C17.3521 19.3375 17.6851 19.7266 18.7024 20.0976C19.7312 20.4719 20.2341 20.3812 20.2391 20.3812C20.3462 20.3614 20.4567 20.4158 20.5045 20.5131C20.5523 20.612 20.5276 20.7307 20.4435 20.8016L17.8879 22.945C17.822 22.9994 17.7313 23.0159 17.6505 22.9862C17.5697 22.9565 17.5104 22.8856 17.4955 22.8015L16.9168 19.5172C16.897 19.4084 16.9547 19.2996 17.057 19.2551C17.1147 19.2287 17.179 19.2287 17.2367 19.2485Z" fill="#D6F6DC"/>
<path d="M21.6256 20.388C21.6668 20.3732 21.7113 20.3699 21.7575 20.3781C21.7707 20.3814 22.2752 20.4655 23.2941 20.0962C24.323 19.7219 24.6511 19.3295 24.6544 19.3246C24.7236 19.2388 24.8423 19.2108 24.9429 19.2553C25.0435 19.3015 25.0995 19.407 25.0814 19.5158L24.5027 22.8001C24.4878 22.8842 24.4285 22.9551 24.3477 22.9848C24.2669 23.0145 24.1762 22.998 24.1103 22.9436L21.5564 20.8002C21.4706 20.7293 21.4459 20.6089 21.4954 20.51C21.5217 20.4507 21.5695 20.4094 21.6256 20.388Z" fill="#D6F6DC"/>
<path d="M25.7228 18.4401C25.7442 18.4022 25.7772 18.3709 25.8168 18.3478C25.8283 18.3412 26.2702 18.0823 26.8126 17.1442C27.36 16.1962 27.3583 15.6851 27.3583 15.6801C27.3567 15.5713 27.4292 15.4724 27.5348 15.4427C27.6403 15.413 27.7524 15.4575 27.8085 15.5532L29.477 18.4418C29.5199 18.516 29.5199 18.6083 29.477 18.6825C29.4341 18.7567 29.3533 18.8028 29.2692 18.8028H25.9338C25.8234 18.8028 25.7261 18.727 25.6997 18.6198C25.6816 18.5572 25.6915 18.4929 25.7228 18.4401Z" fill="#D6F6DC"/>
<path d="M27.6089 14.3141C27.6006 14.2712 27.6056 14.225 27.6221 14.1838C27.627 14.1706 27.7985 13.6892 27.6105 12.6208C27.4209 11.5425 27.0895 11.1518 27.0879 11.1485C27.017 11.066 27.0087 10.9424 27.0697 10.8533C27.1324 10.7627 27.2478 10.7247 27.35 10.7627L30.4843 11.9019C30.5651 11.9316 30.6245 12.0025 30.6393 12.0866C30.6541 12.1707 30.6228 12.2581 30.5569 12.3125L28.0029 14.4559C27.9172 14.5267 27.7952 14.5317 27.7062 14.4657C27.6518 14.4295 27.6188 14.3734 27.6089 14.3141Z" fill="#D6F6DC"/>
<path d="M26.4004 9.94529C26.3658 9.91726 26.3411 9.87934 26.3262 9.83647C26.3213 9.82328 26.1432 9.34349 25.3122 8.64772C24.4747 7.9437 23.9702 7.85632 23.9652 7.85632C23.858 7.83818 23.7723 7.7508 23.7624 7.64198C23.7525 7.53316 23.8152 7.42929 23.9191 7.39302L27.0533 6.25208C27.1341 6.22406 27.2248 6.23889 27.2907 6.29495C27.3567 6.35101 27.388 6.43674 27.3732 6.52083L26.7945 9.80514C26.7747 9.91396 26.684 9.9964 26.5735 10.003C26.5076 10.0046 26.4466 9.98321 26.4004 9.94529Z" fill="#D6F6DC"/>
<path d="M32.0631 4.8L49.2431 4.8V6.74L32.0631 6.74V4.8ZM37.5631 16.88C38.2964 17.7067 39.2764 18.3867 40.5031 18.92C41.7431 19.4533 43.1831 19.86 44.8231 20.14C46.4631 20.42 48.2564 20.5933 50.2031 20.66C49.9631 20.9267 49.7164 21.2667 49.4631 21.68C49.2231 22.1067 49.0231 22.48 48.8631 22.8C46.8631 22.6667 45.0231 22.4 43.3431 22C41.6764 21.6133 40.1898 21.0667 38.8831 20.36C37.5898 19.64 36.4898 18.7267 35.5831 17.62L37.5631 16.88ZM44.4231 15.96H44.9031L45.3031 15.86L46.8231 16.8C46.1298 17.8 45.2631 18.6533 44.2231 19.36C43.1831 20.0667 42.0098 20.6467 40.7031 21.1C39.3964 21.5533 38.0098 21.9133 36.5431 22.18C35.0898 22.4467 33.5964 22.6533 32.0631 22.8C31.9831 22.5067 31.8564 22.1733 31.6831 21.8C31.5231 21.44 31.3564 21.1333 31.1831 20.88C32.5831 20.8 33.9564 20.66 35.3031 20.46C36.6631 20.26 37.9364 19.98 39.1231 19.62C40.3098 19.2467 41.3564 18.7867 42.2631 18.24C43.1831 17.68 43.9031 17.02 44.4231 16.26V15.96ZM37.7031 14.52L40.0831 15C39.2564 16 38.2498 16.8733 37.0631 17.62C35.8898 18.3667 34.4564 19.0267 32.7631 19.6C32.6698 19.4133 32.5431 19.2133 32.3831 19C32.2231 18.7733 32.0498 18.56 31.8631 18.36C31.6898 18.16 31.5231 18.0067 31.3631 17.9C32.9364 17.4867 34.2498 16.9867 35.3031 16.4C36.3564 15.8133 37.1564 15.1867 37.7031 14.52ZM39.2631 5.84L42.0631 5.78C41.9164 6.31333 41.7564 6.8 41.5831 7.24C41.4098 7.68 41.2498 8.07333 41.1031 8.42L38.8431 8.28C38.9231 7.90667 39.0031 7.5 39.0831 7.06C39.1764 6.60667 39.2364 6.2 39.2631 5.84ZM36.1431 10.96V11.74L45.1031 11.74V10.96L36.1431 10.96ZM36.1431 13.08V13.88L45.1031 13.88V13.08L36.1431 13.08ZM36.1431 8.84V9.62L45.1031 9.62V8.84L36.1431 8.84ZM33.8231 7.5L47.5431 7.5V15.22L33.8231 15.22V7.5ZM37.8631 15.96H45.2831V17.58L36.2431 17.58L37.8631 15.96Z" fill="#D6F6DC"/>
</svg>
