<svg width="78" height="27" viewBox="0 0 78 27" fill="none" xmlns="http://www.w3.org/2000/svg">
<rect width="78" height="27" rx="13.5" fill="#9D47B9"/>
<path d="M14.76 12.764L14.344 14.86H16.424V16.268H14.072L13.448 19.5H11.96L12.584 16.268H10.776L10.168 19.5H8.696L9.288 16.268H7.368V14.86H9.56L9.976 12.764H7.944V11.356H10.232L10.856 8.092H12.344L11.736 11.356H13.56L14.184 8.092H15.64L15.032 11.356H16.952V12.764H14.76ZM11.032 14.86H12.856L13.272 12.764H11.448L11.032 14.86ZM22.4638 18.428H31.2798V20.284H22.4638V18.428ZM21.5998 13.82H32.3038V20.908H30.2398V15.66H23.5678V20.924H21.5998V13.82ZM24.7358 5.788L26.9278 6.508C26.5758 7.15867 26.1971 7.82533 25.7918 8.508C25.3971 9.18 24.9971 9.82 24.5918 10.428C24.1864 11.0253 23.8024 11.5587 23.4398 12.028L21.7118 11.324C22.0744 10.8333 22.4424 10.2733 22.8158 9.644C23.1891 9.004 23.5411 8.348 23.8718 7.676C24.2131 7.004 24.5011 6.37467 24.7358 5.788ZM28.5758 8.636L30.0958 7.516C30.6291 7.94267 31.1731 8.42267 31.7278 8.956C32.2931 9.47867 32.8104 10.012 33.2798 10.556C33.7598 11.0893 34.1384 11.5853 34.4158 12.044L32.7518 13.324C32.4958 12.8653 32.1384 12.364 31.6798 11.82C31.2318 11.2653 30.7358 10.7107 30.1918 10.156C29.6478 9.60133 29.1091 9.09467 28.5758 8.636ZM19.8878 10.444C20.6984 10.4227 21.5998 10.396 22.5918 10.364C23.5944 10.3213 24.6451 10.2787 25.7438 10.236C26.8531 10.1933 27.9784 10.1507 29.1198 10.108C30.2611 10.0653 31.3811 10.0227 32.4798 9.98L32.3998 11.836C31.2904 11.9 30.1704 11.9587 29.0398 12.012C27.9091 12.0547 26.7998 12.1027 25.7118 12.156C24.6344 12.1987 23.6104 12.2413 22.6398 12.284C21.6691 12.316 20.7891 12.348 19.9998 12.38L19.8878 10.444ZM37.4398 9.708H42.1918V11.612H37.4398V9.708ZM45.2638 6.172H47.2638V17.708C47.2638 18.156 47.3011 18.444 47.3758 18.572C47.4504 18.6893 47.6371 18.748 47.9358 18.748C47.9998 18.748 48.1064 18.748 48.2558 18.748C48.4051 18.748 48.5704 18.748 48.7518 18.748C48.9331 18.748 49.0984 18.748 49.2478 18.748C49.3971 18.748 49.5091 18.748 49.5838 18.748C49.7971 18.748 49.9571 18.6573 50.0638 18.476C50.1704 18.2947 50.2451 17.9693 50.2878 17.5C50.3411 17.02 50.3838 16.3533 50.4158 15.5C50.5758 15.6173 50.7624 15.7347 50.9758 15.852C51.1998 15.9693 51.4238 16.076 51.6478 16.172C51.8718 16.2573 52.0744 16.3213 52.2558 16.364C52.1918 17.388 52.0798 18.2147 51.9198 18.844C51.7704 19.4733 51.5251 19.9267 51.1838 20.204C50.8531 20.492 50.3838 20.636 49.7758 20.636C49.6904 20.636 49.5464 20.636 49.3438 20.636C49.1411 20.636 48.9224 20.636 48.6878 20.636C48.4638 20.636 48.2558 20.636 48.0638 20.636C47.8718 20.636 47.7278 20.636 47.6318 20.636C47.0238 20.636 46.5438 20.5453 46.1918 20.364C45.8504 20.1933 45.6104 19.8947 45.4718 19.468C45.3331 19.0307 45.2638 18.4387 45.2638 17.692V6.172ZM41.2318 6.172H43.2318V20.764H41.2318V6.172ZM50.5438 8.556L51.9358 10.284C51.3811 10.6573 50.7944 11.0307 50.1758 11.404C49.5571 11.7667 48.9278 12.124 48.2878 12.476C47.6584 12.8173 47.0398 13.1373 46.4318 13.436C46.3678 13.2227 46.2558 12.972 46.0958 12.684C45.9358 12.3853 45.7918 12.1347 45.6638 11.932C46.2398 11.6227 46.8211 11.276 47.4078 10.892C47.9944 10.508 48.5544 10.1133 49.0878 9.708C49.6318 9.30267 50.1171 8.91867 50.5438 8.556ZM36.8638 16.956C37.3011 16.828 37.8078 16.6733 38.3838 16.492C38.9598 16.3 39.5678 16.092 40.2078 15.868C40.8478 15.6333 41.4824 15.404 42.1118 15.18L42.4798 16.908C41.6798 17.2707 40.8584 17.628 40.0158 17.98C39.1838 18.332 38.4211 18.652 37.7278 18.94L36.8638 16.956ZM61.0717 5.836H63.1357V9.084H61.0717V5.836ZM61.0877 9.692H63.1037V20.956H61.0877V9.692ZM54.8317 7.932H69.5197V9.804H54.8317V7.932ZM56.3517 11.484H66.8958V13.356H58.2877V19.004H56.3517V11.484ZM66.1757 11.484H68.1757V16.924C68.1757 17.3827 68.1117 17.756 67.9838 18.044C67.8664 18.3213 67.6424 18.5347 67.3117 18.684C66.9704 18.8333 66.5651 18.924 66.0957 18.956C65.6371 18.988 65.0931 19.004 64.4637 19.004C64.4211 18.7267 64.3357 18.4067 64.2077 18.044C64.0797 17.6813 63.9517 17.372 63.8237 17.116C64.0904 17.1267 64.3571 17.1373 64.6237 17.148C64.9011 17.1587 65.1464 17.164 65.3597 17.164C65.5838 17.164 65.7331 17.164 65.8077 17.164C65.9464 17.1533 66.0424 17.132 66.0957 17.1C66.1491 17.0573 66.1757 16.9827 66.1757 16.876V11.484Z" fill="white"/>
</svg>
