<svg width="12" height="16" viewBox="0 0 12 16" fill="none" xmlns="http://www.w3.org/2000/svg">
<g clip-path="url(#clip0_1452_20192)">
<path d="M6.54986 7.2051C6.54986 7.29118 6.54986 7.35755 6.54986 7.4244C6.54986 9.49862 6.55217 11.5733 6.54893 13.6475C6.54755 14.5724 5.99129 15.3163 5.14788 15.5405C4.00901 15.8425 2.88679 14.9523 2.86136 13.7264C2.85442 13.3782 3.07082 13.1224 3.38478 13.1084C3.70198 13.0945 3.93873 13.3234 3.96601 13.6711C4.00115 14.1188 4.25686 14.405 4.65313 14.4401C5.01749 14.4723 5.35966 14.2011 5.42208 13.8255C5.43642 13.738 5.44289 13.6475 5.44289 13.5586C5.44382 11.5007 5.44382 9.44331 5.44382 7.38544C5.44382 7.3311 5.44382 7.27675 5.44382 7.20702C5.10904 7.25848 4.81034 7.3638 4.53337 7.5225C4.31789 7.6461 4.11629 7.79663 3.91376 7.94235C3.70198 8.0948 3.59332 8.09192 3.40004 7.91109C2.54693 7.11468 1.41915 7.11997 0.559568 7.92648C0.443045 8.03565 0.319586 8.10202 0.166072 8.02459C0.0190312 7.95053 -0.00593798 7.8125 7.31135e-05 7.6562C0.0426132 6.53661 0.427323 5.54158 1.03999 4.63937C1.76271 3.57509 2.69721 2.77146 3.86012 2.2689C4.30818 2.07509 4.77288 1.93898 5.25562 1.88079C5.37862 1.86588 5.41977 1.8202 5.4133 1.69179C5.40405 1.50808 5.40636 1.32244 5.41561 1.13873C5.43133 0.824685 5.66715 0.598651 5.96539 0.599612C6.26133 0.601055 6.50131 0.832379 6.51379 1.14257C6.52304 1.37101 6.51564 1.59993 6.51564 1.83847C6.72048 1.87406 6.91746 1.89618 7.10889 1.94379C9.36074 2.50551 10.8737 3.94732 11.7226 6.16486C11.902 6.63376 11.9793 7.13248 11.9996 7.63889C12.0061 7.79952 11.9894 7.9462 11.8345 8.02411C11.6741 8.1049 11.5488 8.02747 11.4295 7.91446C10.852 7.36572 10.1829 7.19644 9.42825 7.41189C9.12261 7.49894 8.85673 7.66342 8.62415 7.88801C8.4022 8.10202 8.30001 8.1126 8.06327 7.91927C7.65128 7.58214 7.19443 7.34649 6.68303 7.22722C6.64557 7.21808 6.60858 7.21423 6.54986 7.2051Z" fill="#64503C"/>
</g>
<defs>
<clipPath id="clip0_1452_20192">
<rect width="12" height="15" fill="white" transform="translate(0 0.599609)"/>
</clipPath>
</defs>
</svg>
