<svg width="229" height="224" viewBox="0 0 229 224" fill="none" xmlns="http://www.w3.org/2000/svg">
<path d="M228.7 206.181L19.7488 223.031L0.369873 16.6084L212.691 0.599609L228.7 206.181ZM16.3787 24.1904C14.0521 24.1904 12.1658 26.0767 12.1658 28.4033C12.1658 30.7299 14.052 32.6162 16.3787 32.6162C18.7052 32.6161 20.5916 30.7299 20.5916 28.4033C20.5915 26.0768 18.7051 24.1906 16.3787 24.1904ZM38.2849 22.5049C35.9583 22.5049 34.072 24.3912 34.072 26.7178C34.0722 29.0443 35.9584 30.9307 38.2849 30.9307C40.6113 30.9304 42.4967 29.0441 42.4968 26.7178C42.4968 24.3913 40.6113 22.5051 38.2849 22.5049ZM60.1902 20.8213C57.8638 20.8215 55.9783 22.7077 55.9783 25.0342C55.9785 27.3605 57.8639 29.2459 60.1902 29.2461C62.5167 29.2461 64.4029 27.3606 64.4031 25.0342C64.4031 22.7076 62.5168 20.8213 60.1902 20.8213ZM82.0964 19.1348C79.77 19.1349 77.8837 21.0212 77.8835 23.3477C77.8835 25.6742 79.7699 27.5604 82.0964 27.5605C84.4231 27.5605 86.3093 25.6743 86.3093 23.3477C86.3092 21.0212 84.423 19.1348 82.0964 19.1348ZM104.003 17.4492C101.676 17.4493 99.7898 19.3355 99.7898 21.6621C99.7898 23.9887 101.676 25.8749 104.003 25.875C106.329 25.875 108.216 23.9887 108.216 21.6621C108.216 19.3355 106.329 17.4492 104.003 17.4492ZM125.909 15.7656C123.582 15.7658 121.696 17.652 121.696 19.9785C121.696 22.305 123.583 24.1913 125.909 24.1914C128.235 24.1914 130.122 22.3051 130.122 19.9785C130.122 17.6519 128.236 15.7656 125.909 15.7656ZM147.815 14.0801C145.489 14.0802 143.603 15.9656 143.602 18.292C143.602 20.6186 145.489 22.5048 147.815 22.5049C150.142 22.5049 152.028 20.6186 152.028 18.292C152.028 15.9656 150.142 14.0801 147.815 14.0801ZM169.721 12.3936C167.395 12.3936 165.509 14.2799 165.509 16.6064C165.509 18.9331 167.395 20.8193 169.721 20.8193C172.048 20.8193 173.934 18.9331 173.934 16.6064C173.934 14.2799 172.048 12.3936 169.721 12.3936ZM191.628 10.71C189.301 10.71 187.415 12.5962 187.415 14.9229C187.415 17.2495 189.301 19.1357 191.628 19.1357C193.954 19.1357 195.841 17.2494 195.841 14.9229C195.841 12.5963 193.954 10.71 191.628 10.71Z" fill="#FFF4CA" fill-opacity="0.5"/>
<mask id="mask0_2155_533" style="mask-type:alpha" maskUnits="userSpaceOnUse" x="0" y="0" width="229" height="224">
<path d="M228.7 206.181L19.7488 223.031L0.369873 16.6084L212.691 0.599609L228.7 206.181ZM16.3787 24.1904C14.0521 24.1904 12.1658 26.0767 12.1658 28.4033C12.1658 30.7299 14.052 32.6162 16.3787 32.6162C18.7052 32.6161 20.5916 30.7299 20.5916 28.4033C20.5915 26.0768 18.7051 24.1906 16.3787 24.1904ZM38.2849 22.5049C35.9583 22.5049 34.072 24.3912 34.072 26.7178C34.0722 29.0443 35.9584 30.9307 38.2849 30.9307C40.6113 30.9304 42.4967 29.0441 42.4968 26.7178C42.4968 24.3913 40.6113 22.5051 38.2849 22.5049ZM60.1902 20.8213C57.8638 20.8215 55.9783 22.7077 55.9783 25.0342C55.9785 27.3605 57.8639 29.2459 60.1902 29.2461C62.5167 29.2461 64.4029 27.3606 64.4031 25.0342C64.4031 22.7076 62.5168 20.8213 60.1902 20.8213ZM82.0964 19.1348C79.77 19.1349 77.8837 21.0212 77.8835 23.3477C77.8835 25.6742 79.7699 27.5604 82.0964 27.5605C84.4231 27.5605 86.3093 25.6743 86.3093 23.3477C86.3092 21.0212 84.423 19.1348 82.0964 19.1348ZM104.003 17.4492C101.676 17.4493 99.7898 19.3355 99.7898 21.6621C99.7898 23.9887 101.676 25.8749 104.003 25.875C106.329 25.875 108.216 23.9887 108.216 21.6621C108.216 19.3355 106.329 17.4492 104.003 17.4492ZM125.909 15.7656C123.582 15.7658 121.696 17.652 121.696 19.9785C121.696 22.305 123.583 24.1913 125.909 24.1914C128.235 24.1914 130.122 22.3051 130.122 19.9785C130.122 17.6519 128.236 15.7656 125.909 15.7656ZM147.815 14.0801C145.489 14.0802 143.603 15.9656 143.602 18.292C143.602 20.6186 145.489 22.5048 147.815 22.5049C150.142 22.5049 152.028 20.6186 152.028 18.292C152.028 15.9656 150.142 14.0801 147.815 14.0801ZM169.721 12.3936C167.395 12.3936 165.509 14.2799 165.509 16.6064C165.509 18.9331 167.395 20.8193 169.721 20.8193C172.048 20.8193 173.934 18.9331 173.934 16.6064C173.934 14.2799 172.048 12.3936 169.721 12.3936ZM191.628 10.71C189.301 10.71 187.415 12.5962 187.415 14.9229C187.415 17.2495 189.301 19.1357 191.628 19.1357C193.954 19.1357 195.841 17.2494 195.841 14.9229C195.841 12.5963 193.954 10.71 191.628 10.71Z" fill="#FFF4CA" fill-opacity="0.5"/>
</mask>
<g mask="url(#mask0_2155_533)">
<path d="M2.89758 42.7278L225.329 25.877" stroke="black" stroke-opacity="0.02" stroke-width="2"/>
<path d="M2.89758 54.5228L225.329 37.6719" stroke="black" stroke-opacity="0.02" stroke-width="2"/>
<path d="M2.89758 66.3177L225.329 49.4668" stroke="black" stroke-opacity="0.02" stroke-width="2"/>
<path d="M2.89758 78.1146L225.329 61.2637" stroke="black" stroke-opacity="0.02" stroke-width="2"/>
<path d="M2.89758 89.9095L225.329 73.0586" stroke="black" stroke-opacity="0.02" stroke-width="2"/>
<path d="M4.58264 101.704L228.7 84.8535" stroke="black" stroke-opacity="0.02" stroke-width="2"/>
<path d="M11.3229 160.683L235.44 143.832" stroke="black" stroke-opacity="0.02" stroke-width="2"/>
<path d="M4.58264 113.499L228.7 96.6484" stroke="black" stroke-opacity="0.02" stroke-width="2"/>
<path d="M11.3229 172.48L235.44 155.629" stroke="black" stroke-opacity="0.02" stroke-width="2"/>
<path d="M4.58264 125.296L228.7 108.445" stroke="black" stroke-opacity="0.02" stroke-width="2"/>
<path d="M11.3229 184.275L235.44 167.424" stroke="black" stroke-opacity="0.02" stroke-width="2"/>
<path d="M4.58264 137.091L228.7 120.24" stroke="black" stroke-opacity="0.02" stroke-width="2"/>
<path d="M11.3229 196.07L235.44 179.219" stroke="black" stroke-opacity="0.02" stroke-width="2"/>
<path d="M4.58264 148.888L228.7 132.037" stroke="black" stroke-opacity="0.02" stroke-width="2"/>
<path d="M11.3229 207.867L235.44 191.016" stroke="black" stroke-opacity="0.02" stroke-width="2"/>
<path d="M11.3229 217.976L235.44 201.125" stroke="black" stroke-opacity="0.02" stroke-width="2"/>
</g>
</svg>
