<svg width="1849" height="948" viewBox="0 0 1849 948" fill="none" xmlns="http://www.w3.org/2000/svg">
<g opacity="0.5">
<g opacity="0.3">
<mask id="mask0_2289_542" style="mask-type:alpha" maskUnits="userSpaceOnUse" x="1264" y="109" width="350" height="359">
<path fill-rule="evenodd" clip-rule="evenodd" d="M1465.89 113.035C1413.72 110.287 1356.49 100.17 1316.57 133.876C1274.69 169.239 1262.36 228.419 1264.38 283.194C1266.32 335.921 1288.26 386.277 1327.18 421.904C1364.51 456.08 1415.28 468.178 1465.89 467.66C1515.9 467.149 1572.35 459.518 1601.79 419.093C1629.51 381.024 1600.5 330.288 1600.24 283.194C1599.97 236.631 1629.12 185.365 1600.26 148.819C1570.4 110.999 1514.01 115.569 1465.89 113.035Z" fill="#FFD700"/>
</mask>
<g mask="url(#mask0_2289_542)">
<rect width="594.045" height="396.079" transform="matrix(-0.978068 0.208283 0.208283 0.978068 1746.23 25.5254)" fill="#FFD700"/>
</g>
</g>
<g opacity="0.3">
<mask id="mask1_2289_542" style="mask-type:alpha" maskUnits="userSpaceOnUse" x="628" y="189" width="428" height="309">
<path fill-rule="evenodd" clip-rule="evenodd" d="M858.309 193.572C810.447 188.008 760.169 183.9 722.417 213.842C671.647 254.111 618.346 310.554 630.591 374.188C643.037 438.861 712.844 474.607 776.116 492.888C827.293 507.675 875.658 480.981 924.19 459.017C975.131 435.963 1045.38 422.149 1054.37 366.962C1063.23 312.52 1000.94 277.959 959.622 241.418C930.188 215.387 897.339 198.109 858.309 193.572Z" fill="#FFA8B5"/>
</mask>
<g mask="url(#mask1_2289_542)">
<rect width="478.12" height="501.087" transform="matrix(-0.987724 -0.156212 -0.156212 0.987724 1101.25 151.887)" fill="#FFA8B5"/>
</g>
</g>
<g opacity="0.3">
<mask id="mask2_2289_542" style="mask-type:alpha" maskUnits="userSpaceOnUse" x="500" y="482" width="383" height="377">
<path fill-rule="evenodd" clip-rule="evenodd" d="M858.362 557.133C830.724 530.335 783.544 552.166 746.995 540.072C706.812 526.775 678.15 475.398 636.659 483.769C595.811 492.01 582.315 543.291 559.194 577.96C535.809 613.024 496.4 644.97 501.231 686.839C506.047 728.578 553.638 748.58 582.414 779.196C608.285 806.722 624.31 848.159 661.062 856.893C697.618 865.581 733.162 841.718 765.583 822.726C793.301 806.489 813.338 782.435 832.36 756.548C852.586 729.021 874.715 702.067 879.132 668.194C884.124 629.912 886.079 584.008 858.362 557.133Z" fill="#C075E3"/>
</mask>
<g mask="url(#mask2_2289_542)">
<rect width="404.244" height="621.914" transform="matrix(-0.999163 -0.0409027 -0.0409027 0.999163 913.29 421.627)" fill="#C075E3"/>
</g>
</g>
<g opacity="0.3">
<mask id="mask3_2289_542" style="mask-type:alpha" maskUnits="userSpaceOnUse" x="257" y="252" width="331" height="258">
<path fill-rule="evenodd" clip-rule="evenodd" d="M408.41 252.98C367.168 252.146 323.212 256.568 293.933 285.625C264.576 314.758 252.347 359.488 260.16 400.102C267.03 435.811 301.563 456.116 330.872 477.64C354.229 494.793 379.511 506.813 408.41 508.972C440.201 511.347 471.242 506.748 498.466 490.159C535.849 467.378 582.734 443.664 587.065 400.102C591.509 355.397 553.027 318.723 518.347 290.164C487.303 264.6 448.617 253.793 408.41 252.98Z" fill="#69C9A0"/>
</mask>
<g mask="url(#mask3_2289_542)">
<rect x="195.446" y="235.746" width="503.581" height="335.721" transform="rotate(-10.7131 195.446 235.746)" fill="#69C9A0"/>
</g>
</g>
<g opacity="0.3">
<mask id="mask4_2289_542" style="mask-type:alpha" maskUnits="userSpaceOnUse" x="955" y="437" width="397" height="386">
<path fill-rule="evenodd" clip-rule="evenodd" d="M1238.92 445.159C1191.87 425.351 1141.39 447.464 1092.62 462.544C1046.38 476.839 994.232 486.872 969.473 528.46C944.457 570.479 959.295 621.726 969.358 669.58C980.369 721.942 982.667 785.365 1029.09 811.969C1075.53 838.58 1130.65 805.98 1182.18 791.543C1233.08 777.284 1290.91 772.913 1321.76 729.984C1354.81 683.985 1358.7 622.284 1342.88 567.895C1327.32 514.375 1290.29 466.784 1238.92 445.159Z" fill="#7DC5E4"/>
</mask>
<g mask="url(#mask4_2289_542)">
<rect width="535.975" height="356.479" transform="matrix(-0.964248 0.265 0.265 0.964248 1342.32 386.986)" fill="#7DC5E4"/>
</g>
</g>
<g opacity="0.3">
<path d="M1438.91 863.594L1375.66 703.893L1272.18 834.823L1438.91 863.594Z" fill="#FFD700"/>
<mask id="mask5_2289_542" style="mask-type:alpha" maskUnits="userSpaceOnUse" x="1272" y="703" width="167" height="161">
<path d="M1438.91 863.594L1375.67 703.893L1272.18 834.823L1438.91 863.594Z" fill="#FFD700"/>
</mask>
<g mask="url(#mask5_2289_542)">
<path d="M1255.46 767.956C1258.53 771.656 1262.39 775.723 1266.14 779.494C1267.85 781.215 1269.59 782.927 1271.12 784.406C1272.68 785.904 1272.13 784.885 1273.2 785.896C1275.3 787.873 1277.05 789.88 1279.14 791.8C1279.83 792.43 1279.38 791.248 1280.09 791.918C1284.04 795.6 1287.55 799.311 1291.49 803.081C1308.65 819.445 1325.42 835.612 1343.56 851.305C1346.01 853.405 1348.49 855.461 1351.07 857.498C1353.94 859.753 1357.09 862.077 1360.68 864.253C1362.49 865.326 1364.35 866.369 1366.59 867.178C1367.71 867.566 1368.97 867.926 1370.49 867.951C1371.98 868.029 1373.91 867.342 1374.92 866.627C1377.18 865.217 1378.86 862.958 1379.74 860.754C1380.24 859.463 1380.37 860.376 1380.5 860.137C1382.09 856.298 1380.81 857.447 1380.93 855.004C1380.66 845.451 1376.94 836.733 1373.87 829.126C1372.49 825.899 1374.75 828.71 1372.83 825.752C1372.69 825.546 1372.65 826.544 1372.19 825.704C1371.16 823.771 1369.4 820.111 1368.58 818.658C1367 815.847 1366.75 815.382 1365.26 812.749C1363.2 809.131 1360.47 805.046 1358.19 801.24C1357.7 800.425 1358.79 801.231 1358.04 799.905C1357.3 798.58 1355.07 795.236 1354.24 794.191C1353.39 793.133 1353.4 793.821 1353.19 793.671C1351.49 792.434 1349.72 788.072 1349.39 787.568C1345.02 780.748 1340.5 775.076 1335.85 769.352C1334.24 767.389 1332.59 765.421 1330.76 763.461C1329.74 762.38 1328.66 761.287 1327.36 760.246C1326 759.352 1324.72 757.71 1321.25 758.213C1319.08 758.817 1318.25 760.444 1317.76 761.522C1317.28 762.682 1317.09 763.748 1316.97 764.781C1316.75 766.844 1316.91 768.774 1317.24 770.628C1317.51 772.11 1317.86 773.552 1318.26 774.935C1320.98 783.797 1325.48 790.225 1330.94 796.936C1331.53 797.643 1330.4 797.184 1331.13 798.046C1338.87 807.174 1348.09 814.6 1357.84 820.999C1358.81 821.637 1357.87 820.368 1358.86 820.978C1364.93 824.779 1375.01 829.757 1377.61 833.709C1378.57 834.24 1379.62 834.812 1380.65 835.365C1384.3 837.351 1388.5 838.907 1391.92 839.512C1394.78 839.977 1392.2 838.8 1395.57 839.795C1396.34 839.998 1395.23 840.268 1396.41 840.532C1401.37 841.625 1407 841.565 1412.07 840.77C1413.1 840.605 1412.93 841.07 1413.24 841.078C1415.07 841.105 1417.57 839.891 1419.1 838.669C1419.88 838.089 1420.36 837.525 1420.59 837.279C1423.27 834.325 1423.66 831.405 1424.21 828.904C1424.84 825.509 1424.59 822.247 1423.74 818.831C1423.36 817.398 1424.37 818.957 1424 817.552C1421.96 810.353 1418.05 804.001 1413.95 798.46C1413.02 797.232 1413.43 798.669 1412.97 798.098C1410.93 795.611 1411.24 794.496 1409.19 792.166C1408.75 791.675 1408.65 792.222 1408.54 792.156C1406.85 791.158 1406.62 789.266 1406.34 788.888C1402.73 784.044 1399.37 781.888 1395.53 777.576C1395.06 777.061 1396.52 777.833 1395.2 776.404C1387.7 768.36 1379.24 760.541 1370.61 753.621C1368.9 752.284 1366.88 750.912 1364.13 750.87C1362.74 750.929 1362.57 751.231 1362.72 751.281C1362.87 751.357 1363.31 751.398 1363.23 751.436C1362.75 751.657 1362.33 751.873 1361.96 752.078C1360.41 752.981 1359.37 753.699 1358.99 754.257C1357.83 756.265 1357.74 758.453 1357.96 760.332C1358.34 763.576 1359.36 766.272 1359.59 768.726C1370.63 788.97 1389.72 800.906 1407.92 811.979C1408.16 812.116 1408.02 811.429 1408.49 811.704C1414.16 815 1412.68 814.971 1415.86 818.085C1416.66 818.868 1420.1 819.63 1420.39 819.709C1421.47 820.002 1420.91 818.785 1421.25 818.92C1424.02 820.059 1422.32 821.924 1425.75 823.995C1425.86 824.056 1425.64 823.395 1425.95 823.53C1426.92 823.947 1427.72 824.636 1428.67 825.026C1430.28 825.681 1431.43 825.527 1433 826.364C1433.57 826.672 1434.19 827.088 1434.94 827.712C1435.31 827.997 1433.97 828.955 1437.31 830.537C1438.6 831.227 1444.67 833.645 1446.48 833.987C1448.25 834.409 1447.17 833.625 1447.3 833.643C1452.15 834.309 1450.43 833.575 1452.93 833.205C1455.4 832.758 1454.42 834.704 1455.36 835.09C1456.31 835.492 1459.89 835.361 1460.76 835.221C1461.62 835.104 1460.58 834.751 1461.34 834.7C1466.41 834.283 1463.53 835.832 1465.2 836.213C1465.97 836.377 1466.69 836.446 1467.39 836.455C1470.88 836.443 1473.24 834.342 1475.57 832.555C1476.21 832.043 1476.03 832.452 1476.34 832.346C1476.42 832.318 1476.52 832.262 1476.66 832.149C1479.21 830.069 1479.49 827.517 1479.81 824.672C1479.87 824.108 1479.92 823.494 1479.95 822.806C1480.05 822.194 1480.5 818.603 1479.19 816.773C1479 816.513 1478.89 817.436 1478.35 816.013C1477.59 813.928 1475.94 810.328 1474.94 808.173C1474.21 806.582 1475.73 808.066 1474.49 806.19C1473.95 805.383 1474.49 807.128 1473.49 805.614C1472.49 804.057 1470.05 800.156 1469.04 798.675C1468.06 797.223 1469 797.738 1468.95 797.603C1468.63 796.784 1466.82 793.879 1466.64 793.644C1457.59 781.434 1447.33 771.943 1436.83 761.733C1436 760.934 1436.91 761.08 1436.79 760.954C1434.03 758.124 1435.4 761.231 1433.06 759.716C1434.05 759.213 1432.73 758.258 1430.73 756.333C1429.76 755.407 1430.57 755.587 1430.51 755.475C1429.42 753.708 1427.84 753.399 1427.47 753.292C1426.09 752.89 1425.45 751.434 1424.51 751.163C1423.57 750.896 1424.77 752.652 1422.74 750.956C1422.4 750.196 1424.54 750.7 1423.09 749.295C1420.99 747.275 1418 744.843 1414.78 742.478C1410.81 739.231 1404.97 739.682 1401.53 740.558C1399.72 740.922 1398.18 741.482 1396.99 742.061C1394.83 743.107 1393.32 744.545 1392.7 746.2C1391.8 748.755 1391.88 750.698 1392.53 753.007C1393.61 756.251 1394.27 757.105 1394.44 757.86C1394.65 758.568 1394.66 759.155 1395.76 760.904C1398.14 764.384 1398.22 761.611 1398.88 761.825C1399.55 762.005 1399.66 762.713 1400.29 763.072C1400.92 763.427 1400.07 762.169 1401.26 763.285C1402.41 764.404 1405.3 767.876 1405.52 768.548C1405.93 769.975 1403.75 769.393 1407.41 771.907C1407.62 772.047 1407.27 771.178 1408.06 771.732C1414.37 776.154 1421.06 780.388 1427.79 784C1428.71 784.492 1428.17 783.571 1428.71 783.852C1434.36 786.748 1431.97 786.362 1434.52 788.923C1434.48 787.408 1436.53 787.677 1440.75 789.955C1443.3 791.32 1442.6 791.581 1444.06 792.81C1444.5 793.181 1446.5 793.789 1446.7 794.195C1447.38 795.527 1445.23 795.514 1449.82 797.446C1450.02 797.53 1449.62 796.788 1450.3 797.108C1454.72 799.154 1454.84 800.231 1459.5 802.675C1461.1 803.51 1463.29 804.498 1465.58 805.494C1468.67 806.857 1472.09 807.97 1474.69 808.734C1475.05 807.35 1479.16 808.904 1480.77 810.222C1483.81 810.835 1487.13 811.335 1490.13 811.386C1491.16 811.403 1490.51 810.94 1490.64 810.903C1492.64 810.303 1493.94 811.283 1494.61 811.327C1496.01 811.408 1497.37 811.409 1498.67 811.375C1502.8 811.515 1505.4 807.197 1505.27 803.875C1505.36 801.871 1505.35 799.855 1505.29 797.711C1505.27 797.47 1506.25 796.887 1505.16 795.156C1505.08 795.055 1505.1 797.396 1504.39 794.192C1503.69 790.945 1500.96 785.449 1498.99 781.385C1498.55 780.4 1497.73 777.583 1495.87 776.167C1495.63 775.982 1495.59 776.412 1495.21 776.169C1493.98 775.392 1494.32 774.162 1492.63 773.472C1490.93 772.78 1488.36 770.751 1485.6 767.217C1485.51 767.104 1485.32 765.787 1484.28 764.83C1482.62 763.304 1480.11 761.33 1478.3 759.839C1477.43 759.124 1478.3 759.191 1478.16 759.06C1472.44 754.068 1467.75 751.297 1460.88 747.018C1459.63 746.238 1456.39 743.359 1453.65 742.324C1450.65 741.2 1452.13 744.953 1446.25 740.764C1446.22 740.741 1446.18 740.717 1446.15 740.693C1445.29 740.042 1444.52 738.924 1443.24 738.186C1442.61 737.837 1441.8 737.585 1441 737.886C1440.18 738.159 1439.63 739.229 1439.87 740.225C1440.01 740.874 1440.29 741.539 1440.7 742.138C1444.09 751.724 1452.98 756.925 1460.41 763.667C1460.76 763.968 1461.38 765.542 1462.26 766.185C1463.56 767.131 1464.51 767.322 1465.46 767.981C1467.06 769.089 1468.57 770.206 1470.06 771.323L1470.08 771.337C1472.62 772.451 1474.99 773.525 1477.59 774.522C1479.23 775.151 1478.77 774.515 1480.77 775.273C1482.75 776.022 1483.8 777.03 1486.58 777.802C1488.62 778.359 1491.08 778.07 1493.76 778.915C1493.49 780.011 1495.28 780.654 1498.49 782.112C1499.1 782.39 1498.29 782.518 1498.57 782.668C1499.71 783.286 1500.93 783.374 1502.03 783.987C1502.29 784.134 1502.18 784.501 1502.39 784.641C1504.12 785.842 1507.65 786.12 1508.26 786.161C1510.58 786.33 1511.4 787.116 1513.12 787.429C1514.8 787.728 1512.47 786.697 1514.39 787.162C1518.42 788.141 1523.53 789.713 1527.6 790.769C1529.2 791.189 1527.98 791.394 1528.21 791.466C1531.54 792.48 1535.06 792.737 1536.76 794.134C1539.67 792.035 1538.71 794.869 1543.78 795.151C1544.16 795.163 1544.82 794.007 1543.4 793.605C1541.97 793.2 1539.67 793.179 1537.69 792.47C1537.25 792.317 1534.76 790.569 1534.4 790.407C1531.65 789.191 1530.77 790.869 1530.6 790.935C1528.54 791.561 1525.57 789.452 1524.72 789.121C1520.84 787.621 1517.41 786.85 1514.18 785.53C1512.08 784.67 1512.23 783.432 1510.55 782.922C1504.92 781.186 1502.38 782.099 1497.62 778.827C1496.61 778.126 1498.22 777.302 1493.8 776.795C1493.55 776.774 1490.21 776.557 1488.71 775.339C1488.53 775.187 1488.67 774.827 1488.4 774.689C1486.58 773.772 1485.17 773.561 1483.18 772.626C1481.12 771.667 1478.79 770.508 1476.34 769.664C1474.92 769.18 1472.82 769.11 1472.07 768.993C1471.75 768.945 1471.44 768.868 1471.13 768.771L1471.66 769.063C1470.12 768.149 1469.01 766.699 1467.82 766.481C1466.41 766.222 1467.9 768.48 1464.92 766.796C1465.42 765.909 1465.8 764.906 1466.24 763.972C1460.33 759.619 1454.37 755.413 1449.47 750.269C1448.87 749.629 1449.87 749.905 1449.25 749.212C1446.74 746.339 1444.28 743.729 1443.65 740.699C1443.6 740.4 1443.57 740.101 1443.57 739.82C1443.59 739.813 1443.63 739.892 1443.62 740.077C1443.61 740.258 1443.51 740.55 1443.33 740.791C1443.16 741.035 1442.94 741.2 1442.82 741.287C1442.69 741.375 1442.65 741.407 1442.68 741.445C1442.84 741.557 1443.81 741.955 1444.69 742.544C1444.81 742.526 1444.93 742.521 1445.07 742.53C1447.54 742.929 1451.47 745.682 1454.5 747.47C1455.63 748.142 1455.72 747.83 1456.56 748.248C1459.74 749.841 1457.79 749.805 1458.51 750.463C1461.58 753.302 1463.17 751.567 1467.14 754.429C1467.36 754.579 1469.19 757.425 1469.48 757.746C1471.38 759.788 1470.11 757.671 1471.54 758.636C1474.13 760.411 1476.03 761.544 1478.59 764.209C1479.33 764.987 1480.72 767.243 1482.62 768.235C1482.87 768.366 1483.04 767.968 1483.21 768.102C1486.34 770.59 1485.47 771.596 1486.66 773.503C1487.85 775.42 1490.65 777.477 1491.27 777.903C1492.91 778.96 1490.64 776.611 1490.62 776.509C1490.48 775.116 1491.99 777.16 1493.16 778.683C1494.35 778.168 1495.84 780.482 1494.36 780.287C1494.2 780.263 1493.44 778.965 1493.16 778.683C1493.17 780.797 1494.62 783.174 1497.13 785.48C1498.27 786.594 1498.33 784.97 1499.94 789.346C1500.6 791.355 1499.51 790.885 1499.84 792.668C1500.43 795.993 1501.53 799.993 1501.49 803.742C1501.49 804.408 1501.4 805.006 1501.23 805.481C1501.04 805.956 1500.91 805.876 1500.8 805.803C1500.7 805.721 1500.6 805.632 1500.47 805.853C1499.95 806.573 1499.67 806.918 1498.54 807.045C1497.68 807.086 1496.82 807.102 1495.93 807.056C1495.67 807.041 1496.3 806.542 1495.41 806.542C1488.64 806.495 1482.79 806.064 1476.09 803.959C1473.94 803.285 1470.76 801.935 1468.02 800.505C1466.6 799.773 1465.19 799.057 1464.1 798.538C1458.29 795.78 1450.92 792.849 1446.16 790.129C1443.05 788.358 1443.98 788.286 1442.79 787.267C1440.51 785.305 1435.41 783.796 1434.7 783.597C1434.68 783.594 1437.29 785.196 1435.74 784.617C1434.66 784.612 1434.73 783.615 1434.7 783.597C1434.23 783.48 1428.9 780.518 1427.91 779.792C1427.37 779.409 1427.93 779.197 1427.64 779.005C1420.9 774.426 1414.19 769.895 1407.94 764.908C1407.82 764.822 1407.65 765.361 1407.38 765.154C1403.72 762.291 1402.07 759.69 1400.32 756.708C1398.59 753.694 1397.83 751.776 1396.83 750.39C1396.83 749.597 1396.87 748.762 1397.12 747.88C1397 747.573 1398.11 746.374 1399.09 745.851C1400.83 744.891 1401.45 745.916 1401.6 745.878C1401.88 745.849 1402.16 745.825 1402.43 745.806C1407.15 745.376 1408.63 745.285 1411.38 746.98C1412.38 747.683 1413.47 748.469 1414.63 749.354C1417.29 751.355 1422.29 755.66 1424.93 758.108C1427.02 760.035 1428.46 760.998 1430.31 762.869C1430.55 763.123 1429.98 763.219 1430.05 763.304C1431.85 765.674 1431.56 763.909 1432.14 764.171C1434.24 765.127 1435.51 765.771 1437.98 768.623C1438.56 769.283 1439.24 772.184 1440.28 773.36C1441.64 774.888 1441.5 773.936 1442.9 775.562C1443.02 775.701 1442.75 775.92 1443.67 776.854C1447.97 781.195 1452.62 786.019 1456.58 790.92C1457.12 791.596 1455.99 791.088 1456.76 792.067C1460.38 796.637 1464.14 801.747 1467.21 806.334C1467.96 807.456 1467.87 806.533 1468.12 806.727C1469.68 807.954 1469.98 810.715 1470.13 811.073C1472.37 816.139 1474.07 820.601 1474.04 824.393C1474.03 825.368 1473.9 826.183 1473.72 826.678C1473.53 827.177 1473.36 827.434 1472.81 827.88C1471.9 828.584 1470.78 829.165 1469.65 829.441C1469.43 829.501 1468.32 829.424 1467.43 829.273C1466.17 829.175 1464.94 829.197 1464.12 829.569C1463.99 829.629 1462.03 830.541 1460.41 829.752C1460.31 829.7 1461.51 829.304 1459.48 829.186C1457.45 829.063 1454.33 828.288 1451.53 828.173C1450.65 828.143 1448.33 828.567 1446.08 826.974C1445.89 826.881 1442.83 823.856 1441.07 824.304C1440.78 824.371 1440.43 825.679 1437.91 823.633C1437.44 823.237 1438.53 823.513 1437.23 822.597C1436.79 822.283 1436.32 821.978 1435.81 821.654C1433.88 820.433 1431.54 819.162 1429.62 817.493C1429.2 817.119 1427.61 815.155 1425.64 814.72C1425.33 814.651 1425.6 815.308 1424.71 814.824C1420.51 812.52 1416.41 809.637 1412.18 807.265C1410.68 806.422 1411.05 807.472 1409.45 806.654C1407.84 805.83 1404.73 803.985 1403.37 802.68C1402 801.369 1404.29 801.617 1402.04 799.972C1392.33 792.793 1382.33 786.094 1374.4 777.644C1373.25 776.384 1374.45 777.17 1372.85 775.298C1369.49 771.351 1365.44 765.085 1364.99 759.681C1364.9 758.841 1364.98 758.132 1365.08 757.769C1365.13 757.588 1365.18 757.499 1365.14 757.526C1365.1 757.547 1364.95 757.705 1364.56 757.861C1364.36 757.933 1364.13 757.943 1364.03 757.914C1363.94 757.887 1363.97 757.848 1364.09 757.854C1364.34 757.861 1364.87 758.046 1365.37 758.302C1365.71 758.471 1366.01 758.641 1366.26 758.78C1369.66 760.901 1364.85 756.234 1368.61 759.107C1370.6 760.636 1371.79 763.384 1372.22 763.825C1376.34 768.045 1379.72 770.449 1383.4 774.288C1384.15 775.081 1383.03 774.695 1383.67 775.363C1385.88 777.663 1388.37 779.88 1390.43 782.115C1391.34 783.117 1390.89 783.203 1391.76 784.096C1393.84 786.239 1395.72 788.088 1397.9 790.052C1398.1 790.232 1397.3 788.556 1398.75 790.221C1401.1 792.916 1404.18 796.143 1406.28 799.655C1406.9 800.7 1406.21 801.242 1408.18 803.005C1408.59 803.377 1409.12 802.194 1409.99 805.218C1410.16 805.723 1411.68 810.573 1413.41 812.307C1413.88 812.746 1415.4 813.842 1415.8 815.15C1415.85 815.331 1415.12 814.83 1415.51 815.899C1416.87 819.583 1417.9 823.536 1417.37 826.635C1417.22 827.433 1416.9 826.209 1416.67 827.326C1416.67 827.345 1416.66 827.364 1416.66 827.384C1416.39 828.529 1416.06 829.635 1415.71 830.37C1415.35 831.133 1415.11 831.321 1415.01 831.409C1413.94 832.061 1412.08 832.707 1410.49 833.087C1409.05 833.419 1410.13 833.635 1410.03 833.7C1408.39 834.733 1407.17 833.82 1406.59 833.805C1402.89 833.679 1400 833.869 1396.58 833.046C1395.65 832.807 1396.42 832.495 1396.24 832.413C1394.43 831.561 1395.65 832.727 1394.41 832.501C1391.07 831.865 1387.51 830.362 1384.47 828.573C1384.33 828.49 1384.19 828.407 1384.04 828.324C1382.79 827.586 1384.48 827.921 1383.35 827.262C1376.65 823.345 1369.8 819.175 1363.46 815.147C1362.27 814.388 1362.76 815.239 1362.46 815.15C1360.4 814.537 1358.53 812.035 1358.04 811.558C1355.79 809.384 1354.62 808.941 1352.54 807.176C1342.36 798.661 1330.94 786.718 1326.85 775.785C1325.96 773.558 1325.31 771.369 1324.87 769.21C1324.59 767.867 1324.48 766.513 1324.57 765.463C1324.61 764.95 1324.72 764.502 1324.75 764.405C1324.76 764.359 1324.75 764.421 1324.55 764.647C1324.36 764.861 1323.84 765.291 1323.11 765.466C1322.6 765.59 1322.19 765.545 1322.01 765.505C1321.82 765.462 1321.79 765.431 1321.84 765.448C1321.94 765.478 1322.29 765.668 1322.65 765.93C1323.38 766.461 1324.25 767.253 1325.09 768.097C1326.78 769.808 1328.45 771.784 1330.09 773.851C1332.45 776.819 1334.8 779.89 1337.19 783.176C1337.78 783.996 1336.73 783.504 1337.24 784.214C1343.79 793.385 1350.2 802.47 1355.8 812.207C1356.26 813.006 1355.13 812.135 1355.85 813.423C1357.31 816.063 1359.22 819.391 1360.79 821.984C1361.56 823.266 1361.02 821.283 1361.79 822.578C1363.55 825.565 1365.25 828.912 1366.61 832.176C1367.18 833.563 1365.78 831.72 1366.55 833.493C1368.77 838.675 1370.66 843.922 1371.64 848.99C1372.7 854.065 1372.12 858.592 1370.41 859.535C1370.19 859.694 1370.29 859.638 1370.42 859.623C1370.55 859.602 1370.67 859.624 1370.62 859.646C1370.54 859.697 1369.97 859.639 1369.31 859.435C1368.7 859.243 1367.62 859.996 1366.11 858.905C1366.15 858.572 1366.34 858.267 1366.45 857.956C1360.69 854.444 1354.89 849.566 1349.24 844.761C1339.93 836.737 1330.73 828.275 1321.66 819.64C1321.04 819.052 1322.5 819.651 1321.31 818.51C1314.45 811.93 1307.96 805.356 1300.65 798.911C1299.93 798.276 1299.55 799.345 1297.64 797.229C1297.31 796.86 1294.37 793.734 1293.74 792.784C1293.66 792.654 1294.55 792.869 1293.58 791.882C1287.97 786.144 1281.99 780.229 1276.24 774.67C1275.32 773.785 1275.89 775.114 1275.24 774.49C1274.6 773.876 1273.95 773.24 1273.35 772.626C1269.31 768.532 1265.35 763.96 1261.66 760.228C1258.86 757.336 1259.12 759.029 1257.16 757.858C1257.01 757.763 1256.59 757.235 1256.2 756.74C1255.8 756.245 1255.5 755.847 1255.25 755.885C1253.88 755.891 1253.19 757.837 1251.7 757.797C1251.62 757.782 1251.43 757.498 1251.24 756.911C1251.05 756.377 1250.78 755.11 1251.34 753.82C1251.93 752.625 1252.23 752.5 1252.17 752.407C1252.15 752.372 1252.11 752.341 1251.95 752.428C1251.81 752.532 1251.37 752.736 1250.81 753.824C1250.73 753.945 1250.38 754.872 1250.42 755.807C1250.44 756.74 1250.67 757.47 1250.86 758.052C1251.28 759.218 1251.7 760.02 1251.8 760.399C1251.95 760.925 1251 760.431 1251.42 761.429C1251.85 762.414 1252.84 763.012 1253.62 764.376C1254.42 765.737 1253.52 765.603 1255.46 767.956ZM1408.4 743.544C1410.4 743.518 1409.96 745.292 1408.35 744.426C1408.27 744.387 1408.3 743.551 1408.4 743.544ZM1453.79 756.284C1451.02 754.92 1450.38 752.657 1452.3 753.627C1454.22 754.568 1454.63 756.69 1453.79 756.284ZM1479.05 773.406C1475.56 772.692 1475.99 770.12 1479.29 771.988C1479.48 772.094 1479.26 773.447 1479.05 773.406ZM1263.46 765.787C1263.43 765.783 1262.17 764.418 1262.16 764.364C1261.93 763.25 1264.43 765.985 1263.46 765.787ZM1507.9 784.661C1506.78 784.655 1503.87 783.24 1505.32 783.282C1506.49 783.322 1509.32 784.682 1507.9 784.661ZM1475.14 831.787C1475.13 831.841 1474.04 832.586 1473.98 832.43C1473.82 831.988 1475.34 831.094 1475.14 831.787ZM1558.91 793.349C1555.75 793.535 1553.34 794.787 1551.99 795.488L1551.98 795.49C1550.32 796.062 1549.86 796.592 1552.12 796.62L1552.25 796.597C1553.02 796.492 1554.04 796.19 1555.27 795.851C1556.71 795.435 1551.97 796.037 1553.77 795.354C1557.16 794.037 1559.55 795.289 1563.14 794.693C1563.81 794.559 1559.4 793.241 1558.89 793.347C1558.9 793.348 1558.9 793.349 1558.91 793.349ZM1410.07 741.736C1410.13 741.692 1411.86 742.362 1411.88 742.437C1412.19 742.92 1411.53 742.728 1410.9 742.482C1410.27 742.228 1409.61 741.913 1410.07 741.736ZM1404.04 808.853C1403.92 808.844 1400.32 806.488 1400.23 806.365C1398.89 804.346 1406.16 809.102 1404.04 808.853ZM1474.77 808.72C1476.57 809.899 1479 810.589 1480.76 810.221C1478.75 809.832 1476.75 809.31 1474.77 808.72Z" fill="#FF61B0"/>
</g>
</g>
<g opacity="0.3">
<mask id="mask6_2289_542" style="mask-type:alpha" maskUnits="userSpaceOnUse" x="1364" y="482" width="422" height="369">
<path fill-rule="evenodd" clip-rule="evenodd" d="M1773.92 541.337C1745.28 494.61 1674.8 511.634 1621.17 500.353C1581.7 492.049 1545.27 476.643 1505.8 484.933C1453.9 495.833 1388.46 504.046 1368.89 553.335C1349.29 602.678 1401.52 648.044 1421.48 697.241C1442.67 749.479 1435.16 825.148 1487.58 845.888C1540.01 866.632 1588.82 811.113 1637.53 782.725C1677.88 759.208 1719.06 738.265 1742.04 697.601C1769.22 649.486 1802.79 588.459 1773.92 541.337Z" fill="#FF8457"/>
</mask>
<g mask="url(#mask6_2289_542)">
<rect width="592.833" height="395.222" transform="matrix(-1 0 0 1 1810.65 465.189)" fill="#FF8457"/>
</g>
</g>
<g opacity="0.3">
<mask id="mask7_2289_542" style="mask-type:alpha" maskUnits="userSpaceOnUse" x="86" y="501" width="419" height="346">
<path fill-rule="evenodd" clip-rule="evenodd" d="M87.7932 617.164C81.1129 651.215 112.668 680.709 130.553 710.851C146.379 737.523 163.961 761.967 186.585 783.661C211.717 807.759 235.107 838.071 269.96 844.523C305.055 851.019 344.493 840.253 371.548 817.898C397.333 796.593 394.031 757.76 409.924 728.873C422.421 706.157 442.051 689.157 454.802 666.571C473.221 633.944 517.063 600.735 501.47 566.714C485.665 532.231 429.932 540.559 392.248 530.097C367.345 523.183 342.791 520.208 317.322 515.589C290.449 510.715 264.739 497.122 237.909 502.107C209.066 507.465 186.192 526.626 163.246 544.213C134.867 565.964 94.5195 582.88 87.7932 617.164Z" fill="#FFD700"/>
</mask>
<g mask="url(#mask7_2289_542)">
<rect width="633.063" height="422.042" transform="matrix(-0.999703 -0.02435 -0.02435 0.999703 658.531 473.91)" fill="#FFD700"/>
</g>
</g>
<path opacity="0.3" d="M871.892 551.365C871.991 551.368 872.056 551.307 872.112 551.225C872.152 551.165 872.195 551.117 872.267 551.178C872.653 551.5 873.046 551.815 873.426 552.145C874.279 552.887 875.122 553.64 875.976 554.379C876.161 554.538 876.327 554.71 876.441 554.935C877.395 555.106 878.247 555.618 879.207 555.768C879.416 555.621 879.595 555.749 879.776 555.812C880.78 556.155 881.78 556.505 882.783 556.851C883.22 557.003 883.659 557.156 884.097 557.306C884.409 557.413 884.718 557.522 885.056 557.549C885.294 557.569 885.522 557.679 885.751 557.759C892.869 560.223 899.986 562.688 907.103 565.152C907.498 565.289 907.885 565.445 908.314 565.476C908.531 565.49 908.736 565.6 908.945 565.672C916.165 568.172 923.387 570.675 930.61 573.174C930.922 573.283 931.223 573.427 931.567 573.418C931.781 573.413 931.936 573.551 932.078 573.699C932.491 573.955 933.023 573.999 933.319 574.462C933.564 574.096 933.565 574.094 933.837 574.176C933.986 574.221 934.131 574.276 934.276 574.325C935.947 574.903 937.616 575.482 939.286 576.06C939.453 576.119 939.619 576.18 939.789 576.231C940.044 576.307 940.086 576.296 940.232 576.052C940.464 575.663 940.684 575.265 940.907 574.869C941.494 573.827 942.101 572.797 942.659 571.737C943.373 570.379 944.162 569.068 944.888 567.721C945.603 566.394 946.353 565.089 947.088 563.772C947.903 562.31 948.697 560.835 949.49 559.359C949.582 559.187 949.735 559.154 949.861 559.061C950.289 558.371 950.666 557.648 951.066 556.94C951.17 556.755 951.29 556.567 951.235 556.335C951.548 555.742 951.848 555.144 952.171 554.557C952.853 553.321 953.546 552.093 954.233 550.861C954.769 549.901 955.308 548.942 955.84 547.978C956.557 546.68 957.266 545.378 957.982 544.08C958.272 543.557 958.567 543.036 958.872 542.522C959.047 542.227 959.173 541.916 959.219 541.581C959.436 539.991 959.642 538.402 959.858 536.812C960.092 535.081 960.333 533.35 960.567 531.619C960.695 530.671 960.816 529.72 960.944 528.772C961.242 526.566 961.55 524.361 961.845 522.156C962.055 520.589 962.247 519.023 962.45 517.456C962.603 516.27 962.758 515.082 962.921 513.898C962.947 513.709 963.02 513.526 963.072 513.341C963.287 512.796 963.346 512.227 963.373 511.655C963.382 511.472 963.35 511.301 963.288 511.136C963.416 510.213 963.551 509.291 963.676 508.367C963.885 506.827 964.086 505.285 964.296 503.746C964.607 501.447 964.928 499.15 965.238 496.849C965.389 495.733 965.524 494.619 965.671 493.505C965.698 493.291 965.768 493.077 965.764 492.869C965.76 492.634 965.941 492.619 966.046 492.51C966.067 491.463 966.261 490.43 966.411 489.395C966.288 489.087 966.285 488.77 966.338 488.43C966.485 487.484 966.611 486.535 966.743 485.586C966.752 485.516 966.754 485.443 966.753 485.373C966.753 485.209 966.698 485.112 966.523 485.11C966.102 485.107 965.681 485.087 965.26 485.077C964.463 485.059 963.664 485.043 962.867 485.029C962.737 485.026 962.661 484.972 962.636 484.839C961.707 484.883 960.784 484.775 959.851 484.868C959.714 484.963 959.571 484.989 959.408 484.985C958.087 484.964 956.766 484.96 955.445 484.944C954.675 484.935 953.906 484.918 953.136 484.899C952.851 484.893 952.559 484.922 952.291 484.798C951.376 484.633 950.453 484.599 949.519 484.748C949.123 484.878 948.726 484.818 948.33 484.819C947.82 484.821 947.312 484.815 946.803 484.803C946.673 484.8 946.544 484.759 946.415 484.737C945.776 484.427 945.061 484.566 944.391 484.546C943.513 484.521 942.627 484.495 941.742 484.531C941.664 484.677 941.553 484.709 941.403 484.708C940.538 484.694 939.673 484.699 938.809 484.687C938.011 484.677 937.215 484.666 936.419 484.638C936.049 484.625 935.804 484.787 935.57 485.11C934.31 486.847 933.033 488.569 931.757 490.292C931.177 491.076 930.584 491.852 930.003 492.639C929.898 492.781 929.801 492.906 929.618 492.861C928.993 493.769 928.364 494.672 927.63 495.487C927.612 495.753 927.54 495.978 927.369 496.206C925.894 498.167 924.432 500.139 922.974 502.113C922.223 503.129 921.49 504.159 920.739 505.176C919.322 507.092 917.898 509.003 916.476 510.916C916.419 510.993 916.359 511.067 916.302 511.142C916.222 511.247 916.118 511.291 916.004 511.251C915.837 511.193 915.664 511.141 915.514 511.049C914.777 510.603 914.016 510.21 913.251 509.819C912.624 509.5 912.024 509.125 911.408 508.782C911.061 508.59 910.706 508.412 910.356 508.225C909.368 507.692 908.382 507.155 907.393 506.624C907.024 506.426 906.652 506.235 906.282 506.039C905.348 505.542 904.416 505.047 903.486 504.546C903.118 504.349 902.763 504.12 902.391 503.934C901.33 503.398 900.286 502.831 899.251 502.241C898.583 501.859 897.883 501.536 897.197 501.181C896.924 501.04 896.655 500.885 896.388 500.731C896.273 500.666 896.289 500.537 896.292 500.418C894.989 499.716 893.656 499.075 892.389 498.304C892.248 498.333 892.133 498.441 891.961 498.332C891.474 498.032 890.966 497.773 890.459 497.508C889.779 497.15 889.099 496.789 888.409 496.452C888.112 496.307 887.843 496.114 887.546 495.969C886.719 495.565 885.912 495.116 885.103 494.672C884.467 494.325 883.847 493.947 883.208 493.602C882.532 493.237 881.841 492.897 881.159 492.542C880.925 492.421 880.701 492.282 880.469 492.157C880.14 491.981 879.828 491.772 879.477 491.631C879.259 491.542 879.075 491.362 878.924 491.162C878.212 490.653 877.375 490.362 876.703 489.785C876.611 489.966 876.476 490.039 876.318 489.929C876.043 489.737 875.735 489.617 875.443 489.463C874.802 489.124 874.171 488.761 873.538 488.406C873.397 488.328 873.287 488.391 873.175 488.491C872.665 488.942 872.15 489.386 871.64 489.841C870.43 490.919 869.221 492.001 868.012 493.082C866.576 494.365 865.14 495.651 863.699 496.931C862.222 498.24 860.738 499.539 859.26 500.848C858.416 501.595 857.575 502.348 856.739 503.107C856.546 503.282 856.36 503.464 856.098 503.495C855.267 503.961 855.088 504.704 855.249 505.588C855.37 505.649 855.477 505.731 855.505 505.884C855.527 505.999 855.541 506.117 855.554 506.236C855.754 508.05 855.949 509.863 856.154 511.677C856.426 514.078 856.704 516.478 856.982 518.878C857.084 519.748 857.191 520.618 857.291 521.487C857.576 523.957 857.84 526.432 858.149 528.898C858.276 529.908 858.378 530.923 858.494 531.935C858.775 534.383 859.06 536.83 859.33 539.277C859.385 539.777 859.575 540.134 859.946 540.444C861.224 541.519 862.47 542.637 863.73 543.737C864.503 544.41 865.281 545.079 866.056 545.751C867.537 547.038 869.017 548.326 870.497 549.614C870.548 549.657 870.602 549.703 870.633 549.762C870.689 549.864 870.603 549.933 870.549 550.007C870.633 550.42 871.027 550.489 871.269 550.715C871.507 550.903 871.717 551.111 871.892 551.365Z" fill="#69C9A0"/>
<path opacity="0.3" d="M867 771.59C850.806 783.976 818.195 809.299 817.303 811.498L894.623 852.946C913.681 844.756 953.483 827.092 960.23 821.951C966.978 816.81 967.502 772.879 966.921 751.556L895.251 714.861C898.898 725.989 877.937 757.317 867 771.59Z" fill="#FFE2D2"/>
<path opacity="0.3" d="M519.099 755.826C516.614 753.469 514.143 751.095 511.645 748.741C507.718 745.047 503.771 741.377 499.863 737.671C495.096 733.145 490.376 728.559 485.609 724.032C484.256 722.752 482.783 721.597 481.416 720.321C478.684 717.78 475.951 715.24 473.305 712.603C472.554 711.856 471.779 711.476 470.558 711.777C466.324 712.824 462.092 713.844 457.86 714.864C457.416 714.967 456.951 715.11 456.53 715.107C453.961 715.085 452.11 716.558 450.373 719.087C446.595 724.581 442.651 729.972 438.745 735.392C435.304 740.174 431.889 744.976 428.346 749.69C427.16 751.276 426.895 752.419 427.537 753.853C431.204 762.035 434.693 770.339 438.406 778.489C445.705 794.508 453.155 810.412 460.447 826.426C463.219 832.517 465.725 838.799 467.842 845.324C467.967 845.727 468.118 846.123 468.23 846.529C468.453 847.369 468.985 847.625 469.928 847.323C473.063 846.317 476.19 845.387 479.319 844.376C488.595 841.378 497.878 838.386 507.155 835.334C512.393 833.607 511.074 834.645 514.706 829.27C522.106 818.309 528.225 806.747 534.748 795.38C536.554 792.229 538.379 789.079 540.269 785.967C541.329 784.212 542.154 782.547 541.329 780.926C541.243 780.748 541.185 780.522 541.184 780.301C541.159 776.76 539.48 774.586 537.236 772.655C533.522 769.461 530.131 765.873 526.518 762.552C524.049 760.305 521.46 758.196 519.099 755.826Z" fill="#D4E1EB"/>
<path opacity="0.3" d="M1109.8 243.021C1109.8 243.021 1120.17 255.358 1121.02 256.48C1123.16 259.47 1143.91 284.331 1152.98 292.648C1162.04 300.966 1179.61 317.322 1179.61 317.322C1179.61 317.322 1163.63 333.584 1154.85 345.547C1146.16 357.509 1129.52 380.313 1129.52 380.313C1129.52 380.313 1074.66 325.64 1072.79 323.677C1068.49 319.098 1064.85 313.677 1061.01 308.537C1060.08 307.228 1055.22 302.649 1055.22 302.649C1055.22 302.649 1062.14 296.48 1063.72 294.985C1067.09 291.807 1083.35 273.863 1084.57 271.714C1086.25 268.816 1094.38 259.657 1096.72 256.947C1098.58 254.61 1107.09 244.704 1109.8 243.021Z" fill="#FF61B0"/>
<path opacity="0.3" d="M204.003 192.269C209.942 196.988 239.352 221.244 239.352 221.244C239.352 221.244 264.52 244.168 270.495 250.895C272.723 253.403 274.85 255.797 277.078 258.306C277.787 259.104 281.069 262.307 281.069 262.307L217.065 320.588L165.249 368.245L105.081 427.401C105.081 427.401 78.1795 407.444 67.8175 400.943C59.3617 395.604 37.4489 378.558 33.717 376.57C29.6603 374.463 1.6153 357.153 1.6153 357.153C1.6153 357.153 28.9895 331.41 37.4144 323.926C61.5903 302.451 85.8884 280.868 110.064 259.394C130.211 241.498 150.235 223.711 170.382 205.816C175.266 201.477 194.355 184.113 194.355 184.113C194.355 184.113 198.064 187.55 204.003 192.269Z" fill="#7DC5E4"/>
<path opacity="0.3" d="M1286.85 467.168C1285.05 470.002 1279.15 464.594 1276.05 463.45C1275.31 463.15 1273.07 462.566 1273.07 462.566C1273.07 462.566 1273.41 460.116 1273.54 458.984C1273.88 454.695 1273.98 450.425 1273.82 446.042C1273.55 438.167 1272.19 430.065 1268.18 423.161C1263.15 414.544 1253.83 408.51 1243.79 407.469C1237.9 406.815 1231.98 407.87 1226.16 409.185C1220.6 410.389 1215.12 411.946 1210.02 414.415C1204.72 417.125 1200.08 420.858 1195.55 424.852C1194.54 425.74 1193.83 427.501 1193.83 427.501C1193.83 427.501 1190.27 426.707 1189.27 426.518C1176.54 423.312 1163.82 420.107 1151 416.864C1149.21 416.467 1143.58 414.942 1143.58 414.942C1143.58 414.942 1145.29 408.839 1146.28 406.113C1148.59 400.142 1150.9 394.172 1153.39 388.276C1154.89 384.568 1156.52 380.804 1158.63 377.451C1161.13 373.394 1164.53 369.805 1168.09 366.606C1178.74 357.324 1192.17 351.322 1206.22 349.667C1222.05 347.87 1237.98 351.404 1253.06 356.531C1260.54 359.122 1268.04 362.159 1274.1 367.196C1278.52 370.927 1282.13 375.62 1285.38 380.386C1289.83 386.717 1294.03 393.381 1296.07 400.891C1297.95 407.694 1297.85 414.88 1297.6 421.899C1297.15 437.681 1295.4 454.016 1286.85 467.168Z" fill="#C075E3"/>
</g>
</svg>
