<svg width="52" height="52" viewBox="0 0 52 52" fill="white" xmlns="http://www.w3.org/2000/svg">
<g clip-path="url(#clip0_571_390)">
<path d="M51 26C51 12.1929 39.8071 1 26 1C12.1929 1 1 12.1929 1 26C1 39.8071 12.1929 51 26 51C39.8071 51 51 39.8071 51 26Z" fill="white" stroke="white" stroke-width="2" stroke-linecap="round" stroke-linejoin="round"/>
<path d="M20.7376 14C16.464 14 13 17.333 13 23.3966C13 29.4603 20.2221 32.2362 26.4117 38.5C32.6013 32.2362 39.8554 29.5349 39.8554 23.3966C39.8554 17.26 36.3913 14 32.1177 14C29.8659 14 27.826 15.8928 26.4117 17.7585C24.9988 15.9047 22.9838 14 20.7376 14Z" fill="#F85858" stroke="#F85858" stroke-width="2" stroke-linecap="round" stroke-linejoin="round"/>
</g>
<defs>
<clipPath id="clip0_571_390">
<rect width="52" height="52" fill="white"/>
</clipPath>
</defs>
</svg>
