<svg width="40" height="12" viewBox="0 0 40 12" fill="none" xmlns="http://www.w3.org/2000/svg">
<path d="M13.9706 6.94848C13.9706 6.94848 16.0274 6.70013 17.446 6.33726C18.8645 5.97439 19.568 5.71801 19.8699 5.6014C20.0262 5.53796 20.963 5.0408 21.0727 4.93454C21.3452 4.67062 21.6746 4.4101 21.8865 4.1462C22.1867 3.76749 22.0984 3.35467 21.8217 2.9779C21.6636 2.76468 21.4948 2.56174 21.1729 2.36058C21.0621 2.2921 20.0654 1.83595 19.78 1.76068C19.5552 1.69996 19.0056 1.52886 18.5563 1.43653C18.1069 1.3442 17.5006 1.21338 17.5006 1.21338C17.5006 1.21338 16.0316 1.49318 15.4308 1.65017C14.8265 1.81058 13.2189 2.13669 12.0939 2.72814C10.9725 3.31617 10.5364 3.60671 10.3312 3.80551C10.0835 4.04544 10.1705 4.26896 10.1436 4.5148C10.1197 4.66985 10.0709 4.81976 10.1075 4.97478C10.1334 5.11096 10.1913 5.24542 10.2456 5.3833C10.3292 5.62481 10.7974 5.87474 11.344 6.13663C11.8907 6.39852 12.2083 6.50119 12.6473 6.63292C13.0862 6.76466 13.9706 6.94848 13.9706 6.94848Z" fill="#AAAAAA"/>
<path d="M18.52 5.68512C19.2389 5.64381 20.7901 5.589 21.0493 5.58674C21.9511 5.5798 22.8096 5.60873 23.7049 5.64322C25.2859 5.70478 26.9469 5.82137 28.3444 6.01548C29.3174 6.15138 30.2383 6.31328 31.1913 6.46304C31.575 6.52333 33.2301 6.90242 33.4291 6.95918C33.7901 7.06689 34.5703 7.31263 35.5345 7.75713C36.4989 8.20175 36.7995 8.75427 36.7995 8.75427C36.7995 8.75427 35.7799 8.89551 35.1137 8.95224C34.4475 9.00896 33.9361 9.04762 32.7198 9.08584C31.5034 9.12407 30.3598 9.14859 29.3774 9.08767C28.8144 9.05441 28.2639 9.02303 27.7171 8.98382C27.0921 8.94084 26.5155 8.87973 25.9105 8.8229C24.9476 8.7353 24.035 8.6809 23.1686 8.54477C22.4508 8.43196 21.4467 8.2363 19.494 7.78507C17.9392 7.42649 17.1409 7.05366 16.6605 6.8189L1.80785 8.53019L0 7.61746L18.2018 5.55395L18.52 5.68512Z" fill="#AAAAAA"/>
</svg>
