<svg width="79" height="78" viewBox="0 0 79 78" fill="none" xmlns="http://www.w3.org/2000/svg">
<g clip-path="url(#clip0_596_7)">
<path d="M41.1377 34.5956L33.3112 33.1534L22.9144 70.8695L30.8011 73.0081L41.1377 34.5956Z" fill="#69C9A0"/>
<path d="M74.5633 10.4802C74.5633 10.4802 70.2916 9.04899 66.2393 9.16104C62.187 9.2731 59.7362 9.7672 58.6464 10.0169C58.0644 10.1639 53.9015 11.7152 53.1367 12.1725C51.237 13.3083 49.2784 14.3454 47.4624 15.5652C44.8618 17.321 42.6002 19.8119 40.8068 22.3577C39.7941 23.8005 38.8553 25.1991 38.138 26.8001C37.8956 27.3469 36.6373 31.3478 36.5966 32.1759C36.5562 32.8364 36.3267 34.5811 36.4137 35.7348C36.5006 36.8885 36.5819 38.4808 36.5819 38.4808C36.5819 38.4808 40.2242 38.9153 41.9596 38.849C43.7196 38.7679 47.8204 39.1292 52.7873 37.2981C57.7296 35.4818 60.0087 34.4205 61.4396 33.565C63.1666 32.5324 64.337 31.1293 65.7934 29.7562C66.7215 28.8999 67.6544 28.1076 68.4988 27.1674C69.2494 26.3502 69.9457 25.4985 70.6668 24.632C71.9459 23.1305 72.7428 21.0465 73.5005 18.785C74.2582 16.5234 74.4126 15.4934 74.5675 14.1281C74.7225 12.7629 74.5633 10.4802 74.5633 10.4802Z" fill="#F47EDE"/>
<path d="M34.8838 44.0323C34.8838 44.0323 36.0338 39.7081 35.668 35.6986C35.3021 31.689 34.6583 29.2909 34.3422 28.2263C34.16 27.6588 32.3606 23.63 31.8592 22.9007C30.614 21.0892 29.4628 19.213 28.1397 17.4897C26.2358 15.0224 23.6246 12.9373 20.9885 11.3198C19.4947 10.4066 18.0494 9.56401 16.4174 8.95372C15.8602 8.74784 11.8154 7.75218 10.992 7.76389C10.3348 7.76532 8.59098 7.64757 7.45295 7.80629C6.31491 7.96502 4.74166 8.14576 4.74166 8.14576C4.74166 8.14576 4.53999 11.7833 4.71485 13.4992C4.90588 15.2386 4.80563 19.326 6.93286 24.1341C9.04393 28.9187 10.2391 31.111 11.1771 32.4755C12.3092 34.1223 13.7735 35.1943 15.2261 36.5515C16.1332 37.4176 16.9771 38.2925 17.9622 39.0703C18.8194 39.7629 19.7074 40.3996 20.6116 41.0598C22.1803 42.2332 24.2961 42.8921 26.5853 43.5009C28.8746 44.1098 29.9053 44.1981 31.2682 44.2658C32.6312 44.3335 34.8838 44.0323 34.8838 44.0323Z" fill="#FFA8B5"/>
</g>
<defs>
<clipPath id="clip0_596_7">
<rect width="78" height="77" fill="white" transform="translate(0.514648 0.192749)"/>
</clipPath>
</defs>
</svg>
