<svg width="40" height="40" viewBox="0 0 40 40" fill="none" xmlns="http://www.w3.org/2000/svg">
<g clip-path="url(#clip0_2073_496)">
<path d="M37.1292 20.2276C37.1008 20.2415 37.0737 20.2323 37.0469 20.2158C37.0275 20.2037 37.0086 20.1955 36.9957 20.2225C36.9253 20.3663 36.8524 20.5091 36.7851 20.6545C36.6338 20.9809 36.4868 21.3094 36.3351 21.6354C36.3022 21.7055 36.2762 21.777 36.2726 21.857C36.0174 22.032 35.8366 22.2916 35.577 22.4611C35.4972 22.446 35.4617 22.5066 35.4173 22.5485C35.1702 22.7794 34.9252 23.0117 34.6789 23.2435C34.5716 23.3449 34.4639 23.4466 34.3562 23.5475C34.2793 23.6193 34.2037 23.6916 34.109 23.7437C34.0423 23.7806 33.9905 23.8425 33.9343 23.8956C32.1867 25.5423 30.439 27.189 28.6914 28.8358C28.5947 28.9271 28.5023 29.0231 28.3817 29.0884C28.3205 29.121 28.2751 29.1795 28.224 29.2278C26.451 30.8985 24.678 32.57 22.9042 34.2406C22.8277 34.3128 22.7591 34.3942 22.6578 34.4368C22.5949 34.4632 22.5679 34.5235 22.5461 34.585C22.4592 34.7131 22.3102 34.7957 22.2847 34.9684C22.1656 34.8948 22.1652 34.8944 22.0967 34.9539C22.0595 34.9864 22.0244 35.0213 21.9885 35.0543C21.5783 35.441 21.1686 35.8272 20.7584 36.2139C20.7174 36.2526 20.6773 36.2922 20.6346 36.3291C20.5703 36.3846 20.5567 36.3871 20.4824 36.3355C20.364 36.2534 20.2482 36.1671 20.1315 36.0817C19.825 35.8572 19.514 35.6388 19.2134 35.4053C18.8286 35.1062 18.4282 34.8305 18.0412 34.536C17.6599 34.2458 17.2714 33.9666 16.8859 33.682C16.458 33.3662 16.0347 33.0434 15.6114 32.7206C15.5621 32.6828 15.5135 32.6931 15.4645 32.6828C15.2499 32.5394 15.0462 32.3796 14.8375 32.2272C14.783 32.1873 14.7235 32.1488 14.7092 32.0745C14.541 31.9438 14.3757 31.8103 14.2049 31.6829C13.8453 31.4148 13.4836 31.1504 13.1231 30.8839C12.8417 30.6766 12.5599 30.4697 12.2794 30.2608C11.9016 29.9793 11.5255 29.6955 11.1477 29.414C10.9951 29.3008 10.8412 29.1887 10.6857 29.0799C10.5963 29.0174 10.5191 28.9442 10.4619 28.8531C10.1911 28.4218 9.92379 27.9891 9.65347 27.5574C9.35953 27.0872 9.06346 26.6181 8.76952 26.1479C8.60855 25.8903 8.44927 25.6312 8.2883 25.3736C7.91345 24.7746 7.53605 24.1771 7.16247 23.5778C6.89695 23.152 6.63653 22.724 6.37313 22.2971C6.17361 21.9743 5.97367 21.6509 5.77161 21.3296C5.73925 21.2784 5.69415 21.2349 5.65501 21.1884C5.52146 21.0589 5.42989 20.9019 5.34724 20.7399C5.32087 20.6883 5.30773 20.6346 5.3044 20.5786C5.14652 20.3286 4.98695 20.0793 4.82993 19.8285C4.56836 19.4103 4.30848 18.9905 4.04649 18.5727C3.65588 17.9485 3.26273 17.3259 2.87212 16.7009C2.68272 16.398 2.498 16.0934 2.30988 15.7902C2.274 15.7319 2.22579 15.6791 2.19972 15.6185C2.17012 15.55 2.11562 15.5693 2.07088 15.5515C1.92815 15.2515 1.73701 14.9781 1.5582 14.6983C1.55377 14.5929 1.51315 14.5009 1.45329 14.4096C1.28723 14.1551 1.12668 13.8971 0.96443 13.6399C0.952615 13.6207 0.942487 13.5998 0.933652 13.5794C0.91204 13.532 0.91541 13.4967 0.966007 13.4732C1.08804 13.4171 1.20786 13.356 1.32902 13.2981C1.55857 13.1882 1.78855 13.0788 2.01855 12.9702C2.05596 12.9523 2.07101 12.9267 2.06103 12.8848C2.3368 12.7756 2.59101 12.6233 2.87424 12.5279C2.92657 12.5376 2.97178 12.5262 3.01853 12.5038C3.39989 12.3244 3.78344 12.1499 4.16524 11.9718C4.38803 11.8683 4.60951 11.7626 4.83098 11.656C4.91302 11.6167 5.00161 11.5869 5.06311 11.5158C5.3077 11.3482 5.57162 11.2172 5.86277 11.1378C5.99479 11.1235 6.10252 11.0539 6.21777 11.0024C6.36619 10.9361 6.5133 10.8676 6.65953 10.7973C6.69694 10.7793 6.72906 10.7507 6.76383 10.7274C6.90908 10.5537 7.13512 10.5002 7.32724 10.4065C7.57929 10.284 7.83347 10.1604 8.09559 10.0546C8.13711 10.0866 8.17383 10.0815 8.2172 10.0614C8.46676 9.94393 8.71896 9.83177 8.96853 9.71514C9.19939 9.60748 9.4294 9.49976 9.6572 9.38717C9.76303 9.33502 9.85522 9.34968 9.96561 9.41237C10.5585 9.74972 11.1548 10.0804 11.7506 10.4116C12.0218 10.5624 12.2955 10.7091 12.5671 10.8603C12.6163 10.8878 12.6607 10.9111 12.7081 10.8741C13.0083 11.0549 13.309 11.2335 13.6288 11.3732C13.6688 11.4476 13.7192 11.5035 13.7985 11.5468C14.4835 11.9207 15.166 12.2995 15.8476 12.6792C16.1985 12.8746 16.5462 13.0767 16.8971 13.2722C17.5593 13.6406 18.2228 14.007 18.8859 14.3737C18.9126 14.3885 18.9398 14.402 18.9661 14.4163C19.0031 14.436 19.0391 14.4351 19.0669 14.4088C19.1079 14.3701 19.1515 14.3324 19.1829 14.2862C19.339 14.0604 19.509 13.8468 19.6806 13.6333C19.8212 13.4588 19.9465 13.2717 20.081 13.0916C20.1566 12.9906 20.2366 12.8924 20.314 12.7924C20.5317 12.5084 20.7482 12.2238 20.9664 11.9403C21.0479 11.8346 21.1312 11.7306 21.2132 11.6253C21.4197 11.359 21.6262 11.0935 21.8313 10.8266C21.9125 10.7213 21.9858 10.6085 22.0695 10.5059C22.3081 10.2118 22.5376 9.91059 22.7615 9.60429C22.906 9.40604 23.0673 9.22056 23.2205 9.02807C23.2815 8.95132 23.3394 8.87135 23.3969 8.79177C23.4217 8.75792 23.4003 8.72253 23.384 8.68835C23.6711 8.31446 23.9751 7.9542 24.2428 7.56478C24.2876 7.55465 24.3349 7.57085 24.3709 7.51678C24.4733 7.36617 24.5873 7.22453 24.7 7.08152C24.851 6.88845 25.0015 6.69492 25.1581 6.50696C25.2255 6.42594 25.2786 6.3349 25.3459 6.25388C25.5337 6.02866 25.7098 5.79275 25.8871 5.55823C26.0267 5.37422 26.1575 5.18359 26.2984 5.0001C26.4472 4.80559 26.6038 4.61678 26.7556 4.42462C26.8078 4.35882 26.8548 4.28923 26.906 4.22251C26.9788 4.12857 27.042 4.02709 27.1255 3.94035C27.1774 3.88611 27.2076 3.80975 27.2254 3.73209C27.3659 3.49153 27.5712 3.29757 27.6913 3.04229C27.7415 3.08271 27.7904 3.08616 27.8222 3.0335C27.877 2.94173 27.9508 2.86674 28.0156 2.78381C28.1577 2.6017 28.2938 2.41401 28.4316 2.22816C28.4623 2.187 28.5025 2.19071 28.5481 2.20507C28.7552 2.26858 28.9631 2.32957 29.1706 2.3944C29.6631 2.54753 30.1559 2.70197 30.6484 2.85595C31.2336 3.03879 31.8189 3.22249 32.405 3.40367C33.0052 3.58885 33.6063 3.7698 34.207 3.95458C34.5499 4.06027 34.8928 4.16768 35.2348 4.2776C35.3139 4.30291 35.3918 4.33113 35.4718 4.3059C35.7743 4.33153 35.9232 4.52304 35.992 4.79981C35.9647 4.83348 35.9442 4.87107 35.956 4.91908C35.9646 4.95528 35.9762 4.99127 35.9879 5.02726C36.1665 5.57856 36.3465 6.12866 36.5238 6.6803C36.758 7.4105 36.9905 8.14144 37.2229 8.87239C37.307 9.13737 37.3893 9.40309 37.4738 9.66768C37.7134 10.4197 37.9598 11.1705 38.1918 11.9246C38.2867 12.2332 38.3897 12.5403 38.488 12.8483C38.7258 13.5933 38.9623 14.3387 39.2035 15.0823C39.2527 15.2342 39.2442 15.3622 39.1767 15.5007C38.9454 15.9793 38.7291 16.4663 38.5063 16.9498C38.3696 17.246 38.2307 17.5415 38.0931 17.8376C37.8305 18.4041 37.5682 18.971 37.306 19.538C37.2968 19.557 37.2872 19.5774 37.2858 19.5987C37.2829 19.6354 37.3168 19.6442 37.3423 19.6585C37.3718 19.7888 37.2663 19.8607 37.2253 19.9577C37.1806 20.0434 37.1467 20.131 37.1292 20.2276Z" fill="#FFCFE0"/>
</g>
<defs>
<clipPath id="clip0_2073_496">
<rect width="40" height="40" fill="white"/>
</clipPath>
</defs>
</svg>
