<svg width="61" height="47" viewBox="0 0 61 47" fill="none" xmlns="http://www.w3.org/2000/svg">
<path d="M0.600098 13.8814C0.600098 13.8814 1.26384 41.3163 0.600199 47L60.6001 46.4626V4.92772C52.7793 4.92772 45.9786 3.63537 38.6765 2.84186C35.1924 2.51395 31.7083 1.85814 28.2242 1.96744C25.1549 1.96744 22.0025 2.07674 18.9332 1.85814C14.8684 1.53023 1.26373 0 1.26373 0L0.931939 4.4814C0.931939 4.4814 0.600098 10.493 0.600098 13.8814Z" fill="#D2ECFF" fill-opacity="0.5"/>
<path d="M28.42 13.88L30.78 14.72C30.1933 15.68 29.5133 16.6133 28.74 17.52C27.9667 18.4267 27.1467 19.26 26.28 20.02C25.4267 20.78 24.5667 21.4467 23.7 22.02C23.5533 21.8467 23.36 21.6533 23.12 21.44C22.88 21.2133 22.64 20.9933 22.4 20.78C22.16 20.5667 21.9467 20.4 21.76 20.28C22.64 19.8 23.4933 19.2267 24.32 18.56C25.16 17.8933 25.9333 17.16 26.64 16.36C27.3467 15.56 27.94 14.7333 28.42 13.88ZM34.98 15.72H35.46L35.88 15.6L37.56 16.58C36.8933 17.9933 36.04 19.26 35 20.38C33.96 21.4867 32.78 22.46 31.46 23.3C30.1533 24.1267 28.7467 24.84 27.24 25.44C25.7467 26.0267 24.2067 26.5067 22.62 26.88C22.54 26.6533 22.4333 26.4067 22.3 26.14C22.1667 25.8733 22.02 25.6067 21.86 25.34C21.7133 25.0733 21.56 24.8533 21.4 24.68C22.8667 24.4 24.3 24.0067 25.7 23.5C27.1 22.9933 28.4067 22.38 29.62 21.66C30.8333 20.94 31.9 20.1133 32.82 19.18C33.74 18.2467 34.46 17.2133 34.98 16.08V15.72ZM27.74 17.34C28.34 18.1667 29.0867 18.94 29.98 19.66C30.8867 20.3667 31.9 21.0067 33.02 21.58C34.14 22.14 35.3467 22.6333 36.64 23.06C37.9333 23.4867 39.2733 23.8267 40.66 24.08C40.4867 24.2533 40.3 24.4733 40.1 24.74C39.9133 24.9933 39.7267 25.26 39.54 25.54C39.3667 25.8067 39.2267 26.0533 39.12 26.28C37.6933 25.9867 36.3267 25.6 35.02 25.12C33.7267 24.6267 32.5 24.0467 31.34 23.38C30.1933 22.7 29.14 21.9467 28.18 21.12C27.22 20.28 26.36 19.36 25.6 18.36L27.74 17.34ZM27.86 26.36L29.16 24.6C29.8267 24.76 30.52 24.9667 31.24 25.22C31.96 25.46 32.6467 25.7133 33.3 25.98C33.9667 26.2467 34.54 26.5067 35.02 26.76L33.7 28.68C33.2333 28.4 32.6667 28.12 32 27.84C31.3467 27.5467 30.66 27.2733 29.94 27.02C29.22 26.7533 28.5267 26.5333 27.86 26.36ZM24.56 30.42L25.98 28.34C26.9133 28.46 27.8733 28.6067 28.86 28.78C29.86 28.9533 30.8533 29.1467 31.84 29.36C32.8267 29.56 33.7667 29.7733 34.66 30C35.5533 30.2267 36.3667 30.4533 37.1 30.68L35.74 32.96C35.06 32.72 34.2733 32.4733 33.38 32.22C32.4867 31.98 31.54 31.7467 30.54 31.52C29.54 31.3067 28.5267 31.1067 27.5 30.92C26.4867 30.72 25.5067 30.5533 24.56 30.42ZM28.32 15.72L35.44 15.72V17.86L26.84 17.86L28.32 15.72Z" fill="#7DC5E4"/>
</svg>
