<svg width="61" height="47" viewBox="0 0 61 47" fill="none" xmlns="http://www.w3.org/2000/svg">
<path d="M0.600098 13.8814C0.600098 13.8814 1.26384 41.3163 0.600199 47L60.6001 46.4626V4.92772C52.7793 4.92772 45.9786 3.63537 38.6765 2.84186C35.1924 2.51395 31.7083 1.85814 28.2242 1.96744C25.1549 1.96744 22.0025 2.07674 18.9332 1.85814C14.8684 1.53023 1.26373 0 1.26373 0L0.931939 4.4814C0.931939 4.4814 0.600098 10.493 0.600098 13.8814Z" fill="#D6F6DC" fill-opacity="0.5"/>
<path d="M22.42 14.8L39.6 14.8V16.74L22.42 16.74V14.8ZM27.92 26.88C28.6533 27.7067 29.6333 28.3867 30.86 28.92C32.1 29.4533 33.54 29.86 35.18 30.14C36.82 30.42 38.6133 30.5933 40.56 30.66C40.32 30.9267 40.0733 31.2667 39.82 31.68C39.58 32.1067 39.38 32.48 39.22 32.8C37.22 32.6667 35.38 32.4 33.7 32C32.0333 31.6133 30.5467 31.0667 29.24 30.36C27.9467 29.64 26.8467 28.7267 25.94 27.62L27.92 26.88ZM34.78 25.96H35.26L35.66 25.86L37.18 26.8C36.4867 27.8 35.62 28.6533 34.58 29.36C33.54 30.0667 32.3667 30.6467 31.06 31.1C29.7533 31.5533 28.3667 31.9133 26.9 32.18C25.4467 32.4467 23.9533 32.6533 22.42 32.8C22.34 32.5067 22.2133 32.1733 22.04 31.8C21.88 31.44 21.7133 31.1333 21.54 30.88C22.94 30.8 24.3133 30.66 25.66 30.46C27.02 30.26 28.2933 29.98 29.48 29.62C30.6667 29.2467 31.7133 28.7867 32.62 28.24C33.54 27.68 34.26 27.02 34.78 26.26V25.96ZM28.06 24.52L30.44 25C29.6133 26 28.6067 26.8733 27.42 27.62C26.2467 28.3667 24.8133 29.0267 23.12 29.6C23.0267 29.4133 22.9 29.2133 22.74 29C22.58 28.7733 22.4067 28.56 22.22 28.36C22.0467 28.16 21.88 28.0067 21.72 27.9C23.2933 27.4867 24.6067 26.9867 25.66 26.4C26.7133 25.8133 27.5133 25.1867 28.06 24.52ZM29.62 15.84L32.42 15.78C32.2733 16.3133 32.1133 16.8 31.94 17.24C31.7667 17.68 31.6067 18.0733 31.46 18.42L29.2 18.28C29.28 17.9067 29.36 17.5 29.44 17.06C29.5333 16.6067 29.5933 16.2 29.62 15.84ZM26.5 20.96V21.74H35.46V20.96H26.5ZM26.5 23.08L26.5 23.88H35.46V23.08H26.5ZM26.5 18.84V19.62H35.46V18.84H26.5ZM24.18 17.5L37.9 17.5V25.22L24.18 25.22L24.18 17.5ZM28.22 25.96H35.64V27.58L26.6 27.58L28.22 25.96Z" fill="#69C9A0"/>
</svg>
