<svg width="285" height="257" viewBox="0 0 285 257" fill="none" xmlns="http://www.w3.org/2000/svg">
<g clip-path="url(#clip0_581_483)">
<path d="M81.6632 12.6009C75.7241 17.3197 46.3143 41.5759 46.3143 41.5759C46.3143 41.5759 21.1458 64.5002 15.1708 71.2268C12.9428 73.7351 10.8161 76.1293 8.58813 78.6375C7.87923 79.4356 4.59685 82.639 4.59685 82.639L68.6013 140.92L120.416 188.577L180.585 247.733C180.585 247.733 207.486 227.776 217.848 221.275C226.304 215.936 248.217 198.89 251.949 196.902C256.006 194.794 284.051 177.485 284.051 177.485C284.051 177.485 256.676 151.741 248.251 144.258C224.076 122.783 199.778 101.2 175.602 79.7256C155.455 61.8301 135.431 44.0431 115.284 26.1476C110.4 21.8093 91.3105 4.445 91.3105 4.445C91.3105 4.445 87.6023 7.88199 81.6632 12.6009Z" fill="#7DC5E4"/>
</g>
<defs>
<clipPath id="clip0_581_483">
<rect width="284" height="257" fill="white" transform="translate(0.961914)"/>
</clipPath>
</defs>
</svg>
