<svg width="191" height="141" viewBox="0 0 191 141" fill="none" xmlns="http://www.w3.org/2000/svg">
<g clip-path="url(#clip0_581_481)">
<path d="M14.4433 54.0603C14.4433 54.0603 50.3529 117.864 52.479 122.677C53.3032 124.523 58.583 134.085 58.583 134.085C58.583 134.085 63.8308 130.969 66.3821 129.575C72.8563 126.15 112.137 104.607 125.207 97.2034C132.723 92.9936 188.367 61.5864 188.367 61.5864L158.302 45.5534L120.828 25.3548L81.4986 2.06877L72.1828 7.54756C72.1828 7.54756 56.2852 16.2832 47.6809 20.8326C43.9804 22.8415 40.1183 24.5976 36.6331 26.9436C33.5154 28.936 30.3672 31.0666 27.1418 32.8906C22.8514 35.2764 8.27841 42.9282 8.27841 42.9282L10.1492 46.5983C10.1492 46.5983 12.7739 51.4482 14.4433 54.0603Z" fill="#FF8457"/>
</g>
<defs>
<clipPath id="clip0_581_481">
<rect width="191" height="140" fill="white" transform="translate(0 0.5)"/>
</clipPath>
</defs>
</svg>
