<svg width="178" height="132" viewBox="0 0 178 132" fill="none" xmlns="http://www.w3.org/2000/svg">
<g clip-path="url(#clip0_581_477)">
<path d="M26.8174 126.727C28.6109 129.561 34.514 124.153 37.6108 123.009C38.3524 122.709 40.5971 122.124 40.5971 122.124C40.5971 122.124 40.2535 119.675 40.1192 118.542C39.7872 114.254 39.678 109.983 39.847 105.6C40.1141 97.7257 41.4759 89.6242 45.4791 82.7196C50.5158 74.1026 59.8333 68.069 69.8755 67.0279C75.7596 66.3741 81.6874 67.4285 87.5047 68.7434C93.0616 69.9478 98.5456 71.5053 103.643 73.9741C108.946 76.6837 113.584 80.417 118.112 84.4108C119.118 85.2983 119.83 87.0597 119.83 87.0597C119.83 87.0597 123.392 86.2662 124.394 86.0767C137.121 82.8713 149.848 79.6659 162.667 76.423C164.448 76.0262 170.087 74.5005 170.087 74.5005C170.087 74.5005 168.374 68.3977 167.38 65.6717C165.073 59.7011 162.766 53.7304 160.274 47.8348C158.774 44.1266 157.144 40.3632 155.033 37.0101C152.529 32.9529 149.136 29.3633 145.577 26.1644C134.919 16.8831 121.489 10.8806 107.444 9.22577C91.616 7.4292 75.6782 10.9625 60.6006 16.0896C53.1269 18.6807 45.6178 21.7177 39.5647 26.7546C35.1408 30.4854 31.5376 35.1787 28.2875 39.9449C23.8364 46.2756 19.628 52.9396 17.5954 60.4495C15.7087 67.2532 15.8104 74.4393 16.06 81.4577C16.5102 97.2402 18.2623 113.575 26.8174 126.727Z" fill="#C075E3"/>
</g>
<defs>
<clipPath id="clip0_581_477">
<rect width="178" height="132" fill="white"/>
</clipPath>
</defs>
</svg>
