<svg width="126" height="154" viewBox="0 0 126 154" fill="none" xmlns="http://www.w3.org/2000/svg">
<g clip-path="url(#clip0_581_482)">
<path d="M29.8308 51.9089C32.3156 49.5516 34.7869 47.1774 37.2848 44.8236C41.2119 41.1291 45.1593 37.4599 49.0666 33.7535C53.8338 29.2271 58.5538 24.6414 63.3209 20.115C64.6741 18.8347 66.1474 17.6799 67.5136 16.4031C70.2464 13.8629 72.9792 11.3228 75.6249 8.68595C76.3764 7.9381 77.1509 7.55847 78.3725 7.8598C82.6056 8.90665 86.8379 9.92648 91.0703 10.9463C91.5143 11.0497 91.9789 11.1921 92.4005 11.1891C94.9692 11.1675 96.8199 12.6403 98.5571 15.1697C102.335 20.6639 106.279 26.0541 110.185 31.4746C113.626 36.2563 117.042 41.0581 120.584 45.7727C121.77 47.3589 122.035 48.5016 121.393 49.9356C117.726 58.118 114.237 66.4212 110.524 74.5713C103.226 90.5901 95.7747 106.495 88.4826 122.509C85.7115 128.6 83.2053 134.881 81.0884 141.406C80.9633 141.809 80.812 142.205 80.6999 142.612C80.4766 143.452 79.9451 143.708 79.0025 143.406C75.867 142.4 72.7401 141.47 69.611 140.458C60.3348 137.461 51.0523 134.468 41.7747 131.417C36.5367 129.689 37.8564 130.728 34.2242 125.352C26.8241 114.392 20.705 102.829 14.1825 91.4626C12.3763 88.3115 10.5507 85.162 8.66118 82.0493C7.60068 80.2949 6.77616 78.6294 7.60087 77.0088C7.68677 76.8303 7.74542 76.6043 7.74581 76.3831C7.77144 72.8422 9.45034 70.6685 11.6938 68.7373C15.4077 65.5433 18.7993 61.9559 22.4124 58.6347C24.8807 56.3871 27.4696 54.2786 29.8308 51.9089Z" fill="#D4E1EB"/>
</g>
<defs>
<clipPath id="clip0_581_482">
<rect width="126" height="153" fill="white" transform="translate(0 0.5)"/>
</clipPath>
</defs>
</svg>
