<svg width="150" height="150" viewBox="0 0 150 150" fill="none" xmlns="http://www.w3.org/2000/svg">
<path d="M82.6169 6.354C82.6169 6.354 72.2429 18.6907 71.4018 19.8122C69.2522 22.8029 48.5043 47.6631 39.4387 55.981C30.3731 64.2989 12.8027 80.6543 12.8027 80.6543C12.8027 80.6543 28.7843 96.9162 37.5695 108.879C46.2612 120.842 62.897 143.646 62.897 143.646C62.897 143.646 117.758 88.9722 119.627 87.0095C123.926 82.43 127.571 77.0094 131.403 71.8691C132.337 70.5607 137.197 65.9812 137.197 65.9812C137.197 65.9812 130.281 59.8128 128.693 58.3175C125.328 55.1398 109.066 37.1956 107.851 35.0461C106.169 32.1488 98.0378 22.9898 95.7013 20.2795C93.8321 17.943 85.3273 8.03627 82.6169 6.354Z" fill="#FF61B0"/>
</svg>
