<svg width="38" height="30" viewBox="0 0 38 30" fill="none" xmlns="http://www.w3.org/2000/svg">
<g clip-path="url(#clip0_661_445)">
<path d="M33.8355 3.71971C28.1848 5.58629 14.0248 3.05649 7.65107 1.55827L2.98197 11.1155L18.8423 27.2431L35.7314 7.69834L33.8355 3.71971Z" fill="#FFE2D2"/>
<mask id="mask0_661_445" style="mask-type:alpha" maskUnits="userSpaceOnUse" x="2" y="1" width="34" height="27">
<path d="M33.8355 3.71971C28.1848 5.58629 14.0248 3.05649 7.65107 1.55827L2.98197 11.1155L18.8423 27.2431L35.7314 7.69834L33.8355 3.71971Z" fill="#FFE2D2"/>
</mask>
<g mask="url(#mask0_661_445)">
<path d="M46.9911 -4.21206C47.246 -4.00107 47.5009 -3.79008 43.76 1.2571C40.019 6.30427 32.2744 16.1812 27.7995 21.207C23.3245 26.2328 22.3538 26.1081 21.7181 25.8185C18.0105 24.1293 22.503 12.8104 28.773 2.47391C30.0744 0.328435 30.8352 -0.418876 31.3306 -0.368722C31.826 -0.318568 32.1301 0.611646 32.0335 1.78609C31.5029 8.23659 24.4906 14.5924 18.9456 18.8115C15.4324 21.4845 11.9358 21.3795 10.6272 20.8689C9.99286 20.6214 9.65187 19.9555 9.41371 19.1895C7.98545 14.5955 15.6192 4.86511 20.0555 0.0197916C20.668 -0.649232 21.213 -0.85586 21.6498 -0.73088C22.0865 -0.6059 22.4853 -0.0496771 22.4931 0.864977C22.5367 6.00709 14.4302 12.8605 6.75275 18.9956C3.55985 21.5471 0.56089 22.0145 -1.05792 22.2719C-1.84544 22.3971 -2.582 22.1552 -3.09478 21.8508C-3.60757 21.5464 -3.87888 21.0957 -3.99582 20.3169C-4.6985 15.637 2.87972 5.31661 9.34478 -1.06789C10.2849 -1.99626 11.2887 -1.98157 12.1444 -1.96569C13.0001 -1.94981 13.8597 -1.69084 14.1522 -1.11632C16.1027 2.71457 5.61458 10.1436 -1.54011 14.9943C-4.61639 17.0799 -7.40204 17.4807 -8.9653 17.671C-9.70303 17.7608 -10.3227 17.353 -10.4613 16.3369C-11.3543 9.79077 -4.25956 3.45235 1.38815 -1.02443C2.45096 -1.86689 3.17891 -1.61934 3.17343 -0.952127C3.1568 1.07342 0.547689 3.93499 -3.20443 7.43067C-15.0094 14.3654 -20.5024 16.009 -21.8336 16.0486C-22.4491 16.002 -22.9426 15.8197 -24.5107 16.1259" stroke="#FFA8B5" stroke-width="2" stroke-linecap="round"/>
</g>
</g>
<defs>
<clipPath id="clip0_661_445">
<rect width="38" height="30" fill="white"/>
</clipPath>
</defs>
</svg>
