<svg xmlns="http://www.w3.org/2000/svg" width="250" height="136" fill="none"><g clip-path="url(#a)"><path fill="#fff" d="M0 0h250v135.644H0z"/><path fill="#D2ECFF" fill-opacity=".8" d="M100.99.248H250v135.148h-75.495z"/><path fill="#FF8457" d="m88.414 62.213 1.738-.332q.02 1.24-.145 2.504-.163 1.263-.478 2.444-.3 1.175-.724 2.145a9 9 0 0 0-.54-.148 11 11 0 0 0-.676-.166 4.4 4.4 0 0 0-.583-.09q.474-.907.798-1.968.337-1.068.49-2.183a12.6 12.6 0 0 0 .12-2.206m3.272-1.433 1.49-.775 3.472 6.676q.24.464.433.524.207.053.698-.202l.38-.198.604-.314.633-.329.421-.22q.309-.16.384-.395.066-.249-.097-.735a16 16 0 0 0-.582-1.394q.234.04.539.04.297-.01.602-.044.31-.055.537-.1.492 1.153.611 1.896.132.735-.144 1.2-.268.478-1 .858l-.351.183-.534.278-1.448.753q-.828.43-1.374.482a1.25 1.25 0 0 1-.954-.325q-.425-.368-.848-1.184zm5.32-1.446 1.737.56a19 19 0 0 1-1.072 1.612 44 44 0 0 1-1.264 1.657q-.666.811-1.321 1.544a4.4 4.4 0 0 0-.517-.445 4.6 4.6 0 0 0-.595-.387q.605-.725 1.173-1.521.583-.802 1.073-1.576.484-.787.785-1.444m-13.186 1.84 12.466-6.483.753 1.447-12.466 6.484zm2.569-2.89 1.49-.774 2.09 4.02-1.49.774zm4.624-2.404 1.503-.782 2.113 4.062-1.504.782zm-2.176 9.756.715-2.264.007.014 4.064 7.814-1.49.775z"/><path fill="#64503C" d="m101.451 53.535 12.138-3.051.401 1.597-12.137 3.052zm.434 5.428 13.843-3.48.405 1.614-13.842 3.48zm4.261-8.715 1.721-.433 1.475 5.869-1.72.433zm4.574 4.29 1.705-.43 2.314 9.203-1.705.429zm-6.529 1.64 1.674-.42.699 2.78q.212.846.314 1.767a6.7 6.7 0 0 1-.028 1.837 5.7 5.7 0 0 1-.655 1.88q-.503.926-1.515 1.834a5 5 0 0 0-.446-.345 10 10 0 0 0-.554-.383 6 6 0 0 0-.512-.28q.886-.762 1.332-1.527.44-.78.562-1.53.138-.753.056-1.468a9.4 9.4 0 0 0-.236-1.394zm21.017-8.13 1.853.032-.214 12.402q-.013.808-.243 1.216-.213.408-.723.605-.526.197-1.336.246-.809.05-1.949.014a5 5 0 0 0-.148-.573q-.105-.318-.242-.654a6 6 0 0 0-.276-.559q.554.042 1.076.066l.935.016q.412-.008.586-.005.254.005.35-.09.112-.092.117-.33zm3.746 4.2 1.658-.59q.662 1.121 1.257 2.415.596 1.278 1.034 2.521.454 1.228.643 2.213l-1.866.697a15 15 0 0 0-.564-2.212 28 28 0 0 0-.985-2.568 32 32 0 0 0-1.177-2.476m-7.959-.613 1.927.35q-.29 1.184-.709 2.491a19 19 0 0 1-.961 2.471q-.543 1.178-1.24 2.054a8.352 8.352 0 0 0-1.098-.653 6 6 0 0 0-.534-.262 8.6 8.6 0 0 0 1.19-1.913q.51-1.116.863-2.298a20 20 0 0 0 .562-2.24m18.418 3.855-1.566 5.566-1.54-.433 1.137-4.041-1.602-.45.429-1.526zm-1.386 4.926q.265.93 1.027 1.555.778.63 2 1.024.678.223 1.665.517a151 151 0 0 0 4.195 1.114q1.05.246 1.845.404a6 6 0 0 0-.327.402q-.168.248-.341.512a9 9 0 0 0-.268.485 66 66 0 0 1-1.66-.418 61 61 0 0 1-1.945-.514 64 64 0 0 1-3.571-1.054q-1.401-.459-2.296-1.14a4.15 4.15 0 0 1-1.344-1.776q-.575.35-1.176.673-.59.344-1.27.713l-.341-1.774q.556-.223 1.195-.504.643-.297 1.24-.605zm-.466-10.63 1.509-.449q.308.483.591 1.055.283.574.49 1.126.227.54.303.973l-1.641.51a5.6 5.6 0 0 0-.268-.98 12 12 0 0 0-.45-1.148q-.264-.584-.534-1.088m3.451 1.891 5.169 1.454-.381 1.357-5.17-1.453zm1.31 3.183 2.15.604-.377 1.342-2.151-.604zm1.147-4.664 1.509.425-.776 2.76-1.51-.425zm.439 5.11 1.387.39-.079.224-.103.366a133 133 0 0 1-.827 2.648 34 34 0 0 1-.602 1.789 9 9 0 0 1-.461 1.055q-.188.375-.377.52a1.2 1.2 0 0 1-.484.258q-.232.067-.531.015a4 4 0 0 1-.596-.102l-.732-.205q.07-.31.086-.717a2.5 2.5 0 0 0-.064-.709q.312.12.552.205l.381.107a.7.7 0 0 0 .222.03.46.46 0 0 0 .215-.121q.15-.123.369-.67.22-.546.591-1.693.376-1.161.975-3.116zm3.164-2.418 4.392 1.235-.381 1.358-4.392-1.236zm-2.123 5.327 5.063 1.424-.365 1.296-5.063-1.424zm1.298-2.976 3.461.974-.343 1.22-3.461-.974zm1.635-3.884 1.283.706a14 14 0 0 1-1.437 2.065q-.801.976-1.625 1.567a2.6 2.6 0 0 0-.239-.38 7 7 0 0 0-.313-.467 3 3 0 0 0-.308-.366 6.5 6.5 0 0 0 1.445-1.338q.678-.83 1.194-1.787m-.842 6.33 1.403.394-1.235 4.392q-.137.488-.33.763-.192.274-.606.34a2.2 2.2 0 0 1-.853-.01q-.48-.102-1.121-.283.035-.302.005-.722a4 4 0 0 0-.081-.764q.423.136.804.243l.503.142q.23.064.28-.12zm2.257-1.588.32.09.296.001.689.885q-.62.566-1.401 1.12-.767.558-1.437.896a3.4 3.4 0 0 0-.257-.55 3 3 0 0 0-.293-.477q.516-.315 1.08-.799.584-.494.93-.907zm-7.211-3.443 1.342.378-.767 2.73q-.207.731-.523 1.564a12 12 0 0 1-.744 1.65 9 9 0 0 1-1.02 1.523q-.594.705-1.377 1.21a3.4 3.4 0 0 0-.312-.648 3.7 3.7 0 0 0-.394-.588 5.3 5.3 0 0 0 1.469-1.48q.595-.885.965-1.85t.602-1.79zm13.681 4.433 5.974 3.24-.529.975-5.974-3.24zm3.575-.079 3.718 2.017-.536.988-3.718-2.016zm-5.055 4.701 5.821 3.157-.499.92-5.82-3.157zm4.773-5.809 1.379.748-1.458 2.687-1.379-.747zm-3.864.878 1.225.664-2.069 3.816a39 39 0 0 1-.918 1.593 28 28 0 0 1-1.128 1.713 18 18 0 0 1-1.279 1.595q-.67.736-1.403 1.257a4 4 0 0 0-.141-.437 19 19 0 0 0-.21-.51 3 3 0 0 0-.221-.39 8.5 8.5 0 0 0 1.592-1.606q.747-.946 1.377-1.974t1.105-1.906zm.408 2.636 4.556 1.967-.325.832-4.55-1.945zm5.775.717.167.09.231.072.795.63q-.414.495-.892 1.012a15 15 0 0 1-.836.844l-.967-.777q.302-.323.686-.8.399-.468.733-.918zm-3.992-1.047 1.059.574-.997 1.838q-.113.21-.068.324.053.1.332.252l.223.12.39.212.376.204.264.144q.21.112.324.067.137-.052.317-.351.108.167.313.386.219.227.405.382-.372.52-.735.593-.343.066-.886-.229l-.306-.166-.474-.256-.473-.257-.293-.159q-.543-.294-.796-.558-.24-.256-.223-.553.018-.297.259-.743zm-6.198 7.74q.79.337 1.818.769l2.188.916q1.182.48 2.336.943l-.517 1.053q-1.113-.44-2.239-.89-1.126-.449-2.161-.866a87 87 0 0 1-1.854-.735zm1.994-.92 1.115.37q-.006.376-.084.82-.079.444-.18.732l-1.207-.367q.137-.285.229-.722.093-.437.127-.832m2.781 1.22 1.113.838q-.385.314-.736.593-.327.271-.604.483l-.946-.748q.291-.238.614-.568.33-.343.559-.598m-1.243-2.494-.392.724 2.576 1.398.393-.724zm-.742-1.322 4.887 2.651-1.17 2.159-4.888-2.651zm7.019-1.113 5.746 2.198-.542 1.4-5.733-2.19zm4.79-1.654 1.389.032q.089.498.135 1.046.059.555.071 1.066.01.51-.051.891l-1.482.008q.076-.375.072-.898.01-.518-.028-1.079a9 9 0 0 0-.106-1.066m-1.173 5.22.789 1.203q-1.18 1.18-2.637 2.138a16 16 0 0 1-2.973 1.56q-1.523.615-3.001.715a5.6 5.6 0 0 0-.2-.794 6 6 0 0 0-.314-.783 8.4 8.4 0 0 0 2.186-.31 12 12 0 0 0 2.212-.855q1.096-.558 2.084-1.284a14.7 14.7 0 0 0 1.854-1.59m-.245-6.891 1.378.748a92 92 0 0 0-1.775 3.506 61 61 0 0 0-1.418 3.178 31 31 0 0 0-.952 2.62q-.35 1.143-.403 1.871-.052.729.239.923.173.112.557-.329.383-.44.937-1.33.05.207.147.494.104.273.224.518.141.24.228.376-.787 1.051-1.369 1.528-.583.477-.997.541-.406.086-.685-.065-.681-.405-.843-1.304t.11-2.23.91-3.038a60 60 0 0 1 1.584-3.719q.953-2.023 2.128-4.288M104.703 85.274h.644v2h-.644zm-1.545 1.683h3.822v.614h-3.822zm-.356-1.871h4.148v.604h-3.445v4.09h-.703zm3.822 0h.713v3.91q0 .278-.07.437a.5.5 0 0 1-.267.247 1.6 1.6 0 0 1-.525.09q-.327.018-.802.019a1.6 1.6 0 0 0-.089-.337 2 2 0 0 0-.129-.317q.337.01.624.01h.376q.11 0 .139-.04.03-.029.03-.118zm-7.594-3.91.515-.407q.732.604 1.168 1.238.435.624.653 1.297.219.663.287 1.356.08.684.08 1.396 0 .733-.05 1.386a7 7 0 0 1-.158 1.159q-.109.505-.317.792a.88.88 0 0 1-.594.337q-.267.06-.584.059-.308.01-.644 0 0-.178-.06-.376a1.1 1.1 0 0 0-.158-.347q.386.03.683.02.298 0 .476-.01a.48.48 0 0 0 .336-.188q.129-.178.208-.594.09-.415.119-1 .04-.594.04-1.248 0-.683-.07-1.317a5.7 5.7 0 0 0-.277-1.247 4.8 4.8 0 0 0-.604-1.188 5.3 5.3 0 0 0-1.05-1.119m2 3.078.554.327q-.248.495-.624 1.02t-.802.99a6.4 6.4 0 0 1-.851.772 2 2 0 0 0-.228-.287 2 2 0 0 0-.277-.277 5.4 5.4 0 0 0 .842-.683q.424-.417.792-.901.366-.486.594-.96m.455-3.515.654.327a9.4 9.4 0 0 1-1.238 1.654 11.4 11.4 0 0 1-1.545 1.415.8.8 0 0 0-.148-.148 5 5 0 0 0-.188-.178 1.2 1.2 0 0 0-.178-.149 9.6 9.6 0 0 0 1.95-1.88q.415-.536.693-1.04m3.099-.05h.753v3.516h-.753zm-2.208.744h5.228v.584h-5.228zm.208 1.178h4.822v.564h-4.822zM102 83.858h5.97v.624H102zm13.594 1.416h.644v2h-.644zm-1.544 1.683h3.821v.614h-3.821zm-.357-1.871h4.149v.604h-3.446v4.09h-.703zm3.822 0h.713v3.91q0 .278-.07.437a.5.5 0 0 1-.267.247 1.6 1.6 0 0 1-.525.09q-.326.018-.802.019a1.6 1.6 0 0 0-.089-.337 2.4 2.4 0 0 0-.128-.317q.336.01.623.01h.377q.108 0 .138-.04.03-.029.03-.118zm-7.594-3.91.515-.407q.733.604 1.168 1.238.435.624.653 1.297.218.663.288 1.356.079.684.079 1.396 0 .733-.05 1.386a7 7 0 0 1-.158 1.159q-.109.505-.317.792a.88.88 0 0 1-.594.337q-.267.06-.584.059a11 11 0 0 1-.644 0q0-.178-.059-.376a1.1 1.1 0 0 0-.159-.347q.387.03.684.02.297 0 .475-.01a.48.48 0 0 0 .336-.188q.13-.178.208-.594.09-.415.119-1 .04-.594.04-1.248 0-.683-.07-1.317a5.7 5.7 0 0 0-.277-1.247 4.8 4.8 0 0 0-.604-1.188 5.3 5.3 0 0 0-1.049-1.119m2 3.078.554.327q-.248.495-.624 1.02t-.801.99a6.4 6.4 0 0 1-.852.772 2 2 0 0 0-.228-.287 2 2 0 0 0-.277-.277q.416-.267.842-.683.425-.417.792-.901.366-.486.594-.96m.455-3.515.654.327a9.4 9.4 0 0 1-1.238 1.654 11.4 11.4 0 0 1-1.544 1.415.8.8 0 0 0-.149-.148 5 5 0 0 0-.188-.178 1.2 1.2 0 0 0-.178-.149 9.7 9.7 0 0 0 1.95-1.88q.415-.536.693-1.04m3.099-.05h.753v3.516h-.753zm-2.208.744h5.228v.584h-5.228zm.208 1.178h4.822v.564h-4.822zm-.584 1.247h5.97v.624h-5.97zm14.376-2.515.565-.396q.286.248.594.545.306.297.574.594.267.287.426.525l-.604.435a4.5 4.5 0 0 0-.406-.534 10 10 0 0 0-.565-.614 9 9 0 0 0-.584-.555m-6.416 2.278h8.812v.703h-8.812zm-.148 2.9q.584-.108 1.366-.267.792-.158 1.664-.336l1.752-.377.06.664q-.813.188-1.644.386l-1.594.366q-.762.169-1.386.317zm2.267-4.821h.743v7.138q0 .367-.099.555a.56.56 0 0 1-.337.277q-.228.09-.643.11-.407.029-1.02.029a2.4 2.4 0 0 0-.159-.515 4 4 0 0 0-.108-.238q.474.01.871.01.396.01.525 0 .128-.009.178-.06.05-.039.049-.168zm1.881-.891.525.624q-.574.197-1.297.366a39 39 0 0 1-2.94.534 2 2 0 0 0-.099-.306 2 2 0 0 0-.129-.317q.693-.109 1.426-.248.732-.148 1.386-.317.653-.168 1.128-.336m.991-.04h.782q-.01 1.356.089 2.604.109 1.238.307 2.287.198 1.04.465 1.812.277.762.604 1.188.327.417.683.416.208 0 .307-.406.109-.416.149-1.376a1.9 1.9 0 0 0 .623.406q-.059.822-.188 1.287-.128.465-.356.653-.228.189-.604.189-.476 0-.881-.337-.396-.337-.713-.95a8.7 8.7 0 0 1-.545-1.466 18 18 0 0 1-.386-1.851 26 26 0 0 1-.237-2.149 43 43 0 0 1-.099-2.307m2.693 4.01.653.277a9.5 9.5 0 0 1-1.168 1.733 11 11 0 0 1-1.515 1.485 10 10 0 0 1-1.743 1.149 3 3 0 0 0-.237-.297 2.4 2.4 0 0 0-.277-.288 9.6 9.6 0 0 0 1.703-1.049 10.3 10.3 0 0 0 1.475-1.406 9 9 0 0 0 1.109-1.604m3.237.277h8.753v.664h-8.753zm4.396 1.773h3.713v.653h-3.713zm-.317-1.476h.743v3.753h-.743zm-1.95 1.604q.307.812.832 1.228.534.416 1.297.564.763.15 1.732.149h2.486q.316 0 .475-.01-.06.09-.119.218a4 4 0 0 0-.089.257l-.069.238h-2.713a11 11 0 0 1-1.565-.1 4.3 4.3 0 0 1-1.237-.356 2.8 2.8 0 0 1-.951-.732q-.396-.475-.693-1.228zm-.426-.91.743.098q-.238 1.238-.772 2.159a4.6 4.6 0 0 1-1.347 1.505 1.4 1.4 0 0 0-.149-.169 3 3 0 0 0-.217-.198 1 1 0 0 0-.198-.148q.792-.515 1.267-1.337a5.7 5.7 0 0 0 .673-1.91m.05-3.05v.812h5.158v-.812zm0-1.337v.802h5.158v-.802zm-.713-.564h6.624v3.277h-6.624zM146.99 84.6h4.277v.673h-4.277zm0 1.95h4.277v.674h-4.277zm.01 2.03h4.614v.693H147zm1.871-5.693h.703v6.06h-.703zm.743-2.099.772.198q-.158.357-.336.743-.178.376-.357.732-.178.347-.337.614l-.613-.198q.158-.278.316-.644.169-.366.317-.742.148-.387.238-.703m-2.258 1.881h4.099v.673h-4.099v6.476h-.703v-6.693l.446-.456zm.179-1.99.732.208q-.238.673-.574 1.396t-.752 1.386a8.6 8.6 0 0 1-.891 1.188l-.139-.188a3 3 0 0 0-.168-.208.8.8 0 0 0-.159-.168q.436-.475.812-1.09.376-.612.663-1.266.297-.664.476-1.258m-4.614 3.01h2.901v.584h-2.901zm.039-2.653h2.822v.593h-2.822zm-.039 3.97h2.901v.594h-2.901zm-.466-2.674h3.694v.624h-3.694zm.802 4.01h2.575v2.891h-2.575v-.613h1.921v-1.654h-1.921zm-.346 0h.653v3.347h-.653z"/><path fill="#FF8457" d="M192.008 83.428c.23-.183-.499.474.001.055l-.297.286-.102.043zm.083-.281c-.103.138-.487.5-.043.14l.079-.12.465-.386.15-.154q.12-.07.24-.143l-.186.16c-.224.226-.437.429-.754.725l.094-.067q-.25.215-.506.43l.414-.413c-.227.163-.594.522-.779.7-.251.244-.209.181-.399.364-.03.03-.025.043-.086.1-.304.28-.921.83-.588.48.517-.463.935-.877 1.445-1.326-.158.096.104-.157.454-.49m-9.475 8.504c.153-.158.498-.413.737-.58h.001c.054-.038.198-.1.029.037-.264.213-.445.265-.55.408zm-.619.446c-.191.097-.141.006.099-.136.093-.057-.061.106.242-.164.083-.017.171-.043.254-.066q-.116.09-.232.175c.024-.087-.164.085-.363.19m7.947-6.885c-.005.043.095-.047.281-.19l-.488.44zm3.82-3.48zl.154-.153.107-.073-.003.003q.294-.254.582-.498c-.012.032-.366.318-.554.49l-.022.018c-.264.235-.398.342-.427.346zm-30.505 22.206q-.034.138-.073.281c.094-.071.18-.143.274-.21.056-.354.205-.259.457-.556.778-.917.349-.879 1.391-1.394-.594.633-.225.525-.455 1.02-.161-.001-.016-.567-.291-.344-.315.538-.614 1.05-1.003 1.608h.085l.184-.264q-.054.186-.104.371c.003-.197-.198.134-.273-.004-.034-.062.013-.251.031-.364-.159.132-.336.286-.496.419l-.098.083.05-.129.102-.272.217-.244zm-18.94 12.191c-.022-.426.295-.912.721-.972zm49.256-34.258.086-.066-.343.339-.089.04zm-7.646 6.902c.087-.078.095-.084.208-.179h-.001c.046-.038.418-.35.387-.303l-.56.494c-.012-.003-.02-.01-.034-.012m2.133-1.883zc.066-.057.13-.109.198-.169-.228.234-.289.237-.506.446-.216.208-.331.342-.561.471.065-.068.136-.147.2-.217.324-.258.403-.357.638-.593zm-20.912 13.367c-.022-.129.112-.129.119-.135.403-.598-.018.107.438-.386q-.071.138-.138.275c-.137.081-.286.165-.419.246m15.527-17.148q.028.013.055.027c-.289.277-.308.404-.592.591q.266-.313.537-.618m1.663 6.946c.331-.305.576-.524.924-.787h.001c.02-.015-.06.08-.032.061q.101-.093.198-.185l.057.012-.581.485.102-.051-.48.43.117-.203zm-6.454-2.247c.066-.036.006.09.096.022s.193-.247.211-.165l-.286.356a2.6 2.6 0 0 0 .417-.358c.178-.182.294-.314.364-.256q-.165.152-.308.307a8 8 0 0 0-.552.673c-.078-.097.148-.5-.128-.369l.185-.209zm20.791-10.04c.122-.084.329-.228.533-.38.18-.129.367-.254.511-.332.074-.045.336-.165.336-.162a3.24 3.24 0 0 0-.32.162l.06-.03q.201-.11.415-.192l.021-.008c-.504.215-.208.087-.46.217a4 4 0 0 1 .62-.275c.136-.045-.118.03-.42.175a4.4 4.4 0 0 0-.738.478h.001c-.348.272-.733.543-1.126.825l-.146.108.048-.023q-.113.082-.221.164c.21-.169-.092.052-.459.315.191-.148.43-.319.41-.314a74 74 0 0 0-2.068 1.567c-.155.124-.145.138-.513.428.011-.012.011-.017.017-.026-.47.38-.797.65-1.209.98-.136.12-.281.25-.444.39l.127-.076.325-.308.069-.059c.105-.066-.033.053.382-.283.337-.272.134-.115.224-.193.124-.106.237-.184.371-.298.103-.087-.021-.001.258-.219q-.155.147-.309.296l-.203.152.193-.169c-.233.194-.45.378-.691.583.059-.073-.137.093-.279.212l-.033.032c-.203.189-.037.018-.17.142-.132.123-.264.267-.504.48.12-.124-.06.026-.033-.012s.278-.267.028-.057c-.468.432.072-.002-.243.293-.377.354-.512.38-.409.269.081-.089.393-.364.479-.454-.574.483-.547.513-.636.604-.327.334-.15.065-.538.451q-.005-.027-.009-.053l-.196.185c.271-.197.066-.018-.039.076-.169.15.102-.07.06-.027-.113.115-.305.28-.18.188l-.175.129c-.189.178-.589.64-.17.242-.022.056-.169.171-.283.269-.113.095-.099.107-.197.191-.389.332-.162.084-.118.012-.49.46.008.03-.712.692-.055.08.294-.204.025.056-.074.016-.303.184-.713.531l-.097.125c-.247.17-.164.04-.537.437.156-.26.051-.088-.345.21-.08.06.081-.106-.031-.021-.05.038-.156.15-.277.24-.057.043-.352.25-.521.42.164-.08-.153.252.168.022-.55.472-.928.831-.35.238l-.45.332-.272.283c-.043-.02-.036-.04-.415.295l.482-.454c0-.012.018-.039.007-.04-.198.191-.775.694-.904.82-.132.127.139-.1.106-.056-.273.358-.298.288-.525.503-.133.126.207-.15.135-.083-.266.248-.44.326-.688.534.113-.055.215-.1.322-.152-.258.218-.554.468-.798.685-.094.084-.006.041-.021.056-.07.07-.385.35-.418.376-.249.206-.289.194-.535.39l.28-.237c.009-.079.024-.162.029-.237q-.376.297-.749.577c.19-.122.391-.257.578-.383a58 58 0 0 1-.767.778 11 11 0 0 1-.506.262c-.421.294-.282.345-.546.366-.074.04-.141.077-.227.092-.05.009-.135-.008-.161-.087-.018-.053-.007-.11-.001-.146.009.029.021.045.034.079a.5.5 0 0 1 .026-.133c.042-.134.089-.264.138-.4-.096.117-.188.228-.277.348-.037.07-.071.087-.083.227-.002-.16.021-.173.042-.243.081-.208.119-.2.146-.24.083-.121.153-.395.227-.489.025-.031-.085.304-.004.209.014-.018.33-.393.426-.678-.026-.005-.064.004-.094.004.151-.374.358-.506.371-.442.064-.204.192-.49.172-.55l.132-.3c.048.147.219-.277.148-.341l-.237.513c-.042-.174-.333.319.241-.725.145-.185-.17.366-.056.214.154-.283.256-.569.417-.832.199-.329.06.122.351-.72-.933 1.73.01-.288.302-1.161.254-.165.612-.865.947-1.88-.088.086-.186.409-.273.583-.086.173-.037-.034-.148.183s-.33.677-.455.893c.055-.203.366-1.174.193-.518.231-.448.367-.652.601-1.23-.009-.206-.061-.208.148-.78-.017.378.299-.242.358-.058-.179.396-.201.128-.341.342-.014.024-.129.408-.165.496.24-.342.327-.46.351-.183.095-.274.172-.435.126-.48l.137-.141c.033-.09.06-.168.095-.26-.132.096.013-.132.04-.325.026-.19-.128.024.047-.464l-.226.446q.138-.48.269-.966c-.131.204-.378.651-.443.614.078-.136.202-.646.219-.703l.008-.026c.056-.175.062-.057.068-.072.133-.318.188-.589.285-.692.009-.123.021-.231.018-.309.001-.037-.018-.064.006-.03.039.038.069.02.025.03-.093.029-.06.08-.128.1-.355.141-.261.033-.473.199a6 6 0 0 0-.464.427q.197-.076.394-.144a9 9 0 0 0-.272.26l-.211.14-.158-.209q-.114.082-.229.169.18-.167.364-.326l.007-.063q-.31.194-.612.401l.05.08c-.441.323-.47.315-.793.73-.293.27-.439.598-.56.797l-.216.137-.057.171-.304.143c.017.105.019.141.327-.125-.023.173-.562.654-.795.843-.172.138-.068-.102-.095-.09-.089.037-.327.33-.382.379-.249.22-.403.387-.621.587-.042.038-.198.114-.209.123-.085.074-.281.238-.303.261-1.094 1.094.226.075-.77 1.104l.163-.018-.215.242c-.115.081-.041-.08-.196.154l-.06-.132c-.066.107-.122.204-.187.31-.092.012-.222.092-.355.178-.209.132-.426.283-.489.182-.034-.056.254-.46.028-.315-.155.145-.002.092-.058.158-.409.48-.458.376-.614.586l.019.185q-.112.09-.226.185l.023.113c.063-.066.133-.14.191-.198.01.164-.668.99-.471.62.079-.149.299-.362.062-.316l-.568.711-.088-.043c-.259.311.084.125.132.171l-.183.21c-.05.009-.099.015-.149.026.034.035.083.15-.133.326-.14.112-.043-.178-.259.084.074.033.227.004-.01.303-.085-.027-.174-.039-.257-.075-.256.398-.495.472-.796.941-.193.298-.355.796-.749.743-.177.183-.062.178-.099.247-.175.324-.469.415-.521.458-.329.274-.415.452-.703.657.059.028.11.06.165.09.142-.297.254-.413.566-.73l-.272.358.161.047c.771-1.151.785-.708.07.197q-.204.018-.408.035c-.339.59-.639.74-1.165 1.278-.062.064-.238.344-.33.45l.006-.005c.01.127.121.067.191.112l-.128.19c-.159.085-.159.006-.369.264l.23.027c-.24.275-.451.407-.653.681l.059-.176c-.538.511-.429-.182-.661.36q-.073.007-.145.012l.444-.529-.095-.103-.465.577.293-.463-.627.589c.334-.109.085.197.264.258-.445.28-.855.444-1.289 1.109-.086.132.064.152-.344.378.219.053-.082.528.108.602.095-.12.197-.244.288-.363-.162.084-.315-.017-.182-.245.167-.287.583-.563.422-.68.094-.09.18-.177.271-.266l.005.213c.185-.32.357-.473.563-.52q-.4.507-.801 1.019.074-.063.147-.127c-.124.33.189.158-.194.632l-.124-.125c-.031.27-.435.725-.172.7-.162.1-.212.103-.209.248-.425.273-.761.382-.804.114l-.284.47.337-.116-.633.695c-.15-.094.364-.487.127-.454-.048.006-.112.178-.154.199-.453.22.139-.234-.061-.228-.501.488-.305-.095-.797.756q-.084-.022-.165-.047c-.224.242-.124.303-.298.527-.107.139-.414.172-.443.41-.004.044.405-.034-.072.476-.372.398-.347.103-.596.281-.246.174-.51.835-.858.788.137-.092.278-.214.418-.321l.018-.265c-.214.339-.549.576-.626.856a1.3 1.3 0 0 0-.451.364c-.177.229-.202.446-.031.476.09-.147-.111-.08.099-.21l.171.055c-.28.294-.472.501-.467.251l-.138.129q.123.136.245.273l-.123.193-.23.127c-.067-.212.067-.361-.454.03l.142.144c-.432.33-.556.225-1.024.706.192-.528.687-.443.348-.769.107-.066.225-.143.334-.213l-.108-.181c-.45.517-.939 1.667-1.485 1.731-.019.066-.032.119-.053.188a.8.8 0 0 0-.202.087c-.022.015-.041.028-.035.032.004.003.018-.003.066.01.057.009.121.087.121.116-.005.083-.034-.029-.032-.08a.5.5 0 0 1 .035-.205.6.6 0 0 1 .141-.212c.039-.039.385.17.552-.397-.054-.001-.139-.02-.205-.028.07-.115.14-.224.212-.337l-.115-.111q-.131.306-.256.61.058-.267.121-.539c-.15.206-.181.305-.258.132q.085-.302.171-.602l-.072-.092q-.185.099-.369.201c.242-.496.394-.944.707-1.279.053-.057.097.22.138-.274.067.014.124.019.186.03.005-.624.117-.789.438-1.339-.245.341-.057.028-.093-.09-.025-.081-.1.18-.139.135-.038-.043-.127-.441-.24-.16.174.831-.357.871-.467 1.841q-.005-.234-.012-.469l-.163.161c.237-.477.11-.252.116-.476.007-.228.075-.625.135-.88.02-.082.082.031.147-.148.042-.117.013-.499.191-.525.118-.021.233.608.461-.143.143-.111.002.242.012.253.098.102.33-.331.303-.575-.003-.019-.147.123-.129-.073.04-.459.219-.677.448-.923-.164-.076-.268-.505-.082-.943l-.133-.11.022.235c-.052.07-.097.144-.154.208.08-.466-.145-.603-.179-.843-.116-.834.418-.213.493-.043q-.108.13-.218.253.096.008.193.018c.292-1.134.447-.067.712-.615-.266-.23-.191-.66.136-1.153q.02-.09.04-.183c-.043-.02-.113-.037-.139-.06.099-.662.611-.675.672-.724.269-.228.035-.515.05-.593.065-.34.217-.425.232-.758.016-.364-.134-.144-.199-.27-.052-.1-.007-.384-.057-.51.051.057.099.119.149.176.156-.344.299-.635.401-1.043-.351-.562.474-.81-.168-.765-.115.382-.228.594-.422.773.03-.261.06-.526.087-.785.081-.062.156-.104.241-.181-.106-.226.033-.652.023-.84a4 4 0 0 0-.019-.204c-.042-.314-.12-.428-.126-.544-.014-.102.076-.267.21-.445.068.084.114.307.156.427.039.14.065.284.005.552.164-.089.178-.379.323-.169.035-.554-.15-.404-.281-.612-.056-.082-.115-.232-.171-.227-.028.022-.031.074-.017.15a.5.5 0 0 0-.133-.227c-.3.143-.548.389-.797.623.044-.17.089-.336.144-.503-.107.046-.222.103-.325.152-.436.795-1.772 1.527-1.078 1.843-.244.313-.354.302-.6.372.027.055.047.103.078.162-.222.168-.181.445-.378.593-.188.139-.378.053-.142.296q-.148.047-.291.102l-.201.07.004.353c-.124.087-.24.163-.361.246.076.163-.326.541-.397.803-.286.07-.707-.3-.981.19l.351.232-.303.234-.12-.07.153-.12-.283-.02c-.03.218-.066.444-.094.66.226-.14.462-.293.688-.433-.12.31-.348.43-.431.715-.303.067-.335-.074-.436-.284l-.131.247c-.127-.18-.32-.143.027-.54q-.102-.013-.208-.03c-.048.073-.123.084-.166.173-.118.244.048.631.16.7.06.036.118-.244.188-.176.165.169-.285.56.432.046-.061.315-.188.293-.415.507q.115.045.228.093l-.355.27c-.192-.41-.976.316-.652-.649l-.578.623.013-.215.292-.254-.463.204c-.152.337-.122.533-.083.774.362-.238.135-.244.31-.517.082.08.174.134.249.232-.289-.02-.492.507-.563.615-.211.319-.207-.061-.371.134s-.245.521-.558.535c.105.08.222.152.325.215-.214.337-.287.178-.328.198-.672.305-.676.758-1.118 1.367q.138-.073.273-.152c-.131.623.04.268.419-.058-.308.342-.284.703-.427 1.003-.145.301-.588.662-.792.761.164-.466.559-.796.846-1.229-.144-.039-.27-.067-.426-.113.03.425-.235.449-.33.506-.279.169-.077.316-.402.294l.213.143c-.421.47-.974.899-.957 1.436-.2-.111-.388-.224-.595-.333-.033.314-.312.384-.422.585-.108.2.09.247-.018.497-.02.046-.173.054-.181.201s.218.895-.254.59c-.142.175-.291.331-.435.498l.326-.565-.662.178.244.281c-.19.478-.569.636-.842 1.058-.046.07.267.067-.01.318-.276.25-.809.185-1.061.787-.012.03.149.397-.182.421-.076.005-.007-.214-.137-.167-.129.044-.507.423-.669.346.052.034.123.048.182.074l-.098.266-.273-.182c-.126.563.037 1.032-.545 1.543q.39-.101.777-.207-.076-.176-.155-.348l.76-.748-.19-.371.213-.19.17.224.29-.476c.189.627-.686.796-.301 1.036l-.32.065c.152.162-.005.26-.217.473.128.014.258.02.383.038-.298.134-.606.551-.836.748-.101.086-.147-.116-.186-.097-.202.096-.221.576-.286.624-.402.298-1.02.208-1.065.839.402-.367.192-.161.467-.191.089-.012.619-.479.033.175-.066.075-1.351 1.095-1.252.503a5 5 0 0 0-.12.429q-.036.147-.077.298c-.959-.025-.27.267.145.381q-.082.112-.17.226c-.2-.42-.871.388-.925.803-.017.138.293-.042.175.215-.104.085-.227.182-.338.27.334.006.176.38.393.545-.347.054-.872-.114-1.009-.394q-.059.353-.115.707.167-.058.332-.112c-.555.436-.773 1.375-1.325 1.135l-.156.224.185.247q-.474.41-.95.823c.172-.33.114-.486.436-.719q-.273.073-.543.144c-.106.646.011.832-.589 1.469-.025.027-.634.394-.667.394-.154.008-.197-.215-.271-.216-.104-.001-.359.091-.587.163-.115.038-.223.069-.285.063-.014-.004-.025-.011-.017-.034.002-.01.007-.026.069-.086.033-.029.075-.069.178-.128q.039-.023.094-.048c.082-.027.31-.152.732-.059.452.083.814.596.845.843.06.264.031.383.021.469-.017.098-.019.095-.022.109l-.007.032-.012.047-.015.057-.011.051c-.001.019.002.024.007.024.029-.009.057.008.132-.145l.015-.036c.004-.013.012-.02.034-.145.009-.113.063-.283-.08-.672a1.3 1.3 0 0 0-.498-.596 1.3 1.3 0 0 0-1.131-.127l-.106.042a2 2 0 0 0-.102.049c-.056.03-.095.054-.126.073-.116.076-.148.102-.162.099-.073.015-.083-.031-.093-.077a.8.8 0 0 1 .041-.359c.077-.274.247-.612.437-.939.386-.662.89-1.323 1.093-1.612a81 81 0 0 1 3.555-4.663c3.346-4.092 6.845-8.038 10.182-12.188.046-.058-.047-.09-.03-.118.107-.166.344-.227.396-.28.109-.113-.05-.13.023-.218.753-.909 1.524-1.72 2.264-2.64.048-.059.077.066.151-.05.038-.06.057-.328.156-.45.348-.426.688-.753 1.059-1.193.209-.25.527-.603.757-.874.097-.114.159-.293.257-.41.141-.168.219-.043.247-.063l.017-.013c.103-.09.014-.198.105-.298.177-.192.267-.14.482-.398.149-.18.465-.655.649-.89.579-.462 1.147-1.145 1.696-1.687.344-.33.487-.258.693-.401a3 3 0 0 1 .362-.213c.175-.072.342-.195.863-.186a1.58 1.58 0 0 1 1.33.901c.155.333.168.51.194.656.067.547.044.785 0 1.09-.012.07-.024.133-.038.198-.13.62-.333 1.156-.465 1.76-.024.108.1.105.08.212-.07.388-.159.898-.253 1.24-.106.388-.305.489-.359.878-.016.113.122.177.097.365-.043.311-.247.596-.314.806-.089.28.118.069.003.443-.005.014-.124.048-.14.132-.047.245.041.237-.058.585-.011.037-.23.47-.244.517-.074.273-.259.807-.284.97-.091.59.187.184-.277.575.016.241.036.464.042.717-.026-.169-.313.408-.321.454-.056.368.133.195-.03.637-.096-.674-.218.562-.302.826-.376 1.254-.86 2.358-1.257 3.553a8 8 0 0 0-.195.74c.003-.025.009-.056.009-.136-.006-.078.009-.208-.115-.487a1.25 1.25 0 0 0-.412-.484 1.25 1.25 0 0 0-.577-.213c-.318-.022-.4.029-.491.052-.133.047-.152.066-.17.075-.024.015.003-.002.03-.023.051-.038.052.043.105.002.055-.043-.055-.047.014-.098.443-.346.92-.638 1.222-1.175.039-.004.054.008.105-.007.237-.446 1.053-1.002 1.319-1.243q.076-.068.138-.13c.29-.289.346-.455.608-.706.392-.374 1.091-.847.613-.787.253-.283.495-.543.773-.798.031-.028.069.044.081.033.081-.07.054-.141.101-.196.129-.15-.031.14.145-.081.091-.115.101-.212.381-.514 1.673-1.795 3.507-3.74 5.232-5.581.118-.127-.007-.087.144-.243.526-.542 1.525-1.46 1.957-1.947.434-.486.268-.438.518-.76.049-.062.042.019.091-.033.331-.346.78-.712 1.051-.986.182-.184.111-.22.229-.353.175-.198.419-.347.518-.449.461-.476.733-.852 1.18-1.282-.028.007-.05.008-.075.012q.762-.8 1.526-1.595l-.102.046c.314-.323.473-.428.517-.48.037-.043-.004-.048-.107-.099l-.05-.027.008-.012.101-.15c.103.128.553-.168 1.044-.618.037-.035.152-.373.259-.223l.064-.228.414-.192.144-.181c-.017-.032-.049-.051-.057-.092.245-.256.784-.737.982-.94.483-.497.934-1.056 1.394-1.36.184-.187-.048-.057.243-.317l.164-.023c.138-.32.25-.306.6-.58.238-.185.364-.338.591-.52.058-.046.076-.008.113-.041.125-.111.473-.453.572-.525q.28-.213.561-.397c.177-.114.343-.224.584-.335.137-.045.231-.147.636-.107.217.018.501.265.555.44.072.173.071.282.074.37-.037.618-.196.905-.332 1.306-.039.102.041-.016.005.082l-.002.006c-.065.169-.08.051-.118.148-.108.268-.054.29-.195.668-.464 1.243-1.081 2.644-1.637 3.909-.018.04.01.049-.009.092-.122.282-.283.548-.397.805-.188.422-.296.75-.488 1.165-.373.806-.737 1.52-1.121 2.34-.126.271-.247.534-.344.779-.016.022-.001.072-.012-.055.016-.047-.15-.26-.236-.257-.087-.021-.109-.006-.111-.007a1 1 0 0 0 .182-.083 7 7 0 0 0 .549-.349c2.847-2.095 5.565-4.568 8.322-6.872.07-.059.049-.027.069-.045.198-.176.208-.203.299-.243.258-.23.318-.308.631-.575.167-.142.065-.014.333-.266.242-.226-.049.004.716-.633.02-.017.128-.087.28-.225.155-.139-.036.01.342-.32q.386-.334.828-.714a161 161 0 0 1 3.196-2.397c.252-.185.197-.152.53-.387.257-.18.474-.324.778-.535.034-.023.094-.068.321-.225m-36.194 27.307c.024.122.199.485-.2.749-.039.025-.061-.33-.269-.168.157-.208.315-.391.468-.582zm18.64-20.462v-.001c-.228.28-.461.567-.687.851l.03-.128q.26-.352.521-.695.066-.012.136-.028m1.884-2.18c.189-.143.171-.071.293-.13.033-.017.15-.112.199-.153-.034-.004-.072-.002-.107-.004.366-.412 1.296-.92.329.027l-.016-.11c-.5.455-1.092.931-.698.37m-23.643 23.016c-.01-.623.006-.814.353-1.444l.07.339c-.09.09-.182.187-.272.278v.001l.152.123q-.153.35-.303.703m27.156-17.327c.185-.038.11-.044-.22.274-.119.114.013.02-.062.09-.401.373-.469.344-.403.242l.684-.605zm10.626-9.16h.001c.014-.005-.161.13.04-.017l-.448.342.132-.104-.12.085c-.049.046-.099.08-.257.197l.143-.082-.546.417h-.01q-.099.082-.198.166l-.058.035-.241.199c-.029.014.15-.132-.169.124l.281-.249q.72-.564 1.45-1.113m-13.828 11.926c.513-.423.386-.299.295-.15q-.15.078-.295.15m-11.465 3.606q-.083.317-.172.638c-.221.336-.621.51-.477.238.175-.327.496-.543.649-.876m-5.982 6.78c.363-.326.159.106.147.241-.182.011-.304.165-.513.377.18-.215.308-.567.366-.618m11.277-12.525c.128-.145.24-.303.38-.414.024.093-.267.305-.009.2l-.244.279c.015-.092-.083-.04-.126-.065zm5.505-.64c.202-.33.209-.405.32-.774.065-.03-.041.423-.139.692zm-35.708 23.619c-.132-.228.258-.778.519-.997l.012.161zm18.459-9.737.101-.099a.6.6 0 0 1-.101.099m-2.451-6.515c.131.194.288-.265.099.293h.001c-.125.363-.155.444-.246.788-.179-.171-.099-.89-.357.066-.003.013.127.014.074.165-.016.047-.153.178-.235.4-.026.07-.189.625-.013-.138-.149-.01-.285-.086-.425-.116.026-.31.359-.469.422-.79.091-.47-.152-.772.25-.783.011.421-.137 1.098-.383 1.133-.086.378.071.536.234.245.176-1.347.361-.297.46-1.49-.05-.026-.098-.085-.15-.088.262-.314.223.248.269.315m-1.031 2.67c-.052-.257-.109-.504-.166-.758.178.042.309.206.322.586zm-5.989 1.33c.074.102.106.242.156.366-.126-.006-1.248 1.252-.795.515.066-.107.706-.566.639-.881m25.699-8.922.299-.517-.336.85zm-12.02 6.268c.057-.06-.056.212.152-.044-.117.224-.233.433-.348.651l-.247.07-.047.186c-.028-.07-.057-.137-.084-.21.377-.204.317-.384.574-.653m7.917-9.088c.132.026-.21.501.193.09-.022.136-.105.286-.33.543q-.089.032-.176.062c.053.059.018.141-.068.32-.344.387-.34.344-.521.346.418-.349.346-.448.54-.764.141-.225.379-.45.362-.597M157.05 98.073c-.077.43.291.28-.309.678l-.041-.204zm22.055-11.466c-.158-.083-.5.084-.336.324.281-.22.044-.198.336-.324m-13.409 14.286c.468-.499.581-.217.499.083l-.198-.005-.187.312zm19.141-17.706c.092-.517-.24.507-.169.148.057-.287.272-.613.278-.457l-.109.308m.682-2.635c.024.053.013.073.011.075-.013.023-.026-.11.002.078.038.087-.266.962-.074.615.046-.157.09-.319.115-.48.026-.163.015-.322-.054-.288m-24.958 26.29c-.068-.059.302-.709.398-.739.271-.083-.247.472.117.367-.624.402-.523.843-.844.423.296-.313.224-.095.329-.051m-19.604 11.467-.001.001c.035-.032.46-.209.494-.121-.341.338-.414.178-.478.683-.08-.029-.155-.06-.237-.089.071-.173.048-.305.222-.474m13.637-17.572c.083-.159.391-.317.51-.481.031.836-.838 1.116-.51.481m37.498-17.591h-.001zm-28.668 7.748c.013-.031.005-.058.001-.08l-.001-.007a.2.2 0 0 1 0 .087m-4.174 16.021c.109-.122.117.046.145.35.005.032.035.126.114.126.062-.003.086-.028.12-.05.057-.043.11-.094.157-.138.096-.092.19-.18.254-.221.022.059.056.1.06.186a.55.55 0 0 0-.228.131c-.087.062-.115.153-.323.221-.059.03-.24-.055-.261-.144-.032-.077-.032-.118-.037-.153-.007-.072-.008-.118-.009-.162q-.004-.128.008-.146m15.523-15.773c-.527.58-.11-.416.132-.257a3 3 0 0 1-.132.257m-10.995 12.251c.03-.245-.268.026.183-.432l.156-.008zm7.176-8.767c-.617.775-1.16 1.558-.479 1.304l.126-.19c-.113-.117.137-.263.411-.56-.009-.086.13-.262.118-.33-.024-.13-.251.012-.176-.224m17.169-8.05-.021.049-.334.328.028-.085zM162.161 99.2c-.4-.196-.395.124-.354.799.119-.266.237-.53.354-.8M181.9 83.1q.086.045.174.089c.196-.281.106-.29-.071-.233zm3.951-2.39c.009-.173-.036-.083-.034-.1.003-.103-.07-.265-.2-.298-.115-.032-.185-.01-.251.005-.131.038-.246.1-.429.231l-.118.118c.236.01.325-.217.749-.199-.061-.055-.166-.067-.257-.074a.6.6 0 0 1 .206-.043c.077-.008.198.052.227.137.059.158.025.278.005.4l.02.093c.032-.083.065-.171.082-.27m3.642 4.686.521-.455-.002-.04zm-26.46 9.145-.061-.065q.043.014.061.065m-22.873 23.925c-.214.167-.406.492-.591.711.212.133.598-.488.872-.601-.01-.06-.192-.18-.281-.11m26.175-18.264-.007-.27q.166-.165.335-.337l-.104-.112c-.423.562-.421.344-.765.504zm28.661-19.65c-.396.315-.535.435-.298.27.136-.113.279-.23.414-.34zm-35.286 13.36a1 1 0 0 1-.061.094c-.186.25-.404.136-.522.52.181-.127.377-.272.558-.398l.008-.085zm1.021 12.018c.138-.143-.139-.58.308-.963-.045-.144-.103-.239-.153-.365.11-.026.224-.062.333-.086v-.001c.117-.441-.093-.2-.187-.241-.038-.018.137-.318.016-.246-.209.127-.339.798-.522.742.136-.207.235-.668.069-.577-.18.098-.098.594-.296.822.416-.286.062.471-.187.489.017.518.224.115.376-.36.071.346.124-.114.288-.134-.017.328-.428 1.317-.045.92m12.962-14.38c-.223.255-.631.593-.709.836-.044.141.348-.219.174.117.215-.25.237-.33.136-.346l.129-.187.107-.044.003-.156.177-.163c-.006-.019-.007-.04-.017-.058m-21.642 11.825.169-.223q-.06-.027-.122-.052l-.095-.043c.129.032.563-.192.58-.419.008-.114-.305-.088-.086-.425-.172.234-.316.463-.477.695l-.114-.186-.214.191zm29.565-20.17c-.195.262-.248.353-.084.308h.001l.177-.33zm-17.485 8.736a1 1 0 0 0-.121-.149c-.097-.097-.164-.093-.205-.036-.13.185-.004.902.192.732.013-.01.048-.495.134-.547m1.368 8.941.369-.423-.222-.026zm27.771-18.947a7 7 0 0 0-.714.62l.296-.25-.544.488c.012.03.21-.168.536-.445.05-.042.392-.302.482-.414.018-.023-.317.269-.095.054l-.29.253-.035.005q.184-.158.364-.31m-20.894 11.071c-.318.335-.31.421-.29.569l.406-.504zm17.776-8.352c-.196.165-.099.11-.173.18-.278.264-.489.426-.769.684l.046-.058-.001.001c-1.376 1.167-.619.587.185-.128l.074-.03c.354-.331.678-.633.638-.649M162.883 97.88c.037-.012.196.208.182-.136-.232-.328-.189.129-.328.203l-.02-.281c-.21.495-.162.592.102.453.018-.011.028-.225.064-.239m.934-3.399c-.441-.161-.372.533-.229.542.026-.09-.036-.179.018-.267.055-.09.166-.092.211-.275m-.682 8.499c-.015.014-.258.05-.158.119.37.019.576-.473.443-.473-.105.12-.152.233-.285.354m32.515-22.967c-.009.005-.403.3-.449.342-.038.037-.055.058-.083.088.212-.173.649-.502.531-.43z"/><path fill="gold" d="M192.727 114.68c.278-.098-.626.285-.017.052l-.373.174-.111.006zm.17-.239c-.142.097-.623.314-.085.119l.113-.088c.187-.069.381-.143.566-.213l.192-.096.273-.058-.228.091c-.285.14-.553.262-.949.439l.11-.032-.618.242c.174-.086.367-.179.526-.256-.268.08-.732.299-.964.407-.318.148-.257.103-.497.214-.038.018-.037.033-.113.066-.379.165-1.142.484-.713.262.64-.269 1.17-.523 1.798-.782-.18.039.15-.114.589-.315m-11.73 4.947c.195-.1.605-.228.885-.307l.001-.001c.063-.018.22-.029.016.045-.32.115-.508.105-.653.206zm-.731.219c-.212.03-.135-.04.137-.096.108-.024-.091.081.283-.075.084.01.175.014.262.02q-.14.047-.277.09c.051-.075-.183.026-.405.061m9.758-3.915c-.018.04.105-.013.328-.088l-.605.258zm4.747-2.042.196-.094.125-.034q-.006.002-.003.002.36-.144.712-.281c-.021.026-.45.181-.684.282l-.027.01c-.326.136-.487.194-.516.188zm-36.082 11.036q-.077.12-.16.242c.112-.037.217-.077.327-.11.169-.315.279-.178.614-.376 1.034-.613.617-.716 1.77-.863-.768.404-.384.422-.763.815-.152-.053.17-.541-.164-.421a22 22 0 0 1-1.472 1.193l.08.029.26-.19q-.112.158-.219.317c.068-.186-.231.062-.257-.094-.012-.069.095-.233.148-.334-.194.074-.41.161-.605.235l-.12.046.089-.105.185-.224.285-.159zm-21.881 5.344c.118-.411.576-.767.999-.684-.336.229-.665.454-.999.684m57.739-16.311.103-.034-.435.208-.098.01zm-9.48 4.03c.108-.045.117-.049.255-.102h-.001c.057-.021.509-.195.465-.161l-.69.285c-.011-.007-.016-.016-.029-.022m2.631-1.084h.001c.08-.032.158-.06.242-.095-.292.146-.35.13-.624.256-.272.126-.425.215-.684.263.084-.044.176-.095.26-.14.39-.139.498-.206.797-.353zm-24.129 5.811c.02-.129.148-.085.157-.089l-.001.001c.576-.434-.052.095.54-.223l-.221.215c-.155.032-.323.063-.475.096m20.272-11.143.043.043c-.363.168-.422.283-.752.367q.354-.209.709-.41m-.694 7.109c.412-.18.716-.307 1.13-.442h.001c.024-.008-.083.055-.05.048l.247-.111.05.029-.707.27.112-.016-.593.252.176-.155zm-5.368-4.23c.074-.012-.023.087.084.052s.263-.17.253-.088l-.386.245c.195-.051.368-.132.511-.203.227-.114.38-.202.427-.124a7 7 0 0 0-.392.19 8 8 0 0 0-.74.456c-.042-.117.303-.425-.001-.39l.243-.137zm22.93-2.706c.142-.039.384-.108.627-.185.212-.064.43-.12.591-.148.085-.018.372-.045.371-.043a3.272 3.272 0 0 0-.355.049l.066-.009q.226-.038.455-.046l.023-.001c-.547.039-.225.014-.506.056a4 4 0 0 1 .676-.058c.143.002-.122-.011-.455.028a4.4 4.4 0 0 0-.853.21l-.04.015.04-.014v.001c-.417.143-.869.273-1.332.412l-.174.054.053-.006-.263.083c.254-.091-.103.02-.536.148.228-.077.511-.161.49-.163-.789.248-1.708.536-2.466.806-.187.067-.182.084-.625.237.015-.007.016-.012.025-.018-.568.206-.966.355-1.463.531q-.249.104-.547.225l.145-.031.407-.185.085-.033c.121-.029-.048.038.454-.144.407-.147.164-.065.275-.109.152-.059.284-.096.448-.16.125-.049-.02-.008.315-.123l-.388.178-.243.078.238-.096c-.283.107-.549.21-.843.325.079-.049-.16.043-.333.11l-.042.018c-.253.113-.041.006-.206.079-.166.073-.337.167-.634.29.154-.078-.065.005-.028-.022s.351-.162.045-.045c-.583.256.07.022-.325.197-.471.212-.607.193-.473.121.105-.057.49-.215.6-.273-.7.269-.684.307-.798.364-.418.209-.163.013-.656.251l.009-.054c-.086.039-.142.066-.245.111.319-.097.068.005-.063.06-.208.086.12-.033.066-.006-.144.072-.38.165-.231.119l-.207.064c-.238.107-.767.413-.241.174-.039.046-.215.107-.355.161-.138.054-.128.07-.248.117-.476.188-.181.027-.116-.027-.613.276-.002.032-.898.422-.078.057.344-.097.005.061-.076-.01-.347.075-.848.269l-.132.086c-.288.08-.168-.015-.65.238.232-.194.077-.066-.395.087-.095.03.111-.075-.022-.031-.06.02-.196.091-.341.137-.067.022-.413.121-.629.227.182-.023-.227.188.152.076-.674.266-1.149.482-.409.11l-.534.167-.349.179c-.034-.032-.021-.05-.489.143l.604-.272c.004-.01.03-.03.02-.035-.25.116-.96.403-1.122.479-.166.078.163-.047.118-.018-.375.25-.376.176-.66.304-.167.077.245-.073.155-.034-.332.148-.523.165-.825.281.124-.015.236-.025.354-.039-.315.122-.676.262-.978.387-.117.049-.019.037-.038.046-.089.043-.478.205-.518.219-.302.114-.336.09-.633.195l.343-.133c.034-.072.074-.145.104-.215q-.452.158-.896.301c.219-.053.453-.115.67-.173-.315.16-.654.329-.978.485-.19.032-.384.062-.564.082-.493.141-.379.234-.635.168-.083.014-.159.027-.245.013-.05-.008-.125-.051-.123-.135-.001-.055.029-.107.046-.138-.001.03.005.05.007.086a.5.5 0 0 1 .068-.117 10 10 0 0 1 .26-.334c-.129.08-.252.155-.375.239-.057.054-.095.059-.152.188.05-.153.076-.157.118-.216.145-.171.178-.151.217-.181.118-.086.274-.322.374-.387.034-.021-.18.26-.072.196.019-.012.44-.263.623-.501-.022-.014-.061-.018-.089-.028.264-.304.503-.361.494-.296.128-.172.342-.401.343-.463l.222-.241c-.002.154.298-.191.252-.274l-.392.407c.017-.178-.419.193.464-.606.198-.128-.28.289-.122.184.237-.218.427-.454.665-.651.296-.245.017.135.568-.566-1.447 1.33.102-.269.663-.999.295-.073.861-.617 1.509-1.467-.111.052-.309.325-.448.461-.138.136-.024-.044-.2.125s-.532.533-.721.696c.118-.175.728-.991.351-.428.364-.348.56-.496.969-.966.059-.197.011-.217.395-.688-.14.35.362-.132.358.062-.299.315-.233.055-.435.212-.021.017-.255.342-.318.414.339-.245.46-.329.392-.059.179-.227.305-.354.276-.412l.175-.089c.061-.073.112-.138.176-.214-.158.047.054-.121.143-.294.086-.171-.129-.019.196-.424l-.359.349q.287-.41.569-.826c-.191.15-.57.492-.619.435.118-.103.402-.544.436-.592l.017-.023c.109-.146.076-.033.087-.045.229-.258.37-.495.495-.562.049-.112.096-.211.118-.285.013-.035.004-.066.016-.028.024.05.059.042.013.038-.097-.004-.083.056-.154.053-.381.017-.256-.055-.511.033-.106.039-.28.108-.578.252q.21-.007.419-.007-.173.076-.342.157l-.244.063-.082-.249q-.133.04-.271.085.224-.099.45-.189l.027-.057a15 15 0 0 0-.709.18l.021.091c-.522.161-.547.144-.988.431-.365.16-.61.422-.79.571l-.248.058-.11.144-.334.036c-.018.105-.028.139.35-.012-.078.156-.744.435-1.026.538-.208.074-.031-.118-.061-.116-.096.006-.417.205-.485.233-.307.127-.507.235-.779.352-.052.022-.223.044-.237.049-.104.042-.343.133-.372.147-1.391.677.19.145-1.087.793l.159.035-.282.16c-.135.039-.013-.089-.235.081l-.014-.144c-.097.079-.182.152-.278.231-.091-.018-.24.015-.394.053-.24.057-.495.129-.522.013-.013-.065.391-.352.13-.289-.194.087-.032.086-.106.13-.543.32-.556.207-.772.354l-.043.181-.273.101-.016.115.245-.126c-.044.159-.955.719-.647.433.123-.115.401-.245.162-.279-.238.152-.518.327-.769.488l-.069-.07c-.346.21.038.146.069.205l-.242.139c-.05-.008-.098-.019-.149-.025.02.045.029.17-.232.265-.169.061.017-.183-.272-.005.059.056.212.078-.109.283-.071-.053-.152-.093-.218-.154-.372.292-.622.284-1.06.629-.279.219-.595.637-.95.459-.228.115-.117.147-.175.2-.27.249-.578.24-.641.263-.4.152-.54.292-.88.392.047.046.085.093.128.139.231-.235.374-.308.772-.505l-.373.249.136.097c1.105-.836.973-.413.003.209q-.2-.049-.398-.1c-.513.447-.846.491-1.518.828-.08.04-.337.247-.458.317l.006-.002c-.031.123.093.103.145.168l-.184.139c-.178.027-.151-.047-.434.128l.208.101c-.316.181-.559.238-.84.43l.113-.147c-.675.308-.345-.311-.742.125l-.141-.036.593-.355-.056-.129-.628.394.428-.343-.784.353c.35.006.015.214.164.33-.511.12-.953.141-1.58.628-.124.096.011.164-.449.244.19.122-.249.473-.094.605.129-.083.266-.166.391-.249-.181.026-.293-.119-.093-.291.253-.217.735-.343.621-.505.119-.055.228-.109.343-.163l-.064.203c.279-.243.492-.331.702-.309l-1.09.703.18-.072c-.224.271.127.211-.389.533l-.076-.158c-.118.244-.648.543-.392.606-.186.042-.234.028-.278.166-.491.119-.844.113-.797-.155l-.422.352h.356l-.825.45c-.111-.137.503-.341.268-.387-.047-.009-.163.132-.21.138-.501.06.207-.176.017-.236-.633.298-.258-.189-1.001.455l-.14-.098c-.291.155-.216.246-.454.401-.147.096-.447.027-.552.243-.019.04.393.099-.223.426-.482.255-.362-.016-.656.071-.289.084-.754.623-1.067.465.159-.042.331-.112.499-.167q.052-.123.103-.244c-.313.25-.707.364-.871.604a1.3 1.3 0 0 0-.545.197c-.241.159-.336.356-.185.44.134-.109-.078-.112.163-.166l.144.108c-.362.186-.61.319-.524.084l-.172.077.142.338-.179.142-.259.046c.006-.223.181-.32-.439-.12l.087.182c-.516.171-.599.031-1.198.334.354-.437.794-.195.579-.614.123-.028.26-.062.386-.092l-.043-.207c-.594.342-1.432 1.269-1.968 1.152-.04.056-.07.103-.112.161a.8.8 0 0 0-.219.016c-.026.007-.049.012-.044.018.003.004.018.004.059.031.051.028.087.122.077.15-.032.077-.023-.039-.004-.086a.5.5 0 0 1 .099-.182.6.6 0 0 1 .203-.155c.05-.024.308.286.652-.195-.051-.019-.126-.065-.185-.094.103-.085.206-.165.31-.249l-.073-.142q-.223.246-.44.493.141-.233.29-.47c-.209.146-.271.229-.287.04q.178-.257.358-.513l-.039-.11q-.206.034-.413.069c.39-.39.681-.764 1.086-.978.068-.037.019.24.219-.214.059.035.111.058.166.089.208-.588.368-.708.851-1.123-.343.242-.063.008-.058-.116.002-.084-.153.138-.176.083-.022-.053.023-.458-.174-.23-.108.843-.622.708-1.043 1.589q.072-.224.141-.448l-.206.099c.38-.373.187-.202.266-.412.08-.213.274-.566.414-.787.046-.071.068.056.187-.093.079-.097.175-.467.353-.434.118.02.021.651.481.016.172-.059-.077.229-.071.242.06.129.421-.205.474-.444.004-.019-.179.068-.098-.111.188-.42.428-.569.725-.726-.13-.126-.088-.565.23-.918q-.044-.075-.09-.148l-.055.23c-.072.048-.139.104-.214.146.227-.414.06-.617.106-.855.162-.826.465-.065.479.12-.095.06-.192.113-.288.168l.177.08c.646-.977.444.082.873-.349-.176-.305.036-.687.506-1.045l.097-.16c-.034-.034-.094-.072-.111-.103.309-.593.797-.438.871-.465.328-.127.201-.475.24-.544.173-.301.345-.331.467-.641.134-.339-.08-.18-.1-.32-.017-.112.119-.365.113-.501.029.07.054.145.083.215.26-.273.489-.502.719-.855-.148-.646.713-.611.092-.778-.234.324-.41.488-.652.594q.172-.358.338-.714c.097-.033.182-.048.287-.093-.026-.248.245-.605.296-.786q.03-.11.049-.2c.063-.309.026-.443.058-.555.021-.101.159-.227.344-.352.037.102.007.327.008.454a1 1 0 0 1-.176.524c.185-.03.292-.3.361-.054.214-.512-.01-.431-.065-.67-.027-.096-.034-.258-.088-.271-.034.012-.054.061-.065.137a.5.5 0 0 0-.052-.258c-.331.037-.645.188-.957.328.098-.146.194-.289.301-.428-.117.009-.244.025-.357.038-.672.609-2.174.865-1.62 1.39-.334.217-.434.169-.689.155.007.061.01.113.021.179-.265.087-.316.362-.551.438-.223.069-.375-.074-.231.233q-.155-.003-.309.001h-.212l-.112.336c-.145.042-.28.076-.421.115.019.179-.485.405-.637.629-.294-.027-.571-.514-.99-.14l.256.334-.363.121-.09-.105.183-.063-.26-.111c-.1.196-.208.397-.305.594.26-.059.533-.127.792-.186-.215.255-.469.292-.64.535-.309-.035-.293-.179-.32-.41l-.204.19c-.062-.211-.257-.239.202-.502-.063-.032-.124-.061-.187-.096-.069.054-.144.04-.214.11-.191.192-.161.612-.077.714.045.053.191-.192.235-.106.101.214-.452.437.394.185-.161.278-.273.216-.558.344q.093.08.185.162l-.424.139c-.047-.449-1.026-.019-.404-.825l-.75.4.082-.199.359-.145-.504.042c-.254.268-.289.464-.331.704.42-.107.207-.187.462-.388.051.103.12.184.16.301-.268-.112-.631.319-.733.398-.304.232-.176-.125-.395.006-.218.13-.401.412-.702.323.074.11.161.216.238.31-.313.248-.33.074-.375.079-.735.069-.887.496-1.503.928q.154-.026.307-.054c-.326.545-.049.266.415.081-.403.223-.497.572-.731.809-.235.237-.772.433-.997.46.308-.386.789-.57 1.202-.885-.124-.084-.234-.151-.367-.246-.11.412-.368.348-.477.371-.319.069-.176.274-.476.146l.155.206c-.552.306-1.214.531-1.373 1.045-.153-.17-.294-.338-.454-.509-.134.286-.421.261-.589.415s.003.263-.18.464c-.034.037-.181-.006-.237.131s-.086.917-.432.474c-.192.12-.384.218-.574.329q.246-.214.493-.427l-.684-.048.139.345c-.336.39-.746.416-1.142.725-.065.052.231.151-.113.298-.342.146-.825-.09-1.259.397-.022.025.011.424-.31.339-.073-.02.064-.205-.075-.203-.136 0-.617.235-.745.109.038.049.101.086.148.13l-.18.219-.198-.262c-.303.492-.302.988-1.019 1.282q.4.03.803.057-.015-.191-.034-.379c.317-.15.645-.308.962-.459l-.058-.413.263-.11.088.268.429-.356c-.026.654-.907.528-.622.881l-.323-.043c.089.203-.091.244-.36.377.116.054.237.103.349.161-.325.029-.752.322-1.034.434-.123.048-.101-.158-.144-.153-.222.025-.397.473-.474.496-.478.151-1.033-.136-1.281.446.501-.216.235-.089.505-.028.087.018.74-.25-.027.177-.087.049-1.634.594-1.347.067a4 4 0 0 0-.253.366q-.083.127-.171.256c-.898-.336-.342.165.013.408q-.114.078-.234.158c-.052-.463-.951.082-1.137.457-.061.124.291.056.095.26-.125.046-.274.098-.407.145.313.115.042.416.194.644-.346-.063-.788-.392-.826-.702-.112.208-.228.42-.339.63q.176 0 .35.003c-.667.231-1.179 1.048-1.622.641l-.221.16.094.295-1.167.467c.271-.256.267-.423.647-.537q-.28-.02-.56-.041c-.311.576-.261.79-1.036 1.197-.033.017-.728.165-.76.154-.147-.043-.116-.268-.185-.293-.098-.035-.369-.031-.608-.037-.121-.002-.233-.007-.29-.034-.012-.008-.02-.018-.005-.038.006-.008.015-.022.094-.058.04-.017.093-.041.21-.063a1 1 0 0 1 .104-.014c.086 0 .343-.043.711.183.4.225.575.829.524 1.072-.029.269-.096.372-.133.45-.048.087-.05.084-.056.096l-.018.028-.026.04-.033.05a.2.2 0 0 0-.027.045c-.008.017-.006.022-.002.024.031.001.052.026.172-.094l.026-.029c.008-.012.018-.015.08-.126.045-.104.152-.247.144-.661a1.3 1.3 0 0 0-.276-.726 1.3 1.3 0 0 0-1.028-.489l-.114.005a1.98 1.98 0 0 0-.255.041c-.135.033-.174.048-.186.041-.074-.01-.068-.057-.063-.104a.8.8 0 0 1 .156-.325c.162-.234.433-.499.72-.746.58-.499 1.272-.96 1.559-1.167a81 81 0 0 1 4.882-3.247c4.498-2.777 9.093-5.365 13.601-8.199.063-.04-.014-.101.011-.121.155-.122.399-.102.465-.136.14-.071-.004-.138.093-.198 1.009-.613 2.002-1.128 3.002-1.756.065-.04.051.087.159.001.055-.045.161-.292.294-.374.468-.289.897-.487 1.39-.783.28-.167.696-.397 1.001-.578.13-.077.246-.225.377-.304.189-.113.221.03.254.021l.021-.007c.126-.051.077-.183.196-.247.23-.124.298-.045.586-.219.199-.121.653-.467.903-.63.698-.248 1.458-.708 2.154-1.041.433-.199.545-.085.786-.153.11-.028.24-.061.412-.083.188-.011.387-.073.876.105a1.59 1.59 0 0 1 .963 1.286c.038.365-.008.538-.03.684-.116.539-.215.756-.356 1.03l-.1.175c-.326.543-.692.984-1.014 1.511-.058.095.059.133.006.227-.192.344-.443.797-.644 1.091-.227.331-.447.362-.626.712-.052.102.058.207-.027.377-.143.28-.428.482-.56.659-.176.235.089.103-.142.419-.009.012-.132.006-.175.08-.125.215-.039.237-.246.534-.022.031-.371.369-.399.409-.16.234-.508.678-.585.824-.278.528.117.235-.45.453-.063.233-.117.451-.194.692.031-.169-.429.283-.451.324-.173.329.062.228-.236.592.129-.668-.391.461-.555.683-.766 1.062-1.583 1.948-2.348 2.948a8 8 0 0 0-.426.635c.011-.022.026-.049.053-.125.02-.076.076-.194.05-.498a1.25 1.25 0 0 0-.232-.592 1.3 1.3 0 0 0-.476-.39c-.293-.124-.387-.103-.48-.111-.141.001-.166.014-.186.016-.028.006.004-.001.036-.012.06-.019.035.057.098.037.066-.024-.036-.063.046-.089.531-.182 1.078-.302 1.539-.711.037.008.048.024.101.027.369-.344 1.322-.603 1.652-.744q.094-.04.173-.079c.368-.178.476-.316.806-.468.492-.226 1.307-.445.836-.545.332-.184.645-.351.991-.501.039-.017.05.064.066.058.099-.04.097-.117.159-.153.171-.1-.075.122.163-.029.124-.079.165-.168.529-.362 2.166-1.151 4.535-2.391 6.766-3.568.153-.081.021-.084.215-.183.674-.34 1.918-.883 2.486-1.201s.396-.327.738-.549c.066-.044.033.031.097-.002.425-.22.969-.419 1.315-.59.232-.114.176-.171.331-.259.23-.13.51-.19.636-.254.591-.3.971-.568 1.535-.828-.029-.003-.051-.008-.076-.013q.981-.508 1.963-1.009l-.112.009c.402-.202.588-.25.646-.284.05-.029.011-.047-.069-.129l-.038-.042.011-.008.144-.109c.056.155.578.021 1.189-.244.047-.021.266-.303.318-.126l.135-.195.454-.046.195-.124c-.006-.036-.03-.065-.024-.106.315-.162.981-.441 1.236-.569.617-.311 1.226-.693 1.761-.83.234-.116-.027-.069.332-.22l.163.032c.235-.257.336-.208.756-.352.286-.098.455-.201.728-.298.071-.025.075.016.122-.003.154-.064.593-.274.711-.31.222-.073.445-.137.66-.192.205-.05.397-.099.661-.126.144.002.266-.064.636.106.199.088.387.415.382.597.011.188-.025.29-.051.375-.237.572-.481.791-.74 1.125-.07.085.043-.001-.022.08l-.005.005c-.116.138-.091.022-.159.101-.189.218-.146.256-.402.567-.845 1.025-1.885 2.147-2.824 3.161-.029.032-.006.05-.038.085-.208.227-.446.426-.638.631-.315.337-.525.613-.841.942-.616.641-1.193 1.197-1.824 1.847a16 16 0 0 0-.579.623c-.022.016-.025.068.006-.056.031-.039-.056-.294-.139-.319-.074-.049-.101-.042-.102-.044a1 1 0 0 0 .199-.018c.185-.031.416-.091.633-.151 3.375-1.052 6.751-2.503 10.109-3.781.085-.032.054-.009.08-.02.244-.101.262-.123.362-.131.319-.133.4-.188.784-.338.203-.08.066.008.401-.143.303-.135-.047-.013.884-.365.024-.009.149-.041.338-.121.191-.08-.038-.002.427-.19q.474-.191 1.016-.406a160 160 0 0 1 3.803-1.223c.299-.092.236-.079.628-.192.301-.087.553-.152.909-.252.04-.011.111-.034.378-.108m-43.124 14.001c-.018.124.03.524-.434.643-.044.011.05-.332-.199-.246.216-.145.425-.267.633-.397m24.297-13.26c-.307.19-.621.386-.927.581l.07-.112.719-.487q.067.01.138.018m2.492-1.445c.226-.073.185-.011.319-.027a2 2 0 0 0 .238-.08c-.03-.014-.067-.025-.099-.039.48-.269 1.525-.445.302.134l.02-.111c-.62.268-1.335.525-.78.123m-29.86 14.041c.194-.592.272-.768.805-1.25l-.044.344c-.114.055-.233.117-.348.174v.001l.103.165zm31.324-7.517c.187.024.118-.006-.297.187-.15.069.005.024-.089.065-.5.222-.555.172-.46.097l.845-.348zm13.033-5.191h.001c.016 0-.194.07.044-.002l-.377.122-.141.04c-.061.027-.119.043-.307.103l.161-.031-.651.215-.01-.003-.241.092-.067.015-.292.109c-.032.004.185-.075-.2.062l.347-.143a98 98 0 0 1 1.733-.579m-16.962 6.761c.623-.232.463-.157.328-.046q-.167.025-.328.046m-12.014-.332q-.183.272-.371.546c-.318.245-.754.279-.528.069.271-.251.645-.351.899-.615m-7.867 4.456c.449-.19.115.152.06.276-.175-.049-.341.056-.608.188.24-.144.476-.434.548-.464m14.747-8.159c.168-.096.325-.209.494-.268-.008.096-.352.201-.074.186l-.322.184c.045-.082-.065-.064-.098-.102m5.412 1.191c.299-.245.33-.315.555-.627.071-.008-.176.387-.357.609zm-41.46 10.674c-.051-.258.497-.652.816-.774l-.042.157zm20.625-3.181q.068-.03.128-.061a.6.6 0 0 1-.128.061m-.19-6.957c.059.225.359-.158-.002.308v.001c-.236.303-.291.369-.489.664-.114-.22.197-.873-.359-.054-.007.011.115.055.016.18-.031.039-.203.119-.353.302-.047.057-.382.529.033-.135-.137-.059-.242-.174-.364-.249.126-.284.492-.325.657-.608.239-.415.108-.78.492-.659-.127.402-.488.993-.732.947-.205.328-.108.529.141.307.606-1.216.438-.162.922-1.259-.04-.04-.066-.112-.113-.132.349-.21.129.308.151.387m-1.847 2.186c.035-.26.062-.512.091-.77.154.098.225.296.113.659zm-6.094-.697c.036.121.02.264.027.398-.117-.047-1.588.776-.919.227.098-.079.852-.305.892-.625m27.203-.047c.153-.134.3-.261.451-.391l-.594.693c.046-.098.098-.203.143-.302m-13.408 2.003c.074-.039-.121.181.159.007-.184.174-.361.334-.542.503l-.256-.016-.105.162q-.006-.112-.011-.226c.423-.071.425-.26.755-.43m10.45-6.008c.117.068-.362.405.153.149-.065.121-.192.236-.49.405q-.093.001-.185.001c.031.073-.03.14-.169.281h-.001c-.451.254-.433.214-.604.157.508-.193.472-.311.759-.547.206-.166.505-.301.537-.446m-22.732 3.091c-.213.38.183.36-.513.54q.013-.104.027-.206.245-.17.486-.334m24.589-3.642c-.122-.129-.5-.083-.423.197.338-.116.106-.173.423-.197m-17.336 9.129c.604-.319.62-.015.444.241l-.186-.069-.278.233zm23.871-10.491c.255-.458-.393.401-.208.085.148-.253.457-.491.412-.342q-.094.12-.204.256zm1.504-2.268c.006.057-.011.073-.014.074-.019.018.012-.111-.024.074.008.095-.565.823-.27.558.094-.134.189-.272.265-.417.078-.145.119-.299.043-.289m-32.17 16.707c-.045-.078.516-.572.617-.569.283.01-.387.366-.009.385-.722.176-.77.626-.936.124.382-.199.242-.017.328.06m-22.273 4.442h-.001c.043-.019.502-.047.506.047-.433.208-.449.033-.675.49-.066-.054-.127-.108-.195-.161.124-.141.146-.274.365-.376m18.625-12.16c.13-.123.472-.173.638-.288-.243.799-1.156.78-.638.288m41.185-4.393-.002.001h.001zm-29.628-2.03c.023-.025.024-.053.029-.076l.001-.007a.2.2 0 0 1-.03.083m-9.173 13.782c.144-.08.096.082.024.378-.006.032-.008.13.066.156.06.017.09.002.129-.008.069-.022.135-.052.194-.079.12-.056.238-.109.312-.126.001.063.021.112-.004.195a.56.56 0 0 0-.258.05c-.102.03-.158.106-.377.104-.066.008-.21-.131-.2-.222-.005-.084.008-.122.015-.157.016-.07.03-.115.044-.156a.5.5 0 0 1 .055-.135m19.821-9.844c-.687.375.031-.429.208-.201.001.006-.192.191-.208.201m-14.391 7.992c.108-.221-.262-.063.313-.348l.151.043zm9.644-5.945c-.836.53-1.605 1.094-.879 1.076l.182-.138c-.069-.148.215-.204.571-.396.019-.084.208-.206.219-.273.02-.131-.241-.071-.093-.269m18.855-2.007-.035.039-.423.201.055-.071zm-28.659 3.46c-.314-.316-.414-.012-.595.639q.297-.316.595-.639m23.911-8.776.136.141c.277-.202.194-.239.009-.243zm4.515-.969c.065-.161-.007-.091 0-.107.037-.095.021-.273-.091-.346-.098-.068-.172-.071-.239-.077-.136-.007-.266.014-.481.078l-.15.074c.219.085.378-.1.773.056-.04-.072-.135-.118-.219-.154a.6.6 0 0 1 .209.026c.075.018.17.114.17.204.004.168-.068.271-.126.379q-.005.049-.012.094c.058-.067.117-.14.166-.227m1.914 5.617.64-.26.012-.038zm-27.996.011q-.017-.043-.037-.082.036.027.037.082m-29.428 15.151c-.257.087-.544.333-.791.479.157.195.725-.266 1.02-.283.01-.06-.122-.233-.229-.196m30.701-8.723q.042-.13.082-.257l.427-.21-.061-.14c-.584.394-.511.188-.888.227zm33.505-9.221c-.477.168-.647.236-.369.157.164-.062.338-.126.502-.186zm-37.714 1.113a1 1 0 0 1-.088.069c-.258.175-.426-.003-.664.322.213-.061.446-.134.658-.195l.035-.077zm-2.956 11.694c.177-.091.058-.594.605-.81.004-.151-.02-.259-.026-.395.112.011.232.014.343.027l.001-.001c.254-.379-.024-.219-.098-.288-.031-.029.233-.256.095-.228-.239.052-.582.644-.736.532.196-.152.44-.555.254-.523-.202.033-.287.529-.548.68.486-.134-.096.465-.337.401-.153.495.174.182.473-.218-.045.351.155-.066.317-.032-.124.304-.835 1.105-.343.855m16.945-9.364c-.295.169-.79.355-.943.559-.089.119.399-.093.126.168.284-.167.331-.236.241-.283l.183-.134.116-.007.053-.147.221-.096c0-.02.007-.041.003-.06m-24.317 4.116.233-.155-.098-.09-.076-.071c.111.073.594.002.684-.207.046-.105-.259-.182.058-.429-.239.164-.45.334-.677.501l-.048-.213-.264.11zm34.529-9.419c-.27.185-.349.254-.18.265h.001l.275-.253zm-19.379 2.553a1 1 0 0 0-.066-.18c-.06-.124-.124-.142-.181-.101-.184.133-.299.851-.058.754.015-.005.206-.452.305-.473m-1.624 8.898.487-.279-.202-.097zm32.434-8.847a7 7 0 0 0-.878.352l.361-.139-.673.283c.001.032.254-.09.651-.245.061-.024.47-.158.591-.234.025-.016-.387.15-.107.019l-.357.145-.034-.007zm-23.364 3.646c-.41.213-.43.297-.459.443l.548-.343zm19.528-2.094c-.238.092-.128.071-.222.113-.349.159-.601.244-.949.396l.062-.039h-.001c-1.682.655-.777.353.216-.061l.08-.004c.442-.197.847-.377.814-.405m-30.091 3.603c.039 0 .117.261.216-.07-.113-.385-.221.06-.376.085q.036-.135.073-.272c-.36.4-.346.508-.052.461.021-.004.1-.203.139-.204m1.992-2.908c-.365-.297-.526.382-.393.437.053-.077.024-.181.104-.246.081-.067.187-.033.289-.191m-3.418 7.811c-.019.008-.261-.037-.188.06.343.139.699-.259.573-.302-.139.08-.22.171-.385.241zm38.23-11.1c-.011.002-.479.152-.537.177-.048.022-.071.037-.107.056.258-.094.778-.263.643-.233z"/><path fill="#FF61B0" d="M202.703 24.767c1.136-.084 2.273-.174 3.412-.254 1.79-.126 3.579-.242 5.367-.374 2.181-.161 4.362-.344 6.543-.505.618-.045 1.242-.042 1.863-.084 1.239-.08 2.478-.161 3.714-.277.351-.033.632.017.888.292.889.954 1.782 1.9 2.676 2.848.094.099.186.21.297.281.675.436.853 1.073.783 1.919-.152 1.837-.238 3.681-.341 5.525-.091 1.625-.194 3.251-.245 4.88-.019.547-.187.84-.651 1.04-2.651 1.141-5.28 2.34-7.936 3.466-5.221 2.214-10.458 4.378-15.677 6.592a64 64 0 0 0-5.841 2.821c-.116.066-.238.126-.351.194-.232.144-.424.108-.608-.12-.61-.755-1.233-1.493-1.841-2.25-1.8-2.24-3.604-4.482-5.393-6.735-1.01-1.273-.88-.822-.716-2.609.338-3.642 1.134-7.196 1.785-10.776.181-.992.356-1.987.507-2.985.087-.561.216-1.064.767-1.273a.5.5 0 0 0 .167-.11c.74-.762 1.628-.945 2.613-.977 1.631-.054 3.259-.248 4.889-.347 1.11-.063 2.222-.075 3.329-.182"/><path fill="#69C9A0" d="m223.547 23.76-4.735-5.266L251.485-.992l5.446 5.091z"/><path fill="#9D47B9" d="M200.142 14.97c1.022.5 2.042 1.007 3.067 1.507 1.611.786 3.225 1.565 4.831 2.354 1.961.964 3.916 1.942 5.877 2.906.556.272 1.131.512 1.691.784 1.117.539 2.234 1.078 3.338 1.642.314.16.588.233.907.136q1.66-.502 3.324-.997c.117-.034.235-.077.359-.085.753-.05 1.109-.436 1.3-1.068.415-1.374.892-2.726 1.355-4.085.406-1.199.802-2.401 1.246-3.586.148-.399.082-.673-.285-.997-2.098-1.847-4.159-3.727-6.266-5.566-4.142-3.613-8.314-7.197-12.453-10.81a73 73 0 0 1-4.53-4.289c-.088-.092-.181-.182-.265-.275-.171-.193-.358-.242-.596-.151-.79.304-1.588.59-2.375.894-2.336.903-4.674 1.805-7.003 2.721-1.314.518-1.059.246-1.446 1.588-.789 2.737-1.128 5.589-1.609 8.402-.133.78-.272 1.56-.434 2.333-.09.436-.122.845.322 1.209.048.04.093.092.121.144.451.833 1.215 1.309 2.113 1.715 1.486.672 2.927 1.444 4.399 2.149 1.003.476 2.024.917 3.012 1.424"/><path fill="gold" d="M206.761 44.491c.531-.931 1.058-1.866 1.594-2.798.843-1.463 1.693-2.921 2.53-4.386 1.02-1.788 2.023-3.587 3.043-5.375.29-.506.622-.99.916-1.497.588-1.01 1.177-2.019 1.734-3.046.159-.292.349-.482.711-.528 1.253-.159 2.504-.326 3.755-.492.131-.019.271-.028.388-.074.716-.282 1.333-.065 1.992.461 1.431 1.144 2.901 2.241 4.363 3.35 1.288.98 2.571 1.967 3.883 2.916.44.32.592.614.511 1.087-.462 2.701-.866 5.417-1.344 8.114-.939 5.3-1.928 10.584-2.865 15.882a58 58 0 0 0-.768 6.123c-.007.127-.022.255-.026.381-.004.261-.135.39-.419.406-.944.053-1.881.126-2.823.177-2.795.15-5.591.302-8.39.437-1.58.075-1.141.226-2.523-.9-2.817-2.296-5.318-4.9-7.918-7.405-.72-.695-1.446-1.387-2.186-2.062-.417-.381-.761-.762-.642-1.308a.5.5 0 0 0-.002-.192c-.236-1.001.083-1.794.577-2.58.818-1.299 1.518-2.674 2.299-3.998.535-.9 1.113-1.771 1.61-2.693"/><path fill="#FF8457" d="M215.443 46.452c-.033-1.072-.072-2.144-.102-3.219-.046-1.688-.083-3.375-.135-5.061-.064-2.057-.149-4.116-.213-6.173-.018-.583.013-1.17-.001-1.755a117 117 0 0 0-.113-3.504c-.017-.331.046-.593.33-.821q1.476-1.186 2.945-2.382c.102-.084.216-.165.292-.266.463-.614 1.103-.752 1.939-.646 1.818.227 3.645.394 5.471.576 1.61.162 3.22.334 4.834.458.543.043.826.214 1.004.66 1.017 2.544 2.091 5.07 3.093 7.62 1.969 5.01 3.886 10.032 5.855 15.04a59 59 0 0 0 2.544 5.62c.06.113.114.23.177.34.133.224.089.403-.145.565-.777.538-1.538 1.09-2.315 1.626-2.305 1.587-4.609 3.178-6.925 4.755-1.308.89-.855.79-2.622.552-3.602-.487-7.094-1.4-10.62-2.178-.977-.216-1.957-.428-2.942-.616-.554-.107-1.046-.252-1.23-.78a.5.5 0 0 0-.102-.162c-.724-.73-.866-1.574-.855-2.502.018-1.535-.103-3.073-.13-4.61-.013-1.046.024-2.092-.034-3.137"/><path fill="gold" d="M219.842 22.828c-.222.207-.614-.402-.859-.574-.058-.043-.241-.146-.241-.146s.087-.207.125-.302c.128-.368.236-.74.322-1.127.158-.695.226-1.435.035-2.132a2.95 2.95 0 0 0-1.773-1.935c-.5-.193-1.043-.238-1.583-.257-.514-.022-1.029-.013-1.532.086-.527.115-1.019.335-1.507.58-.109.054-.212.192-.212.192s-.293-.152-.376-.192q-1.558-.858-3.127-1.727c-.147-.075-.605-.339-.605-.339s.291-.495.441-.71c.339-.47.679-.939 1.033-1.397a6 6 0 0 1 .708-.827c.313-.297.692-.533 1.077-.73a6.44 6.44 0 0 1 3.728-.604c1.426.208 2.74.885 3.941 1.681.594.4 1.181.838 1.595 1.418.301.429.508.923.682 1.415.244.656.458 1.336.463 2.04.008.64-.166 1.266-.35 1.874-.403 1.37-.933 2.76-1.985 3.713"/><path fill="#69C9A0" d="M46.334 37.894-.508 26.222l29.605-33.42z"/><path fill="#FFE2D2" d="m52.953 111.541 8.498-20.326-12.909-4.336-2.67-21.996-17.962-9.458c-2.127 9.146-6.429 28.844-6.613 34.472-.185 5.627 3.18 14.449 4.885 18.156l8.78 2.897z"/><path fill="#FFA8B5" d="m29.807 122.008-21.89-2.489 2.508-13.385-17.903-13.056.5-20.293c9.021 2.602 28.317 8.45 33.32 11.032s11.066 9.821 13.472 13.118l-1.752 9.077z"/><path fill="#FFE2D2" d="m38.125 113.911 18.185 12.435 6.859-11.764 22.082 1.835 12.896-15.675c-8.526-3.934-26.946-12.133-32.42-13.452s-14.794.19-18.77 1.11l-4.613 8.011z"/><path fill="#FFA8B5" d="m43.307 115.126-2.455 21.894 13.607.54 8.735 20.364 19.893 4.039c-.524-9.375-1.922-29.489-3.323-34.943s-7.106-12.977-9.783-16.057l-9.24-.317z"/><path fill="#FF61B0" d="m38.445 105.323 3.715-.243 11.383-1.008s6.115-.712 9.153-1.125l1.293-.176c.074-.01.262-.055.337-.042.015.085-.031.204-.08.287a5 5 0 0 1-.291.473c-.098.144-.174.286-.262.43-.117.18-.288.345-.448.51-.11.116-.22.226-.362.338-.112.087-.224.168-.336.256-.303.253-.802.431-1.259.59-.27.096-.552.169-.833.254-.354.113-.707.231-1.072.338-.344.1-.71.184-1.066.261-.565.125-1.14.249-1.706.373-.596.132-1.217.201-1.826.293-.336.054-.684.085-1.02.127q-.616.07-1.234.115c-.654.048-1.32.074-1.985.111-.549.031-1.107.086-1.648.07-.542-.016-1.082-.015-1.604-.078-.693-.082-1.337-.231-2.01-.343-.3-.053-.61-.093-.92-.139-.235-.039-.45-.096-.675-.147-.204-.046-.407-.076-.61-.11-.203-.035-.397-.082-.61-.11a29.853 29.853 0 0 1-1.703-.332c-.161-.043-.302-.093-.453-.142-.227-.074-.432-.155-.638-.236-.076-.03-.132-.079-.208-.115-.087-.042-.194-.07-.271-.118a5 5 0 0 0-.338-.16c-.119-.045-.413-.202-.413-.202"/><path fill="#9D47B9" d="m35.59 100.761 2.77 2.487 8.677 7.437s4.783 3.875 7.202 5.76l1.03.801c.059.046.222.149.265.211-.05.071-.167.121-.26.145q-.263.074-.542.121c-.172.031-.327.076-.491.114-.21.042-.448.035-.678.036a3.4 3.4 0 0 1-.495-.023q-.209-.03-.417-.061c-.394-.04-.87-.272-1.302-.488-.258-.126-.507-.276-.765-.418-.327-.175-.659-.345-.99-.531a16 16 0 0 1-.932-.579l-1.46-.96c-.51-.334-.994-.73-1.485-1.101-.273-.203-.539-.43-.804-.642q-.481-.39-.944-.801c-.492-.434-.976-.892-1.467-1.342-.406-.371-.835-.732-1.202-1.131-.367-.398-.746-.783-1.066-1.201-.425-.553-.769-1.118-1.16-1.678-.171-.251-.359-.5-.542-.754-.137-.195-.246-.389-.367-.586-.11-.178-.23-.344-.348-.513s-.218-.341-.347-.513c-.25-.354-.489-.705-.715-1.068-.082-.13-.164-.26-.238-.382-.082-.146-.145-.281-.215-.423-.106-.214-.192-.418-.278-.621-.031-.076-.035-.15-.062-.23-.032-.091-.086-.188-.106-.276a5 5 0 0 0-.121-.353 6 6 0 0 1-.145-.437"/><path fill="#9D47B9" d="m38.386 105.577-.847-2.643-2.785-8.05s-1.619-4.292-2.466-6.415l-.361-.903c-.02-.051-.087-.179-.091-.236.059-.026.153-.014.222.006q.197.05.394.125c.122.045.24.075.359.112.15.052.301.146.45.232.103.058.203.118.31.2.082.066.161.132.245.197.238.174.457.502.654.804.118.178.222.368.334.556.145.236.295.47.438.715.134.23.261.48.382.723l.577 1.166c.203.408.365.844.542 1.268.1.234.185.48.276.715q.161.433.306.871c.153.464.292.941.439 1.415.121.392.261.786.348 1.18s.184.785.233 1.174c.066.516.075 1.008.115 1.516.016.226.043.457.065.689.015.177.012.343.016.515.003.156.02.308.03.461.012.153.013.302.031.461a17 17 0 0 1 .068 1.291c-.002.125-.013.235-.021.354-.013.177-.034.34-.055.504-.009.06-.034.109-.046.171-.014.07-.016.153-.036.217-.022.089-.04.177-.055.273-.011.094-.072.336-.072.336"/><path fill="#9D47B9" d="m37.76 105.88 3.13-2.015 9.467-6.402s5.002-3.59 7.458-5.424l1.046-.781c.06-.044.202-.175.274-.2.055.067.071.193.07.29q.003.272-.026.554c-.016.174-.013.336-.02.504-.015.213-.084.441-.145.663-.04.155-.083.305-.153.471q-.084.193-.169.386c-.142.37-.492.767-.815 1.127-.19.215-.4.416-.605.627-.255.27-.507.544-.774.815a16 16 0 0 1-.805.746c-.434.382-.877.77-1.31 1.153-.458.404-.968.766-1.456 1.142-.268.21-.557.406-.831.606q-.504.36-1.022.699c-.549.359-1.119.705-1.682 1.06-.466.293-.928.612-1.408.86-.481.249-.953.512-1.44.71-.647.264-1.282.447-1.925.675-.288.1-.578.214-.871.324-.225.08-.44.135-.662.199-.201.059-.393.132-.587.2-.195.068-.387.121-.587.199-.407.148-.808.285-1.219.407q-.222.069-.431.129c-.162.041-.31.065-.465.096-.234.045-.453.074-.672.103-.082.01-.154-.005-.238 0-.096.006-.204.033-.294.029-.124.003-.244.01-.373.023a6 6 0 0 1-.46.025"/><path fill="#9D47B9" d="m37.14 107.486 1.621-2.41 4.804-7.508s2.474-4.114 3.667-6.186l.508-.883c.029-.05.09-.188.134-.228.06.032.111.117.14.186q.086.194.153.405c.042.13.093.245.14.367.056.158.076.342.102.52.019.123.034.244.036.385q-.002.164-.002.328c.012.309-.116.701-.236 1.06-.07.212-.159.42-.24.635-.1.272-.195.546-.303.822-.102.26-.224.526-.346.783l-.583 1.23c-.203.432-.456.848-.69 1.268-.127.233-.273.463-.408.69q-.25.415-.516.817c-.282.426-.584.85-.878 1.278-.243.354-.475.725-.743 1.051-.267.327-.524.661-.812.953-.381.389-.78.716-1.17 1.078-.176.16-.348.332-.524.501-.136.127-.274.232-.413.347-.126.104-.24.215-.359.324-.118.109-.239.206-.358.324a18 18 0 0 1-1.017.893c-.103.079-.2.142-.303.212-.154.105-.302.193-.45.282-.055.032-.111.043-.17.073-.067.034-.136.087-.202.111-.088.04-.171.083-.26.132-.084.052-.322.16-.322.16"/><path fill="#FF61B0" d="m38.392 107.727.253-3.069.561-9.437s.162-5.09.194-7.626l.013-1.08c0-.06-.013-.22.007-.28.072-.002.163.05.225.1q.18.135.351.296c.106.097.214.177.32.266.133.118.248.278.363.43.082.103.158.207.233.337.057.102.11.203.168.305.17.28.256.709.33 1.102.045.233.071.472.107.713.048.303.102.607.145.918.04.294.064.604.084.904l.098 1.441c.035.504.016 1.02.017 1.53.003.282-.014.57-.02.85q-.018.513-.056 1.024c-.04.54-.1 1.089-.15 1.638-.042.453-.066.916-.145 1.357s-.143.883-.258 1.303c-.152.557-.352 1.066-.526 1.603-.08.239-.15.487-.226.735-.06.188-.133.357-.202.535-.063.161-.111.324-.165.486-.053.162-.115.314-.164.485-.108.342-.22.674-.346 1.005l-.133.348c-.054.127-.112.236-.171.354-.088.176-.18.335-.27.493-.035.058-.081.098-.12.156-.045.066-.081.151-.13.208q-.088.121-.172.256c-.051.092-.215.314-.215.314"/><path fill="#FFA8B5" d="m51.487 119.212-10.839 17.9-10.553-7.477L11.72 139.9l-17.312-8.487c5.827-6.753 18.533-21.081 22.748-24.373s12.867-5.649 16.667-6.416l7.137 5.115z"/><path fill="gold" d="M27.048 51.514c.381-.37.932-.795 1.364-1.103.135-.097.114.007.21-.057.186-.126.323-.286.51-.407.063-.04.061.099.125.055.35-.239.634-.518.972-.778 1.665-1.284 3.257-2.597 4.9-3.944.543-.444 1.25-.926 1.773-1.429.061-.058-.037-.095-.03-.111.117-.251.173-.057.314-.146a10.3 10.3 0 0 0 1.57-1.254c.194-.185-.128-.148.143-.246.019-.007.03.11.093.07.14-.09.37-.309.472-.387.199-.15.23-.177.409-.33.245-.207.566-.419.814-.66.052-.051-.086-.063-.008-.153.078-.089.32-.285.414-.335.095-.05.112.038.138.04.214.015.35-.378.382-.412.583-.615 1.21-.995 1.81-1.51.456-.392.918-.84 1.356-1.208.521-.438.994-.773 1.49-1.21.053-.047-.085-.082-.021-.138.679-.6 1.37-1.176 2.107-1.704.074-.052.052.101.13.053.475-.296 1.271-.712 1.23-1.265.296-.23.653-.513.967-.663.202-.097.115.125.285-.084.039-.047-.084-.071-.021-.136.264-.273.598-.518.85-.8.05-.058-.022-.11-.016-.137.054-.215.42-.25.48-.282.455-.239.704-.511 1.06-.812.083-.07-.091-.076-.014-.147.399-.364.83-.721 1.266-1.026.097-.067.08.08.13.05.219-.125.137-.305.344-.429.044-.026.078.058.091.059.205.02.163-.221.188-.248.313-.352.681-.38 1.003-.695.038-.038-.125-.042-.013-.144a27 27 0 0 1 2.389-1.933c.126-.09.095.043.11.044.222.016.164-.21.197-.25.266-.303.664-.411.706-.778 1.34-1.034 2.526-2.236 3.944-3.156.018-.012.057.092.092.068.427-.29.247-.348.376-.718.033-.093.385-.081.414-.083.105-.005.14.168.169.16.24-.077-.121-.44.116-.644.008-.005.038.093.064.083.081-.031.118-.112.2-.14.187-.062.398.084.516-.207.014-.037-.215-.222.006-.393.088-.068.46-.393.576-.468.117-.076.106.057.116.053.363-.148.289-.017.549 0s-.062-.279-.036-.365.3-.186.374-.203c.073-.017.049.083.107.06.385-.158-.009-.277.045-.414.127-.323.518-.234.751-.393.063-.043-.031-.058.016-.108.186-.194.374-.222.545-.49.028-.044.09-.352.303-.348.03.001.034.104.132.043.147-.09.392-.277.513-.416.09-.104-.114-.103.042-.183.07-.035.013.115.14.044.125-.071.398-.31.5-.4.103-.092-.02-.12-.015-.132.026-.073.194-.281.212-.296.885-.774 1.817-1.351 2.65-2.138.065-.062-.05-.103-.04-.114.205-.233.204.138.428.07-.163-.143-.042-.196.107-.355.072-.077-.025-.103-.023-.115.035-.197.223-.143.266-.136.157.026.148-.156.254-.14.106.017.062.213.219.076-.006-.096-.253-.148-.155-.275.372-.48 1.317-1.084 1.691-1.383.373-.298.481-.409.71-.569.415-.289.178-.282.37-.537.194-.255.317.122.402.152.085.031.069-.061.138-.064.07-.003.015.115.123.043.109-.071.285-.407.266-.5-.04-.194-.28-.23.021-.403.017-.01.032.105.095.063.501-.332.974-.731 1.47-1.069.067-.046.081.083.122.057.421-.271.17-.293.245-.622.127.242.348.268.635.024.173-.146.067-.21.125-.367.017-.048.19-.091.177-.152-.044-.198-.289-.252.058-.444.015-.009.038.101.087.067.314-.218.227-.39.524-.675.233-.223.743-.51 1.034-.734.19.233.408-.045.38-.294.187-.149.374-.325.568-.453.067-.044.084.055.097.056.212.012.16-.208.194-.248.373-.42.818-.6 1.124-1.06.011-.016-.101-.194.106-.171.014.002-.058.188.137.03.195-.157.626-.379.827-.678.048-.073.1-.34.315-.35.03-.002.05.06.096.064.15.011.056-.186.267-.132.212.055.496-.012.682-.334.006-.01-.04-.19.046-.26.136-.111.348-.248.487-.368.066-.058-.044-.1-.034-.111.412-.43.791-.633 1.299-1.015.093-.07.254-.394.498-.456.267-.067.406.484.757.023.143-.186-.058-.865.472-.878.552-.583 1.224-.933 1.754-1.543.024-.027-.007-.238.059-.292.097-.078.205-.06.276-.113.302-.225.516-.504.799-.731.107-.087.127.01.254-.092.128-.103.136-.261.341-.364.155-.077.435-.008.622-.132-.144-.181-.025-.277.141-.5.032-.043-.063-.068-.05-.092.05-.097.163-.107.206-.203.011-.023-.04-.084-.034-.107.047-.193.365-.231.42-.237.209-.025.204-.157.336-.209s.018.122.155.042c.284-.167.593-.449.846-.66.1-.085-.037-.107-.024-.121.19-.198.471-.291.45-.55.496.29.09-.146.456-.317.029-.013.225.157.16.262-.064.105-.252.16-.338.311-.02.036-.031.363-.045.393-.105.24-.38-.029-.404-.037-.256-.08-.292.293-.335.353-.194.274-.44.414-.608.636-.11.144.04.347-.072.432-.37.283-.721.123-.856.64-.03.11.22.257-.176.313-.025.003-.344.016-.372.205-.004.024.049.084.035.105-.093.137-.216.158-.329.295s-.243.309-.412.418c-.102.066-.316.053-.383.063-.192.026-.212.27-.372.239s-.136-.308-.392-.198c.128.165.25.341.374.51-.448.375-.928.698-1.367 1.086-.054.048.075.084.02.138-.239.228-.508.354-.746.6-.184.19-.326.468-.516.67-.283-.071-.54.256-.78.433-.084.062-.12.01-.19.042-.262.123-.026.198-.062.273-.158.32-.489-.023-.775.238-.016.014-.04.37-.057.404-.1.221-.085-.043-.201.032-.213.137-.385.205-.56.452-.05.073-.104.327-.31.343-.027.002-.072-.07-.089-.062-.296.145-.13.351-.21.538-.081.186-.414.231-.491.229-.203-.006.05-.12.047-.134-.031-.183-.17-.028-.297.064-.186-.182-.342-.027-.132.096.023.013.1-.085.132-.096.06.282-.102.464-.459.457-.167-.003-.161-.178-.418.105-.117.128.05.22-.035.355-.19.31-.641.477-.896.73-.092.092.067.083.006.149-.161.173-.366.253-.521.435-.014.016.092.06.037.109-.416.371-.827.638-1.27 1.015-.214.182-.559.552-.787.733-.396.314-.964.606-1.268.914-.198.2-.085.238-.131.369-.09.253-.559.338-.625.346-.002 0 .166-.176.034-.132-.129-.034-.033.13-.034.132-.044.005-.426.302-.486.38-.033.042.052.096.034.116a9.6 9.6 0 0 1-1.437 1.32c-.01.005-.068-.088-.09-.073-.32.21-.418.47-.605.733s-.392.405-.654.384c-.164.172-.474.33-.655.42-.18.088-.064.266-.074.28-.32.45-.633.56-1.067.906a12 12 0 0 0-.786.732c-.16.162-.295.213-.432.372-.019.021.064.074.06.082-.104.237-.168-.01-.231-.01-.23 0-.362.01-.543.257-.041.057.022.437-.06.533-.108.125-.139-.005-.25.127-.009.012.041.065-.04.131-.38.307-.812.62-1.192.956-.052.046.09.076.017.143-.348.316-.741.648-1.123.904-.095.063-.094-.044-.128-.047-.209-.013-.233.286-.257.312-.57.622-1.18.894-1.769 1.519-.032.034-.156.439-.403.395-.017-.003-.266-.051-.284.143 0 .012.14.026.003.13-.137.103-.302.335-.554.403-.08.022-.343-.014-.41.251-.003.018-.032.513-.285.406-.042-.018-.196-.23-.31.045-.023.053.085.037.007.152-.119.176-.37.3-.486.552-.02.044-.047.3-.249.296-.031 0-.054-.096-.12-.052-.317.21-.579.511-.909.714-.117.073-.156-.08-.288-.016-.132.063-.371.22-.442.366-.07.145.199.21.042.368-.68.687-1.49 1.208-2.234 1.82-.11.09.032.074-.127.212-.584.509-1.551 1.437-2.173 1.745-.498.247-.051-.273-.4-.047-.168.109-.162.447-.193.484-.301.369-.624.493-.921.794-.062.063.072.087.02.14-.181.178-.414.316-.592.48-.08.073-.012.122-.092.182-.19.145-.373.257-.6.35-.02.01.023-.16-.113-.048-.221.182-.54.357-.74.63-.058.08.059.223-.184.263-.05.009-.152-.196-.213.108-.01.051-.154.515-.416.52-.069.001-.29-.048-.36.05-.01.014.103.047.035.118-.24.248-.519.474-.766.727-.066.068.107.054.006.153-.276.27-.658.564-.966.785-.113.082-.095-.045-.11-.046-.22-.008-.162.209-.195.253-.209.272-.465.366-.684.587-.06.06.049.095.042.113-.08.178-.093-.04-.19.019-.273.162-.533.395-.765.61-.085.08.087.08.01.15-.456.416-.95.826-1.448 1.17-.094.066-.096-.046-.127-.046-.214.001-.272.3-.302.35-.137.224-.26.229-.418.383-.772.756-1.816 1.583-2.609 2.222-1.032.832-1.867 1.439-2.813 2.278-.06.053.076.088.025.135-.66.603-1.358 1.142-2.017 1.75-.054.05.097.064.013.147-.173.17-.41.365-.619.498-.101.065-.04-.11-.142-.044a5 5 0 0 0-.674.545c-.088.086.124.05.005.155-.816.713-1.61 1.42-2.535 2.022-.064.041-.261-.088-.354.049.032.055.08.111.12.166-1.173 1.053-2.41 2.009-3.617 3.029-.051.043.114.059.016.143-.568.484-1.097.982-1.755 1.388-.065.04-.173-.145-.322.024-.026.03-.263.27-.3.362-.004.013.107.048.027.12-.469.422-.985.835-1.502 1.198-.083.059-.07-.091-.13-.05-.425.291-.797.715-1.23.961-.292.165-.318-.052-.566-.074-.036-.004-.192.126-.268.053-.19-.18-.302-.462-.515-.647-.045-.04-.21.186-.182-.03.002-.014.12-.179.126-.248.003-.048-.112-.089-.088-.166s.14-.06.193-.174-.063-.172.1-.332m48.58-39.437c-.203.04.017.339.108.144a.6.6 0 0 0-.108-.144M92.176-2.185c-.286.03-.252.317-.044.305s.13-.314.044-.305m1.78-1.683c-.293.082.016.509.171.236.01-.016-.153-.24-.17-.236M28.262 52.493a1 1 0 0 0-.118.095c.017.14.245-.043.118-.095m67.455-58.04c-.111.002-.246.225-.107.223.111-.002.246-.226.107-.223M68.22 17.906c-.006-.002-.089.062-.067.084.07.072.163-.044.066-.084M98.846-8.238c-.476.381-1.04.293-.503-.102.097-.072-.107.274.035.204.259-.129.223-.456.535-.532.057-.013-.04.408-.068.43M75.259 11.807a1 1 0 0 0-.118.095c.017.14.245-.042.118-.095m-11.826 9.9a2 2 0 0 0-.277.223c-.008.26.522-.166.277-.223M82.493 5.25c.043-.193.177-.326.37-.296-.125.097-.246.199-.37.296M-5.09 48.896c.596-.44 1.419-.956 2.056-1.33.2-.116.14.004.279-.075.273-.154.495-.343.768-.49.09-.05.043.108.137.055.512-.29.957-.624 1.462-.938 2.488-1.55 4.896-3.131 7.378-4.752.817-.533 1.858-1.124 2.67-1.723.095-.07-.014-.106 0-.125.227-.292.233-.074.437-.182a20 20 0 0 0 2.362-1.513c.3-.221-.111-.162.257-.288.026-.009.001.124.092.076.205-.111.56-.372.713-.466.295-.181.342-.214.614-.397.373-.249.843-.509 1.23-.796.082-.062-.087-.068.04-.174.126-.106.49-.342.624-.404.134-.063.126.037.158.037.26.006.558-.448.609-.488.92-.729 1.83-1.2 2.743-1.818.693-.47 1.412-1.003 2.078-1.448.792-.527 1.49-.934 2.246-1.457.08-.055-.08-.088.018-.155a51 51 0 0 1 3.173-2.053c.109-.064.032.111.144.053.69-.365 1.817-.884 1.946-1.51.443-.279.974-.616 1.414-.805.283-.122.102.135.384-.113.063-.056-.082-.076.017-.153.42-.327.915-.624 1.319-.958.081-.068.008-.125.024-.154.138-.248.604-.308.688-.347.638-.293 1.042-.621 1.583-.984.126-.085-.088-.082.03-.166a25 25 0 0 1 1.904-1.235c.142-.081.074.086.145.051.314-.157.272-.357.57-.51.064-.032.08.061.095.062.249.01.276-.261.316-.294.503-.417.97-.469 1.47-.845.06-.046-.14-.041.031-.163a52 52 0 0 1 3.594-2.33c.188-.111.105.044.122.044.274.005.275-.25.33-.297.431-.361.962-.507 1.134-.927 1.992-1.245 3.855-2.678 5.927-3.812.026-.015.04.101.092.072.623-.352.419-.409.697-.836.07-.107.5-.111.538-.115.133-.013.119.183.158.171.325-.102-.005-.495.358-.742.012-.007.017.104.053.09.111-.04.184-.134.295-.17.253-.082.468.072.709-.266.03-.043-.194-.24.135-.447.132-.082.694-.47.862-.562.169-.091.113.06.126.055.5-.19.367-.038.686-.034.318.004.015-.314.076-.414.06-.1.434-.23.531-.254s.034.092.114.061c.53-.2.08-.314.19-.472.262-.375.717-.295 1.056-.487.092-.052-.02-.065.053-.123.291-.229.54-.277.841-.593.05-.051.227-.405.49-.413.038 0 .01.116.151.041.212-.111.576-.337.77-.502.145-.122-.107-.11.111-.209.097-.044-.02.13.158.042.176-.086.593-.373.753-.485.158-.11.014-.134.023-.149.057-.085.336-.333.363-.35 1.345-.93 2.703-1.649 3.98-2.586.1-.073-.027-.114-.013-.126.326-.275.207.145.506.056-.157-.152.013-.221.253-.413.115-.092.002-.116.008-.13.11-.227.326-.177.377-.172.188.02.235-.187.362-.174.126.012.009.238.248.074.024-.11-.267-.154-.104-.305.61-.564 1.988-1.311 2.548-1.673.558-.36.724-.491 1.056-.684.617-.36.317-.336.642-.64.324-.303.354.12.45.15s.106-.075.194-.083c.087-.007-.02.13.138.043s.482-.48.488-.582c.012-.22-.272-.248.152-.46.025-.011.007.118.097.068.733-.41 1.46-.9 2.171-1.308.099-.056.076.09.134.058.604-.33.306-.345.508-.726.079.27.348.284.784-.012.262-.178.15-.243.272-.426.037-.055.265-.114.267-.182.008-.222-.276-.271.21-.506.02-.01.014.113.084.072.462-.268.415-.463.877-.807.368-.273 1.07-.615 1.514-.897.161.254.527-.08.572-.362.28-.182.568-.394.845-.549.096-.053.086.059.103.059.257.002.257-.242.315-.292.612-.513 1.22-.745 1.734-1.279.017-.018-.065-.215.189-.205.017.002-.136.222.162.026s.906-.479 1.242-.828c.047-.047.113-.166.209-.263a.5.5 0 0 1 .295-.157c.037-.003.042.066.1.067.183.002.132-.218.378-.17.245.048.621-.049.944-.422.012-.012.007-.211.135-.297.211-.14.523-.313.733-.46.101-.07-.023-.11-.006-.124.633-.508 1.187-.78 1.927-1.244.134-.083.432-.462.762-.555.354-.097.358.52.932-.027.222-.213.202-.986.862-1.039.848-.692 1.81-1.156 2.647-1.89.04-.034.053-.265.16-.336.15-.101.278-.089.384-.157.44-.28.792-.617 1.21-.9.157-.106.154.003.337-.122.19-.13.257-.317.539-.45.212-.1.532-.041.81-.207-.126-.194.056-.318.315-.58.052-.053-.06-.072-.036-.1.094-.12.241-.144.323-.259.02-.027-.025-.092-.012-.119.112-.224.513-.296.587-.312.27-.05.298-.2.47-.268.183-.077-.017.142.183.03.408-.228.859-.578 1.233-.856.148-.111-.016-.119.004-.137.275-.24.655-.392.695-.69.542.266.152-.182.634-.431.042-.023.244.144.14.277-.097.127-.354.229-.492.41-.036.046-.135.427-.157.463-.196.294-.472.02-.495.012-.284-.07-.451.38-.509.446-.317.34-.65.518-.936.801-.174.175-.043.39-.206.5-.557.375-.93.212-1.252.819-.068.128.202.273-.31.375-.033.006-.44.055-.523.268-.011.027.036.092.013.117-.155.164-.315.2-.503.371-.184.169-.384.366-.631.509-.147.084-.419.093-.504.109-.239.04-.336.32-.525.297-.19-.022-.074-.342-.428-.193.108.178.205.37.307.555-.667.461-1.377.878-2.027 1.344-.082.059.067.09-.02.157-.376.285-.741.443-1.11.74-.284.227-.573.573-.854.805-.324-.065-.745.326-1.11.553-.128.08-.153.02-.248.06-.356.154-.09.226-.157.312-.292.375-.595.005-1.04.327-.023.017-.177.432-.202.468-.186.255-.09-.044-.255.047-.302.167-.535.255-.835.552-.086.086-.243.387-.502.417-.033.003-.067-.075-.09-.066-.404.18-.265.405-.422.621-.158.217-.589.293-.686.296-.252.01.102-.14.103-.157.021-.207-.202-.02-.394.096-.173-.195-.424-.003-.2.121.026.014.156-.105.2-.121a.53.53 0 0 1-.125.317c-.115.139-.315.223-.586.232-.205.006-.142-.194-.551.144-.187.154-.009.248-.158.41-.348.373-.949.585-1.344.888-.143.11.057.09-.04.168-.255.208-.538.313-.794.535-.023.02.096.062.01.122-.632.448-1.215.769-1.9 1.235-.337.23-.86.657-1.207.88-.592.383-1.403.757-1.87 1.12-.308.239-.18.275-.28.427-.192.294-.808.423-.894.437-.003 0 .266-.213.086-.153-.15-.03-.083.15-.086.153-.06.012-.625.37-.723.46-.053.05.035.106.006.13-.683.571-1.45 1.125-2.211 1.59-.015.006-.056-.096-.089-.078-.46.256-.667.557-.986.87-.318.311-.631.493-.942.48-.255.202-.69.4-.942.511-.253.112-.166.307-.183.324-.542.53-.982.685-1.621 1.097a24 24 0 0 0-1.213.879c-.252.194-.438.261-.664.453-.03.026.055.08.047.09-.201.273-.203-.003-.28 0-.283.013-.45.03-.752.32-.07.067-.114.497-.248.61-.174.149-.17.003-.35.16-.016.014.029.072-.095.152-.577.376-1.21.755-1.789 1.157-.079.055.088.08-.025.162-.532.378-1.136.783-1.696 1.098-.136.076-.1-.046-.142-.047-.253-.004-.378.337-.416.367-.9.734-1.773 1.096-2.691 1.83-.05.04-.334.507-.628.471-.02-.002-.314-.043-.399.18-.005.013.166.02-.038.147-.205.126-.487.4-.825.494-.108.03-.423.005-.589.308-.01.02-.204.584-.484.476-.046-.018-.168-.25-.4.068-.044.062.096.038-.038.172-.206.207-.56.363-.787.658-.04.051-.157.346-.408.353-.039.001-.036-.106-.134-.052-.462.258-.879.61-1.355.86-.168.09-.168-.082-.352-.002s-.534.273-.67.443c-.135.17.178.228-.069.417-1.075.824-2.236 1.452-3.37 2.197-.168.11.014.084-.227.25-.882.604-2.399 1.723-3.267 2.105-.697.307.025-.308-.48-.033-.244.133-.345.518-.396.562-.494.436-.936.595-1.407.957-.097.074.062.095-.021.157-.287.216-.615.382-.89.578-.122.088-.054.14-.173.212a5 5 0 0 1-.858.432c-.028.011.081-.184-.125-.049-.335.22-.788.436-1.128.76-.1.095-.003.253-.315.31-.066.012-.126-.215-.3.134-.029.058-.357.593-.683.612-.086.006-.345-.038-.464.077-.016.016.113.049.006.133-.378.295-.8.568-1.193.871-.104.081.116.056-.042.174-.433.325-.999.676-1.453.945-.167.099-.104-.047-.121-.047-.272.003-.27.246-.325.299-.35.321-.699.443-1.044.707-.096.072.03.105.014.126-.157.208-.102-.04-.243.033-.394.201-.788.477-1.147.735-.131.094.082.085-.036.17-.701.497-1.45.991-2.185 1.413-.137.079-.104-.048-.142-.046-.265.012-.434.354-.487.412-.242.263-.397.275-.644.46-1.207.902-2.773 1.9-3.966 2.67-1.563 1.008-2.787 1.736-4.242 2.746-.093.064.066.096-.013.153-1.018.721-2.058 1.37-3.078 2.1-.084.06.1.068-.032.166a8 8 0 0 1-.93.6c-.148.08-.015-.123-.163-.042-.342.19-.693.418-1.016.657-.137.102.14.05-.044.175-1.248.858-2.464 1.703-3.811 2.44-.092.05-.296-.087-.456.074.022.062.064.123.095.182-1.801 1.262-3.652 2.418-5.484 3.642-.078.052.123.062-.026.162-.865.582-1.686 1.178-2.635 1.675-.095.05-.168-.156-.408.045-.042.036-.416.322-.49.428-.01.015.116.049-.008.136a32 32 0 0 1-2.257 1.444c-.123.071-.057-.1-.145-.05-.624.354-1.224.856-1.844 1.16-.415.203-.376-.042-.678-.054-.043-.002-.28.154-.35.076-.178-.196-.225-.51-.427-.71-.044-.043-.322.224-.217-.023.007-.017.208-.21.237-.29.02-.054-.11-.094-.054-.184.055-.09.192-.076.296-.208s-.022-.192.234-.383M68.12 1.327c-.268.06-.09.388.088.16.008-.012-.074-.163-.088-.16M93.21-15.99c-.36.053-.401.375-.143.348.256-.026.255-.366.143-.348m2.73-2.072c-.385.116-.132.58.14.256.017-.019-.118-.262-.14-.256M-3.903 49.944a2 2 0 0 0-.178.115c-.025.158.318-.062.178-.115M98.616-20.144c-.15.02-.366.28-.198.267.129-.006.376-.288.198-.267M57.027 8.392c-.006-.002-.129.075-.109.1.065.077.215-.06.11-.1m46.097-32.159c-.616.653-1.286.599-.591.044.125-.107-.159.34.018.228.326-.222.321-.556.547-.803.022-.028.067.085.076.22a.7.7 0 0 1-.05.313zM67.748 1.043c-.007-.002-.179.11-.18.117-.026.16.32-.065.18-.117M49.85 12.986a4 4 0 0 0-.418.27c-.095.298.704-.22.418-.27M78.844-6.86c.119-.224.33-.387.56-.364-.186.118-.37.243-.56.364"/><path fill="gold" d="M69.846 45.864c-.234-.317-.476-.773-.642-1.13-.052-.112.037-.094.003-.173-.065-.154-.174-.268-.234-.423-.02-.052.104-.05.081-.102-.125-.29-.302-.526-.45-.806-.725-1.38-1.495-2.7-2.278-4.066-.259-.45-.508-1.038-.823-1.474-.037-.05-.095.029-.108.022-.195-.099-.006-.142-.049-.259a5.7 5.7 0 0 0-.715-1.307c-.116-.161-.167.103-.184-.12-.001-.016.108-.024.088-.075-.044-.118-.18-.309-.223-.394-.082-.166-.1-.191-.188-.34-.122-.205-.227-.472-.378-.68-.032-.044-.08.07-.14.004a1.3 1.3 0 0 1-.19-.346c-.02-.079.063-.09.071-.112.071-.175-.245-.295-.267-.322-.398-.49-.571-1.01-.872-1.514-.23-.382-.506-.77-.718-1.138-.252-.438-.423-.833-.68-1.251-.027-.044-.097.067-.13.013a14 14 0 0 1-.947-1.772c-.027-.062.105-.039.084-.104-.134-.397-.283-1.06-.792-1.047-.123-.25-.276-.551-.322-.812-.03-.168.145-.088.006-.235-.031-.034-.087.065-.128.012-.17-.226-.295-.508-.476-.724-.037-.044-.105.013-.127.007-.178-.054-.105-.353-.115-.403-.084-.38-.256-.593-.424-.896-.038-.07-.094.07-.135.005a7 7 0 0 1-.551-1.077c-.032-.082.094-.06.084-.102-.05-.184-.235-.127-.284-.301-.011-.037.074-.06.079-.07.078-.165-.15-.144-.167-.166-.223-.271-.138-.57-.326-.848-.023-.033-.075.098-.133.002-.386-.64-.738-1.35-1.012-2.042-.043-.108.068-.074.073-.085.083-.178-.139-.146-.163-.175-.19-.234-.165-.56-.481-.62-.427-.956-.987-1.838-1.374-2.805a7 7 0 0 1-.21-.592c-.004-.015.1-.037.09-.067-.12-.364-.23-.226-.52-.36-.073-.034.052-.314.06-.337.029-.084.196-.097.197-.121.01-.197-.433.058-.537-.149-.003-.007.095-.022.094-.043-.001-.067-.061-.104-.06-.171.007-.155.207-.31-.015-.43-.029-.014-.27.151-.35-.04-.032-.076-.2-.401-.229-.501s.086-.079.086-.087c-.012-.302.08-.23.183-.436.101-.204-.27.023-.339-.006-.068-.029-.067-.255-.057-.315s.09-.031.089-.08c-.012-.32-.25-.02-.354-.075-.247-.132-.036-.433-.1-.633-.017-.055-.062.019-.09-.023-.111-.167-.073-.318-.255-.48-.03-.027-.283-.107-.207-.275.01-.024.104-.017.083-.1a1.5 1.5 0 0 0-.197-.45c-.062-.08-.13.08-.148-.051-.008-.059.106.001.086-.106-.02-.106-.14-.346-.186-.437-.046-.09-.113.003-.122-.002a1 1 0 0 1-.192-.199c-.387-.78-.577-1.58-.986-2.323-.032-.059-.109.026-.115.017-.136-.187.194-.143.212-.327-.184.111-.189.01-.278-.126-.043-.065-.1.008-.111.005-.163-.05-.049-.192-.027-.224.08-.12-.087-.135-.034-.216s.211-.024.145-.163c-.088-.007-.222.181-.3.089-.297-.349-.497-1.163-.63-1.492-.131-.328-.191-.427-.251-.626-.108-.36-.188-.174-.345-.356-.157-.184.223-.232.28-.294.059-.063-.03-.062-.007-.117.023-.054.108.004.083-.09-.024-.093-.259-.274-.348-.27-.188.006-.307.188-.352-.069-.002-.015.105-.011.091-.066-.113-.433-.296-.854-.415-1.284-.016-.059.104-.053.095-.088-.086-.363-.198-.17-.463-.273.262-.067.366-.235.255-.49-.067-.154-.162-.08-.28-.146-.036-.02-.011-.161-.07-.159-.192.008-.331.191-.374-.105-.002-.013.104-.015.092-.058-.078-.273-.263-.229-.406-.499-.112-.212-.178-.647-.27-.904.278-.114.113-.322-.118-.335-.063-.166-.15-.336-.191-.504-.015-.058.08-.057.086-.067.09-.163-.125-.153-.148-.185-.234-.349-.227-.718-.52-1.02-.01-.012-.21.05-.112-.107.007-.01.145.072.079-.102-.067-.173-.102-.538-.292-.736-.046-.049-.263-.127-.191-.295.01-.023.072-.03.093-.065.066-.114-.144-.07-.016-.226.128-.155.176-.384-.039-.574-.006-.006-.184.003-.214-.074-.047-.121-.087-.305-.141-.43-.026-.06-.105.02-.111.01-.225-.38-.261-.704-.407-1.151-.027-.083-.253-.255-.215-.452.042-.216.584-.24.31-.58-.111-.138-.79-.085-.6-.496-.304-.512-.358-1.082-.695-1.582-.015-.023-.214-.031-.236-.09-.032-.087.026-.167.005-.23-.084-.266-.248-.474-.341-.725-.035-.096.059-.097.016-.21-.042-.114-.179-.145-.191-.318-.009-.13.16-.336.122-.498-.216.083-.255-.023-.389-.186-.026-.03-.084.038-.1.025-.067-.053-.032-.142-.1-.19-.018-.011-.09.018-.108.01-.154-.066-.066-.316-.05-.359.059-.165-.06-.181-.055-.29.005-.11.115.005.097-.113-.039-.244-.17-.525-.26-.752-.036-.09-.108.012-.116 0-.101-.176-.076-.407-.313-.43.448-.337-.095-.092-.105-.4 0-.024.225-.15.294-.083s.044.219.145.308c.024.021.309.08.33.095.173.118-.172.288-.188.305-.17.184.147.27.184.311.168.192.197.402.328.566.086.107.323.022.356.121.109.328-.169.574.237.757.086.039.313-.13.21.183-.007.02-.118.266.038.317.02.006.094-.025.107-.011.086.093.057.19.135.298s.18.233.212.38c.02.089-.075.251-.092.305-.05.151.159.204.07.322-.09.119-.326.058-.326.272.195-.074.398-.14.596-.21.16.4.262.819.438 1.214.022.05.103-.044.13.007.11.217.119.444.246.663.098.17.29.322.397.498-.171.207.02.454.086.665.023.074-.037.094-.035.153.01.22.166.049.218.088.225.168-.206.373-.083.632.006.014.312.086.337.103.158.11-.071.06-.049.16.041.185.035.327.19.498.044.05.25.128.185.29-.008.02-.09.045-.089.059.018.25.263.152.398.24.135.09.049.353.017.412-.08.156-.086-.055-.1-.055-.174-.003-.09.126-.056.238-.231.117-.153.26.035.116.02-.016-.037-.09-.035-.116.273-.006.373.146.233.42-.066.129-.22.1-.065.339.07.108.214-.007.303.077.203.192.182.564.31.796.047.084.1-.04.135.016.093.15.087.32.19.465.01.013.088-.063.11-.013.175.373.258.728.428 1.123.082.191.283.509.359.71.132.35.18.83.343 1.107.105.18.18.098.279.151.193.103.095.479.078.531-.001.002-.096-.152-.105-.043-.077.095.103.042.105.043-.012.035.112.37.159.428.025.03.105-.029.117-.012q.41.6.648 1.288c.001.009-.102.041-.097.06.071.276.266.386.432.564.167.178.219.356.106.557.094.15.123.411.137.563s.215.082.224.092c.285.304.27.562.425.942.073.181.263.52.373.7.087.144.085.256.178.382.013.017.089-.042.095-.037.174.108-.069.13-.09.18-.081.178-.12.284.037.453.036.04.397.033.454.108.073.098-.053.108.026.21.007.008.072-.025.102.046.14.332.27.704.437 1.039.023.046.1-.063.134.002.16.307.32.65.418.978.024.081-.072.07-.086.096-.083.163.175.212.19.234.36.511.395 1.02.754 1.545.02.028.34.165.217.356-.008.013-.135.205.033.237.01.002.07-.108.117.01s.198.27.175.476c-.007.065-.127.27.088.346.015.005.448.072.268.263-.03.031-.27.135-.063.25.04.022.062-.065.139.007.118.11.145.32.333.433.033.02.253.063.183.222-.01.025-.103.035-.086.092.084.269.268.501.343.78.027.098-.122.117-.108.227s.078.314.185.381c.093.059.214-.09.303-.042q.022.01.04.038c.395.595.604 1.278.918 1.915.047.094.077-.02.15.116.273.502.804 1.336.89 1.853.069.415-.26.024-.165.318.046.142.351.157.375.184.239.264.252.53.433.786.037.053.1-.053.13-.007.106.154.159.35.252.502.043.068.106.016.136.083.073.162.119.314.136.501.001.017-.138-.026-.078.09.097.187.159.453.344.628.056.051.219-.036.183.161-.008.042-.222.114.034.178.042.011.416.15.343.36-.02.056-.128.232-.061.294.01.008.073-.082.117-.024.152.205.273.442.428.653.041.056.08-.084.14.001.162.235.314.557.424.815.04.095-.069.075-.073.087-.072.178.14.14.17.168.185.18.195.392.331.577.037.052.099-.035.113-.029.138.071-.061.074-.037.155.068.227.203.446.33.643.047.072.096-.068.137-.003.244.385.472.8.642 1.216.032.078-.07.076-.077.101-.06.174.192.231.228.257.164.118.134.218.229.352.462.651.917 1.523 1.273 2.186.465.862.784 1.557 1.283 2.347.032.05.1-.06.128-.017.364.552.662 1.132 1.033 1.681.03.046.083-.078.135-.007.106.144.219.341.283.514.031.084-.11.031-.077.115.077.195.186.389.311.561.054.073.078-.101.14-.002.426.679.852 1.34 1.151 2.105.02.052-.147.212-.049.29.059-.025.122-.064.181-.096.64.975 1.178 1.999 1.782 3 .026.043.083-.093.133-.012.289.471.6.91.795 1.454.02.054-.175.14-.06.264.02.022.174.219.247.25.01.003.07-.087.115-.02.259.388.497.815.69 1.243.032.069-.1.056-.078.106.152.352.438.66.548 1.02.073.24-.128.259-.212.463-.012.029.064.158-.02.22-.212.155-.494.244-.715.416-.048.037.113.174-.073.15-.013-.003-.13-.101-.192-.106-.042-.003-.108.09-.172.07s-.018-.115-.106-.16c-.089-.044-.171.05-.273-.085M48.753 4.62c-.036.163.308.026.168-.068a.8.8 0 0 0-.168.068m-6.5-14.794c-.083.224.185.242.253.08.069-.163-.228-.148-.253-.08m-.808-1.625c-.04.238.456.065.274-.096-.01-.01-.272.082-.274.096m29.593 56.676a.4.4 0 0 0 .055.098c.13-.013.025-.202-.055-.098M40.633-13.41c-.04.087.106.225.157.118.04-.087-.105-.225-.157-.117m10.744 24.495c-.004.004.026.076.053.061.088-.049.015-.133-.053-.06M39.455-16.229c.155.424-.14.843-.283.37-.026-.085.2.125.194.005-.014-.219-.319-.242-.265-.493.01-.046.346.093.355.118m8.926 21.104a.4.4 0 0 0 .043.104c.13.004.049-.196-.043-.104M53.2 15.23c-.007.01.099.236.111.239.23.027.018-.43-.111-.24M45.187-1.614c-.156-.06-.224-.183-.125-.328.039.11.084.218.125.328M51.211 43.815c-.296-.237-.632-.604-.872-.898-.076-.092.013-.098-.037-.163-.098-.129-.228-.208-.321-.338-.03-.044.088-.074.054-.118-.186-.24-.41-.417-.615-.642-1.01-1.11-2.049-2.152-3.114-3.23-.352-.356-.727-.843-1.13-1.168-.046-.038-.083.053-.096.05-.21-.04-.04-.132-.108-.23a5.3 5.3 0 0 0-.99-1.038c-.149-.12-.135.142-.204-.063-.005-.015.097-.051.066-.095-.07-.099-.245-.241-.306-.31-.118-.133-.14-.153-.26-.269-.165-.16-.33-.382-.523-.535-.041-.033-.06.087-.131.041a1.2 1.2 0 0 1-.266-.272c-.037-.069.04-.103.042-.125.025-.185-.304-.21-.332-.229-.496-.35-.788-.791-1.197-1.18-.311-.295-.67-.582-.962-.867-.347-.34-.608-.662-.957-.98-.036-.034-.075.091-.12.05a13.5 13.5 0 0 1-1.345-1.387c-.041-.05.09-.067.052-.122-.227-.333-.54-.91-1.018-.747-.182-.197-.404-.434-.516-.664-.072-.148.114-.126-.056-.222-.039-.022-.066.088-.118.05-.22-.16-.412-.386-.64-.534-.047-.03-.096.044-.118.045-.182.004-.192-.297-.216-.341-.18-.329-.4-.476-.64-.707-.055-.054-.07.094-.126.046a6.5 6.5 0 0 1-.81-.834c-.053-.066.072-.086.05-.121-.096-.156-.255-.046-.35-.192-.02-.03.054-.079.056-.09.028-.178-.18-.087-.203-.102-.284-.183-.287-.488-.541-.686-.03-.024-.043.114-.124.043a14 14 0 0 1-1.528-1.572c-.07-.086.043-.09.044-.102.027-.192-.172-.09-.203-.11-.246-.154-.317-.465-.63-.417-.813-.893-1.78-1.617-2.491-2.604-.01-.012.082-.069.063-.093-.224-.294-.285-.128-.596-.152-.078-.006-.048-.306-.048-.33.001-.088.152-.157.146-.18-.052-.184-.384.204-.546.05-.004-.005.082-.053.075-.073-.022-.06-.09-.074-.109-.136-.043-.144.095-.356-.15-.388-.03-.004-.202.232-.337.085-.053-.059-.311-.297-.37-.379-.058-.081.055-.102.053-.11-.107-.272 0-.24.03-.463s-.243.116-.316.114c-.072-.003-.143-.21-.153-.269-.01-.058.074-.06.057-.104-.114-.289-.238.071-.353.057-.27-.032-.172-.383-.296-.544-.033-.043-.052.04-.091.012-.157-.112-.17-.264-.392-.347-.036-.014-.296.005-.28-.176.002-.026.09-.052.043-.122a1.4 1.4 0 0 0-.329-.337c-.084-.052-.095.12-.154.006-.027-.05.099-.037.045-.127s-.243-.265-.316-.331-.103.044-.114.043a.9.9 0 0 1-.243-.11c-.615-.57-1.06-1.224-1.689-1.746-.05-.04-.091.065-.1.06-.189-.12.13-.204.084-.377-.132.17-.17.08-.299-.01-.062-.042-.09.046-.1.047-.167.016-.11-.155-.102-.193.032-.14-.126-.09-.105-.183.02-.093.186-.102.077-.202-.083.027-.141.248-.245.194-.393-.203-.858-.863-1.094-1.11-.235-.246-.325-.312-.45-.469-.225-.283-.232-.084-.44-.188-.209-.105.122-.295.153-.375.031-.078-.05-.043-.048-.102s.1-.038.044-.113c-.055-.075-.333-.147-.414-.11-.17.08-.214.29-.346.076-.007-.013.092-.051.06-.095-.257-.347-.574-.654-.837-.995-.036-.046.076-.088.056-.116-.21-.294-.242-.076-.521-.064.215-.163.25-.356.057-.542-.117-.112-.177-.008-.31-.02-.039-.004-.067-.141-.12-.116-.172.083-.233.303-.378.054-.006-.01.09-.055.063-.089-.17-.215-.323-.101-.551-.287-.179-.145-.397-.51-.574-.704.211-.214-.015-.334-.23-.253-.118-.124-.26-.242-.358-.375-.035-.046.052-.084.053-.096.023-.182-.17-.087-.202-.106-.34-.218-.47-.552-.848-.705-.013-.006-.173.13-.141-.05.002-.012.158.005.034-.123s-.291-.44-.537-.542c-.06-.024-.286-.006-.283-.186 0-.024.054-.055.06-.095.018-.13-.157-.005-.098-.196s.017-.416-.249-.498c-.008-.003-.166.077-.221.021-.088-.09-.193-.237-.289-.327-.046-.043-.088.06-.097.054-.346-.248-.5-.522-.8-.863-.055-.062-.324-.124-.364-.315-.043-.21.44-.454.062-.645-.151-.078-.746.248-.728-.196-.47-.332-.733-.819-1.228-1.126-.022-.014-.205.061-.247.018-.062-.065-.04-.16-.082-.208C7.58.642 7.354.525 7.174.34 7.106.27 7.191.23 7.11.145c-.081-.084-.217-.054-.293-.204-.058-.113.017-.365-.08-.494-.163.163-.239.085-.421-.005-.035-.017-.062.07-.081.064-.08-.02-.083-.113-.164-.127-.019-.004-.074.053-.093.053-.164.005-.179-.254-.181-.3-.01-.17-.123-.136-.16-.236s.106-.043.044-.14c-.128-.202-.352-.397-.52-.562-.067-.065-.094.055-.105.048-.159-.115-.224-.331-.447-.253.277-.486-.12-.043-.247-.312-.01-.022.147-.227.234-.197s.124.177.248.214c.03.01.31-.056.336-.052.2.033-.046.328-.055.35-.083.234.236.18.285.201.225.1.33.276.512.367.118.06.3-.113.367-.039.223.247.066.581.502.576.093 0 .234-.245.26.077.001.02-.006.286.155.267.02-.003.075-.061.092-.054.113.047.124.146.236.21.111.063.251.133.336.251.05.07.027.255.032.31.012.156.22.116.185.258s-.273.186-.192.377c.148-.146.307-.29.46-.433.296.292.547.623.856.904.038.034.077-.083.12-.048.182.148.275.347.473.491.153.111.384.168.547.281-.077.256.19.398.329.56.048.056.001.099.025.15.091.193.169-.024.231-.01.267.059-.046.418.162.6.01.01.315-.052.344-.046.184.033-.042.082.016.163.106.148.154.278.357.368.06.026.275.013.277.183 0 .023-.064.078-.058.09.109.216.295.029.45.054s.176.295.17.361c-.016.172-.1-.014-.113-.008-.158.068-.033.149.039.236-.167.198-.043.295.075.089.013-.023-.067-.065-.075-.09.246-.115.393-.02.367.282-.012.142-.162.178.067.33.103.069.191-.093.303-.053.256.09.374.432.577.588.074.057.076-.075.128-.039.14.097.197.252.345.34.014.009.057-.091.096-.056.296.265.502.551.801.838.145.139.444.345.586.496.248.262.467.675.715.86.16.122.2.018.31.027.212.016.259.393.262.448 0 .001-.142-.1-.111.001-.037.116.109-.002.11-.001.003.035.237.29.3.322.034.018.086-.066.102-.055.394.255.746.555 1.053.91.005.007-.078.077-.067.092.163.222.38.245.596.342s.326.238.294.464c.138.099.257.325.323.457.067.131.226-.008.238-.002.368.166.445.405.719.692.13.136.421.371.585.495.13.097.166.2.295.28.017.01.067-.072.074-.07.198.033-.018.144-.021.197-.013.193-.012.304.19.399.046.022.377-.119.455-.071.1.062-.013.117.095.18.01.006.058-.049.11.005.242.25.488.542.755.786.036.033.07-.094.124-.047.252.22.515.476.714.74.049.065-.044.09-.048.119-.022.18.233.13.254.145.503.337.702.79 1.206 1.144.028.019.369.03.317.25-.003.014-.059.236.107.206.01-.002.03-.124.112-.032.081.091.271.178.316.375.014.062-.032.293.193.288.015-.001.439-.091.332.148-.018.039-.208.218.021.252.045.006.037-.082.131-.042.145.06.237.244.448.284.037.006.255-.03.24.14-.002.028-.085.069-.051.115.163.22.407.37.563.603.055.082-.078.15-.03.246.047.097.169.263.29.29.12.025.192-.217.319-.12.551.416.954.98 1.438 1.467.071.072.066-.044.175.058.405.376 1.149.98 1.379 1.434.184.363-.238.106-.064.348.085.117.376.034.406.051.3.17.388.414.63.595.051.038.08-.08.122-.048.143.111.248.276.38.389.058.05.103-.018.15.035.115.128.2.256.269.425.006.016-.137.018-.049.108.144.145.276.374.5.48.066.03.196-.101.216.094.005.041-.177.174.081.156.043-.003.434.011.423.231-.002.058-.057.256.023.293.011.005.047-.098.104-.058.2.146.378.33.582.48.054.04.052-.103.131-.04.218.17.449.426.621.634.064.077-.044.092-.045.104-.02.189.17.089.206.107.222.113.289.308.466.442.049.037.084-.063.1-.06.148.025-.04.086.005.155.125.193.31.359.482.505.063.054.073-.092.13-.043.332.29.656.613.925.954.05.064-.047.091-.048.117-.011.18.242.161.283.175.186.064.183.167.307.265.606.478 1.259 1.168 1.763 1.69.657.681 1.133 1.246 1.8 1.852.043.039.08-.085.118-.053.481.42.905.885 1.391 1.301.04.034.06-.097.127-.044.136.106.29.261.393.407.05.07-.097.06-.045.13.12.163.27.316.43.444.069.055.05-.117.133-.04.568.524 1.13 1.033 1.597 1.675.032.044-.09.241.022.288.05-.04.1-.094.15-.14.839.748 1.591 1.572 2.4 2.357.034.033.057-.11.123-.047.385.369.783.7 1.096 1.163.03.045-.135.18.002.266.025.015.218.16.295.17.01 0 .047-.101.105-.05.336.299.661.64.945.992.046.057-.083.08-.05.121.226.293.57.509.757.819.125.207-.063.28-.096.495-.005.03.097.133.031.213-.166.203-.414.362-.586.584-.037.048.149.135-.035.16-.012.002-.147-.06-.206-.048-.041.008-.083.115-.148.112-.066-.002-.044-.103-.138-.122s-.152.093-.28-.009M20.037 11.873c.023.162.292-.093.13-.125a1 1 0 0 0-.13.125M8.707 1.183c.009.235.258.14.259-.033 0-.173-.263-.038-.26.033M7.359.067c.054.229.438-.13.213-.198a1.2 1.2 0 0 0-.213.198M52.12 42.564c-.002.005.07.08.075.079.121-.047-.023-.198-.075-.079M6.015-1.032c-.005.094.18.156.186.04.004-.094-.18-.157-.186-.04m18.617 17.819c-.002.005.048.06.069.037.065-.077-.03-.128-.069-.037M3.877-3.056c.302.314.194.81-.115.448-.057-.065.229.027.177-.076-.096-.19-.38-.083-.427-.33-.008-.044.349-.06.366-.042m15.907 15.302c-.002.006.07.08.075.079.122-.047-.023-.197-.075-.079m7.847 7.707a1 1 0 0 0 .176.183c.223-.054-.114-.402-.176-.183M14.554 7.648c-.163.008-.27-.074-.233-.244.075.083.156.162.233.244M178.042 135.644l71.711-70.297v70.297z"/><path fill="#fff" d="M216.724 124.288q-.938.939-2.012 1.218a3.8 3.8 0 0 1-2.147-.08q-1.07-.354-1.996-1.282-.937-.94-1.284-2.009a3.8 3.8 0 0 1-.071-2.149q.27-1.075 1.196-2.002.8-.8 1.69-1.111a3.3 3.3 0 0 1 1.765-.135q.875.175 1.619.848l-1.599 1.6q-.525-.39-1.093-.378-.569.004-1.034.469-.393.394-.473.904-.08.501.163 1.07t.819 1.146q.585.585 1.153.836.572.247 1.082.167.509-.08.902-.473.29-.291.402-.641.115-.354.039-.732a1.9 1.9 0 0 0-.349-.757l1.598-1.599q.66.74.851 1.615a3.27 3.27 0 0 1-.108 1.763q-.297.896-1.113 1.712m-1.637-14.902 8.143 8.151-1.694 1.695-8.142-8.151zm10.619 5.672-6.107-6.113 1.694-1.696 6.107 6.113zm-6.043-7.753a1.3 1.3 0 0 1-.898.398 1.15 1.15 0 0 1-.875-.342 1.13 1.13 0 0 1-.334-.868q.016-.525.393-.903.378-.378.899-.39.521-.021.871.33.353.354.338.88a1.29 1.29 0 0 1-.394.895m13.092.936q-.938.939-2.012 1.218a3.8 3.8 0 0 1-2.147-.08q-1.07-.354-1.996-1.281-.938-.94-1.284-2.01a3.8 3.8 0 0 1-.071-2.149q.27-1.075 1.196-2.002.8-.8 1.69-1.111a3.3 3.3 0 0 1 1.765-.135q.875.175 1.619.848l-1.599 1.6q-.525-.39-1.093-.378-.569.004-1.034.469-.393.394-.473.904-.08.501.163 1.07t.819 1.146q.585.585 1.153.836.572.247 1.082.167.509-.08.902-.473a1.6 1.6 0 0 0 .402-.641q.115-.354.039-.732a1.86 1.86 0 0 0-.349-.756l1.598-1.6q.66.74.851 1.615a3.27 3.27 0 0 1-.108 1.764q-.297.895-1.113 1.711m4.59-8.351-2.028-2.038.247-.247-.362-4.278 1.944-1.946.441 5.703-.401.402zm.222 3.295-8.142-8.15 1.693-1.696 8.143 8.151zm3.817-3.82-4.457-.864-.067-2.328 6.508 1.206z"/><circle cx="41.089" cy="43.564" r="3.96" fill="#FF61B0"/></g><path stroke="gold" stroke-width="2.475" d="M1.238 1.238h247.525v133.168H1.238z"/><defs><clipPath id="a"><path fill="#fff" d="M0 0h250v135.644H0z"/></clipPath></defs></svg>