<svg width="989" height="525" viewBox="0 0 989 525" fill="none" xmlns="http://www.w3.org/2000/svg">
<path d="M952.866 0L988.197 23.2237L988.197 525H0.203279L0.203125 23.2237L35.487 0L70.7708 23.2237L106.055 0L141.338 23.2237L176.622 0L211.906 23.2237L247.19 0L282.474 23.2237L317.758 0L353.041 23.2237L388.325 0L423.609 23.2237C435.042 16.8979 454.925 5.40317 458.893 1.41098C458.005 0.517654 457.914 0 458.893 0C459.872 0 459.781 0.517654 458.893 1.41098C462.861 5.40317 482.743 16.8979 494.177 23.2237L529.46 0L564.744 23.2237L600.028 0L635.312 23.2237L670.596 0L705.879 23.2237L741.163 0L776.447 23.2237L811.731 0L847.015 23.2237L882.299 0L917.582 23.2237L952.866 0Z" fill="#D6F6DC"/>
</svg>
