<svg width="150" height="150" viewBox="0 0 150 150" fill="none" xmlns="http://www.w3.org/2000/svg">
<g clip-path="url(#clip0_1875_547)">
<path d="M131.155 82.2858C133.797 71.2516 139.004 48.8488 138.696 47.5121L95.9638 51.8264C90.9419 61.7403 80.6214 82.7151 79.5144 87.3028C78.4075 91.8905 91.3548 113.18 97.9668 123.251L137.06 118.423C132.298 114.215 131.139 92.5784 131.155 82.2858Z" fill="#FF8457"/>
<mask id="mask0_1875_547" style="mask-type:alpha" maskUnits="userSpaceOnUse" x="79" y="47" width="61" height="76">
<path d="M131.48 81.9655C134.123 70.9312 139.33 48.5285 139.022 47.1918L96.2896 51.506C91.2677 61.42 80.9472 82.3948 79.8402 86.9825C78.7333 91.5702 91.6806 112.86 98.2926 122.931L137.386 118.103C132.624 113.895 131.465 92.2581 131.48 81.9655Z" fill="#C075E3"/>
</mask>
<g mask="url(#mask0_1875_547)">
<path d="M120.212 104.738C120.803 104.775 119.214 105.393 120.413 105.273C120.221 105.406 120.042 105.544 119.878 105.682C119.743 105.564 119.604 105.45 119.464 105.338C119.685 105.134 119.937 104.932 120.212 104.737C120.212 104.737 120.212 104.737 120.212 104.738ZM119.739 102.59C119.59 103.186 118.718 103.792 119.952 103.669C119.964 103.478 119.98 103.285 119.999 103.093C120.435 103.038 120.877 103.003 121.314 102.984C121.435 102.873 121.557 102.764 121.684 102.656C121.958 102.872 122.227 103.094 122.489 103.321C122.318 103.327 122.142 103.336 121.972 103.347C121.423 103.776 120.911 104.03 120.191 104.427C120.285 104.457 120.38 104.488 120.474 104.52C120.051 104.588 119.639 104.675 119.246 104.784C119.471 104.506 119.767 104.2 120.034 103.952C119.32 103.778 118.588 104.523 118.317 104.883C117.94 105.374 117.896 105.129 117.676 105.5C117.645 105.559 117.77 105.673 117.7 105.767C117.549 105.967 117.385 106.225 117.268 106.419C117.19 106.538 117.131 106.604 117.058 106.623C116.989 106.638 116.892 106.623 116.818 106.443C116.836 106.389 116.856 106.333 116.878 106.273C117.173 105.472 117.757 104.523 118.885 103.96C118.341 103.767 118.844 103.219 119.739 102.59ZM127.151 97.6291C127.385 98.0354 127.261 98.9307 127.052 99.5343C127.052 99.5351 127.052 99.5358 127.051 99.5365C127.006 99.67 126.684 99.9489 126.734 99.5101C126.813 98.8037 127.289 98.4859 126.98 98.1179C127.042 97.9595 127.095 97.7933 127.151 97.6291ZM127.012 96.2773C127.058 95.9174 127.443 95.9842 127.417 96.4801C127.417 96.4801 127.417 96.48 127.418 96.48C127.4 96.6905 127.091 96.3099 127.435 97.0218C127.227 97.1902 127.034 97.3489 126.826 97.5033C126.817 97.3228 126.804 97.1613 126.788 96.9826C127.155 97.0792 126.961 96.6365 127.012 96.2773ZM116.973 106.765C117.3 106.762 117.286 106.723 117.536 106.643C117.496 106.772 117.506 106.754 117.483 106.732C117.326 106.803 117.147 106.821 116.973 106.765ZM124.596 102.388C124.597 102.387 124.597 102.387 124.598 102.387C124.739 102.309 124.883 102.231 125.025 102.156C125.135 102.255 125.243 102.354 125.351 102.453C125.645 102.344 125.943 102.24 126.244 102.14C126.401 102.074 126.561 102.018 126.729 101.975C126.697 102.168 126.493 102.232 126.267 102.326C125.979 102.415 125.658 102.511 125.438 102.659C124.645 102.677 124.233 102.561 124.12 102.276C124.279 102.312 124.437 102.35 124.596 102.388ZM110.479 59.9275C110.29 59.8322 110.101 59.7467 109.912 59.6674C110.027 59.882 110.144 60.0955 110.24 60.3236C110.949 60.6134 110.678 60.8742 111.1 61.5971C112.27 63.8952 112.641 63.1319 112.371 65.6731C111.912 63.8298 111.664 64.6521 110.977 63.7385C111.146 63.4209 112.093 64.272 111.952 63.5108C111.224 62.3608 110.446 61.3645 109.499 60.3995C109.485 60.4584 109.471 60.517 109.457 60.5755C109.606 60.7293 109.746 60.8818 109.887 61.0467C109.658 60.9191 109.434 60.8105 109.2 60.7041C109.596 60.7656 109.033 60.2797 109.342 60.1581C109.481 60.1009 109.845 60.2451 110.077 60.3378C109.971 60.1348 109.858 59.9354 109.739 59.7406C109.56 59.4548 109.377 59.1699 109.195 58.8868C109.475 59.0439 109.755 59.2027 110.032 59.3629C110.056 59.3906 110.079 59.4183 110.102 59.446C110.231 59.6003 110.355 59.759 110.478 59.9232C110.478 59.9246 110.479 59.926 110.479 59.9275ZM91.8823 117.045C91.1301 116.787 90.1479 115.897 89.9274 115.143C90.5705 115.786 91.2237 116.42 91.8823 117.045ZM124.019 102.045C124.108 102.085 124.193 102.125 124.281 102.165C123.962 102.335 123.647 102.512 123.343 102.694C123.241 102.55 123.136 102.408 123.03 102.266C123.357 102.185 123.687 102.112 124.019 102.045ZM124.675 104.804C124.473 104.936 124.453 104.943 124.176 105.071C124.176 105.071 124.176 105.071 124.177 105.071C124.072 105.128 123.113 105.505 123.158 105.338C123.616 105.114 124.09 104.866 124.515 104.61C124.57 104.673 124.616 104.742 124.675 104.804ZM118.999 107.218C118.999 107.218 118.998 107.218 118.997 107.218C118.804 107.267 118.614 107.295 118.418 107.357C119.046 106.92 119.276 107.216 119.865 106.89C120.452 106.562 120.753 106.235 121.451 106.479C121.286 106.625 121.117 106.805 120.947 106.962C119.999 107.12 119.825 107.377 119.171 107.82C119.114 107.619 119.057 107.419 118.999 107.218ZM112.833 71.3309C113.087 71.49 112.865 71.708 112.864 71.7286C112.864 71.7283 112.863 71.7279 112.863 71.7275C113.183 73.293 112.725 71.5271 112.765 73.0229C112.695 72.8033 112.62 72.5866 112.547 72.3723C112.644 72.0305 112.752 71.6695 112.833 71.3309ZM100.322 93.4166C100.392 93.4276 100.463 93.4371 100.534 93.4491C100.497 93.5488 100.475 93.6401 100.462 93.7215C100.371 94.2611 100.485 94.5148 100.185 95.0451C100.193 94.5862 100.226 94.1273 100.286 93.6742C100.295 93.5896 100.307 93.503 100.321 93.4163C100.322 93.4164 100.322 93.4165 100.322 93.4166ZM127.673 102.476C127.509 103.242 127.097 103.832 126.316 104.235C126.315 104.235 126.314 104.235 126.314 104.235C126.269 104.258 126.349 103.991 126.276 104.006C126.163 104.137 126.047 104.277 125.921 104.409C125.829 104.331 125.739 104.252 125.65 104.173C126.057 103.903 126.425 103.61 126.732 103.292C126.637 103.299 126.543 103.303 126.449 103.304C126.668 103.009 126.829 102.713 126.929 102.428C127.057 102.607 127.168 102.805 127.262 103.018C127.417 102.849 127.554 102.668 127.673 102.476ZM103.795 104.156C103.646 104.098 103.885 103.938 103.665 103.899C103.453 103.861 103.059 104.01 103.149 103.792C103.433 103.759 103.72 103.698 103.977 103.618C103.094 103.403 102.167 103.591 102.224 103.115C103.027 103.361 103.776 103.255 104.317 102.921C104.47 103.293 103.732 103.81 104.334 104.036C104.162 104.086 103.974 104.129 103.797 104.155C103.797 104.155 103.796 104.156 103.795 104.156ZM138.382 107.111C138.494 107.615 138.688 108.516 138.689 109.403C138.69 110.173 138.615 110.637 138.516 110.835C138.454 110.949 137.767 111.275 137.68 111.306C137.364 111.355 137.275 110.855 137.123 111.404C137.097 111.228 137.075 111.054 137.072 110.837C136.859 110.873 136.647 110.913 136.436 110.955C136.471 111.237 136.529 111.484 136.614 111.729C136.548 111.756 136.482 111.784 136.417 111.812C136.263 110.849 136.077 111.463 135.796 110.901C135.665 111.444 135.627 112.007 135.699 112.597C135.602 112.278 135.523 111.896 135.505 111.609C135.132 111.615 135.357 112.322 135.343 112.456C135.288 112.822 134.996 112.279 134.859 111.471C134.724 110.658 134.785 109.722 134.568 109.427C134.536 109.376 134.499 109.34 134.459 109.322C134.455 109.357 134.452 109.393 134.448 109.428C134.4 109.892 134.278 110.436 134.238 111.07C134.169 110.878 134.108 110.683 134.051 110.499C134.167 110.106 134.278 109.761 134.346 109.428C134.534 108.549 134.415 107.558 134.081 106.542C134.009 106.431 133.933 106.322 133.857 106.215C133.734 106.329 133.61 106.438 133.484 106.547C133.439 106.481 133.393 106.416 133.346 106.35L133.402 106.436C133.323 106.347 133.244 106.257 133.165 106.169C133.952 106.343 133.466 105.663 133.086 104.658C133.575 104.969 133.887 105.584 134.14 105.337C132.817 103.993 131.618 101.987 129.849 101.231C129.413 101.065 129.211 101.409 128.314 101.006C128.362 100.97 128.399 100.888 128.443 100.835C127.518 100.617 126.791 100.658 126.074 100.769C125.383 100.879 124.674 100.96 123.778 101.041C123.919 101.177 124.056 101.316 124.193 101.455C124.565 101.299 124.943 101.15 125.325 101.01C125.604 101.217 125.318 101.373 126.138 101.284C126.208 101.277 126.287 101.27 126.376 101.263C127.182 101.245 126.705 101.139 126.934 101.064C127.259 100.978 127.494 101.233 127.846 101.204C128.125 101.196 127.918 100.871 128.58 101.189C128.196 101.338 127.839 101.533 127.538 101.759C127.412 101.663 127.281 101.572 127.14 101.488C127.3 101.431 127.465 101.384 127.64 101.348C127.109 101.349 126.64 101.444 126.18 101.628C126.119 101.649 126.058 101.67 125.996 101.691C126.165 101.251 125.477 101.497 125.106 101.61C124.527 101.785 124.986 101.417 124.605 101.532C124.223 101.652 123.873 102.042 123.177 102.141C123.501 101.873 122.961 101.833 123.016 101.645C123.072 101.454 123.815 101.243 123.052 101.231C121.713 101.72 123.354 101.961 122.479 102.304C121.465 102.728 120.866 101.845 121.117 101.513C121.318 101.25 122.239 101.013 122.467 100.775C120.716 100.925 120.912 101.586 120.686 101.788C119.888 102.586 120.073 101.189 119.099 102.115C119.022 101.902 118.951 101.711 118.879 101.505C118.694 101.641 118.582 101.758 118.359 101.915C119.27 101.936 118.677 102.215 118.396 102.376C117.951 102.631 118.745 102.427 118.653 102.544C118.405 102.843 117.903 103.085 118.294 103.068C118.118 103.07 117.926 103.087 117.744 103.103C117.266 103.545 117.014 105.073 117.759 104.166C117.891 104.506 117.514 104.604 117.281 104.771C117.051 104.936 117.223 105.081 117.048 105.232C116.402 105.871 116.39 105.213 116.261 104.874C115.818 105.865 116.21 105.463 116.091 105.979C116.071 106.137 116.011 106.392 116.04 106.745C116.163 106.81 116.286 106.684 116.405 106.631C116.527 106.57 116.616 106.592 116.684 106.761C116.308 106.799 115.867 107.231 116.391 107.974C116.414 108.004 116.44 108.034 116.466 108.063C116.606 108.055 116.741 108.035 116.869 108.006C116.961 108.305 116.937 108.51 117.015 108.647C117.083 108.77 117.335 108.883 117.8 108.652C117.555 109.074 117.426 109.137 117.574 109.178C117.716 109.208 118.038 109.197 118.559 109.156C118.607 109.153 118.657 109.15 118.708 109.148C118.946 109.141 118.515 109.491 118.845 109.473C118.994 109.464 119.275 109.216 119.642 109.198C119.82 109.19 120.695 109.237 121.161 108.884C120.627 108.625 121.478 107.909 120.512 107.894C122.089 107.391 123.079 106.735 121.578 107.986C122.02 107.952 122.462 107.912 122.906 107.862C123.139 107.65 123.371 107.435 123.599 107.216C123.787 107.514 123.798 107.645 124.825 107.047C124.407 107.362 123.982 107.661 123.544 107.951C123.557 108.023 123.521 108.121 123.566 108.177C124.098 107.81 125.68 106.921 125.996 106.584C126.317 106.272 125.585 106.697 125.644 106.551C126.123 105.364 126.339 105.878 126.855 105.319C127.141 104.991 126.289 105.559 126.449 105.39C127.032 104.79 127.59 104.822 128.095 104.215C127.745 104.291 127.399 104.327 127.066 104.334C127.599 103.832 128.064 103.149 128.194 102.518C128.244 102.272 128.024 102.401 128.026 102.359C128.029 102.248 128.059 101.97 128.054 101.727C128.058 101.482 128.064 101.266 128.069 101.222C128.152 100.48 128.389 100.484 128.468 99.766C128.463 100.05 128.455 100.317 128.444 100.596C128.809 100.763 129.173 100.935 129.537 101.106C129.646 100.388 129.744 99.6631 129.812 98.9252C129.656 99.4584 129.484 99.9812 129.303 100.496C129.082 99.6402 128.838 98.793 128.538 97.9967C128.731 97.5862 128.909 97.1677 129.062 96.7288C128.884 95.5732 128.144 95.9954 128.682 95.3271C128.542 95.0244 128.378 94.7392 128.191 94.4871C128.296 94.4841 128.402 94.4841 128.509 94.4879C128.436 94.3734 128.357 94.264 128.275 94.1602C128.104 93.9419 127.932 93.7251 127.757 93.5124C127.714 93.8594 127.656 94.2041 127.602 94.5482C127.553 94.7122 127.494 94.869 127.43 95.019C127.356 94.8967 127.311 94.8061 127.286 94.7301C127.154 94.3971 127.292 94.2831 127.293 94.1781C127.298 93.8074 126.758 93.4233 126.771 93.1273C126.777 93.0213 127.35 93.5686 127.393 93.2282C127.409 93.1689 127.498 91.8206 126.904 91.3835C126.798 91.484 126.69 91.6354 126.582 91.7544C125.969 91.1164 126.179 90.2731 126.42 90.2102C125.964 89.9372 125.403 89.4566 125.173 89.5717C124.976 89.4119 124.775 89.2592 124.569 89.1127C125.134 88.8183 124.168 88.2554 123.847 88.6437C124.207 88.8878 124.552 89.1509 124.882 89.4321C124.272 89.7049 125.014 90.6221 123.485 89.018C123.407 88.9448 123.324 88.8659 123.235 88.7812C123.072 88.465 123.364 88.7011 123.581 88.8635C123.734 88.9777 123.848 89.0584 123.757 88.884C123.717 88.8469 123.677 88.8111 123.636 88.7765C123.114 88.3383 122.527 88.074 122.073 87.5692C121.459 86.8961 122.523 87.1999 120.579 86.4916C124.015 89.498 119.792 86.6039 117.789 86.01C117.646 85.0203 116.094 83.9155 113.586 83.5976C113.789 83.8805 114.566 83.955 114.97 84.1682C115.368 84.3781 114.871 84.3628 115.356 84.6414C115.84 84.9161 116.855 85.4864 117.281 85.8679C116.804 85.7747 114.592 85.2812 116.119 85.4539C115.159 84.8391 114.729 84.4169 113.36 84.0612C112.875 84.3516 112.865 84.529 111.577 84.4236C112.408 83.9668 110.889 83.5122 111.236 83.0048C112.268 83.1807 111.656 83.6641 112.19 83.9632C112.242 83.9864 113.156 83.9997 113.36 84.0612C112.556 83.4254 112.199 83.2268 112.89 82.7663C112.186 82.7026 111.744 82.6132 111.664 82.8703C111.526 82.7469 111.381 82.6258 111.234 82.5078C110.997 82.5048 110.784 82.5159 110.531 82.5235C110.889 82.9105 110.211 82.6771 109.763 82.9183C109.33 83.1699 109.964 83.3454 108.774 83.6083C109.191 83.5982 109.566 83.6145 109.954 83.66C109.208 83.8438 108.499 84.1307 107.87 84.5131C108.444 84.5053 109.543 84.6267 109.562 84.9599C109.232 84.8758 108.336 85.3939 108.257 85.4596C107.894 85.6598 108.012 85.3866 107.982 85.394C107.518 85.5383 107.174 85.7828 106.872 85.8883C106.735 85.941 106.607 85.9649 106.484 85.9459C106.09 86.4116 105.687 86.6181 105.198 87.0107C104.931 87.2272 105.123 87.3613 104.94 87.4531C103.744 88.0786 104.47 87.0282 102.953 89.1406C103.282 89.0441 103.61 88.9612 103.941 88.879C103.768 89.1101 103.603 89.3405 103.441 89.5736C103.288 89.6794 103.135 89.7866 102.985 89.8957C102.749 89.6526 102.514 89.4082 102.279 89.1647C102.115 89.3011 101.953 89.4407 101.795 89.5812C102.02 89.2946 102.256 89.0126 102.499 88.7351C102.483 88.6689 102.464 88.604 102.448 88.5375C101.985 88.8478 101.532 89.1718 101.09 89.5235C101.17 89.6102 101.251 89.6972 101.332 89.7837C100.414 90.5998 100.282 90.596 99.9506 91.7388C99.5734 92.3764 99.6714 93.087 99.7938 93.5424C99.815 93.6422 99.8343 93.7364 99.8484 93.8225C99.7429 93.9758 99.6392 94.1341 99.5391 94.2973C99.6126 94.4284 99.6875 94.5583 99.7648 94.6853C99.5926 94.88 99.4242 95.0863 99.2616 95.2968C99.5576 95.463 99.6271 95.5239 99.8712 94.6943C100.18 95.0451 99.8582 96.4876 99.7517 97.1147C99.6572 97.5858 99.3319 97.0652 99.2938 97.1225C99.1556 97.3256 99.3032 98.1222 99.2999 98.2888C99.267 99.0043 99.356 99.4979 99.4124 100.144C99.422 100.269 99.3022 100.659 99.3042 100.691C99.3216 100.928 99.3852 101.518 99.4045 101.582C99.4785 101.872 99.5525 102.105 99.6213 102.294C100.002 103.266 100.132 102.979 100.249 102.856C100.312 102.788 100.383 102.747 100.501 102.85C100.623 102.946 100.771 103.21 101.081 103.459C101.103 103.332 101.142 103.215 101.19 103.102C101.27 103.164 101.351 103.208 101.461 103.249C101.577 103.395 101.304 103.501 101.724 103.472C101.665 103.605 101.601 103.737 101.532 103.866C101.584 103.861 101.636 103.855 101.688 103.848C101.875 103.828 102.061 103.801 102.25 103.767C102.548 104.359 104.043 104.391 104.041 104.943C104.051 105.169 102.835 105.441 103.496 105.619C104.043 105.618 103.654 105.411 103.869 105.378C105.385 105.034 105.413 105.229 105.987 104.849C106.007 104.671 106.02 104.489 106.019 104.313C106.099 104.275 106.178 104.235 106.257 104.191C106.381 104.124 106.508 104.056 106.633 103.987C106.613 103.88 106.593 103.772 106.572 103.666C106.424 103.78 106.257 103.908 106.115 104.016C106.099 104.028 106.084 104.039 106.069 104.05C106.068 104.027 106.072 104.001 106.08 103.973C106.227 103.442 107.755 101.949 107.29 102.747C107.092 103.092 106.519 103.494 107.139 103.549C107.603 103.08 108.123 102.536 108.573 102.005C108.654 102.057 108.735 102.111 108.817 102.162C109.44 101.446 108.564 101.797 108.427 101.647C108.571 101.495 108.715 101.34 108.854 101.183C108.982 101.18 109.109 101.183 109.238 101.172C109.135 101.066 108.969 100.761 109.459 100.368C109.774 100.107 109.665 100.838 110.105 100.194C109.884 100.103 109.516 100.152 109.947 99.4345C110.188 99.5043 110.433 99.5316 110.677 99.6154C111.08 98.591 111.653 98.3315 111.929 97.0537C112.103 96.2347 111.847 95.0667 112.859 94.8029C113.031 94.2321 112.759 94.3641 112.751 94.183C112.697 93.3427 113.214 92.8198 113.265 92.6713C113.32 92.5043 113.362 92.3496 113.395 92.2043C113.543 91.555 113.526 91.1428 113.776 90.5194C113.602 90.5404 113.44 90.5431 113.271 90.556C113.403 91.1727 113.385 91.5255 113.269 92.1871C113.243 92.3334 113.212 92.4926 113.174 92.6687C113.183 92.5069 113.191 92.3431 113.197 92.1773C113.203 91.998 113.209 91.8188 113.215 91.6398C113.071 91.6767 112.927 91.7129 112.784 91.7476C112.789 91.8794 112.793 92.0044 112.795 92.1227C112.762 94.6139 112.228 94.0206 112.294 92.0546C112.296 91.8682 112.304 91.6694 112.317 91.4592C112.599 91.2692 112.881 91.0703 113.164 90.8812C112.974 89.3277 113.394 88.6637 113.661 86.9666C113.693 86.7635 113.624 86.0112 113.648 85.6931C113.646 85.6983 113.645 85.7035 113.643 85.7087C113.424 85.4869 113.287 85.7439 113.07 85.7542C113.06 85.5795 113.051 85.4051 113.04 85.2312C113.24 84.8639 113.362 85.0132 113.392 84.2539C113.22 84.3412 113.049 84.4271 112.877 84.5138C112.947 83.6875 113.168 83.1646 113.149 82.391C113.201 82.5242 113.253 82.6562 113.305 82.7902C113.586 81.1323 114.448 82.5276 114.057 81.226C114.146 81.1507 114.235 81.0774 114.323 81.0018C114.312 81.5242 114.295 82.0576 114.277 82.5779C114.394 82.5974 114.511 82.6179 114.628 82.6353C114.635 82.0738 114.638 81.4988 114.636 80.9376C114.691 81.3517 114.743 81.7703 114.792 82.1899C114.896 81.5365 114.994 80.889 115.086 80.2342C114.613 80.9057 114.609 80.0019 114.169 80.1488C114.585 79.018 115.104 78.1177 114.82 76.3124C114.761 75.9552 114.463 76.1455 114.825 75.1374C114.349 75.3849 114.106 74.1254 113.651 74.3002C113.681 74.6431 113.699 75.0094 113.728 75.3416C113.884 74.9609 114.319 74.8889 114.452 75.4738C114.621 76.228 114.298 77.3152 114.782 77.2824C114.753 77.5835 114.732 77.8591 114.704 78.1512C114.588 78.0272 114.471 77.9064 114.354 77.7861C114.519 78.6198 114.434 79.1364 114.114 79.5205C114.091 78.5343 114.052 77.5565 113.995 76.5729C113.973 76.7165 113.95 76.8624 113.928 77.0066C113.628 76.2607 113.333 77.0222 113.272 75.648C113.413 75.6562 113.554 75.6628 113.696 75.6712C113.323 75.1734 113.295 73.811 112.87 74.2552C112.994 73.8473 113.075 73.7545 112.833 73.5325C113.125 72.4499 113.487 71.7213 114.01 72.0777C113.906 71.6792 113.795 71.2713 113.681 70.8817C113.565 71.1248 113.449 71.3679 113.329 71.6106C113.288 70.912 113.231 70.2115 113.155 69.5184C113.553 69.4049 113.421 70.8452 113.737 70.4027C113.801 70.3127 113.608 69.9519 113.637 69.8501C113.954 68.7469 113.826 70.4343 114.125 70.0884C114.043 68.5025 114.787 69.6847 113.98 67.5797C114.085 67.5024 114.191 67.4199 114.295 67.346C114.163 66.5889 113.915 66.6963 113.727 66.0684C113.608 65.6784 113.93 65.0574 113.5 64.6956C113.418 64.6406 113.102 65.5006 112.662 63.9923C112.285 62.8374 112.82 63.1723 112.707 62.4946C112.588 61.7813 111.391 60.6848 111.655 59.9758C111.782 60.328 111.974 60.7484 112.096 61.1312C112.279 61.2171 112.458 61.3054 112.639 61.4004C112.104 60.6421 111.743 59.7147 111.136 59.3839C111.076 59.1785 110.99 58.9846 110.886 58.8092C110.377 57.9338 109.524 57.4921 109.4 57.9947C109.708 58.2458 109.601 57.7796 109.844 58.2852C109.79 58.403 109.738 58.5226 109.683 58.6401C109.106 57.9245 108.68 57.4464 109.226 57.5306C109.139 57.4165 109.052 57.3035 108.964 57.1897C108.752 57.3402 108.542 57.4938 108.331 57.6448C108.198 57.5365 108.064 57.4285 107.93 57.3214C107.847 57.1432 107.764 56.9645 107.679 56.7849C108.151 56.7012 108.467 57.0173 107.647 55.7882C107.541 55.8812 107.433 55.9725 107.327 56.0656C106.626 55.0605 106.852 54.7907 105.745 53.7223C106.939 54.1982 106.76 55.2802 107.466 54.5922C107.627 54.8528 107.786 55.1156 107.943 55.3781C108.078 55.3139 108.213 55.2495 108.347 55.1843C107.195 54.0296 104.638 52.8799 104.233 51.7277C104.085 51.6995 103.943 51.6644 103.79 51.6412C103.224 50.672 102.347 51.0485 101.793 50.0259C101.73 49.9221 102.408 49.4115 101.221 48.6171C101.192 48.7221 101.109 48.8751 101.059 48.9982C100.843 48.773 100.628 48.5493 100.407 48.3291C100.309 48.3788 100.209 48.4274 100.111 48.4785C100.529 48.7899 100.934 49.11 101.334 49.4391C100.965 49.2173 100.59 49.0008 100.214 48.7946C100.595 49.2302 100.797 49.3746 100.382 49.3929C99.9772 49.1381 99.5657 48.8928 99.1486 48.6571C99.0734 48.6861 98.9984 48.7162 98.9237 48.7458C99.0227 49.0269 99.1219 49.3067 99.2085 49.5899C98.2638 48.8086 97.3403 48.3018 96.6473 47.5604C96.527 47.4369 97.155 47.4452 96.0538 47.1942C96.0908 47.0671 96.106 46.9575 96.1364 46.8385C94.7287 46.6479 94.3776 46.4004 93.0634 45.7595C93.8918 46.2446 93.1369 45.8651 92.8769 45.9377C92.6998 45.9855 93.3062 46.1315 93.212 46.2068C93.1146 46.2756 92.2567 46.4521 92.896 46.6651C94.7184 46.3747 94.8617 47.4004 96.9316 47.9643C96.59 47.9085 96.2487 47.8606 95.9089 47.8209C96.0213 47.9461 96.1202 48.0596 96.238 48.1953C95.2341 47.5718 95.7101 47.8992 95.2226 47.8234C94.7343 47.7506 93.8909 47.5532 93.3331 47.4236C93.157 47.3823 93.3917 47.2654 93.0014 47.1369C92.8882 47.1002 92.6778 47.089 92.4672 47.0667C92.1736 47.0341 91.874 46.9757 91.813 46.7796C91.736 46.5572 93.1193 46.3028 91.3828 45.9132C91.0954 45.65 91.9196 45.8904 91.9424 45.8736C92.1499 45.6789 91.1027 45.2642 90.5643 45.3503C90.5215 45.3578 90.8821 45.6116 90.4399 45.6012C89.3944 45.584 88.8436 45.301 88.2022 44.9416C88.0887 45.2642 87.1957 45.5549 86.1381 45.3901C86.0796 45.4829 86.0241 45.5768 85.9667 45.6706C86.133 45.626 86.2986 45.5835 86.4672 45.5421C86.6445 45.6111 86.8312 45.6665 87.0009 45.7494C85.9303 45.7601 85.7699 46.2272 85.2735 46.3862C83.5993 46.9752 84.5796 45.7534 84.9053 45.5397C85.1332 45.6224 85.3529 45.718 85.5744 45.8109C85.5518 45.6948 85.5284 45.5778 85.5073 45.461C82.8706 45.4896 85.1 44.6967 83.7187 44.5291C83.3873 45.1185 82.4248 45.2256 81.1006 45.0836C80.9608 45.1102 80.8192 45.1363 80.6801 45.1662C80.6724 45.2521 80.6964 45.3767 80.6692 45.4376C79.2013 45.8329 78.7082 45.1065 78.5358 45.06C77.7832 44.8923 77.4405 45.5527 77.2618 45.6205C76.4939 45.9177 76.1811 45.8012 75.4978 46.2086C74.7708 46.6588 75.3718 46.5731 75.2068 46.8218C75.0742 47.0192 74.5028 47.3322 74.326 47.5758C74.3709 47.4327 74.4287 47.2859 74.4758 47.143C73.8441 47.3515 73.3017 47.5401 72.6996 47.8447C72.5067 47.942 72.2791 48.0836 72.0844 48.2218C71.657 49.5167 70.1589 49.2575 71.1495 49.7361C71.8591 49.1424 72.355 48.9015 72.8888 48.8452C72.438 49.2097 72.0227 49.6205 71.6197 50.0583C71.4196 50.0927 71.2537 50.0996 71.0214 50.17C70.8885 50.6463 70.1154 51.3629 69.9253 51.7158C69.0088 53.4174 69.7191 53.1681 68.1681 54.198C68.8085 53.1234 68.5284 52.9286 69.3319 51.9604C68.9767 52.0161 68.6207 52.5744 68.6443 52.0596C67.9707 53.0851 68.4167 52.9309 68.3377 53.4408C68.2677 53.8859 67.8397 54.5702 68.0834 54.6713C67.9193 54.6647 67.7686 54.6458 67.6038 54.6417C67.1928 55.3012 66.8019 55.9816 66.4399 56.6728C66.4609 56.3142 66.4955 55.9408 66.5321 55.5775C66.3584 55.7701 66.1845 55.9697 66.0135 56.1703C65.4588 58.0598 63.5237 60.9224 64.8094 60.8087C64.5433 61.6938 64.3811 61.7543 64.0243 62.1808C64.0933 62.2587 64.1487 62.3306 64.2278 62.4104C63.9764 62.9585 64.1852 63.4845 63.9878 63.9707C63.7918 64.4627 63.4641 64.5329 63.9635 64.7074C63.7518 65.0072 63.5699 65.3215 63.3801 65.6341C63.4667 65.8539 63.5547 66.0716 63.6463 66.2856C63.5434 66.5928 63.4468 66.8993 63.3556 67.2107C63.5825 67.4027 63.394 68.6348 63.5665 69.1835C63.2994 69.6933 62.4274 69.7027 62.6484 70.9617C62.8566 70.9154 63.0643 70.8704 63.2727 70.8259C63.2459 71.1107 63.2247 71.3991 63.2084 71.6857C63.1416 71.7093 63.0746 71.7308 63.0079 71.7547C63.0146 71.6071 63.0228 71.463 63.033 71.3159C62.9272 71.4515 62.8228 71.585 62.7191 71.7218C62.9331 72.143 63.1599 72.5633 63.3959 72.9622C63.4364 72.369 63.4987 71.7673 63.5849 71.1866C63.7959 71.8879 63.7065 72.4125 63.9733 72.9996C63.7753 73.5835 63.5789 73.4212 63.229 73.2463C63.2896 73.4476 63.3528 73.6529 63.4188 73.8519C63.0877 73.7766 62.9481 74.163 62.7766 72.9342C62.7 73.0314 62.6285 73.1308 62.5493 73.2285C62.596 73.429 62.5434 73.5741 62.6186 73.7918C62.8243 74.3836 63.4737 74.7105 63.653 74.6257C63.7456 74.5821 63.4322 74.0511 63.5795 74.045C63.9378 74.0349 64.0421 75.3478 64.0166 73.4229C64.3516 74.0004 64.2107 74.1571 64.3111 74.853C64.4117 74.7719 64.5122 74.6933 64.614 74.6159C64.6361 74.9397 64.6626 75.2528 64.6983 75.5757C64.3582 75.4464 64.2827 75.9331 64.1836 76.2607C64.1114 76.4974 64.0171 76.6431 63.7738 76.3872C63.6612 76.2677 63.5167 76.0609 63.3379 75.7332C63.3942 75.9769 63.4546 76.221 63.5193 76.4656C63.6242 76.8631 63.73 77.253 63.8366 77.6363C63.737 77.5303 63.6381 77.4229 63.5386 77.3147C63.4849 77.0484 63.4318 76.7808 63.3788 76.509C63.3742 76.4858 63.3697 76.4625 63.3652 76.4393C63.365 76.464 63.3648 76.4887 63.3646 76.5134C63.3608 76.8582 63.3588 77.1999 63.3572 77.538C63.7414 78.27 64.0541 78.5133 64.4236 78.7712C64.3035 77.8229 64.1492 78.1901 63.8695 77.5076C64.0372 77.4799 64.1739 77.4003 64.3615 77.4059C64.1465 77.8801 64.7853 78.966 64.9024 79.235C65.2464 80.0373 64.6917 79.5104 64.8858 80.0613C65.086 80.6246 65.5218 81.1845 65.3884 81.7608C65.5615 81.6818 65.7298 81.5729 65.8778 81.4768C66.2734 82.2888 66.0036 82.2122 66.0115 82.3098C66.157 83.8856 66.8654 84.4808 67.6724 85.9985C67.6274 85.7771 67.5782 85.5574 67.5312 85.3343C68.4658 86.3104 67.9607 85.5935 67.6014 84.5239C68.0142 85.4897 68.5955 85.8721 69.0232 86.4721C69.452 87.079 69.9068 88.2603 70.022 88.7319C69.302 87.9233 68.8805 86.8445 68.2991 85.8249C68.1866 86.0323 68.0997 86.2233 67.9738 86.4441C68.6621 86.8951 68.6226 87.3914 68.6868 87.6242C68.8836 88.3161 69.1782 88.1239 69.0571 88.6755C69.1611 88.5971 69.2495 88.5328 69.3462 88.4587C70.0017 89.7374 70.6227 91.1849 71.5247 91.7214C71.3077 91.9588 71.0894 92.1728 70.8747 92.4254C71.3989 92.8177 71.4806 93.3863 71.8064 93.7887C72.131 94.1882 72.2352 93.8889 72.6444 94.339C72.7199 94.4221 72.7154 94.7016 72.9627 94.8675C73.2112 95.0345 74.4945 95.4113 73.9294 95.9268C74.2099 96.3595 74.4532 96.78 74.7196 97.2107C74.4139 96.8209 74.1109 96.435 73.8059 96.0489C73.8832 96.4995 73.959 96.9471 74.0347 97.397C74.2005 97.3522 74.369 97.3061 74.532 97.261C75.3141 98.0947 75.5367 98.9291 76.1961 99.8552C76.3062 100.011 76.3428 99.4606 76.7187 100.216C77.0989 100.983 76.9094 101.816 77.8388 102.932C77.8849 102.986 78.4986 103.119 78.4802 103.728C78.4761 103.866 78.1368 103.491 78.1893 103.773C78.2391 104.045 78.7617 105.131 78.6041 105.318C78.6681 105.268 78.7049 105.163 78.7588 105.092C78.8904 105.25 79.0233 105.411 79.156 105.575C79.0414 105.659 78.9273 105.746 78.8133 105.83C78.8784 105.897 78.943 105.96 79.0072 106.021C79.8035 106.781 80.5094 107.111 81.2943 108.538C81.1793 108.015 81.0769 107.491 80.9887 106.97C80.7956 106.934 80.6017 106.898 80.4101 106.861C80.193 106.446 79.9793 106.013 79.7902 105.596C79.6471 105.282 79.5043 104.973 79.3621 104.668C79.1556 104.635 78.9487 104.6 78.7405 104.564C78.6539 104.367 78.5678 104.174 78.4814 103.98C78.6105 103.967 78.7394 103.955 78.8698 103.944C78.6382 103.597 78.3964 103.238 78.1603 102.893C79.204 103.282 79.2962 105 79.7499 104.616C79.7626 104.825 79.7748 105.037 79.7867 105.249C79.9187 105.22 80.0147 105.284 80.1079 105.423C80.2142 105.58 80.3166 105.838 80.4833 106.169C80.5247 105.964 80.5598 105.748 80.6149 105.558C80.7559 106.221 81.3925 107.197 81.7136 107.794C81.8538 108.057 81.5164 107.929 81.5465 108.016C81.7004 108.468 82.5071 108.968 82.5925 109.127C83.1108 110.102 83.0293 111.094 84.1438 111.73C83.4386 110.707 83.8338 111.255 83.7489 110.759C83.7198 110.6 82.8571 109.259 84.0457 110.856C84.1588 111.05 86.1992 114.09 85.1434 113.434C85.6213 113.797 86.0313 114.05 86.4872 114.363C86.6954 115.977 87.0337 115.029 87.1299 114.416C87.2784 114.571 87.4225 114.717 87.5749 114.877C86.8709 114.891 88.5215 116.655 89.2896 117.039C89.5434 117.169 89.1209 116.516 89.6215 116.903C89.8081 117.139 90.0213 117.415 90.2196 117.664C90.1189 117.11 90.8515 117.649 91.0726 117.399C91.2794 118.011 91.17 118.772 90.704 118.798C91.1461 119.03 91.5868 119.257 92.0336 119.486C91.9256 119.277 91.8121 119.063 91.7056 118.854C92.6945 120.08 94.5134 121.081 94.2822 121.808C94.4384 121.941 94.6042 122.083 94.7618 122.217C94.8881 122.171 95.0126 122.124 95.1384 122.078C95.7656 122.771 96.4143 123.473 97.0502 124.156C96.3781 123.673 96.1011 123.654 95.5422 122.984C95.7103 123.312 95.8644 123.627 96.0377 123.957C97.2646 124.537 97.5728 124.486 99.0081 125.848C99.081 125.915 100.021 127.12 100.029 127.18C100.101 127.431 99.7165 127.346 99.7449 127.466C99.7556 127.508 99.7788 127.568 99.7933 127.626C99.7919 127.647 99.8295 127.708 99.8116 127.715C99.8079 127.718 99.8019 127.718 99.7917 127.712C99.7866 127.709 99.7805 127.705 99.7729 127.698C99.7611 127.676 99.7765 127.745 99.6787 127.535C99.6585 127.48 99.631 127.403 99.6275 127.27C99.623 127.143 99.6626 126.933 99.8009 126.763C100.112 126.411 100.403 126.467 100.493 126.465C100.614 126.479 100.604 126.484 100.617 126.484C100.627 126.486 100.635 126.487 100.643 126.488C100.673 126.493 100.689 126.495 100.699 126.494C100.708 126.419 100.474 126.183 100.353 126.012C100.169 125.803 100.067 125.648 99.9517 125.503C99.8432 125.361 99.7662 125.258 99.7849 125.248C100.02 125.133 100.488 125.245 101.04 125.438C101.117 125.467 101.18 125.486 101.211 125.486C101.224 125.487 101.258 125.49 101.139 125.43C101.107 125.415 101.065 125.396 100.994 125.372C100.976 125.366 100.956 125.359 100.934 125.353C100.923 125.35 100.911 125.346 100.898 125.343C100.891 125.341 100.889 125.34 100.876 125.337C100.842 125.328 100.803 125.32 100.756 125.311C100.57 125.298 100.268 125.174 99.5578 125.479C99.2144 125.634 98.8052 126.008 98.6191 126.439C98.4245 126.869 98.4253 127.249 98.4539 127.495C98.5272 127.989 98.6491 128.137 98.7112 128.26C98.7982 128.401 98.7712 128.354 98.7877 128.381C98.8052 128.407 98.82 128.428 98.8327 128.446C98.858 128.481 98.8754 128.504 98.888 128.521C98.9712 128.647 98.7179 128.437 98.6062 128.373C98.2827 128.15 97.9471 127.914 97.6008 127.659C96.1958 126.628 94.7293 125.383 94.1081 124.866C87.9446 119.647 81.9483 114.23 77.6884 106.739C73.8935 99.3213 68.299 92.6054 64.6259 84.2721C64.5526 84.11 64.4627 84.2343 64.4269 84.1669C64.2062 83.7465 64.2207 83.2478 64.161 83.082C64.0344 82.731 63.9358 82.9915 63.834 82.7437C63.05 80.8178 62.4493 78.9142 61.8695 76.9746C61.6554 76.2587 61.4703 75.5493 61.3019 74.8076C61.2599 74.6199 61.4486 74.7799 61.3548 74.4567C61.306 74.2948 60.9728 73.7918 60.9095 73.4002C60.6882 72.0304 60.6687 70.8632 60.66 69.4085C60.6531 68.6159 60.733 67.4221 60.8285 66.5445C60.8683 66.1586 60.815 65.7359 60.869 65.3543C60.9477 64.8138 61.1475 64.9578 61.1738 64.8777C61.2944 64.5254 61.0694 64.4328 61.1417 64.0903C61.2829 63.4553 61.4435 63.4506 61.6245 62.6548C61.7516 62.0795 62.0081 60.7596 62.223 60.0486C62.9545 58.4696 63.7705 56.4868 64.4973 55.0482C64.9252 54.1994 65.1702 54.2401 65.3654 53.9089C66.0632 52.7502 66.4119 51.735 67.1942 50.6963C68.2478 49.3267 69.3822 48.3097 70.8007 47.1514C71.0457 46.9582 70.8655 46.8396 71.1081 46.6511C71.2748 46.5234 71.4885 46.3695 71.6933 46.2367C72.4257 45.7535 73.2797 45.2612 73.9416 44.9629C74.8524 44.5567 75.3074 44.6821 76.1815 44.2765C76.4415 44.1596 76.4271 43.8855 76.8728 43.6962C77.5835 43.3957 78.4633 43.3878 78.9813 43.2888C79.7003 43.1551 79.0173 43.0331 79.9952 42.8635C80.0359 42.857 80.2155 43.0138 80.4213 42.9671C81.0218 42.837 80.9383 42.6926 81.8346 42.5892C81.9232 42.5733 83.1232 42.6384 83.2388 42.6382C83.9304 42.5834 85.316 42.6308 85.7209 42.6094C87.171 42.5249 86.0596 42.1889 87.2418 42.8798C87.7883 42.769 88.3345 42.6695 88.9222 42.5955C88.5303 42.6796 90.0281 43.0835 90.1315 43.0964C91.0238 43.1459 90.5478 42.811 91.6487 43.0681C90.2811 43.2926 92.3804 43.3809 93.3452 43.5377C93.4942 43.5607 93.6184 43.5837 93.7034 43.6045C96.957 44.4167 99.5654 45.9485 102.183 47.7596C103.062 48.3671 104.263 49.1487 105.112 49.8767C105.311 50.0455 105.076 50.0179 105.248 50.1687C105.42 50.3192 105.324 50.0418 105.516 50.2187C106.709 51.326 107.413 52.3946 108.684 53.202C108.697 53.2883 108.667 53.3143 108.709 53.4377C109.777 54.082 110.99 56.0878 111.486 56.7821C111.791 57.1995 112.031 57.4769 112.246 57.7052C112.639 58.1355 112.947 58.4381 113.296 59.0354C114.075 60.3239 114.453 62.4468 114.718 61.3028C115.126 62.198 115.438 63.0894 115.64 64.0238C115.662 64.1289 115.476 64.1048 115.484 64.1469C115.533 64.4143 115.704 64.457 115.757 64.6297C115.896 65.0988 115.521 64.3714 115.741 65.0342C115.853 65.3886 116.042 65.554 116.24 66.5506C117.366 72.5393 117.023 78.8447 116.491 84.681C116.453 85.083 116.644 84.8332 116.586 85.3349C116.389 87.0826 115.743 90.1546 115.579 91.6454C115.538 92.0303 115.526 92.296 115.53 92.4946C115.531 93.1225 115.689 93.1372 115.622 93.9133C115.603 94.119 115.498 93.9273 115.46 94.1077C115.212 95.3163 114.571 96.6866 114.15 97.6182C113.873 98.2326 114.091 98.2682 113.903 98.7106C113.617 99.3672 113.056 99.8961 112.853 100.209C111.887 101.69 111.203 102.741 109.998 103.79C110.076 103.782 110.137 103.785 110.208 103.782C109.369 104.593 108.501 105.303 107.687 105.956C106.823 106.656 105.806 107.075 104.858 107.273C104.984 107.291 105.109 107.307 105.24 107.318C103.746 107.665 103.165 107.434 102.931 107.456C102.701 107.455 102.827 107.591 102.947 108.096C102.736 108.129 102.515 108.161 102.314 108.179C102.381 107.864 101.803 107.586 100.953 107.21C100.303 106.955 99.2086 106.458 98.4451 105.533C98.2622 105.392 97.1362 104.55 97.7543 104.388C97.4856 104.199 97.3248 104.089 97.1146 103.93C97.1082 103.665 97.119 103.419 97.1392 103.185C97.1588 102.998 97.1819 102.815 97.2082 102.632C97.1217 102.454 97.0381 102.271 96.9577 102.09C96.837 102.094 96.7265 102.15 96.5982 102.119C96.2981 101.227 96.1257 99.3255 96.0761 98.6029C95.883 96.8191 95.7248 94.8917 96.3629 93.5412C96.4746 92.888 96.1362 93.4115 96.3381 92.6161C96.3537 92.5581 96.3722 92.4945 96.3944 92.4248C96.5466 92.3195 96.693 92.2281 96.8525 92.1338C96.7115 91.0336 97.1028 90.9163 97.836 89.9295C98.3485 89.2772 98.5665 88.7956 99.0681 88.2446C99.196 88.1066 99.2926 88.2285 99.3726 88.1306C99.6355 87.797 100.318 86.809 100.529 86.6114C101.991 85.1756 103.38 84.127 104.814 83.1014C105.331 82.731 105.884 82.4088 106.487 82.1379C106.785 82.007 106.337 82.0455 106.649 81.9118C107.159 81.7062 106.949 82.0455 107.242 81.9426C108.062 81.6929 108.002 81.429 109.188 81.201C113.199 80.5705 116.919 82.2869 119.866 83.7582C119.959 83.8051 120.018 83.6745 120.12 83.7248C120.787 84.055 121.348 84.5797 121.923 84.9025C122.875 85.4399 123.677 85.6888 124.581 86.2487C124.737 86.3454 124.889 86.4415 125.038 86.5367C126.899 87.7195 128.314 89.2993 129.512 91.0987C129.918 91.7064 130.263 92.288 130.579 92.8317C131.38 94.2448 131.591 95.6171 131.67 96.9971C131.753 98.8625 131.564 100.533 131.4 102.134C130.906 105.892 127.983 107.734 125.932 108.922C123.733 110.134 121.562 110.933 119.469 111.702C117.493 112.51 115.113 111.514 114.106 110.467C112.485 109.163 112.123 106.276 112.864 104.774C113.042 104.317 113.267 103.89 113.52 103.502C113.7 103.233 113.735 103.415 113.784 103.331C114.262 102.563 114.219 102.412 114.681 102.428C115.371 101.63 115.468 101.204 116.475 100.555C117.013 100.237 116.826 100.815 117.611 100.141C118.33 99.5888 117.347 99.6902 119.874 98.9547C119.942 98.9377 120.34 99.0623 120.82 98.844C121.308 98.632 120.666 98.6161 121.882 98.2297C123.031 97.8795 124.321 97.637 125.669 97.4904C128.626 97.1012 131.365 98.7417 132.985 100.191C133.203 100.332 134.818 101.823 135.102 102.11C135.704 102.651 135.754 102.406 136.41 103.188C136.604 103.422 136.751 103.661 136.889 103.905L137.073 104.188C137.306 104.693 137.508 105.232 137.799 105.909C137.848 106.041 138.168 106.169 138.382 107.111ZM108.212 57.8492C107.934 57.8602 107.142 58.1484 106.627 57.2278C106.577 57.1395 107.339 57.1638 107.014 56.6815C107.438 57.057 107.819 57.4537 108.213 57.8487C108.212 57.8489 108.212 57.8491 108.212 57.8492ZM133.867 112.959C133.579 111.982 133.61 110.788 133.711 110.032C133.775 110.566 133.838 111.287 134.046 111.946C133.961 112.273 133.902 112.615 133.867 112.959ZM99.6594 97.8127C99.6593 97.812 99.6593 97.8113 99.6593 97.8106C99.798 98.5724 99.996 99.3158 100.248 100.029C100.159 99.9672 100.069 99.9035 99.9803 99.839C99.7513 99.2701 99.5567 98.6784 99.399 98.0721C99.485 97.9841 99.5718 97.8979 99.6594 97.8127ZM100.039 91.7395C100.378 91.3549 100.444 91.5435 100.715 91.4017C100.715 91.4015 100.715 91.4013 100.714 91.4012C100.786 91.3629 101.006 91.1136 101.09 91.0159C100.986 90.9964 100.875 90.9892 100.768 90.9762C101.317 89.8499 103.455 88.8053 101.782 91.1528C101.715 91.0456 101.649 90.9393 101.584 90.8302C100.688 91.9242 99.8393 93.2347 100.039 91.7395ZM98.8588 49.9894C97.5633 49.6537 97.2022 49.5288 95.9437 48.6303C96.1847 48.62 96.4294 48.6148 96.6738 48.6129C96.8519 48.8276 97.0253 49.0437 97.1938 49.2624C97.1945 49.2627 97.1951 49.263 97.1957 49.2634C97.2964 49.1829 97.3978 49.1028 97.4978 49.0224C97.9612 49.3301 98.4156 49.6537 98.8588 49.9894ZM123.407 106.402C122.748 105.846 123.05 106.224 123.868 105.614C124.145 105.402 123.786 105.435 123.962 105.317C124.893 104.669 125.221 105.039 125.152 105.41C124.599 105.772 124.003 106.101 123.409 106.401C123.408 106.401 123.407 106.402 123.407 106.402ZM132.427 104.497C132.428 104.497 132.428 104.498 132.429 104.498C132.301 104.643 131.956 104.309 132.163 104.838C131.903 104.522 131.637 104.213 131.362 103.917C131.455 103.991 131.55 104.07 131.643 104.147C131.622 104.025 131.599 103.902 131.574 103.78C131.315 103.823 131.321 103.638 131.07 103.285C130.989 103.534 130.904 103.78 130.814 104.023C130.535 103.634 130.239 103.261 129.926 102.916C129.959 102.867 129.991 102.818 130.024 102.768C129.84 102.716 129.657 102.671 129.476 102.633C129.48 102.55 129.483 102.467 129.485 102.383C129.284 102.308 129.083 102.243 128.885 102.192C128.915 102.018 129.346 102.158 128.628 101.828C128.92 101.776 129.227 101.749 129.547 101.747C130.635 102.462 131.572 103.447 132.427 104.497ZM128.14 99.81C128.028 101.303 127.939 100.87 127.595 100.485C127.779 100.262 127.961 100.036 128.14 99.81ZM112.944 88.0687C112.733 87.5971 112.523 87.1305 112.318 86.653C112.268 85.7463 112.831 84.8975 112.952 85.5905C113.096 86.4246 112.753 87.2456 112.944 88.0687ZM113.041 67.7015C113.097 68.7876 112.626 67.8349 112.402 67.6324C112.639 67.2931 112.539 66.8855 112.426 66.2399C112.584 66.8321 113.032 67.5184 113.042 67.7014C113.042 67.7014 113.042 67.7015 113.041 67.7015ZM105.726 102.987C105.637 103.062 105.552 103.14 105.467 103.217C105.293 103.384 105.092 103.532 104.86 103.567C104.845 103.309 105.413 103.222 104.894 103.103C105.002 103.036 105.102 102.962 105.195 102.881C105.261 102.825 105.326 102.769 105.392 102.713C105.352 102.945 105.61 102.884 105.724 102.987C105.725 102.987 105.725 102.987 105.726 102.987ZM121.641 88.9562C121.06 88.2601 120.85 88.2838 120.003 88.0413C120.016 87.7686 121.112 87.9218 121.718 88.1828C121.692 88.44 121.667 88.6981 121.641 88.9562ZM83.6311 109.144C83.2552 109.17 82.3152 107.971 81.9852 107.3C82.0723 107.347 82.1603 107.394 82.2485 107.441C82.692 108.02 83.1511 108.582 83.6311 109.144ZM112.374 65.9285C112.391 66.0378 112.41 66.1448 112.426 66.2399C112.399 66.1358 112.379 66.028 112.374 65.9285ZM76.1752 46.4721C76.4083 46.0603 75.3388 46.3923 76.6363 45.9874C76.6362 45.9872 76.6361 45.9869 76.636 45.9866C77.4992 45.7383 77.6893 45.6972 78.4859 45.4789C78.2984 45.9244 76.7995 46.532 78.965 45.9513C78.9937 45.9442 78.8768 45.7429 79.2346 45.6796C79.3447 45.661 79.7356 45.7462 80.27 45.6866C80.4457 45.6664 81.7275 45.4644 79.9943 45.8261C80.103 46.0692 80.07 46.3478 80.1311 46.5938C79.5028 46.8152 78.8709 46.4576 78.1842 46.6932C77.1686 47.0511 76.8829 47.7491 76.4271 47.2022C77.1874 46.6789 78.6977 46.1944 78.9985 46.5444C79.8306 46.3197 80.0068 45.9436 79.2744 45.956C76.4212 47.0499 78.2812 45.6595 75.8669 46.9155C75.876 47.0147 75.8168 47.153 75.8689 47.2268C74.9833 47.2697 76.0891 46.6129 76.1752 46.4721ZM82.5705 45.5638C82.0704 45.8178 81.5882 46.0898 81.1246 46.376C81.0678 46.0586 81.2906 45.7093 82.0935 45.4191C82.2534 45.4659 82.4138 45.5143 82.5705 45.5638ZM65.8379 79.7483C66.0305 79.7596 66.2536 79.8946 66.4631 79.9726C66.3501 80.1724 67.6865 83.7433 66.803 82.0146C66.6666 81.7588 66.3317 80.065 65.8379 79.7483ZM126.115 92.3087C125.954 91.9023 125.773 91.5026 125.567 91.1098C126.072 91.5377 126.547 92.0137 126.995 92.5263C126.7 92.4424 126.407 92.3705 126.115 92.3087ZM113.909 80.778C113.891 80.9681 113.686 80.3217 113.679 81.073C113.559 80.5041 113.456 79.9777 113.335 79.4263C113.457 79.2684 113.579 79.1085 113.7 78.9502C113.632 78.8203 113.563 78.6884 113.494 78.5596C113.659 78.6414 113.82 78.7151 113.987 78.8023C113.59 79.7071 113.986 79.9341 113.909 80.778ZM104.365 105.057C104.154 104.741 105.315 104.22 104.099 104.458C104.283 104.175 104.609 104.003 105.155 103.691C105.288 103.723 105.424 103.746 105.566 103.76C105.481 103.617 105.496 103.494 105.552 103.323C105.594 103.228 105.653 103.119 105.726 102.987C105.726 102.987 105.727 102.987 105.727 102.987C106.61 102.241 106.595 102.346 107.072 102.469C106.192 102.98 106.161 103.268 105.897 103.747C105.844 103.848 105.774 103.955 105.672 104.069C105.277 104.522 104.517 104.674 104.365 105.057ZM64.5382 75.8945C64.6023 75.9824 64.6601 76.0478 64.712 76.0977C65.1023 76.4749 65.143 75.9994 65.2858 77.3708C65.1797 77.2982 65.076 77.2301 64.9713 77.1604C64.8512 76.8225 64.7325 76.4783 64.615 76.1276C64.5889 76.0499 64.5633 75.9722 64.5382 75.8945ZM100.844 103.36C100.66 103.575 100.62 103.89 100.762 104.057C100.899 104.224 101.166 104.199 101.363 103.782C101.139 103.596 101.072 103.631 100.99 103.647C100.92 103.663 100.844 103.652 100.844 103.36ZM113.974 67.9254C114.181 69.4741 113.493 69.2472 113.097 68.6788C113.198 68.5668 113.298 68.4542 113.398 68.3433C113.306 68.0869 113.211 67.8355 113.113 67.5799C113.4 67.6907 113.688 67.8096 113.974 67.9254ZM110.905 83.9297C109.789 84.3401 112.109 84.1726 111.322 84.4122C110.72 84.5779 109.906 84.2601 110.182 83.9783C110.402 83.9521 110.645 83.9352 110.903 83.9297C110.904 83.9297 110.904 83.9297 110.905 83.9297ZM105.019 86.5788C105.436 86.8001 105.136 86.8689 105.825 86.2455C105.915 86.1642 106.335 85.8831 106.68 85.6283C107.059 85.3499 107.364 85.1314 106.878 85.2047C106.766 85.2782 106.653 85.3562 106.54 85.439C106.038 85.8079 105.52 86.1913 105.019 86.5788ZM104.389 53.4131C104.507 53.2586 105.973 54.0839 106.047 54.3125C106.047 54.3123 106.047 54.3121 106.047 54.3119C106.251 54.9053 105.001 53.7347 105.263 54.5286C104.32 53.1444 103.39 53.4446 104.198 52.7133C104.952 53.3305 104.459 53.1867 104.389 53.4131ZM97.1496 124.021C97.1502 124.021 97.1508 124.022 97.1514 124.022C97.0631 123.935 96.5787 123.152 96.7185 123.147C97.4751 123.91 97.2283 123.936 98.1815 124.361C98.1627 124.471 98.1393 124.573 98.1226 124.685C97.7643 124.454 97.5453 124.418 97.1496 124.021ZM67.0563 83.7183C66.8476 83.3774 66.7419 82.6277 66.5574 82.2158C67.8247 83.2333 67.8988 85.0772 67.0563 83.7183ZM119.742 102.588C119.741 102.588 119.74 102.589 119.739 102.59C119.739 102.589 119.739 102.589 119.739 102.588C119.74 102.588 119.741 102.588 119.742 102.588ZM68.2537 54.6736C68.1839 54.6889 68.1314 54.6896 68.0933 54.6776C68.0903 54.6756 68.0872 54.6737 68.0841 54.6717C68.1389 54.674 68.195 54.6751 68.2537 54.6736ZM101.797 51.2892C101.423 50.662 103.461 51.7337 103.94 52.3111C103.823 52.3671 103.747 52.4433 103.567 52.4687C103.327 51.841 101.856 51.3835 101.797 51.2892ZM110.922 97.76C111.695 96.1791 111.617 98.7271 110.815 98.4074C110.806 98.3968 110.906 97.7998 110.922 97.76ZM111.328 61.3547C111.805 61.6055 111.487 60.7511 112.07 62.0871C112.031 62.1974 111.992 62.3071 111.951 62.4161C111.758 62.0539 111.547 61.6942 111.328 61.3547ZM114.639 86.6478C114.707 84.3697 114.557 82.191 113.583 83.5852C113.596 83.7566 113.608 83.9308 113.621 84.103C114.036 84.166 113.754 84.7722 113.649 85.6886C113.802 85.8372 113.789 86.3475 113.919 86.4584C114.172 86.6723 114.425 86.1051 114.639 86.6478ZM119.08 109.146C119.09 109.066 119.099 108.986 119.109 108.907C119.418 108.71 119.726 108.513 120.033 108.314C120.026 108.463 120.019 108.612 120.013 108.761C119.703 108.89 119.393 109.018 119.082 109.146C119.082 109.146 119.081 109.146 119.08 109.146ZM84.711 44.5482C84.5244 45.3472 85.2111 45.1548 86.693 44.8384C86.0405 44.7176 85.3769 44.6198 84.711 44.5482ZM98.1015 94.087C98.3309 94.082 98.5592 94.0799 98.7885 94.0777C98.7245 93.2813 98.4553 93.3397 98.075 93.6538C98.0815 93.7993 98.0907 93.9428 98.1015 94.087ZM105.028 85.205C104.743 85.3635 104.984 85.4075 104.955 85.4251C104.25 85.8478 104.102 85.8523 103.409 86.5965C103.343 86.712 103.283 86.8277 103.22 86.9448C103.877 87.0077 103.969 86.5937 104.907 86.2119C104.67 86.192 104.432 86.1734 104.194 86.1564C104.642 85.8442 105.092 85.5413 105.546 85.2428C105.568 85.1644 105.59 85.0863 105.612 85.008C105.419 85.0724 105.216 85.1353 105.028 85.205ZM115.468 107.825C115.229 107.357 115.18 106.812 115.288 106.312C115.177 106.273 115.066 106.234 114.956 106.191C114.934 106.796 115.117 107.4 115.468 107.825ZM74.326 47.5758C74.3082 47.632 74.293 47.6873 74.2815 47.7413C74.2602 47.6947 74.2802 47.6382 74.326 47.5758ZM97.7942 125.408C98.1935 125.855 98.8847 126.37 99.3722 126.811C99.5125 126.546 98.1959 125.534 97.8732 125.027C97.7668 125.005 97.6264 125.22 97.7942 125.408ZM114.229 70.0582C114.388 70.1917 114.546 70.3273 114.705 70.4631C114.724 70.8348 114.736 71.1907 114.747 71.5616C114.866 71.5642 114.986 71.5665 115.105 71.5692C114.826 69.9629 115.188 70.3039 115.438 69.4568C115.037 69.666 114.633 69.8613 114.229 70.0582ZM128.299 99.7613C126.991 99.5113 126.561 99.7649 127.216 100.142C127.642 100.106 128.085 100.124 128.523 100.19C128.455 100.046 128.379 99.9025 128.299 99.7613ZM63.133 64.9048C63.0983 65.8922 62.6239 65.8419 62.779 66.8328C62.9197 66.3318 63.0771 65.8323 63.2461 65.3481C63.2071 65.2021 63.1695 65.0519 63.133 64.9048ZM100.452 47.612C100.166 47.2376 99.1011 47.4945 98.3039 46.4207C97.9651 46.4407 97.7299 46.5088 97.4342 46.5541C97.3865 46.3248 97.3186 46.0848 97.2698 45.8594C97.269 45.8591 97.2683 45.8588 97.2676 45.8584C96.2265 45.4562 96.7929 45.9675 96.6882 46.1347C96.6463 46.2017 95.953 45.76 96.1179 46.0224C96.408 46.4562 97.9295 46.9999 97.7581 47.3408C97.3194 46.969 96.2751 46.6085 96.4689 46.9688C96.6727 47.3541 97.7918 47.3929 98.2535 47.9113C97.7136 46.9371 99.3383 48.0427 99.2732 48.556C100.412 48.8587 99.6241 48.1664 98.5905 47.6058C99.3859 47.6543 98.3759 47.2984 98.3542 46.963C99.1173 47.1366 101.216 48.6525 100.452 47.612ZM113.219 96.1408C113.465 95.3679 113.959 94.1689 113.767 93.57C113.661 93.228 113.284 94.418 113.19 93.5291C113.066 94.2771 113.114 94.4763 113.377 94.402C113.364 94.5797 113.347 94.7605 113.328 94.9408C113.262 95.0086 113.196 95.0774 113.13 95.1428C113.199 95.2566 113.265 95.3771 113.332 95.4929C113.259 95.671 113.184 95.8473 113.104 96.0242C113.144 96.0609 113.172 96.1108 113.219 96.1408ZM70.57 91.2869C70.4547 91.1054 70.3418 90.9265 70.2275 90.745C70.1906 90.7951 70.154 90.8503 70.1175 90.9042C70.0877 90.9451 70.0579 90.986 70.0282 91.027C70.104 90.8331 69.8169 89.8171 69.4472 89.5323C69.261 89.3884 69.2334 89.9793 68.7253 89.2053C69.0709 89.7787 69.4235 90.2917 69.7825 90.8336C69.6716 90.8326 69.5609 90.8338 69.4499 90.8323C69.45 90.8327 69.45 90.8331 69.4501 90.8335C69.5437 91.0303 69.6382 91.2289 69.7327 91.4241C70.0123 91.3792 70.2908 91.3331 70.57 91.2869ZM97.5525 94.6624C97.6254 95.459 97.7142 95.7112 98.0443 95.3895C98.0445 95.3887 98.0448 95.388 98.045 95.3872C97.943 95.0953 97.8491 94.7984 97.7646 94.4934C97.6938 94.548 97.6231 94.6034 97.5525 94.6624ZM68.8062 51.019C68.6864 52.9623 70.4185 49.7809 69.7086 50.0449C69.6734 50.048 68.9934 50.9768 68.8062 51.019ZM114.272 67.585C114.353 68.0073 114.426 68.4349 114.492 68.8623C114.618 68.746 114.742 68.6264 114.866 68.5056C114.672 68.1906 114.474 67.8885 114.272 67.585ZM122.842 99.5926C122.316 99.3873 121.081 99.6099 120.621 100.134C120.934 100.07 121.244 100.014 121.554 99.9651C120.999 100.168 120.459 100.393 119.915 100.644C120.044 101.063 120.585 100.566 121.594 100.393C121.756 100.36 122.84 100.628 123.077 100.161C123.127 100.06 122.08 100.259 122.742 99.846C122.421 99.9036 122.15 99.9786 121.85 100.051C121.801 99.9576 121.751 99.8638 121.699 99.7708C122.08 99.7018 122.461 99.6431 122.842 99.5926ZM114.158 91.5695C114.32 90.5208 114.162 90.3665 113.885 90.1098C113.858 90.6029 113.829 91.0972 113.799 91.5899C113.918 91.5821 114.037 91.5773 114.158 91.5695ZM114.139 105.168C114.127 105.193 114.117 105.216 114.107 105.239C113.857 105.894 114.184 105.668 114.155 105.974C114.093 107.157 114.215 108.245 115.148 109.064C115.057 109.04 114.973 109.016 114.885 108.985C114.885 108.986 114.886 108.987 114.887 108.988C114.98 109.104 115.077 109.208 115.174 109.303C115.921 110.047 116.732 110.326 117.196 110.386C117.67 110.445 117.802 110.38 117.681 110.34C117.442 110.28 116.216 109.961 115.367 109.091C115.117 108.857 114.88 108.573 114.689 108.244C114.733 108.13 114.783 108.022 114.838 107.918C114.196 106.863 114.475 105.668 114.296 105.309C114.261 105.234 114.211 105.185 114.139 105.168ZM81.2542 44.1698C81.1962 44.1213 81.5562 43.6853 80.7995 43.9866C80.2781 44.6285 81.2391 44.1824 81.5223 44.3566C81.3203 44.4384 81.1168 44.522 80.9211 44.6086C82.1784 44.5567 82.3486 44.4342 81.8408 44.0941C81.8045 44.0708 81.3122 44.218 81.2542 44.1698ZM73.259 46.6876C73.4984 47.4546 74.717 46.3985 74.5695 46.2091C74.3635 46.3 74.2745 46.4965 74.0379 46.5536C73.7991 46.6132 73.6572 46.4759 73.259 46.6876ZM112.623 60.2923C112.605 60.2489 112.64 59.6522 112.441 59.8305C112.236 60.6576 113.095 61.5245 113.202 61.2553C113.016 60.8916 112.817 60.7047 112.624 60.2919C112.624 60.2921 112.623 60.2922 112.623 60.2923ZM130.625 100.068C130.638 100.023 129.502 99.2497 129.265 99.3198C129.075 99.394 128.954 99.5099 128.806 99.6108C129.567 99.7031 130.733 100.574 130.623 100.067C130.624 100.067 130.625 100.068 130.625 100.068Z" fill="white"/>
</g>
<path d="M55.566 123.817C47.3427 122.499 30.6822 119.722 29.8263 119.158L42.3435 92.8306C50.3225 92.3101 67.1357 91.4049 70.5566 91.9475C73.9774 92.49 85.8177 106.649 91.3103 113.661L79.2493 137.505C77.4006 133.289 62.6902 126.623 55.566 123.817Z" fill="#C075E3"/>
<path d="M39.0227 33.6071C27.8751 34.4429 5.31122 36.2993 4.23657 37.0387L26.8885 79.0358C38.0658 80.9725 61.5803 84.761 66.2188 84.4221C70.8574 84.0831 84.4489 64.1548 90.6648 54.2331L69.144 16.0928C67.4243 22.2675 48.3466 30.3418 39.0227 33.6071Z" fill="#FF61B0"/>
</g>
<defs>
<clipPath id="clip0_1875_547">
<rect width="150" height="150" fill="white"/>
</clipPath>
</defs>
</svg>
