<svg width="150" height="151" viewBox="0 0 150 151" fill="none" xmlns="http://www.w3.org/2000/svg">
<path d="M87.7265 70.0195C89.6996 70.0444 91.6298 70.0942 93.6029 70.2685C94.2034 70.3183 94.8039 70.3432 95.3615 70.4677C95.9191 70.5922 96.4338 70.7415 96.9057 70.9158C97.5919 71.1648 98.1496 71.4884 98.7072 71.7872C99.179 72.0113 99.8224 72.31 100.123 72.6088C100.423 72.9075 100.594 73.2561 100.895 73.5548C101.195 73.8785 101.324 74.227 101.452 74.5756C101.624 74.9739 101.753 75.3225 101.795 75.7208C101.838 76.0694 102.053 76.3433 102.267 76.642C102.525 77.0653 102.525 77.5134 102.568 77.9615C102.61 78.3848 102.739 78.808 102.739 79.2313C102.739 79.779 102.739 80.252 102.439 80.7748C101.795 81.7458 100.766 82.6172 99.8224 83.4886C98.5356 84.6338 97.5062 85.8039 96.0907 86.8994C95.147 87.6214 94.2034 88.3683 93.1739 89.0903C91.9729 89.9119 90.5574 90.6837 88.9704 91.2065C86.8686 91.9285 84.5524 92.4015 82.1932 92.7501C80.8207 92.9492 79.4052 93.0488 77.9897 93.1733C76.4884 93.2978 75.0301 93.497 73.5288 93.5717C70.5263 93.7459 67.3951 93.7957 64.3925 93.6215C63.1915 93.5468 61.8618 93.4223 60.7466 93.0986C60.2319 92.9492 59.803 92.7003 59.4169 92.4762C58.173 91.7542 57.1865 90.8828 56.157 90.0612C54.4842 88.7168 53.755 86.9741 53.1974 85.3807C52.8971 84.4595 52.9829 83.5632 52.7685 82.6421C52.5111 81.6462 52.2108 80.6255 52.2537 79.6047C52.2966 79.0321 52.5969 78.5839 52.8542 78.0362C53.0687 77.6379 53.1545 77.2644 53.5834 76.9408C54.1839 76.4677 54.57 76.1192 55.5136 75.8951C59.374 74.949 63.1057 73.8536 66.9661 72.9324C68.8105 72.4843 70.5692 71.9366 72.4565 71.5133C73.0999 71.3639 73.8719 71.1399 74.5582 71.1399C75.5019 71.115 76.4455 71.1399 77.3892 71.1399C78.4615 71.1399 79.4052 71.0652 80.4775 70.9656C81.1638 70.9158 81.8072 70.9158 82.4935 70.8411C83.0082 70.7913 83.5229 70.6668 84.0377 70.5673C84.3808 70.4926 84.6382 70.393 84.9813 70.3183C85.3245 70.2436 85.6676 70.2187 86.0108 70.1689C86.3968 70.144 87.2547 70.0195 87.7265 70.0195Z" fill="#FFD700"/>
</svg>
