<svg width="1012" height="526" viewBox="0 0 1012 526" fill="none" xmlns="http://www.w3.org/2000/svg">
<path d="M964.896 0.730469L1011.13 15.9881V525.73H0.129883V15.9881L12.2328 23.9541L47.5166 0.730469L82.8004 23.9541L118.084 0.730469L153.368 23.9541L188.652 0.730469L223.936 23.9541L259.22 0.730469L294.503 23.9541L329.787 0.730469L365.071 23.9541L400.355 0.730469L435.639 23.9541C447.072 17.6284 466.955 6.13365 470.922 2.14145C470.035 1.24812 469.944 0.730469 470.922 0.730469C471.901 0.730469 471.81 1.24812 470.922 2.14145C474.89 6.13365 494.773 17.6284 506.206 23.9541L541.49 0.730469L576.774 23.9541L612.058 0.730469L647.341 23.9541L682.625 0.730469L717.909 23.9541L753.193 0.730469L788.477 23.9541L823.761 0.730469L859.044 23.9541L894.328 0.730469L929.612 23.9541L964.896 0.730469Z" fill="#69C9A0"/>
</svg>
