<svg width="1425" height="42" viewBox="0 0 1425 42" fill="none" xmlns="http://www.w3.org/2000/svg">
<path d="M1344.77 4.5805C1347.04 4.70708 1350.11 5.65354 1352.46 6.73524C1360.83 10.9371 1363.39 14.4113 1367.93 19.6109C1368.58 20.4093 1369.26 21.1988 1370.05 22.0708C1374 26.7532 1385.02 36.0626 1395.49 31.9807C1405.62 28.3599 1411.55 19.6515 1412.06 20.274C1412.06 20.274 1412.06 20.274 1412.06 20.2741C1412.07 20.2811 1412.07 20.2912 1412.08 20.3044C1412.16 20.568 1410.15 23.2209 1409.97 23.73C1409.78 24.2273 1411.32 25.1355 1407.74 28.5434C1405.15 30.9357 1400.03 34.7265 1394.22 35.8781C1388.4 37.1866 1383.02 35.2788 1381.31 34.555C1378.84 33.5897 1375.94 32.0535 1373.31 29.9903C1369.74 27.1698 1367.33 24.4932 1365.15 21.9323C1362.26 18.5683 1359.44 15.6388 1355.06 12.8902C1352.22 10.7265 1349.04 9.04628 1345.56 8.34246C1340.94 7.43664 1334.02 9.72965 1331.65 11.4295C1329.64 12.6901 1328.63 13.6544 1326.76 15.2686C1325.12 16.7019 1322.82 18.8132 1320.4 21.6682C1319.71 22.4858 1319.01 23.2786 1318.24 24.1329C1312.29 30.3569 1311.02 31.5238 1306.34 34.1257C1301.48 37.0064 1291.76 37.3679 1285.48 33.7451C1284.68 33.3811 1283.86 32.9628 1283.1 32.5349C1283.58 32.9593 1284.09 33.3833 1284.6 33.7859C1281.43 32.0199 1280.34 30.8779 1277.88 28.7612C1275.04 26.1971 1273.63 24.8832 1271.96 22.9634C1271.78 22.7498 1271.59 22.5216 1271.39 22.2806C1270.22 20.8179 1268.78 19.032 1267.2 17.513C1264.5 14.9929 1264.92 15.759 1263.37 14.5513C1263.07 14.3334 1260.03 11.9615 1256.61 10.6515C1253.22 9.23374 1249.61 9.26603 1249.25 9.30094C1243.54 9.8151 1242.9 10.0785 1238.65 12.3505C1234.55 14.8533 1230.96 18.4099 1227.78 22.2672C1221.79 29.5368 1213.86 36.6546 1203.95 37.2144C1197.19 37.6498 1190.64 34.3812 1185.89 30.4232C1190.1 33.0626 1187.81 31.0274 1185.49 28.9488C1183.19 26.8445 1180.77 24.5262 1183.17 27.8069C1181.21 25.8495 1179.58 24.062 1178.05 22.2877C1175.91 19.8124 1173.71 17.6253 1171.01 15.3286C1168.03 12.9388 1165.97 11.0436 1160.87 9.53399C1151.35 6.67523 1142.52 14.7047 1140.02 15.7973C1137.83 17.7996 1135.89 19.9185 1134.15 22.0129C1128.84 28.5222 1123.12 32.5265 1120.21 34.5462C1117.37 36.4904 1108.33 37.5359 1104.73 36.1077C1102.07 36.1965 1090.56 29.483 1085.16 21.922C1082.48 18.6343 1079.97 16.2833 1078.99 15.4343C1076.07 12.6353 1069.94 9.15659 1066.66 8.80726C1062.58 8.29256 1059.87 8.68053 1052.91 11.1305C1046.73 14.884 1044.45 17.6182 1040.64 21.8671C1039.85 22.788 1039.01 23.7329 1038.01 24.7715C1036.93 25.8865 1036.68 25.9153 1036.05 26.5428C1034.69 27.8632 1032.42 30.1027 1029.54 31.9786C1024.8 35.0607 1021.36 35.2723 1022.14 35.6149C1018.52 36.7389 1014.51 36.8769 1010.79 35.9683C1009.5 35.5399 1008.29 35.0101 1007.11 34.3928C1005.24 33.6733 1003.46 32.7491 1001.76 31.69C1002.91 32.0613 1000.53 30.4131 998.542 28.74C996.539 27.0871 994.795 25.5358 996.242 27.254C994.607 25.6121 993.086 23.8778 991.642 22.0738C988.789 18.5116 985.658 15.2314 982.014 12.632C982.62 12.5986 979.607 10.3494 976.187 9.29328C972.777 8.13721 969.289 8.52122 969.933 8.72686C969.216 8.71255 968.493 8.74238 967.779 8.81506C961.431 9.33672 956.063 13.0038 950.33 18.7547C949.043 20.0618 948.113 21.1073 947.385 21.9341C944.798 24.821 944.69 24.6912 943.082 25.9547C941.667 27.398 940.189 28.757 938.583 30.0242C934.591 33.6207 932.258 34.3916 929.175 35.1938C926.113 35.7132 921.517 37.2045 912.881 33.6064C909.524 31.6547 903.669 27.1003 899.005 21.4939C896.533 18.6008 893.846 16.0093 891.335 14.0759C890.489 13.4335 890.418 13.5159 889.256 12.7295C887.846 11.7712 885.266 10.2018 882.877 9.39067C880.499 8.53983 878.451 8.41377 878.575 8.61337C875.733 8.12803 872.764 8.35949 869.939 9.22268C867.673 10.0763 865.548 11.307 863.581 12.7518C863.66 12.8433 863.738 12.9348 863.815 13.0264C860.536 14.845 856.631 18.6942 853.998 21.8893C853.117 22.9373 852.327 23.8137 851.644 24.5189C851.082 25.0829 850.859 25.138 849.042 26.8483C846.933 28.8852 842.625 32.3418 839.313 33.7585C838.146 34.5166 836.895 35.1987 835.577 35.764C829.156 37.4411 826.655 36.1511 823.1 35.169C822.778 35.0864 819.638 34.0275 816.915 32.2935C814.155 30.6119 811.773 28.4758 811.521 28.2615C808.787 25.8102 808.315 25.6905 805.037 22.0228C803.612 20.4175 801.665 18.0964 798.224 15.1231C796.26 13.4623 794.626 12.1586 792.607 11.0639C790.849 10.0732 786.988 8.57807 783.412 8.66857C779.833 8.66026 776.845 9.98931 776.473 10.2794C772.38 10.9864 764.316 17.7638 760.971 22.1445C760.313 22.9226 759.763 23.5355 759.337 23.9884C758.437 24.9053 758.149 25.0147 755.293 27.6686C753.099 29.8994 746.35 34.8941 742.107 35.736C737.784 36.801 736.106 36.3336 734.162 36.1954C732.316 35.9812 730.565 35.7912 728.196 34.8873C720.802 31.8915 716.06 26.4718 712.204 21.9687C712.144 21.8976 712.084 21.8263 712.025 21.7549C706.735 15.4148 700.572 10.9224 694.252 9.4756C692.7 9.03581 691.133 8.71481 689.439 8.72713C681.091 8.743 673.444 15.0128 667.554 22.0748C662.683 27.8301 656.792 33.394 649.128 35.6956C641.39 38.1533 633.078 35.2008 627.445 30.7559C624.836 28.8132 621.498 25.5658 618.534 21.8858C611.912 12.8377 601.14 8.46019 605.193 11.1667C603.727 10.4434 596.803 7.32134 589.844 10.022C582.913 12.424 577.405 18.454 575.755 20.2582C575.212 20.8644 574.706 21.4584 574.21 22.0662C571.585 25.2678 569.218 27.8495 566.47 30.0854C557.029 38.1961 543.68 39.7589 531.894 29.4465C528.983 27.0502 526.159 24.2137 524.611 22.3773C524.523 22.2737 524.439 22.1743 524.359 22.0793C522.657 20.0632 520.886 17.7946 518.323 15.5708C515.31 12.945 510.385 9.60324 504.947 9.03298C499.514 8.33058 494.258 10.7447 491.122 12.8544C489.968 13.6281 489.447 13.7421 487.828 14.9856C485.148 17.0682 482.599 19.7247 480.762 21.9707C478.215 25.0729 476.359 27.0111 477.301 26.5943C469.797 34.067 458.504 39.8281 448.145 35.5079C442.206 33.3026 436.357 28.3585 431.356 22.312C425.409 15.0322 416.574 7.88767 407.539 9.17265C398.579 10.3771 392.146 17.4092 388.216 22.1006C388.13 22.2057 388.045 22.3102 387.961 22.4141C384.371 26.7846 382.329 28.7809 379.536 31.0812C376.674 33.0801 373.126 36.719 363.753 37.3906C359.584 37.4903 355.422 36.403 351.209 34.0238C345.605 30.8071 341.591 26.3647 338.151 22.2056C335.641 19.1372 332.997 16.5671 330.218 14.7247C321.574 7.36646 311.99 8.01351 304.899 12.1854C304.136 12.8154 303.422 13.469 302.717 14.1633C301.641 14.9827 300.585 15.8831 299.583 16.8168C299.187 17.0179 298.785 17.233 298.388 17.452C296.973 18.8251 295.571 20.3766 294.203 22.0606C288.641 29.1299 280.25 36.1589 272.287 36.9167C264.52 38.6424 252.15 32.0466 244.745 22.2656C236.619 11.0742 222.722 6.37301 216.27 9.9684C209.953 12.6627 210.014 13.5985 206.524 15.7201C205.365 16.8018 204.244 17.9617 203.178 19.1586C202.58 19.971 202 20.8001 201.44 21.6406C201.293 21.8134 201.146 21.9887 200.997 22.1666C195.129 29.4028 185.342 37.3024 175.388 36.6286C166.632 36.439 157.873 29.7735 151.565 22.1378C145.006 14.0783 135.739 7.79535 127.772 8.85536C124.025 9.09851 119.409 11.0031 116.309 13.3385C112.257 16.4617 111.333 17.8881 107.7 22.1964C107.296 22.6922 106.859 23.2114 106.381 23.7541C102.098 28.5333 94.6232 35.9204 84.4336 36.6098C74.1495 37.2289 66.308 30.1786 62.098 25.9555C60.4322 24.2597 59.3868 23.1346 58.3817 22.013C57.8397 21.4062 57.3281 20.8462 56.7417 20.1998C50.0075 12.8457 42.2678 7.43017 33.1799 9.19664C28.3474 9.98229 26.2578 11.3359 24.8768 11.8271C23.5078 12.4161 22.8822 12.5468 21.4313 13.345C19.1384 14.4295 13.1235 19.4989 12.2201 20.2288C11.5274 20.6839 13.2186 18.2377 12.3043 18.9129C20.9207 9.23297 26.932 4.96067 38.2198 5.64507C47.8005 6.63282 55.0607 13.3617 60.7235 20.0615C67.1758 27.8616 76.2785 35.1666 86.2321 33.2072C87.8586 33.0514 89.4977 32.6743 91.0913 32.122C91.0914 32.1222 91.0915 32.1225 91.0916 32.1228C97.6043 29.1261 99.4679 26.2934 102.181 23.5478C103.17 22.4752 104.158 21.3258 105.161 20.0812C110.021 14.2537 116.724 6.91343 127.223 5.44637C137.968 4.08223 147.594 11.7684 154.268 19.8856C160.005 26.7747 167.652 33.4181 176.502 33.317C185.352 33.2122 192.813 26.5948 198.388 19.992C206.962 8.40436 223.344 1.41723 233.875 8.44952C237.223 10.1179 242.74 14.3799 247.391 20.0608C254.145 29.0497 265.442 34.1484 269.066 33.618C270.561 33.6939 271.004 33.8884 272.615 33.6616C280.454 32.2525 286.804 26.3853 291.933 20.169C296.497 14.6636 301.859 9.42175 308.97 6.79967C321.392 2.19484 333.42 11.22 340.605 20.1603C346.406 27.1048 354.045 33.6779 362.973 33.6303C371.898 33.561 379.403 26.9609 385.143 20.0662C386.188 18.8073 387.254 17.6048 388.373 16.4403C394.31 10.206 402.691 4.43066 412.172 5.64785C421.528 6.88465 428.567 13.4484 434.124 20.0057C439.932 26.9377 447.501 33.4269 456.289 33.4014C465.076 33.3667 472.577 26.8624 478.337 19.9497C484.371 12.7682 492.427 5.41196 502.958 5.32257C513.488 5.41916 521.54 12.7603 527.575 19.9074C533.365 26.8296 540.899 33.2892 549.618 33.2733C558.337 33.2552 565.835 26.7903 571.598 19.8892C578.852 10.7718 591.637 1.42343 604.402 6.84277C610.77 9.31518 616.282 14.3064 620.954 19.8698C627.771 28.3492 638.09 35.2579 647.106 32.7346C652.962 31.0549 655.657 29.8047 661.587 23.7407C661.716 23.7418 661.846 23.7423 661.976 23.7421C663.163 22.4813 664.183 21.2791 665.148 20.0702C668.501 16.003 671.488 12.4463 677.445 8.80338C680.582 6.83274 687.784 4.00086 694.75 5.90172C701.659 7.59238 706.814 12.2461 709.161 14.4608C711.592 16.8672 710.573 16.0786 712.713 18.4238C713.123 18.8868 713.59 19.4212 714.101 20.0251C717.668 24.4329 724.815 30.7662 730.628 32.3476C736.49 35.034 746.868 31.3139 750.445 27.8437C753.303 25.5849 755.887 22.893 758.315 19.9318C763.183 14.0811 769.139 8.1785 777.367 5.86926C785.691 3.40787 794.618 7.20115 800.544 12.4459C803.134 14.6257 805.774 17.5747 807.6 19.8867C808.768 21.3578 809.733 22.4468 810.178 22.9149C812.405 25.217 813.287 25.6802 814.915 27.0093C819.045 30.3632 825.288 33.8235 831.817 32.9421C838.334 32.1959 844.037 27.7443 847.752 24.0276C849.089 22.6929 850.324 21.3267 851.554 19.8531C857.513 12.8068 865.484 5.40334 876.1 5.20676C886.731 5.20432 894.912 12.629 900.991 19.8383C906.001 25.8126 912.109 31.2985 919.317 32.8024C926.536 34.4079 933.778 30.7653 939.263 25.7307C941.133 24.048 943.019 22.064 944.873 19.8406C950.303 13.4555 958.235 5.50058 969.279 5.20413C980.357 5.13805 988.641 13.1627 994.275 19.8797C998.064 24.4744 1002.14 28.1679 1006.02 30.4044C1009.75 32.3584 1008.67 32.1408 1012.06 33.1212C1015.9 33.9542 1018.04 33.4016 1019.79 33.0861C1025.23 32.1948 1032.57 27.0558 1038.3 19.916C1045.64 10.0198 1059.18 3.07918 1067.17 5.7712C1069.76 6.33881 1071.43 7.26217 1072.81 7.91115C1073.52 8.24756 1075.16 8.91459 1077.17 10.2817C1081.37 13.1557 1084.63 16.5242 1087.52 19.9558C1095.8 30.2925 1108.81 38.4447 1121.48 29.5032C1125.27 27.0247 1128.65 23.6998 1131.73 20.0029C1137.56 13.1258 1145.34 5.77302 1155.85 5.42784C1166.39 5.265 1174.7 12.6688 1180.84 19.9629C1186.35 26.5344 1193.37 32.6591 1201.55 33.3063C1209.76 33.9988 1217.19 28.5741 1222.74 22.584C1223.58 21.692 1224.33 20.8468 1225.06 19.9943C1229.61 14.6386 1233.66 11.9726 1234.52 11.3349C1236.83 9.76919 1238.04 8.21083 1243.62 6.32753C1254.6 2.47169 1267.06 10.8926 1274.14 19.9909C1279.98 27.1443 1287.54 32.968 1294.84 33.3576C1303.06 34.4172 1312.51 26.6491 1317.53 20.299C1317.68 20.1086 1317.85 19.9065 1318.03 19.6929C1320.36 16.8474 1324.27 12.6745 1328.66 9.73929C1333.01 6.70014 1337.84 5.44037 1339.39 5.1837C1341.36 4.81191 1342.31 4.45187 1344.77 4.5805ZM1155.34 8.74392C1155.89 8.50006 1153.23 8.56141 1151.09 9.29801C1148.94 10.0009 1147.36 10.9635 1149.42 10.2072C1150.32 9.73695 1155.04 8.71969 1155.34 8.74392ZM665.148 23.7631C665.32 23.7581 665.491 23.7522 665.664 23.7453C666.198 23.1102 666.712 22.4751 667.235 21.8088C667.758 21.1395 668.269 20.5075 668.806 19.8698C668.2 20.445 667.617 21.0171 667.019 21.6291C666.956 21.6941 666.892 21.7589 666.829 21.8234C666.269 22.493 665.734 23.1122 665.148 23.7631Z" fill="#7DC5E4"/>
</svg>
