<svg width="401" height="108" viewBox="0 0 401 108" fill="none" xmlns="http://www.w3.org/2000/svg">
<path d="M36.5049 86.5129C36.1607 86.9721 36.1019 86.2446 35.665 87.046C35.5706 87.003 35.4739 86.9594 35.3785 86.9144C35.6154 86.7303 35.8521 86.5469 36.0895 86.3633C36.2259 86.4095 36.368 86.464 36.5061 86.5121C36.5057 86.5123 36.5053 86.5126 36.5049 86.5129ZM39.7072 84.5584C38.9418 84.9499 38.565 84.7953 38.1112 85.5342C38.3706 85.3951 38.6302 85.2562 38.8892 85.1165C38.7678 85.3435 38.6542 85.5816 38.5367 85.8113C38.6546 85.7862 38.7723 85.7607 38.8887 85.7355C38.4986 86.0673 38.1099 86.4037 37.7216 86.7402C37.7536 86.6548 37.7849 86.566 37.8187 86.483C37.3647 86.5502 37.1606 86.4498 36.9464 86.2679C36.8597 86.3551 36.774 86.4417 36.6874 86.5289C36.7799 86.2987 36.871 86.0651 36.9632 85.8335C37.1988 85.8248 37.4618 85.816 37.6794 85.8042C38.2432 85.2115 37.6991 85.1952 37.4702 85.1508C37.1573 85.0892 37.4982 84.9167 37.2776 84.8704C37.2426 84.8624 36.9924 85.0234 36.9598 84.9829C36.7949 84.775 36.6496 84.2629 37.3921 84.1306C37.5554 84.5446 38.2234 84.546 38.2852 85.0071C38.8899 84.4665 39.2463 84.51 39.7072 84.5584ZM33.3224 79.3426C33.7182 79.2397 33.7275 79.5499 33.5941 79.8461C33.5942 79.8462 33.5943 79.8464 33.5945 79.8466C33.565 79.9117 33.174 80.2632 33.1234 80.1431C33.0427 79.947 33.6747 79.42 33.1503 79.6262C33.2122 79.5309 33.263 79.4395 33.3224 79.3426ZM33.0412 78.986C33.1416 78.77 33.6936 78.4934 33.6384 78.7182C33.6388 78.7179 33.6392 78.7176 33.6396 78.7174C33.6163 78.811 33.1355 78.9587 33.6801 78.8987C33.3812 79.144 33.1111 79.3701 32.8223 79.6081C32.7862 79.5624 32.7495 79.5228 32.7126 79.4735C33.2684 79.173 32.942 79.201 33.0412 78.986ZM36.9833 84.1391C36.4967 84.4312 36.5464 84.5012 36.2948 84.836C36.2367 84.7128 36.1785 84.5868 36.1184 84.46C36.4076 84.3538 36.695 84.2469 36.9833 84.1391ZM38.722 86.8975C38.7221 86.8977 38.7222 86.8979 38.7224 86.898C38.822 86.8847 38.9217 86.871 39.0196 86.8572C38.869 86.9952 38.7201 87.134 38.5703 87.273C38.8225 87.3021 39.0685 87.3215 39.322 87.3481C38.8049 87.6881 38.7187 87.3921 38.2695 87.5036C38.282 87.1963 38.5135 86.8994 38.9351 86.5879C38.8644 86.6907 38.7924 86.7943 38.722 86.8975ZM20.7429 53.7149C20.57 53.7612 20.3972 53.8081 20.2242 53.8544C20.1944 53.9546 20.18 54.0444 20.1399 54.1515C20.8688 53.9127 20.3184 54.2755 20.4831 54.4535C20.9908 55.0013 21.8725 54.228 20.7839 55.6867C20.5706 55.1914 20.0027 55.7862 19.3114 55.8364C19.6725 55.5329 20.7357 55.2481 20.8067 54.9485C20.1881 54.8899 19.6118 54.8349 19.1231 54.6535C19.0609 54.7064 18.9984 54.7593 18.9363 54.8122C19.014 54.8407 19.0916 54.8685 19.1693 54.8969C18.9487 54.9514 18.7304 55.0062 18.5071 55.0609C18.9713 54.8786 18.6168 54.8276 19.1116 54.5561C19.3319 54.4352 19.6812 54.3379 19.9164 54.2622C19.9452 54.0618 19.9624 53.8634 19.9868 53.6629C20.1996 53.6265 20.4125 53.5899 20.6249 53.5529C20.6653 53.6061 20.7038 53.6597 20.7441 53.7127C20.7437 53.7134 20.7433 53.7142 20.7429 53.7149ZM0.864904 26.6872C1.46473 26.5465 1.73593 26.7998 1.28407 27.3032C1.14436 27.0973 1.00439 26.8927 0.864904 26.6872ZM39.2817 86.3293C39.2133 86.4048 39.1454 86.4792 39.077 86.5548C38.8683 86.5761 38.6557 86.5893 38.4483 86.6118C38.6737 86.4335 38.899 86.255 39.1233 86.0772C39.1748 86.1589 39.2279 86.2449 39.2817 86.3293ZM35.5077 81.1393C35.5607 81.1906 35.5545 81.1984 35.5694 81.2982C35.5696 81.2979 35.5697 81.2977 35.5699 81.2975C35.5771 81.3375 35.5984 81.6834 35.3938 81.773C35.3115 81.6505 35.2229 81.5039 35.1456 81.3821C35.2658 81.3005 35.387 81.2225 35.5077 81.1393ZM36.3418 82.6883C36.3415 82.6888 36.3412 82.6892 36.3409 82.6896C36.3426 82.7544 36.3133 82.8352 36.3333 82.8894C35.9314 82.9065 36.4348 82.5364 36.191 82.4826C35.9443 82.4265 35.5929 82.5153 36.2281 81.9229C36.3675 81.9037 36.5556 81.8582 36.7133 81.8283C36.5666 82.233 36.8682 82.108 37.2685 82.1091C36.9589 82.3026 36.6514 82.4948 36.3418 82.6883ZM21.0045 57.4051C21.3891 57.2239 21.0665 57.4896 21.0653 57.4971C21.0648 57.4973 21.0643 57.4975 21.0639 57.4976C21.6268 57.6621 20.8356 57.5731 20.9973 57.9576C20.8754 57.9614 20.749 57.9691 20.6262 57.974C20.7494 57.7866 20.894 57.5822 21.0045 57.4051ZM28.4768 69.475C28.3746 69.5434 28.2726 69.6126 28.1703 69.6811C28.0647 69.4577 27.6206 69.6603 27.8856 69.2522C28.0843 69.3267 28.2816 69.4008 28.4781 69.4742C28.4777 69.4744 28.4772 69.4747 28.4768 69.475ZM35.5944 79.6037C35.9428 79.7159 36.1293 79.8175 35.9619 80.2496C35.9616 80.2501 35.9613 80.2505 35.961 80.251C35.9499 80.2764 35.6924 80.3504 35.6485 80.4022C35.7108 80.4287 35.7913 80.4453 35.8599 80.4678C35.6899 80.5843 35.5197 80.7006 35.3508 80.8165C35.3171 80.6543 35.2777 80.4828 35.2476 80.326C35.1579 80.4095 35.0693 80.4928 34.9795 80.5762C34.8579 80.5 34.7359 80.4227 34.6125 80.3435C34.9227 80.2023 35.2327 80.0607 35.5434 79.9179C35.5611 79.8135 35.5763 79.7098 35.5944 79.6037ZM27.4354 65.2613C27.3448 65.3696 27.1108 65.4193 27.0489 65.5385C26.9883 65.6569 27.2673 65.6312 26.9303 65.8065C26.8386 65.7555 26.7379 65.7043 26.6429 65.6527C26.2235 66.2709 26.9058 66.1974 26.1926 66.6472C26.2265 66.2884 26.0127 66.1374 25.6678 66.0253C26.2408 65.6792 26.8811 65.6125 27.3205 65.1297C27.3581 65.1734 27.4004 65.2174 27.4338 65.2615C27.4343 65.2614 27.4348 65.2614 27.4354 65.2613ZM48.3189 84.415C48.3765 84.5677 48.8132 84.6709 48.6408 85.0745C48.5983 85.1741 47.7447 86.0954 47.6181 86.1997C47.1893 86.5484 47.0002 86.4378 46.8632 86.8372C46.8129 86.7823 46.7509 86.7399 46.6955 86.6882C46.4174 86.9347 46.1402 87.1806 45.863 87.4262C45.9656 87.4627 46.065 87.4948 46.168 87.5294C46.0762 87.6114 45.9842 87.6935 45.8925 87.7755C45.6804 87.5233 45.4403 87.9774 44.9885 88.1246C44.9181 88.3906 44.8469 88.6532 44.7792 88.9214C44.7403 88.8319 44.6864 88.7352 44.6599 88.6526C44.1677 89.0454 44.4074 89.0993 44.3394 89.2C43.9513 89.7656 43.5984 88.817 42.8381 89.3326C42.8591 89.5192 42.8827 89.7045 42.9077 89.8928C42.7912 89.9293 42.6744 89.9653 42.5581 90.0018C42.8176 89.3226 42.7353 88.867 42.7832 88.2948C42.7393 88.2815 42.6949 88.2685 42.6523 88.2547C42.4363 88.4399 42.2209 88.624 42.0051 88.8094C41.9429 88.7849 41.8804 88.7596 41.8181 88.7346C42.6592 88.2888 42.5011 88.1103 42.7811 87.5396C43.1314 87.4544 43.0868 87.7202 43.5608 87.3312C42.8769 87.2255 43.0514 86.3543 42.3347 86.2779C42.1565 86.2576 41.5175 86.7244 41.4059 86.4462C41.4821 86.4033 41.6103 86.3127 41.7066 86.2508C41.1075 86.0683 40.7406 85.9409 40.7633 85.2952C40.5467 85.4817 40.3289 85.6686 40.1126 85.8555C40.2926 85.8668 40.4727 85.8737 40.6537 85.8854C40.3129 86.2168 40.0794 86.2456 40.275 86.5143C40.4392 86.7394 40.5122 86.484 40.6692 86.4648C40.8827 86.4373 40.6288 86.7243 40.8655 86.6899C41.047 86.6634 41.3081 86.3637 41.3561 86.5972C40.899 86.8216 40.4256 87.051 39.9596 87.2729C40.0201 87.1634 40.0823 87.0532 40.1439 86.943C40.2848 86.9094 40.4233 86.8754 40.5634 86.8406C40.2589 86.8296 39.9633 86.8061 39.6474 86.791C40.2773 86.4258 39.9381 86.4164 39.8028 86.3721C39.594 86.3069 40.088 86.1427 39.9558 86.0985C39.8236 86.0563 39.2923 86.2688 39.2754 86.0335C39.6026 85.9396 39.7584 85.6551 40.0202 85.5098C40.2814 85.364 40.4561 85.5015 40.6089 85.1497C40.1847 84.9678 39.4888 85.9602 39.1856 85.8426C38.8156 85.6922 40.3118 84.6014 40.6921 84.4541C40.9903 84.3364 41.0852 84.5877 41.3834 84.4713C41.5897 83.7758 40.6736 84.4019 40.4482 84.4568C39.6326 84.6619 41.488 83.6378 40.671 83.7903C41.0027 83.576 41.3007 83.3828 41.6188 83.1774C41.5274 83.1703 41.4268 83.192 41.3406 83.1656C40.8145 83.7632 40.7491 83.6059 40.6994 83.5334C40.6208 83.4197 40.4268 83.8054 40.3259 83.8287C40.0552 83.89 40.0667 83.6945 39.8371 83.9614C39.9447 83.8384 40.0521 83.7141 40.1586 83.5916C39.9094 83.5715 38.3209 84.1559 38.8 84.2777C38.2706 84.5871 38.4509 84.3261 38.4771 84.1966C38.5056 84.0705 38.181 84.2865 38.1976 84.1807C38.2644 83.757 38.9366 83.5659 39.4009 83.3205C38.8716 83.1694 38.8912 83.6353 38.3638 83.2676C37.975 83.4511 37.7458 83.9321 37.4133 83.872C38.0119 83.4351 38.357 82.9909 38.388 82.586C38.2278 82.6516 38.0662 82.7179 37.9058 82.7831C38.3812 82.26 39.0274 81.9518 38.1332 82.1274C39.539 81.4318 38.636 81.8715 39.0092 81.2784C39.0841 81.1583 39.4318 81.1013 39.5241 80.9416C39.5657 80.8695 39.3098 80.9228 39.417 80.7407C39.469 80.6493 39.8615 80.1479 39.5424 80.1785C38.9643 80.6762 38.2722 80.786 37.8752 81.3249C37.7656 80.8673 37.2843 80.7863 38.4278 80.6648C38.5596 80.4466 38.6856 80.2209 38.8194 80.0079C38.626 80.0396 38.4331 80.0692 38.2397 80.0982C38.7566 79.7545 38.9114 79.6738 38.6501 79.466C38.8475 79.5036 39.0455 79.5375 39.2419 79.571C39.3501 79.5076 39.4699 79.4533 39.5701 79.3843C39.2833 79.3776 38.938 79.0253 38.7428 79.0256C38.5435 79.0198 38.6207 79.2259 38.4681 79.2845C37.2091 79.7659 38.043 79.2614 37.7464 79.2168C37.5711 79.1907 37.5958 79.502 37.5144 79.4803C37.2156 79.3997 37.7478 78.9276 37.6516 78.7587C37.3527 79.0317 37.0463 79.3044 36.7446 79.58C36.6507 79.392 36.53 79.1943 36.315 79.0933C36.231 79.0537 36.0119 79.2619 35.9883 79.2617C35.8679 79.2618 35.5937 79.1293 35.5799 79.1097C35.4714 78.942 35.8156 78.7182 35.7293 78.539C35.8002 78.5863 35.8654 78.6311 35.9338 78.6768C36.5151 78.3509 37.0967 78.0254 37.6789 77.6985C37.6186 77.512 37.5556 77.323 37.4914 77.13C37.3802 77.3706 37.2692 77.6095 37.1561 77.8469C36.585 77.9493 36.0044 78.0385 35.433 78.1423C35.6525 77.8709 35.8717 77.599 36.0901 77.3258C35.8494 77.1065 34.747 77.8723 35.6614 77.1197C35.5263 77.0912 35.3946 77.0681 35.2634 77.0436C35.4123 76.9654 35.5613 76.887 35.7101 76.8088C35.5649 76.7714 35.4198 76.7327 35.2724 76.6941C34.8316 77.1084 34.3628 77.5364 33.9351 77.9388C33.7116 77.8253 34.1353 77.5532 34.2247 77.4592C34.461 77.2096 33.9891 77.3021 34.2129 77.0793C34.2902 77.0034 34.6857 77.0102 34.9701 76.7441C35.0256 76.6933 36.0609 75.6988 35.6877 75.7145C35.4738 75.8525 35.2166 76.03 34.9858 76.1832C34.7272 76.0618 35.7866 75.2496 36.1195 75.0795C35.8297 75.108 35.7089 74.9561 35.3491 75.1492C35.3048 75.0971 35.261 75.0449 35.2163 74.9923C36.0956 74.5272 35.788 74.3777 35.0578 74.819C35.0997 74.9258 35.1456 75.041 35.1891 75.1503C34.2568 75.6317 33.9066 76.2618 34.3406 75.1296C34.7293 74.7253 34.4064 75.3743 34.6927 75.064C34.7916 74.7752 34.5263 74.7252 34.7478 74.3652C35.0242 73.9148 35.5652 73.9216 34.7609 73.7715C34.1268 75.603 33.806 74.1672 33.1175 73.9488C33.7656 73.4429 34.1025 73.0175 34.1518 72.6783C34.198 72.4083 34.0511 72.199 33.7241 72.0531C33.4087 72.3312 33.6991 72.3926 33.6454 72.5645C33.5918 72.7364 33.3159 72.7592 33.2289 72.9856C33.1945 73.075 33.1643 73.1917 33.1295 73.3171C33.0802 73.5147 33.0202 73.7326 32.9185 73.904C32.7826 73.9122 32.5064 73.8524 32.3712 73.7909C32.2533 73.7406 32.2477 73.6881 32.5537 73.6769C32.5777 73.6765 32.6035 73.6765 32.6313 73.6767C32.6393 73.6553 32.6474 73.6341 32.6557 73.6132C32.8427 73.1705 33.0953 72.8403 32.963 72.4894C32.3529 72.734 32.0164 72.9558 31.799 72.6429C32.6794 72.3554 32.9849 71.6649 33.8222 71.2522C33.7764 71.5872 32.9346 71.9436 32.6499 72.3035C32.6219 72.3401 32.9463 72.4322 32.963 72.4894C33.5179 71.8471 33.7271 71.6123 34.6279 71.233C34.4619 71.1266 34.5047 70.9663 34.1059 71.1976C34.2564 71.0613 34.4069 70.9246 34.5577 70.7887C34.5236 70.7436 34.4811 70.7103 34.4524 70.6575C33.9067 71.0957 34.1849 70.7335 33.8569 70.8031C33.5285 70.8727 33.1452 71.2947 32.9711 71.0299C32.8891 71.2059 32.8217 71.3615 32.7448 71.5291C32.4858 71.4518 32.2243 71.3728 31.963 71.292C31.68 71.6406 31.3099 72.2387 30.8313 72.5272C30.9607 72.3363 30.4743 72.2571 30.4422 72.2345C30.3203 72.1472 30.6592 72.0246 30.661 72.0112C30.6887 71.7322 30.4985 71.6539 30.9079 71.3016C30.6192 71.294 30.6717 71.1187 30.5695 70.9807C30.5133 70.9047 30.1903 71.1278 30.2242 71.0415C30.4512 70.4671 31.0631 70.4905 29.8726 70.4048C29.6857 70.6214 29.4914 70.8378 29.3035 71.0575C29.173 71.0431 29.045 71.0337 28.9156 71.0211C28.9299 70.9501 28.9447 70.8793 28.9589 70.8082C29.462 70.4956 29.9663 70.1825 30.4695 69.87C30.4662 69.8037 30.4619 69.7376 30.4585 69.6712C30.5609 69.725 30.6632 69.7787 30.7651 69.8319C30.8583 69.7844 30.9513 69.7364 31.0445 69.6889C31.1036 69.4786 31.1638 69.2673 31.223 69.0549C31.0467 69.1615 30.8691 69.269 30.6928 69.3756C30.7582 68.9384 30.9019 68.8392 30.249 68.8648C30.1219 68.6493 29.2892 68.9422 28.906 69.013C28.9771 68.9089 29.0494 68.8038 29.1202 68.6991C28.9575 68.7621 28.7953 68.8244 28.6326 68.8874C28.8006 68.7062 28.9681 68.5242 29.1349 68.3435C28.6565 68.599 28.5035 68.6729 28.4762 68.9881C27.8595 69.2713 27.8745 68.7342 27.9685 68.4577C28.04 68.2483 28.5985 68.0829 28.6472 68.0319C28.812 67.8578 28.5255 67.7766 28.5328 67.7156C28.5634 67.4618 28.4653 67.3574 28.4744 67.1374C28.4768 67.0943 28.7263 66.8219 28.7313 66.8088C28.7483 66.721 28.809 66.4916 28.8034 66.4732C28.5241 65.5229 27.7501 67.1994 27.4257 66.3716C27.2668 66.5015 27.1079 66.6288 26.9487 66.7582C26.9033 66.7088 26.8579 66.6584 26.8124 66.6087C26.9123 66.4474 27.2288 66.3702 26.9286 66.3604C27.1472 66.2369 27.366 66.1135 27.5839 65.9911C27.4305 66.001 27.2794 66.0125 27.125 66.0206C27.8021 65.4611 27.7419 64.9907 28.6253 64.476C28.9261 64.3011 29.3904 64.3717 29.6202 64.0383C29.6128 63.8883 29.3074 64.1833 29.2605 64.1494C28.9257 63.8985 29.4355 63.6159 29.2208 63.5649C28.9962 63.6762 28.7667 63.7889 28.5396 63.9009C28.5708 63.8125 28.6019 63.7238 28.6327 63.6347C28.4831 63.7118 28.3331 63.7884 28.1836 63.8654C28.2034 63.9184 28.2267 63.9772 28.244 64.0261C27.656 64.3104 27.0627 63.9098 27.6645 63.8286C27.909 63.7961 27.926 64.0039 28.5151 63.4987C28.329 63.409 28.1279 63.2999 27.936 63.2008C28.0732 63.1086 28.2108 63.0165 28.3479 62.9242C28.1248 62.7683 27.6847 63.3108 27.384 63.4976C27.3453 63.4542 27.3073 63.4097 27.2685 63.3662C27.3915 63.2609 27.5214 63.1527 27.6395 63.049C27.4225 63.1823 26.9013 63.4653 27.0001 63.2083C27.0646 63.0413 27.6996 62.8454 27.5155 62.7183C27.1863 62.9414 26.8149 63.2604 26.5851 63.1336C26.9251 62.895 27.2309 62.6674 27.5914 62.4219C27.1022 62.39 27.5767 61.9406 27.0044 61.8978C26.6421 61.8706 25.6011 62.1671 26.8908 61.2057C26.8447 61.0518 26.5318 61.3046 26.4313 61.3131C25.9562 61.3535 26.5156 60.8139 26.5321 60.7558C26.6382 60.3841 26.353 60.4239 26.5451 60.0535C26.2993 60.2202 26.0641 60.3741 25.8233 60.5349C26.3038 60.4654 26.3383 60.5602 26.4006 60.8412C26.3019 60.7955 26.202 60.7503 26.1031 60.7042C25.9065 60.8442 25.7098 60.9841 25.514 61.123C26.7631 61.3338 25.3876 61.961 24.7367 61.536C25.0829 61.2486 25.4268 60.9599 25.7743 60.6722C24.9838 60.6808 25.3803 60.2081 25.2579 59.746C25.2427 59.6913 24.9196 59.6582 24.8635 59.592C24.8628 59.5942 24.8621 59.5963 24.8614 59.5984C24.4759 59.7756 24.3496 59.9393 24.0348 60.1455C23.9702 60.131 23.9057 60.1164 23.8411 60.1018C24.0296 59.862 24.249 59.7686 24.0826 59.6307C23.8548 59.8051 23.6267 59.9793 23.3989 60.1537C23.2717 59.9683 23.4571 59.679 23.232 59.5712C23.3424 59.5441 23.4529 59.5165 23.5633 59.4894C23.5575 58.9585 25.1737 58.3773 24.2843 58.5301C24.3972 58.4343 24.5116 58.3382 24.6246 58.2424C24.7294 58.3426 24.8322 58.4418 24.9372 58.5423C25.1147 58.4352 25.2916 58.3287 25.4688 58.2211C25.3361 58.1254 25.2032 58.0331 25.0711 57.9383C25.247 57.9577 25.4233 57.9774 25.599 57.9964C25.5918 57.7969 25.5844 57.5969 25.5766 57.3965C25.0272 57.9564 24.8213 57.8021 24.2042 58.2394C24.5745 57.6451 25.1494 57.0011 24.4434 56.8706C24.3035 56.8456 23.8812 57.1655 24.285 56.5994C23.6066 57.0981 23.0948 57.0211 22.4398 57.4796C22.5219 57.5386 22.5935 57.6079 22.6813 57.6597C22.862 57.426 23.4998 57.009 23.7743 57.0221C24.1255 57.0411 23.8341 57.572 24.5453 57.1146C24.5542 57.2041 24.574 57.2801 24.5868 57.3642C24.3918 57.4478 24.1959 57.5325 24.0011 57.6165C24.398 57.6318 24.3808 57.8065 23.9882 58.1764C23.7454 58.0166 23.5033 57.8556 23.2603 57.6931C23.2505 57.7454 23.2407 57.7983 23.232 57.85C22.6668 57.9642 22.3425 58.4116 22.0452 58.1526C22.2562 58.024 22.4671 57.8949 22.6791 57.7657C22.0471 58.0005 21.8548 57.6848 21.2718 58.1866C21.411 57.9683 21.5242 57.8709 21.1429 58.0336C21.4771 57.4775 21.9961 56.9295 22.7921 56.5585C22.6148 56.5391 22.4372 56.5197 22.26 56.5005C22.0913 56.6807 21.9237 56.8603 21.755 57.0404C21.6662 56.8696 21.5762 56.6972 21.486 56.5266C22.0751 56.1383 21.8638 56.7286 22.3397 56.3C22.4352 56.2141 22.1503 56.2693 22.1964 56.2085C22.6991 55.5567 22.4647 56.2345 22.9215 55.8503C22.8508 55.3912 23.8692 55.1537 22.8558 55.1001C23.0205 54.9795 23.1882 54.8557 23.3524 54.7366C23.2559 54.5584 22.8741 54.8153 22.7081 54.7132C22.6045 54.649 23.2176 54.1056 22.6867 54.2933C22.5891 54.3285 21.8589 55.0234 21.6692 54.6364C21.5216 54.3355 22.1872 54.0847 22.3016 53.8008C22.4144 53.5143 21.3796 53.6822 22.2465 52.9996C22.1726 53.1559 22.169 53.2984 22.1226 53.4493C22.3262 53.3723 22.5272 53.2955 22.7294 53.2185C22.3704 53.1633 22.5165 52.7831 21.9995 52.9161C22.4929 52.2352 21.6906 52.3135 20.9951 52.8601C21.1583 52.8823 21.4234 52.5828 21.293 52.8357C21.127 52.9566 20.9621 53.0777 20.796 53.1986C20.686 52.9748 20.5897 52.8309 21.1801 52.5973C21.1723 52.5566 21.1648 52.5163 21.157 52.4756C20.7695 52.7086 20.3811 52.9431 19.9936 53.176C19.926 53.1638 19.8586 53.1511 19.791 53.1388C19.8482 53.0427 19.9062 52.9459 19.9641 52.8487C20.6088 52.5307 20.6903 52.617 20.8237 52.0745C20.6133 52.2041 20.4034 52.3327 20.193 52.4623C20.2878 52.02 20.7917 51.6966 20.556 51.3599C21.451 51.1742 20.2501 52.1232 21.711 51.213C21.6566 51.3396 21.6013 51.4674 21.5468 51.5938C21.7651 51.4721 21.9836 51.3501 22.2016 51.2279C21.8672 50.9398 20.1004 51.2076 20.8735 50.3896C20.7424 50.4304 20.6261 50.4619 20.4862 50.5075C20.8957 49.922 19.58 50.5993 20.1528 49.912C20.2132 49.8402 21.4221 49.1601 21.186 48.8747C21.038 48.9776 20.7831 49.1418 20.5941 49.2681C20.6459 49.1422 20.7023 49.014 20.7565 48.8871C20.6077 48.9629 20.4585 49.0379 20.3087 49.1143C20.3256 49.2638 20.3413 49.4133 20.358 49.5625C20.2501 49.4971 20.1416 49.4309 20.0335 49.3653C19.8804 49.6339 19.913 49.6917 19.4963 49.8466C19.4067 49.7519 19.3156 49.6578 19.2258 49.5629C19.124 49.6107 19.0212 49.6592 18.9195 49.7069C18.6697 49.9354 18.4264 50.1605 18.1723 50.3915C18.2272 49.9649 18.0861 49.7101 18.5058 49.1458C18.5766 49.0505 19.026 48.9521 18.5371 48.9064C18.7297 48.7812 18.8838 48.676 19.0614 48.5595C18.3242 48.5924 18.4244 48.3899 18.6187 47.823C18.3802 48.2602 18.504 47.9255 18.2738 47.9951C18.1153 48.0432 18.2237 48.1727 18.0714 48.2451C17.9201 48.317 17.2348 48.4874 17.2643 48.6878C18.6746 48.3474 17.3393 49.3183 18.2116 49.4675C18.0131 49.4846 17.8133 49.5004 17.6152 49.5181C17.5351 49.6172 17.4628 49.7078 17.3786 49.8144C17.4348 49.3947 17.3704 49.6225 17.1195 49.6212C16.8687 49.62 16.5872 49.509 16.4514 49.4013C16.4087 49.3673 16.6996 49.2502 16.6627 49.1364C16.6379 49.0589 16.1347 49.117 16.5667 48.7894C16.8478 48.5759 17.8534 48.3603 17.5972 47.9529C17.8419 47.694 17.873 47.9465 17.9108 47.9288C18.281 47.7479 18.3864 47.3339 18.0482 47.3828C18.0194 47.3876 17.8054 47.6482 17.6368 47.6144C17.235 47.5351 17.4608 47.2046 17.7872 46.7912C17.2834 47.0817 16.571 47.2506 16.5998 46.8901C16.4507 46.9653 16.3007 47.0419 16.1506 47.1177C16.2492 47.1096 16.3468 47.1021 16.4454 47.0939C16.3828 47.1908 16.3459 47.2752 16.2668 47.3809C15.9911 47.2083 15.289 47.596 14.9659 47.6315C13.8617 47.7517 15.814 46.8809 16.1698 46.7618C16.0774 46.893 15.9692 47.0314 15.8701 47.166C16.0383 47.0532 16.2079 46.9396 16.3775 46.8267C15.9918 46.2183 17.4355 46.0397 17.5617 45.5302C16.6664 45.9764 16.442 45.7973 16.7981 45.1733C16.774 45.144 16.753 45.1125 16.7278 45.0838C16.6012 45.1552 16.4128 45.2725 16.3261 45.3143C15.9661 45.0554 17.2297 44.1828 17.3326 44.0731C17.7885 43.5859 16.9601 43.9423 16.9266 43.903C16.7866 43.7366 17.0897 43.4744 16.8369 43.3899C16.5642 43.2993 16.386 43.588 16.1196 43.6745C15.9077 43.7428 15.7829 43.6149 15.5547 43.6719C15.7253 43.5995 15.8946 43.5318 16.0657 43.459C16.1562 43.1318 16.2659 42.8476 16.1808 42.5955C14.8892 43.0552 16.6766 41.6505 15.1736 42.704C15.1967 42.9786 15.0916 43.2051 14.7642 43.5629C14.6288 43.458 14.4945 43.3519 14.3589 43.2467C14.5048 43.1005 14.6537 42.9687 14.7983 42.8133C14.372 42.9366 14.38 42.6024 14.2156 42.5752C13.445 42.4485 12.9093 42.9666 13.7028 41.924C13.9817 42.1465 14.4866 41.8324 14.5946 42.1612C14.917 41.8753 14.752 41.7767 15.2428 41.6017C14.9643 41.3914 14.634 41.7211 14.2249 41.8274C13.8723 41.9192 13.7404 41.7441 13.363 41.9933C13.5623 41.8431 13.7575 41.7013 13.9566 41.5513C13.8439 41.3749 13.7331 41.1969 13.6202 41.02C13.8878 40.9589 14.1558 40.8975 14.4223 40.837C14.4699 40.7279 14.5171 40.6189 14.5646 40.5097C13.6065 40.4976 14.3914 38.9582 12.745 40.1507C12.5592 39.9742 12.7587 39.8134 13.0133 39.4961C12.8747 39.5648 12.7583 39.6201 12.6049 39.6979C12.6571 39.4767 12.1013 39.6773 12.1541 39.4777C12.2059 39.2787 12.6509 38.9605 11.8607 39.4275C12.0357 39.2105 12.1732 39.0175 12.3327 38.8108C12.1265 38.874 11.9224 38.936 11.7176 38.9991C11.7649 38.8682 11.8116 38.7373 11.8589 38.6063C11.4621 38.7978 11.4445 38.4118 11.1161 38.4409C11.4426 38.0716 12.7073 37.29 12.3054 37.1481C11.9968 37.3501 11.689 37.5515 11.3804 37.7535C11.4055 37.6481 11.4303 37.5427 11.4551 37.4368C11.5549 37.3694 11.6551 37.3025 11.7548 37.235C11.7438 37.2878 11.7326 37.34 11.7205 37.3934C11.8756 37.2572 12.0303 37.122 12.1857 36.9862C11.868 37.0467 11.5502 37.107 11.2321 37.1668C11.1214 37.4215 11.0106 37.6762 10.8998 37.9307C10.5655 37.9057 10.722 37.6461 10.3748 37.6591C10.728 37.2631 11.0063 37.1551 11.5077 36.9151C11.4382 36.8928 11.3698 36.8689 11.3003 36.8465C11.7889 36.586 12.0188 36.3322 12.1528 36.6322C12.2748 36.53 12.3903 36.4313 12.5179 36.3263C12.4687 36.294 12.5635 36.1943 12.4809 36.1766C12.2553 36.1289 11.3664 36.5372 11.0831 36.7262C10.9349 36.8253 11.3076 36.7791 11.0902 36.9068C10.5602 37.218 10.6036 36.7654 10.3547 37.5339C9.9312 37.5936 10.1613 37.405 10.1565 37.1832C9.99048 37.304 9.82536 37.4238 9.65904 37.5441C9.69245 37.4191 9.7253 37.2939 9.75886 37.1692C10.7168 36.7178 10.7095 35.9578 11.7996 35.9684C11.7483 35.7966 11.6979 35.6257 11.6491 35.4531C11.7595 35.4262 11.8691 35.3999 11.9795 35.3729C11.9721 35.4692 11.9652 35.5645 11.9588 35.6601C12.0782 35.4782 12.1964 35.2967 12.3157 35.1147C11.9937 35.0602 11.6293 35.1867 11.1826 35.3478C11.0278 35.7408 11.3775 35.4264 11.5593 35.5445C11.3058 35.694 11.0809 35.8445 10.8094 35.9931C11.2733 35.5854 10.7221 35.5383 10.6562 35.4887C10.4559 35.338 11.0611 35.1776 10.9892 35.0381C10.917 34.8985 10.5168 34.9297 10.9533 34.5074C10.6719 34.685 10.385 34.8755 10.1326 35.0433C9.91083 34.8936 10.2703 34.7274 10.3002 34.679C10.7975 33.8935 10.0833 34.0833 9.76744 33.7374C9.71077 33.8415 9.66292 33.9407 9.61181 34.042C8.82861 34.1202 9.13582 34.2047 9.09654 34.5836C9.00764 34.3066 8.41125 34.4868 8.15401 34.4117C7.89707 34.3366 7.97862 33.8825 8.117 33.6489C8.59741 33.6878 8.54347 34.085 8.80181 34.2982C9.0706 34.0886 9.2957 33.9074 9.59232 33.6791C8.88617 33.8906 9.23098 33.5443 9.27751 33.4404C9.41384 33.1354 8.89838 33.4628 9.39644 33.02C9.20699 33.1432 9.04743 33.2463 8.87065 33.3617C8.74666 32.9835 8.86583 32.4186 8.02502 32.6465C8.47379 32.3405 8.90867 32.0498 9.36511 31.735C8.93203 31.8121 9.21345 31.4725 9.0597 31.4061C8.90614 31.3402 8.56124 31.616 8.33271 31.5684C8.29059 31.5594 8.49091 31.3617 8.28021 31.4062C8.06824 31.4507 6.63873 32.0172 7.74404 31.2915C7.67625 31.1706 7.64812 31.0338 7.59549 30.9069C7.72856 30.9798 7.85963 31.0539 7.99234 31.1263C8.205 30.8616 8.41719 30.5979 8.62981 30.3331C8.37964 30.4717 8.12507 30.613 7.87836 30.7501C7.42317 30.6765 7.70418 30.244 7.44901 30.0428C7.40625 30.0093 6.99019 30.4097 6.99291 30.1415C6.99569 29.8731 7.80213 29.1739 7.25243 29.0607C7.22419 29.0553 6.47821 29.3843 6.87975 28.9717C6.97069 28.8781 7.19985 28.8918 7.30297 28.7425C7.40606 28.5931 7.3519 28.2468 7.67517 28.0165C7.55783 28.0934 7.44498 28.1872 7.32886 28.2709C7.24291 28.2596 7.15661 28.2479 7.0714 28.2354C7.27854 28.1006 7.48577 27.9652 7.69186 27.8311C7.03659 27.866 6.15373 28.2224 6.16962 27.6602C5.93448 27.9617 5.69813 28.2639 5.46265 28.5649C5.69583 28.4625 5.93048 28.3592 6.16335 28.2563C6.19201 28.4929 6.22154 28.7295 6.25008 28.966C6.51247 28.8447 6.77381 28.7232 7.03622 28.602C7.03492 28.6704 7.03429 28.7378 7.03297 28.8062C6.84926 28.9035 6.66642 29.0001 6.48241 29.0969C6.58568 29.1666 6.68993 29.2358 6.79286 29.305C5.63164 29.7557 6.54185 28.704 5.68802 29.2701C5.79606 29.1429 5.90499 29.0151 6.01408 28.8873C5.58059 29.1305 5.64726 28.9671 5.61723 28.7706C5.43154 28.9353 5.25098 29.1019 5.06136 29.265C5.26077 28.9319 5.06586 28.6819 5.08151 28.4553C5.08838 28.3559 5.43675 28.2344 5.45999 28.1916C5.58264 27.9702 4.92469 28.1016 4.94081 28.0334C5.03623 27.627 5.94601 26.8348 5.10984 26.9764C5.12041 27.3603 5.09467 27.1639 4.78686 27.4944C4.69034 27.598 4.67496 28.1133 4.49855 27.5897C4.47881 27.5279 4.66333 26.2663 5.36787 26.2053C5.11377 26.1777 4.85102 26.1956 4.59331 26.1857C5.81801 25.0083 4.55681 25.9363 3.88114 26.4772C3.84739 26.43 3.81088 26.3878 3.77939 26.3371C4.61312 25.9681 4.31969 25.3899 3.8168 25.4442C3.64934 25.4618 3.51236 25.7889 3.30664 25.7167C3.31774 25.6146 3.33901 25.4936 3.35403 25.3837C2.93424 25.7904 2.61901 25.7003 2.12727 26.01C2.48505 25.6047 3.35448 24.9243 3.90481 24.6827C3.63244 24.7008 3.35997 24.7182 3.08653 24.737C3.00095 24.8604 2.91679 24.9838 2.8312 25.1073C2.91972 24.5581 1.92904 24.5381 2.9195 23.819C2.88274 23.7764 2.84667 23.7326 2.8099 23.6899C2.62573 23.7841 2.44152 23.879 2.25735 23.9733C2.27618 23.6649 2.2966 23.3568 2.31555 23.0486C2.54251 23.1714 2.81988 23.0618 2.74157 23.3871C2.89513 23.1851 3.04891 22.9809 3.20338 22.7802C2.47448 22.8168 2.0927 22.9973 1.97278 22.4445C1.96745 22.4195 2.20955 21.795 2.24658 21.7557C2.41578 21.5763 2.76049 21.4747 2.84799 21.3873C3.0937 21.1427 3.5638 20.2923 3.67729 20.2326C5.07165 19.5023 5.93125 20.8457 6.22739 21.1692C9.3 24.5267 10.6598 28.8353 13.1676 32.5067C13.1942 32.5439 13.3806 32.4047 13.3993 32.416C13.5128 32.4884 13.269 32.7802 13.28 32.8261C13.3045 32.9237 13.56 32.7027 13.5971 32.762C13.9761 33.3786 14.1665 34.0564 14.5975 34.6414C14.6255 34.6795 14.3734 34.7796 14.4572 34.825C14.5017 34.8476 14.9201 34.7449 14.9762 34.8234C15.1718 35.098 15.2093 35.407 15.4013 35.704C15.5066 35.8664 15.6297 36.1303 15.7502 36.3124C15.8032 36.3925 16.0151 36.3785 16.0705 36.4557C16.1488 36.5653 15.8117 36.7425 15.8026 36.7725C15.763 36.904 16.1237 36.6945 16.1608 36.7729C16.2284 36.9193 15.9966 37.0737 16.1238 37.2335C16.2151 37.3475 16.5768 37.513 16.7279 37.6336C16.6785 38.1656 17.0744 38.5597 17.3754 38.8414C17.5539 39.0085 17.2344 39.2328 17.2862 39.3138C17.4718 39.598 18.0287 39.5509 18.2122 39.8154C18.4544 40.165 18.373 40.6575 18.569 41.0174C18.6008 41.0756 18.896 40.8741 18.9382 40.9245C19.0938 41.1114 19.3109 41.3373 19.3823 41.5486C19.4619 41.7825 19.0685 42.1315 19.2822 42.2752C19.3452 42.3171 19.7418 42.0942 19.8522 42.1612C20.0273 42.2691 19.7934 42.6518 19.823 42.7842C19.8651 42.9647 20.1777 42.5906 20.2498 42.8242C20.2527 42.8339 19.9903 43.0387 20.0305 43.0735C20.1466 43.1754 20.3598 43.0247 20.4542 43.2236C20.4624 43.2433 20.3474 43.6555 20.3615 43.6805C20.4467 43.8269 20.5323 44.1736 20.6419 44.2228C21.0325 44.3994 21.3072 43.8985 20.5495 44.7261C20.8444 44.6995 21.1417 44.6699 21.4343 44.6538C21.1809 44.7002 21.0894 45.208 21.1232 45.2198C21.3944 45.315 21.681 44.9797 21.7718 45.2573C20.7493 45.4522 21.8588 45.6342 21.9665 45.7603C22.4852 46.3662 22.663 47.1108 23.0879 47.782C23.2308 48.007 23.5912 48.1977 23.7381 48.4431C23.7728 48.4994 23.5512 48.5784 23.5777 48.6304C23.6055 48.6815 23.7906 48.4906 23.814 48.554C23.9555 48.9509 23.7118 49.4807 24.426 49.4768C24.361 49.5387 24.3016 49.5749 24.2355 49.6516C24.8583 49.6206 24.552 50.516 24.5839 50.7577C24.6352 51.1362 24.9949 51.0167 25.0648 51.2699C25.1555 51.6037 24.8104 52.4116 25.7003 51.5926C25.8541 51.7692 25.9801 51.9521 26.0088 52.2075C26.0118 52.236 25.746 52.3805 25.7462 52.3926C25.7439 52.471 25.9848 52.3462 26.0186 52.3771C26.1102 52.4611 25.7321 52.4664 25.8991 52.5634C25.9877 52.6142 26.215 52.533 26.3508 52.7417C27.1703 54.0091 27.9624 55.4415 28.7452 56.7739C28.7994 56.8657 29.0103 56.6518 29.065 56.7749C29.2552 57.2027 29.2713 58.1584 29.5419 58.4662C29.8099 58.7698 30.1247 58.4673 30.408 58.5838C30.4628 58.6061 30.2354 58.7014 30.2552 58.7402C30.3898 58.9987 30.2513 59.4945 30.3302 59.7292C30.3812 59.8835 30.6996 59.6703 30.7806 59.7486C30.9004 59.8658 30.6602 60.2119 30.6952 60.2917C30.8633 60.6647 31.2731 60.7332 31.3422 61.1446C31.4059 61.0874 31.4668 61.0377 31.5306 60.983C31.7593 61.3759 31.9822 61.7596 32.2079 62.1476C32.2619 62.0886 32.3168 62.0299 32.3718 61.9702C32.6187 62.4463 31.8774 62.8346 33.3485 61.8633C33.4216 61.8632 33.5043 61.8599 33.5723 61.861C32.7939 62.3283 32.4002 62.9527 32.4171 63.4166C32.4181 63.4509 33.2737 63.1505 32.3749 63.6853C32.6193 63.5938 32.7848 63.5258 32.9991 63.4448C32.7767 63.6864 32.5579 63.9268 32.3362 64.1673C32.4011 64.1822 32.4649 64.1984 32.5296 64.2132C32.7072 64.1106 32.8849 63.9936 33.0636 63.8999C33.2051 64.0682 33.2234 64.5764 33.3344 64.7052C33.6086 65.0206 34.3158 65.1077 33.9796 65.6997C34.1157 65.8028 34.3734 65.4558 34.4554 65.6834C34.2967 65.8139 34.1444 65.9384 33.981 66.073C34.8552 65.7554 34.4049 66.0792 34.3878 66.411C34.375 66.6345 34.6266 66.6178 34.6809 66.7868C34.6945 66.8297 34.4647 66.9658 34.4878 66.9865C34.5641 67.0567 35.0255 67.102 35.0706 67.1555C35.4911 67.6464 35.747 68.1343 35.9849 68.7007C36.0116 68.7622 36.1897 68.5497 36.2165 68.6138C36.26 68.7166 35.8822 68.8761 35.8991 68.9407C35.9479 69.1193 36.3111 68.8946 36.4597 69.0904C36.7991 69.5359 37.0248 70.1733 37.2592 70.7364C37.3631 70.9797 37.4701 71.2132 37.5921 71.4241C37.606 71.4463 37.8173 71.3124 37.8345 71.3351C37.9439 71.487 37.7507 71.816 37.8483 71.9651C38.0045 72.2054 38.4147 72.1983 38.5586 72.4307C38.8454 72.8912 38.9473 73.3931 39.2384 73.876C39.4752 74.27 39.711 74.583 39.9775 75.0093C41.1366 76.8612 42.9883 78.31 43.8071 80.3328C43.8276 80.3844 43.6306 80.487 43.6477 80.4957C43.8138 80.5746 44.0699 80.4211 43.5783 80.8103C43.7934 80.9131 44.2209 80.7091 44.3232 80.9239C44.3788 81.0394 43.7214 81.3644 44.1546 81.3382C44.5462 81.3136 44.7528 80.9075 44.7398 81.6173C44.7391 81.6362 44.4132 81.9457 44.5755 81.9792C44.7383 82.0153 44.9232 81.7233 45.1635 81.9055C45.7242 82.3296 45.8881 83.2266 46.4332 83.7557C46.4667 83.7889 46.9276 84.004 47.0687 84.0069C47.3417 84.0128 47.5793 83.782 47.7791 83.9063C47.9333 84.0022 47.7285 84.3448 47.9157 84.4594C47.9378 84.4725 48.2615 84.2627 48.3189 84.415ZM19.6712 53.4009C19.3265 53.5598 18.1042 54.2194 18.3114 53.7538C18.3309 53.7101 19.2167 53.3292 19.2631 53.1166C19.4292 53.1932 19.5374 53.3054 19.6724 53.4001C19.672 53.4004 19.6716 53.4007 19.6712 53.4009ZM42.2493 90.9522C42.1626 90.739 42.0771 90.5275 41.9917 90.3139C42.2163 90.3233 42.4435 90.3358 42.667 90.3408C42.5274 90.5441 42.3877 90.7477 42.2493 90.9522ZM28.0235 68.1847C28.0236 68.1849 28.0237 68.1851 28.0238 68.1853C27.7553 68.0926 27.4856 67.9986 27.2154 67.9032C27.3396 67.8536 27.4642 67.8036 27.5884 67.7539C27.8577 67.794 28.1264 67.8335 28.3943 67.8714C28.2707 67.9759 28.1472 68.0803 28.0235 68.1847ZM30.1414 68.9469C30.0853 69.1527 29.8426 69.2622 29.6666 69.4657C29.667 69.4655 29.6674 69.4652 29.6678 69.465C29.6221 69.5182 29.624 69.6319 29.6354 69.669C29.7682 69.5699 29.8971 69.4684 30.0282 69.3689C30.5454 69.4424 29.6829 70.7446 28.7513 70.3329C28.935 70.2332 29.1175 70.1337 29.3011 70.034C29.0286 69.7075 29.1611 69.0649 30.1414 68.9469ZM17.381 50.8568C16.6118 50.9134 16.4288 50.8919 16.5956 50.2736C16.7926 50.2238 16.9895 50.1739 17.1865 50.124C17.0569 50.2895 16.9282 50.4538 16.7985 50.6193C16.7986 50.6194 16.7987 50.6196 16.7988 50.6198C16.9825 50.5225 17.1666 50.425 17.35 50.3272C17.3604 50.5037 17.3709 50.6807 17.381 50.8568ZM37.0058 80.8276C35.9079 81.6434 36.5629 81.1958 36.1481 81.1165C36.0039 81.0887 35.8551 81.2996 35.7879 81.2679C35.4237 81.0992 36.1857 80.5939 36.6255 80.3994C36.7486 80.5333 36.8826 80.6894 37.0055 80.8271C37.0056 80.8273 37.0057 80.8274 37.0058 80.8276ZM42.1235 87.8604C42.1236 87.8605 42.1237 87.8607 42.1239 87.8608C41.8661 88.0715 41.7107 88.0166 41.5564 88.3327C41.4847 88.238 41.4144 88.1419 41.3433 88.0466C41.3891 88.0556 41.4342 88.066 41.48 88.0748C41.5521 87.981 41.6254 87.8863 41.6977 87.7927C41.3681 87.9912 41.5211 87.8253 41.5481 87.6489C41.2429 87.9227 40.9378 88.1972 40.6336 88.4721C40.6406 88.28 40.651 88.0907 40.6605 87.8998C40.7419 87.8368 40.8235 87.7737 40.905 87.7108C40.7665 87.7451 40.627 87.7804 40.4888 87.8149C40.5788 87.7298 40.6682 87.6458 40.7583 87.5609C40.6443 87.5633 40.5299 87.5649 40.4143 87.5666C40.6427 87.3745 40.8322 87.4159 40.6189 87.2521C40.9114 87.1348 41.2049 87.0201 41.4971 86.9018C41.7019 87.2221 41.9114 87.5431 42.1235 87.8604ZM35.2627 78.8563C35.5301 79.1737 35.2851 79.1896 34.6635 79.4702C34.8636 79.2661 35.063 79.0611 35.2627 78.8563ZM24.5466 60.5587C24.0929 60.7019 23.6428 60.8419 23.2011 60.9736C22.8548 60.9039 23.4388 60.2529 23.815 60.2345C24.2666 60.2128 24.0125 60.6408 24.5466 60.5587ZM21.4455 55.9653C21.4202 56.329 20.8086 56.3824 20.5024 56.4943C20.8946 56.1538 20.7959 56.0808 20.7493 55.8931C20.8688 56.0223 21.4505 55.9046 21.4468 55.9645C21.4464 55.9648 21.4459 55.965 21.4455 55.9653ZM26.64 64.8989C26.7144 64.9923 26.8858 65.024 26.8089 65.1962C26.4182 65.4023 26.6466 65.0109 26.1722 65.4846C26.1228 65.4264 26.0735 65.3678 26.0232 65.3105C26.2781 65.208 26.4158 65.0464 26.6389 64.8999C26.6393 64.8996 26.6397 64.8993 26.64 64.8989ZM32.7035 75.7538C33.0215 75.2786 32.8086 75.3591 32.3747 75.3469C32.7168 75.093 33.4721 74.9591 33.6981 75.0251C33.3666 75.2678 33.0348 75.5107 32.7035 75.7538ZM3.63201 28.6428C4.12144 28.4048 4.40036 28.7198 4.37316 28.9792C4.29203 29.0007 4.20994 29.0228 4.12777 29.045C3.96273 28.9112 3.79714 28.7767 3.63201 28.6428ZM20.7341 55.7994C20.7369 55.8339 20.7423 55.865 20.7493 55.8931C20.7281 55.8702 20.7203 55.8402 20.7341 55.7994ZM16.1474 43.9785C16.6326 43.7924 16.6241 43.4539 16.6415 43.8605C16.6419 43.8603 16.6423 43.86 16.6427 43.8598C16.6547 44.1282 16.6521 44.1906 16.7327 44.3955C16.1348 44.6756 15.7037 44.4262 15.9086 45.0119C15.9123 45.019 16.2352 44.7995 16.2409 44.9097C16.2426 44.9438 16.0211 45.1939 16.0186 45.3662C16.018 45.4217 16.12 45.7727 15.8613 45.3686C15.4808 45.6221 15.0744 45.8445 14.6985 46.0796C14.4901 45.9885 15.1738 45.3934 15.0502 45.2362C14.8647 45.0038 14.0166 45.3537 14.9948 44.6784C15.3741 44.7359 15.6051 45.094 15.0281 45.5182C15.1473 45.7264 15.6803 45.4758 15.8241 45.1589C15.0741 44.6491 16.4416 44.5077 15.6606 44.1362C15.5159 44.2161 15.3491 44.2844 15.2198 44.3703C15.5957 43.8744 15.9739 44.0452 16.1474 43.9785ZM15.9911 46.1181C15.6188 46.1802 15.2437 46.2432 14.8716 46.3081C15.3549 46.0081 15.8286 45.8034 16.2211 45.8278C16.144 45.9246 16.0672 46.0219 15.9911 46.1181ZM9.4956 35.9552C9.22209 36.1009 8.95237 36.2037 8.6812 36.325C8.87983 36.1506 8.54594 35.1397 9.04118 35.4517C9.11323 35.4971 8.89489 36.1815 9.4956 35.9552ZM33.9577 76.879C34.0688 76.6658 34.183 76.4568 34.2949 76.2447C34.5042 76.3311 34.7147 76.4126 34.9306 76.5047C34.6065 76.6296 34.2822 76.7548 33.9577 76.879ZM23.9618 58.5928C23.9789 58.6422 23.5283 58.7231 23.6915 58.8584C23.3814 58.8749 23.1116 58.8771 22.8167 58.8874C22.9641 58.7436 23.1107 58.5999 23.2581 58.456C23.1303 58.4951 23.0027 58.5331 22.8749 58.5721C23.1346 58.4348 23.3874 58.2991 23.6519 58.1601C23.2497 58.703 23.8846 58.3747 23.9618 58.5928ZM28.8372 64.2524C28.3204 64.6275 27.8067 64.5194 27.9095 64.8769C27.5181 65.0402 27.2745 65.0643 27.1349 64.9107C27.2534 64.7982 27.3708 64.6862 27.4892 64.5736C27.1233 64.7962 26.9603 64.8357 26.64 64.8989C26.6404 64.8986 26.6407 64.8982 26.6411 64.8979C26.449 64.6482 26.5798 64.5881 27.1374 64.1516C26.9763 64.6446 27.5273 64.3125 27.9712 64.3015C28.2764 64.2939 28.2808 64.5263 28.8372 64.2524ZM10.0818 36.8841C9.5011 36.9685 9.18659 37.4125 9.45142 36.7566C9.58164 36.7073 9.71094 36.6587 9.84116 36.6094C9.92254 36.7004 10.0026 36.792 10.0818 36.8841ZM27.6009 66.3964C28.4236 65.8523 28.9583 65.2592 27.5769 66.0756C27.4136 66.431 28.1292 65.8612 27.6009 66.3964ZM22.8095 55.2351C22.9881 55.609 22.0036 56.1333 21.4404 56.2814C21.5985 56.1523 21.7568 56.0229 21.9141 55.8949C21.7979 55.8821 21.6815 55.8694 21.5663 55.8558C21.9804 55.6491 22.3955 55.4418 22.8095 55.2351ZM32.3995 72.0422C31.6365 72.1498 32.2459 72.5356 31.7575 72.5834C31.3675 72.6224 31.8464 72.0497 32.2699 71.8886C32.3127 71.9336 32.3558 71.9863 32.3992 72.0417C32.3993 72.0419 32.3994 72.0421 32.3995 72.0422ZM31.2567 70.5919C30.646 71.0344 30.7925 70.855 31.0397 70.9954C31.1108 71.0365 31.1675 71.6611 31.572 71.1316C31.4661 70.9621 31.3625 70.7755 31.2567 70.5919ZM19.3369 51.738C19.6132 51.5618 20.4558 51.5543 20.3326 51.6969C20.333 51.6966 20.3334 51.6964 20.3338 51.6961C19.9975 52.0841 19.6943 51.7286 19.2286 52.2544C19.4969 51.5645 18.2097 52.2074 19.8289 51.2367C20.0379 51.4159 19.6419 51.5159 19.3369 51.738ZM2.06852 23.2061C2.06841 23.206 2.06831 23.2058 2.0682 23.2056C2.07066 23.2388 1.79041 23.6987 1.63337 23.7616C1.60058 23.4384 1.89685 23.3154 1.31169 23.3592C1.44609 23.2582 1.57735 23.1615 1.7122 23.0588C1.8535 23.0979 2.05596 23.0424 2.06852 23.2061ZM9.46662 34.6573C9.59567 34.7026 9.39785 35.057 9.48042 35.1498C8.11596 35.5377 8.95222 34.4745 9.46662 34.6573ZM39.7089 84.5584C39.7083 84.5584 39.7077 84.5584 39.7072 84.5584C39.7078 84.5581 39.7085 84.5578 39.7092 84.5574C39.7091 84.5577 39.709 84.558 39.7089 84.5584ZM13.1607 42.1478C13.2285 42.0894 13.2897 42.0421 13.3456 42.0041C13.3509 42.0008 13.3563 41.9974 13.3617 41.9941C13.2953 42.0442 13.2283 42.0952 13.1607 42.1478ZM18.77 51.0139C19.0615 50.6174 19.9998 50.7505 19.9575 51.0108C19.7731 51.1092 19.6114 51.2073 19.391 51.3065C19.7653 50.8856 18.7198 51.079 18.77 51.0139ZM26.2487 62.7112C26.004 62.295 27.8676 61.8744 26.6592 62.6568C26.635 62.6708 26.2574 62.7205 26.2487 62.7112ZM20.9355 54.1366C21.4636 53.9514 21.4573 53.6668 21.5841 54.0492C21.4762 54.1436 21.368 54.2381 21.2601 54.3325C21.1508 54.265 21.0435 54.2021 20.9355 54.1366ZM26.5925 58.7829C26.0152 58.4314 25.2494 58.217 24.1813 59.3512C24.2467 59.3648 24.3112 59.3798 24.3766 59.3934C25.0041 59.0108 24.7535 59.3674 24.8641 59.5902C25.1304 59.466 25.2602 59.5467 25.4842 59.4375C25.9173 59.2263 26.1202 58.9147 26.5925 58.7829ZM39.1395 81.0828C39.0287 81.1423 38.9174 81.2023 38.8075 81.2611C38.6367 81.2569 38.4632 81.2473 38.2933 81.2446C38.5043 81.1276 38.715 81.0103 38.926 80.8935C38.9979 80.9574 39.0691 81.0199 39.1398 81.0819C39.1397 81.0822 39.1396 81.0825 39.1395 81.0828ZM17.6202 45.8017C16.4187 46.484 16.7365 46.5135 17.5346 46.4753C17.5634 46.2512 17.5917 46.0263 17.6202 45.8017ZM31.2642 67.3386C30.9381 67.5568 30.6128 67.7742 30.287 67.9929C30.7427 67.9516 31.1035 67.6813 31.4918 67.3229C31.416 67.3279 31.3401 67.3337 31.2642 67.3386ZM32.9842 69.78C33.0084 69.6642 32.7628 69.8688 32.7635 69.8579C32.7899 69.5859 32.897 69.4832 32.5523 69.3812C32.4643 69.3972 32.3728 69.416 32.2826 69.4332C31.6514 69.9742 32.0796 69.8142 31.8081 70.2914C32.0224 70.1022 32.237 69.913 32.4522 69.723C32.4788 69.8781 32.5052 70.0314 32.5307 70.1849C32.6135 70.1533 32.6956 70.1222 32.7784 70.0906C32.8461 69.9882 32.9247 69.8769 32.9842 69.78ZM39.4377 82.2035C39.4892 82.3422 39.5385 82.4798 39.5873 82.6138C39.7597 82.5075 39.9331 82.4004 40.1054 82.2941C39.8847 82.267 39.6619 82.2366 39.4377 82.2035ZM15.5547 43.6719C15.4878 43.7002 15.4207 43.7291 15.3531 43.7596C15.4297 43.7131 15.4955 43.6866 15.5547 43.6719ZM2.81497 22.3039C2.85074 22.0933 2.65009 21.9465 2.58271 21.7818C2.15873 22.0616 2.51341 22.3663 2.33466 22.6618C2.42533 22.6351 2.80008 22.3927 2.81497 22.3039ZM23.0761 55.7479C23.3125 55.6483 23.5478 55.5494 23.7839 55.4493C23.8122 55.5464 23.8392 55.6444 23.8676 55.7417C24.0452 55.6346 24.2243 55.5264 24.4019 55.4193C23.9456 55.1961 24.5056 54.9641 24.8933 54.4708C24.2881 54.8965 23.6824 55.3216 23.0761 55.7479ZM43.019 85.1534C42.7295 84.9913 42.4516 85.0516 42.0459 85.5547C42.2252 85.5601 42.4041 85.5643 42.584 85.5694C42.7287 85.4305 42.8736 85.2916 43.019 85.1534ZM12.97 38.6276C12.6352 38.5295 13.342 38.0849 12.8116 38.115C12.7529 38.312 12.6926 38.5099 12.6334 38.7063C12.7452 38.6799 12.8582 38.6539 12.97 38.6276ZM21.6426 48.2305C21.8314 47.984 20.5508 48.5395 21.2529 47.7384C20.9556 47.8365 20.6845 47.9507 20.3979 48.0543C20.6536 47.8517 20.9102 47.6427 21.1647 47.4429C21.1646 47.4427 21.1645 47.4425 21.1644 47.4423C20.924 47.2627 20.6745 47.6314 20.379 47.8075C20.2563 47.8803 20.3499 47.5795 20.1204 47.7981C19.7258 48.1724 20.2087 48.3686 19.6576 48.7124C19.7599 48.4751 19.4568 48.3235 19.134 48.6249C18.7796 48.9557 19.5999 48.7654 19.3559 49.1205C20.1067 48.362 20.1044 48.9653 19.4579 49.4354C20.1356 49.3658 20.2028 49.0009 20.0163 48.7552C20.6341 48.5916 20.208 48.5317 20.6152 48.2247C20.978 48.2275 21.1104 48.9241 21.6426 48.2305ZM28.1341 60.79C27.9896 60.6325 28.1193 60.1803 27.6066 60.3324C27.3083 60.4217 27.2809 60.8177 26.7632 60.8788C26.908 61.0244 27.0884 60.9654 27.4213 60.7179C27.4875 60.7303 27.553 60.7437 27.618 60.7567C27.5607 60.8171 27.5045 60.8775 27.4471 60.9379C27.6041 60.8682 27.76 60.7993 27.9167 60.7291C27.9133 60.7871 27.9118 60.8481 27.9082 60.9081C27.9839 60.8678 28.0523 60.8368 28.1341 60.79ZM9.01126 32.3089C9.04569 32.3549 9.0798 32.4004 9.11526 32.4457C9.19746 32.3871 9.28256 32.3254 9.36664 32.2646C9.43335 32.217 9.50007 32.1694 9.56679 32.1219C9.33588 32.3039 9.06828 32.7932 9.39408 32.7263C9.55762 32.6929 9.95997 32.2875 10.172 32.4448C10.0538 32.3088 9.90227 32.2087 9.77083 32.0866C9.91931 32.0126 10.069 31.9371 10.2174 31.8631C10.2176 31.8629 10.2177 31.8627 10.2179 31.8625C10.2191 31.7939 10.2218 31.7243 10.2232 31.656C9.8189 31.8736 9.41556 32.0912 9.01126 32.3089ZM31.8334 66.7856C31.4547 66.7909 31.2768 66.8237 30.8813 67.1799C30.8812 67.1802 30.8811 67.1805 30.881 67.1808C31.1168 67.1201 31.3524 67.0593 31.588 66.9982C31.6698 66.9276 31.7519 66.8568 31.8334 66.7856ZM16.135 41.3292C14.2243 42.0264 15.7564 42.1792 16.2378 41.6692C16.2599 41.6461 15.969 41.4786 16.135 41.3292ZM23.2892 54.8471C23.363 54.9352 23.4346 55.0226 23.5094 55.1122C23.703 54.9603 23.8956 54.8082 24.0896 54.6569C23.8233 54.7202 23.5557 54.784 23.2892 54.8471ZM43.0028 83.5589C43.3899 83.1578 43.3819 82.795 42.8108 83.0111C42.7955 83.1126 42.7811 83.2153 42.7679 83.3195C42.6262 83.2327 42.4881 83.1629 42.3504 83.0741C41.7153 83.4938 42.1752 83.3864 42.1465 83.7174C42.1413 83.77 41.5054 84.5142 42.1417 84.1823C42.2712 84.1124 42.2037 83.8381 42.6588 83.749C42.6411 83.664 42.5954 83.6104 42.567 83.5358C42.7136 83.4289 42.8604 83.322 43.0067 83.2148C43.0063 83.3307 43.0043 83.4453 43.0028 83.5589ZM27.4501 59.804C27.3352 59.5401 27.0581 59.6706 26.5704 59.9043C26.6923 59.985 26.8134 60.066 26.9349 60.1461C27.1061 60.032 27.2778 59.9187 27.4501 59.804ZM41.7702 81.3998C41.7596 81.2227 41.4299 81.5181 41.3268 81.5123C40.9404 81.4924 41.1091 81.1779 40.8223 81.0957C40.9014 81.0625 40.9751 81.0312 41.0518 80.9988C41.0517 80.9986 41.0516 80.9985 41.0515 80.9983C40.7646 79.8735 40.2489 80.906 40.7369 81.3627C40.609 81.4644 40.4805 81.5657 40.3536 81.6667C40.756 81.7645 41.1259 81.8304 41.7702 81.3998ZM18.1426 44.4284C18.2224 44.3639 18.8283 44.1127 18.4653 44.1028C17.5793 44.4673 18.1145 44.4398 17.8409 44.6879C17.7348 44.689 17.6309 44.689 17.5255 44.6912C17.4704 45.1081 17.6873 45.0316 18.2104 44.5652C18.2454 44.5335 18.0629 44.4925 18.1426 44.4284ZM17.4078 42.3649C16.2015 43.0614 16.9512 43.0814 17.3103 42.8405C17.2948 42.783 17.0712 42.8698 17.1278 42.7634C17.1842 42.6566 17.4517 42.4709 17.4078 42.3649ZM23.3404 52.5466C23.3394 52.5332 23.7726 52.1219 23.39 52.374C22.5483 53.0734 23.2988 52.9587 23.5917 52.7148C23.5236 52.6407 23.3506 52.6705 23.3417 52.5459C23.3413 52.5461 23.3409 52.5464 23.3404 52.5466ZM44.3098 84.8335C44.3374 84.8058 44.3585 84.4363 44.1607 84.5351C43.9439 84.6549 43.7215 84.797 43.5016 84.9273C43.7859 84.9183 43.8326 85.2852 44.3094 84.833C44.3095 84.8332 44.3096 84.8333 44.3098 84.8335Z" fill="#FF8457"/>
<path d="M396.121 14.9652C396.728 15.0539 395.87 15.6211 396.901 15.5832C396.867 15.7223 396.831 15.8654 396.793 16.0094C396.532 15.8592 396.272 15.7091 396.011 15.5585C396.044 15.3643 396.087 15.1584 396.12 14.9644C396.121 14.9647 396.121 14.9649 396.121 14.9652ZM393.251 12.5416C393.836 13.1869 393.713 13.737 394.682 13.7507C394.473 13.5398 394.265 13.3284 394.056 13.1181C394.355 13.0956 394.658 13.0677 394.956 13.0437C394.907 12.9211 394.859 12.7985 394.813 12.6743C395.278 12.9018 395.742 13.1317 396.206 13.3618C396.099 13.3816 395.99 13.4023 395.882 13.4238C396.025 13.9265 395.952 14.2176 395.754 14.6156C395.874 14.6557 395.993 14.6953 396.113 14.7359C395.815 14.7949 395.525 14.8419 395.228 14.9003C395.18 14.6258 395.124 14.3244 395.077 14.0728C394.27 13.8226 394.335 14.4828 394.313 14.793C394.29 15.2072 394.032 14.917 394.003 15.2238C393.998 15.2722 394.233 15.4552 394.19 15.5217C393.966 15.8654 393.362 16.4186 393.082 15.629C393.559 15.1329 393.453 14.338 394.013 13.9211C393.26 13.5898 393.253 13.1389 393.251 12.5416ZM387.891 24.1179C387.7 23.7196 388.068 23.4856 388.46 23.4085C388.461 23.4083 388.461 23.408 388.461 23.4077C388.547 23.3921 389.048 23.5843 388.909 23.7377C388.678 23.991 387.929 23.6326 388.272 24.1C388.144 24.1011 388.021 24.1124 387.891 24.1179ZM387.497 24.7346C387.218 24.7767 386.775 24.3419 387.06 24.2349C387.06 24.2346 387.059 24.2343 387.059 24.2341C387.179 24.1875 387.444 24.6469 387.278 24.0411C387.634 24.2047 387.961 24.3491 388.306 24.5068C388.255 24.5861 388.212 24.6615 388.157 24.7448C387.69 24.3157 387.776 24.6905 387.497 24.7346ZM393.154 16.115C393.591 16.4786 393.671 16.3639 394.123 16.4146C393.981 16.5755 393.831 16.7455 393.692 16.9022C393.514 16.6381 393.33 16.3835 393.154 16.115ZM396.249 12.0591C396.249 12.0589 396.249 12.0586 396.25 12.0583C396.22 11.9476 396.188 11.8392 396.159 11.7285C396.349 11.8129 396.536 11.8972 396.725 11.9818C396.724 11.9078 396.723 11.834 396.722 11.7606C396.72 11.5149 396.715 11.2735 396.711 11.0293C397.106 11.3469 396.945 11.6111 396.982 11.9501C396.991 12.0239 397.01 12.1015 397.046 12.1843C396.674 12.3782 396.281 12.3082 395.842 12.02C395.978 12.0325 396.114 12.0464 396.249 12.0591ZM358.608 59.1842C358.697 59.3533 358.786 59.5217 358.875 59.6909C359.004 59.6466 359.118 59.5921 359.258 59.5546C358.83 58.8767 359.379 59.2433 359.569 58.9056C360.151 57.8693 359.025 57.4495 361.029 57.581C360.455 58.2289 361.293 58.4322 361.485 59.2083C361.046 59.0183 360.495 57.9869 360.116 58.1354C360.165 58.9057 360.198 59.6401 360.063 60.3658C360.139 60.3977 360.216 60.4299 360.293 60.4619C360.314 60.3466 360.334 60.232 360.355 60.117C360.463 60.3362 360.57 60.5524 360.678 60.7749C360.368 60.3673 360.369 60.83 359.944 60.4571C359.755 60.291 359.571 59.9525 359.435 59.7326C359.182 59.8578 358.933 59.996 358.681 60.1258C358.597 59.9024 358.514 59.6772 358.429 59.4539C358.488 59.3634 358.547 59.2748 358.605 59.1845C358.606 59.1844 358.607 59.1843 358.608 59.1842ZM329.009 104.096C328.725 103.496 328.987 102.974 329.69 103.112C329.463 103.44 329.236 103.769 329.009 104.096ZM395.479 11.7844C395.58 11.8141 395.681 11.8428 395.783 11.872C395.835 12.1118 395.891 12.3441 395.942 12.5851C395.693 12.4401 395.444 12.295 395.195 12.1513C395.288 12.0315 395.387 11.9038 395.479 11.7844ZM389.721 20.134C389.776 20.0306 389.79 20.0279 389.907 19.9377C389.907 19.9377 389.906 19.9377 389.906 19.9377C389.949 19.9051 390.372 19.6138 390.517 19.7883C390.375 19.9884 390.227 20.182 390.083 20.378C389.961 20.2977 389.845 20.2135 389.721 20.134ZM391.484 17.9615C391.484 17.9615 391.485 17.9616 391.486 17.9616C391.563 17.9127 391.666 17.8887 391.727 17.8263C391.821 18.2849 391.289 17.9557 391.255 18.2986C391.221 18.6445 391.399 18.9826 390.561 18.6788C390.514 18.528 390.425 18.3395 390.361 18.1754C390.874 18.0556 390.693 17.7595 390.616 17.2975C390.906 17.5194 391.194 17.7396 391.484 17.9615ZM363.104 55.965C362.81 55.6513 363.197 55.8242 363.206 55.8197C363.207 55.8201 363.207 55.8206 363.207 55.821C363.308 55.0213 363.342 56.0325 363.787 55.5354C363.814 55.6773 363.847 55.8215 363.875 55.9637C363.621 55.9658 363.343 55.9559 363.104 55.965ZM376.605 37.5902C376.708 37.6577 376.812 37.7244 376.915 37.7919C376.658 38.0944 376.988 38.4628 376.435 38.471C376.492 38.175 376.549 37.8813 376.604 37.5893C376.604 37.5896 376.605 37.5899 376.605 37.5902ZM387.812 21.2171C387.88 20.7292 387.997 20.3969 388.546 20.2796C388.546 20.2796 388.547 20.2796 388.548 20.2797C388.58 20.2738 388.718 20.5207 388.789 20.5337C388.809 20.4409 388.815 20.3342 388.829 20.2374C389.002 20.3502 389.174 20.4634 389.346 20.5755C389.155 20.7363 388.961 20.9013 388.763 21.0713C388.882 21.1126 389.001 21.1526 389.12 21.194C389.041 21.4057 388.967 21.6101 388.894 21.8146C388.665 21.5557 388.436 21.2971 388.206 21.0388C388.075 21.0969 387.945 21.1577 387.812 21.2171ZM371.605 42.1392C371.754 42.1622 371.859 42.3993 372.016 42.3801C372.172 42.3601 372.088 42.0518 372.366 42.3131C372.321 42.4604 372.278 42.6183 372.233 42.7699C373.067 42.7865 372.847 42.0411 373.532 42.5335C373.087 42.7705 372.947 43.1344 372.871 43.6329C372.342 43.2223 372.139 42.5207 371.466 42.3759C371.512 42.298 371.558 42.2141 371.605 42.1409C371.605 42.1403 371.605 42.1397 371.605 42.1392ZM392.308 1.74218C392.497 1.55407 392.607 0.902087 393.119 0.837051C393.245 0.821965 394.435 1.28104 394.571 1.37304C395.026 1.68662 394.899 2.01301 395.402 1.90805C395.336 2.01288 395.287 2.1238 395.227 2.2307C395.548 2.41892 395.868 2.60673 396.188 2.79481C396.224 2.6396 396.26 2.48417 396.296 2.32788C396.402 2.38998 396.509 2.45225 396.615 2.51435C396.319 2.96336 396.89 2.96229 397.102 3.44023C397.431 3.35076 397.76 3.25812 398.089 3.16829C397.983 3.27656 397.87 3.41085 397.77 3.50158C398.284 3.86566 398.333 3.52268 398.459 3.54294C399.175 3.65804 398.047 4.74928 398.735 5.36562C398.958 5.21774 399.184 5.05801 399.408 4.90461C399.461 5.02762 399.515 5.15096 399.568 5.27419C398.725 5.39848 398.18 5.80629 397.478 6.13355C397.466 6.19748 397.454 6.26233 397.441 6.32564C397.685 6.47205 397.928 6.61857 398.172 6.76487C398.148 6.86032 398.124 6.95355 398.099 7.04883C397.481 6.29486 397.279 6.61166 396.556 6.65098C396.422 6.2682 396.751 6.14175 396.235 5.81048C396.162 6.74654 395.07 7.13959 395.045 8.09062C395.039 8.32572 395.682 8.78633 395.352 9.1205C395.291 9.05722 395.165 8.96323 395.078 8.8882C394.974 9.45936 394.893 9.88296 394.622 10.2327C394.482 10.4131 394.29 10.5748 394.013 10.7283C394.27 10.8583 394.53 10.987 394.788 11.1159C394.778 10.8897 394.766 10.6618 394.754 10.437C394.991 10.5316 395.121 10.6496 395.235 10.6784C395.338 10.7035 395.43 10.6546 395.574 10.4519C395.826 10.0978 395.506 10.1859 395.462 10.0094C395.403 9.76698 395.785 9.87623 395.715 9.6104C395.661 9.40726 395.262 9.29905 395.544 9.07491C395.869 9.48208 396.209 9.89703 396.537 10.3099C396.395 10.3132 396.254 10.3124 396.112 10.3146C396.054 10.1661 395.994 10.0223 395.936 9.87394C395.957 10.257 395.972 10.6235 395.992 11.0204C395.661 10.7019 395.551 10.7474 395.504 10.8748C395.478 10.9488 395.475 11.0517 395.462 11.1233C395.409 11.4233 395.143 10.941 395.107 11.1324C395.07 11.3255 395.409 11.8077 395.12 11.9996C394.963 11.6682 394.589 11.6881 394.376 11.4747C394.163 11.2622 394.312 10.947 393.855 11.02C393.686 11.6682 395.003 11.7923 394.899 12.2436C394.778 12.7821 393.214 11.7864 392.983 11.4292C392.804 11.1443 393.094 10.8559 392.915 10.5735C392.029 10.8294 392.919 11.4938 393.02 11.7223C393.383 12.5636 391.871 11.0563 392.163 11.9484C391.851 11.7058 391.57 11.4884 391.271 11.2555C391.272 11.376 391.316 11.4775 391.295 11.602C392.108 11.7958 391.924 11.9897 391.842 12.1032C391.713 12.2826 392.217 12.2306 392.261 12.3353C392.376 12.6153 392.132 12.7476 392.496 12.826C392.328 12.7874 392.159 12.7506 391.991 12.7139C391.995 13.0398 392.968 14.4967 393.037 13.8426C393.496 14.2524 393.154 14.2197 392.992 14.2826C392.831 14.3442 393.144 14.5767 393.011 14.635C392.483 14.8655 392.141 14.2062 391.767 13.832C391.662 14.5814 392.238 14.2023 391.862 15.1164C392.149 15.4451 392.783 15.3525 392.757 15.8007C392.117 15.4226 391.537 15.3133 391.019 15.601C391.125 15.7427 391.233 15.8854 391.34 16.0276C390.62 15.8526 390.13 15.321 390.497 16.2495C389.41 15.0977 390.102 15.8392 389.302 15.8547C389.14 15.8588 389.016 15.4819 388.802 15.4962C388.704 15.5042 388.812 15.769 388.573 15.7761C388.456 15.7774 387.764 15.7028 387.852 16.0643C388.561 16.3748 388.814 17.1139 389.544 17.1768C389.003 17.6516 388.983 18.2886 388.64 17.0201C388.349 17.0295 388.052 17.0488 387.762 17.0584C387.834 17.2651 387.902 17.4731 387.97 17.6823C387.459 17.3299 387.332 17.209 387.118 17.6827C387.13 17.4201 387.142 17.1521 387.151 16.8913C387.055 16.811 386.968 16.7096 386.865 16.6432C386.9 16.9984 386.535 17.6665 386.56 17.9104C386.584 18.1561 386.83 17.898 386.928 18.0357C387.732 19.171 386.96 18.5762 386.963 18.9548C386.964 19.18 387.337 18.9192 387.325 19.0309C387.282 19.4426 386.616 19.163 386.413 19.4236C386.803 19.5652 387.198 19.7123 387.588 19.8602C387.366 20.1265 387.142 20.4242 387.058 20.7541C387.024 20.8839 387.319 20.984 387.323 21.0121C387.346 21.1517 387.225 21.5885 387.205 21.6178C387.017 21.8766 386.681 21.6407 386.475 21.8836C386.521 21.762 386.565 21.6493 386.609 21.5324C386.106 21.0937 385.603 20.6542 385.098 20.215C384.879 20.4319 384.654 20.6561 384.427 20.884C384.743 20.8286 385.059 20.7728 385.372 20.7225C385.596 21.3255 385.811 21.9426 386.041 22.5397C385.666 22.4915 385.29 22.4447 384.913 22.4004C384.678 22.8671 385.826 23.5683 384.738 23.0648C384.732 23.2417 384.724 23.4198 384.714 23.5983C384.592 23.4818 384.469 23.3652 384.347 23.2487C384.324 23.4542 384.297 23.6628 384.274 23.8702C384.865 24.0687 385.48 24.2865 386.055 24.4778C385.949 24.8394 385.538 24.5483 385.405 24.5166C385.049 24.4385 385.256 24.9151 384.942 24.8227C384.835 24.7894 384.769 24.3198 384.392 24.1874C384.319 24.1613 382.917 23.6955 383.001 24.129C383.209 24.2753 383.475 24.4417 383.705 24.596C383.589 25.0139 382.403 24.384 382.133 24.1221C382.221 24.4427 382.057 24.7031 382.359 24.9795C382.303 25.0723 382.247 25.1646 382.191 25.2584C381.459 24.5788 381.335 25.0542 382.004 25.5846C382.133 25.4441 382.262 25.3056 382.39 25.1681C383.149 25.9008 383.992 25.8192 382.514 26.1942C381.946 26.0497 382.807 25.9214 382.372 25.8258C381.996 25.9368 381.983 26.2896 381.498 26.3096C380.894 26.3327 380.799 25.6928 380.766 26.755C383.129 26.0883 381.435 27.5657 381.274 28.5769C379.918 27.9057 379.101 28.2196 378.827 29.3426C379.222 29.5049 379.251 29.1048 379.475 29.0304C379.699 28.9561 379.774 29.2693 380.072 29.1912C380.37 29.1127 380.878 28.8657 381.252 28.8508C381.326 29.1471 381.18 30.2832 381.035 29.3552C380.414 29.5067 379.925 29.4591 379.503 29.9033C379.917 30.433 380.252 30.6576 379.912 31.1524C379.397 30.3335 378.489 30.5155 377.829 29.8446C378.257 29.6276 378.843 30.3544 379.337 30.4119C379.387 30.4167 379.437 29.9662 379.503 29.9033C378.616 29.7407 378.291 29.6744 377.657 28.9062C377.56 29.1822 377.357 29.2534 377.713 29.5468C377.517 29.4763 377.32 29.406 377.125 29.335C377.074 29.4128 377.039 29.4915 376.977 29.5693C377.619 29.8697 377.115 29.8325 377.26 30.1681C377.407 30.5012 377.994 30.628 377.704 31.0367C377.934 30.9978 378.137 30.9576 378.356 30.9196C378.31 31.2836 378.263 31.6524 378.213 32.0231C378.692 32.0874 379.492 32.0633 379.934 32.4051C379.677 32.3992 379.671 33.0335 379.65 33.089C379.566 33.3002 379.352 32.9951 379.336 33.0033C378.993 33.1804 378.916 33.4887 378.41 33.2762C378.454 33.6229 378.229 33.6969 378.079 33.9252C377.996 34.051 378.329 34.2594 378.217 34.2867C377.531 34.4539 377.412 33.8352 377.469 34.8738C377.476 34.9691 377.485 35.0789 377.495 35.2054C377.683 35.2383 377.873 35.2735 378.062 35.3086C378.177 35.3278 378.291 35.347 378.405 35.3658C378.407 35.4322 378.41 35.4987 378.412 35.5652C378.418 35.6624 378.423 35.7597 378.429 35.8573C378.339 35.8959 378.249 35.9339 378.159 35.9728C377.682 35.6211 377.205 35.2684 376.728 34.9167C376.647 34.9725 376.566 35.0295 376.485 35.0858C376.533 34.9219 376.58 34.7584 376.627 34.5958C376.552 34.5225 376.476 34.4499 376.4 34.3766C376.131 34.4712 375.859 34.5658 375.587 34.6626C375.75 34.7881 375.915 34.9145 376.078 35.04C375.527 35.3062 375.377 35.2158 375.528 35.9699C375.294 36.2791 375.799 37.0466 375.957 37.445C375.815 37.4428 375.672 37.44 375.53 37.4388C375.637 37.5826 375.743 37.7265 375.85 37.8705C375.596 37.814 375.341 37.759 375.087 37.7038C375.489 38.0712 375.608 38.1947 376.003 37.9768C376.464 38.4869 375.795 38.8973 375.446 38.991C375.178 39.0661 374.869 38.5385 374.798 38.5202C374.557 38.4564 374.504 38.8667 374.428 38.9058C374.108 39.0717 373.996 39.2722 373.721 39.4373C373.667 39.469 373.284 39.3888 373.267 39.3933C373.154 39.4451 372.866 39.5459 372.844 39.5673C371.736 40.6296 373.94 40.2341 372.971 41.2807C373.161 41.3665 373.347 41.4544 373.536 41.5411C373.483 41.635 373.428 41.7298 373.374 41.8242C373.156 41.8342 373.004 41.5175 373.045 41.8848C372.853 41.7222 372.661 41.5595 372.47 41.397C372.51 41.5725 372.55 41.7451 372.59 41.9193C371.779 41.5536 371.216 41.9871 370.42 41.3445C370.149 41.1254 370.147 40.5245 369.697 40.5112C369.515 40.6356 369.933 40.7676 369.901 40.8489C369.66 41.4338 369.211 41.0623 369.187 41.358C369.364 41.5375 369.545 41.7217 369.724 41.9035C369.608 41.9375 369.492 41.9718 369.376 42.0068C369.498 42.1239 369.62 42.2419 369.742 42.359C369.804 42.2926 369.873 42.2171 369.931 42.1569C370.383 42.6386 370.005 43.6496 369.792 43.0025C369.706 42.7394 369.957 42.5585 369.228 42.2553C369.154 42.5442 369.058 42.866 368.973 43.1693C368.834 43.0792 368.696 42.9883 368.557 42.8981C368.408 43.2826 369.155 43.3804 369.44 43.5902C369.394 43.6695 369.347 43.7489 369.301 43.8285C369.149 43.7652 368.992 43.6959 368.843 43.6371C369.046 43.7906 369.494 44.1813 369.155 44.2722C368.936 44.3298 368.581 43.7263 368.454 44.0501C368.79 44.2646 369.252 44.4521 369.134 44.8306C368.777 44.6157 368.44 44.433 368.071 44.1989C368.123 44.8029 367.484 44.5916 367.538 45.3019C367.572 45.752 368.131 46.749 366.705 45.9835C366.521 46.1635 366.89 46.3353 366.919 46.4476C367.057 46.9781 366.29 46.7388 366.216 46.7648C365.739 46.9305 365.841 47.237 365.35 47.3003C365.6 47.4607 365.833 47.6185 366.075 47.7774C365.901 47.2628 366.011 47.1476 366.345 46.8535C366.307 47.0062 366.27 47.16 366.232 47.3132C366.44 47.4362 366.649 47.5594 366.856 47.6823C366.883 46.0385 367.909 47.1752 367.507 48.2789C367.09 48.0944 366.671 47.9135 366.253 47.7277C366.412 48.6551 365.75 48.5657 365.206 49.0719C365.142 49.1329 365.16 49.5421 365.089 49.6607C365.092 49.6598 365.095 49.659 365.097 49.6582C365.387 49.9758 365.611 49.9967 365.923 50.2077C365.917 50.2957 365.911 50.3837 365.905 50.4718C365.575 50.4372 365.42 50.2504 365.28 50.5565C365.537 50.6893 365.794 50.8227 366.05 50.9555C365.845 51.2522 365.454 51.2617 365.364 51.6119C365.309 51.5038 365.255 51.3937 365.202 51.2843C364.551 51.7071 363.536 50.2494 363.888 51.1841C363.749 51.1256 363.61 51.0656 363.471 51.0072C363.575 50.8041 363.68 50.602 363.783 50.4007C363.618 50.2746 363.454 50.1488 363.289 50.0233C363.198 50.2535 363.107 50.486 363.015 50.7173C363.006 50.4931 362.998 50.2683 362.989 50.0448C362.745 50.2107 362.5 50.3774 362.254 50.545C363.045 50.7551 362.892 51.1214 363.545 51.5087C362.744 51.538 361.844 51.3664 361.813 52.3057C361.809 52.4903 362.284 52.735 361.511 52.7038C362.25 53.115 362.249 53.7842 362.934 54.1996C362.992 54.0553 363.065 53.9152 363.112 53.77C362.791 53.7402 362.16 53.3125 362.126 52.9759C362.082 52.5487 362.789 52.4766 362.095 51.9929C362.204 51.9114 362.294 51.8278 362.395 51.746C362.534 51.9117 362.674 52.0773 362.814 52.2423C362.76 51.7587 362.979 51.641 363.506 51.815C363.354 52.2295 363.2 52.6445 363.043 53.062C363.11 53.0321 363.177 53.0019 363.242 52.9714C363.487 53.5515 364.095 53.5877 363.837 54.1357C363.639 53.9868 363.442 53.8385 363.243 53.6889C363.649 54.2535 363.294 54.7324 364.02 55.0278C363.725 55.0353 363.584 54.9778 363.855 55.3021C363.107 55.3455 362.336 55.163 361.733 54.5107C361.741 54.7369 361.75 54.9636 361.758 55.1896C362.011 55.2472 362.264 55.3041 362.517 55.3618C362.322 55.603 362.125 55.8472 361.935 56.0833C361.349 55.6907 362.11 55.4821 361.496 55.2539C361.372 55.209 361.495 55.5006 361.411 55.4936C360.52 55.4056 361.392 55.1579 360.836 54.9174C360.288 55.3572 359.81 54.3331 359.928 55.5818C359.749 55.4816 359.565 55.3805 359.388 55.2796C359.186 55.5361 359.572 55.7862 359.476 56.0649C359.416 56.2393 358.633 55.9416 358.961 56.4243C359.022 56.5121 360.013 56.8301 359.57 57.3616C359.231 57.7686 358.798 57.1791 358.429 57.2645C358.06 57.3499 358.452 58.4531 357.452 57.9633C357.658 57.9268 357.835 57.8176 358.03 57.7528C357.898 57.5717 357.767 57.3935 357.635 57.214C357.632 57.6854 357.135 57.8141 357.393 58.3239C356.46 58.2808 356.707 59.1666 357.508 59.5612C357.504 59.3515 357.087 59.2718 357.422 59.2288C357.601 59.3306 357.78 59.4311 357.96 59.5323C357.707 59.8367 357.549 60.062 357.151 59.5475C357.103 59.5883 357.055 59.6286 357.007 59.6694C357.365 59.9451 357.726 60.2208 358.084 60.4966C358.082 60.5859 358.079 60.6752 358.077 60.7646C357.948 60.7719 357.819 60.7787 357.689 60.7861C357.177 60.2742 357.27 60.1068 356.577 60.3776C356.775 60.525 356.972 60.6725 357.171 60.8198C356.606 61.0595 356.115 60.7171 355.741 61.2668C355.349 60.3483 356.741 61.0222 355.35 60.0076C355.517 59.9714 355.685 59.9353 355.851 59.8994C355.661 59.7364 355.471 59.5733 355.28 59.4111C354.983 60.0405 355.636 61.9286 354.49 61.6512C354.565 61.7741 354.626 61.887 354.708 62.0165C353.914 61.9895 354.99 63.0164 354.035 62.8828C353.935 62.8683 352.875 61.9703 352.564 62.4798C352.718 62.5741 352.968 62.7468 353.158 62.8712C352.993 62.9101 352.824 62.9453 352.659 62.9801C352.779 63.0967 352.899 63.2142 353.021 63.3316C353.201 63.1957 353.384 63.0564 353.565 62.9175C353.504 63.0979 353.44 63.2824 353.381 63.4604C353.739 63.4316 353.806 63.3443 354.072 63.7179C353.972 63.8997 353.874 64.0798 353.775 64.2605C353.852 64.3434 353.931 64.427 354.009 64.5099C354.336 64.6263 354.658 64.7378 354.989 64.8573C354.455 65.1263 354.169 65.4927 353.398 65.4385C353.267 65.4299 353.064 64.9736 353.097 65.5903C352.907 65.4608 352.749 65.3611 352.573 65.2425C352.747 66.0945 352.475 66.1408 351.744 66.3539C352.325 66.2931 351.891 66.4092 352.02 66.627C352.108 66.7767 352.247 66.547 352.365 66.6703C352.481 66.7929 352.818 67.4699 353.059 67.2779C352.374 65.8808 353.828 66.6826 353.848 65.5343C353.905 65.7559 353.963 65.9787 354.021 66.2006C354.158 66.2165 354.283 66.2316 354.429 66.2475C353.902 66.5125 354.194 66.4096 354.238 66.7093C354.282 67.0086 354.193 67.4362 354.087 67.6799C354.053 67.7571 353.855 67.5047 353.722 67.6376C353.632 67.7279 353.797 68.2776 353.314 68.0236C352.999 67.8585 352.547 66.8378 352.094 67.4607C351.73 67.3744 352.035 67.1394 352.006 67.1085C351.715 66.8124 351.187 67.0127 351.31 67.3746C351.321 67.4049 351.681 67.4536 351.671 67.6796C351.649 68.2172 351.2 68.2102 350.629 68.1524C351.079 68.5208 351.416 69.2363 350.968 69.4844C351.089 69.6018 351.211 69.7192 351.332 69.8373C351.303 69.7269 351.276 69.6173 351.248 69.507C351.378 69.5049 351.489 69.4823 351.634 69.4928C351.473 69.955 352.08 70.4815 352.184 70.8361C352.537 72.0492 351.103 70.4222 350.891 70.0945C351.069 70.1008 351.26 70.12 351.443 70.1315C351.273 70.021 351.102 69.9096 350.932 69.7976C350.256 70.7328 349.767 69.1636 349.118 69.4149C349.832 70.1247 349.655 70.5294 348.82 70.6017C348.788 70.654 348.752 70.7042 348.721 70.7573C348.833 70.8512 349.012 70.9821 349.079 71.052C348.826 71.6849 347.519 70.8734 347.365 70.8383C346.681 70.6819 347.273 71.3828 347.231 71.4535C347.052 71.7505 346.673 71.598 346.616 71.9643C346.555 72.3589 346.944 72.3425 347.099 72.5901C347.223 72.7874 347.088 73.0361 347.201 73.2618C347.08 73.1166 346.965 72.9694 346.844 72.8239C346.425 72.9748 346.053 73.0712 345.759 73.3704C346.564 74.539 344.504 73.5283 346.079 74.479C346.412 74.2349 346.711 74.1808 347.212 74.2866C347.108 74.53 347.002 74.7729 346.898 75.0168C346.691 74.959 346.501 74.8866 346.283 74.8378C346.513 75.246 346.1 75.5003 346.097 75.7168C346.083 76.7312 346.822 76.9559 345.391 76.8385C345.614 76.3316 345.132 75.9823 345.517 75.5943C345.106 75.4377 345.015 75.7113 344.709 75.2674C344.501 75.7639 344.969 75.894 345.175 76.2956C345.354 76.6414 345.162 76.9361 345.539 77.187C345.317 77.0692 345.106 76.9496 344.885 76.832C344.688 77.105 344.49 77.3772 344.292 77.651C344.168 77.3818 344.043 77.1123 343.919 76.8439C343.776 76.8738 343.633 76.904 343.49 76.9339C343.65 78.0816 341.613 78.3619 343.385 79.374C343.202 79.7341 342.967 79.6244 342.529 79.5734C342.639 79.6835 342.729 79.7779 342.853 79.8983C342.571 80.0114 342.92 80.5124 342.665 80.6077C342.41 80.7037 341.936 80.4272 342.657 80.9956C342.357 80.9595 342.094 80.9491 341.81 80.9235C341.926 81.1181 342.04 81.3114 342.155 81.5043C341.986 81.551 341.817 81.5982 341.647 81.6449C341.957 81.9628 341.485 82.289 341.581 82.6559C341.066 82.5607 339.869 81.6782 339.769 82.2676C340.075 82.4741 340.379 82.68 340.685 82.8864C340.551 82.94 340.416 82.994 340.281 83.0484C340.18 82.9833 340.079 82.9175 339.977 82.8524C340.044 82.8237 340.111 82.7956 340.179 82.7677C339.982 82.6915 339.787 82.6149 339.591 82.5379C339.724 82.8672 339.857 83.1968 339.989 83.5271C340.324 83.4567 340.658 83.3866 340.992 83.3166C341.023 83.7333 340.674 83.753 340.754 84.155C340.201 84.0493 340.017 83.8043 339.628 83.3992C339.613 83.4995 339.597 83.5993 339.583 83.699C339.171 83.325 338.815 83.2544 339.161 82.8574C339.012 82.7934 338.869 82.7345 338.716 82.6661C338.686 82.7501 338.545 82.7169 338.539 82.8283C338.523 83.1325 339.191 83.8634 339.476 84.0501C339.625 84.1476 339.498 83.7432 339.696 83.9C340.177 84.2828 339.614 84.5862 340.604 84.278C340.756 84.7319 340.482 84.6077 340.21 84.7873C340.39 84.8889 340.568 84.9902 340.747 85.0925C340.587 85.151 340.427 85.21 340.268 85.2687C339.535 84.489 338.599 85.0992 338.411 83.7971C338.209 83.9935 338.008 84.1892 337.804 84.3838C337.75 84.2739 337.698 84.1647 337.644 84.0549C337.764 83.9874 337.883 83.9201 338.002 83.852C337.756 83.8544 337.51 83.8577 337.264 83.8602C337.256 84.2858 337.479 84.6182 337.76 85.0211C338.273 84.8935 337.821 84.7273 337.933 84.418C338.164 84.6005 338.391 84.7484 338.624 84.953C338.036 84.7252 338.079 85.417 338.031 85.5345C337.881 85.8918 337.572 85.3002 337.414 85.4962C337.254 85.6929 337.368 86.1418 336.767 85.957C337.038 86.1504 337.326 86.3403 337.579 86.5072C337.437 86.8871 337.165 86.5923 337.1 86.5949C336.044 86.6223 336.407 87.3225 336.039 87.9712C336.178 87.956 336.309 87.9342 336.443 87.9146C336.684 88.7827 336.732 88.3509 337.206 88.0972C336.881 88.4224 337.213 88.9878 337.168 89.3527C337.121 89.7186 336.549 89.9774 336.236 89.9978C336.194 89.3987 336.693 89.1498 336.908 88.6734C336.6 88.5204 336.336 88.3967 335.999 88.2254C336.39 88.8962 335.899 88.7618 335.763 88.788C335.363 88.8665 335.862 89.2192 335.225 88.9779C335.411 89.1052 335.568 89.213 335.743 89.3316C335.301 89.7755 334.584 90.0797 335.019 90.8982C334.56 90.6078 334.121 90.3218 333.649 90.0292C333.824 90.4825 333.353 90.4175 333.299 90.6527C333.246 90.8873 333.65 91.0784 333.634 91.3866C333.631 91.4435 333.35 91.3619 333.444 91.5764C333.538 91.7924 334.501 93.0394 333.403 92.3018C333.267 92.4773 333.104 92.6183 332.958 92.7807C333.023 92.5656 333.089 92.352 333.154 92.1378C332.789 92.0945 332.425 92.0508 332.06 92.0075C332.277 92.1947 332.498 92.3849 332.712 92.5691C332.706 93.167 332.121 93.1768 331.92 93.6391C331.886 93.7163 332.456 93.8933 332.125 94.1023C331.795 94.3106 330.785 93.9063 330.748 94.6468C330.746 94.6845 331.29 95.309 330.708 95.1585C330.576 95.1246 330.55 94.8423 330.347 94.8378C330.144 94.8333 329.728 95.1709 329.384 94.9699C329.501 95.0483 329.637 95.1079 329.762 95.1795C329.763 95.2905 329.765 95.4023 329.765 95.5133C329.561 95.3742 329.356 95.2354 329.152 95.097C329.316 95.8475 329.918 96.613 329.224 97.0376C329.638 97.0784 330.054 97.1201 330.468 97.1617C330.299 96.9662 330.128 96.7695 329.958 96.5747C330.245 96.3536 330.531 96.1308 330.817 95.9096C330.619 95.6942 330.422 95.4801 330.224 95.2647C330.308 95.2123 330.391 95.1599 330.475 95.1075C330.629 95.2485 330.782 95.3889 330.935 95.5306C331.002 95.3533 331.068 95.1752 331.134 94.9988C331.904 96.0191 330.441 95.7704 331.296 96.336C331.119 96.3085 330.941 96.2804 330.764 96.2521C331.143 96.5741 330.93 96.6245 330.693 96.8158C330.93 96.9058 331.169 96.9881 331.405 97.0841C330.957 97.1117 330.686 97.5397 330.404 97.6999C330.281 97.7702 330.066 97.4532 330.009 97.4594C329.714 97.4887 329.998 98.1648 329.911 98.1995C329.393 98.4073 328.25 97.9532 328.579 98.8338C329.05 98.5172 328.813 98.7034 329.277 98.8072C329.422 98.8399 330.059 98.4515 329.447 99.0738C329.375 99.1464 327.786 99.9252 327.581 99.1377C327.594 99.4607 327.665 99.758 327.701 100.071C326.024 99.549 327.4 100.312 328.192 100.686C328.14 100.763 328.095 100.839 328.038 100.917C327.429 100.22 326.772 101.024 326.932 101.577C326.985 101.762 327.413 101.666 327.362 101.967C327.234 102.035 327.081 102.105 326.943 102.174C327.522 102.351 327.469 102.796 327.941 103.134C327.376 103.03 326.377 102.537 325.978 102.075C326.051 102.384 326.123 102.693 326.196 103.002C326.364 103.006 326.532 103.009 326.7 103.013C326.007 103.341 326.166 104.532 325.097 103.925C325.052 104.003 325.004 104.08 324.959 104.157C325.109 104.301 325.26 104.445 325.41 104.589C325.027 104.81 324.644 105.029 324.261 105.25C324.37 104.884 324.183 104.642 324.599 104.478C324.321 104.455 324.041 104.434 323.766 104.409C323.946 105.245 324.239 105.555 323.581 106.134C323.551 106.16 322.737 106.366 322.682 106.353C322.43 106.294 322.241 105.966 322.117 105.931C321.77 105.833 320.636 105.947 320.541 105.86C319.384 104.783 320.878 102.703 321.222 102.096C324.787 95.7993 329.834 90.7901 333.896 84.9088C333.937 84.8478 333.731 84.7369 333.741 84.7058C333.809 84.5147 334.213 84.5739 334.267 84.5248C334.382 84.4192 334.063 84.2904 334.129 84.1999C334.814 83.2686 335.622 82.4961 336.258 81.5296C336.299 81.4666 336.469 81.6862 336.509 81.5515C336.529 81.4812 336.324 81.0669 336.411 80.9378C336.713 80.4881 337.087 80.1989 337.418 79.7358C337.599 79.4823 337.902 79.1264 338.102 78.8426C338.19 78.7174 338.133 78.4778 338.218 78.3508C338.339 78.171 338.619 78.4308 338.658 78.4179C338.827 78.3608 338.503 78.0985 338.593 77.9925C338.761 77.7963 338.994 77.9493 339.167 77.6719C339.291 77.4732 339.428 76.9131 339.549 76.6384C340.212 76.2776 340.623 75.4981 340.915 74.9178C341.088 74.5739 341.424 74.7757 341.514 74.6501C341.83 74.2051 341.668 73.5827 341.96 73.1561C342.346 72.5928 342.967 72.3004 343.374 71.7841C343.44 71.7003 343.137 71.5093 343.191 71.4196C343.392 71.0885 343.632 70.6492 343.878 70.3989C344.152 70.1201 344.654 70.3112 344.791 69.9447C344.831 69.837 344.483 69.5427 344.545 69.359C344.645 69.0664 345.16 69.042 345.317 68.9026C345.531 68.7104 345.013 68.6354 345.287 68.3648C345.299 68.3537 345.6 68.5027 345.636 68.4269C345.741 68.2069 345.517 68.0722 345.744 67.804C345.766 67.7788 346.295 67.5905 346.323 67.5542C346.487 67.3381 346.897 66.9638 346.937 66.7954C347.082 66.1939 346.415 66.2627 347.573 66.509C347.485 66.181 347.397 65.8482 347.324 65.5125C347.427 65.777 348.072 65.4819 348.079 65.4339C348.145 65.038 347.68 64.9621 348.004 64.6367C348.434 65.6938 348.451 64.2377 348.586 64.0113C349.239 62.9132 350.12 62.119 350.868 61.0854C351.121 60.7359 351.295 60.1502 351.566 59.788C351.628 59.7031 351.767 59.9031 351.826 59.8311C351.883 59.7584 351.614 59.689 351.687 59.6118C352.146 59.1358 352.844 59.0065 352.711 58.1574C352.8 58.1855 352.855 58.2273 352.962 58.245C352.815 57.5228 353.966 57.1906 354.256 56.9643C354.713 56.6042 354.502 56.2691 354.802 55.9846C355.2 55.6082 356.255 55.3857 355.084 54.9735C355.272 54.6541 355.467 54.3692 355.78 54.1288C355.815 54.1025 356.042 54.304 356.057 54.2942C356.154 54.2345 355.956 54.047 355.988 53.9821C356.075 53.8063 356.15 54.2521 356.24 53.9762C356.287 53.8304 356.145 53.6243 356.379 53.2969C357.782 51.334 359.409 49.2528 360.905 47.2765C361.008 47.1399 360.706 47.0582 360.847 46.8963C361.338 46.3355 362.518 45.5559 362.844 44.9962C363.168 44.4406 362.738 44.305 362.828 43.8784C362.846 43.7959 363.005 43.9905 363.049 43.9367C363.34 43.5768 363.987 43.3354 364.257 43.0634C364.437 42.8823 364.116 42.6725 364.197 42.5156C364.319 42.2823 364.788 42.2963 364.879 42.1927C365.307 41.7001 365.329 41.1429 365.816 40.7472C365.734 40.7166 365.661 40.6832 365.583 40.6504C366.016 40.0813 366.458 39.5006 366.897 38.9244C366.815 38.9064 366.733 38.8871 366.65 38.8684C367.184 38.2099 367.799 38.7834 366.334 37.8011C366.32 37.7151 366.3 37.6203 366.288 37.5395C367.006 38.0965 367.844 38.0755 368.421 37.6798C368.463 37.6511 367.939 36.8684 368.762 37.5147C368.605 37.2959 368.493 37.1515 368.353 36.9616C368.69 37.0377 369.024 37.1103 369.36 37.1863C369.365 37.0989 369.373 37.0116 369.378 36.9244C369.219 36.7945 369.043 36.6755 368.894 36.5375C369.07 36.245 369.704 35.8081 369.843 35.5749C370.189 34.991 370.151 34.1058 370.95 34.0287C371.053 33.7845 370.577 33.7529 370.844 33.4746C371.034 33.5602 371.216 33.6429 371.411 33.7308C370.862 32.9411 371.343 33.2216 371.751 32.9861C372.03 32.8243 371.964 32.5381 372.163 32.3402C372.213 32.2902 372.423 32.4561 372.444 32.4123C372.517 32.2661 372.489 31.6826 372.547 31.5872C372.592 31.5112 372.637 31.4369 372.683 31.3641C373.188 30.5624 373.675 29.9691 374.291 29.2806C374.362 29.2014 374.068 29.1558 374.142 29.0744C374.26 28.9434 374.525 29.2661 374.601 29.1962C374.811 29.0006 374.468 28.7457 374.679 28.4199C375.398 27.3166 376.53 26.3166 377.36 25.235C377.385 25.2007 377.182 25.0546 377.208 25.0158C377.376 24.7657 377.827 24.7238 377.981 24.5072C378.251 24.1316 378.17 23.6476 378.432 23.2937C378.954 22.5855 379.554 22.073 380.1 21.3477C380.535 20.7712 380.891 20.2307 381.373 19.5775C383.464 16.7448 384.962 13.3771 387.405 10.779C387.467 10.7135 387.623 10.8742 387.632 10.8466C387.706 10.5851 387.484 10.3836 388.041 10.6799C388.139 10.3403 387.826 9.97371 388.089 9.67445C388.228 9.51445 388.722 10.0702 388.634 9.55799C388.55 9.10026 388.023 9.14437 388.923 8.60882C388.946 8.59566 389.378 8.75644 389.405 8.52502C389.432 8.29481 389.036 8.29838 389.248 7.84749C389.415 7.49253 389.655 7.15389 389.926 6.81525C390.459 6.15049 391.111 5.4887 391.545 4.74091C391.586 4.6703 391.842 3.89436 391.84 3.70592C391.836 3.34067 391.53 3.20343 391.682 2.84196C391.8 2.563 392.246 2.5728 392.382 2.24171C392.397 2.20301 392.118 1.93068 392.308 1.74218ZM358.42 60.7019C358.68 60.985 359.719 61.9125 359.109 62.0318C359.051 62.0433 358.42 61.292 358.148 61.406C358.213 61.1473 358.328 60.9345 358.419 60.701C358.419 60.7013 358.42 60.7016 358.42 60.7019ZM400.739 5.04035C400.491 5.28643 400.242 5.53537 399.992 5.78397C399.986 5.49256 399.979 5.20173 399.969 4.91189C400.226 4.95432 400.482 4.99776 400.739 5.04035ZM375.1 39.1398C375.1 39.1395 375.1 39.1392 375.101 39.139C375.034 39.5331 374.965 39.9301 374.894 40.3294C374.81 40.2207 374.726 40.1117 374.643 40.0031C374.645 39.6491 374.646 39.2969 374.646 38.9469C374.797 39.0112 374.949 39.0754 375.1 39.1398ZM375.648 36.0336C375.912 35.939 376.092 36.1403 376.374 36.1891C376.374 36.1888 376.374 36.1885 376.373 36.1882C376.447 36.2005 376.587 36.1084 376.631 36.0655C376.485 35.9859 376.336 35.9127 376.19 35.8354C376.188 35.1618 377.949 35.1628 377.61 36.5931C377.454 36.4533 377.298 36.3149 377.142 36.1751C376.784 36.7628 375.983 37.0892 375.648 36.0336ZM355.708 65.4285C355.921 66.2934 355.929 66.5266 355.139 66.8137C355.041 66.6198 354.943 66.4259 354.845 66.2321C355.073 66.2557 355.298 66.2793 355.526 66.303C355.526 66.3027 355.526 66.3025 355.526 66.3022C355.372 66.1612 355.218 66.02 355.064 65.8798C355.278 65.7292 355.494 65.5783 355.708 65.4285ZM389.078 18.5931C390.271 19.2745 389.608 18.8367 389.579 19.3957C389.571 19.5861 389.854 19.6048 389.828 19.706C389.693 20.2548 388.928 19.7526 388.617 19.3731C388.77 19.1114 388.922 18.8549 389.078 18.5939C389.078 18.5936 389.078 18.5934 389.078 18.5931ZM397.008 7.25549C397.008 7.25522 397.008 7.25496 397.008 7.25469C397.289 7.43356 397.239 7.66183 397.637 7.64287C397.53 7.79376 397.421 7.94557 397.312 8.09803C397.317 8.0362 397.326 7.97218 397.332 7.90953C397.211 7.88339 397.088 7.85806 396.967 7.83098C397.243 8.1039 397.024 8.02821 396.808 8.11269C397.173 8.30449 397.538 8.4966 397.903 8.68681C397.672 8.80327 397.441 8.91937 397.209 9.03483C397.124 8.97747 397.038 8.92005 396.953 8.86268C397.011 9.0079 397.069 9.15585 397.127 9.30143C397.013 9.24889 396.901 9.19632 396.788 9.14383C396.804 9.28162 396.818 9.42131 396.836 9.55921C396.575 9.41174 396.603 9.15099 396.429 9.52406C396.254 9.24479 396.077 8.96807 395.901 8.68955C396.272 8.2125 396.64 7.73695 397.008 7.25549ZM386.948 22.192C387.293 21.6265 387.355 21.9066 387.81 22.428C387.523 22.3483 387.235 22.2703 386.948 22.192ZM366.337 49.2759C366.597 49.701 366.853 50.1245 367.096 50.5446C367.074 51.0099 366.165 50.83 366.073 50.3983C365.963 49.8798 366.537 49.8444 366.337 49.2759ZM361.253 56.5724C361.707 56.3137 361.884 56.9989 362.078 57.2743C361.586 57.0781 361.514 57.2536 361.29 57.4582C361.428 57.2132 361.177 56.6147 361.252 56.5716C361.252 56.5718 361.252 56.5721 361.253 56.5724ZM371.298 43.3757C371.402 43.2111 371.411 42.9801 371.639 42.9336C371.964 43.2357 371.437 43.2774 372.109 43.4641C372.046 43.5702 371.981 43.6765 371.919 43.7831C371.746 43.5602 371.521 43.5255 371.3 43.3761C371.299 43.376 371.299 43.3758 371.298 43.3757ZM383.577 27.6514C382.934 27.6452 383.068 27.8395 383.134 28.3603C382.757 28.156 382.459 27.3609 382.5 27.0402C382.859 27.2441 383.218 27.4481 383.577 27.6514ZM330.904 99.2699C330.52 98.8776 330.856 98.2985 331.18 98.1261C331.222 98.2053 331.264 98.2852 331.307 98.365C331.173 98.6662 331.038 98.9685 330.904 99.2699ZM361.177 57.5507C361.219 57.5199 361.257 57.4888 361.29 57.4582C361.266 57.5016 361.23 57.5347 361.177 57.5507ZM347.468 72.3175C347.149 71.889 346.734 72.166 347.232 71.8248C347.231 71.8245 347.231 71.8243 347.23 71.824C347.558 71.5982 347.636 71.5521 347.873 71.2951C348.328 71.783 348.101 72.4903 348.784 71.7861C348.792 71.7761 348.462 71.5664 348.597 71.4728C348.638 71.444 348.987 71.5093 349.199 71.3767C349.268 71.3337 349.683 70.9328 349.232 71.5611C349.614 71.8123 349.963 72.1187 350.322 72.3789C350.249 72.6975 349.39 72.3561 349.219 72.6265C348.968 73.0294 349.555 73.7588 348.543 73.1318C348.544 72.637 348.941 72.081 349.57 72.4306C349.804 72.1252 349.397 71.6911 348.98 71.7704C348.492 73.0609 348.065 71.5517 347.753 72.7701C347.878 72.8787 347.993 73.0224 348.122 73.1081C347.442 73.0535 347.583 72.4705 347.468 72.3175ZM350.133 70.8127C350.278 71.205 350.426 71.5986 350.573 71.9914C350.113 71.6558 349.777 71.2517 349.733 70.7686C349.866 70.7838 350 70.7982 350.133 70.8127ZM338.819 86.543C339.049 86.7523 339.226 86.9911 339.425 87.217C339.173 87.1203 337.995 88.3084 338.285 87.4776C338.327 87.3565 339.208 87.0784 338.819 86.543ZM384.746 25.2748C384.463 25.3087 384.173 25.3532 383.895 25.3805C383.964 25.0653 384.04 24.7331 384.108 24.4154C384.32 24.7015 384.534 24.9876 384.746 25.2748ZM364.025 51.5174C364.082 51.458 364.265 51.9291 364.402 51.6286C364.479 51.9836 364.531 52.3022 364.598 52.6443C364.393 52.5828 364.189 52.5224 363.985 52.4609C364.056 52.5819 364.127 52.7033 364.198 52.8244C363.981 52.6244 363.768 52.4315 363.548 52.2272C364.291 52.2757 363.77 51.7813 364.025 51.5174ZM370.107 41.2676C370.663 41.586 370.627 42.276 371.045 41.8777C371.319 42.2119 371.394 42.481 371.227 42.7729C371.066 42.7217 370.906 42.6712 370.745 42.6201C371.086 42.8791 371.164 43.0427 371.298 43.3757C371.298 43.3755 371.297 43.3754 371.297 43.3752C371.02 43.8062 370.927 43.6909 370.287 43.3736C370.918 43.1841 370.414 42.7832 370.322 42.2618C370.259 41.9025 370.549 41.7086 370.107 41.2676ZM339.857 85.1111C340.068 85.7337 340.673 85.7554 339.816 85.9605C339.731 85.845 339.647 85.7299 339.562 85.6143C339.659 85.4457 339.758 85.278 339.857 85.1111ZM372.972 41.0511C372.151 40.5034 371.319 40.3397 372.577 41.3374C373.048 41.2473 372.213 40.8485 372.972 41.0511ZM360.103 55.5296C360.533 55.0197 361.356 55.7787 361.644 56.3275C361.456 56.2421 361.267 56.1564 361.081 56.0709C361.086 56.2193 361.091 56.3679 361.096 56.5157C360.765 56.1872 360.433 55.858 360.103 55.5296ZM379.058 30.9173C379.319 31.7508 379.703 30.7003 379.844 31.2509C379.958 31.6895 379.158 31.5796 378.886 31.1996C378.935 31.111 378.995 31.0158 379.057 30.9181C379.057 30.9179 379.057 30.9176 379.058 30.9173ZM377.475 33.415C378.131 33.793 377.884 33.7591 378.01 33.3578C378.042 33.2498 378.819 32.6683 378.085 32.6137C377.884 32.8884 377.683 33.1443 377.475 33.415ZM356.432 62.413C356.163 62.2255 355.998 61.2324 356.198 61.2641C356.198 61.2638 356.197 61.2635 356.197 61.2632C356.738 61.3544 356.352 61.9995 357.087 62.1348C356.187 62.363 357.22 63.3768 355.725 62.2234C355.905 61.8367 356.102 62.2264 356.432 62.413ZM324.5 105.419C324.5 105.419 324.5 105.419 324.5 105.419C324.54 105.39 325.158 105.359 325.265 105.496C324.873 105.79 324.667 105.536 324.829 106.195C324.68 106.116 324.537 106.036 324.385 105.958C324.407 105.759 324.301 105.563 324.5 105.419ZM337.229 87.5994C337.261 87.4098 337.733 87.3657 337.832 87.1951C338.565 88.5031 337.098 88.3558 337.229 87.5994ZM393.251 12.5396C393.251 12.5403 393.251 12.5409 393.251 12.5416C393.251 12.5411 393.25 12.5405 393.25 12.5399C393.25 12.5398 393.251 12.5397 393.251 12.5396ZM345.767 77.3049C345.682 77.2705 345.613 77.2353 345.555 77.1991C345.55 77.1953 345.545 77.1916 345.54 77.1878C345.614 77.2271 345.689 77.2662 345.767 77.3049ZM355.649 63.6512C355.107 63.6187 355.099 62.3993 355.424 62.248C355.579 62.3888 355.73 62.5032 355.893 62.6861C355.307 62.5724 355.74 63.657 355.649 63.6512ZM368.677 45.5604C368.212 46.1743 367.348 44.2999 368.533 45.1178C368.555 45.1354 368.686 45.5429 368.677 45.5604ZM359.095 58.6192C358.77 58.138 358.42 58.3711 358.869 57.9171C359.005 57.971 359.141 58.0251 359.277 58.079C359.216 58.2586 359.156 58.4391 359.095 58.6192ZM363.775 48.2473C363.448 49.2085 363.324 50.287 364.918 50.6599C364.923 50.5714 364.929 50.4831 364.934 50.3948C364.348 49.9519 364.833 49.968 365.087 49.6614C364.885 49.4433 364.96 49.2259 364.785 49.0463C364.445 48.6989 364.024 48.7037 363.775 48.2473ZM389.037 15.8512C389.129 15.9379 389.222 16.0247 389.312 16.1107C389.337 16.3154 389.36 16.522 389.382 16.7309C389.203 16.5678 389.024 16.4047 388.845 16.2418C388.91 16.1097 388.974 15.9799 389.036 15.8515C389.036 15.8514 389.037 15.8513 389.037 15.8512ZM349.441 69.132C350.503 70.0182 350.48 69.6186 350.285 68.7036C350.004 68.8457 349.722 68.9891 349.441 69.132ZM373.463 35.9637C373.792 36.1791 374.119 36.3942 374.448 36.6089C374.315 36.0986 373.916 35.8832 373.403 35.7049C373.423 35.7913 373.444 35.8771 373.463 35.9637ZM376.16 32.0036C376.013 32.0649 376.31 32.1962 376.296 32.2039C375.957 32.3843 375.812 32.3374 375.749 32.8259C375.785 32.9177 375.825 33.0115 375.862 33.105C376.643 33.4297 376.368 33.0471 377.004 32.9966C376.733 32.8904 376.461 32.7839 376.188 32.6772C376.373 32.5248 376.557 32.3743 376.74 32.2251C376.686 32.1518 376.633 32.079 376.579 32.0057C376.44 32.0051 376.289 31.9986 376.16 32.0036ZM390.383 14.6277C390.544 14.465 390.704 14.3044 390.867 14.1384C390.709 14.0115 390.549 13.8841 390.391 13.7572C390.387 14.0493 390.385 14.3385 390.383 14.6277ZM347.201 73.2618C347.248 73.3187 347.296 73.3756 347.346 73.4316C347.275 73.3775 347.23 73.3203 347.201 73.2618ZM323.251 105.246C322.985 105.37 322.842 105.724 322.652 105.934C323.075 106.216 323.384 105.555 323.781 105.533C323.731 105.447 323.363 105.194 323.251 105.246ZM360.681 54.8147C360.514 54.6137 360.349 54.4128 360.182 54.2113C360.297 54.1006 360.413 53.9907 360.529 53.8797C360.364 53.7535 360.198 53.6263 360.033 53.5001C359.84 54.2199 359.451 53.7385 358.775 53.6637C359.411 54.0467 360.045 54.4308 360.681 54.8147ZM393.58 8.04882C393.404 8.53219 393.511 8.83036 394.18 8.96723C394.168 8.7409 394.156 8.51371 394.141 8.28897C393.954 8.20907 393.767 8.12922 393.58 8.04882ZM341.467 80.312C341.408 80.7866 340.728 80.3012 340.865 80.9037C341.118 80.8193 341.373 80.7345 341.626 80.6491C341.573 80.5373 341.52 80.4238 341.467 80.312ZM351.687 62.4466C351.349 62.4163 352.271 63.4953 351.156 63.2927C351.332 63.5673 351.523 63.7985 351.704 64.0562C351.407 63.9125 351.103 63.7729 350.81 63.6285C350.81 63.6287 350.809 63.629 350.809 63.6293C350.632 64.0567 351.132 64.0613 351.404 64.2726C351.516 64.3605 351.127 64.4895 351.439 64.5884C351.976 64.7571 352.125 64.034 352.65 64.4161C352.34 64.4809 352.21 64.9581 352.641 65.1037C353.113 65.2637 352.726 64.4426 353.207 64.4531C352.136 64.1594 352.877 63.6897 353.575 64.0859C353.362 63.3393 352.902 63.5455 352.635 63.9584C352.319 63.356 352.325 63.9067 351.872 63.6657C351.808 63.2344 352.638 62.5327 351.687 62.4466ZM365.968 44.8316C365.803 45.1242 365.211 45.3412 365.496 45.8245C365.661 46.1076 366.153 45.83 366.324 46.3949C366.476 46.1096 366.37 45.9416 366.004 45.742C366.008 45.6526 366.014 45.5629 366.019 45.4743C366.104 45.4941 366.189 45.5126 366.275 45.5325C366.16 45.4005 366.047 45.2691 365.933 45.1379C366.006 45.094 366.08 45.0495 366.155 45.0065C366.091 44.9485 366.041 44.8918 365.968 44.8316ZM334.422 89.9946C334.472 89.9173 334.522 89.8407 334.571 89.7627C334.484 89.7115 334.392 89.6594 334.302 89.6077C334.231 89.5662 334.16 89.5247 334.089 89.4831C334.356 89.6124 335.007 89.5448 334.864 89.2117C334.792 89.0444 334.219 88.887 334.373 88.5121C334.228 88.7591 334.133 89.0172 334.008 89.2689C333.889 89.1513 333.768 89.0335 333.65 88.916C333.649 88.916 333.649 88.916 333.649 88.916C333.564 88.9683 333.478 89.0205 333.393 89.0729C333.736 89.3805 334.079 89.687 334.422 89.9946ZM372.677 35.7245C372.751 36.1721 372.823 36.3584 373.335 36.5466C373.335 36.5464 373.336 36.5463 373.336 36.5462C373.219 36.3132 373.102 36.0806 372.984 35.8482C372.882 35.8068 372.78 35.7651 372.677 35.7245ZM344.208 74.4243C345.42 76.1398 345.325 74.2022 344.608 74.0339C344.575 74.0259 344.423 74.5032 344.208 74.4243ZM359.536 55.267C359.631 55.1097 359.728 54.9534 359.823 54.796C359.6 54.6855 359.378 54.5764 359.156 54.466C359.283 54.7325 359.41 55.0002 359.536 55.267ZM391.581 9.26114C391.026 9.09444 390.579 9.36908 390.911 9.9202C391.044 9.85681 391.175 9.79583 391.305 9.73697C391.22 9.96741 391.139 10.2044 391.048 10.4375C391.654 10.8977 391.462 10.4144 391.88 10.2002C391.945 10.1686 392.951 10.3952 392.463 9.85529C392.362 9.74619 392.021 10.0425 391.858 9.54455C391.752 9.63303 391.691 9.72791 391.6 9.82094C391.448 9.72117 391.297 9.62121 391.144 9.5222C391.292 9.43141 391.433 9.35203 391.581 9.26114ZM364.876 46.4241C364.573 46.7672 364.784 46.9932 365.162 47.3875C365.239 47.1796 365.316 46.9727 365.392 46.7659C365.22 46.6526 365.049 46.5382 364.876 46.4241ZM389.03 12.4307C388.815 12.5749 389.229 12.7509 389.236 12.8803C389.258 13.378 388.862 13.3877 388.79 13.8156C388.737 13.7448 388.688 13.679 388.636 13.6106C388.636 13.6109 388.636 13.6112 388.636 13.6115C387.283 14.8228 388.64 14.6557 389.14 13.707C389.285 13.7836 389.43 13.8611 389.575 13.9371C389.623 13.3932 389.669 12.8697 389.03 12.4307ZM347.655 69.5942C347.56 69.5506 347.14 69.0289 347.193 69.47C347.804 70.2354 347.674 69.6178 348.03 69.7472C348.051 69.8716 348.07 69.9962 348.091 70.12C348.617 69.8532 348.481 69.6591 347.81 69.406C347.765 69.3896 347.749 69.6377 347.655 69.5942ZM345.248 72.097C346.329 72.9769 346.215 72.0719 345.852 71.8364C345.784 71.9 345.933 72.0966 345.791 72.1135C345.649 72.1311 345.372 71.9594 345.248 72.097ZM356.693 57.0213C356.677 57.0332 356.09 56.8449 356.471 57.0997C357.488 57.5451 357.21 56.7428 356.856 56.5883C356.776 56.7283 356.845 56.9105 356.692 57.0204C356.693 57.0207 356.693 57.021 356.693 57.0213ZM393.061 6.65881C393.024 6.64412 392.555 6.895 392.696 7.07275C392.866 7.25767 393.064 7.43293 393.249 7.61232C393.213 7.25823 393.669 6.92943 393.06 6.6596C393.06 6.65934 393.061 6.65907 393.061 6.65881Z" fill="#FF8457"/>
</svg>
