<svg width="632" height="635" viewBox="0 0 632 635" fill="none" xmlns="http://www.w3.org/2000/svg">
<path d="M330.499 259.871L239.141 187.454L198.554 246.996L82.6787 229.079L8.76286 307.017C52.3014 330.961 146.479 381.1 174.881 390.106C203.282 399.112 253.041 394.615 274.371 391.241L301.707 350.67L330.499 259.871Z" fill="#FFE2D2"/>
<path d="M350.653 392.769L306.602 500.704L242.015 468.75L149.853 541.236L47.1985 509.612C73.3792 467.381 130.822 377.472 151.146 355.685C171.471 333.897 217.031 313.392 237.27 305.862L281.001 327.793L350.653 392.769Z" fill="#FFA8B5"/>
<path d="M321.328 338.794L410.734 263.98L360.637 212.184L401.631 102.331L340.262 14.1735C308.004 51.9662 239.845 134.05 225.278 160.041C210.711 186.033 205.045 235.673 204.034 257.244L238.234 292.224L321.328 338.794Z" fill="#FFE2D2"/>
<path d="M334.941 314.138L442.946 358.017L465.199 289.48L581.448 274.17L630.531 178.626C582.024 167.857 477.562 146.152 447.775 145.475C417.987 144.799 371.487 163.074 351.961 172.296L337.104 218.908L334.941 314.138Z" fill="#FFA8B5"/>
<path d="M278.038 324.852L282.125 305.58L293.305 246.148C293.305 246.148 298.439 213.981 300.69 197.913C301.008 195.634 301.326 193.354 301.644 191.074C301.699 190.685 301.738 189.662 301.913 189.299C302.371 189.344 302.906 189.749 303.263 190.114C303.958 190.785 304.611 191.503 305.252 192.275C305.846 192.98 306.464 193.576 307.069 194.226C307.817 195.08 308.416 196.187 309.026 197.24C309.458 197.966 309.861 198.686 310.228 199.57C310.511 200.263 310.765 200.95 311.049 201.644C311.906 203.554 312.099 206.348 312.251 208.904C312.353 210.417 312.324 211.958 312.354 213.513C312.418 215.476 312.513 217.446 312.535 219.458C312.552 221.353 312.456 223.338 312.342 225.262C312.164 228.318 311.974 231.429 311.796 234.485C311.612 237.711 311.076 240.975 310.671 244.21C310.462 245.998 310.122 247.814 309.853 249.589C309.5 251.746 309.116 253.897 308.674 256.034C307.982 259.435 307.159 262.864 306.396 266.306C305.765 269.147 305.242 272.07 304.386 274.803C303.53 277.537 302.763 280.291 301.693 282.862C300.28 286.275 298.6 289.342 297.062 292.612C296.365 294.063 295.716 295.581 295.037 297.093C294.503 298.236 293.903 299.249 293.321 300.324C292.793 301.296 292.354 302.288 291.886 303.273C291.417 304.259 290.901 305.176 290.45 306.223C289.489 308.302 288.51 310.321 287.442 312.32C287.064 313.038 286.686 313.757 286.32 314.421C285.87 315.181 285.415 315.826 284.947 316.525C284.246 317.573 283.539 318.505 282.833 319.438C282.569 319.781 282.24 319.994 281.947 320.331C281.612 320.715 281.312 321.222 280.959 321.545C280.51 322.018 280.091 322.499 279.66 323.034C279.259 323.575 278.038 324.852 278.038 324.852Z" fill="#FF61B0"/>
<path d="M250.703 332.864L267.342 322.317L317.662 288.774C317.662 288.774 344.256 269.963 357.32 260.343C359.173 258.977 361.026 257.611 362.879 256.245C363.196 256.013 363.955 255.326 364.336 255.197C364.625 255.556 364.709 256.222 364.697 256.733C364.703 257.698 364.646 258.667 364.541 259.666C364.452 260.583 364.458 261.441 364.416 262.329C364.329 263.46 363.955 264.662 363.629 265.834C363.411 266.651 363.178 267.443 362.802 268.322C362.504 269.01 362.19 269.672 361.893 270.359C361.126 272.307 359.262 274.398 357.54 276.293C356.53 277.424 355.407 278.48 354.316 279.588C352.957 281.006 351.614 282.451 350.191 283.873C348.848 285.21 347.361 286.528 345.905 287.791C343.595 289.8 341.237 291.838 338.927 293.847C336.491 295.971 333.782 297.868 331.186 299.839C329.761 300.939 328.224 301.966 326.767 303.014C324.977 304.269 323.171 305.498 321.333 306.675C318.417 308.557 315.389 310.366 312.394 312.225C309.922 313.761 307.466 315.429 304.913 316.727C302.359 318.025 299.854 319.401 297.267 320.433C293.838 321.808 290.471 322.75 287.057 323.936C285.532 324.452 283.993 325.049 282.437 325.62C281.246 326.036 280.102 326.315 278.926 326.65C277.862 326.952 276.846 327.332 275.814 327.685C274.782 328.039 273.765 328.311 272.702 328.72C270.542 329.486 268.415 330.197 266.238 330.83C265.46 331.062 264.682 331.294 263.951 331.496C263.093 331.706 262.314 331.83 261.488 331.984C260.248 332.216 259.087 332.362 257.926 332.508C257.497 332.559 257.114 332.474 256.669 332.499C256.16 332.528 255.588 332.667 255.11 332.641C254.457 332.651 253.821 332.687 253.137 332.753C252.469 332.844 250.703 332.864 250.703 332.864Z" fill="#9D47B9"/>
<path d="M279.243 325.526L264.569 326.051L219.575 328.699C219.575 328.699 195.388 330.796 183.362 332.07C181.656 332.252 179.95 332.433 178.244 332.615C177.953 332.645 177.206 332.802 176.913 332.741C176.862 332.401 177.058 331.941 177.258 331.618C177.617 330.994 178.019 330.392 178.462 329.789C178.864 329.232 179.183 328.678 179.544 328.122C180.026 327.427 180.719 326.795 181.37 326.164C181.817 325.72 182.265 325.298 182.838 324.874C183.288 324.543 183.739 324.236 184.189 323.905C185.415 322.94 187.401 322.296 189.222 321.725C190.298 321.378 191.417 321.121 192.536 320.818C193.944 320.417 195.352 319.993 196.802 319.613C198.17 319.259 199.622 318.97 201.034 318.705C203.276 318.282 205.56 317.857 207.802 317.434C210.168 316.985 212.625 316.783 215.037 316.492C216.368 316.32 217.743 316.238 219.075 316.112C220.698 315.978 222.323 315.867 223.948 315.801C226.532 315.687 229.16 315.663 231.787 315.593C233.956 315.535 236.163 315.386 238.295 315.511C240.426 315.637 242.555 315.694 244.608 316.004C247.331 316.409 249.852 317.07 252.495 317.592C253.67 317.833 254.885 318.029 256.101 318.247C257.024 318.427 257.865 318.677 258.747 318.904C259.545 319.111 260.342 319.249 261.139 319.409C261.936 319.57 262.692 319.778 263.531 319.915C265.208 320.234 266.845 320.577 268.483 320.989C269.071 321.133 269.659 321.276 270.205 321.421C270.836 321.609 271.384 321.822 271.974 322.034C272.858 322.351 273.66 322.694 274.462 323.037C274.758 323.165 274.972 323.364 275.268 323.516C275.606 323.689 276.027 323.814 276.324 324.011C276.748 324.25 277.171 324.466 277.635 324.681C278.099 324.874 279.243 325.526 279.243 325.526Z" fill="#9D47B9"/>
<path d="M279.888 329.141L274.114 310.306L255.065 252.91C255.065 252.91 243.953 222.29 238.128 207.147C237.3 204.999 236.473 202.851 235.645 200.703C235.505 200.336 235.043 199.422 235.019 199.02C235.442 198.837 236.107 198.931 236.596 199.078C237.528 199.327 238.448 199.638 239.383 200.003C240.244 200.332 241.074 200.553 241.919 200.828C242.987 201.212 244.047 201.89 245.091 202.514C245.822 202.94 246.523 203.374 247.272 203.969C247.857 204.438 248.412 204.915 248.996 205.384C250.673 206.639 252.197 208.989 253.569 211.15C254.392 212.424 255.114 213.786 255.894 215.131C256.903 216.817 257.941 218.494 258.937 220.242C259.871 221.891 260.749 223.674 261.583 225.411C262.909 228.17 264.252 230.983 265.579 233.741C266.983 236.652 268.096 239.766 269.311 242.792C269.996 244.457 270.579 246.21 271.205 247.892C271.942 249.95 272.65 252.017 273.3 254.101C274.345 257.411 275.288 260.808 276.29 264.189C277.117 266.979 278.077 269.788 278.654 272.594C279.231 275.4 279.896 278.18 280.207 280.948C280.627 284.618 280.645 288.115 280.887 291.72C280.981 293.327 281.15 294.97 281.289 296.621C281.376 297.88 281.343 299.057 281.355 300.279C281.365 301.385 281.463 302.465 281.531 303.554C281.599 304.643 281.593 305.696 281.706 306.829C281.874 309.114 281.997 311.354 282.033 313.621C282.051 314.432 282.069 315.244 282.071 316.003C282.046 316.885 281.96 317.67 281.89 318.508C281.786 319.764 281.62 320.923 281.454 322.081C281.39 322.508 281.206 322.855 281.113 323.291C281.006 323.79 280.99 324.378 280.838 324.832C280.675 325.464 280.542 326.087 280.424 326.764C280.336 327.432 279.888 329.141 279.888 329.141Z" fill="#9D47B9"/>
<path d="M287.189 334.6L277.239 322.892L245.877 287.664C245.877 287.664 228.465 269.163 219.619 260.115C218.363 258.832 217.107 257.549 215.851 256.266C215.637 256.047 215.024 255.535 214.884 255.255C215.13 254.992 215.635 254.855 216.031 254.81C216.776 254.7 217.53 254.639 218.313 254.611C219.031 254.581 219.693 254.483 220.383 254.419C221.267 254.364 222.235 254.523 223.176 254.648C223.831 254.727 224.467 254.821 225.187 255.016C225.751 255.172 226.296 255.342 226.859 255.498C228.447 255.879 230.264 257.092 231.914 258.216C232.897 258.874 233.834 259.627 234.809 260.349C236.051 261.245 237.313 262.126 238.565 263.071C239.743 263.963 240.923 264.969 242.056 265.956C243.858 267.523 245.688 269.123 247.49 270.689C249.394 272.341 251.153 274.227 252.957 276.019C253.962 277 254.921 278.076 255.888 279.088C257.052 280.334 258.197 281.596 259.305 282.888C261.075 284.936 262.8 287.078 264.561 289.19C266.015 290.933 267.569 292.649 268.849 294.48C270.129 296.312 271.463 298.098 272.54 299.984C273.974 302.483 275.066 304.982 276.353 307.49C276.916 308.611 277.544 309.736 278.154 310.876C278.604 311.75 278.944 312.604 279.33 313.475C279.679 314.265 280.082 315.008 280.467 315.767C280.852 316.526 281.172 317.282 281.604 318.059C282.43 319.643 283.209 321.21 283.934 322.822C284.197 323.398 284.461 323.974 284.696 324.516C284.951 325.156 285.132 325.744 285.341 326.366C285.654 327.299 285.892 328.179 286.131 329.06C286.217 329.386 286.193 329.691 286.26 330.032C286.338 330.422 286.508 330.849 286.539 331.221C286.618 331.724 286.714 332.211 286.839 332.732C286.982 333.238 287.189 334.6 287.189 334.6Z" fill="#9D47B9"/>
<path d="M290.213 328.579L274.941 322.89L227.674 306.507C227.674 306.507 201.978 298.391 189.105 294.593C187.279 294.055 185.452 293.517 183.625 292.98C183.314 292.887 182.481 292.731 182.206 292.544C182.298 292.174 182.695 291.785 183.037 291.538C183.67 291.051 184.337 290.604 185.048 290.174C185.697 289.774 186.259 289.341 186.865 288.924C187.655 288.416 188.633 288.061 189.569 287.69C190.216 287.425 190.854 287.183 191.622 286.99C192.224 286.843 192.817 286.719 193.419 286.571C195.086 286.102 197.396 286.284 199.506 286.471C200.756 286.572 202.013 286.784 203.289 286.948C204.903 287.134 206.527 287.297 208.175 287.523C209.728 287.74 211.341 288.06 212.901 288.388C215.38 288.906 217.902 289.44 220.381 289.957C222.999 290.501 225.604 291.337 228.201 292.062C229.639 292.451 231.084 292.95 232.503 293.386C234.225 293.938 235.938 294.513 237.633 295.136C240.332 296.116 243.037 297.206 245.761 298.25C248.009 299.111 250.336 299.895 252.469 300.928C254.601 301.962 256.761 302.924 258.735 304.113C261.355 305.685 263.66 307.433 266.149 309.089C267.251 309.836 268.415 310.552 269.569 311.291C270.439 311.868 271.195 312.482 272.004 313.089C272.735 313.639 273.493 314.119 274.242 314.622C274.991 315.126 275.679 315.66 276.481 316.156C278.065 317.195 279.598 318.242 281.103 319.359C281.645 319.756 282.187 320.153 282.686 320.534C283.253 320.994 283.725 321.445 284.24 321.913C285.012 322.614 285.689 323.306 286.366 323.998C286.615 324.255 286.75 324.55 286.989 324.831C287.263 325.152 287.641 325.459 287.862 325.787C288.195 326.212 288.537 326.613 288.922 327.031C289.317 327.425 290.213 328.579 290.213 328.579Z" fill="#FF61B0"/>
<path d="M367.478 278.327L443.125 359.188L389.911 402.233L415.87 510.535L347.829 586.559C321.782 547.202 267.006 461.943 256.275 435.756C245.544 409.569 245.937 362.115 247.475 341.662L283.76 312.633L367.478 278.327Z" fill="#FFA8B5"/>
</svg>
