<svg width="372" height="272" viewBox="0 0 372 272" fill="none" xmlns="http://www.w3.org/2000/svg">
<path d="M202.447 248.571C185.843 256.066 152.074 271.055 149.832 271.055L140.991 207.905C154.935 197.348 184.549 175.451 191.449 172.323C198.349 169.195 237.02 180.795 255.492 186.986L262.177 245.052C253.724 239.578 218.835 245.117 202.447 248.571Z" fill="#C075E3"/>
<path d="M290.48 81.7242C282.02 58.3924 264.555 11.2114 262.382 9.14194L189.542 68.4718C192.308 92.6228 198.715 143.352 202.218 153.063C205.72 162.774 254.997 186.063 279.198 196.493L344.776 140.606C331.013 138.656 302.845 100.539 290.48 81.7242Z" fill="#FF8457"/>
<mask id="mask0_1381_393" style="mask-type:alpha" maskUnits="userSpaceOnUse" x="189" y="8" width="156" height="188">
<path d="M290.689 80.7438C282.228 57.412 264.764 10.231 262.591 8.16147L189.75 67.4913C192.516 91.6423 198.924 142.372 202.426 152.083C205.928 161.794 255.205 185.082 279.406 195.513L344.984 139.625C331.222 137.675 303.053 99.5584 290.689 80.7438Z" fill="#C075E3"/>
</mask>
<g mask="url(#mask0_1381_393)">
<path d="M297.528 135.896C298.653 135.252 296.494 138.294 298.54 136.631C298.35 137.106 298.188 137.574 298.055 138.022C297.667 137.97 297.276 137.929 296.884 137.892C297.042 137.254 297.26 136.582 297.527 135.895C297.527 135.895 297.528 135.895 297.528 135.896ZM294.078 132.543C294.524 133.812 293.661 135.969 295.767 134.256C295.558 133.893 295.356 133.523 295.159 133.149C295.89 132.524 296.654 131.926 297.429 131.366C297.517 131.019 297.608 130.673 297.709 130.323C298.471 130.387 299.23 130.468 299.981 130.568C299.675 130.785 299.366 131.012 299.067 131.237C298.583 132.682 297.953 133.761 297.116 135.354C297.325 135.295 297.534 135.237 297.744 135.183C297.055 135.816 296.407 136.472 295.82 137.145C295.896 136.364 296.067 135.45 296.257 134.676C294.744 135.216 294.303 137.459 294.243 138.443C294.145 139.793 293.77 139.4 293.816 140.34C293.829 140.485 294.194 140.544 294.18 140.8C294.145 141.348 294.157 142.016 294.175 142.511C294.176 142.822 294.149 143.013 294.039 143.135C293.929 143.246 293.736 143.336 293.384 143.097C293.352 142.977 293.32 142.85 293.289 142.714C292.862 140.895 292.787 138.459 294.169 136.073C292.943 136.375 293.202 134.768 294.078 132.543ZM301.641 114.559C302.558 115.019 303.41 116.804 303.753 118.158C303.754 118.16 303.755 118.161 303.756 118.162C303.834 118.461 303.582 119.358 303.145 118.496C302.437 117.112 302.924 115.958 301.918 115.657C301.84 115.294 301.737 114.926 301.641 114.559ZM299.759 112.258C299.411 111.545 300.193 111.205 300.743 112.141C300.743 112.141 300.744 112.14 300.744 112.14C300.966 112.546 299.942 112.223 301.428 113.109C301.25 113.667 301.09 114.189 300.895 114.721C300.663 114.402 300.444 114.123 300.199 113.816C300.987 113.55 300.099 112.975 299.759 112.258ZM294.055 143.497C294.647 143.099 294.576 143.044 294.935 142.596C295.018 142.882 295.013 142.836 294.946 142.824C294.746 143.142 294.441 143.391 294.055 143.497ZM302.704 126.326C302.705 126.324 302.707 126.323 302.708 126.322C302.871 126.009 303.039 125.695 303.208 125.386C303.528 125.434 303.845 125.484 304.163 125.536C304.568 124.984 304.986 124.434 305.416 123.89C305.623 123.579 305.849 123.285 306.103 123.004C306.276 123.395 305.982 123.757 305.681 124.202C305.263 124.711 304.792 125.272 304.569 125.807C303.142 126.795 302.25 127.079 301.702 126.695C302.034 126.569 302.368 126.448 302.704 126.326ZM225.801 65.7837C225.34 65.8382 224.893 65.909 224.452 65.992C224.92 66.2453 225.391 66.4942 225.841 66.795C227.485 66.4708 227.303 67.2739 228.945 68.0852C233.849 70.8729 233.607 69.0325 236.173 73.9987C233.116 71.1852 233.653 72.9851 231.298 72.1444C231.225 71.3601 233.979 71.7743 232.805 70.5543C230.091 69.3306 227.471 68.4478 224.579 67.8263C224.625 67.95 224.67 68.0741 224.714 68.198C225.171 68.2996 225.611 68.4092 226.068 68.5404C225.495 68.5836 224.955 68.6548 224.399 68.7426C225.198 68.3776 223.584 68.1684 224.002 67.5745C224.187 67.3025 225.025 67.1276 225.56 67.0178C225.123 66.774 224.677 66.5457 224.224 66.3337C223.553 66.0277 222.877 65.7269 222.203 65.4293C222.904 65.3789 223.605 65.3328 224.305 65.2909C224.381 65.3135 224.456 65.3362 224.532 65.3589C224.953 65.4855 225.372 65.6255 225.793 65.7778C225.796 65.7797 225.798 65.7817 225.801 65.7837ZM260.612 192.482C258.928 192.916 256.062 192.473 254.752 191.362C256.7 191.761 258.656 192.132 260.612 192.482ZM301.238 126.396C301.448 126.36 301.652 126.33 301.861 126.298C301.485 126.993 301.121 127.695 300.786 128.394C300.426 128.254 300.062 128.12 299.698 127.99C300.198 127.449 300.713 126.917 301.238 126.396ZM305.759 130.642C305.549 131.128 305.52 131.164 305.168 131.732C305.168 131.732 305.169 131.731 305.169 131.731C305.047 131.96 303.749 133.805 303.631 133.445C304.197 132.484 304.764 131.461 305.232 130.482C305.41 130.53 305.575 130.601 305.759 130.642ZM298.3 141.885C298.299 141.886 298.297 141.887 298.296 141.888C298.003 142.211 297.688 142.49 297.406 142.84C298.026 141.286 298.804 141.548 299.486 140.244C300.164 138.938 300.319 137.978 301.887 137.585C301.762 138.048 301.67 138.58 301.549 139.073C300.007 140.503 299.998 141.182 299.338 142.778C298.991 142.479 298.647 142.184 298.3 141.885ZM243.829 83.7744C244.486 83.7584 244.343 84.4239 244.365 84.4633C244.364 84.463 244.363 84.4627 244.362 84.4624C246.831 86.9362 243.869 84.2624 245.743 86.946C245.35 86.6293 244.953 86.3236 244.561 86.0205C244.327 85.2793 244.089 84.4902 243.829 83.7744ZM247.575 139.17C247.716 139.106 247.858 139.037 248 138.975C248.054 139.201 248.123 139.394 248.198 139.558C248.681 140.654 249.194 140.98 249.285 142.309C248.748 141.461 248.255 140.583 247.818 139.684C247.733 139.519 247.651 139.347 247.573 139.171C247.574 139.17 247.574 139.17 247.575 139.17ZM308.429 122.783C309.053 124.379 309.011 125.952 308.069 127.628C308.068 127.629 308.067 127.631 308.066 127.632C308.011 127.726 307.836 127.142 307.721 127.257C307.672 127.634 307.629 128.03 307.557 128.422C307.296 128.389 307.036 128.353 306.778 128.317C307.197 127.333 307.517 126.356 307.694 125.406C307.529 125.533 307.363 125.653 307.193 125.768C307.236 124.966 307.175 124.232 307.014 123.59C307.462 123.763 307.903 123.991 308.332 124.266C308.411 123.772 308.443 123.277 308.429 122.783ZM266.848 154.6C266.505 154.673 266.749 154.095 266.301 154.286C265.868 154.474 265.328 155.221 265.229 154.714C265.708 154.311 266.159 153.856 266.532 153.398C264.66 154.07 263.195 155.528 262.725 154.591C264.488 154.073 265.728 152.979 266.315 151.716C267.042 152.212 266.317 154.044 267.688 153.732C267.433 154.031 267.142 154.335 266.851 154.595C266.85 154.597 266.849 154.598 266.848 154.6ZM333.568 118.353C334.378 119.138 335.816 120.55 336.888 122.168C337.816 123.572 338.238 124.511 338.297 124.992C338.32 125.274 337.458 126.697 337.336 126.858C336.819 127.328 336.054 126.523 336.437 127.707C336.176 127.418 335.928 127.127 335.661 126.735C335.316 127.057 334.977 127.384 334.642 127.714C335.045 128.189 335.449 128.57 335.9 128.914C335.811 129.043 335.724 129.173 335.639 129.304C334.198 127.731 334.599 129.075 333.409 128.386C333.823 129.536 334.431 130.61 335.273 131.602C334.713 131.136 334.108 130.533 333.728 130.03C333.054 130.49 334.317 131.511 334.453 131.773C334.793 132.507 333.605 131.867 332.384 130.557C331.157 129.235 330.142 127.451 329.391 127.174C329.271 127.121 329.16 127.099 329.065 127.113C329.101 127.181 329.137 127.251 329.173 127.32C329.643 128.225 330.077 129.366 330.766 130.571C330.41 130.305 330.064 130.022 329.738 129.754C329.475 128.896 329.263 128.134 328.987 127.443C328.272 125.611 326.861 123.945 325.028 122.492C324.762 122.376 324.493 122.268 324.226 122.165C324.138 122.52 324.042 122.869 323.945 123.22C323.783 123.154 323.62 123.09 323.453 123.026L323.66 123.117C323.409 123.048 323.156 122.979 322.906 122.913C324.552 122.283 322.847 121.627 320.942 120.25C322.209 120.228 323.519 120.975 323.686 120.22C319.651 119.36 315.045 117.14 310.905 117.89C309.909 118.11 309.953 118.981 307.83 119.326C307.876 119.203 307.844 119.009 307.86 118.859C305.908 119.575 304.63 120.524 303.454 121.589C302.326 122.623 301.128 123.626 299.589 124.851C300.011 124.93 300.427 125.019 300.845 125.107C301.337 124.375 301.849 123.647 302.377 122.933C303.136 122.974 302.8 123.603 304.191 122.453C304.311 122.356 304.447 122.248 304.602 122.129C306.051 121.126 305.053 121.506 305.379 121.093C305.87 120.545 306.606 120.728 307.215 120.251C307.715 119.901 306.945 119.556 308.537 119.341C308.015 120.073 307.597 120.86 307.32 121.636C306.974 121.611 306.625 121.603 306.268 121.619C306.491 121.323 306.736 121.038 307.012 120.761C306.043 121.403 305.301 122.141 304.683 123.03C304.596 123.142 304.51 123.255 304.423 123.369C304.201 122.361 303.24 123.638 302.699 124.291C301.853 125.307 302.247 124.083 301.691 124.753C301.137 125.431 300.968 126.565 299.816 127.584C300.084 126.704 299.051 127.282 298.925 126.871C298.797 126.455 299.899 125.176 298.491 126.072C296.635 128.578 299.923 127.042 298.738 128.723C297.395 130.717 295.24 129.826 295.297 128.917C295.348 128.195 296.746 126.653 296.875 125.945C293.858 128.325 295.012 129.296 294.843 129.938C294.346 132.356 293.001 129.584 292.339 132.446C291.94 132.15 291.581 131.886 291.202 131.597C291.027 132.068 290.964 132.416 290.745 132.972C292.434 131.915 291.689 133.137 291.368 133.769C290.863 134.771 292.066 133.442 292.039 133.766C291.947 134.612 291.322 135.657 292.015 135.157C291.697 135.372 291.365 135.634 291.053 135.881C290.712 137.266 292.093 140.359 292.36 137.805C293.012 138.267 292.44 138.902 292.215 139.486C291.996 140.064 292.483 140.121 292.345 140.608C291.935 142.552 291.12 141.366 290.477 140.903C290.862 143.245 291.093 142.039 291.498 143.125C291.651 143.437 291.848 143.976 292.327 144.585C292.629 144.557 292.702 144.177 292.857 143.937C293.005 143.678 293.194 143.611 293.521 143.838C292.881 144.361 292.596 145.68 294.447 146.407C294.526 146.433 294.608 146.457 294.691 146.479C294.936 146.296 295.16 146.097 295.358 145.89C295.886 146.325 296.089 146.728 296.396 146.884C296.67 147.027 297.266 146.93 297.836 145.948C297.897 147.012 297.737 147.283 298.057 147.18C298.353 147.065 298.927 146.656 299.831 145.955C299.913 145.891 300 145.826 300.092 145.761C300.518 145.461 300.153 146.62 300.733 146.19C300.995 145.994 301.209 145.202 301.857 144.727C302.174 144.497 303.828 143.53 304.253 142.325C302.967 142.496 303.659 140.163 301.876 141.3C304.151 138.482 305.168 136.092 303.934 140.183C304.7 139.59 305.459 138.983 306.21 138.357C306.379 137.69 306.545 137.017 306.697 136.345C307.399 136.662 307.576 136.888 308.733 134.559C308.349 135.637 307.932 136.695 307.481 137.752C307.593 137.868 307.645 138.089 307.794 138.138C308.324 136.828 310.143 133.298 310.313 132.304C310.524 131.346 309.699 133.005 309.631 132.666C309.078 129.922 310.091 130.601 310.358 128.958C310.486 128.016 309.616 130.079 309.703 129.578C310.045 127.779 311.104 127.165 311.293 125.45C310.747 126.011 310.158 126.493 309.558 126.905C309.928 125.348 309.954 123.54 309.432 122.232C309.228 121.722 308.981 122.222 308.933 122.143C308.806 121.938 308.526 121.394 308.225 120.956C307.935 120.503 307.688 120.102 307.643 120.014C306.902 118.56 307.34 118.282 306.618 116.876C306.951 117.4 307.258 117.899 307.575 118.421C308.441 118.286 309.313 118.161 310.184 118.036C309.518 116.593 308.825 115.152 308.06 113.723C308.417 114.884 308.733 116.046 309.022 117.203C307.589 115.907 306.123 114.654 304.616 113.561C304.474 112.579 304.296 111.6 304.046 110.615C302.33 108.719 301.488 110.38 301.665 108.512C301.045 108.128 300.402 107.805 299.756 107.57C299.945 107.437 300.139 107.309 300.339 107.188C300.067 107.067 299.792 106.962 299.517 106.872C298.941 106.679 298.367 106.49 297.792 106.312C298.13 106.997 298.44 107.696 298.755 108.39C298.863 108.749 298.944 109.106 299.007 109.457C298.725 109.323 298.534 109.212 298.397 109.102C297.755 108.654 297.869 108.279 297.745 108.086C297.308 107.404 295.859 107.352 295.526 106.796C295.409 106.595 297.115 106.905 296.783 106.232C296.742 106.103 295.28 103.535 293.67 103.451C293.597 103.762 293.583 104.169 293.529 104.516C291.641 104.089 291.009 102.297 291.372 101.892C290.212 101.942 288.608 101.74 288.327 102.227C287.775 102.172 287.225 102.135 286.672 102.116C287.348 100.899 284.907 101.033 284.789 102.129C285.739 102.141 286.686 102.207 287.627 102.322C286.841 103.556 289.302 104.337 284.577 103.249C284.348 103.208 284.101 103.164 283.836 103.117C283.157 102.736 283.976 102.815 284.568 102.85C284.984 102.875 285.289 102.885 284.912 102.677C284.796 102.656 284.679 102.639 284.562 102.626C283.083 102.453 281.692 102.678 280.255 102.303C278.323 101.813 280.632 101.086 276.229 102.134C286.123 103.487 274.927 103.286 270.553 104.614C269.101 102.979 264.937 102.83 259.975 105.268C260.686 105.541 262.194 104.741 263.189 104.644C264.169 104.548 263.243 105.118 264.463 105.044C265.678 104.963 268.218 104.782 269.455 104.966C268.473 105.369 263.839 107.131 266.834 105.609C264.342 105.641 263.048 105.389 260.119 106.388C259.583 107.502 259.779 107.838 257.3 109.196C258.267 107.362 254.947 108.36 254.969 107.015C257.065 106.094 256.529 107.714 257.864 107.618C257.988 107.597 259.673 106.521 260.119 106.388C257.886 106.194 256.996 106.261 257.703 104.588C256.341 105.319 255.425 105.689 255.588 106.255C255.188 106.196 254.778 106.149 254.368 106.11C253.931 106.39 253.555 106.667 253.102 106.986C254.223 107.261 252.704 107.651 252.174 108.632C251.688 109.612 253.056 109.169 251.2 111.082C251.95 110.561 252.653 110.14 253.416 109.756C252.276 110.99 251.327 112.367 250.638 113.823C251.677 113.117 253.83 112.016 254.266 112.601C253.562 112.845 252.55 114.87 252.485 115.085C252.063 115.888 251.95 115.247 251.903 115.297C251.231 116.118 250.896 116.98 250.472 117.536C250.285 117.797 250.081 117.994 249.833 118.108C249.673 119.433 249.186 120.295 248.767 121.6C248.538 122.318 249.051 122.332 248.827 122.72C247.397 125.301 247.458 122.509 247.23 128.194C247.715 127.622 248.214 127.075 248.72 126.526C248.683 127.156 248.658 127.776 248.644 128.397C248.491 128.775 248.342 129.154 248.198 129.534C247.475 129.374 246.752 129.211 246.029 129.049C245.894 129.496 245.766 129.946 245.646 130.393C245.713 129.598 245.804 128.799 245.914 127.999C245.804 127.898 245.693 127.802 245.583 127.7C245.11 128.825 244.673 129.962 244.289 131.136C244.541 131.198 244.794 131.259 245.045 131.32C244.351 133.916 244.105 134.068 244.876 136.553C244.955 138.172 245.99 139.352 246.762 140.036C246.92 140.193 247.069 140.341 247.199 140.482C247.19 140.889 247.192 141.303 247.205 141.721C247.497 141.872 247.791 142.019 248.085 142.158C248.005 142.721 247.946 143.3 247.902 143.88C248.643 143.828 248.843 143.855 248.29 142.046C249.277 142.314 250.425 145.337 250.986 146.61C251.38 147.584 250.16 147.025 250.159 147.176C250.151 147.713 251.38 148.99 251.574 149.298C252.376 150.644 253.133 151.439 254.014 152.55C254.181 152.766 254.432 153.624 254.474 153.679C254.791 154.091 255.618 155.092 255.731 155.187C256.214 155.626 256.631 155.963 256.984 156.225C258.85 157.542 258.741 156.861 258.807 156.496C258.84 156.295 258.92 156.136 259.26 156.183C259.598 156.21 260.186 156.514 261.052 156.595C260.94 156.337 260.87 156.076 260.823 155.812C261.043 155.828 261.243 155.812 261.494 155.754C261.882 155.882 261.509 156.404 262.242 155.844C262.294 156.159 262.336 156.477 262.366 156.795C262.455 156.724 262.542 156.651 262.63 156.574C262.948 156.313 263.253 156.041 263.557 155.75C264.814 156.472 267.583 154.732 268.245 155.742C268.535 156.142 266.641 158.103 268.063 157.632C269.061 156.972 268.101 157.063 268.453 156.742C270.808 154.288 271.095 154.612 271.685 153.226C271.507 152.876 271.312 152.528 271.099 152.209C271.199 152.043 271.294 151.876 271.385 151.701C271.532 151.428 271.68 151.151 271.828 150.874C271.661 150.705 271.496 150.53 271.329 150.361C271.195 150.749 271.045 151.184 270.915 151.552C270.901 151.592 270.887 151.63 270.873 151.668C270.844 151.627 270.82 151.576 270.799 151.515C270.43 150.368 271.422 145.803 271.535 147.819C271.586 148.688 271.026 150.112 272.223 149.466C272.505 148.05 272.801 146.431 272.983 144.92C273.195 144.917 273.406 144.917 273.618 144.913C273.893 142.855 272.717 144.55 272.285 144.441C272.365 143.991 272.441 143.533 272.506 143.08C272.736 142.921 272.972 142.773 273.195 142.598C272.879 142.528 272.208 142.172 272.63 140.864C272.891 140.008 273.572 141.475 273.6 139.768C273.088 139.868 272.474 140.4 272.398 138.571C272.922 138.408 273.402 138.163 273.949 138.022C273.45 135.666 274.185 134.502 273.15 131.837C272.481 130.132 270.608 128.307 272.139 126.606C271.766 125.357 271.428 125.926 271.194 125.605C270.085 124.135 270.4 122.557 270.312 122.226C270.213 121.854 270.103 121.521 269.988 121.216C269.477 119.851 268.95 119.12 268.655 117.68C268.363 117.928 268.07 118.128 267.778 118.355C268.76 119.323 269.154 119.988 269.737 121.336C269.867 121.634 270.001 121.963 270.144 122.33C269.966 122.023 269.783 121.715 269.594 121.405C269.389 121.07 269.184 120.736 268.979 120.402C268.761 120.643 268.542 120.882 268.323 121.117C268.491 121.352 268.648 121.576 268.794 121.79C271.733 126.378 270.045 125.938 267.797 122.268C267.578 121.925 267.352 121.553 267.122 121.154C267.409 120.467 267.685 119.763 267.973 119.078C265.756 116.47 265.724 114.751 264.168 111.331C263.981 110.921 262.95 109.63 262.611 109.021C262.614 109.032 262.618 109.043 262.621 109.054C261.953 108.914 262.013 109.548 261.628 109.828C261.401 109.521 261.173 109.214 260.945 108.909C260.867 107.998 261.27 108.123 260.41 106.7C260.202 107.067 259.992 107.43 259.782 107.796C258.915 106.203 258.689 104.981 257.724 103.591C257.979 103.771 258.233 103.95 258.489 104.133C257.006 100.767 260.26 102.277 257.979 100.371C258.05 100.126 258.125 99.885 258.195 99.6404C258.804 100.608 259.415 101.602 260.008 102.575C260.245 102.469 260.483 102.366 260.719 102.257C260.055 101.223 259.368 100.169 258.69 99.1463C259.288 99.8369 259.887 100.539 260.482 101.245C259.885 99.9272 259.285 98.6268 258.664 97.3204C258.608 99.1163 257.513 97.4704 256.886 98.2686C256.285 95.7022 256.148 93.434 253.456 90.4789C252.918 89.8976 252.604 90.6033 252.05 88.327C251.48 89.3518 249.519 87.3444 248.899 88.2114C249.366 88.802 249.841 89.4486 250.293 90.0206C250.119 89.1384 250.827 88.4825 251.774 89.391C252.991 90.5642 253.711 92.9381 254.554 92.2964C254.864 92.8811 255.158 93.4091 255.458 93.9765C255.097 93.8899 254.737 93.8104 254.379 93.7311C255.685 95.0549 256.152 96.1002 256.03 97.1869C254.799 95.4145 253.552 93.6751 252.263 91.9478C252.395 92.2368 252.529 92.5308 252.662 92.8211C251.218 91.8191 251.594 93.5659 249.829 91.1297C250.097 90.9747 250.363 90.8167 250.632 90.6611C249.35 90.2018 247.66 87.7467 247.418 89.0699C247.153 88.1761 247.189 87.9092 246.48 87.7949C245.71 85.4663 245.494 83.6999 246.879 83.7205C246.208 83.1186 245.515 82.5067 244.838 81.9327C244.919 82.5159 244.998 83.1006 245.073 83.6875C244.156 82.4614 243.208 81.2508 242.236 80.0763C242.825 79.3901 244.318 82.1799 244.362 80.991C244.372 80.7491 243.585 80.3227 243.515 80.1017C242.766 77.7051 244.563 80.9414 244.694 79.9491C242.633 77.1528 245.416 78.4152 241.407 75.5431C241.506 75.2757 241.6 74.9973 241.701 74.7368C240.549 73.5133 240.225 74.0081 239.126 73.0874C238.44 72.5183 238.279 70.9974 237.059 70.8536C236.843 70.852 237.3 72.8035 234.681 70.5789C232.601 68.9241 233.982 68.8909 232.96 67.7895C231.885 66.6298 228.377 66.0694 228.006 64.4566C228.663 64.9462 229.519 65.4829 230.203 66.035C230.64 65.9721 231.074 65.9172 231.518 65.8732C229.628 65.1331 227.853 63.8735 226.346 64.0003C225.989 63.6975 225.598 63.4474 225.198 63.2516C223.213 62.2665 221.124 62.4869 221.503 63.5533C222.367 63.6418 221.612 62.9183 222.663 63.5497C222.706 63.83 222.756 64.1109 222.797 64.3912C220.881 63.78 219.527 63.4197 220.626 62.9159C220.329 62.8124 220.035 62.7105 219.737 62.6087C219.532 63.1382 219.333 63.6717 219.13 64.2017C218.756 64.1646 218.381 64.1284 218.007 64.0944C217.642 63.8684 217.275 63.6423 216.903 63.417C217.665 62.6951 218.622 62.8923 215.645 61.6348C215.563 61.9328 215.477 62.2285 215.395 62.5265C212.904 61.5354 212.992 60.7706 209.684 60.1527C212.437 59.584 213.414 61.7748 213.874 59.6688C214.483 59.9504 215.089 60.239 215.691 60.5298C215.861 60.2498 216.03 59.9693 216.197 59.6887C212.702 58.9676 206.649 59.9468 204.522 58.3305C204.217 58.4574 203.915 58.5643 203.608 58.7061C201.407 57.618 200.26 59.3608 198.016 58.1608C197.777 58.0466 198.399 56.2985 195.275 56.2766C195.349 56.5031 195.382 56.8828 195.438 57.168C194.773 57.0162 194.11 56.8671 193.442 56.7311C193.322 56.94 193.198 57.1491 193.081 57.3602C194.219 57.4259 195.346 57.5217 196.472 57.6418C195.532 57.6803 194.585 57.7369 193.651 57.8128C194.871 58.1494 195.413 58.1706 194.678 58.7036C193.632 58.7256 192.585 58.7732 191.539 58.845C191.437 58.9884 191.336 59.1337 191.235 59.2777C191.755 59.6719 192.273 60.0633 192.772 60.4763C190.106 60.1869 187.809 60.3733 185.651 59.8537C185.283 59.7733 186.44 59.0322 184.126 59.8997C184.041 59.6231 183.937 59.4047 183.849 59.1507C181.049 60.4976 180.11 60.4684 176.938 60.8804C179.035 60.7687 177.199 60.9846 176.812 61.4303C176.546 61.7308 177.829 61.2672 177.748 61.5181C177.653 61.7611 176.299 63.1164 177.722 62.7357C180.701 60.011 182.198 61.7117 186.657 60.2491C185.965 60.5585 185.285 60.882 184.616 61.2187C184.972 61.3119 185.29 61.4002 185.668 61.506C183.084 61.5762 184.347 61.601 183.366 62.0495C182.387 62.5045 180.609 63.1595 179.434 63.5944C179.063 63.731 179.351 63.235 178.483 63.4704C178.232 63.5395 177.835 63.7725 177.423 63.9854C176.848 64.2793 176.23 64.5333 175.883 64.2486C175.474 63.9353 177.694 61.8052 174.054 63.1846C173.212 63.0499 175.007 62.4967 175.028 62.4383C175.173 61.8329 172.761 62.3365 171.881 63.142C171.812 63.2073 172.777 63.2366 171.956 63.7501C170.026 64.9775 168.68 65.1239 167.076 65.2398C167.257 65.9657 165.976 67.5717 163.846 68.5442C163.851 68.7841 163.863 69.0222 163.871 69.2628C164.121 68.981 164.372 68.7041 164.63 68.4255C165.037 68.338 165.445 68.2144 165.855 68.1614C163.912 69.4701 164.182 70.5162 163.467 71.4043C161.119 74.4956 161.438 71.0841 161.775 70.3016C162.291 70.1782 162.807 70.0883 163.324 69.9913C163.142 69.8065 162.959 69.6209 162.78 69.4332C157.999 72.6601 161.116 68.5277 158.391 69.8848C158.496 71.3602 156.867 72.7146 154.278 74.0498C154.055 74.2666 153.828 74.4847 153.61 74.7069C153.699 74.8731 153.893 75.0717 153.916 75.2156C151.712 77.705 149.937 76.9723 149.566 77.0948C147.99 77.6948 148.159 79.3134 147.914 79.6523C146.87 81.1197 146.158 81.2835 145.401 82.8503C144.615 84.5477 145.61 83.6676 145.608 84.3205C145.603 84.8405 144.937 86.1001 144.907 86.7579C144.817 86.4425 144.746 86.105 144.66 85.7873C143.757 86.9285 142.994 87.9259 142.261 89.2071C142.026 89.6172 141.781 90.1497 141.591 90.6366C142.37 93.5159 139.322 94.8464 141.707 94.5277C142.289 92.5889 142.904 91.5521 143.811 90.8064C143.427 92.0148 143.163 93.2652 142.954 94.5498C142.63 94.8536 142.335 95.0659 141.996 95.4742C142.327 96.5039 141.778 98.7436 141.856 99.6168C142.231 103.828 143.228 102.517 141.635 106.265C141.511 103.532 140.765 103.514 141.067 100.778C140.485 101.307 140.507 102.756 139.93 101.787C139.935 104.471 140.564 103.652 141.033 104.679C141.441 105.576 141.484 107.341 142.051 107.232C141.743 107.417 141.445 107.564 141.139 107.755C141.183 109.454 141.288 111.168 141.459 112.866C141.066 112.186 140.679 111.462 140.309 110.755C140.223 111.315 140.146 111.889 140.075 112.461C141.338 116.58 141.25 124.137 143.461 122.382C144.041 124.318 143.818 124.624 143.68 125.833C143.9 125.892 144.087 125.956 144.328 126.007C144.529 127.311 145.543 128.02 145.768 129.145C146.003 130.28 145.489 130.803 146.611 130.52C146.585 131.322 146.632 132.115 146.661 132.915C147.084 133.212 147.507 133.503 147.932 133.784C148.114 134.469 148.307 135.145 148.515 135.823C149.16 135.901 150.3 138.378 151.275 139.172C151.401 140.425 149.82 141.492 151.74 143.525C152.064 143.189 152.389 142.857 152.716 142.525C153.01 143.077 153.319 143.63 153.634 144.172C153.541 144.296 153.444 144.416 153.351 144.54C153.186 144.262 153.027 143.989 152.869 143.709C152.839 144.084 152.809 144.453 152.784 144.828C153.682 145.339 154.602 145.834 155.514 146.278C154.873 145.146 154.263 143.972 153.721 142.808C154.951 143.834 155.419 144.9 156.613 145.651C156.954 146.956 156.4 146.896 155.551 146.998C155.904 147.292 156.266 147.591 156.627 147.875C155.931 148.136 156.142 149.01 154.349 146.972C154.326 147.242 154.315 147.51 154.288 147.783C154.615 148.093 154.694 148.422 155.093 148.729C156.181 149.562 157.761 149.377 157.986 149.006C158.103 148.815 156.891 148.223 157.153 148.034C157.795 147.584 159.566 149.856 157.202 146.372C158.509 147.023 158.44 147.479 159.462 148.629C159.547 148.36 159.637 148.095 159.729 147.831C160.159 148.396 160.585 148.936 161.039 149.482C160.262 149.656 160.71 150.635 160.924 151.353C161.077 151.872 161.08 152.252 160.327 152.077C159.978 151.995 159.465 151.791 158.744 151.408C159.14 151.785 159.545 152.158 159.957 152.527C160.627 153.127 161.29 153.711 161.946 154.283C161.637 154.209 161.327 154.132 161.015 154.054C160.596 153.633 160.177 153.208 159.753 152.776C159.717 152.739 159.68 152.702 159.644 152.665C159.673 152.71 159.703 152.755 159.732 152.801C160.14 153.435 160.548 154.061 160.952 154.681C162.535 155.555 163.399 155.623 164.385 155.649C163.024 154.061 163.184 154.918 161.851 154.008C162.124 153.756 162.278 153.446 162.627 153.23C162.806 154.355 165.28 155.569 165.817 155.919C167.412 156.97 165.764 156.676 166.782 157.448C167.826 158.236 169.296 158.734 169.746 159.947C169.967 159.594 170.143 159.192 170.298 158.839C171.998 159.845 171.413 160.03 171.545 160.199C173.708 162.901 175.718 163.135 179.02 164.935C178.671 164.585 178.316 164.243 177.962 163.892C180.844 164.549 179.058 163.848 177.114 162.328C179.031 163.594 180.553 163.593 182.057 164.174C183.57 164.766 185.823 166.375 186.601 167.098C184.313 166.488 182.244 165.025 179.955 163.864C179.999 164.378 180.07 164.831 180.106 165.386C181.906 165.381 182.432 166.335 182.829 166.682C184.022 167.709 184.328 167.003 184.771 168.157C184.867 167.888 184.951 167.664 185.038 167.413C187.775 168.959 190.652 170.854 192.945 170.748C192.835 171.443 192.694 172.096 192.606 172.816C194.035 172.901 194.869 173.841 195.949 174.184C197.022 174.522 196.852 173.851 198.141 174.18C198.38 174.241 198.708 174.756 199.359 174.762C200.014 174.767 202.811 173.91 202.4 175.532C203.433 175.985 204.384 176.459 205.389 176.925C204.361 176.582 203.343 176.242 202.321 175.904C203.005 176.634 203.682 177.36 204.362 178.09C204.611 177.809 204.863 177.522 205.107 177.243C207.539 177.824 208.95 179.08 211.269 179.977C211.657 180.128 211.062 179.08 212.658 180.006C214.276 180.949 214.933 182.699 217.973 183.617C218.123 183.661 219.404 183.165 220.103 184.299C220.262 184.555 219.191 184.281 219.626 184.731C220.045 185.169 222.307 186.523 222.244 187.053C222.301 186.885 222.242 186.649 222.255 186.455C222.685 186.584 223.122 186.718 223.561 186.858C223.454 187.15 223.349 187.445 223.242 187.736C223.442 187.78 223.636 187.818 223.827 187.853C226.195 188.28 227.882 188.033 231.035 189.695C230.194 188.878 229.376 188.045 228.587 187.198C228.192 187.366 227.794 187.533 227.4 187.697C226.504 187.2 225.592 186.667 224.744 186.132C224.105 185.732 223.472 185.339 222.846 184.954C222.428 185.142 222.009 185.327 221.586 185.513C221.19 185.257 220.8 185.007 220.409 184.757C220.629 184.578 220.85 184.401 221.075 184.225C220.234 183.869 219.36 183.505 218.514 183.159C220.888 182.613 223.126 185.64 223.491 184.391C223.767 184.759 224.043 185.13 224.32 185.503C224.527 185.292 224.779 185.293 225.117 185.434C225.499 185.592 225.997 185.94 226.7 186.344C226.529 185.92 226.333 185.484 226.206 185.071C227.261 186.112 229.598 187.127 230.904 187.831C231.477 188.143 230.706 188.315 230.866 188.437C231.692 189.079 233.766 189.019 234.114 189.207C236.234 190.363 237.28 192.273 240.081 192.093C237.561 191.074 238.943 191.599 238.19 190.794C237.946 190.54 234.756 189.13 238.849 190.615C239.29 190.833 246.676 193.928 243.958 194C245.268 194.089 246.321 194.057 247.53 194.079C249.854 196.776 249.331 194.638 248.768 193.402C249.226 193.507 249.664 193.599 250.136 193.708C248.867 194.582 254.005 195.816 255.87 195.591C256.49 195.523 254.932 194.84 256.313 194.945C256.938 195.151 257.659 195.397 258.322 195.614C257.47 194.724 259.457 194.825 259.56 194.103C260.674 194.972 261.391 196.493 260.57 197.1C261.658 196.992 262.736 196.877 263.827 196.756C263.378 196.505 262.914 196.251 262.468 195.998C265.75 197.046 270.276 196.683 270.73 198.29C271.175 198.345 271.649 198.405 272.098 198.459C272.274 198.224 272.444 197.988 272.619 197.752C274.598 198.262 276.628 198.764 278.611 199.244C276.802 199.171 276.275 199.471 274.446 198.92C275.148 199.316 275.809 199.706 276.523 200.1C279.462 199.682 279.963 199.218 284.225 199.977C284.438 200.012 287.605 201.081 287.692 201.179C288.127 201.552 287.322 201.86 287.518 202.044C287.588 202.109 287.703 202.191 287.799 202.279C287.821 202.318 287.964 202.385 287.94 202.42C287.936 202.429 287.925 202.436 287.899 202.437C287.887 202.438 287.87 202.438 287.848 202.435C287.8 202.408 287.911 202.516 287.48 202.25C287.377 202.175 287.234 202.067 287.068 201.829C286.906 201.601 286.726 201.17 286.773 200.693C286.814 200.215 287.056 199.847 287.238 199.657C287.426 199.459 287.573 199.376 287.678 199.317C287.78 199.261 287.875 199.226 287.897 199.217C287.908 199.211 287.918 199.207 287.928 199.202C287.948 199.193 287.965 199.185 287.981 199.178C288.042 199.151 288.073 199.135 288.09 199.121C288.016 198.972 287.304 198.823 286.878 198.658C286.291 198.497 285.918 198.337 285.531 198.21C285.163 198.083 284.898 197.986 284.92 197.946C285.212 197.454 286.2 197.094 287.442 196.782C287.617 196.741 287.755 196.701 287.812 196.664C287.835 196.65 287.902 196.615 287.613 196.649C287.537 196.659 287.437 196.676 287.278 196.717C287.238 196.727 287.194 196.739 287.145 196.754C287.121 196.761 287.095 196.769 287.068 196.778C287.052 196.783 287.047 196.785 287.02 196.794C286.948 196.82 286.866 196.851 286.77 196.892C286.414 197.093 285.713 197.23 284.783 198.641C284.343 199.338 284.046 200.513 284.226 201.525C284.388 202.544 284.847 203.238 285.195 203.651C285.924 204.465 286.324 204.589 286.586 204.739C286.915 204.892 286.809 204.839 286.871 204.867C286.935 204.894 286.987 204.915 287.032 204.933C287.121 204.967 287.18 204.988 287.224 205.004C287.526 205.132 286.812 205.055 286.531 205.073C285.672 205.055 284.774 205.028 283.835 204.979C280.028 204.787 275.85 204.279 274.094 204.084C256.554 201.974 239.082 199.302 222.282 190.75C206.422 181.774 188.119 176.246 171.377 165.451C171.048 165.243 171.034 165.578 170.887 165.498C169.978 164.996 169.404 164.068 169.095 163.837C168.442 163.349 168.575 163.943 168.091 163.613C164.34 161.04 160.951 158.287 157.557 155.443C156.304 154.394 155.112 153.321 153.911 152.169C153.609 151.877 154.146 151.942 153.586 151.465C153.302 151.228 152.087 150.711 151.5 150.071C149.447 147.836 148.006 145.728 146.239 143.082C145.272 141.643 143.98 139.367 143.098 137.649C142.706 136.897 142.1 136.189 141.739 135.427C141.232 134.345 141.77 134.368 141.722 134.19C141.517 133.401 140.995 133.503 140.715 132.791C140.208 131.461 140.496 131.259 139.868 129.588C139.408 128.384 138.287 125.665 137.823 124.108C137.258 120.344 136.361 115.74 135.956 112.238C135.715 110.173 136.211 109.952 136.169 109.112C136.048 106.156 135.463 103.882 135.641 101.043C135.916 97.2737 136.763 94.0507 137.959 90.2275C138.173 89.5796 137.701 89.58 137.917 88.9438C138.068 88.5098 138.273 87.9715 138.487 87.4824C139.243 85.7181 140.21 83.7908 141.059 82.4492C142.234 80.6108 143.215 80.2918 144.323 78.4987C144.657 77.9721 144.301 77.4889 144.887 76.6066C145.823 75.2022 147.42 74.1284 148.247 73.3238C149.399 72.214 148.005 72.8137 149.586 71.3265C149.653 71.2656 150.17 71.3358 150.489 71.0025C151.429 70.0421 151.103 69.8788 152.615 68.6108C152.758 68.4752 155.028 67.1491 155.238 67.0097C156.435 66.0768 159.023 64.495 159.736 63.9684C162.283 62.0682 159.849 62.7926 162.839 62.6311C163.704 61.7706 164.582 60.9312 165.566 60.0886C164.951 60.7139 168.173 59.6482 168.377 59.5472C170.066 58.5632 168.794 58.5247 171.114 57.6687C168.887 59.7254 172.827 57.359 174.777 56.4837C175.077 56.3463 175.332 56.2387 175.512 56.1743C182.431 53.74 189.039 53.3967 196 53.5523C198.337 53.6033 201.471 53.5849 203.899 53.8914C204.464 53.9607 204.002 54.1932 204.498 54.2616C204.992 54.3296 204.484 53.9382 205.048 54.0294C208.559 54.616 211.132 55.7194 214.424 55.6641C214.553 55.8054 214.529 55.8891 214.754 56.0636C217.481 55.9543 222.111 58.1565 223.852 58.8276C224.912 59.2223 225.684 59.4403 226.352 59.5983C227.587 59.9114 228.513 60.0932 229.871 60.7631C232.844 62.1788 236.091 65.5995 235.197 63.1918C237.02 64.3354 238.664 65.5869 240.157 67.0508C240.325 67.2157 239.955 67.3961 240.021 67.463C240.433 67.8921 240.796 67.7644 241.1 68.0164C241.92 68.7049 240.359 67.8284 241.559 68.7738C242.191 69.2859 242.734 69.361 244.296 70.9422C253.562 80.5236 260.528 92.451 266.584 103.749C266.998 104.529 267.046 103.843 267.544 104.829C269.29 108.257 271.808 114.646 273.303 117.566C273.692 118.318 273.99 118.818 274.237 119.175C274.995 120.321 275.3 120.158 276.114 121.655C276.325 122.054 275.904 121.83 276.052 122.205C277.053 124.712 277.533 127.985 277.887 130.193C278.12 131.649 278.561 131.451 278.749 132.486C279.018 134.029 278.631 135.67 278.636 136.487C278.655 140.354 278.673 143.096 277.735 146.463C277.868 146.354 277.982 146.287 278.109 146.196C277.554 148.687 276.822 151.03 276.123 153.201C275.388 155.521 274.034 157.509 272.543 159.013C272.794 158.894 273.041 158.773 273.294 158.636C270.983 161.068 269.645 161.346 269.243 161.668C268.823 161.942 269.216 162.038 270.044 162.816C269.699 163.131 269.332 163.455 268.986 163.73C268.729 163.074 267.34 163.262 265.335 163.6C263.841 163.916 261.244 164.326 258.736 163.557C258.232 163.518 255.162 163.337 256.096 162.298C255.377 162.275 254.952 162.269 254.375 162.23C254.046 161.756 253.769 161.293 253.524 160.84C253.335 160.476 253.156 160.113 252.985 159.749C252.612 159.528 252.239 159.294 251.874 159.06C251.659 159.213 251.524 159.447 251.253 159.546C249.63 158.278 247.026 155.013 246.066 153.754C243.565 150.729 240.956 147.399 240.495 144.165C239.912 142.837 239.925 144.201 239.336 142.505C239.294 142.38 239.251 142.242 239.208 142.088C239.359 141.712 239.517 141.369 239.694 141.005C238.112 139.166 238.685 138.48 238.836 135.795C238.987 133.987 238.805 132.845 239.057 131.235C239.125 130.829 239.448 130.935 239.476 130.66C239.555 129.735 239.612 127.108 239.758 126.494C240.7 122.112 241.975 118.523 243.358 114.924C243.855 113.626 244.477 112.372 245.253 111.15C245.639 110.553 244.868 111.162 245.277 110.542C245.961 109.553 245.985 110.426 246.397 109.885C247.592 108.442 247.166 108.031 249.058 106.187C255.622 100.207 264.482 98.8625 271.636 98.0005C271.863 97.9735 271.813 97.6645 272.06 97.633C273.676 97.433 275.331 97.7165 276.77 97.6138C279.157 97.448 280.919 96.9377 283.245 96.8718C283.646 96.8607 284.04 96.8525 284.427 96.8468C289.25 96.7657 293.735 97.948 298.089 99.7918C299.562 100.412 300.893 101.059 302.125 101.671C305.289 103.287 307.327 105.539 309.133 107.964C311.53 111.271 313.196 114.549 314.825 117.67C318.447 125.128 315.327 132.012 313.012 136.651C310.456 141.511 307.452 145.584 304.556 149.509C301.921 153.362 296.377 154.41 293.277 153.711C288.746 153.281 284.609 148.445 284.153 144.81C283.928 143.76 283.824 142.71 283.82 141.696C283.824 140.988 284.107 141.279 284.095 141.067C284.045 139.088 283.784 138.866 284.646 138.338C284.945 136.049 284.609 135.155 285.667 132.757C286.268 131.53 286.622 132.809 287.243 130.633C287.892 128.759 286.218 130.128 289.948 125.742C290.052 125.629 290.928 125.378 291.543 124.401C292.178 123.426 290.986 124.171 292.743 122C294.419 119.977 296.483 117.981 298.768 116.09C303.698 111.82 310.677 111.517 315.38 112.213C315.947 112.208 320.693 112.987 321.556 113.17C323.307 113.432 323.103 112.925 325.243 113.563C325.878 113.756 326.434 114.017 326.98 114.296L327.658 114.591C328.691 115.232 329.709 115.973 331.056 116.859C331.304 117.042 332.043 116.889 333.568 118.353ZM219.158 64.7186C218.664 65.0734 217.565 66.5528 215.516 65.4917C215.318 65.3909 216.739 64.518 215.564 64.029C216.791 64.2034 217.964 64.4698 219.159 64.7169C219.158 64.7174 219.158 64.718 219.158 64.7186ZM332.363 134.468C330.661 133.031 329.28 130.813 328.554 129.311C329.314 130.21 330.296 131.45 331.47 132.402C331.709 133.103 332.013 133.798 332.363 134.468ZM251.658 147.996C251.657 147.995 251.656 147.994 251.655 147.992C252.826 149.216 254.082 150.336 255.402 151.334C255.164 151.329 254.923 151.321 254.683 151.31C253.58 150.547 252.513 149.7 251.495 148.783C251.546 148.519 251.6 148.257 251.658 147.996ZM245.039 136.448C245.195 135.337 245.542 135.603 245.866 135.017C245.866 135.017 245.865 135.017 245.864 135.017C245.948 134.862 246.051 134.141 246.086 133.862C245.873 133.951 245.661 134.072 245.45 134.177C245.097 131.459 247.743 126.977 247.515 133.278C247.265 133.163 247.015 133.048 246.766 132.927C246.447 136.004 246.474 139.419 245.039 136.448ZM192.614 61.6268C189.844 62.5736 189.034 62.7804 185.654 62.6548C186.082 62.3458 186.523 62.0417 186.967 61.7439C187.55 61.9216 188.127 62.1074 188.698 62.3038C188.7 62.3037 188.701 62.3035 188.703 62.3034C188.79 62.0353 188.879 61.7669 188.965 61.4996C190.181 61.5036 191.401 61.5474 192.614 61.6268ZM305.366 135.089C303.493 134.866 304.5 135.193 305.261 133.094C305.509 132.373 304.895 132.867 305.074 132.438C305.994 130.135 307.037 130.415 307.359 131.176C306.785 132.502 306.093 133.822 305.369 135.085C305.368 135.086 305.367 135.087 305.366 135.089ZM319.545 120.748C319.546 120.749 319.548 120.749 319.549 120.75C319.491 121.166 318.459 120.972 319.473 121.69C318.617 121.425 317.761 121.182 316.901 120.972C317.162 120.995 317.43 121.025 317.693 121.054C317.506 120.857 317.316 120.66 317.124 120.466C316.703 120.857 316.49 120.511 315.607 120.17C315.759 120.721 315.901 121.273 316.03 121.825C315.051 121.452 314.062 121.126 313.074 120.873C313.075 120.744 313.075 120.615 313.075 120.485C312.676 120.611 312.288 120.75 311.912 120.899C311.818 120.741 311.725 120.586 311.627 120.43C311.169 120.535 310.725 120.659 310.302 120.803C310.146 120.45 311.102 120.188 309.392 120.449C309.865 120.003 310.393 119.585 310.973 119.194C313.822 119.191 316.719 119.86 319.545 120.748ZM306.073 117.351C307.666 120.214 306.983 119.53 305.891 119.239C305.957 118.612 306.018 117.98 306.073 117.351ZM264.185 114.207C263.232 113.599 262.287 113 261.338 112.375C260.155 110.779 260.16 108.552 261.216 109.671C262.483 111.021 262.845 112.933 264.185 114.207ZM239.84 76.8954C241.249 78.812 239.243 77.639 238.59 77.5386C238.613 76.6345 237.939 76.0107 236.957 74.967C237.958 75.8583 239.602 76.5724 239.842 76.8941C239.841 76.8946 239.841 76.895 239.84 76.8954ZM268.966 150.142C268.895 150.385 268.832 150.63 268.771 150.873C268.655 151.388 268.464 151.899 268.082 152.242C267.746 151.789 268.677 150.947 267.588 151.354C267.704 151.101 267.798 150.845 267.869 150.587C267.922 150.406 267.974 150.224 268.026 150.043C268.232 150.515 268.63 150.093 268.964 150.144C268.964 150.143 268.965 150.142 268.966 150.142ZM281.137 105.355C279.237 104.784 278.882 105.08 277.044 105.657C276.738 105.144 278.925 104.103 280.346 103.85C280.608 104.351 280.872 104.853 281.137 105.355ZM236.031 187.987C235.376 188.488 232.216 187.43 230.805 186.602C231.021 186.583 231.238 186.563 231.455 186.542C232.963 187.065 234.478 187.54 236.031 187.987ZM236.487 74.4609C236.65 74.6398 236.812 74.8133 236.957 74.967C236.782 74.8098 236.615 74.6372 236.487 74.4609ZM146.955 82.5159C146.885 81.4832 145.332 83.3772 147.214 81.0755C147.213 81.0751 147.213 81.0748 147.212 81.0744C148.489 79.5816 148.787 79.2776 149.979 77.92C150.173 78.9593 148.167 81.8736 151.423 78.2056C151.467 78.158 151.011 77.9314 151.588 77.3849C151.767 77.2184 152.583 76.9032 153.487 76.1509C153.784 75.9027 155.881 73.9905 153.152 76.7377C153.643 77.0509 153.918 77.5994 154.326 77.975C153.445 79.1358 151.861 79.2436 150.89 80.5006C149.466 82.3771 149.785 83.9958 148.294 83.5458C149.053 81.6747 151.227 78.9715 152.198 79.2485C153.447 77.8362 153.316 76.9373 151.993 77.8418C148.1 83.2747 149.823 78.4963 146.926 83.6968C147.062 83.8671 147.121 84.1908 147.305 84.2627C145.739 85.4074 146.968 82.8767 146.955 82.5159ZM157.541 73.157C156.933 74.2229 156.38 75.3002 155.878 76.381C155.392 75.8698 155.378 74.9638 156.495 73.4669C156.844 73.36 157.195 73.255 157.541 73.157ZM168.144 155.73C168.509 155.519 169.079 155.497 169.556 155.387C169.59 155.888 176.33 160.8 172.635 158.707C172.078 158.404 169.427 155.714 168.144 155.73ZM293.342 106.091C292.559 105.543 291.748 105.03 290.899 104.561C292.336 104.735 293.777 105.031 295.211 105.429C294.572 105.631 293.95 105.852 293.342 106.091ZM257.169 99.731C257.365 100.1 256.213 99.1655 257.105 100.546C256.2 99.6521 255.378 98.8149 254.493 97.9536C254.526 97.5178 254.556 97.0796 254.587 96.6442C254.306 96.4895 254.022 96.3309 253.741 96.1791C254.14 96.1302 254.522 96.0711 254.932 96.029C255.298 98.1588 256.293 98.0971 257.169 99.731ZM268.973 155.559C268.208 155.237 269.7 152.886 267.767 154.787C267.762 154.046 268.15 153.342 268.772 152.114C269.052 152.012 269.329 151.889 269.605 151.744C269.277 151.586 269.157 151.345 269.053 150.962C269.016 150.739 268.993 150.469 268.966 150.142C268.967 150.141 268.968 150.141 268.969 150.14C269.681 147.713 269.783 147.924 270.801 147.575C269.809 149.568 270.1 150.129 270.194 151.323C270.218 151.571 270.221 151.851 270.17 152.181C269.994 153.484 268.79 154.677 268.973 155.559ZM161.13 150.257C161.353 150.341 161.537 150.391 161.692 150.419C162.859 150.638 162.361 149.721 164.273 152.053C163.992 152.048 163.721 152.049 163.445 152.048C162.819 151.575 162.188 151.09 161.551 150.591C161.41 150.48 161.27 150.369 161.13 150.257ZM260.501 156.699C260.423 157.313 260.728 157.938 261.189 158.072C261.641 158.212 262.099 157.845 261.957 156.846C261.324 156.776 261.244 156.92 261.113 157.048C261.005 157.162 260.851 157.233 260.501 156.699ZM241.812 76.182C244.055 78.7605 242.526 79.1743 241.118 78.6133C241.167 78.2873 241.215 77.9608 241.263 77.6385C240.787 77.2812 240.311 76.936 239.825 76.5869C240.482 76.4437 241.151 76.3142 241.812 76.182ZM255.478 109.103C253.935 111.196 257.97 108.097 256.822 109.482C255.921 110.51 254.051 110.91 254.217 110.062C254.587 109.75 255.01 109.426 255.474 109.106C255.476 109.105 255.477 109.104 255.478 109.103ZM247.919 121.028C248.947 120.93 248.482 121.417 248.989 119.449C249.056 119.192 249.484 118.173 249.808 117.292C250.164 116.328 250.459 115.561 249.66 116.28C249.543 116.549 249.431 116.828 249.325 117.115C248.851 118.393 248.368 119.716 247.919 121.028ZM206.835 61.2205C206.865 60.7962 210.536 60.5384 210.946 60.8668C210.946 60.8662 210.946 60.8656 210.946 60.865C212.032 61.704 208.341 61.0705 209.774 62.2054C206.386 60.8127 205.049 62.481 205.644 60.1725C207.764 60.3922 206.69 60.7232 206.835 61.2205ZM278.63 198.877C278.632 198.878 278.633 198.878 278.635 198.878C278.369 198.826 276.542 197.979 276.791 197.801C279.092 198.284 278.672 198.628 280.924 198.256C281.022 198.48 281.102 198.694 281.207 198.92C280.274 198.929 279.831 199.127 278.63 198.877ZM175.149 161.513C174.357 161.142 173.262 159.9 172.429 159.37C175.968 159.702 178.324 162.98 175.149 161.513ZM294.08 132.536C294.08 132.538 294.079 132.54 294.078 132.543C294.078 132.542 294.077 132.54 294.077 132.539C294.078 132.538 294.079 132.537 294.08 132.536ZM142.364 107.031C142.255 107.143 142.16 107.207 142.076 107.231C142.068 107.231 142.06 107.232 142.052 107.232C142.155 107.17 142.259 107.104 142.364 107.031ZM199.545 60.4627C198.107 59.7678 203.118 59.2712 204.69 59.7481C204.543 59.9912 204.495 60.2229 204.197 60.4854C203.003 59.6287 199.767 60.5635 199.545 60.4627ZM272.161 134.339C271.67 130.521 274.596 135.268 272.746 135.65C272.717 135.641 272.181 134.431 272.161 134.339ZM229.07 67.3681C230.243 67.2517 228.633 66.0748 231.306 67.8122C231.368 68.0601 231.428 68.3084 231.485 68.5566C230.695 68.1279 229.879 67.724 229.07 67.3681ZM265.57 109.571C262.951 105.329 260.054 101.531 259.954 105.25C260.185 105.547 260.416 105.85 260.646 106.15C261.481 105.764 261.696 107.211 262.608 109.011C263.066 109.098 263.656 110.046 264.028 110.091C264.747 110.177 264.526 108.837 265.57 109.571ZM300.769 145.309C300.691 145.151 300.611 144.995 300.535 144.838C300.861 144.107 301.187 143.375 301.507 142.642C301.674 142.922 301.841 143.202 302.008 143.483C301.598 144.093 301.187 144.699 300.772 145.305C300.771 145.307 300.77 145.308 300.769 145.309ZM160.227 68.7251C160.848 70.4088 161.87 69.2306 164.195 66.8685C162.858 67.4335 161.529 68.0539 160.227 68.7251ZM244.327 143.068C244.74 142.783 245.154 142.504 245.57 142.224C244.494 140.847 244.073 141.277 243.757 142.309C243.944 142.567 244.133 142.818 244.327 143.068ZM246.282 118.508C245.951 119.141 246.444 118.931 246.412 118.999C245.634 120.619 245.37 120.805 244.999 122.999C245.02 123.289 245.048 123.573 245.075 123.862C246.349 123.187 246.02 122.319 247.273 120.493C246.816 120.742 246.36 120.994 245.903 121.25C246.346 120.141 246.803 119.045 247.274 117.953C247.219 117.784 247.165 117.614 247.111 117.445C246.836 117.795 246.541 118.154 246.282 118.508ZM292.582 147.246C291.582 146.679 290.837 145.743 290.431 144.699C290.183 144.762 289.932 144.824 289.681 144.879C290.368 146.01 291.429 146.892 292.582 147.246ZM144.907 86.7579C144.942 86.8819 144.981 87.0012 145.025 87.1138C144.93 87.0543 144.899 86.9269 144.907 86.7579ZM281.478 200.635C282.745 200.971 284.627 201.079 286.048 201.296C285.986 200.645 282.363 200.382 281.163 199.844C280.942 199.932 280.945 200.494 281.478 200.635ZM244.846 79.7696C245.298 79.8213 245.75 79.8786 246.202 79.9361C246.685 80.5918 247.136 81.2268 247.602 81.8916C247.822 81.753 248.044 81.6127 248.265 81.4743C245.822 78.8763 246.894 79.0632 246.33 77.2157C245.849 78.0803 245.348 78.9227 244.846 79.7696ZM306.305 117.071C303.614 118.19 303.134 119.17 304.785 119.071C305.52 118.491 306.35 117.991 307.229 117.583C306.931 117.403 306.621 117.232 306.305 117.071ZM145.332 131.88C146.458 133.725 145.531 134.205 147.007 135.827C146.661 134.743 146.347 133.641 146.072 132.554C145.825 132.334 145.576 132.105 145.332 131.88ZM192.661 55.3673C191.689 55.0274 190.053 56.779 187.304 55.7779C186.709 56.2224 186.362 56.63 185.876 57.0686C185.513 56.7074 185.1 56.3509 184.74 55.9981C184.738 55.9984 184.736 55.9987 184.734 55.9989C182.349 56.518 183.999 56.7696 184.009 57.201C184.013 57.3738 182.215 57.4021 182.832 57.6826C183.885 58.1255 187.318 57.2865 187.415 58.1154C186.166 57.9645 183.825 58.5636 184.613 58.9883C185.449 59.4465 187.539 58.1699 189.007 58.5607C186.848 57.4318 191.146 57.4945 191.645 58.5104C194.088 57.6923 191.817 57.3762 189.254 57.597C190.765 56.7278 188.492 57.2941 188.049 56.7077C189.651 56.106 195.308 56.3478 192.661 55.3673ZM274.406 128.617C273.926 126.908 273.384 124.124 272.311 123.262C271.706 122.765 272.451 125.392 271.208 123.882C271.883 125.397 272.21 125.704 272.602 125.251C272.792 125.591 272.979 125.941 273.161 126.294C273.122 126.497 273.085 126.702 273.043 126.901C273.306 127.026 273.571 127.167 273.833 127.297C273.914 127.71 273.989 128.123 274.057 128.541C274.173 128.561 274.285 128.618 274.406 128.617ZM190.678 171.104C190.249 170.911 189.828 170.72 189.401 170.527C189.393 170.663 189.393 170.807 189.391 170.95C189.386 171.06 189.381 171.171 189.376 171.282C189.281 170.836 187.533 169.326 186.515 169.251C186.002 169.213 186.663 170.325 184.803 169.524C186.125 170.155 187.386 170.667 188.695 171.224C188.491 171.356 188.29 171.491 188.086 171.622C188.086 171.623 188.087 171.624 188.087 171.624C188.495 171.871 188.907 172.12 189.315 172.362C189.771 171.944 190.224 171.524 190.678 171.104ZM244.017 144.78C245.109 146.147 245.575 146.5 245.791 145.515C245.79 145.514 245.79 145.512 245.789 145.51C245.252 145.1 244.723 144.671 244.201 144.216C244.137 144.401 244.075 144.587 244.017 144.78ZM138.973 99.6919C141.094 103.385 140.427 95.4895 139.448 96.8265C139.388 96.8744 139.264 99.3894 138.973 99.6919ZM241.947 75.2015C242.604 75.8747 243.251 76.5678 243.887 77.2685C243.976 76.9049 244.059 76.537 244.14 76.1669C243.406 75.8258 242.681 75.5122 241.947 75.2015ZM296.136 123.333C294.928 123.592 292.941 125.486 292.732 126.996C293.226 126.503 293.725 126.027 294.232 125.565C293.464 126.603 292.748 127.665 292.056 128.778C292.796 129.388 293.187 127.829 294.819 126.298C295.076 126.042 297.378 125.226 297.25 124.089C297.22 123.845 295.548 125.467 296.258 123.917C295.741 124.408 295.336 124.872 294.877 125.365C294.674 125.254 294.47 125.142 294.263 125.035C294.876 124.45 295.501 123.884 296.136 123.333ZM270.617 119.138C269.651 117.028 269.177 116.936 268.362 116.8C268.907 117.733 269.448 118.671 269.986 119.608C270.194 119.45 270.406 119.297 270.617 119.138ZM286.955 143.994C286.964 144.053 286.973 144.108 286.983 144.161C287.316 145.659 287.641 144.853 287.955 145.448C289.266 147.681 290.8 149.522 293.489 149.893C293.296 149.96 293.112 150.016 292.914 150.067C292.916 150.068 292.918 150.068 292.921 150.069C293.231 150.168 293.532 150.243 293.824 150.299C296.084 150.758 297.902 150.291 298.821 149.842C299.757 149.379 299.92 149.1 299.652 149.173C299.143 149.351 296.52 150.246 293.923 149.68C293.184 149.553 292.41 149.32 291.665 148.949C291.606 148.687 291.57 148.43 291.542 148.174C289.1 147.021 288.171 144.503 287.412 144.063C287.259 143.968 287.107 143.938 286.955 143.994ZM153.458 72.1961C153.294 72.1772 153.426 70.9476 152.407 72.409C152.228 74.2091 153.446 72.2373 154.173 72.2144C153.902 72.6071 153.631 73.0048 153.378 73.3985C155.612 71.7897 155.775 71.3612 154.438 71.3516C154.344 71.3527 153.622 72.2144 153.458 72.1961ZM141.889 86.4206C143.25 87.5331 144.204 84.1371 143.706 83.9688C143.44 84.3829 143.514 84.8489 143.15 85.238C142.786 85.6345 142.362 85.5544 141.889 86.4206ZM230.156 63.8686C230.071 63.8109 229.416 62.6789 229.266 63.245C229.887 65.0023 232.5 65.5512 232.372 64.9304C231.594 64.4903 231.005 64.3887 230.156 63.867C230.156 63.8675 230.156 63.8681 230.156 63.8686ZM310.922 114.831C310.891 114.732 307.885 114.688 307.537 115.101C307.279 115.466 307.199 115.823 307.049 116.186C308.551 115.438 311.727 115.625 310.916 114.831C310.918 114.831 310.92 114.831 310.922 114.831Z" fill="white"/>
</g>
<path d="M63.6209 103.758C44.2699 118.706 5.29973 149.264 4.22746 151.909L96.1601 201.328C118.904 191.407 166.406 170.013 174.469 163.809C182.532 157.605 183.357 104.848 182.762 79.2445L97.539 35.5063C101.833 48.853 76.7162 86.5684 63.6209 103.758Z" fill="#FF61B0"/>
<path d="M207.807 120.07C212.123 120.125 216.345 120.234 220.66 120.615C221.974 120.724 223.288 120.778 224.507 121.051C225.727 121.323 226.853 121.65 227.885 122.031C229.386 122.575 230.606 123.283 231.825 123.937C232.858 124.427 234.265 125.08 234.922 125.734C235.578 126.387 235.954 127.15 236.61 127.803C237.267 128.511 237.549 129.274 237.83 130.036C238.205 130.907 238.487 131.67 238.581 132.541C238.675 133.304 239.144 133.903 239.613 134.556C240.176 135.482 240.176 136.462 240.27 137.442C240.363 138.368 240.645 139.294 240.645 140.22C240.645 141.418 240.645 142.453 239.988 143.596C238.581 145.72 236.329 147.626 234.265 149.532C231.45 152.037 229.198 154.597 226.102 156.993C224.038 158.572 221.974 160.206 219.722 161.785C217.095 163.582 213.999 165.27 210.528 166.414C205.93 167.993 200.864 169.028 195.703 169.79C192.701 170.226 189.605 170.444 186.509 170.716C183.225 170.989 180.035 171.424 176.751 171.588C170.183 171.969 163.334 172.078 156.767 171.696C154.14 171.533 151.231 171.261 148.792 170.553C147.666 170.226 146.727 169.682 145.883 169.191C143.162 167.612 141.004 165.706 138.752 163.909C135.093 160.968 133.498 157.156 132.279 153.671C131.622 151.656 131.81 149.695 131.34 147.681C130.777 145.502 130.121 143.269 130.215 141.037C130.308 139.784 130.965 138.804 131.528 137.606C131.997 136.734 132.185 135.918 133.123 135.21C134.437 134.175 135.281 133.413 137.345 132.922C145.789 130.853 153.952 128.457 162.396 126.442C166.43 125.462 170.277 124.264 174.405 123.338C175.813 123.011 177.502 122.521 179.003 122.521C181.067 122.466 183.131 122.521 185.195 122.521C187.541 122.521 189.605 122.358 191.95 122.14C193.452 122.031 194.859 122.031 196.36 121.867C197.486 121.759 198.612 121.486 199.738 121.268C200.488 121.105 201.051 120.887 201.802 120.724C202.553 120.56 203.303 120.506 204.054 120.397C204.898 120.343 206.775 120.07 207.807 120.07Z" fill="#FFD700"/>
</svg>
