<svg width="108" height="94" viewBox="0 0 108 94" fill="none" xmlns="http://www.w3.org/2000/svg">
<path d="M58.8357 37.8247L48.6578 38.5799L48.0206 88.7479L58.4995 88.8372L58.8357 37.8247Z" fill="#69C9A0"/>
<path d="M57.0371 54.3934C57.0371 54.3934 56.9679 48.6556 55.1345 43.8288C53.3011 39.0019 51.6795 36.2614 50.9223 35.0553C50.5016 34.417 46.8907 30.0603 46.0201 29.3322C43.8578 27.5235 41.7894 25.6025 39.5611 23.9297C36.3592 21.5378 32.4153 19.8619 28.6016 18.7721C26.4417 18.1587 24.3661 17.6159 22.1399 17.4243C21.3806 17.362 16.0412 17.5257 15.0281 17.8238C14.2167 18.0521 12.0221 18.5074 10.671 19.0956C9.3199 19.6838 7.43878 20.4491 7.43878 20.4491C7.43878 20.4491 8.44297 25.0119 9.25017 27.0713C10.0854 29.1541 11.3699 34.2378 15.6543 39.4441C19.9105 44.627 22.1423 46.9233 23.7711 48.2857C25.7369 49.9299 27.9151 50.7495 30.1771 51.9256C31.596 52.6828 32.9399 53.4728 34.4247 54.0943C35.7222 54.6545 37.0385 55.135 38.3829 55.639C40.7251 56.548 43.5656 56.6329 46.6032 56.5962C49.6408 56.5596 50.9444 56.3135 52.6514 55.9276C54.3584 55.5416 57.0371 54.3934 57.0371 54.3934Z" fill="#FFA8B5"/>
<path d="M98.7903 11.4179C98.7903 11.4179 93.3121 9.58248 88.1154 9.72618C82.9186 9.86988 79.7757 10.5035 78.378 10.8238C77.6318 11.0123 72.2931 13.0018 71.3123 13.5882C68.8761 15.0447 66.3643 16.3748 64.0355 17.939C60.7004 20.1907 57.8001 23.3851 55.5002 26.6499C54.2014 28.5002 52.9975 30.2938 52.0776 32.347C51.7668 33.0482 50.1531 38.179 50.1009 39.241C50.049 40.0881 49.7548 42.3255 49.8663 43.805C49.9778 45.2845 50.0821 47.3266 50.0821 47.3266C50.0821 47.3266 54.7531 47.8838 56.9785 47.7987C59.2355 47.6948 64.4946 48.1581 70.8643 45.8098C77.2023 43.4805 80.1251 42.1195 81.9602 41.0224C84.1748 39.6982 85.6759 37.8988 87.5436 36.1379C88.7338 35.0397 89.9301 34.0238 91.013 32.818C91.9756 31.77 92.8686 30.6777 93.7933 29.5665C95.4337 27.6409 96.4556 24.9683 97.4273 22.0681C98.399 19.1679 98.5971 17.8469 98.7957 16.0961C98.9944 14.3453 98.7903 11.4179 98.7903 11.4179Z" fill="#C075E3"/>
</svg>
