<svg width="46" height="45" viewBox="0 0 46 45" fill="none" xmlns="http://www.w3.org/2000/svg">
<circle cx="22.9824" cy="22.5625" r="22.3809" fill="#D2ECFF" fill-opacity="0.5"/>
<path d="M24.5873 27.341L26.5573 29.311C27.9335 27.9268 28.7103 26.1738 28.8296 24.4151C28.8883 23.5327 28.7798 22.6462 28.4895 21.8096C28.1996 20.9746 27.7234 20.1898 27.0658 19.5345L23.9111 16.3787L21.7242 14.1918L19.3836 11.8512C18.7265 11.1941 17.9424 10.7179 17.1079 10.4281C15.8526 9.99134 14.4883 9.96592 13.1849 10.3009C11.8821 10.6354 10.6302 11.3348 9.59071 12.3732C8.20545 13.7607 7.42412 15.5194 7.30492 17.2854C7.24503 18.1673 7.35407 19.0543 7.64445 19.8899C7.93484 20.7254 8.41166 21.5096 9.06869 22.1655L16.752 29.8488C17.4079 30.5047 18.1921 30.9815 19.0277 31.2714C20.283 31.7075 21.6462 31.7335 22.9495 31.3996C23.3879 31.2866 23.8201 31.1296 24.241 30.9358L22.0541 28.7488C21.8501 28.7912 21.6468 28.8189 21.4462 28.8325C20.9135 28.8681 20.4022 28.8014 19.9429 28.6415C19.4836 28.4805 19.0734 28.2297 18.722 27.88L11.0381 20.1966C10.6867 19.8447 10.4359 19.4356 10.2754 18.9752C10.0353 18.2865 10.0054 17.4781 10.215 16.6623C10.4251 15.8482 10.8709 15.0347 11.5613 14.3454C12.4787 13.4262 13.6211 12.9393 14.6877 12.8686C15.221 12.833 15.7312 12.9008 16.1905 13.0607C16.6509 13.2217 17.0599 13.4726 17.413 13.8223L19.4073 15.8171L21.3778 17.7871L25.0952 21.5056C25.4466 21.857 25.6963 22.2666 25.8573 22.727C26.0974 23.4151 26.1274 24.223 25.9178 25.0394C25.7099 25.8478 25.2681 26.6551 24.5873 27.341Z" fill="#7DC5E4"/>
<path d="M21.3801 17.7865L19.4096 15.8165C18.0345 17.2007 17.2571 18.9537 17.1384 20.7124C17.0797 21.5949 17.1882 22.4813 17.4791 23.318C17.7689 24.153 18.2452 24.9377 18.9022 25.5936L22.0575 28.7488L24.2444 30.9358L26.585 33.2764C27.2409 33.9334 28.0251 34.4091 28.8606 34.6995C30.1159 35.1362 31.4792 35.1616 32.7825 34.8266C34.0864 34.4916 35.3372 33.7927 36.3767 32.7538C37.762 31.3674 38.5433 29.6076 38.662 27.8427C38.7207 26.9602 38.6122 26.0744 38.3218 25.2371C38.032 24.4021 37.5552 23.6179 36.8987 22.962L29.216 15.2798C28.5589 14.6228 27.7759 14.1454 26.9403 13.8556C25.685 13.42 24.3212 13.3935 23.0179 13.7274C22.5801 13.8403 22.1467 13.9985 21.7264 14.1923L23.9133 16.3792C24.1167 16.3369 24.3207 16.308 24.5212 16.2951C25.0534 16.2595 25.5641 16.3273 26.0246 16.4871C26.4839 16.6481 26.8935 16.8979 27.246 17.2487L34.9282 24.932C35.2796 25.284 35.5304 25.693 35.6909 26.1534C35.931 26.8416 35.9609 27.6506 35.7502 28.4658C35.5412 29.281 35.0948 30.0945 34.4062 30.7832C33.4876 31.7018 32.3452 32.1888 31.2797 32.2589C30.7464 32.2945 30.2351 32.2278 29.7764 32.0679C29.316 31.9069 28.9064 31.6572 28.5538 31.3064L26.559 29.3115L24.589 27.3415L20.8716 23.623C20.5202 23.2716 20.2705 22.862 20.1101 22.4016C19.8689 21.7135 19.84 20.9056 20.0496 20.0893C20.257 19.2797 20.6988 18.4718 21.3801 17.7865Z" fill="#69C9A0"/>
</svg>
