<svg width="46" height="45" viewBox="0 0 46 45" fill="none" xmlns="http://www.w3.org/2000/svg">
<circle cx="22.9531" cy="22.5625" r="22.3809" fill="#7DC5E4"/>
<path d="M24.558 27.341L26.528 29.311C27.9042 27.9268 28.6811 26.1738 28.8003 24.4151C28.859 23.5327 28.7505 22.6462 28.4602 21.8096C28.1703 20.9746 27.6941 20.1898 27.0365 19.5345L23.8818 16.3787L21.6949 14.1918L19.3543 11.8512C18.6972 11.1941 17.9131 10.7179 17.0787 10.4281C15.8233 9.99134 14.459 9.96592 13.1556 10.3009C11.8529 10.6354 10.6009 11.3348 9.56141 12.3732C8.17615 13.7607 7.39482 15.5194 7.27562 17.2854C7.21573 18.1673 7.32477 19.0543 7.61516 19.8899C7.90554 20.7254 8.38236 21.5096 9.0394 22.1655L16.7227 29.8488C17.3786 30.5047 18.1628 30.9815 18.9984 31.2714C20.2537 31.7075 21.6169 31.7335 22.9202 31.3996C23.3586 31.2866 23.7908 31.1296 24.2117 30.9358L22.0248 28.7488C21.8209 28.7912 21.6175 28.8189 21.4169 28.8325C20.8842 28.8681 20.3729 28.8014 19.9136 28.6415C19.4543 28.4805 19.0441 28.2297 18.6927 27.88L11.0088 20.1966C10.6574 19.8447 10.4066 19.4356 10.2461 18.9752C10.006 18.2865 9.97609 17.4781 10.1857 16.6623C10.3958 15.8482 10.8416 15.0347 11.532 14.3454C12.4494 13.4262 13.5918 12.9393 14.6584 12.8686C15.1917 12.833 15.7019 12.9008 16.1612 13.0607C16.6216 13.2217 17.0306 13.4726 17.3837 13.8223L19.378 15.8171L21.3486 17.7871L25.0659 21.5056C25.4173 21.857 25.667 22.2666 25.828 22.727C26.0682 23.4151 26.0981 24.223 25.8885 25.0394C25.6806 25.8478 25.2388 26.6551 24.558 27.341Z" fill="#D2ECFF" fill-opacity="0.5"/>
<path d="M21.3508 17.7865L19.3803 15.8165C18.0052 17.2007 17.2278 18.9537 17.1092 20.7124C17.0504 21.5949 17.1589 22.4813 17.4498 23.318C17.7396 24.153 18.2159 24.9377 18.8729 25.5936L22.0282 28.7488L24.2151 30.9358L26.5557 33.2764C27.2116 33.9334 27.9958 34.4091 28.8313 34.6995C30.0866 35.1362 31.4499 35.1616 32.7532 34.8266C34.0571 34.4916 35.3079 33.7927 36.3474 32.7538C37.7327 31.3674 38.514 29.6076 38.6327 27.8427C38.6914 26.9602 38.5829 26.0744 38.2926 25.2371C38.0027 24.4021 37.5259 23.6179 36.8694 22.962L29.1867 15.2798C28.5296 14.6228 27.7466 14.1454 26.911 13.8556C25.6557 13.42 24.2919 13.3935 22.9886 13.7274C22.5508 13.8403 22.1174 13.9985 21.6971 14.1923L23.884 16.3792C24.0874 16.3369 24.2914 16.308 24.4919 16.2951C25.0241 16.2595 25.5348 16.3273 25.9953 16.4871C26.4546 16.6481 26.8642 16.8979 27.2167 17.2487L34.8989 24.932C35.2503 25.284 35.5011 25.693 35.6616 26.1534C35.9017 26.8416 35.9316 27.6506 35.7209 28.4658C35.5119 29.281 35.0656 30.0945 34.3769 30.7832C33.4583 31.7018 32.3159 32.1888 31.2504 32.2589C30.7171 32.2945 30.2058 32.2278 29.7471 32.0679C29.2867 31.9069 28.8771 31.6572 28.5245 31.3064L26.5297 29.3115L24.5597 27.3415L20.8423 23.623C20.4909 23.2716 20.2412 22.862 20.0808 22.4016C19.8396 21.7135 19.8107 20.9056 20.0203 20.0893C20.2277 19.2797 20.6695 18.4718 21.3508 17.7865Z" fill="#D6F6DC" fill-opacity="0.3"/>
</svg>
