<svg width="85" height="80" viewBox="0 0 85 80" fill="none" xmlns="http://www.w3.org/2000/svg">
<path d="M2 29.9819L10.5106 34.4458L45.5745 13.5L50 70.5L13.234 56.7651L2 64.6626V29.9819Z" fill="#FFD700"/>
<path d="M56.8865 23.2346C56.8145 23.2756 56.9979 23.0818 56.8537 23.188C56.8748 23.1569 56.8959 23.1255 56.9168 23.0942C56.9349 23.099 56.9532 23.1037 56.9714 23.1088C56.9434 23.1508 56.9151 23.1927 56.8866 23.2346C56.8865 23.2346 56.8865 23.2346 56.8865 23.2346ZM56.9863 23.4302C56.9856 23.3652 57.0728 23.2482 56.9375 23.3334C56.9405 23.354 56.9432 23.3747 56.946 23.395C56.9005 23.4261 56.8553 23.458 56.8109 23.4901C56.8019 23.5086 56.7928 23.527 56.7835 23.5453C56.7488 23.5457 56.7148 23.5464 56.6811 23.5478C56.698 23.5336 56.7153 23.5193 56.7324 23.5052C56.775 23.4248 56.8209 23.3611 56.8947 23.2678C56.8833 23.271 56.8719 23.2744 56.8606 23.2778C56.9072 23.2395 56.9542 23.2017 57.0016 23.1646C56.9759 23.2124 56.9467 23.2652 56.9222 23.3087C57.0043 23.2819 57.078 23.1638 57.1174 23.1033C57.1713 23.0212 57.1734 23.054 57.2138 22.9935C57.2202 22.9838 57.2078 22.9696 57.2224 22.9523C57.2959 22.8651 57.4497 22.7068 57.3972 22.8368C57.2682 22.9724 57.1853 23.115 57.0528 23.242C57.1184 23.239 57.0642 23.3215 56.9863 23.4302ZM59.1511 20.7357C59.1465 20.8113 59.0563 20.8844 58.9832 20.9219C58.9831 20.9219 58.983 20.922 58.983 20.9221C58.9668 20.9302 58.8998 20.9183 58.9381 20.8771C59.0003 20.8098 59.0969 20.8438 59.0825 20.7614C59.1052 20.7537 59.1277 20.7442 59.1511 20.7357ZM59.278 20.5811C59.3323 20.556 59.3692 20.6289 59.3077 20.667C59.3078 20.667 59.3078 20.667 59.3079 20.6671C59.2823 20.683 59.279 20.5982 59.2512 20.7194C59.2043 20.7028 59.1608 20.6893 59.1156 20.6742C59.1319 20.654 59.1463 20.6352 59.1635 20.6141C59.2054 20.6817 59.2239 20.6065 59.278 20.5811ZM57.4438 22.7491C57.4219 22.7147 57.3974 22.7426 57.3374 22.7717C57.3771 22.7273 57.4169 22.683 57.4565 22.6389C57.4526 22.6761 57.4484 22.7126 57.4438 22.7491ZM56.5116 23.7928C56.5116 23.7928 56.5115 23.7929 56.5114 23.793C56.5012 23.8103 56.4909 23.8276 56.4806 23.8446C56.4669 23.8473 56.4533 23.85 56.4398 23.8529C56.3999 23.9104 56.3592 23.9676 56.3183 24.0241C56.3077 24.0016 56.3921 23.9113 56.4242 23.8471C56.4959 23.7756 56.5392 23.75 56.56 23.7614C56.5438 23.7718 56.5278 23.7821 56.5116 23.7928ZM68.1259 11.9936C68.0989 11.9341 68.0716 11.8746 68.0443 11.8147C68.0035 11.8172 67.9675 11.8242 67.9236 11.8239C68.0546 12.0691 67.8841 11.9094 67.823 11.9978C67.636 12.2693 67.9733 12.485 67.3617 12.2874C67.5419 12.1352 67.2873 12.0083 67.2319 11.7525C67.3665 11.8456 67.5281 12.2059 67.6468 12.1899C67.6388 11.9501 67.6315 11.7198 67.6735 11.5045C67.6497 11.4881 67.6258 11.4717 67.602 11.4554C67.5954 11.4897 67.5891 11.5238 67.5825 11.558C67.5493 11.4808 67.5159 11.4044 67.4819 11.3256C67.5786 11.4788 67.5775 11.3336 67.7104 11.4859C67.7696 11.5536 67.8267 11.6744 67.8686 11.7539C67.9482 11.7365 68.0266 11.7155 68.1065 11.6973C68.1325 11.7741 68.1582 11.8506 68.1838 11.9266C68.1649 11.9492 68.1457 11.9712 68.1268 11.9938C68.1265 11.9938 68.1262 11.9937 68.1259 11.9936ZM77.2453 0.239845C77.4493 0.566923 77.3846 0.72598 77.0414 0.500545C77.1096 0.413777 77.1772 0.326702 77.2453 0.239845ZM56.5779 23.77C56.5681 23.7742 56.5587 23.7782 56.549 23.7825C56.5725 23.7445 56.596 23.706 56.6188 23.6673C56.6337 23.6704 56.6488 23.6734 56.664 23.6764C56.6354 23.7075 56.6065 23.7388 56.5779 23.77ZM58.4345 21.6887C58.4143 21.7135 58.4118 21.715 58.3824 21.7417C58.3825 21.7417 58.3825 21.7417 58.3826 21.7417C58.3709 21.7523 58.2719 21.8392 58.2673 21.8139C58.3104 21.7647 58.357 21.7127 58.4014 21.6626C58.4126 21.671 58.4228 21.6805 58.4345 21.6887ZM57.9118 22.2529C57.9117 22.253 57.9116 22.253 57.9115 22.253C57.8936 22.2688 57.8747 22.2817 57.8576 22.2993C57.8964 22.2132 57.9419 22.239 57.9853 22.1689C58.0285 22.0987 58.0395 22.0396 58.1382 22.042C58.1291 22.0688 58.122 22.1002 58.1134 22.1284C58.0154 22.1915 58.0145 22.234 57.9716 22.3202C57.9516 22.2978 57.9318 22.2755 57.9118 22.2529ZM66.7193 12.6283C66.8025 12.7422 66.6901 12.6641 66.6873 12.6649C66.6872 12.6648 66.6871 12.6646 66.687 12.6645C66.6472 12.8972 66.6498 12.5918 66.5127 12.7119C66.5066 12.6676 66.4988 12.6222 66.4921 12.5775C66.5666 12.5933 66.6486 12.6148 66.7193 12.6283ZM62.4919 17.2591C62.4724 17.2422 62.4527 17.2255 62.4333 17.2086C62.5109 17.1315 62.4565 17.0377 62.5836 17.0363C62.5536 17.1112 62.523 17.1855 62.4921 17.2593C62.492 17.2593 62.4919 17.2592 62.4919 17.2591ZM58.8715 21.3464C58.8066 21.4529 58.7518 21.5249 58.6458 21.5835C58.6457 21.5835 58.6456 21.5836 58.6455 21.5836C58.6393 21.5869 58.643 21.5447 58.6324 21.5465C58.6189 21.5669 58.6063 21.5894 58.593 21.6105C58.5762 21.5984 58.5596 21.5862 58.543 21.5742C58.5929 21.5275 58.6431 21.481 58.6935 21.4344C58.6779 21.4331 58.6622 21.4321 58.6467 21.4309C58.6811 21.383 58.7152 21.3351 58.7493 21.2869C58.7611 21.3274 58.7728 21.3676 58.7844 21.4074C58.8133 21.387 58.8423 21.3665 58.8715 21.3464ZM63.9499 16.143C63.9135 16.1338 63.8991 16.0691 63.8587 16.0709C63.8187 16.0731 63.8239 16.1562 63.7678 16.0819C63.7865 16.0437 63.8052 16.0027 63.8238 15.9633C63.6167 15.9427 63.634 16.146 63.4894 16.0043C63.611 15.9469 63.664 15.8528 63.7048 15.7204C63.8186 15.8413 63.8351 16.031 63.997 16.0839C63.9814 16.1033 63.9656 16.1243 63.9498 16.1425C63.9498 16.1427 63.9499 16.1428 63.9499 16.143ZM55.4467 25.1435C55.3877 25.1904 55.2535 25.299 55.1778 25.3572C55.1589 25.3712 55.0961 25.4182 55.0965 25.4179C55.0975 25.4157 55.1685 25.3527 55.0915 25.4192C55.1171 25.3966 55.1419 25.3746 55.1673 25.352C55.1617 25.355 55.1561 25.358 55.1508 25.3609C55.1206 25.3891 55.0903 25.4171 55.0599 25.4451C55.0583 25.4463 55.0567 25.4476 55.0551 25.4488C55.1637 25.3478 55.0989 25.4067 55.1534 25.3524C55.1017 25.4009 55.0503 25.4504 55 25.5C55.029 25.4714 55.0633 25.4377 55.0889 25.4125C55.0912 25.408 55.031 25.469 55.0205 25.4793C54.9622 25.5381 55.2583 25.2383 55.2769 25.2081C55.23 25.2564 55.1811 25.3074 55.1338 25.3574C55.147 25.3427 55.1603 25.3277 55.1733 25.3128C55.2818 25.2005 55.4045 25.0756 55.535 24.9488C55.5462 24.9367 55.5574 24.9246 55.5684 24.9127C55.5619 24.9131 55.5557 24.9133 55.5494 24.9138C55.566 24.8953 55.5828 24.8766 55.5993 24.858C55.56 24.9221 55.6288 24.8478 55.7225 24.7685C55.6812 24.8192 55.6219 24.8734 55.6331 24.8767C55.7852 24.7132 55.9822 24.5406 56.126 24.3773C56.1615 24.3365 56.144 24.3192 56.2338 24.2298C56.2328 24.2349 56.236 24.2392 56.2367 24.2438C56.3817 24.0789 56.4659 23.9749 56.6368 23.8237C56.6187 23.8242 56.6009 23.8247 56.5831 23.8256C56.5543 23.8651 56.5251 23.9044 56.4959 23.9432C56.4597 23.9535 56.4871 23.9122 56.3886 24.0177C56.3079 24.1041 56.3615 24.0582 56.343 24.0852C56.3179 24.1216 56.2822 24.1399 56.2552 24.1791C56.2342 24.2093 56.2706 24.1903 56.2026 24.2559C56.2174 24.217 56.2316 24.1764 56.2449 24.1356C56.2632 24.1214 56.2816 24.1074 56.3001 24.0934C56.2877 24.1139 56.2754 24.134 56.2628 24.1543C56.313 24.0885 56.3597 24.0257 56.41 23.9561C56.4114 23.9965 56.4637 23.9249 56.4934 23.8873C56.5399 23.8289 56.5115 23.8903 56.5422 23.8523C56.573 23.8145 56.5911 23.7585 56.6542 23.6974C56.6328 23.7424 56.6857 23.7049 56.6871 23.7237C56.6884 23.7426 56.6257 23.8113 56.6984 23.7577C56.8095 23.6262 56.6432 23.7232 56.7162 23.6323C56.802 23.5213 56.8917 23.5641 56.8768 23.6079C56.8649 23.6421 56.7832 23.7193 56.7701 23.7528C56.933 23.6311 56.8953 23.5909 56.9113 23.5582C56.9695 23.4396 56.9893 23.5783 57.0655 23.4451C57.0789 23.4624 57.091 23.4777 57.1037 23.4943C57.1194 23.4739 57.1279 23.4584 57.1479 23.4348C57.0522 23.4678 57.107 23.4173 57.134 23.3902C57.1767 23.3477 57.0957 23.3982 57.1032 23.3832C57.1232 23.3423 57.1755 23.2984 57.1325 23.3144C57.152 23.3074 57.1727 23.2995 57.1928 23.2923C57.2353 23.2353 57.2771 23.0433 57.1837 23.1724C57.1677 23.1357 57.2147 23.1106 57.2459 23.0857C57.2771 23.0607 57.2593 23.0439 57.2862 23.0214C57.3936 22.9324 57.3628 23.0301 57.3708 23.0692C57.4819 22.9209 57.3467 23.0397 57.5171 22.8362C57.5135 22.7964 57.4089 22.8646 57.4655 22.7773C57.5142 22.7995 57.5916 22.771 57.7056 22.6785C57.7066 22.6594 57.7073 22.6402 57.7081 22.6209C57.7987 22.5988 57.8099 22.6676 57.8661 22.5151C57.8965 22.6576 57.8791 22.5632 58.0081 22.5053C58.0345 22.4937 58.0086 22.5555 58.0446 22.5386C58.061 22.531 58.0765 22.4882 58.1171 22.4701C58.1368 22.4612 58.2408 22.4313 58.2712 22.369C58.1916 22.3574 58.2404 22.2301 58.128 22.2687C58.2745 22.136 58.3497 22.0158 58.2581 22.237C58.3075 22.2156 58.3574 22.1946 58.4077 22.174C58.4213 22.1382 58.4349 22.102 58.4482 22.0655C58.4922 22.1021 58.4998 22.1172 58.5914 22.0142C58.5583 22.0656 58.5253 22.1166 58.4914 22.1675C58.498 22.1769 58.5003 22.191 58.5096 22.1975C58.5478 22.1319 58.6907 21.9824 58.7155 21.9363C58.7402 21.8902 58.6674 21.9542 58.6669 21.9333C58.662 21.7584 58.7218 21.8317 58.7675 21.7554C58.7938 21.7101 58.6981 21.7853 58.7132 21.7622C58.769 21.6759 58.8521 21.6932 58.9164 21.6315C58.8646 21.6245 58.8131 21.6174 58.7626 21.6105C58.8291 21.5449 58.9019 21.4705 58.9525 21.3983C58.9723 21.37 58.9319 21.366 58.9342 21.3604C58.9456 21.3328 59.0102 21.2385 59.0182 21.2297C59.0794 21.1642 59.1137 21.1949 59.1757 21.1339C59.1549 21.1613 59.1352 21.187 59.1147 21.2138C59.1569 21.2775 59.1985 21.3409 59.24 21.4039C59.3051 21.3484 59.3704 21.2931 59.436 21.2378C59.3727 21.2628 59.3099 21.2887 59.2477 21.3149C59.2745 21.2036 59.2992 21.0901 59.3217 20.9745C59.3844 20.9652 59.4476 20.9568 59.5116 20.9489C59.6018 20.8437 59.4646 20.7458 59.6132 20.8017C59.633 20.764 59.6527 20.726 59.6723 20.688C59.6832 20.7072 59.6942 20.7263 59.7051 20.7454C59.7304 20.7013 59.7556 20.6571 59.7804 20.6125C59.6902 20.5953 59.5991 20.5758 59.5133 20.5622C59.5669 20.4792 59.6136 20.5233 59.6349 20.5241C59.6912 20.5265 59.702 20.4299 59.7511 20.4361C59.7681 20.4385 59.7333 20.5377 59.7909 20.5492C59.8015 20.5508 60.0216 20.5915 60.0492 20.5047C60.024 20.4817 59.99 20.4566 59.9615 20.4327C60.0224 20.3397 60.1899 20.4288 60.2157 20.475C60.2323 20.4096 60.2907 20.3483 60.259 20.2997C60.2791 20.2779 60.2991 20.2563 60.3191 20.2345C60.3958 20.3548 60.4672 20.2515 60.3864 20.1593C60.3481 20.193 60.3098 20.2266 60.2716 20.2604C60.1951 20.1295 60.0235 20.1765 60.3453 20.0434C60.4438 20.055 60.2611 20.1138 60.3375 20.1194C60.423 20.0817 60.4602 20.0033 60.5582 19.9844C60.6809 19.9614 60.6391 20.0988 60.7467 19.8671C60.212 20.0808 60.6901 19.7078 60.81 19.4763C61.0228 19.5925 61.2304 19.5032 61.3849 19.2489C61.314 19.2206 61.2748 19.31 61.2215 19.3308C61.1684 19.3518 61.1798 19.283 61.1113 19.3069C61.0429 19.3308 60.916 19.3999 60.8374 19.4148C60.8502 19.3484 60.976 19.0835 60.9269 19.2927C61.0681 19.2411 61.1626 19.2451 61.2907 19.1341C61.2489 19.0208 61.1978 18.9749 61.3089 18.8531C61.3506 19.0325 61.5582 18.9754 61.6435 19.119C61.5329 19.1736 61.4696 19.018 61.3696 19.0135C61.3596 19.0133 61.3105 19.1181 61.2907 19.1341C61.4647 19.1528 61.5303 19.1646 61.5972 19.3272C61.6438 19.2638 61.6938 19.2456 61.6427 19.1844C61.6788 19.1976 61.7152 19.211 61.7515 19.2247C61.7694 19.2068 61.7838 19.189 61.8039 19.1712C61.6909 19.1105 61.7961 19.1145 61.7938 19.0402C61.791 18.9655 61.6734 18.9444 61.7721 18.8456C61.7183 18.8576 61.6705 18.87 61.6195 18.8827C61.6609 18.7967 61.7017 18.7097 61.7418 18.6224C61.6426 18.6127 61.4685 18.6324 61.4011 18.5598C61.4559 18.5559 61.5054 18.4044 61.5138 18.3907C61.5471 18.3389 61.5703 18.4086 61.5745 18.4063C61.6611 18.3591 61.6985 18.2862 61.7934 18.3303C61.8105 18.2469 61.8654 18.2258 61.9154 18.1692C61.9429 18.138 61.8845 18.091 61.9111 18.0833C62.0883 18.0322 62.0543 18.2157 62.1342 17.8551C62.0704 17.8446 62.0064 17.8333 61.9431 17.8233C61.9525 17.783 61.9616 17.7426 61.9707 17.702C61.9933 17.6913 62.0159 17.6809 62.0387 17.6703C62.1214 17.7537 62.2041 17.8374 62.2868 17.9208C62.3092 17.9067 62.3316 17.8924 62.3541 17.8784C62.3316 17.9185 62.3089 17.9586 62.2862 17.9985C62.2979 18.0159 62.3098 18.0332 62.3214 18.0506C62.3901 18.0261 62.4591 18.0025 62.5288 17.979C62.5004 17.9489 62.4719 17.9186 62.4435 17.8884C62.5879 17.8231 62.6168 17.847 62.6327 17.6636C62.7098 17.5871 62.6438 17.3961 62.6321 17.2956C62.6647 17.2964 62.6977 17.2974 62.7306 17.2982C62.7148 17.262 62.6991 17.2256 62.683 17.1892C62.7384 17.2041 62.7943 17.219 62.8501 17.2343C62.7788 17.1406 62.7584 17.1084 62.6541 17.162C62.5786 17.0324 62.7545 16.9305 62.8439 16.9067C62.9115 16.8886 62.953 17.0253 62.9687 17.0302C63.022 17.0478 63.0597 16.9439 63.08 16.9346C63.1662 16.8952 63.2047 16.8456 63.2798 16.8073C63.2945 16.7999 63.3819 16.8255 63.3863 16.8247C63.4161 16.8137 63.4938 16.7906 63.5002 16.7857C63.8351 16.5297 63.2721 16.598 63.5651 16.3417C63.5232 16.3162 63.4822 16.2903 63.4406 16.2648C63.4583 16.241 63.4763 16.2172 63.4941 16.1934C63.5478 16.1945 63.5694 16.2797 63.5775 16.1833C63.6165 16.2292 63.6555 16.275 63.6941 16.3208C63.6934 16.2746 63.6919 16.2293 63.6914 16.1823C63.8742 16.292 64.0398 16.1911 64.2074 16.3776C64.2645 16.4412 64.2296 16.5953 64.3443 16.6101C64.3985 16.5831 64.2988 16.5384 64.3119 16.5184C64.4072 16.3745 64.5018 16.483 64.5246 16.4082C64.4887 16.3569 64.4522 16.3042 64.4159 16.2521C64.4473 16.2467 64.4789 16.2414 64.5107 16.236C64.4854 16.2021 64.4602 16.1679 64.4348 16.1339C64.4154 16.1492 64.3938 16.1667 64.3758 16.1806C64.2841 16.0445 64.433 15.7855 64.4553 15.9633C64.464 16.0354 64.3887 16.076 64.5621 16.1762C64.5977 16.1026 64.6399 16.021 64.6777 15.9438C64.7095 15.972 64.7412 16.0004 64.7729 16.0286C64.8321 15.9329 64.6404 15.882 64.5766 15.818C64.5924 15.7983 64.6086 15.7788 64.6244 15.7591C64.6611 15.7808 64.6988 15.8043 64.7351 15.8248C64.6893 15.7776 64.5906 15.6591 64.6833 15.6461C64.7434 15.6384 64.8084 15.8103 64.8569 15.7294C64.7785 15.6606 64.6662 15.5951 64.7134 15.4981C64.7975 15.568 64.8781 15.6287 64.9649 15.7044C64.9805 15.5407 65.1424 15.621 65.1604 15.4286C65.1724 15.3071 65.0601 15.0119 65.415 15.2806C65.4726 15.2405 65.379 15.1779 65.376 15.146C65.3607 14.9944 65.561 15.0932 65.5829 15.0897C65.7217 15.0664 65.7058 14.9779 65.8448 14.9848C65.7814 14.9286 65.7229 14.874 65.6618 14.8186C65.6907 14.9685 65.6551 14.9942 65.551 15.0597C65.5678 15.0196 65.5842 14.9791 65.6008 14.9388C65.5481 14.8954 65.4955 14.852 65.4433 14.8088C65.3699 15.2601 65.1386 14.9064 65.2866 14.6145C65.394 14.684 65.5023 14.753 65.6108 14.8238C65.6011 14.5601 65.7779 14.6173 65.9509 14.5029C65.9714 14.4892 65.98 14.3733 66.0038 14.3437C66.003 14.3438 66.0022 14.3439 66.0014 14.344C65.9299 14.2392 65.8671 14.2215 65.786 14.1458C65.7903 14.121 65.7946 14.0963 65.7988 14.0715C65.8904 14.0984 65.9289 14.1597 65.9769 14.0803C65.9082 14.0288 65.8397 13.9772 65.7713 13.926C65.8363 13.8514 65.9465 13.8703 65.9808 13.7746C65.9934 13.809 66.0061 13.8433 66.0185 13.8776C66.2153 13.7916 66.4663 14.2676 66.3924 13.98C66.4308 14.0048 66.4694 14.0302 66.5079 14.0551C66.4715 14.1068 66.4348 14.1581 66.3985 14.2095C66.4419 14.2547 66.4851 14.2998 66.5287 14.3449C66.5633 14.2853 66.5975 14.2249 66.6317 14.165C66.6271 14.229 66.6219 14.293 66.6167 14.3565C66.6937 14.3244 66.7711 14.2926 66.8487 14.2611C66.6238 14.1521 66.68 14.058 66.5012 13.9075C66.7338 13.9468 66.9957 14.0568 67.0296 13.7912C67.0362 13.7384 66.901 13.6354 67.1308 13.6966C66.9212 13.5279 66.9372 13.3327 66.7422 13.1648C66.7223 13.2036 66.6981 13.2402 66.6809 13.28C66.7749 13.3091 66.9529 13.4764 66.9545 13.5764C66.9561 13.7036 66.7465 13.6773 66.9382 13.8615C66.904 13.8774 66.8753 13.8952 66.8433 13.9119C66.8071 13.8557 66.7702 13.7992 66.7336 13.7429C66.7372 13.885 66.6693 13.904 66.5206 13.822C66.5759 13.7123 66.6308 13.6025 66.6852 13.492C66.6652 13.4963 66.645 13.5007 66.6253 13.5053C66.566 13.3211 66.3892 13.2732 66.4756 13.1265C66.5304 13.1828 66.5855 13.239 66.6406 13.2955C66.5336 13.1037 66.6455 12.9833 66.4374 12.8493C66.5237 12.8655 66.5644 12.8919 66.4898 12.7776C66.7092 12.8119 66.9366 12.9204 67.1052 13.1549C67.1069 13.0879 67.1082 13.0205 67.1092 12.9531C67.0343 12.9179 66.9598 12.8833 66.8855 12.8486C66.9468 12.7904 67.0086 12.7318 67.0696 12.6736C67.2407 12.8333 67.0075 12.8416 67.1887 12.9531C67.2252 12.9756 67.1935 12.8797 67.2185 12.8877C67.4873 12.9783 67.2183 12.9891 67.3824 13.1007C67.5577 13.0104 67.6851 13.3503 67.6726 12.972C67.7259 13.0156 67.7805 13.0598 67.8332 13.1036C67.9007 13.0442 67.7857 12.9394 67.8197 12.8643C67.8409 12.8171 68.0794 12.9698 67.9847 12.7996C67.9666 12.7681 67.6649 12.5934 67.8076 12.4692C67.9185 12.3729 68.0465 12.5871 68.1636 12.5923C68.2818 12.5984 68.1698 12.2301 68.4818 12.4666C68.4156 12.4592 68.3583 12.4765 68.2958 12.4792C68.3354 12.5453 68.3746 12.6103 68.4138 12.6756C68.4214 12.5343 68.5811 12.5401 68.5043 12.3631C68.8015 12.4616 68.7325 12.1704 68.4776 11.9757C68.4772 12.0406 68.6102 12.1026 68.5026 12.0857C68.4459 12.0384 68.3893 11.9916 68.3327 11.9443C68.4157 11.8726 68.4677 11.8173 68.5921 12.0121C68.6079 12.004 68.6236 11.996 68.6395 11.9878C68.5259 11.87 68.4116 11.7519 68.298 11.6339C68.2989 11.6063 68.3 11.5786 68.3009 11.5509C68.342 11.5601 68.3835 11.5697 68.4252 11.5792C68.5885 11.7858 68.5568 11.8279 68.7825 11.8095C68.7189 11.7451 68.6556 11.6808 68.592 11.6165C68.7745 11.5946 68.9339 11.7487 69.0573 11.6154C69.183 11.938 68.731 11.5937 69.1802 12.0422C69.1254 12.0368 69.0702 12.0313 69.0157 12.0263C69.0766 12.0946 69.1375 12.163 69.1984 12.2311C69.304 12.0715 69.0922 11.4191 69.472 11.6214C69.4474 11.5754 69.4275 11.5339 69.4003 11.4849C69.6656 11.5762 69.3052 11.1407 69.6245 11.2836C69.6581 11.299 70.0149 11.6938 70.1213 11.5705C70.069 11.5239 69.9844 11.4423 69.9198 11.3824C69.9756 11.3885 70.0329 11.3962 70.0895 11.4035C70.0483 11.3534 70.0074 11.3031 69.9658 11.2525C69.9046 11.2761 69.8433 11.2994 69.7824 11.3233C69.8028 11.2732 69.8233 11.2228 69.8434 11.1725C69.7219 11.1429 69.7005 11.1629 69.6089 11.0159C69.6418 10.969 69.6743 10.9216 69.7071 10.8746C69.6803 10.8396 69.6532 10.8043 69.6264 10.7693C69.515 10.6966 69.4058 10.6264 69.2938 10.5531C69.4707 10.522 69.5632 10.4337 69.8262 10.5371C69.8708 10.5545 69.9447 10.7245 69.9272 10.5218C69.9934 10.5851 70.0485 10.6352 70.11 10.6935C70.0429 10.3994 70.1326 10.4147 70.3856 10.431C70.184 10.3826 70.3338 10.3957 70.2867 10.3096C70.2541 10.2502 70.2086 10.3091 70.1665 10.2552C70.125 10.2019 69.9985 9.93983 69.9184 9.97563C70.172 10.5135 69.6646 10.0835 69.6723 10.4562C69.6502 10.378 69.628 10.2992 69.6055 10.2204C69.5586 10.2 69.5163 10.1814 69.4665 10.1602C69.6413 10.1314 69.544 10.1332 69.5246 10.03C69.5051 9.92683 69.527 9.79647 69.5592 9.72668C69.5694 9.70474 69.6414 9.81067 69.6847 9.78142C69.7145 9.76179 69.6473 9.55971 69.8182 9.69937C69.9301 9.79093 70.1015 10.1791 70.2496 10.0274C70.3776 10.0989 70.2749 10.14 70.2853 10.1536C70.3903 10.2847 70.5728 10.2828 70.5247 10.1495C70.5202 10.1382 70.3937 10.079 70.3938 10.0058C70.3929 9.83138 70.5493 9.88749 70.7521 9.97793C70.5873 9.80091 70.454 9.52155 70.6073 9.49304C70.5623 9.43876 70.5166 9.38422 70.4712 9.32948C70.4837 9.37017 70.4957 9.41043 70.508 9.45098C70.4619 9.4356 70.4233 9.42967 70.3721 9.40857C70.4192 9.27279 70.1925 9.02021 70.1466 8.88658C69.9883 8.42831 70.5394 9.16125 70.6217 9.2976C70.5582 9.27312 70.4903 9.243 70.4251 9.21644C70.4877 9.27475 70.5508 9.33352 70.6137 9.39243C70.8333 9.16283 71.0417 9.752 71.2698 9.75218C70.9994 9.42303 71.0518 9.30798 71.3524 9.39529C71.3628 9.38205 71.3743 9.36989 71.3843 9.35627C71.3418 9.30978 71.2737 9.24173 71.2475 9.20916C71.3231 9.02779 71.8211 9.47994 71.8788 9.51333C72.1345 9.6609 71.9008 9.34308 71.9144 9.3248C71.9732 9.24935 72.1174 9.35459 72.1296 9.239C72.1421 9.11411 71.9981 9.0641 71.9336 8.95778C71.8824 8.87306 71.9249 8.80709 71.8763 8.71372C71.9255 8.7807 71.9724 8.84744 72.0217 8.91442C72.1729 8.9232 72.31 8.94393 72.4123 8.8845C72.0742 8.36382 72.8821 9.01651 72.2578 8.45516C72.1402 8.49074 72.03 8.46617 71.8397 8.35787C71.8704 8.28805 71.9016 8.21853 71.932 8.14837C72.0115 8.19854 72.0852 8.25148 72.1689 8.30049C72.068 8.12438 72.2139 8.09604 72.207 8.02075C72.1737 7.66719 71.8815 7.47399 72.4314 7.73153C72.3667 7.87762 72.5628 8.0733 72.431 8.15051C72.5928 8.26726 72.6179 8.18611 72.7504 8.38735C72.812 8.24681 72.6287 8.12888 72.5348 7.95626C72.4537 7.80724 72.5149 7.73177 72.3607 7.58525C72.4502 7.66083 72.5356 7.73547 72.6253 7.81114C72.6898 7.74471 72.7551 7.67905 72.8196 7.6126C72.8791 7.72794 72.9384 7.84301 72.9967 7.95711C73.0509 7.96913 73.1051 7.9811 73.1596 7.99335C73.0495 7.56113 73.8367 7.79287 73.0953 7.1402C73.1501 7.03973 73.2473 7.11745 73.4225 7.20815C73.3738 7.15023 73.334 7.10136 73.2793 7.03733C73.3852 7.04304 73.2224 6.80334 73.3184 6.8109C73.4141 6.81821 73.6163 6.99852 73.3014 6.67074C73.4218 6.73386 73.5268 6.78192 73.6412 6.83948C73.5851 6.74899 73.5296 6.65915 73.4733 6.56887C73.5383 6.58024 73.6034 6.59155 73.6688 6.60325C73.5279 6.43362 73.6992 6.39391 73.64 6.24165C73.8521 6.3654 74.3838 6.89949 74.3939 6.70183C74.2584 6.5717 74.1234 6.44196 73.988 6.31194C74.0394 6.31573 74.0909 6.31948 74.1426 6.32329C74.1875 6.36534 74.2323 6.40759 74.2772 6.44966C74.2515 6.44829 74.2261 6.44686 74.2 6.4451C74.284 6.50804 74.3676 6.57098 74.4518 6.63434C74.3796 6.48956 74.3069 6.34412 74.2337 6.19792C74.1016 6.16421 73.9701 6.1311 73.8392 6.09866C73.8022 5.93818 73.9422 5.99225 73.8853 5.82797C74.1163 5.96551 74.2066 6.09034 74.3884 6.31008C74.3887 6.27566 74.3897 6.24158 74.3899 6.20707C74.5799 6.41989 74.7298 6.5111 74.6102 6.59438C74.6745 6.64476 74.7364 6.6924 74.8029 6.74534C74.8109 6.7201 74.8705 6.75811 74.8672 6.71824C74.858 6.60953 74.5415 6.21678 74.4134 6.09549C74.3464 6.03214 74.4219 6.20578 74.3319 6.11178C74.1127 5.88291 74.3237 5.86882 73.9389 5.80867C73.8491 5.61112 73.9682 5.70612 74.0679 5.68709C73.9883 5.61677 73.9094 5.54684 73.83 5.47644C73.8913 5.4826 73.9526 5.48875 74.0142 5.49521C74.3621 5.91973 74.7129 5.86429 74.8666 6.38367C74.939 6.34802 75.0115 6.31278 75.0849 6.27851C75.1136 6.32939 75.1418 6.37981 75.1704 6.43055C75.1242 6.43307 75.0786 6.43588 75.0331 6.43901C75.1352 6.48386 75.2372 6.52854 75.34 6.57403C75.3195 6.41822 75.2068 6.25251 75.0652 6.04903C74.8592 6.00049 75.0576 6.14746 75.0291 6.24163C74.9223 6.13056 74.8193 6.03316 74.7102 5.91333C74.9679 6.10764 74.908 5.84093 74.9206 5.80564C74.9602 5.69925 75.1265 5.97997 75.1807 5.93656C75.2352 5.89335 75.159 5.70192 75.4236 5.88672C75.2973 5.76182 75.1641 5.63504 75.0469 5.52358C75.0818 5.40629 75.2153 5.57021 75.2426 5.58168C75.687 5.77491 75.4888 5.44028 75.6 5.2641C75.5419 5.24251 75.4876 5.22506 75.4319 5.20624C75.2688 4.82632 75.2784 4.98205 75.0959 4.98776C75.2106 4.926 75.029 4.64336 75.0205 4.51026C75.0121 4.37732 75.236 4.38765 75.3687 4.44228C75.4319 4.68409 75.2371 4.68193 75.1806 4.82375C75.3223 4.94292 75.4438 5.04251 75.5992 5.17465C75.3851 4.8399 75.6035 4.98839 75.6603 5.00547C75.8265 5.05505 75.5869 4.81915 75.8783 5.03997C75.7888 4.95333 75.7137 4.88035 75.63 4.79955C75.7865 4.71512 76.0756 4.74441 75.8234 4.33544C76.0453 4.54306 76.2578 4.74474 76.4857 4.95615C76.3757 4.74419 76.5862 4.86737 76.5922 4.78744C76.5977 4.70738 76.406 4.54829 76.3891 4.43082C76.386 4.40911 76.5156 4.49995 76.4575 4.39607C76.4 4.29225 75.8746 3.59626 76.4179 4.11913C76.4635 4.07854 76.5239 4.05733 76.5754 4.02428C76.5643 4.09559 76.5522 4.16578 76.541 4.23657C76.7056 4.33101 76.8702 4.42592 77.0361 4.52163C76.9248 4.40143 76.8114 4.27905 76.7014 4.16039C76.6551 3.92515 76.9143 4.04725 76.9656 3.90772C76.9739 3.88423 76.7043 3.68978 76.8342 3.67826C76.9636 3.66634 77.4533 4.05115 77.407 3.76395C77.4046 3.74939 77.1038 3.37731 77.3806 3.56777C77.4434 3.61103 77.4798 3.72997 77.5721 3.77728C77.6645 3.82459 77.8248 3.78363 77.9995 3.94258C77.9395 3.88468 77.8719 3.82972 77.8089 3.77274C77.7983 3.72783 77.7878 3.68266 77.7779 3.63797C77.8835 3.74039 77.9895 3.84286 78.0946 3.94481C77.9551 3.6077 77.6083 3.15879 77.8881 3.14586C77.6934 3.03345 77.4989 2.92128 77.306 2.81037C77.4018 2.92869 77.4981 3.04759 77.5937 3.16541C77.4832 3.18987 77.3733 3.21521 77.2636 3.24044C77.3729 3.37196 77.4819 3.50276 77.5909 3.63392C77.5571 3.63591 77.524 3.63825 77.4903 3.64031C77.4081 3.54918 77.3264 3.45843 77.2443 3.36702C77.2301 3.42365 77.2161 3.48068 77.2019 3.53694C76.7631 2.95466 77.4464 3.38065 77.0077 2.96051C77.0902 3.01113 77.1733 3.06233 77.2565 3.11376C77.0545 2.8978 77.1465 2.92508 77.2362 2.90066C77.1199 2.81041 77.0037 2.72314 76.8877 2.63111C77.0877 2.72015 77.1706 2.60623 77.2838 2.6045C77.3336 2.60382 77.4621 2.78271 77.4875 2.79316C77.6203 2.84897 77.4249 2.50652 77.4612 2.51198C77.678 2.54486 78.2529 3.00024 78.0144 2.56089C77.8269 2.58061 77.9186 2.55959 77.6936 2.40839C77.623 2.36085 77.3684 2.37394 77.5881 2.25844C77.613 2.24402 78.2741 2.29682 78.4498 2.67243C78.4119 2.53609 78.3489 2.39604 78.3003 2.25727C79.1417 2.87821 78.4165 2.22926 78.0069 1.88374C78.0231 1.8638 78.0362 1.84253 78.0546 1.82367C78.4123 2.26053 78.6403 2.08553 78.5057 1.81416C78.461 1.72362 78.2691 1.65983 78.2606 1.54538C78.3136 1.54797 78.3784 1.55554 78.4364 1.56022C78.1433 1.34444 78.1194 1.16883 77.8582 0.909706C78.1363 1.0908 78.666 1.5464 78.9062 1.83987C78.8385 1.69197 78.7705 1.54345 78.7011 1.39389C78.6205 1.35053 78.5404 1.3081 78.4601 1.26503C78.7544 1.29733 78.5424 0.748426 79.1258 1.27709C79.1392 1.25574 79.1533 1.23472 79.1666 1.21335C79.0778 1.11379 78.9885 1.01417 78.8996 0.914487C79.0588 0.91656 79.2191 0.920153 79.3798 0.923817C79.3693 1.05317 79.4872 1.20438 79.3045 1.16835C79.4415 1.24879 79.58 1.32969 79.7172 1.41142C79.5351 1.00851 79.3546 0.797902 79.6085 0.719328C79.6197 0.715526 79.9955 0.840088 80.0246 0.86057C80.1562 0.952766 80.2881 1.14445 80.3534 1.19221C80.5357 1.32584 81.0878 1.5822 81.1457 1.64578C81.85 2.42234 81.3211 2.88869 81.2135 3.05028C80.0776 4.70618 78.113 5.47183 76.7097 6.84279C76.6955 6.8571 76.7903 6.9395 76.7875 6.94887C76.7688 7.00562 76.5918 6.90283 76.5713 6.91018C76.5276 6.92618 76.6715 7.03723 76.6481 7.05737C76.4032 7.26275 76.1015 7.38594 75.88 7.61507C75.8655 7.62998 75.7841 7.51858 75.7737 7.5597C75.7689 7.58155 75.8733 7.76922 75.843 7.79894C75.7371 7.90283 75.5945 7.93644 75.4775 8.04056C75.4135 8.09754 75.3031 8.16871 75.2324 8.23321C75.2011 8.26169 75.2336 8.35638 75.2038 8.38561C75.1615 8.42705 75.0374 8.28584 75.0221 8.28349C74.9556 8.27352 75.0976 8.4233 75.065 8.44445C75.0041 8.48334 74.904 8.3887 74.8441 8.4555C74.8016 8.5035 74.7659 8.67511 74.7263 8.74963C74.4711 8.76142 74.3346 8.96142 74.2357 9.11162C74.1772 9.2006 74.0395 9.07656 74.0077 9.10487C73.8968 9.20581 73.9748 9.44466 73.872 9.54084C73.7356 9.66845 73.5021 9.669 73.3569 9.7797C73.3334 9.79766 73.4531 9.90789 73.434 9.92945C73.3631 10.0092 73.2791 10.1179 73.1901 10.1632C73.0911 10.2138 72.8986 10.0764 72.853 10.1772C72.8397 10.2069 72.9749 10.3546 72.954 10.4056C72.92 10.4865 72.7274 10.4198 72.6705 10.4431C72.5927 10.4752 72.7871 10.574 72.6875 10.6226C72.6833 10.6246 72.5698 10.5332 72.5575 10.5527C72.5211 10.609 72.6057 10.6844 72.5245 10.7388C72.5162 10.7436 72.3232 10.7304 72.3133 10.7384C72.2549 10.7852 72.1076 10.8498 72.0941 10.8986C72.0452 11.0724 72.2871 11.1389 71.8643 10.9055C71.898 11.0226 71.9326 11.1399 71.9602 11.2558C71.9214 11.1581 71.6907 11.1667 71.6883 11.1812C71.666 11.298 71.8332 11.3823 71.7172 11.4427C71.561 11.0535 71.5582 11.5114 71.5089 11.5648C71.2747 11.8253 70.9625 11.9626 70.6956 12.1929C70.6064 12.2701 70.5411 12.4278 70.444 12.5068C70.4216 12.5255 70.3769 12.4497 70.356 12.465C70.3356 12.4806 70.4263 12.5313 70.4003 12.5465C70.2368 12.6389 70.0016 12.6041 70.0335 12.8705C70.0043 12.8527 69.9864 12.8344 69.951 12.8179C69.9884 13.0472 69.5982 13.0265 69.4989 13.066C69.3425 13.1268 69.4055 13.2453 69.3015 13.2992C69.1636 13.3699 68.8185 13.3381 69.1863 13.5659C69.1177 13.6405 69.0451 13.7057 68.9399 13.7451C68.9281 13.7494 68.861 13.6712 68.856 13.6727C68.8235 13.681 68.8817 13.7524 68.8698 13.7681C68.8374 13.8104 68.8252 13.6763 68.7895 13.7471C68.7708 13.7846 68.8102 13.8559 68.7267 13.9284C68.2223 14.3646 67.6487 14.8123 67.1183 15.2461C67.0819 15.2759 67.1671 15.3175 67.118 15.3514C66.9466 15.4686 66.5669 15.6052 66.4467 15.7338C66.3259 15.8617 66.4409 15.9206 66.3912 16.0266C66.3816 16.047 66.3472 15.988 66.3317 15.9996C66.2275 16.0784 66.0358 16.1047 65.9452 16.1623C65.885 16.2001 65.9622 16.2694 65.9304 16.3056C65.8828 16.3593 65.7535 16.3342 65.7221 16.3569C65.5751 16.4639 65.5377 16.6013 65.3804 16.6812C65.4006 16.6922 65.4181 16.7035 65.4374 16.715C65.2824 16.8409 65.1277 16.9668 64.9728 17.0929C64.9934 17.1002 65.0138 17.1078 65.0346 17.1154C64.8475 17.2579 64.7255 17.0983 65.0429 17.3867C65.0403 17.408 65.0385 17.4316 65.0355 17.4516C64.8854 17.2922 64.6638 17.27 64.4893 17.3492C64.4767 17.3552 64.5554 17.5588 64.3901 17.3799C64.4148 17.4372 64.4334 17.4751 64.4554 17.5247C64.3742 17.4972 64.2938 17.4712 64.2138 17.4449C64.206 17.4661 64.1977 17.4872 64.1899 17.5083C64.2207 17.5435 64.257 17.5764 64.2845 17.6133C64.2166 17.6799 64.0273 17.7666 63.9742 17.8199C63.843 17.9527 63.7806 18.1593 63.5795 18.1636C63.5346 18.2189 63.6485 18.2334 63.5602 18.2938C63.5208 18.2713 63.4832 18.2496 63.4427 18.2266C63.5118 18.4173 63.4155 18.3464 63.2983 18.3959C63.2189 18.4293 63.2112 18.4954 63.1471 18.5386C63.1308 18.5495 63.0949 18.5098 63.0862 18.5196C63.0568 18.5526 63.0126 18.6863 62.9901 18.7078C62.788 18.9044 62.5964 19.0553 62.3787 19.2173C62.3554 19.2348 62.4179 19.2445 62.3936 19.2624C62.3545 19.2912 62.3242 19.221 62.3005 19.2366C62.2347 19.2806 62.2885 19.3352 62.2082 19.4081C61.9434 19.6476 61.5913 19.8753 61.3047 20.1155C61.2958 20.1231 61.3239 20.1502 61.3145 20.1587C61.2525 20.2133 61.1521 20.231 61.0955 20.2804C61.0016 20.3622 60.9669 20.4596 60.8725 20.5388C60.6882 20.6938 60.5066 20.8153 60.3173 20.975C60.1623 21.1056 60.0312 21.2226 59.8618 21.3664C59.1269 21.9995 58.4138 22.6823 57.6404 23.2862C57.6208 23.3016 57.6185 23.2851 57.6131 23.2904C57.5624 23.3414 57.5705 23.3585 57.5234 23.3475C57.459 23.4126 57.4567 23.4512 57.37 23.5208C57.3238 23.558 57.3283 23.5003 57.267 23.58C57.2114 23.6517 57.3026 23.6024 57.081 23.7595C57.0751 23.7636 57.0326 23.7704 56.9941 23.8106C56.9551 23.8507 57.016 23.8201 56.9152 23.9097C56.6774 24.1189 56.3576 24.365 56.0771 24.6042C56.0596 24.6192 55.8921 24.7654 55.8595 24.7947C55.7967 24.8518 55.815 24.845 55.7296 24.9153C55.6635 24.9694 55.6045 25.0096 55.5272 25.0737C55.5182 25.0812 55.5063 25.0968 55.4467 25.1435ZM68.1912 11.54C68.1094 11.4288 67.7786 11.045 67.9709 11.0598C67.9893 11.0615 68.1918 11.3547 68.2783 11.3433C68.2579 11.4188 68.221 11.4752 68.1916 11.5403C68.1915 11.5402 68.1913 11.5401 68.1912 11.54ZM55.0161 25.4821C55.0789 25.4121 55.1421 25.3422 55.2055 25.2727C55.1626 25.3215 55.1193 25.3699 55.0758 25.4177C55.0556 25.439 55.0358 25.4603 55.0161 25.4821ZM62.9343 16.8702C62.9343 16.8702 62.9342 16.8703 62.9341 16.8704C62.9731 16.7697 63.0113 16.6683 63.0488 16.5662C63.0629 16.595 63.0771 16.6239 63.0911 16.6525C63.0716 16.7432 63.0513 16.8332 63.0307 16.9225C62.9985 16.9049 62.9664 16.8875 62.9343 16.8702ZM62.6092 17.6479C62.5426 17.6704 62.515 17.621 62.454 17.609C62.454 17.6091 62.4541 17.6091 62.4542 17.6092C62.4382 17.6062 62.4005 17.6288 62.3878 17.6393C62.4157 17.6587 62.4446 17.6764 62.4727 17.6953C62.4262 17.8567 62.0321 17.8693 62.2014 17.5121C62.2276 17.5461 62.2537 17.5797 62.2797 17.6137C62.3961 17.4684 62.6046 17.3852 62.6092 17.6479ZM69.0477 10.2926C68.9664 9.98798 68.9579 9.90789 69.2185 9.89756C69.2547 9.97202 69.2907 10.0463 69.3264 10.1203C69.2496 10.0882 69.1735 10.0565 69.0971 10.0248C69.097 10.0249 69.097 10.025 69.0969 10.025C69.1505 10.0875 69.204 10.1501 69.2577 10.2123C69.1875 10.2388 69.1174 10.2657 69.0477 10.2926ZM58.3695 21.9576C58.2506 21.901 58.3111 21.9436 58.3762 21.8308C58.3985 21.7916 58.354 21.807 58.3695 21.7843C58.4529 21.6608 58.5239 21.7153 58.5341 21.7717C58.4794 21.834 58.4237 21.8966 58.3697 21.9574C58.3696 21.9575 58.3695 21.9576 58.3695 21.9576ZM55.7577 24.7118C55.7577 24.7119 55.7576 24.712 55.7576 24.712C55.7502 24.71 55.7892 24.6657 55.7391 24.7096C55.7737 24.6726 55.8083 24.6357 55.843 24.5986C55.8333 24.61 55.8234 24.6216 55.8137 24.6329C55.8245 24.6251 55.8354 24.6174 55.8464 24.6097C55.8525 24.5904 55.8675 24.5818 55.9063 24.5455C55.8891 24.549 55.8721 24.5527 55.8553 24.5566C55.8988 24.5129 55.9429 24.4693 55.9871 24.4262C55.9896 24.4276 55.9921 24.4291 55.9946 24.4305C56.0079 24.4109 56.0209 24.3913 56.034 24.3714C56.0408 24.3693 56.0474 24.3673 56.0542 24.3652C56.0714 24.3427 56.0886 24.32 56.1055 24.2973C56.1179 24.2975 56.0784 24.3456 56.1516 24.2636C56.1356 24.2952 56.1191 24.3262 56.102 24.3571C55.9871 24.4752 55.8723 24.5934 55.7577 24.7118ZM59.1243 21.0948C59.0046 21.2318 59.023 21.1779 58.9978 21.0933C59.0396 21.0935 59.0819 21.0939 59.1243 21.0948ZM65.6406 14.3898C65.5825 14.2573 65.5246 14.1246 65.4688 13.9925C65.4872 13.8592 65.7358 13.9559 65.7496 14.0839C65.765 14.2368 65.6038 14.2191 65.6406 14.3898ZM67.2828 12.5755C67.1417 12.6201 67.0971 12.4008 67.0408 12.3026C67.1874 12.3978 67.2113 12.3501 67.281 12.3048C67.2372 12.369 67.3065 12.5685 67.2831 12.5758C67.283 12.5757 67.2829 12.5756 67.2828 12.5755ZM64.0872 15.8245C64.0537 15.8653 64.0403 15.926 63.9807 15.9329C63.9134 15.8455 64.0475 15.8466 63.8872 15.7815C63.908 15.7546 63.9288 15.7278 63.9492 15.7009C63.9826 15.7644 64.0377 15.7791 64.0869 15.8243C64.087 15.8244 64.0871 15.8244 64.0872 15.8245ZM60.2726 19.7568C60.3969 19.735 60.3878 19.6982 60.4195 19.5828C60.4751 19.6177 60.4658 19.7838 60.4279 19.8558C60.376 19.8225 60.3243 19.7894 60.2726 19.7568ZM76.899 1.84166C77.1149 2.09262 77.0187 2.25515 76.8883 2.25325C76.8616 2.2112 76.8343 2.16864 76.807 2.126C76.8378 2.03157 76.8686 1.93659 76.899 1.84166ZM67.3162 12.2853C67.3031 12.2914 67.2915 12.298 67.281 12.3048C67.2888 12.2935 67.3 12.2861 67.3162 12.2853ZM71.8047 8.99866C71.9339 9.189 72.0803 9.15351 71.9051 9.19914C71.9052 9.19929 71.9054 9.19945 71.9055 9.1996C71.79 9.23013 71.7628 9.23516 71.6818 9.28948C71.5036 9.06255 71.5667 8.85113 71.3364 8.99921C71.3338 9.00152 71.4595 9.11735 71.4127 9.131C71.3982 9.13515 71.2695 9.06615 71.1958 9.08329C71.172 9.08883 71.0325 9.16987 71.1795 9.01625C71.0344 8.88006 70.8999 8.72939 70.7629 8.59316C70.7795 8.49239 71.1002 8.72288 71.1545 8.65303C71.2344 8.54861 70.9955 8.21594 71.3857 8.57071C71.4012 8.74114 71.2707 8.87682 71.0329 8.67371C70.9573 8.74807 71.1159 8.94977 71.2653 8.97823C71.4076 8.60264 71.6065 9.17721 71.6871 8.80439C71.6379 8.74974 71.5912 8.6844 71.5409 8.63695C71.7929 8.75058 71.7587 8.9308 71.8047 8.99866ZM70.8747 9.15163C70.8128 9.00021 70.749 8.84721 70.6847 8.69383C70.8589 8.86807 70.9915 9.04979 71.0191 9.21841C70.9708 9.19587 70.9225 9.17363 70.8747 9.15163ZM74.527 5.27674C74.4174 5.15431 74.3279 5.03044 74.2295 4.90697C74.3398 4.9901 74.7489 4.75489 74.6858 5.01962C74.6761 5.05751 74.329 5.00077 74.527 5.27674ZM59.8312 20.3293C59.8875 20.3096 59.944 20.2906 60.0009 20.272C59.9568 20.3441 59.9125 20.4162 59.8677 20.4876C59.856 20.4352 59.8437 20.3825 59.8312 20.3293ZM66.3625 13.8765C66.3442 13.8902 66.3043 13.7439 66.2568 13.8227C66.2442 13.716 66.2371 13.6207 66.2256 13.5172C66.283 13.547 66.3404 13.5766 66.3981 13.6067C66.3803 13.5674 66.3627 13.528 66.3447 13.4885C66.403 13.5596 66.4603 13.6285 66.5191 13.7009C66.3049 13.6417 66.4437 13.8159 66.3625 13.8765ZM64.2831 16.4054C64.1591 16.3093 64.2044 16.1302 64.0774 16.224C64.0258 16.1304 64.0205 16.0578 64.077 15.9851C64.1152 16.0026 64.1532 16.0199 64.1916 16.0376C64.1177 15.9608 64.106 15.9159 64.0872 15.8245C64.0873 15.8245 64.0875 15.8246 64.0876 15.8246C64.1772 15.7178 64.1968 15.7492 64.346 15.8512C64.1729 15.886 64.2848 16.0041 64.2813 16.1424C64.2789 16.2373 64.1947 16.2802 64.2831 16.4054ZM74.1924 5.62868C74.0665 5.35564 73.8161 5.23726 74.1545 5.3147C74.1969 5.374 74.2389 5.43285 74.2812 5.49202C74.2522 5.53811 74.2225 5.58359 74.1924 5.62868ZM63.5531 16.4012C63.7249 16.5561 63.9231 16.6159 63.6649 16.3341C63.5448 16.3489 63.7285 16.4667 63.5531 16.4012ZM67.6179 12.974C67.4764 13.0919 67.2407 12.8071 67.1609 12.6207C67.2167 12.66 67.2727 12.6995 67.3282 12.7389C67.3288 12.6941 67.3292 12.6491 67.3299 12.6043C67.4261 12.7277 67.5223 12.8512 67.6179 12.974ZM61.4702 18.8927C61.4807 18.7049 61.317 18.9535 61.3309 18.8289C61.3412 18.7287 61.5003 18.742 61.5288 18.8256C61.5114 18.8465 61.4914 18.8691 61.4704 18.8925C61.4703 18.8925 61.4702 18.8926 61.4702 18.8927ZM62.0109 18.2859C61.894 18.2016 61.9466 18.2072 61.888 18.3053C61.8711 18.3331 61.6603 18.4779 61.8147 18.483C61.8772 18.4185 61.9448 18.3519 62.0109 18.2859ZM68.831 11.1877C68.9197 11.274 68.9731 11.6012 68.9079 11.5712C68.908 11.5713 68.9082 11.5714 68.9083 11.5716C68.7327 11.4908 68.857 11.3263 68.6181 11.2127C68.9106 11.2278 68.5704 10.8046 69.0635 11.317C69.0041 11.421 68.9394 11.2789 68.831 11.1877ZM79.2436 0.789659C79.2437 0.789595 79.2437 0.789531 79.2438 0.789467C79.2274 0.791456 78.9312 0.646795 78.8638 0.56094C79.0185 0.533465 79.1495 0.696934 78.9918 0.369625C79.0739 0.442452 79.1531 0.513664 79.2362 0.586787C79.2491 0.666963 79.3236 0.778784 79.2436 0.789659ZM75.1211 5.17427C75.1203 5.24045 74.9246 5.16691 74.895 5.21354C74.4965 4.57238 75.1229 4.90878 75.1211 5.17427ZM56.9861 23.4305C56.9862 23.4304 56.9863 23.4303 56.9863 23.4302C56.9863 23.4302 56.9863 23.4303 56.9863 23.4304C56.9863 23.4304 56.9862 23.4305 56.9861 23.4305ZM72.2689 7.50876C72.3026 7.53378 72.3305 7.55688 72.3538 7.57843C72.3559 7.58054 72.3581 7.58266 72.3602 7.58477C72.3303 7.55957 72.3 7.53423 72.2689 7.50876ZM69.0838 10.8716C69.2644 10.9382 69.2714 11.325 69.1628 11.3393C69.1114 11.2793 69.0616 11.2282 69.0075 11.154C69.2015 11.2489 69.0543 10.861 69.0838 10.8716ZM64.867 15.3161C65.0181 15.1668 65.1651 15.7047 64.8855 15.4411C64.8806 15.4357 64.8638 15.3206 64.867 15.3161ZM67.9691 12.1251C68.0669 12.2993 68.1792 12.2579 68.0334 12.358C67.9914 12.3302 67.9493 12.3025 67.9074 12.2749C67.9282 12.2251 67.9486 12.175 67.9691 12.1251ZM66.3268 14.8086C66.4592 14.563 66.5254 14.2677 66.0823 14.0709C66.0785 14.0957 66.0741 14.1203 66.0703 14.145C66.2235 14.3026 66.086 14.2706 66.0045 14.3436C66.0545 14.4157 66.0257 14.4726 66.0692 14.5321C66.1529 14.6469 66.2732 14.6688 66.3268 14.8086ZM58.0499 22.4883C58.0458 22.4781 58.0415 22.468 58.0375 22.4578C58.0592 22.4198 58.0808 22.3815 58.1021 22.343C58.1115 22.362 58.1209 22.3811 58.1302 22.4C58.1035 22.4295 58.0769 22.4588 58.0501 22.4882C58.05 22.4882 58.05 22.4883 58.0499 22.4883ZM71.1589 9.80414C70.761 9.37186 70.7793 9.51021 70.8647 9.83891C70.9622 9.82695 71.0605 9.81521 71.1589 9.80414ZM63.1184 17.6735C63.0554 17.6184 62.9928 17.5635 62.9298 17.5088C62.9267 17.6349 63.0049 17.6891 63.1143 17.7366C63.1158 17.7156 63.117 17.6947 63.1184 17.6735ZM62.1929 18.6093C62.2312 18.5939 62.1751 18.5652 62.1788 18.5633C62.2699 18.5187 62.2997 18.5294 62.3521 18.4154C62.3511 18.3941 62.3494 18.3723 62.348 18.3505C62.1971 18.2765 62.2298 18.3651 62.0835 18.3816C62.1358 18.4046 62.1885 18.428 62.2415 18.4516C62.1876 18.4883 62.1341 18.525 62.0805 18.5619C62.0866 18.5787 62.0925 18.5954 62.0985 18.6121C62.1296 18.611 62.1631 18.6113 62.1929 18.6093ZM57.684 22.8137C57.6384 22.8561 57.5926 22.8987 57.5471 22.9413C57.5552 22.9527 57.5635 22.964 57.5716 22.9753C57.6094 22.922 57.647 22.868 57.684 22.8137ZM71.8763 8.71372C71.857 8.68745 71.8375 8.66112 71.8171 8.63476C71.8453 8.66349 71.8637 8.6895 71.8763 8.71372ZM79.8735 1.18727C79.9897 1.20363 80.0195 1.0895 80.0888 1.04927C79.8472 0.816288 79.7726 1.02011 79.581 0.926209C79.6154 0.976296 79.8245 1.18048 79.8735 1.18727ZM67.4273 13.1423C67.474 13.214 67.5202 13.2852 67.5666 13.3564C67.5295 13.3798 67.492 13.4029 67.4548 13.4265C67.5018 13.4753 67.5493 13.5246 67.5963 13.5734C67.6714 13.3804 67.7783 13.5492 67.9857 13.6238C67.7991 13.463 67.6132 13.3024 67.4273 13.1423ZM56.3157 24.2469C56.4117 24.1492 56.4389 24.1078 56.3679 24.1459C56.3372 24.1836 56.306 24.2212 56.2748 24.2583C56.2884 24.2543 56.3021 24.2505 56.3157 24.2469ZM73.8086 7.11954C73.8086 6.95752 74.1043 7.25053 74.0202 7.00802C73.9227 6.99538 73.825 6.9825 73.7285 6.97041C73.7553 7.02 73.7819 7.07009 73.8086 7.11954ZM70.4215 11.6796C70.5384 11.7282 70.2217 11.2837 70.6064 11.4762C70.5455 11.3695 70.4792 11.2744 70.416 11.1719C70.5188 11.2518 70.6246 11.3315 70.7265 11.4116C70.7266 11.4116 70.7266 11.4115 70.7267 11.4115C70.7879 11.2983 70.6136 11.237 70.5189 11.1384C70.4796 11.0973 70.6141 11.1024 70.5054 11.0341C70.3189 10.9174 70.2711 11.1304 70.0892 10.9493C70.1953 10.9637 70.2369 10.8264 70.0879 10.7303C69.9251 10.6255 70.0633 10.9323 69.8987 10.8751C70.2664 11.0889 70.014 11.1543 69.7757 10.9521C69.8504 11.2133 70.006 11.1975 70.0962 11.0966C70.2061 11.3232 70.2025 11.1478 70.3588 11.2759C70.3819 11.4192 70.0953 11.5456 70.4215 11.6796ZM65.5647 15.6207C65.6234 15.5505 65.7963 15.522 65.7405 15.378C65.7075 15.2936 65.5592 15.347 65.5372 15.1859C65.4828 15.2571 65.5041 15.3071 65.5958 15.3773C65.5909 15.401 65.5855 15.4246 65.5802 15.4479C65.5578 15.4387 65.5353 15.4298 65.5129 15.4206C65.5383 15.461 65.5632 15.5011 65.5886 15.5412C65.5665 15.5494 65.5442 15.5579 65.5218 15.5659C65.5365 15.5842 65.5477 15.6015 65.5647 15.6207ZM76.1515 4.80991C76.1354 4.82956 76.1194 4.84903 76.1038 4.86916C76.1454 4.90684 76.1891 4.94579 76.2321 4.98431C76.2659 5.0149 76.2998 5.04551 76.3336 5.07612C76.2077 4.97093 75.9311 4.86481 76.017 5.02254C76.0598 5.10145 76.3194 5.27887 76.2786 5.39113C76.3245 5.3261 76.3476 5.24642 76.3842 5.17536C76.4442 5.24502 76.5051 5.31515 76.565 5.38472C76.5651 5.38479 76.5652 5.38485 76.5654 5.38492C76.5985 5.38229 76.6326 5.38019 76.6659 5.37764C76.4946 5.18847 76.3233 4.99954 76.1515 4.80991ZM63.2891 17.7394C63.3031 17.6313 63.2978 17.5851 63.1887 17.5337C63.1886 17.5337 63.1885 17.5337 63.1884 17.5337C63.2007 17.5915 63.2127 17.649 63.2244 17.7062C63.2459 17.7172 63.2674 17.7284 63.2891 17.7394ZM72.9695 8.75563C72.4499 7.97653 72.5526 8.66357 72.8289 8.82866C72.8417 8.83641 72.885 8.69546 72.9695 8.75563ZM67.7873 13.0956C67.755 13.1345 67.7221 13.1731 67.6896 13.2121C67.7556 13.2616 67.8217 13.3109 67.8879 13.3606C67.8548 13.2728 67.8211 13.1842 67.7873 13.0956ZM56.7766 23.8647C56.833 23.8461 56.9421 23.7629 56.9701 23.6968C56.9419 23.718 56.9137 23.7392 56.8856 23.7605C56.9319 23.7134 56.9771 23.6663 57.0235 23.6186C56.9981 23.5882 56.9584 23.657 56.8672 23.7289C56.8526 23.7396 56.7395 23.788 56.7341 23.8385C56.7329 23.8485 56.8246 23.7683 56.7769 23.8401C56.805 23.816 56.8281 23.794 56.8543 23.7708C56.8623 23.7752 56.8702 23.7796 56.8784 23.7839C56.8443 23.8108 56.8105 23.8376 56.7766 23.8647ZM65.9406 15.2462C66.0405 15.169 65.9906 15.0973 65.9007 14.9706C65.8712 15.0233 65.8412 15.0757 65.8114 15.1282C65.8544 15.1673 65.8973 15.2068 65.9406 15.2462ZM57.6087 23.1146C57.6636 23.0725 57.621 23.0714 57.6373 23.0487C57.6984 22.9624 57.7658 22.9292 57.8312 22.8489C57.8306 22.8579 57.83 22.8663 57.8294 22.875C57.8295 22.8749 57.8296 22.8749 57.8296 22.8748C58.2077 22.5632 57.9648 22.6825 57.762 22.8924C57.7488 22.8889 57.7358 22.8852 57.7228 22.8818C57.643 22.9867 57.5682 23.0822 57.6087 23.1146ZM71.7969 9.88847C71.8322 9.91585 71.9949 10.1455 71.968 9.99296C71.7302 9.65573 71.7892 9.87785 71.6572 9.78672C71.6471 9.74255 71.638 9.69866 71.6274 9.65449C71.4419 9.67231 71.4951 9.75511 71.7435 9.92949C71.7604 9.9411 71.7618 9.86127 71.7969 9.88847ZM72.6376 9.39305C72.2089 8.93643 72.2765 9.2606 72.4174 9.39218C72.4413 9.38065 72.3809 9.29275 72.4334 9.30767C72.4861 9.32246 72.5944 9.42104 72.6376 9.39305ZM68.7108 12.8169C68.7161 12.8148 68.9015 12.9246 68.7833 12.8139C68.4645 12.5886 68.5417 12.854 68.6516 12.9309C68.6794 12.8965 68.6606 12.8362 68.7112 12.8173C68.711 12.8172 68.7109 12.8171 68.7108 12.8169ZM56.1755 24.4313C56.1781 24.4303 56.2824 24.3462 56.2901 24.3296C56.2949 24.3144 56.2939 24.3034 56.2957 24.2902C56.2475 24.3458 56.1344 24.4428 56.1757 24.4312C56.1756 24.4312 56.1756 24.4313 56.1755 24.4313Z" fill="#7DC5E4"/>
<path d="M59.8865 56.7654C59.8145 56.7244 59.9979 56.9182 59.8537 56.812C59.8748 56.8431 59.8959 56.8745 59.9168 56.9058C59.9349 56.901 59.9532 56.8963 59.9714 56.8912C59.9434 56.8492 59.9151 56.8073 59.8866 56.7654C59.8865 56.7654 59.8865 56.7654 59.8865 56.7654ZM59.9863 56.5698C59.9856 56.6348 60.0728 56.7518 59.9375 56.6666C59.9405 56.646 59.9432 56.6253 59.946 56.605C59.9005 56.5739 59.8553 56.542 59.8109 56.5099C59.8019 56.4914 59.7928 56.473 59.7835 56.4547C59.7488 56.4543 59.7148 56.4536 59.6811 56.4522C59.698 56.4664 59.7153 56.4807 59.7324 56.4948C59.775 56.5752 59.8209 56.6389 59.8947 56.7322C59.8833 56.729 59.8719 56.7256 59.8606 56.7222C59.9072 56.7605 59.9542 56.7983 60.0016 56.8354C59.9759 56.7876 59.9467 56.7348 59.9222 56.6913C60.0043 56.7181 60.078 56.8362 60.1174 56.8967C60.1713 56.9788 60.1734 56.946 60.2138 57.0065C60.2202 57.0162 60.2078 57.0304 60.2224 57.0477C60.2959 57.1349 60.4497 57.2932 60.3972 57.1632C60.2682 57.0276 60.1853 56.885 60.0528 56.758C60.1184 56.761 60.0642 56.6785 59.9863 56.5698ZM62.1511 59.2643C62.1465 59.1887 62.0563 59.1156 61.9832 59.0781C61.9831 59.0781 61.983 59.078 61.983 59.0779C61.9668 59.0698 61.8998 59.0817 61.9381 59.1229C62.0003 59.1902 62.0969 59.1562 62.0825 59.2386C62.1052 59.2463 62.1277 59.2558 62.1511 59.2643ZM62.278 59.4189C62.3323 59.444 62.3692 59.3711 62.3077 59.333C62.3078 59.333 62.3078 59.333 62.3079 59.3329C62.2823 59.317 62.279 59.4018 62.2512 59.2806C62.2043 59.2972 62.1608 59.3107 62.1156 59.3258C62.1319 59.346 62.1463 59.3648 62.1635 59.3859C62.2054 59.3183 62.2239 59.3935 62.278 59.4189ZM60.4438 57.2509C60.4219 57.2853 60.3974 57.2574 60.3374 57.2283C60.3771 57.2727 60.4169 57.317 60.4565 57.3611C60.4526 57.3239 60.4484 57.2874 60.4438 57.2509ZM59.5116 56.2072C59.5116 56.2072 59.5115 56.2071 59.5114 56.207C59.5012 56.1897 59.4909 56.1724 59.4806 56.1554C59.4669 56.1527 59.4533 56.15 59.4398 56.1471C59.3999 56.0896 59.3592 56.0324 59.3183 55.9759C59.3077 55.9984 59.3921 56.0887 59.4242 56.1529C59.4959 56.2244 59.5392 56.25 59.56 56.2386C59.5438 56.2282 59.5278 56.2179 59.5116 56.2072ZM71.1259 68.0064C71.0989 68.0659 71.0716 68.1254 71.0443 68.1853C71.0035 68.1828 70.9675 68.1758 70.9236 68.1761C71.0546 67.9309 70.8841 68.0906 70.823 68.0022C70.636 67.7307 70.9733 67.515 70.3617 67.7126C70.5419 67.8648 70.2873 67.9917 70.2319 68.2475C70.3665 68.1544 70.5281 67.7941 70.6468 67.8101C70.6388 68.0499 70.6315 68.2802 70.6735 68.4955C70.6497 68.5119 70.6258 68.5283 70.602 68.5446C70.5954 68.5103 70.5891 68.4762 70.5825 68.442C70.5493 68.5192 70.5159 68.5956 70.4819 68.6744C70.5786 68.5212 70.5775 68.6664 70.7104 68.5141C70.7696 68.4464 70.8267 68.3256 70.8686 68.2461C70.9482 68.2635 71.0266 68.2845 71.1065 68.3027C71.1325 68.2259 71.1582 68.1494 71.1838 68.0734C71.1649 68.0508 71.1457 68.0288 71.1268 68.0062C71.1265 68.0062 71.1262 68.0063 71.1259 68.0064ZM80.2453 79.7602C80.4493 79.4331 80.3846 79.274 80.0414 79.4995C80.1096 79.5862 80.1772 79.6733 80.2453 79.7602ZM59.5779 56.23C59.5681 56.2258 59.5587 56.2218 59.549 56.2175C59.5725 56.2555 59.596 56.294 59.6188 56.3327C59.6337 56.3296 59.6488 56.3266 59.664 56.3236C59.6354 56.2925 59.6065 56.2612 59.5779 56.23ZM61.4345 58.3113C61.4143 58.2865 61.4118 58.285 61.3824 58.2583C61.3825 58.2583 61.3825 58.2583 61.3826 58.2583C61.3709 58.2477 61.2719 58.1608 61.2673 58.1861C61.3104 58.2353 61.357 58.2873 61.4014 58.3374C61.4126 58.329 61.4228 58.3195 61.4345 58.3113ZM60.9118 57.7471C60.9117 57.747 60.9116 57.747 60.9115 57.747C60.8936 57.7312 60.8747 57.7183 60.8576 57.7007C60.8964 57.7868 60.9419 57.761 60.9853 57.8311C61.0285 57.9013 61.0395 57.9604 61.1382 57.958C61.1291 57.9312 61.122 57.8998 61.1134 57.8716C61.0154 57.8085 61.0145 57.766 60.9716 57.6798C60.9516 57.7022 60.9318 57.7245 60.9118 57.7471ZM69.7193 67.3717C69.8025 67.2578 69.6901 67.3359 69.6873 67.3351C69.6872 67.3352 69.6871 67.3354 69.687 67.3355C69.6472 67.1028 69.6498 67.4082 69.5127 67.2881C69.5066 67.3324 69.4988 67.3778 69.4921 67.4225C69.5666 67.4067 69.6486 67.3852 69.7193 67.3717ZM65.4919 62.7409C65.4724 62.7578 65.4527 62.7745 65.4333 62.7914C65.5109 62.8685 65.4565 62.9623 65.5836 62.9637C65.5536 62.8888 65.523 62.8145 65.4921 62.7407C65.492 62.7407 65.4919 62.7408 65.4919 62.7409ZM61.8715 58.6536C61.8066 58.5471 61.7518 58.4751 61.6458 58.4165C61.6457 58.4165 61.6456 58.4164 61.6455 58.4164C61.6393 58.4131 61.643 58.4553 61.6324 58.4535C61.6189 58.4331 61.6063 58.4106 61.593 58.3895C61.5762 58.4016 61.5596 58.4138 61.543 58.4258C61.5929 58.4725 61.6431 58.519 61.6935 58.5656C61.6779 58.5669 61.6622 58.5679 61.6467 58.5691C61.6811 58.617 61.7152 58.6649 61.7493 58.7131C61.7611 58.6726 61.7728 58.6324 61.7844 58.5926C61.8133 58.613 61.8423 58.6335 61.8715 58.6536ZM66.9499 63.857C66.9135 63.8662 66.8991 63.9309 66.8587 63.9291C66.8187 63.9269 66.8239 63.8438 66.7678 63.9181C66.7865 63.9563 66.8052 63.9973 66.8238 64.0367C66.6167 64.0573 66.634 63.854 66.4894 63.9957C66.611 64.0531 66.664 64.1472 66.7048 64.2796C66.8186 64.1587 66.8351 63.969 66.997 63.9161C66.9814 63.8967 66.9656 63.8757 66.9498 63.8575C66.9498 63.8573 66.9499 63.8572 66.9499 63.857ZM58.4467 54.8565C58.3877 54.8096 58.2535 54.701 58.1778 54.6428C58.1589 54.6288 58.0961 54.5818 58.0965 54.5821C58.0975 54.5843 58.1685 54.6473 58.0915 54.5808C58.1171 54.6034 58.1419 54.6254 58.1673 54.648C58.1617 54.645 58.1561 54.642 58.1508 54.6391C58.1206 54.6109 58.0903 54.5829 58.0599 54.5549C58.0583 54.5537 58.0567 54.5524 58.0551 54.5512C58.1637 54.6522 58.0989 54.5933 58.1534 54.6476C58.1017 54.5991 58.0503 54.5496 58 54.5C58.029 54.5286 58.0633 54.5623 58.0889 54.5875C58.0912 54.592 58.031 54.531 58.0205 54.5207C57.9622 54.4619 58.2583 54.7617 58.2769 54.7919C58.23 54.7436 58.1811 54.6926 58.1338 54.6426C58.147 54.6573 58.1603 54.6723 58.1733 54.6872C58.2818 54.7995 58.4045 54.9244 58.535 55.0512C58.5462 55.0633 58.5574 55.0754 58.5684 55.0873C58.5619 55.0869 58.5557 55.0867 58.5494 55.0862C58.566 55.1047 58.5828 55.1234 58.5993 55.142C58.56 55.0779 58.6288 55.1522 58.7225 55.2315C58.6812 55.1808 58.6219 55.1266 58.6331 55.1233C58.7852 55.2868 58.9822 55.4594 59.126 55.6227C59.1615 55.6635 59.144 55.6808 59.2338 55.7702C59.2328 55.7651 59.236 55.7608 59.2367 55.7562C59.3817 55.9211 59.4659 56.0251 59.6368 56.1763C59.6187 56.1758 59.6009 56.1753 59.5831 56.1744C59.5543 56.1349 59.5251 56.0956 59.4959 56.0568C59.4597 56.0465 59.4871 56.0878 59.3886 55.9823C59.3079 55.8959 59.3615 55.9418 59.343 55.9148C59.3179 55.8784 59.2822 55.8601 59.2552 55.8209C59.2342 55.7907 59.2706 55.8097 59.2026 55.7441C59.2174 55.783 59.2316 55.8236 59.2449 55.8644C59.2632 55.8786 59.2816 55.8926 59.3001 55.9066C59.2877 55.8861 59.2754 55.866 59.2628 55.8457C59.313 55.9115 59.3597 55.9743 59.41 56.0439C59.4114 56.0035 59.4637 56.0751 59.4934 56.1127C59.5399 56.1711 59.5115 56.1097 59.5422 56.1477C59.573 56.1855 59.5911 56.2415 59.6542 56.3026C59.6328 56.2576 59.6857 56.2951 59.6871 56.2763C59.6884 56.2574 59.6257 56.1887 59.6984 56.2423C59.8095 56.3738 59.6432 56.2768 59.7162 56.3677C59.802 56.4787 59.8917 56.4359 59.8768 56.3921C59.8649 56.3579 59.7832 56.2807 59.7701 56.2472C59.933 56.3689 59.8953 56.4091 59.9113 56.4418C59.9695 56.5604 59.9893 56.4217 60.0655 56.5549C60.0789 56.5376 60.091 56.5223 60.1037 56.5057C60.1194 56.5261 60.1279 56.5416 60.1479 56.5652C60.0522 56.5322 60.107 56.5827 60.134 56.6098C60.1767 56.6523 60.0957 56.6018 60.1032 56.6168C60.1232 56.6577 60.1755 56.7016 60.1325 56.6856C60.152 56.6926 60.1727 56.7005 60.1928 56.7077C60.2353 56.7647 60.2771 56.9567 60.1837 56.8276C60.1677 56.8643 60.2147 56.8894 60.2459 56.9143C60.2771 56.9393 60.2593 56.9561 60.2862 56.9786C60.3936 57.0676 60.3628 56.9699 60.3708 56.9308C60.4819 57.0791 60.3467 56.9603 60.5171 57.1638C60.5135 57.2036 60.4089 57.1354 60.4655 57.2227C60.5142 57.2005 60.5916 57.229 60.7056 57.3215C60.7066 57.3406 60.7073 57.3598 60.7081 57.3791C60.7987 57.4012 60.8099 57.3324 60.8661 57.4849C60.8965 57.3424 60.8791 57.4368 61.0081 57.4947C61.0345 57.5063 61.0086 57.4445 61.0446 57.4614C61.061 57.469 61.0765 57.5118 61.1171 57.5299C61.1368 57.5388 61.2408 57.5687 61.2712 57.631C61.1916 57.6426 61.2404 57.7699 61.128 57.7313C61.2745 57.864 61.3497 57.9842 61.2581 57.763C61.3075 57.7844 61.3574 57.8054 61.4077 57.826C61.4213 57.8618 61.4349 57.898 61.4482 57.9345C61.4922 57.8979 61.4998 57.8828 61.5914 57.9858C61.5583 57.9344 61.5253 57.8834 61.4914 57.8325C61.498 57.8231 61.5003 57.809 61.5096 57.8025C61.5478 57.8681 61.6907 58.0176 61.7155 58.0637C61.7402 58.1098 61.6674 58.0458 61.6669 58.0667C61.662 58.2416 61.7218 58.1683 61.7675 58.2446C61.7938 58.2899 61.6981 58.2147 61.7132 58.2378C61.769 58.3241 61.8521 58.3068 61.9164 58.3685C61.8646 58.3755 61.8131 58.3826 61.7626 58.3895C61.8291 58.4551 61.9019 58.5295 61.9525 58.6017C61.9723 58.63 61.9319 58.634 61.9342 58.6396C61.9456 58.6672 62.0102 58.7615 62.0182 58.7703C62.0794 58.8358 62.1137 58.8051 62.1757 58.8661C62.1549 58.8387 62.1352 58.813 62.1147 58.7862C62.1569 58.7225 62.1985 58.6591 62.24 58.5961C62.3051 58.6516 62.3704 58.7069 62.436 58.7622C62.3727 58.7372 62.3099 58.7113 62.2477 58.6851C62.2745 58.7964 62.2992 58.9099 62.3217 59.0255C62.3844 59.0348 62.4476 59.0432 62.5116 59.0511C62.6018 59.1563 62.4646 59.2542 62.6132 59.1983C62.633 59.236 62.6527 59.274 62.6723 59.312C62.6832 59.2928 62.6942 59.2737 62.7051 59.2546C62.7304 59.2987 62.7556 59.3429 62.7804 59.3875C62.6902 59.4047 62.5991 59.4242 62.5133 59.4378C62.5669 59.5208 62.6136 59.4767 62.6349 59.4759C62.6912 59.4735 62.702 59.5701 62.7511 59.5639C62.7681 59.5615 62.7333 59.4623 62.7909 59.4508C62.8015 59.4492 63.0216 59.4085 63.0492 59.4953C63.024 59.5183 62.99 59.5434 62.9615 59.5673C63.0224 59.6603 63.1899 59.5712 63.2157 59.525C63.2323 59.5904 63.2907 59.6517 63.259 59.7003C63.2791 59.7221 63.2991 59.7437 63.3191 59.7655C63.3958 59.6452 63.4672 59.7485 63.3864 59.8407C63.3481 59.807 63.3098 59.7734 63.2716 59.7396C63.1951 59.8705 63.0235 59.8235 63.3453 59.9566C63.4438 59.945 63.2611 59.8862 63.3375 59.8806C63.423 59.9183 63.4602 59.9967 63.5582 60.0156C63.6809 60.0386 63.6391 59.9012 63.7467 60.1329C63.212 59.9192 63.6901 60.2922 63.81 60.5237C64.0228 60.4075 64.2304 60.4968 64.3849 60.7511C64.314 60.7794 64.2748 60.69 64.2215 60.6692C64.1684 60.6482 64.1798 60.717 64.1113 60.6931C64.0429 60.6692 63.916 60.6001 63.8374 60.5852C63.8502 60.6516 63.976 60.9165 63.9269 60.7073C64.0681 60.7589 64.1626 60.7549 64.2907 60.8659C64.2489 60.9792 64.1978 61.0251 64.3089 61.1469C64.3506 60.9675 64.5582 61.0246 64.6435 60.881C64.5329 60.8264 64.4696 60.982 64.3696 60.9865C64.3596 60.9867 64.3105 60.8819 64.2907 60.8659C64.4647 60.8472 64.5303 60.8354 64.5972 60.6728C64.6438 60.7362 64.6938 60.7544 64.6427 60.8156C64.6788 60.8024 64.7152 60.789 64.7515 60.7753C64.7694 60.7932 64.7838 60.811 64.8039 60.8288C64.6909 60.8895 64.7961 60.8855 64.7938 60.9598C64.791 61.0345 64.6734 61.0556 64.7721 61.1544C64.7183 61.1424 64.6705 61.13 64.6195 61.1173C64.6609 61.2033 64.7017 61.2903 64.7418 61.3776C64.6426 61.3873 64.4685 61.3676 64.4011 61.4402C64.4559 61.4441 64.5054 61.5956 64.5138 61.6093C64.5471 61.6611 64.5703 61.5914 64.5745 61.5937C64.6611 61.6409 64.6985 61.7138 64.7934 61.6697C64.8105 61.7531 64.8654 61.7742 64.9154 61.8308C64.9429 61.862 64.8845 61.909 64.9111 61.9167C65.0883 61.9678 65.0543 61.7843 65.1342 62.1449C65.0704 62.1554 65.0064 62.1667 64.9431 62.1767C64.9525 62.217 64.9616 62.2574 64.9707 62.298C64.9933 62.3087 65.0159 62.3191 65.0387 62.3297C65.1214 62.2463 65.2041 62.1626 65.2868 62.0792C65.3092 62.0933 65.3316 62.1076 65.3541 62.1216C65.3316 62.0815 65.3089 62.0414 65.2862 62.0015C65.2979 61.9841 65.3098 61.9668 65.3214 61.9494C65.3901 61.9739 65.4591 61.9975 65.5288 62.021C65.5004 62.0511 65.4719 62.0814 65.4435 62.1116C65.5879 62.1769 65.6168 62.153 65.6327 62.3364C65.7098 62.4129 65.6438 62.6039 65.6321 62.7044C65.6647 62.7036 65.6977 62.7026 65.7306 62.7018C65.7148 62.738 65.6991 62.7744 65.683 62.8108C65.7384 62.7959 65.7943 62.781 65.8501 62.7657C65.7788 62.8594 65.7584 62.8916 65.6541 62.838C65.5786 62.9676 65.7545 63.0695 65.8439 63.0933C65.9115 63.1114 65.953 62.9747 65.9687 62.9698C66.022 62.9522 66.0597 63.0561 66.08 63.0654C66.1662 63.1048 66.2047 63.1544 66.2798 63.1927C66.2945 63.2001 66.3819 63.1745 66.3863 63.1753C66.4161 63.1863 66.4938 63.2094 66.5002 63.2143C66.8351 63.4703 66.2721 63.402 66.5651 63.6583C66.5232 63.6838 66.4822 63.7097 66.4406 63.7352C66.4583 63.759 66.4763 63.7828 66.4941 63.8066C66.5478 63.8055 66.5694 63.7203 66.5775 63.8167C66.6165 63.7708 66.6555 63.725 66.6941 63.6792C66.6934 63.7254 66.6919 63.7707 66.6914 63.8177C66.8742 63.708 67.0398 63.8089 67.2074 63.6224C67.2645 63.5588 67.2296 63.4047 67.3443 63.3899C67.3985 63.4169 67.2988 63.4616 67.3119 63.4816C67.4072 63.6255 67.5018 63.517 67.5246 63.5918C67.4887 63.6431 67.4522 63.6958 67.4159 63.7479C67.4473 63.7533 67.4789 63.7586 67.5107 63.764C67.4854 63.7979 67.4602 63.8321 67.4348 63.8661C67.4154 63.8508 67.3938 63.8333 67.3758 63.8194C67.2841 63.9555 67.433 64.2145 67.4553 64.0367C67.464 63.9646 67.3887 63.924 67.5621 63.8238C67.5977 63.8974 67.6399 63.979 67.6777 64.0562C67.7095 64.028 67.7412 63.9996 67.7729 63.9714C67.8321 64.0671 67.6404 64.118 67.5766 64.182C67.5924 64.2017 67.6086 64.2212 67.6244 64.2409C67.6611 64.2192 67.6988 64.1957 67.7351 64.1752C67.6893 64.2224 67.5906 64.3409 67.6833 64.3539C67.7434 64.3616 67.8084 64.1897 67.8569 64.2706C67.7785 64.3394 67.6662 64.4049 67.7134 64.5019C67.7975 64.432 67.8781 64.3713 67.9649 64.2956C67.9805 64.4593 68.1424 64.379 68.1604 64.5714C68.1724 64.6929 68.0601 64.9881 68.415 64.7194C68.4726 64.7595 68.379 64.8221 68.376 64.854C68.3607 65.0056 68.561 64.9068 68.5829 64.9103C68.7217 64.9336 68.7058 65.0221 68.8448 65.0152C68.7814 65.0714 68.7229 65.126 68.6618 65.1814C68.6907 65.0315 68.6551 65.0058 68.551 64.9403C68.5678 64.9804 68.5842 65.0209 68.6008 65.0612C68.5481 65.1046 68.4955 65.148 68.4433 65.1912C68.3699 64.7399 68.1386 65.0936 68.2866 65.3855C68.394 65.316 68.5023 65.247 68.6108 65.1762C68.6011 65.4399 68.7779 65.3827 68.9509 65.4971C68.9714 65.5108 68.98 65.6267 69.0038 65.6563C69.003 65.6562 69.0022 65.6561 69.0014 65.656C68.9299 65.7608 68.8671 65.7785 68.786 65.8542C68.7903 65.879 68.7946 65.9037 68.7988 65.9285C68.8904 65.9016 68.9289 65.8403 68.9769 65.9197C68.9082 65.9712 68.8397 66.0228 68.7713 66.074C68.8363 66.1486 68.9465 66.1297 68.9808 66.2254C68.9934 66.191 69.0061 66.1567 69.0185 66.1224C69.2153 66.2084 69.4663 65.7324 69.3924 66.02C69.4308 65.9952 69.4694 65.9698 69.5079 65.9449C69.4715 65.8932 69.4348 65.8419 69.3985 65.7905C69.4419 65.7453 69.4851 65.7002 69.5287 65.6551C69.5633 65.7147 69.5975 65.7751 69.6317 65.835C69.6271 65.771 69.6219 65.707 69.6167 65.6435C69.6937 65.6756 69.7711 65.7074 69.8487 65.7389C69.6238 65.8479 69.68 65.942 69.5012 66.0925C69.7338 66.0532 69.9957 65.9432 70.0296 66.2088C70.0362 66.2616 69.901 66.3646 70.1308 66.3034C69.9212 66.4721 69.9372 66.6673 69.7422 66.8352C69.7223 66.7964 69.6981 66.7598 69.6809 66.72C69.7749 66.6909 69.9529 66.5236 69.9545 66.4236C69.9561 66.2964 69.7465 66.3227 69.9382 66.1385C69.904 66.1226 69.8753 66.1048 69.8433 66.0881C69.8071 66.1443 69.7702 66.2008 69.7336 66.2571C69.7372 66.115 69.6693 66.096 69.5206 66.178C69.5759 66.2877 69.6308 66.3975 69.6852 66.508C69.6652 66.5037 69.645 66.4993 69.6253 66.4947C69.566 66.6789 69.3892 66.7268 69.4756 66.8735C69.5304 66.8172 69.5855 66.761 69.6406 66.7045C69.5336 66.8963 69.6455 67.0167 69.4374 67.1507C69.5237 67.1345 69.5644 67.1081 69.4898 67.2224C69.7092 67.1881 69.9366 67.0796 70.1052 66.8451C70.1069 66.9121 70.1082 66.9795 70.1092 67.0469C70.0343 67.0821 69.9598 67.1167 69.8855 67.1514C69.9468 67.2096 70.0086 67.2682 70.0696 67.3264C70.2407 67.1667 70.0075 67.1584 70.1887 67.0469C70.2252 67.0244 70.1935 67.1203 70.2185 67.1123C70.4873 67.0217 70.2183 67.0109 70.3824 66.8993C70.5577 66.9896 70.6851 66.6497 70.6726 67.028C70.7259 66.9844 70.7805 66.9402 70.8332 66.8964C70.9007 66.9558 70.7857 67.0606 70.8197 67.1357C70.8409 67.1829 71.0794 67.0302 70.9847 67.2004C70.9666 67.2319 70.6649 67.4066 70.8076 67.5308C70.9185 67.6271 71.0465 67.4129 71.1636 67.4077C71.2818 67.4016 71.1698 67.7699 71.4818 67.5334C71.4156 67.5408 71.3583 67.5235 71.2958 67.5208C71.3354 67.4547 71.3746 67.3897 71.4138 67.3244C71.4214 67.4657 71.5811 67.4599 71.5043 67.6369C71.8015 67.5384 71.7325 67.8296 71.4776 68.0243C71.4772 67.9594 71.6102 67.8974 71.5026 67.9143C71.4459 67.9616 71.3893 68.0084 71.3327 68.0557C71.4157 68.1274 71.4677 68.1827 71.5921 67.9879C71.6079 67.996 71.6236 68.004 71.6395 68.0122C71.5259 68.13 71.4116 68.2481 71.298 68.3661C71.2989 68.3937 71.3 68.4214 71.3009 68.4491C71.342 68.4399 71.3835 68.4303 71.4252 68.4208C71.5885 68.2142 71.5568 68.1721 71.7825 68.1905C71.7189 68.2549 71.6556 68.3192 71.592 68.3835C71.7745 68.4054 71.9339 68.2513 72.0573 68.3846C72.183 68.062 71.731 68.4063 72.1802 67.9578C72.1254 67.9632 72.0702 67.9687 72.0157 67.9737C72.0766 67.9054 72.1375 67.837 72.1984 67.7689C72.304 67.9285 72.0922 68.5809 72.472 68.3786C72.4474 68.4246 72.4275 68.4661 72.4003 68.5151C72.6656 68.4238 72.3052 68.8593 72.6245 68.7164C72.6581 68.701 73.0149 68.3062 73.1213 68.4295C73.069 68.4761 72.9844 68.5577 72.9198 68.6176C72.9756 68.6115 73.0329 68.6038 73.0895 68.5965C73.0483 68.6466 73.0074 68.6969 72.9658 68.7475C72.9046 68.7239 72.8433 68.7006 72.7824 68.6767C72.8028 68.7268 72.8233 68.7772 72.8434 68.8275C72.7219 68.8571 72.7005 68.8371 72.6089 68.9841C72.6418 69.031 72.6743 69.0784 72.7071 69.1254C72.6803 69.1604 72.6532 69.1957 72.6264 69.2307C72.515 69.3034 72.4058 69.3736 72.2938 69.4469C72.4707 69.478 72.5632 69.5663 72.8262 69.4629C72.8708 69.4455 72.9447 69.2755 72.9272 69.4782C72.9934 69.4149 73.0485 69.3648 73.11 69.3065C73.0429 69.6006 73.1326 69.5853 73.3856 69.569C73.184 69.6174 73.3338 69.6043 73.2867 69.6904C73.2541 69.7498 73.2086 69.6909 73.1665 69.7448C73.125 69.7981 72.9985 70.0602 72.9184 70.0244C73.172 69.4865 72.6646 69.9165 72.6723 69.5438C72.6502 69.622 72.628 69.7008 72.6055 69.7796C72.5586 69.8 72.5163 69.8186 72.4665 69.8398C72.6413 69.8686 72.544 69.8668 72.5246 69.97C72.5051 70.0732 72.527 70.2035 72.5592 70.2733C72.5694 70.2953 72.6414 70.1893 72.6847 70.2186C72.7145 70.2382 72.6473 70.4403 72.8182 70.3006C72.9301 70.2091 73.1015 69.8209 73.2496 69.9726C73.3776 69.9011 73.2749 69.86 73.2853 69.8464C73.3903 69.7153 73.5728 69.7172 73.5247 69.8505C73.5202 69.8618 73.3937 69.921 73.3938 69.9942C73.3929 70.1686 73.5493 70.1125 73.7521 70.0221C73.5873 70.1991 73.454 70.4784 73.6073 70.507C73.5623 70.5612 73.5166 70.6158 73.4712 70.6705C73.4837 70.6298 73.4957 70.5896 73.508 70.549C73.4619 70.5644 73.4233 70.5703 73.3721 70.5914C73.4192 70.7272 73.1925 70.9798 73.1466 71.1134C72.9883 71.5717 73.5394 70.8387 73.6217 70.7024C73.5582 70.7269 73.4903 70.757 73.4251 70.7836C73.4877 70.7252 73.5508 70.6665 73.6137 70.6076C73.8333 70.8372 74.0417 70.248 74.2698 70.2478C73.9994 70.577 74.0518 70.692 74.3524 70.6047C74.3628 70.6179 74.3743 70.6301 74.3843 70.6437C74.3418 70.6902 74.2737 70.7583 74.2475 70.7908C74.3231 70.9722 74.8211 70.5201 74.8788 70.4867C75.1345 70.3391 74.9008 70.6569 74.9144 70.6752C74.9732 70.7506 75.1174 70.6454 75.1296 70.761C75.1421 70.8859 74.9981 70.9359 74.9336 71.0422C74.8824 71.1269 74.9249 71.1929 74.8763 71.2863C74.9255 71.2193 74.9724 71.1526 75.0217 71.0856C75.1729 71.0768 75.31 71.0561 75.4123 71.1155C75.0742 71.6362 75.8821 70.9835 75.2578 71.5448C75.1402 71.5093 75.03 71.5338 74.8397 71.6421C74.8704 71.7119 74.9016 71.7815 74.932 71.8516C75.0115 71.8015 75.0852 71.7485 75.1689 71.6995C75.068 71.8756 75.2139 71.904 75.207 71.9792C75.1737 72.3328 74.8815 72.526 75.4314 72.2685C75.3667 72.1224 75.5628 71.9267 75.431 71.8495C75.5928 71.7327 75.6179 71.8139 75.7504 71.6126C75.812 71.7532 75.6287 71.8711 75.5348 72.0437C75.4537 72.1928 75.5149 72.2682 75.3607 72.4147C75.4502 72.3392 75.5356 72.2645 75.6253 72.1889C75.6898 72.2553 75.7551 72.321 75.8196 72.3874C75.8791 72.2721 75.9384 72.157 75.9967 72.0429C76.0509 72.0309 76.1051 72.0189 76.1596 72.0066C76.0495 72.4389 76.8367 72.2071 76.0953 72.8598C76.1501 72.9603 76.2473 72.8825 76.4225 72.7918C76.3738 72.8498 76.334 72.8986 76.2793 72.9627C76.3852 72.957 76.2224 73.1967 76.3184 73.1891C76.4141 73.1818 76.6163 73.0015 76.3014 73.3293C76.4218 73.2661 76.5268 73.2181 76.6412 73.1605C76.5851 73.251 76.5296 73.3408 76.4733 73.4311C76.5383 73.4198 76.6034 73.4085 76.6688 73.3968C76.5279 73.5664 76.6992 73.6061 76.64 73.7584C76.8521 73.6346 77.3838 73.1005 77.3939 73.2982C77.2584 73.4283 77.1234 73.558 76.988 73.6881C77.0394 73.6843 77.0909 73.6805 77.1426 73.6767C77.1875 73.6347 77.2323 73.5924 77.2772 73.5503C77.2515 73.5517 77.2261 73.5531 77.2 73.5549C77.284 73.492 77.3676 73.429 77.4518 73.3657C77.3796 73.5104 77.3069 73.6559 77.2337 73.8021C77.1016 73.8358 76.9701 73.8689 76.8392 73.9013C76.8022 74.0618 76.9422 74.0078 76.8853 74.172C77.1163 74.0345 77.2066 73.9097 77.3884 73.6899C77.3887 73.7243 77.3897 73.7584 77.3899 73.7929C77.5799 73.5801 77.7298 73.4889 77.6102 73.4056C77.6745 73.3552 77.7364 73.3076 77.8029 73.2547C77.8109 73.2799 77.8705 73.2419 77.8672 73.2818C77.858 73.3905 77.5415 73.7832 77.4134 73.9045C77.3464 73.9679 77.4219 73.7942 77.3319 73.8882C77.1127 74.1171 77.3237 74.1312 76.9389 74.1913C76.8491 74.3889 76.9682 74.2939 77.0679 74.3129C76.9883 74.3832 76.9094 74.4532 76.83 74.5236C76.8913 74.5174 76.9526 74.5112 77.0142 74.5048C77.3621 74.0803 77.7129 74.1357 77.8666 73.6163C77.939 73.652 78.0115 73.6872 78.0849 73.7215C78.1136 73.6706 78.1418 73.6202 78.1704 73.5694C78.1242 73.5669 78.0786 73.5641 78.0331 73.561C78.1352 73.5161 78.2372 73.4715 78.34 73.426C78.3195 73.5818 78.2068 73.7475 78.0652 73.951C77.8592 73.9995 78.0576 73.8525 78.0291 73.7584C77.9223 73.8694 77.8193 73.9668 77.7102 74.0867C77.9679 73.8924 77.908 74.1591 77.9206 74.1944C77.9602 74.3007 78.1265 74.02 78.1807 74.0634C78.2352 74.1067 78.159 74.2981 78.4236 74.1133C78.2973 74.2382 78.1641 74.365 78.0469 74.4764C78.0818 74.5937 78.2153 74.4298 78.2426 74.4183C78.687 74.2251 78.4888 74.5597 78.6 74.7359C78.5419 74.7575 78.4876 74.7749 78.4319 74.7938C78.2688 75.1737 78.2784 75.018 78.0959 75.0122C78.2106 75.074 78.029 75.3566 78.0205 75.4897C78.0121 75.6227 78.236 75.6123 78.3687 75.5577C78.4319 75.3159 78.2371 75.3181 78.1806 75.1762C78.3223 75.0571 78.4438 74.9575 78.5992 74.8254C78.3851 75.1601 78.6035 75.0116 78.6603 74.9945C78.8265 74.9449 78.5869 75.1809 78.8783 74.96C78.7888 75.0467 78.7137 75.1197 78.63 75.2004C78.7865 75.2849 79.0756 75.2556 78.8234 75.6646C79.0453 75.4569 79.2578 75.2553 79.4857 75.0439C79.3757 75.2558 79.5862 75.1326 79.5922 75.2126C79.5977 75.2926 79.406 75.4517 79.3891 75.5692C79.386 75.5909 79.5156 75.5 79.4575 75.6039C79.4 75.7077 78.8746 76.4037 79.4179 75.8809C79.4635 75.9215 79.5239 75.9427 79.5754 75.9757C79.5643 75.9044 79.5522 75.8342 79.541 75.7634C79.7056 75.669 79.8702 75.5741 80.0361 75.4784C79.9248 75.5986 79.8114 75.721 79.7014 75.8396C79.6551 76.0749 79.9143 75.9527 79.9656 76.0923C79.9739 76.1158 79.7043 76.3102 79.8342 76.3217C79.9636 76.3337 80.4533 75.9488 80.407 76.236C80.4046 76.2506 80.1038 76.6227 80.3806 76.4322C80.4434 76.389 80.4798 76.27 80.5721 76.2227C80.6645 76.1754 80.8248 76.2164 80.9995 76.0574C80.9395 76.1153 80.8719 76.1703 80.8089 76.2273C80.7983 76.2722 80.7878 76.3173 80.7779 76.362C80.8835 76.2596 80.9895 76.1571 81.0946 76.0552C80.9551 76.3923 80.6083 76.8412 80.8881 76.8541C80.6934 76.9666 80.4989 77.0787 80.306 77.1896C80.4018 77.0713 80.4981 76.9524 80.5937 76.8346C80.4832 76.8101 80.3733 76.7848 80.2636 76.7596C80.3729 76.628 80.4819 76.4972 80.5909 76.3661C80.5571 76.3641 80.524 76.3618 80.4903 76.3597C80.4081 76.4508 80.3264 76.5416 80.2443 76.633C80.2301 76.5763 80.2161 76.5193 80.2019 76.4631C79.7631 77.0453 80.4464 76.6194 80.0077 77.0395C80.0902 76.9889 80.1733 76.9377 80.2565 76.8862C80.0545 77.1022 80.1465 77.0749 80.2362 77.0993C80.1199 77.1896 80.0037 77.2769 79.8877 77.3689C80.0877 77.2798 80.1706 77.3938 80.2838 77.3955C80.3336 77.3962 80.4621 77.2173 80.4875 77.2068C80.6203 77.151 80.4249 77.4935 80.4612 77.488C80.678 77.4551 81.2529 76.9998 81.0144 77.4391C80.8269 77.4194 80.9186 77.4404 80.6936 77.5916C80.623 77.6391 80.3684 77.6261 80.5881 77.7416C80.613 77.756 81.2741 77.7032 81.4498 77.3276C81.4119 77.4639 81.3489 77.604 81.3003 77.7427C82.1417 77.1218 81.4165 77.7707 81.0069 78.1163C81.0231 78.1362 81.0362 78.1575 81.0546 78.1763C81.4123 77.7395 81.6403 77.9145 81.5057 78.1858C81.461 78.2764 81.2691 78.3402 81.2606 78.4546C81.3136 78.452 81.3784 78.4445 81.4364 78.4398C81.1433 78.6556 81.1194 78.8312 80.8582 79.0903C81.1363 78.9092 81.666 78.4536 81.9062 78.1601C81.8385 78.308 81.7705 78.4566 81.7011 78.6061C81.6205 78.6495 81.5404 78.6919 81.4601 78.735C81.7544 78.7027 81.5424 79.2516 82.1258 78.7229C82.1392 78.7443 82.1533 78.7653 82.1666 78.7866C82.0778 78.8862 81.9885 78.9858 81.8996 79.0855C82.0588 79.0834 82.2191 79.0798 82.3798 79.0762C82.3693 78.9468 82.4872 78.7956 82.3045 78.8317C82.4415 78.7512 82.58 78.6703 82.7172 78.5886C82.5351 78.9915 82.3546 79.2021 82.6085 79.2807C82.6197 79.2845 82.9955 79.1599 83.0246 79.1394C83.1562 79.0472 83.2881 78.8556 83.3534 78.8078C83.5357 78.6742 84.0878 78.4178 84.1457 78.3542C84.85 77.5777 84.3211 77.1113 84.2135 76.9497C83.0776 75.2938 81.113 74.5282 79.7097 73.1572C79.6955 73.1429 79.7903 73.0605 79.7875 73.0511C79.7688 72.9944 79.5918 73.0972 79.5713 73.0898C79.5276 73.0738 79.6715 72.9628 79.6481 72.9426C79.4032 72.7372 79.1015 72.6141 78.88 72.3849C78.8655 72.37 78.7841 72.4814 78.7737 72.4403C78.7689 72.4184 78.8733 72.2308 78.843 72.2011C78.7371 72.0972 78.5945 72.0636 78.4775 71.9594C78.4135 71.9025 78.3031 71.8313 78.2324 71.7668C78.2011 71.7383 78.2336 71.6436 78.2038 71.6144C78.1615 71.573 78.0374 71.7142 78.0221 71.7165C77.9556 71.7265 78.0976 71.5767 78.065 71.5555C78.0041 71.5167 77.904 71.6113 77.8441 71.5445C77.8016 71.4965 77.7659 71.3249 77.7263 71.2504C77.4711 71.2386 77.3346 71.0386 77.2357 70.8884C77.1772 70.7994 77.0395 70.9234 77.0077 70.8951C76.8968 70.7942 76.9748 70.5553 76.872 70.4592C76.7356 70.3315 76.5021 70.331 76.3569 70.2203C76.3334 70.2023 76.4531 70.0921 76.434 70.0705C76.3631 69.9908 76.2791 69.8821 76.1901 69.8368C76.0911 69.7862 75.8986 69.9236 75.853 69.8228C75.8397 69.7931 75.9749 69.6454 75.954 69.5944C75.92 69.5135 75.7274 69.5802 75.6705 69.5569C75.5927 69.5248 75.7871 69.426 75.6875 69.3774C75.6833 69.3754 75.5698 69.4668 75.5575 69.4473C75.5211 69.391 75.6057 69.3156 75.5245 69.2612C75.5162 69.2564 75.3232 69.2696 75.3133 69.2616C75.2549 69.2148 75.1076 69.1502 75.0941 69.1014C75.0452 68.9276 75.2871 68.8611 74.8643 69.0945C74.898 68.9774 74.9326 68.8601 74.9602 68.7442C74.9214 68.8419 74.6907 68.8333 74.6883 68.8188C74.666 68.702 74.8332 68.6177 74.7172 68.5573C74.561 68.9465 74.5582 68.4886 74.5089 68.4352C74.2747 68.1747 73.9625 68.0374 73.6956 67.8071C73.6064 67.7299 73.5411 67.5722 73.444 67.4932C73.4216 67.4745 73.3769 67.5503 73.356 67.535C73.3356 67.5194 73.4263 67.4687 73.4003 67.4535C73.2368 67.3611 73.0016 67.3959 73.0335 67.1295C73.0043 67.1473 72.9864 67.1656 72.951 67.1821C72.9884 66.9528 72.5982 66.9735 72.4989 66.934C72.3425 66.8732 72.4055 66.7547 72.3015 66.7008C72.1636 66.6301 71.8185 66.6619 72.1863 66.4341C72.1177 66.3595 72.0451 66.2943 71.9399 66.2549C71.9281 66.2506 71.861 66.3288 71.856 66.3273C71.8235 66.319 71.8817 66.2476 71.8698 66.2319C71.8374 66.1896 71.8252 66.3237 71.7895 66.2529C71.7708 66.2154 71.8102 66.1441 71.7267 66.0716C71.2223 65.6354 70.6487 65.1877 70.1183 64.7539C70.0819 64.7241 70.1671 64.6825 70.118 64.6486C69.9466 64.5314 69.5669 64.3948 69.4467 64.2662C69.3259 64.1383 69.4409 64.0794 69.3912 63.9734C69.3816 63.953 69.3472 64.012 69.3317 64.0004C69.2275 63.9216 69.0358 63.8953 68.9452 63.8377C68.885 63.7999 68.9622 63.7306 68.9304 63.6944C68.8828 63.6407 68.7535 63.6658 68.7221 63.6431C68.5751 63.5361 68.5377 63.3987 68.3804 63.3188C68.4006 63.3078 68.4181 63.2965 68.4374 63.285C68.2824 63.1591 68.1277 63.0332 67.9728 62.9071C67.9934 62.8998 68.0138 62.8922 68.0346 62.8846C67.8475 62.7421 67.7255 62.9017 68.0429 62.6133C68.0403 62.592 68.0385 62.5684 68.0355 62.5484C67.8854 62.7078 67.6638 62.73 67.4893 62.6508C67.4767 62.6448 67.5554 62.4412 67.3901 62.6201C67.4148 62.5628 67.4334 62.5249 67.4554 62.4753C67.3742 62.5028 67.2938 62.5288 67.2138 62.5551C67.206 62.5339 67.1977 62.5128 67.1899 62.4917C67.2207 62.4565 67.257 62.4236 67.2845 62.3867C67.2166 62.3201 67.0273 62.2334 66.9742 62.1801C66.843 62.0473 66.7806 61.8407 66.5795 61.8364C66.5346 61.7811 66.6485 61.7666 66.5602 61.7062C66.5208 61.7287 66.4832 61.7504 66.4427 61.7734C66.5118 61.5827 66.4155 61.6536 66.2983 61.6041C66.2189 61.5707 66.2112 61.5046 66.1471 61.4614C66.1308 61.4505 66.0949 61.4902 66.0862 61.4804C66.0568 61.4474 66.0126 61.3137 65.9901 61.2922C65.788 61.0956 65.5964 60.9447 65.3787 60.7827C65.3554 60.7652 65.4179 60.7555 65.3936 60.7376C65.3545 60.7088 65.3242 60.779 65.3005 60.7634C65.2347 60.7194 65.2885 60.6648 65.2082 60.5919C64.9434 60.3524 64.5913 60.1247 64.3047 59.8845C64.2958 59.8769 64.3239 59.8498 64.3145 59.8413C64.2525 59.7867 64.1521 59.769 64.0955 59.7196C64.0016 59.6378 63.9669 59.5404 63.8725 59.4612C63.6882 59.3062 63.5066 59.1847 63.3173 59.025C63.1623 58.8944 63.0312 58.7774 62.8618 58.6336C62.1269 58.0005 61.4138 57.3177 60.6404 56.7138C60.6208 56.6984 60.6185 56.7149 60.6131 56.7096C60.5624 56.6586 60.5705 56.6415 60.5234 56.6525C60.459 56.5874 60.4567 56.5488 60.37 56.4792C60.3238 56.442 60.3283 56.4997 60.267 56.42C60.2114 56.3483 60.3026 56.3976 60.081 56.2405C60.0751 56.2364 60.0326 56.2296 59.9941 56.1894C59.9551 56.1493 60.016 56.1799 59.9152 56.0903C59.6774 55.8811 59.3576 55.635 59.0771 55.3958C59.0596 55.3808 58.8921 55.2346 58.8595 55.2053C58.7967 55.1482 58.815 55.155 58.7296 55.0847C58.6635 55.0306 58.6045 54.9904 58.5272 54.9263C58.5182 54.9188 58.5063 54.9032 58.4467 54.8565ZM71.1912 68.46C71.1094 68.5712 70.7786 68.955 70.9709 68.9402C70.9893 68.9385 71.1918 68.6453 71.2783 68.6567C71.2579 68.5812 71.221 68.5248 71.1916 68.4597C71.1915 68.4598 71.1913 68.4599 71.1912 68.46ZM58.0161 54.5179C58.0789 54.5879 58.1421 54.6578 58.2055 54.7273C58.1626 54.6785 58.1193 54.6301 58.0758 54.5823C58.0556 54.561 58.0358 54.5397 58.0161 54.5179ZM65.9343 63.1298C65.9343 63.1298 65.9342 63.1297 65.9341 63.1296C65.9731 63.2303 66.0113 63.3317 66.0488 63.4338C66.0629 63.405 66.0771 63.3761 66.0911 63.3475C66.0716 63.2568 66.0513 63.1668 66.0307 63.0775C65.9985 63.0951 65.9664 63.1125 65.9343 63.1298ZM65.6092 62.3521C65.5426 62.3296 65.515 62.379 65.454 62.391C65.454 62.3909 65.4541 62.3909 65.4542 62.3908C65.4382 62.3938 65.4005 62.3712 65.3878 62.3607C65.4157 62.3413 65.4446 62.3236 65.4727 62.3047C65.4262 62.1433 65.0321 62.1307 65.2014 62.4879C65.2276 62.4539 65.2537 62.4203 65.2797 62.3863C65.3961 62.5316 65.6046 62.6148 65.6092 62.3521ZM72.0477 69.7074C71.9664 70.012 71.9579 70.0921 72.2185 70.1024C72.2547 70.028 72.2907 69.9537 72.3264 69.8797C72.2496 69.9118 72.1735 69.9435 72.0971 69.9752C72.097 69.9751 72.097 69.975 72.0969 69.975C72.1505 69.9125 72.204 69.8499 72.2577 69.7877C72.1875 69.7612 72.1174 69.7343 72.0477 69.7074ZM61.3695 58.0424C61.2506 58.099 61.3111 58.0564 61.3762 58.1692C61.3985 58.2084 61.354 58.193 61.3695 58.2157C61.4529 58.3392 61.5239 58.2847 61.5341 58.2283C61.4794 58.166 61.4237 58.1034 61.3697 58.0426C61.3696 58.0425 61.3695 58.0424 61.3695 58.0424ZM58.7577 55.2882C58.7577 55.2881 58.7576 55.288 58.7576 55.288C58.7502 55.29 58.7892 55.3343 58.7391 55.2904C58.7737 55.3274 58.8083 55.3643 58.843 55.4014C58.8333 55.39 58.8234 55.3784 58.8137 55.3671C58.8245 55.3749 58.8354 55.3826 58.8464 55.3903C58.8525 55.4096 58.8675 55.4182 58.9063 55.4545C58.8891 55.451 58.8721 55.4473 58.8553 55.4434C58.8988 55.4871 58.9429 55.5307 58.9871 55.5738C58.9896 55.5724 58.9921 55.5709 58.9946 55.5695C59.0079 55.5891 59.0209 55.6087 59.034 55.6286C59.0408 55.6307 59.0474 55.6327 59.0542 55.6348C59.0714 55.6573 59.0886 55.68 59.1055 55.7027C59.1179 55.7025 59.0784 55.6544 59.1516 55.7364C59.1356 55.7048 59.1191 55.6738 59.102 55.6429C58.9871 55.5248 58.8723 55.4066 58.7577 55.2882ZM62.1243 58.9052C62.0046 58.7682 62.023 58.8221 61.9978 58.9067C62.0396 58.9065 62.0819 58.9061 62.1243 58.9052ZM68.6406 65.6102C68.5825 65.7427 68.5246 65.8754 68.4688 66.0075C68.4872 66.1408 68.7358 66.0441 68.7496 65.9161C68.765 65.7632 68.6038 65.7809 68.6406 65.6102ZM70.2828 67.4245C70.1417 67.3799 70.0971 67.5992 70.0408 67.6974C70.1874 67.6022 70.2113 67.6499 70.281 67.6952C70.2372 67.631 70.3065 67.4315 70.2831 67.4242C70.283 67.4243 70.2829 67.4244 70.2828 67.4245ZM67.0872 64.1755C67.0537 64.1347 67.0403 64.074 66.9807 64.0671C66.9134 64.1545 67.0475 64.1534 66.8872 64.2185C66.908 64.2454 66.9288 64.2722 66.9492 64.2991C66.9826 64.2356 67.0377 64.2209 67.0869 64.1757C67.087 64.1756 67.0871 64.1756 67.0872 64.1755ZM63.2726 60.2432C63.3969 60.265 63.3878 60.3018 63.4195 60.4172C63.4751 60.3823 63.4658 60.2162 63.4279 60.1442C63.376 60.1775 63.3243 60.2106 63.2726 60.2432ZM79.899 78.1583C80.1149 77.9074 80.0187 77.7448 79.8883 77.7467C79.8616 77.7888 79.8343 77.8314 79.807 77.874C79.8378 77.9684 79.8686 78.0634 79.899 78.1583ZM70.3162 67.7147C70.3031 67.7086 70.2915 67.702 70.281 67.6952C70.2888 67.7065 70.3 67.7139 70.3162 67.7147ZM74.8047 71.0013C74.9339 70.811 75.0803 70.8465 74.9051 70.8009C74.9052 70.8007 74.9054 70.8006 74.9055 70.8004C74.79 70.7699 74.7628 70.7648 74.6818 70.7105C74.5036 70.9374 74.5667 71.1489 74.3364 71.0008C74.3338 70.9985 74.4595 70.8827 74.4127 70.869C74.3982 70.8648 74.2695 70.9339 74.1958 70.9167C74.172 70.9112 74.0325 70.8301 74.1795 70.9838C74.0344 71.1199 73.8999 71.2706 73.7629 71.4068C73.7795 71.5076 74.1002 71.2771 74.1545 71.347C74.2344 71.4514 73.9955 71.7841 74.3857 71.4293C74.4012 71.2589 74.2707 71.1232 74.0329 71.3263C73.9573 71.2519 74.1159 71.0502 74.2653 71.0218C74.4076 71.3974 74.6065 70.8228 74.6871 71.1956C74.6379 71.2503 74.5912 71.3156 74.5409 71.363C74.7929 71.2494 74.7587 71.0692 74.8047 71.0013ZM73.8747 70.8484C73.8128 70.9998 73.749 71.1528 73.6847 71.3062C73.8589 71.1319 73.9915 70.9502 74.0191 70.7816C73.9708 70.8041 73.9225 70.8264 73.8747 70.8484ZM77.527 74.7233C77.4174 74.8457 77.3279 74.9696 77.2295 75.093C77.3398 75.0099 77.7489 75.2451 77.6858 74.9804C77.6761 74.9425 77.329 74.9992 77.527 74.7233ZM62.8312 59.6707C62.8875 59.6904 62.944 59.7094 63.0009 59.728C62.9568 59.6559 62.9125 59.5838 62.8677 59.5124C62.856 59.5648 62.8437 59.6175 62.8312 59.6707ZM69.3625 66.1235C69.3442 66.1098 69.3043 66.2561 69.2568 66.1773C69.2442 66.284 69.2371 66.3793 69.2256 66.4828C69.283 66.453 69.3404 66.4234 69.3981 66.3933C69.3803 66.4326 69.3627 66.472 69.3447 66.5115C69.403 66.4404 69.4603 66.3715 69.5191 66.2991C69.3049 66.3583 69.4437 66.1841 69.3625 66.1235ZM67.2831 63.5946C67.1591 63.6907 67.2044 63.8698 67.0774 63.776C67.0258 63.8696 67.0205 63.9422 67.077 64.0149C67.1152 63.9974 67.1532 63.9801 67.1916 63.9624C67.1177 64.0392 67.106 64.0841 67.0872 64.1755C67.0873 64.1755 67.0875 64.1754 67.0876 64.1754C67.1772 64.2822 67.1968 64.2508 67.346 64.1488C67.1729 64.114 67.2848 63.9959 67.2813 63.8576C67.2789 63.7627 67.1947 63.7198 67.2831 63.5946ZM77.1924 74.3713C77.0665 74.6444 76.8161 74.7627 77.1545 74.6853C77.1969 74.626 77.2389 74.5671 77.2812 74.508C77.2522 74.4619 77.2225 74.4164 77.1924 74.3713ZM66.5531 63.5988C66.7249 63.4439 66.9231 63.3841 66.6649 63.6659C66.5448 63.6511 66.7285 63.5333 66.5531 63.5988ZM70.6179 67.026C70.4764 66.9081 70.2407 67.1929 70.1609 67.3793C70.2167 67.34 70.2727 67.3005 70.3282 67.2611C70.3288 67.3059 70.3292 67.3509 70.3299 67.3957C70.4261 67.2723 70.5223 67.1488 70.6179 67.026ZM64.4702 61.1073C64.4807 61.2951 64.317 61.0465 64.3309 61.1711C64.3412 61.2713 64.5003 61.258 64.5288 61.1744C64.5114 61.1535 64.4914 61.1309 64.4704 61.1075C64.4703 61.1075 64.4702 61.1074 64.4702 61.1073ZM65.0109 61.7141C64.894 61.7984 64.9466 61.7928 64.888 61.6947C64.8711 61.6669 64.6603 61.5221 64.8147 61.517C64.8772 61.5815 64.9448 61.6481 65.0109 61.7141ZM71.831 68.8123C71.9197 68.726 71.9731 68.3988 71.9079 68.4288C71.908 68.4287 71.9082 68.4286 71.9083 68.4284C71.7327 68.5092 71.857 68.6737 71.6181 68.7873C71.9106 68.7722 71.5704 69.1954 72.0635 68.683C72.0041 68.579 71.9394 68.7211 71.831 68.8123ZM82.2436 79.2103C82.2437 79.2104 82.2437 79.2105 82.2438 79.2105C82.2274 79.2085 81.9312 79.3532 81.8638 79.4391C82.0185 79.4665 82.1495 79.3031 81.9918 79.6304C82.0739 79.5575 82.1531 79.4863 82.2362 79.4132C82.2491 79.333 82.3236 79.2212 82.2436 79.2103ZM78.1211 74.8257C78.1203 74.7595 77.9246 74.8331 77.895 74.7865C77.4965 75.4276 78.1229 75.0912 78.1211 74.8257ZM59.9861 56.5695C59.9862 56.5696 59.9863 56.5697 59.9863 56.5698C59.9863 56.5698 59.9863 56.5697 59.9863 56.5696C59.9863 56.5696 59.9862 56.5695 59.9861 56.5695ZM75.2689 72.4912C75.3026 72.4662 75.3305 72.4431 75.3538 72.4216C75.3559 72.4195 75.3581 72.4173 75.3602 72.4152C75.3303 72.4404 75.3 72.4658 75.2689 72.4912ZM72.0838 69.1284C72.2644 69.0618 72.2714 68.675 72.1628 68.6607C72.1114 68.7207 72.0616 68.7718 72.0075 68.846C72.2015 68.7511 72.0543 69.139 72.0838 69.1284ZM67.867 64.6839C68.0181 64.8332 68.1651 64.2953 67.8855 64.5589C67.8806 64.5643 67.8638 64.6794 67.867 64.6839ZM70.9691 67.8749C71.0669 67.7007 71.1792 67.7421 71.0334 67.642C70.9914 67.6698 70.9493 67.6975 70.9074 67.7251C70.9282 67.7749 70.9486 67.825 70.9691 67.8749ZM69.3268 65.1914C69.4592 65.437 69.5254 65.7323 69.0823 65.9291C69.0785 65.9043 69.0741 65.8797 69.0703 65.855C69.2235 65.6974 69.086 65.7294 69.0045 65.6564C69.0545 65.5843 69.0257 65.5274 69.0692 65.4679C69.1529 65.3531 69.2732 65.3312 69.3268 65.1914ZM61.0499 57.5117C61.0458 57.5219 61.0415 57.532 61.0375 57.5422C61.0592 57.5802 61.0808 57.6185 61.1021 57.657C61.1115 57.638 61.1209 57.6189 61.1302 57.6C61.1035 57.5705 61.0769 57.5412 61.0501 57.5118C61.05 57.5118 61.05 57.5117 61.0499 57.5117ZM74.1589 70.1959C73.761 70.6281 73.7793 70.4898 73.8647 70.1611C73.9622 70.173 74.0605 70.1848 74.1589 70.1959ZM66.1184 62.3265C66.0554 62.3816 65.9928 62.4365 65.9298 62.4912C65.9267 62.3651 66.0049 62.3109 66.1143 62.2634C66.1158 62.2844 66.117 62.3053 66.1184 62.3265ZM65.1929 61.3907C65.2312 61.4061 65.1751 61.4348 65.1788 61.4367C65.2699 61.4813 65.2997 61.4706 65.3521 61.5846C65.3511 61.6059 65.3494 61.6277 65.348 61.6495C65.1971 61.7235 65.2298 61.6349 65.0835 61.6184C65.1358 61.5954 65.1885 61.572 65.2415 61.5484C65.1876 61.5117 65.1341 61.475 65.0805 61.4381C65.0866 61.4213 65.0925 61.4046 65.0985 61.3879C65.1296 61.389 65.1631 61.3887 65.1929 61.3907ZM60.684 57.1863C60.6384 57.1439 60.5926 57.1013 60.5471 57.0587C60.5552 57.0473 60.5635 57.036 60.5716 57.0247C60.6094 57.078 60.647 57.132 60.684 57.1863ZM74.8763 71.2863C74.857 71.3125 74.8375 71.3389 74.8171 71.3652C74.8453 71.3365 74.8637 71.3105 74.8763 71.2863ZM82.8735 78.8127C82.9897 78.7964 83.0195 78.9105 83.0888 78.9507C82.8472 79.1837 82.7726 78.9799 82.581 79.0738C82.6154 79.0237 82.8245 78.8195 82.8735 78.8127ZM70.4273 66.8577C70.474 66.786 70.5202 66.7148 70.5666 66.6436C70.5295 66.6202 70.492 66.5971 70.4548 66.5735C70.5018 66.5247 70.5493 66.4754 70.5963 66.4266C70.6714 66.6196 70.7783 66.4508 70.9857 66.3762C70.7991 66.537 70.6132 66.6976 70.4273 66.8577ZM59.3157 55.7531C59.4117 55.8508 59.4389 55.8922 59.3679 55.8541C59.3372 55.8164 59.306 55.7788 59.2748 55.7417C59.2884 55.7457 59.3021 55.7495 59.3157 55.7531ZM76.8086 72.8805C76.8086 73.0425 77.1043 72.7495 77.0202 72.992C76.9227 73.0046 76.825 73.0175 76.7285 73.0296C76.7553 72.98 76.7819 72.9299 76.8086 72.8805ZM73.4215 68.3204C73.5384 68.2718 73.2217 68.7163 73.6064 68.5238C73.5455 68.6305 73.4792 68.7256 73.416 68.8281C73.5188 68.7482 73.6246 68.6685 73.7265 68.5884C73.7266 68.5884 73.7266 68.5885 73.7267 68.5885C73.7879 68.7017 73.6136 68.763 73.5189 68.8616C73.4796 68.9027 73.6141 68.8976 73.5054 68.9659C73.3189 69.0826 73.2711 68.8696 73.0892 69.0507C73.1953 69.0363 73.2369 69.1736 73.0879 69.2697C72.9251 69.3745 73.0633 69.0677 72.8987 69.1249C73.2664 68.9111 73.014 68.8457 72.7757 69.0479C72.8504 68.7867 73.006 68.8025 73.0962 68.9034C73.2061 68.6768 73.2025 68.8522 73.3588 68.7241C73.3819 68.5808 73.0953 68.4544 73.4215 68.3204ZM68.5647 64.3793C68.6234 64.4495 68.7963 64.478 68.7405 64.622C68.7075 64.7064 68.5592 64.653 68.5372 64.8141C68.4828 64.7429 68.5041 64.6929 68.5958 64.6227C68.5909 64.599 68.5855 64.5754 68.5802 64.5521C68.5578 64.5613 68.5353 64.5702 68.5129 64.5794C68.5383 64.539 68.5632 64.4989 68.5886 64.4588C68.5665 64.4506 68.5442 64.4421 68.5218 64.4341C68.5365 64.4158 68.5477 64.3985 68.5647 64.3793ZM79.1515 75.1901C79.1354 75.1704 79.1194 75.151 79.1038 75.1308C79.1454 75.0932 79.1891 75.0542 79.2321 75.0157C79.2659 74.9851 79.2998 74.9545 79.3336 74.9239C79.2077 75.0291 78.9311 75.1352 79.017 74.9775C79.0598 74.8986 79.3194 74.7211 79.2786 74.6089C79.3245 74.6739 79.3476 74.7536 79.3842 74.8246C79.4442 74.755 79.5051 74.6848 79.565 74.6153C79.5651 74.6152 79.5652 74.6151 79.5654 74.6151C79.5985 74.6177 79.6326 74.6198 79.6659 74.6224C79.4946 74.8115 79.3233 75.0005 79.1515 75.1901ZM66.2891 62.2606C66.3031 62.3687 66.2978 62.4149 66.1887 62.4663C66.1886 62.4663 66.1885 62.4663 66.1884 62.4663C66.2007 62.4085 66.2127 62.351 66.2244 62.2938C66.2459 62.2828 66.2674 62.2716 66.2891 62.2606ZM75.9695 71.2444C75.4499 72.0235 75.5526 71.3364 75.8289 71.1713C75.8417 71.1636 75.885 71.3045 75.9695 71.2444ZM70.7873 66.9044C70.755 66.8655 70.7221 66.8269 70.6896 66.7879C70.7556 66.7384 70.8217 66.6891 70.8879 66.6394C70.8548 66.7272 70.8211 66.8158 70.7873 66.9044ZM59.7766 56.1353C59.833 56.1539 59.9421 56.2371 59.9701 56.3032C59.9419 56.282 59.9137 56.2608 59.8856 56.2395C59.9319 56.2866 59.9771 56.3337 60.0235 56.3814C59.9981 56.4118 59.9584 56.343 59.8672 56.2711C59.8526 56.2604 59.7395 56.212 59.7341 56.1615C59.7329 56.1515 59.8246 56.2317 59.7769 56.1599C59.805 56.184 59.8281 56.206 59.8543 56.2292C59.8623 56.2248 59.8702 56.2204 59.8784 56.2161C59.8443 56.1892 59.8105 56.1624 59.7766 56.1353ZM68.9406 64.7538C69.0405 64.831 68.9906 64.9027 68.9007 65.0294C68.8712 64.9767 68.8412 64.9243 68.8114 64.8718C68.8544 64.8327 68.8973 64.7932 68.9406 64.7538ZM60.6087 56.8854C60.6636 56.9275 60.621 56.9286 60.6373 56.9513C60.6984 57.0376 60.7658 57.0708 60.8312 57.1511C60.8306 57.1421 60.83 57.1337 60.8294 57.125C60.8295 57.1251 60.8296 57.1251 60.8296 57.1252C61.2077 57.4368 60.9648 57.3175 60.762 57.1076C60.7488 57.1111 60.7358 57.1148 60.7228 57.1182C60.643 57.0133 60.5682 56.9178 60.6087 56.8854ZM74.7969 70.1115C74.8322 70.0842 74.9949 69.8545 74.968 70.007C74.7302 70.3443 74.7892 70.1221 74.6572 70.2133C74.6471 70.2575 74.638 70.3013 74.6274 70.3455C74.4419 70.3277 74.4951 70.2449 74.7435 70.0705C74.7604 70.0589 74.7618 70.1387 74.7969 70.1115ZM75.6376 70.607C75.2089 71.0636 75.2765 70.7394 75.4174 70.6078C75.4413 70.6194 75.3809 70.7073 75.4334 70.6923C75.4861 70.6775 75.5944 70.579 75.6376 70.607ZM71.7108 67.1831C71.7161 67.1852 71.9015 67.0754 71.7833 67.1861C71.4645 67.4114 71.5417 67.146 71.6516 67.0691C71.6794 67.1035 71.6606 67.1638 71.7112 67.1827C71.711 67.1828 71.7109 67.1829 71.7108 67.1831ZM59.1755 55.5687C59.1781 55.5697 59.2824 55.6538 59.2901 55.6704C59.2949 55.6856 59.2939 55.6966 59.2957 55.7098C59.2475 55.6542 59.1344 55.5572 59.1757 55.5688C59.1756 55.5688 59.1756 55.5687 59.1755 55.5687Z" fill="#7DC5E4"/>
</svg>
